<?xml version="1.0" encoding="UTF-8" standalone="no"?><!DOCTYPE score-partwise PUBLIC "-//Recordare//DTD MusicXML 3.0 Partwise//EN" "http://www.musicxml.org/dtds/3.0/partwise.dtd"[]><score-partwise version="3.0"><movement-title>Bis ans Ende der Welt</movement-title><identification><creator type="composer">Lothar Kosse</creator><encoding><software>Finale v26.3 for Windows</software><encoding-date>2022-01-06</encoding-date><supports attribute="new-system" element="print" type="yes" value="yes" /><supports attribute="new-page" element="print" type="yes" value="yes" /><supports element="accidental" type="yes" /><supports element="beam" type="yes" /><supports element="stem" type="yes" /></encoding><rights>CCLI-Liednummer 4331007
© 1999 Praize Republic
Nutzung ausschließlich im Rahmen der SongSelect®-Nutzungsbedingungen. Alle Rechte vorbehalten. www.ccli.com
CCLI-Lizenznummer 2182334
</rights></identification><defaults><scaling><millimeters>6.5088</millimeters><tenths>40</tenths></scaling><page-layout><page-height>1717</page-height><page-width>1327</page-width><page-margins type="both"><left-margin>78</left-margin><right-margin>78</right-margin><top-margin>78</top-margin><bottom-margin>78</bottom-margin></page-margins></page-layout><system-layout><system-margins><left-margin>70</left-margin><right-margin>0</right-margin></system-margins><system-distance>190</system-distance><top-system-distance>117</top-system-distance></system-layout><appearance><line-width type="stem">1.4583</line-width><line-width type="beam">5</line-width><line-width type="staff">1.25</line-width><line-width type="light barline">1.4583</line-width><line-width type="heavy barline">5</line-width><line-width type="leger">1.875</line-width><line-width type="ending">1.4583</line-width><line-width type="wedge">1.4583</line-width><line-width type="enclosure">1.4583</line-width><line-width type="tuplet bracket">1.4583</line-width><note-size type="grace">50</note-size><note-size type="cue">50</note-size><distance type="hyphen">240</distance><distance type="beam">7.5</distance></appearance><music-font font-family="Maestro,engraved" font-size="18.5" /><word-font font-family="Arial" font-size="9.2" /><lyric-font font-family="Georgia" font-size="10.8" name="verse" /><lyric-font font-family="Arial" font-size="10.8" name="section" /></defaults><credit page="1"><credit-type>title</credit-type><credit-words default-x="663" default-y="1649" font-size="21.6" font-weight="bold" justify="center" valign="top">Bis ans Ende der Welt</credit-words></credit><credit page="1"><credit-words default-x="1249" default-y="1576" font-size="10.8" font-style="italic" justify="right" valign="top">Text und Musik:</credit-words></credit><credit page="1"><credit-type>composer</credit-type><credit-words default-x="1249" default-y="1552" font-size="10.8" font-weight="bold" justify="right" valign="top">Lothar Kosse</credit-words></credit><credit page="2"><credit-type>page number</credit-type><credit-type>title</credit-type><credit-words default-x="663" default-y="1663" font-size="10.8" justify="center" valign="top">Bis ans Ende der Welt - 2</credit-words></credit><part-list><score-part id="P1"><part-name print-object="no">Vocals</part-name><score-instrument id="P1-I2"><instrument-name>Melody</instrument-name></score-instrument><midi-instrument id="P1-I2"><midi-channel>1</midi-channel><midi-program>1</midi-program><volume>80</volume><pan>0</pan></midi-instrument></score-part></part-list><!--=========================================================--><part id="P1"><measure implicit="yes" number="0" width="459"><print page-number="1"><page-layout><page-height>1717</page-height><page-width>1327</page-width><page-margins><left-margin>78</left-margin><right-margin>78</right-margin><top-margin>190</top-margin><bottom-margin>163</bottom-margin></page-margins></page-layout><system-layout><system-margins><left-margin>68</left-margin><right-margin>0</right-margin></system-margins></system-layout><measure-numbering>system</measure-numbering></print><attributes><divisions>2</divisions><key><fifths>4</fifths><mode>major</mode></key><time><beats>4</beats><beat-type>4</beat-type></time><clef><sign>G</sign><line>2</line></clef></attributes><sound tempo="96" /><harmony default-y="36" font-size="10" font-weight="bold"><root><root-step>A</root-step></root><kind halign="center" text="">major</kind><bass><bass-step>B</bass-step></bass></harmony><note default-x="147"><pitch><step>G</step><alter>1</alter><octave>4</octave></pitch><duration>1</duration><voice>1</voice><type>eighth</type><stem default-y="1">up</stem><beam number="1">begin</beam><lyric default-y="-91" name="verse" number="1"><syllabic>single</syllabic><text font-size="10.8">Bis</text></lyric></note><note default-x="199"><pitch><step>A</step><octave>4</octave></pitch><duration>1</duration><voice>1</voice><type>eighth</type><stem default-y="6">up</stem><beam number="1">end</beam><lyric default-y="-91" name="verse" number="1"><syllabic>single</syllabic><text font-size="10.8">ans</text></lyric></note><note default-x="248"><pitch><step>G</step><alter>1</alter><octave>4</octave></pitch><duration>1</duration><voice>1</voice><type>eighth</type><stem default-y="1">up</stem><beam number="1">begin</beam><lyric default-y="-91" name="verse" number="1"><syllabic>begin</syllabic><text font-size="10.8">En</text></lyric></note><note default-x="292"><pitch><step>G</step><alter>1</alter><octave>4</octave></pitch><duration>1</duration><voice>1</voice><type>eighth</type><stem default-y="1">up</stem><beam number="1">end</beam><lyric default-y="-91" name="verse" number="1"><syllabic>end</syllabic><text font-size="10.8">de</text></lyric></note><note default-x="339"><pitch><step>F</step><alter>1</alter><octave>4</octave></pitch><duration>1</duration><voice>1</voice><type>eighth</type><stem default-y="-4">up</stem><beam number="1">begin</beam><lyric default-y="-91" name="verse" number="1"><syllabic>single</syllabic><text font-size="10.8">der</text></lyric></note><note default-x="401"><pitch><step>E</step><octave>4</octave></pitch><duration>1</duration><tie type="start" /><voice>1</voice><type>eighth</type><stem default-y="-8.5">up</stem><beam number="1">end</beam><notations><tied type="start" /></notations><lyric default-y="-91" name="verse" number="1"><syllabic>single</syllabic><text font-size="10.8">Welt.</text><extend type="start" /></lyric></note><barline location="right"><bar-style>light-light</bar-style></barline></measure><!--=======================================================--><measure number="1" width="347"><direction placement="above"><direction-type><segno default-x="-5" default-y="62" /></direction-type><sound divisions="2" segno="2" /></direction><harmony default-y="36" font-size="10" font-weight="bold"><root><root-step>E</root-step></root><kind halign="center" text="">major</kind></harmony><direction placement="above"><direction-type><rehearsal default-y="69" font-weight="bold" relative-x="6">CHORUS</rehearsal></direction-type></direction><note default-x="10"><pitch><step>E</step><octave>4</octave></pitch><duration>2</duration><tie type="stop" /><voice>1</voice><type>quarter</type><stem default-y="-8.5">up</stem><notations><tied type="stop" /></notations><lyric name="verse" number="1"><extend type="stop" /></lyric></note><note default-x="52"><pitch><step>G</step><alter>1</alter><octave>4</octave></pitch><duration>1</duration><voice>1</voice><type>eighth</type><stem default-y="1">up</stem><beam number="1">begin</beam><lyric default-y="-91" name="verse" number="1"><syllabic>single</syllabic><text font-size="10.8">Bis</text></lyric></note><note default-x="103"><pitch><step>A</step><octave>4</octave></pitch><duration>1</duration><voice>1</voice><type>eighth</type><stem default-y="6">up</stem><beam number="1">end</beam><lyric default-y="-91" name="verse" number="1"><syllabic>single</syllabic><text font-size="10.8">ans</text></lyric></note><note default-x="152"><pitch><step>G</step><alter>1</alter><octave>4</octave></pitch><duration>1</duration><voice>1</voice><type>eighth</type><stem default-y="1">up</stem><beam number="1">begin</beam><lyric default-y="-91" name="verse" number="1"><syllabic>begin</syllabic><text font-size="10.8">En</text></lyric></note><note default-x="196"><pitch><step>G</step><alter>1</alter><octave>4</octave></pitch><duration>1</duration><voice>1</voice><type>eighth</type><stem default-y="1">up</stem><beam number="1">end</beam><lyric default-y="-91" name="verse" number="1"><syllabic>end</syllabic><text font-size="10.8">de</text></lyric></note><note default-x="242"><pitch><step>F</step><alter>1</alter><octave>4</octave></pitch><duration>1</duration><voice>1</voice><type>eighth</type><stem default-y="-4">up</stem><beam number="1">begin</beam><lyric default-y="-91" name="verse" number="1"><syllabic>single</syllabic><text font-size="10.8">der</text></lyric></note><note default-x="299"><pitch><step>E</step><octave>4</octave></pitch><duration>1</duration><tie type="start" /><voice>1</voice><type>eighth</type><stem default-y="-8.5">up</stem><beam number="1">end</beam><notations><tied type="start" /></notations><lyric default-y="-91" name="verse" number="1"><syllabic>single</syllabic><text font-size="10.8">Zeit.</text><extend type="start" /></lyric></note></measure><!--=======================================================--><measure number="2" width="296"><harmony default-y="36" font-size="10" font-weight="bold"><root><root-step>C</root-step><root-alter>1</root-alter></root><kind halign="center" text="m7">minor-seventh</kind></harmony><note default-x="23"><pitch><step>E</step><octave>4</octave></pitch><duration>2</duration><tie type="stop" /><voice>1</voice><type>quarter</type><stem default-y="-8.5">up</stem><notations><tied type="stop" /></notations><lyric name="verse" number="1"><extend type="stop" /></lyric></note><note default-x="65"><pitch><step>G</step><alter>1</alter><octave>4</octave></pitch><duration>1</duration><voice>1</voice><type>eighth</type><stem default-y="1">up</stem><beam number="1">begin</beam><lyric default-y="-91" name="verse" number="1"><syllabic>begin</syllabic><text font-size="10.8">Dei</text></lyric></note><note default-x="112"><pitch><step>A</step><octave>4</octave></pitch><duration>1</duration><voice>1</voice><type>eighth</type><stem default-y="6">up</stem><beam number="1">end</beam><lyric default-y="-91" name="verse" number="1"><syllabic>end</syllabic><text font-size="10.8">ne</text></lyric></note><note default-x="157"><pitch><step>G</step><alter>1</alter><octave>4</octave></pitch><duration>2</duration><voice>1</voice><type>quarter</type><stem default-y="1">up</stem><lyric default-y="-91" name="verse" number="1"><syllabic>begin</syllabic><text font-size="10.8">Lie</text></lyric></note><note default-x="202"><pitch><step>E</step><octave>4</octave></pitch><duration>1</duration><voice>1</voice><type>eighth</type><stem default-y="-8.5">up</stem><beam number="1">begin</beam><lyric default-y="-91" name="verse" number="1"><syllabic>end</syllabic><text font-size="10.8">be</text></lyric></note><note default-x="251"><pitch><step>E</step><octave>4</octave></pitch><duration>1</duration><tie type="start" /><voice>1</voice><type>eighth</type><stem default-y="-8.5">up</stem><beam number="1">end</beam><notations><tied type="start" /></notations><lyric default-y="-91" name="verse" number="1"><syllabic>single</syllabic><text font-size="10.8">hält</text><extend type="start" /></lyric></note></measure><!--=======================================================--><measure number="3" width="559"><print new-system="yes"><system-layout><system-margins><left-margin>0</left-margin><right-margin>0</right-margin></system-margins><system-distance>180</system-distance></system-layout></print><harmony default-y="36" font-size="10" font-weight="bold"><root><root-step>F</root-step><root-alter>1</root-alter></root><kind halign="center" text="m7">minor-seventh</kind></harmony><note default-x="127"><pitch><step>E</step><octave>4</octave></pitch><duration>2</duration><tie type="stop" /><voice>1</voice><type>quarter</type><stem default-y="-8.5">up</stem><notations><tied type="stop" /></notations><lyric name="verse" number="1"><extend type="stop" /></lyric></note><note default-x="198"><pitch><step>G</step><alter>1</alter><octave>4</octave></pitch><duration>1</duration><voice>1</voice><type>eighth</type><stem default-y="1">up</stem><beam number="1">begin</beam><lyric default-y="-91" name="verse" number="1"><syllabic>single</syllabic><text font-size="10.8">bis</text></lyric></note><note default-x="270"><pitch><step>A</step><octave>4</octave></pitch><duration>1</duration><voice>1</voice><type>eighth</type><stem default-y="6.5">up</stem><beam number="1">end</beam><lyric default-y="-91" name="verse" number="1"><syllabic>single</syllabic><text font-size="10.8">in</text></lyric></note><note default-x="342"><pitch><step>G</step><alter>1</alter><octave>4</octave></pitch><duration>2</duration><voice>1</voice><type>quarter</type><stem default-y="1">up</stem><lyric default-y="-91" name="verse" number="1"><syllabic>begin</syllabic><text font-size="10.8">E</text></lyric></note><note default-x="414"><pitch><step>E</step><octave>4</octave></pitch><duration>1</duration><voice>1</voice><type>eighth</type><stem default-y="-8.5">up</stem><beam number="1">begin</beam><lyric default-y="-91" name="verse" number="1"><syllabic>middle</syllabic><text font-size="10.8">wig</text></lyric></note><note default-x="485"><pitch><step>F</step><alter>1</alter><octave>4</octave></pitch><duration>1</duration><tie type="start" /><voice>1</voice><type>eighth</type><stem default-y="-4">up</stem><beam number="1">end</beam><notations><tied type="start" /></notations><lyric default-y="-91" name="verse" number="1"><syllabic>end</syllabic><text font-size="10.8">keit.</text><extend type="start" /></lyric></note></measure><!--=======================================================--><measure number="4" width="612"><harmony default-y="36" font-size="10" font-weight="bold"><root><root-step>A</root-step></root><kind halign="center" text="">major</kind><bass><bass-step>B</bass-step></bass></harmony><note default-x="17"><pitch><step>F</step><alter>1</alter><octave>4</octave></pitch><duration>2</duration><tie type="stop" /><voice>1</voice><type>quarter</type><stem default-y="-4">up</stem><notations><tied type="stop" /></notations><lyric name="verse" number="1"><extend type="stop" /></lyric></note><note default-x="102"><pitch><step>G</step><alter>1</alter><octave>4</octave></pitch><duration>1</duration><voice>1</voice><type>eighth</type><stem default-y="1">up</stem><beam number="1">begin</beam><lyric default-y="-91" name="verse" number="1"><syllabic>single</syllabic><text font-size="10.8">Sie</text></lyric></note><note default-x="186"><pitch><step>A</step><octave>4</octave></pitch><duration>1</duration><voice>1</voice><type>eighth</type><stem default-y="6.5">up</stem><beam number="1">end</beam><lyric default-y="-91" name="verse" number="1"><syllabic>single</syllabic><text font-size="10.8">wird</text></lyric></note><note default-x="271"><pitch><step>G</step><alter>1</alter><octave>4</octave></pitch><duration>1</duration><voice>1</voice><type>eighth</type><stem default-y="1">up</stem><beam number="1">begin</beam><lyric default-y="-91" name="verse" number="1"><syllabic>begin</syllabic><text font-size="10.8">nie</text></lyric></note><note default-x="356"><pitch><step>G</step><alter>1</alter><octave>4</octave></pitch><duration>1</duration><voice>1</voice><type>eighth</type><stem default-y="1">up</stem><beam number="1">end</beam><lyric default-y="-91" name="verse" number="1"><syllabic>end</syllabic><text font-size="10.8">mals</text></lyric></note><note default-x="441"><pitch><step>F</step><alter>1</alter><octave>4</octave></pitch><duration>1</duration><voice>1</voice><type>eighth</type><stem default-y="-4">up</stem><beam number="1">begin</beam><lyric default-y="-91" name="verse" number="1"><syllabic>begin</syllabic><text font-size="10.8">ver</text></lyric></note><note default-x="525"><pitch><step>E</step><octave>4</octave></pitch><duration>1</duration><tie type="start" /><voice>1</voice><type>eighth</type><stem default-y="-8.5">up</stem><beam number="1">end</beam><notations><tied type="start" /></notations><lyric default-y="-91" name="verse" number="1"><syllabic>end</syllabic><text font-size="10.8">gehn.</text><extend type="start" /></lyric></note></measure><!--=======================================================--><measure number="5" width="658"><print new-system="yes"><system-layout><system-margins><left-margin>0</left-margin><right-margin>0</right-margin></system-margins><system-distance>180</system-distance></system-layout></print><harmony default-y="36" font-size="10" font-weight="bold"><root><root-step>E</root-step></root><kind halign="center" text="">major</kind></harmony><note default-x="107"><pitch><step>E</step><octave>4</octave></pitch><duration>2</duration><tie type="stop" /><voice>1</voice><type>quarter</type><stem default-y="-9">up</stem><notations><tied type="stop" /></notations><lyric name="verse" number="1"><extend type="stop" /></lyric></note><note default-x="186"><pitch><step>G</step><alter>1</alter><octave>4</octave></pitch><duration>1</duration><voice>1</voice><type>eighth</type><stem default-y="1.5">up</stem><beam number="1">begin</beam><lyric default-y="-91" name="verse" number="1"><syllabic>single</syllabic><text font-size="10.8">Sie</text></lyric></note><note default-x="264"><pitch><step>A</step><octave>4</octave></pitch><duration>1</duration><voice>1</voice><type>eighth</type><stem default-y="6.5">up</stem><beam number="1">end</beam><lyric default-y="-91" name="verse" number="1"><syllabic>single</syllabic><text font-size="10.8">steht</text></lyric></note><note default-x="343"><pitch><step>G</step><alter>1</alter><octave>4</octave></pitch><duration>1</duration><voice>1</voice><type>eighth</type><stem default-y="1.5">up</stem><beam number="1">begin</beam><lyric default-y="-91" name="verse" number="1"><syllabic>single</syllabic><text font-size="10.8">fest</text></lyric></note><note default-x="421"><pitch><step>G</step><alter>1</alter><octave>4</octave></pitch><duration>1</duration><voice>1</voice><type>eighth</type><stem default-y="1.5">up</stem><beam number="1">end</beam><lyric default-y="-91" name="verse" number="1"><syllabic>single</syllabic><text font-size="10.8">und</text></lyric></note><note default-x="500"><pitch><step>F</step><alter>1</alter><octave>4</octave></pitch><duration>1</duration><voice>1</voice><type>eighth</type><stem default-y="-3">up</stem><beam number="1">begin</beam><lyric default-y="-91" name="verse" number="1"><syllabic>single</syllabic><text font-size="10.8">sie</text></lyric></note><note default-x="578"><pitch><step>E</step><octave>4</octave></pitch><duration>1</duration><tie type="start" /><voice>1</voice><type>eighth</type><stem default-y="-9">up</stem><beam number="1">end</beam><notations><tied type="start" /></notations><lyric default-y="-91" name="verse" number="1"><syllabic>single</syllabic><text font-size="10.8">bleibt.</text><extend type="start" /></lyric></note></measure><!--=======================================================--><measure number="6" width="512"><harmony default-y="36" font-size="10" font-weight="bold"><root><root-step>C</root-step><root-alter>1</root-alter></root><kind halign="center" text="m7">minor-seventh</kind></harmony><note default-x="31"><pitch><step>E</step><octave>4</octave></pitch><duration>2</duration><tie type="stop" /><voice>1</voice><type>quarter</type><stem default-y="-9">up</stem><notations><tied type="stop" /></notations><lyric name="verse" number="1"><extend type="stop" /></lyric></note><note default-x="111"><pitch><step>G</step><alter>1</alter><octave>4</octave></pitch><duration>1</duration><voice>1</voice><type>eighth</type><stem default-y="1.5">up</stem><beam number="1">begin</beam><lyric default-y="-91" name="verse" number="1"><syllabic>single</syllabic><text font-size="10.8">Wenn</text></lyric></note><note default-x="191"><pitch><step>A</step><octave>4</octave></pitch><duration>1</duration><voice>1</voice><type>eighth</type><stem default-y="6.5">up</stem><beam number="1">end</beam><lyric default-y="-91" name="verse" number="1"><syllabic>single</syllabic><text font-size="10.8">der</text></lyric></note><note default-x="271"><pitch><step>B</step><octave>4</octave></pitch><duration>2</duration><voice>1</voice><type>quarter</type><stem default-y="-51">down</stem><lyric default-y="-91" name="verse" number="1"><syllabic>begin</syllabic><text font-size="10.8">Vor</text></lyric></note><note default-x="351"><pitch><step>G</step><alter>1</alter><octave>4</octave></pitch><duration>1</duration><voice>1</voice><type>eighth</type><stem default-y="1.5">up</stem><beam number="1">begin</beam><lyric default-y="-91" name="verse" number="1"><syllabic>end</syllabic><text font-size="10.8">hang</text></lyric></note><note default-x="431"><pitch><step>E</step><octave>4</octave></pitch><duration>1</duration><tie type="start" /><voice>1</voice><type>eighth</type><stem default-y="-3">up</stem><beam number="1">end</beam><notations><tied type="start" /></notations><lyric default-y="-91" name="verse" number="1"><syllabic>single</syllabic><text font-size="10.8">fällt</text><extend type="start" /></lyric></note><direction placement="above"><direction-type><words default-y="58" font-style="italic" justify="right">Schluss zur Coda </words></direction-type><direction-type><coda /></direction-type><sound time-only="3" tocoda="18" /></direction></measure><!--=======================================================--><measure number="7" width="497"><print new-system="yes"><system-layout><system-margins><left-margin>0</left-margin><right-margin>0</right-margin></system-margins><system-distance>180</system-distance></system-layout></print><harmony default-y="36" font-size="10" font-weight="bold"><root><root-step>F</root-step><root-alter>1</root-alter></root><kind halign="center" text="m7">minor-seventh</kind></harmony><note default-x="119"><pitch><step>E</step><octave>4</octave></pitch><duration>2</duration><tie type="stop" /><voice>1</voice><type>quarter</type><stem default-y="-9">up</stem><notations><tied type="stop" /></notations><lyric name="verse" number="1"><extend type="stop" /></lyric></note><note default-x="178"><pitch><step>F</step><alter>1</alter><octave>4</octave></pitch><duration>1</duration><voice>1</voice><type>eighth</type><stem default-y="-3.5">up</stem><beam number="1">begin</beam><lyric default-y="-91" name="verse" number="1"><syllabic>single</syllabic><text font-size="10.8">und</text></lyric></note><note default-x="241"><pitch><step>G</step><alter>1</alter><octave>4</octave></pitch><duration>1</duration><voice>1</voice><type>eighth</type><stem default-y="1.5">up</stem><beam number="1">end</beam><lyric default-y="-91" name="verse" number="1"><syllabic>single</syllabic><text font-size="10.8">der</text></lyric></note><note default-x="304"><pitch><step>A</step><octave>4</octave></pitch><duration>2</duration><voice>1</voice><type>quarter</type><stem default-y="6">up</stem><lyric default-y="-91" name="verse" number="1"><syllabic>single</syllabic><text font-size="10.8">Tag</text></lyric></note><note default-x="367"><pitch><step>G</step><alter>1</alter><octave>4</octave></pitch><duration>1</duration><voice>1</voice><type>eighth</type><stem default-y="1.5">up</stem><beam number="1">begin</beam><lyric default-y="-91" name="verse" number="1"><syllabic>single</syllabic><text font-size="10.8">sich</text></lyric></note><note default-x="433"><pitch><step>G</step><alter>1</alter><octave>4</octave></pitch><duration>1</duration><voice>1</voice><type>eighth</type><stem default-y="1.5">up</stem><beam number="1">end</beam><notations><slur bezier-x="12" bezier-y="-15" default-x="6" default-y="-43" number="1" placement="below" type="start" /></notations><lyric default-y="-91" name="verse" number="1"><syllabic>single</syllabic><text font-size="10.8">neigt.</text><extend type="start" /></lyric></note></measure><!--=======================================================--><measure number="8" width="124"><harmony default-y="36" font-size="10" font-weight="bold"><root><root-step>A</root-step></root><kind halign="center" text="">major</kind><bass><bass-step>B</bass-step></bass></harmony><note default-x="17"><pitch><step>F</step><alter>1</alter><octave>4</octave></pitch><duration>4</duration><voice>1</voice><type>half</type><stem default-y="-3.5">up</stem><notations><slur bezier-x="-12" bezier-y="-15" default-x="6" default-y="-45" number="1" type="stop" /></notations><lyric name="verse" number="1"><extend type="stop" /></lyric></note><note default-x="65"><rest /><duration>4</duration><voice>1</voice><type>half</type></note><barline location="right"><bar-style>light-light</bar-style></barline></measure><!--=======================================================--><measure number="9" width="550"><harmony default-y="36" font-size="10" font-weight="bold"><root><root-step>F</root-step><root-alter>1</root-alter></root><kind halign="center" text="m7">minor-seventh</kind></harmony><direction placement="above"><direction-type><rehearsal default-y="69" font-weight="bold" relative-x="-5">VERS</rehearsal></direction-type></direction><note default-x="28"><pitch><step>E</step><octave>4</octave></pitch><duration>1</duration><voice>1</voice><type>eighth</type><stem default-y="-9">up</stem><beam number="1">begin</beam><lyric default-y="-91" name="verse" number="1"><syllabic>begin</syllabic><text font-size="10.8">Nie</text></lyric></note><note default-x="95"><pitch><step>E</step><octave>4</octave></pitch><duration>1</duration><voice>1</voice><type>eighth</type><stem default-y="-9">up</stem><beam number="1">end</beam><lyric default-y="-91" name="verse" number="1"><syllabic>end</syllabic><text font-size="10.8">mand</text></lyric></note><note default-x="163"><pitch><step>E</step><octave>4</octave></pitch><duration>1</duration><voice>1</voice><type>eighth</type><stem default-y="-9">up</stem><beam number="1">begin</beam><lyric default-y="-91" name="verse" number="1"><syllabic>single</syllabic><text font-size="10.8">und</text></lyric></note><note default-x="231"><pitch><step>E</step><octave>4</octave></pitch><duration>1</duration><tie type="start" /><voice>1</voice><type>eighth</type><stem default-y="-9">up</stem><beam number="1">end</beam><notations><tied type="start" /></notations><lyric default-y="-91" name="verse" number="1"><syllabic>single</syllabic><text font-size="10.8">nichts</text><extend type="start" /></lyric></note><note default-x="293"><pitch><step>E</step><octave>4</octave></pitch><duration>1</duration><tie type="stop" /><voice>1</voice><type>eighth</type><stem default-y="-9">up</stem><beam number="1">begin</beam><notations><tied type="stop" /></notations><lyric name="verse" number="1"><extend type="stop" /></lyric></note><note default-x="354"><pitch><step>E</step><octave>4</octave></pitch><duration>1</duration><voice>1</voice><type>eighth</type><stem default-y="-9">up</stem><beam number="1">end</beam><lyric default-y="-91" name="verse" number="1"><syllabic>single</syllabic><text font-size="10.8">kann</text></lyric></note><note default-x="421"><pitch><step>F</step><alter>1</alter><octave>4</octave></pitch><duration>1</duration><voice>1</voice><type>eighth</type><stem default-y="-3.5">up</stem><beam number="1">begin</beam><lyric default-y="-91" name="verse" number="1"><syllabic>single</syllabic><text font-size="10.8">uns</text></lyric></note><note default-x="486"><pitch><step>E</step><octave>4</octave></pitch><duration>1</duration><tie type="start" /><voice>1</voice><type>eighth</type><stem default-y="-9">up</stem><beam number="1">end</beam><notations><tied type="start" /></notations><lyric default-y="-91" name="verse" number="1"><syllabic>begin</syllabic><text font-size="10.8">tren</text></lyric></note></measure><!--=======================================================--><measure number="10" width="516"><print new-system="yes"><system-layout><system-margins><left-margin>0</left-margin><right-margin>0</right-margin></system-margins><system-distance>180</system-distance></system-layout></print><harmony default-y="36" font-size="10" font-weight="bold"><root><root-step>E</root-step></root><kind halign="center" text="">major</kind><bass><bass-step>G</bass-step><bass-alter>1</bass-alter></bass></harmony><note default-x="107"><pitch><step>E</step><octave>4</octave></pitch><duration>1</duration><tie type="stop" /><voice>1</voice><type>eighth</type><stem default-y="-8">up</stem><beam number="1">begin</beam><notations><tied type="stop" /></notations></note><note default-x="160"><pitch><step>E</step><octave>4</octave></pitch><duration>1</duration><voice>1</voice><type>eighth</type><stem default-y="-8">up</stem><beam number="1">end</beam><lyric default-y="-91" name="verse" number="1"><syllabic>end</syllabic><text font-size="10.8">nen</text></lyric></note><note default-x="215"><pitch><step>E</step><octave>4</octave></pitch><duration>1</duration><voice>1</voice><type>eighth</type><stem default-y="-8">up</stem><beam number="1">begin</beam><lyric default-y="-91" name="verse" number="1"><syllabic>single</syllabic><text font-size="10.8">von</text></lyric></note><note default-x="271"><pitch><step>E</step><octave>4</octave></pitch><duration>1</duration><tie type="start" /><voice>1</voice><type>eighth</type><stem default-y="-8">up</stem><beam number="1">end</beam><notations><tied type="start" /></notations><lyric default-y="-91" name="verse" number="1"><syllabic>single</syllabic><text font-size="10.8">Dir,</text><extend type="start" /></lyric></note><note default-x="319"><pitch><step>E</step><octave>4</octave></pitch><duration>1</duration><tie type="stop" /><voice>1</voice><type>eighth</type><stem default-y="-8">up</stem><beam number="1">begin</beam><notations><tied type="stop" /></notations><lyric name="verse" number="1"><extend type="stop" /></lyric></note><note default-x="366"><pitch><step>E</step><octave>4</octave></pitch><duration>1</duration><voice>1</voice><type>eighth</type><stem default-y="-8">up</stem><beam number="1">end</beam><lyric default-y="-91" name="verse" number="1"><syllabic>begin</syllabic><text font-size="10.8">Dei</text></lyric></note><note default-x="417"><pitch><step>F</step><alter>1</alter><octave>4</octave></pitch><duration>1</duration><voice>1</voice><type>eighth</type><stem default-y="-3.5">up</stem><beam number="1">begin</beam><lyric default-y="-91" name="verse" number="1"><syllabic>end</syllabic><text font-size="10.8">ne</text></lyric></note><note default-x="467"><pitch><step>E</step><octave>4</octave></pitch><duration>1</duration><tie type="start" /><voice>1</voice><type>eighth</type><stem default-y="-8">up</stem><beam number="1">end</beam><notations><tied type="start" /></notations><lyric default-y="-91" name="verse" number="1"><syllabic>begin</syllabic><text font-size="10.8">Lie</text></lyric></note></measure><!--=======================================================--><measure number="11" width="422"><harmony default-y="36" font-size="10" font-weight="bold"><root><root-step>A</root-step></root><kind halign="center" text="">major</kind></harmony><note default-x="14"><pitch><step>E</step><octave>4</octave></pitch><duration>1</duration><tie type="stop" /><voice>1</voice><type>eighth</type><stem default-y="-8">up</stem><beam number="1">begin</beam><notations><tied type="stop" /></notations></note><note default-x="61"><pitch><step>E</step><octave>4</octave></pitch><duration>1</duration><voice>1</voice><type>eighth</type><stem default-y="-8">up</stem><beam number="1">end</beam><lyric default-y="-91" name="verse" number="1"><syllabic>end</syllabic><text font-size="10.8">be</text></lyric></note><note default-x="109"><pitch><step>E</step><octave>4</octave></pitch><duration>1</duration><voice>1</voice><type>eighth</type><stem default-y="-8">up</stem><beam number="1">begin</beam><lyric default-y="-91" name="verse" number="1"><syllabic>single</syllabic><text font-size="10.8">ist</text></lyric></note><note default-x="164"><pitch><step>E</step><octave>4</octave></pitch><duration>1</duration><tie type="start" /><voice>1</voice><type>eighth</type><stem default-y="-8">up</stem><beam number="1">end</beam><notations><tied type="start" /></notations><lyric default-y="-91" name="verse" number="1"><syllabic>single</syllabic><text font-size="10.8">stark</text><extend type="start" /></lyric></note><note default-x="212"><pitch><step>E</step><octave>4</octave></pitch><duration>1</duration><tie type="stop" /><voice>1</voice><type>eighth</type><stem default-y="-8">up</stem><beam number="1">begin</beam><notations><tied type="stop" /></notations><lyric name="verse" number="1"><extend type="stop" /></lyric></note><note default-x="259"><pitch><step>F</step><alter>1</alter><octave>4</octave></pitch><duration>1</duration><voice>1</voice><type>eighth</type><stem default-y="-3.5">up</stem><beam number="1">end</beam><lyric default-y="-91" name="verse" number="1"><syllabic>single</syllabic><text font-size="10.8">wie</text></lyric></note><note default-x="313"><pitch><step>G</step><alter>1</alter><octave>4</octave></pitch><duration>1</duration><voice>1</voice><type>eighth</type><stem default-y="1.5">up</stem><beam number="1">begin</beam><lyric default-y="-91" name="verse" number="1"><syllabic>single</syllabic><text font-size="10.8">der</text></lyric></note><note default-x="370"><pitch><step>G</step><alter>1</alter><octave>4</octave></pitch><duration>1</duration><tie type="start" /><voice>1</voice><type>eighth</type><stem default-y="1.5">up</stem><beam number="1">end</beam><notations><tied type="start" /></notations><lyric default-y="-91" name="verse" number="1"><syllabic>single</syllabic><text font-size="10.8">Tod.</text><extend type="start" /></lyric></note></measure><!--=======================================================--><measure number="12" width="233"><harmony default-y="36" font-size="10" font-weight="bold"><root><root-step>C</root-step><root-alter>1</root-alter></root><kind halign="center" text="m">minor</kind></harmony><note default-x="25"><pitch><step>G</step><alter>1</alter><octave>4</octave></pitch><duration>4</duration><tie type="stop" /><voice>1</voice><type>half</type><stem default-y="1.5">up</stem><notations><tied type="stop" /></notations><lyric name="verse" number="1"><extend type="stop" /></lyric></note><harmony default-y="36" font-size="10" font-weight="bold"><root><root-step>B</root-step></root><kind halign="center" text="">major</kind><bass><bass-step>D</bass-step><bass-alter>1</bass-alter></bass></harmony><note default-x="75"><rest /><duration>2</duration><voice>1</voice><type>quarter</type></note><harmony default-y="36" font-size="10" font-weight="bold"><root><root-step>E</root-step></root><kind halign="center" text="">major</kind></harmony><note default-x="128"><rest /><duration>1</duration><voice>1</voice><type>eighth</type></note><note default-x="178"><pitch><step>B</step><octave>3</octave></pitch><duration>1</duration><voice>1</voice><type>eighth</type><stem default-y="-20">up</stem><lyric default-y="-91" name="verse" number="1"><syllabic>single</syllabic><text font-size="10.8">Wenn</text></lyric></note></measure><!--=======================================================--><measure number="13" width="647"><print new-system="yes"><system-layout><system-margins><left-margin>0</left-margin><right-margin>0</right-margin></system-margins><system-distance>180</system-distance></system-layout></print><harmony default-y="36" font-size="10" font-weight="bold"><root><root-step>F</root-step><root-alter>1</root-alter></root><kind halign="center" text="m7">minor-seventh</kind></harmony><note default-x="127"><pitch><step>E</step><octave>4</octave></pitch><duration>1</duration><voice>1</voice><type>eighth</type><stem default-y="-8.5">up</stem><beam number="1">begin</beam><lyric default-y="-91" name="verse" number="1"><syllabic>single</syllabic><text font-size="10.8">Du</text></lyric></note><note default-x="191"><pitch><step>E</step><octave>4</octave></pitch><duration>1</duration><voice>1</voice><type>eighth</type><stem default-y="-8.5">up</stem><beam number="1">end</beam><lyric default-y="-91" name="verse" number="1"><syllabic>single</syllabic><text font-size="10.8">für</text></lyric></note><note default-x="257"><pitch><step>E</step><octave>4</octave></pitch><duration>1</duration><voice>1</voice><type>eighth</type><stem default-y="-8.5">up</stem><beam number="1">begin</beam><lyric default-y="-91" name="verse" number="1"><syllabic>single</syllabic><text font-size="10.8">uns</text></lyric></note><note default-x="321"><pitch><step>E</step><octave>4</octave></pitch><duration>1</duration><tie type="start" /><voice>1</voice><type>eighth</type><stem default-y="-8.5">up</stem><beam number="1">end</beam><notations><tied type="start" /></notations><lyric default-y="-91" name="verse" number="1"><syllabic>single</syllabic><text font-size="10.8">bist,</text><extend type="start" /></lyric></note><note default-x="386"><pitch><step>E</step><octave>4</octave></pitch><duration>1</duration><tie type="stop" /><voice>1</voice><type>eighth</type><stem default-y="-8.5">up</stem><beam number="1">begin</beam><notations><tied type="stop" /></notations><lyric name="verse" number="1"><extend type="stop" /></lyric></note><note default-x="451"><pitch><step>E</step><octave>4</octave></pitch><duration>1</duration><voice>1</voice><type>eighth</type><stem default-y="-8.5">up</stem><beam number="1">end</beam><lyric default-y="-91" name="verse" number="1"><syllabic>single</syllabic><text font-size="10.8">wer</text></lyric></note><note default-x="516"><pitch><step>E</step><octave>4</octave></pitch><duration>1</duration><voice>1</voice><type>eighth</type><stem default-y="6">up</stem><beam number="1">begin</beam><lyric default-y="-91" name="verse" number="1"><syllabic>single</syllabic><text font-size="10.8">kann</text></lyric></note><note default-x="581"><pitch><step>B</step><octave>4</octave></pitch><duration>1</duration><tie type="start" /><voice>1</voice><type>eighth</type><stem default-y="11">up</stem><beam number="1">end</beam><notations><tied type="start" /></notations><lyric default-y="-91" name="verse" number="1"><syllabic>begin</syllabic><text font-size="10.8">ge</text></lyric></note></measure><!--=======================================================--><measure number="14" width="523"><harmony default-y="36" font-size="10" font-weight="bold"><root><root-step>E</root-step></root><kind halign="center" text="">major</kind><bass><bass-step>G</bass-step><bass-alter>1</bass-alter></bass></harmony><note default-x="14"><pitch><step>B</step><octave>4</octave></pitch><duration>1</duration><tie type="stop" /><voice>1</voice><type>eighth</type><stem default-y="11">up</stem><beam number="1">begin</beam><notations><tied type="stop" /></notations></note><note default-x="78"><pitch><step>G</step><alter>1</alter><octave>4</octave></pitch><duration>1</duration><voice>1</voice><type>eighth</type><stem default-y="6">up</stem><beam number="1">end</beam><lyric default-y="-91" name="verse" number="1"><syllabic>end</syllabic><text font-size="10.8">gen</text></lyric></note><note default-x="141"><pitch><step>F</step><alter>1</alter><octave>4</octave></pitch><duration>1</duration><voice>1</voice><type>eighth</type><stem default-y="-3.5">up</stem><beam number="1">begin</beam><lyric default-y="-91" name="verse" number="1"><syllabic>single</syllabic><text font-size="10.8">uns</text></lyric></note><note default-x="205"><pitch><step>E</step><octave>4</octave></pitch><duration>1</duration><tie type="start" /><voice>1</voice><type>eighth</type><stem default-y="-8.5">up</stem><beam number="1">end</beam><notations><tied type="start" /></notations><lyric default-y="-91" name="verse" number="1"><syllabic>single</syllabic><text font-size="10.8">sein,</text><extend type="start" /></lyric></note><note default-x="268"><pitch><step>E</step><octave>4</octave></pitch><duration>1</duration><tie type="stop" /><voice>1</voice><type>eighth</type><stem default-y="-8.5">up</stem><beam number="1">begin</beam><notations><tied type="stop" /></notations><lyric name="verse" number="1"><extend type="stop" /></lyric></note><note default-x="331"><pitch><step>F</step><alter>1</alter><octave>4</octave></pitch><duration>1</duration><voice>1</voice><type>eighth</type><stem default-y="-3.5">up</stem><beam number="1">end</beam><lyric default-y="-91" name="verse" number="1"><syllabic>single</syllabic><text font-size="10.8">denn</text></lyric></note><note default-x="395"><pitch><step>G</step><alter>1</alter><octave>4</octave></pitch><duration>1</duration><voice>1</voice><type>eighth</type><stem default-y="1">up</stem><beam number="1">begin</beam><lyric default-y="-91" name="verse" number="1"><syllabic>single</syllabic><text font-size="10.8">auf</text></lyric></note><note default-x="458"><pitch><step>A</step><octave>4</octave></pitch><duration>1</duration><tie type="start" /><voice>1</voice><type>eighth</type><stem default-y="6">up</stem><beam number="1">end</beam><notations><tied type="start" /></notations><lyric default-y="-91" name="verse" number="1"><syllabic>begin</syllabic><text font-size="10.8">e</text></lyric></note></measure><!--=======================================================--><measure number="15" width="669"><print new-page="yes" page-number="2"><system-layout><system-margins><left-margin>0</left-margin><right-margin>0</right-margin></system-margins></system-layout></print><harmony default-y="36" font-size="10" font-weight="bold"><root><root-step>D</root-step></root><kind halign="center" text="">major</kind></harmony><note default-x="107"><pitch><step>A</step><octave>4</octave></pitch><duration>1</duration><tie type="stop" /><voice>1</voice><type>eighth</type><stem default-y="6.5">up</stem><beam number="1">begin</beam><notations><tied type="stop" /></notations></note><note default-x="177"><pitch><step>A</step><octave>4</octave></pitch><duration>1</duration><voice>1</voice><type>eighth</type><stem default-y="6.5">up</stem><beam number="1">end</beam><lyric default-y="-91" name="verse" number="1"><syllabic>end</syllabic><text font-size="10.8">wig</text></lyric></note><note default-x="247"><pitch><step>A</step><octave>4</octave></pitch><duration>1</duration><voice>1</voice><type>eighth</type><stem default-y="6.5">up</stem><beam number="1">begin</beam><lyric default-y="-91" name="verse" number="1"><syllabic>single</syllabic><text font-size="10.8">bist</text></lyric></note><note default-x="318"><pitch><step>A</step><octave>4</octave></pitch><duration>1</duration><tie type="start" /><voice>1</voice><type>eighth</type><stem default-y="6.5">up</stem><beam number="1">end</beam><notations><tied type="start" /></notations><lyric default-y="-91" name="verse" number="1"><syllabic>single</syllabic><text font-size="10.8">Du</text><extend type="start" /></lyric></note><harmony default-y="36" font-size="10" font-weight="bold"><root><root-step>A</root-step></root><kind halign="center" text="">major</kind><bass><bass-step>C</bass-step><bass-alter>1</bass-alter></bass></harmony><note default-x="388"><pitch><step>A</step><octave>4</octave></pitch><duration>1</duration><tie type="stop" /><voice>1</voice><type>eighth</type><stem default-y="6.5">up</stem><beam number="1">begin</beam><notations><tied type="stop" /></notations><lyric name="verse" number="1"><extend type="stop" /></lyric></note><note default-x="457"><pitch><step>G</step><alter>1</alter><octave>4</octave></pitch><duration>1</duration><voice>1</voice><type>eighth</type><stem default-y="1">up</stem><beam number="1">end</beam><lyric default-y="-91" name="verse" number="1"><syllabic>begin</syllabic><text font-size="10.8">un</text></lyric></note><note default-x="527"><pitch><step>E</step><octave>4</octave></pitch><duration>1</duration><voice>1</voice><type>eighth</type><stem default-y="-8.5">up</stem><beam number="1">begin</beam><lyric default-y="-91" name="verse" number="1"><syllabic>end</syllabic><text font-size="10.8">ser</text></lyric></note><note default-x="597"><pitch><step>F</step><alter>1</alter><octave>4</octave></pitch><duration>1</duration><tie type="start" /><voice>1</voice><type>eighth</type><stem default-y="-4">up</stem><beam number="1">end</beam><notations><tied type="start" /></notations><lyric default-y="-91" name="verse" number="1"><syllabic>single</syllabic><text font-size="10.8">Gott.</text><extend type="start" /></lyric></note></measure><!--=======================================================--><measure number="16" width="502"><harmony default-y="36" font-size="10" font-weight="bold"><root><root-step>B</root-step></root><kind halign="center" text="">major</kind></harmony><note default-x="12"><pitch><step>F</step><alter>1</alter><octave>4</octave></pitch><duration>2</duration><tie type="stop" /><voice>1</voice><type>quarter</type><stem default-y="-4">up</stem><notations><tied type="stop" /></notations><lyric name="verse" number="1"><extend type="stop" /></lyric></note><note default-x="81"><pitch><step>G</step><alter>1</alter><octave>4</octave></pitch><duration>1</duration><voice>1</voice><type>eighth</type><stem default-y="1">up</stem><beam number="1">begin</beam><lyric default-y="-91" name="verse" number="1"><syllabic>single</syllabic><text font-size="10.8">Bis</text></lyric></note><note default-x="150"><pitch><step>A</step><octave>4</octave></pitch><duration>1</duration><voice>1</voice><type>eighth</type><stem default-y="6.5">up</stem><beam number="1">end</beam><lyric default-y="-91" name="verse" number="1"><syllabic>single</syllabic><text font-size="10.8">ans</text></lyric></note><note default-x="219"><pitch><step>G</step><alter>1</alter><octave>4</octave></pitch><duration>1</duration><voice>1</voice><type>eighth</type><stem default-y="1">up</stem><beam number="1">begin</beam><lyric default-y="-91" name="verse" number="1"><syllabic>begin</syllabic><text font-size="10.8">En</text></lyric></note><note default-x="288"><pitch><step>G</step><alter>1</alter><octave>4</octave></pitch><duration>1</duration><voice>1</voice><type>eighth</type><stem default-y="1">up</stem><beam number="1">end</beam><lyric default-y="-91" name="verse" number="1"><syllabic>end</syllabic><text font-size="10.8">de</text></lyric></note><note default-x="357"><pitch><step>F</step><alter>1</alter><octave>4</octave></pitch><duration>1</duration><voice>1</voice><type>eighth</type><stem default-y="-4">up</stem><beam number="1">begin</beam><lyric default-y="-91" name="verse" number="1"><syllabic>single</syllabic><text font-size="10.8">der</text></lyric></note><note default-x="426"><pitch><step>E</step><octave>4</octave></pitch><duration>1</duration><voice>1</voice><type>eighth</type><stem default-y="-8.5">up</stem><beam number="1">end</beam><notations><slur bezier-x="7" bezier-y="-8" default-x="6" default-y="-50" number="1" placement="below" type="start" /><slur bezier-x="-7" bezier-y="-8" default-x="32" default-y="-50" number="1" type="stop" /></notations><lyric default-y="-91" name="verse" number="1"><syllabic>single</syllabic><text font-size="10.8">Welt.</text></lyric></note><direction placement="above"><direction-type><words default-x="489" default-y="20" font-style="italic" justify="right">D.S. al Coda</words></direction-type><sound dalsegno="2" /></direction><barline location="right"><bar-style>light-light</bar-style></barline></measure><!--=======================================================--><measure number="17" width="467"><print new-system="yes"><system-layout><system-distance>180</system-distance></system-layout></print><direction placement="above"><direction-type><coda default-x="-1" default-y="51" /></direction-type><sound coda="18" divisions="2" /></direction><direction placement="above"><direction-type><words default-x="21" default-y="51" font-style="italic">Coda</words></direction-type></direction><harmony default-y="36" font-size="10" font-weight="bold"><root><root-step>F</root-step><root-alter>1</root-alter></root><kind halign="center" text="m7">minor-seventh</kind></harmony><direction placement="below"><direction-type><bracket default-y="-87" line-end="none" line-type="solid" number="1" relative-x="-5" type="start" /></direction-type></direction><direction placement="below"><direction-type><bracket line-end="none" number="1" relative-x="14" type="stop" /></direction-type></direction><note default-x="128"><pitch><step>E</step><octave>4</octave></pitch><duration>2</duration><voice>1</voice><type>quarter</type><stem default-y="-9">up</stem><notations><slur bezier-x="7" bezier-y="-8" default-x="-17" default-y="-51" number="1" placement="below" type="start" /><slur bezier-x="-7" bezier-y="-8" default-x="6" default-y="-50" number="1" type="stop" /></notations></note><note default-x="182"><pitch><step>F</step><alter>1</alter><octave>4</octave></pitch><duration>1</duration><voice>1</voice><type>eighth</type><stem default-y="-4">up</stem><beam number="1">begin</beam><lyric default-y="-91" name="verse" number="1"><syllabic>begin</syllabic><text font-size="10.8">Dei</text></lyric></note><note default-x="239"><pitch><step>G</step><alter>1</alter><octave>4</octave></pitch><duration>1</duration><voice>1</voice><type>eighth</type><stem default-y="2">up</stem><beam number="1">end</beam><lyric default-y="-91" name="verse" number="1"><syllabic>end</syllabic><text font-size="10.8">ne</text></lyric></note><note default-x="293"><pitch><step>A</step><octave>4</octave></pitch><duration>2</duration><voice>1</voice><type>quarter</type><stem default-y="6.5">up</stem><lyric default-y="-91" name="verse" number="1"><syllabic>begin</syllabic><text font-size="10.8">Lie</text></lyric></note><note default-x="349"><pitch><step>G</step><alter>1</alter><octave>4</octave></pitch><duration>1</duration><voice>1</voice><type>eighth</type><stem default-y="2">up</stem><beam number="1">begin</beam><lyric default-y="-91" name="verse" number="1"><syllabic>end</syllabic><text font-size="10.8">be</text></lyric></note><note default-x="408"><pitch><step>G</step><alter>1</alter><octave>4</octave></pitch><duration>1</duration><voice>1</voice><type>eighth</type><stem default-y="2">up</stem><beam number="1">end</beam><notations><slur bezier-x="12" bezier-y="-15" default-x="6" default-y="-43" number="1" placement="below" type="start" /></notations><lyric default-y="-91" name="verse" number="1"><syllabic>single</syllabic><text font-size="10.8">reicht</text><extend type="start" /></lyric></note></measure><!--=======================================================--><measure number="18" width="107"><harmony default-y="36" font-size="10" font-weight="bold"><root><root-step>B</root-step></root><kind halign="center" text="">major</kind></harmony><note default-x="12"><pitch><step>F</step><alter>1</alter><octave>4</octave></pitch><duration>8</duration><voice>1</voice><type>whole</type><notations><slur bezier-x="-12" bezier-y="-14" default-x="9" default-y="-45" number="1" type="stop" /></notations><lyric name="verse" number="1"><extend type="stop" /></lyric></note></measure><!--=======================================================--><measure number="19" width="412"><harmony default-y="36" font-size="10" font-weight="bold"><root><root-step>A</root-step></root><kind halign="center" text="">major</kind><bass><bass-step>B</bass-step></bass></harmony><note default-x="17"><rest /><duration>2</duration><voice>1</voice><type>quarter</type></note><note default-x="71"><pitch><step>B</step><octave>3</octave></pitch><duration>1</duration><voice>1</voice><type>eighth</type><stem default-y="-20">up</stem><beam number="1">begin</beam><lyric default-y="-91" name="verse" number="1"><syllabic>single</syllabic><text font-size="10.8">bis</text></lyric></note><note default-x="127"><pitch><step>B</step><octave>3</octave></pitch><duration>1</duration><voice>1</voice><type>eighth</type><stem default-y="-20">up</stem><beam number="1">end</beam><lyric default-y="-91" name="verse" number="1"><syllabic>single</syllabic><text font-size="10.8">ans</text></lyric></note><note default-x="183"><pitch><step>B</step><octave>3</octave></pitch><duration>1</duration><voice>1</voice><type>eighth</type><stem default-y="-13.5">up</stem><beam number="1">begin</beam><lyric default-y="-91" name="verse" number="1"><syllabic>begin</syllabic><text font-size="10.8">En</text></lyric></note><note default-x="238"><pitch><step>E</step><octave>4</octave></pitch><duration>1</duration><voice>1</voice><type>eighth</type><stem default-y="-9">up</stem><beam number="1">end</beam><lyric default-y="-91" name="verse" number="1"><syllabic>end</syllabic><text font-size="10.8">de</text></lyric></note><note default-x="293"><pitch><step>D</step><alter>1</alter><octave>4</octave></pitch><duration>1</duration><voice>1</voice><type>eighth</type><stem default-y="-13.5">up</stem><beam number="1">begin</beam><lyric default-y="-91" name="verse" number="1"><syllabic>single</syllabic><text font-size="10.8">der</text></lyric></note><note default-x="354"><pitch><step>E</step><octave>4</octave></pitch><duration>1</duration><tie type="start" /><voice>1</voice><type>eighth</type><stem default-y="-9">up</stem><beam number="1">end</beam><notations><tied type="start" /></notations><lyric default-y="-91" name="verse" number="1"><syllabic>single</syllabic><text font-size="10.8">Welt.</text><extend type="start" /></lyric></note></measure><!--=======================================================--><measure number="20" width="115"><harmony default-y="36" font-size="10" font-weight="bold"><root><root-step>E</root-step></root><kind halign="center" text="">major</kind></harmony><note default-x="10"><pitch><step>E</step><octave>4</octave></pitch><duration>8</duration><tie type="stop" /><voice>1</voice><type>whole</type><notations><tied type="stop" /></notations><lyric name="verse" number="1"><extend type="stop" /></lyric></note><barline location="right"><bar-style>light-heavy</bar-style></barline></measure></part><!--=========================================================--></score-partwise>