<?xml version="1.0" encoding="UTF-8"?><!DOCTYPE score-partwise PUBLIC "-//Recordare//DTD MusicXML 1.1 Partwise//EN" "http://www.musicxml.org/dtds/partwise.dtd"[]><score-partwise version="1.1"><movement-title>Dank sei dir</movement-title><identification><creator type="composer">Steve Smith</creator><creator type="lyricist">Jim Mills</creator><encoding><software>Finale for Windows</software><software>Dolet 4.5 for Finale</software><encoding-date>2010-08-02</encoding-date></encoding><rights>CCLI-Liednummer 5183058
© 1977, 1978 Universal Music - Brentwood Benson Publishing
Nutzung ausschließlich im Rahmen der SongSelect®-Nutzungsbedingungen. Alle Rechte vorbehalten. www.ccli.com
CCLI-Lizenznummer 2182334
</rights></identification><defaults><scaling><millimeters>6.5088</millimeters><tenths>40</tenths></scaling><page-layout><page-height>1771</page-height><page-width>1308</page-width><page-margins type="both"><left-margin>78</left-margin><right-margin>78</right-margin><top-margin>78</top-margin><bottom-margin>78</bottom-margin></page-margins></page-layout><system-layout><system-margins><left-margin>0</left-margin><right-margin>0</right-margin></system-margins><system-distance>178</system-distance><top-system-distance>134</top-system-distance></system-layout><music-font font-family="Maestro" font-size="18.5" /><word-font font-family="Arial" font-size="9.2" /><lyric-font font-family="Arial" font-size="10.8" name="verse" /><lyric-font font-family="Arial" font-size="10.8" name="section" /></defaults><credit page="1"><credit-type>title</credit-type><credit-words default-x="654" default-y="1663" font-size="21.6" font-weight="bold" justify="center" valign="top">Dank sei dir</credit-words></credit><credit page="1"><credit-words default-x="1249" default-y="1576" font-size="10.8" font-style="italic" justify="right" valign="top">Text und Musik:</credit-words></credit><credit page="1"><credit-type>composer</credit-type><credit-words default-x="1249" default-y="1552" font-size="10.8" font-weight="bold" justify="right" valign="top">Steve Smith</credit-words></credit><credit page="1"><credit-words default-x="78" default-y="1576" font-size="10.8" font-style="italic" valign="top">Deutsch:</credit-words></credit><credit page="1"><credit-type>arranger</credit-type><credit-words default-x="78" default-y="1552" font-size="10.8" font-weight="bold" valign="top">Jim Mills</credit-words>
</credit><part-list><score-part id="P1"><part-name print-object="no">Melody</part-name><score-instrument id="P1-I2"><instrument-name>Melody</instrument-name></score-instrument><midi-instrument id="P1-I2"><midi-channel>1</midi-channel><midi-program>1</midi-program></midi-instrument></score-part></part-list><!--=========================================================--><part id="P1"><measure number="1" width="485"><print><system-layout><system-margins><left-margin>68</left-margin><right-margin>0</right-margin></system-margins><top-system-distance>253</top-system-distance></system-layout></print><attributes><divisions>2</divisions><key><fifths>-3</fifths><mode>major</mode></key><time><beats>4</beats><beat-type>4</beat-type></time><clef><sign>G</sign><line>2</line></clef></attributes><direction placement="above"><direction-type><metronome default-y="47" relative-x="-120"><beat-unit>quarter</beat-unit><per-minute>120</per-minute></metronome></direction-type><sound tempo="120" /></direction><harmony default-y="29" font-size="10" font-weight="bold"><root><root-step>E</root-step><root-alter>-1</root-alter></root><kind text="">major</kind></harmony><note default-x="144"><pitch><step>G</step><octave>4</octave></pitch><duration>1</duration><voice>1</voice><type>eighth</type><stem default-y="6">up</stem><lyric default-y="-111" name="verse" number="1"><syllabic>single</syllabic><text font-size="10.8">Dank</text></lyric></note><note default-x="197"><pitch><step>B</step><alter>-1</alter><octave>4</octave></pitch><duration>2</duration><voice>1</voice><type>quarter</type><stem default-y="-55">down</stem><lyric default-y="-111" name="verse" number="1"><syllabic>single</syllabic><text font-size="10.8">sei</text></lyric></note><note default-x="276"><pitch><step>B</step><alter>-1</alter><octave>4</octave></pitch><duration>1</duration><tie type="start" /><voice>1</voice><type>eighth</type><stem default-y="-55">down</stem><notations><tied type="start" /></notations><lyric default-y="-111" name="verse" number="1"><syllabic>single</syllabic><text font-size="10.8">dir,</text><extend /></lyric></note><note default-x="328"><pitch><step>B</step><alter>-1</alter><octave>4</octave></pitch><duration>2</duration><tie type="stop" /><voice>1</voice><type>quarter</type><stem default-y="-55">down</stem><notations><tied type="stop" /></notations></note><note default-x="406"><pitch><step>B</step><alter>-1</alter><octave>4</octave></pitch><duration>2</duration><voice>1</voice><type>quarter</type><stem default-y="-55">down</stem><lyric default-y="-111" name="verse" number="1"><syllabic>single</syllabic><text font-size="10.8">ja,</text></lyric></note></measure><!--=======================================================--><measure number="2" width="389"><print new-system="no" /><note default-x="30"><pitch><step>B</step><alter>-1</alter><octave>4</octave></pitch><duration>2</duration><voice>1</voice><type>quarter</type><stem default-y="-55">down</stem><lyric default-y="-111" name="verse" number="1"><syllabic>single</syllabic><text font-size="10.8">Dank</text></lyric></note><note default-x="110"><pitch><step>B</step><alter>-1</alter><octave>4</octave></pitch><duration>1</duration><voice>1</voice><type>eighth</type><stem default-y="-55">down</stem><beam number="1">begin</beam><lyric default-y="-111" name="verse" number="1"><syllabic>single</syllabic><text font-size="10.8">sei</text></lyric></note><note default-x="159"><pitch><step>B</step><alter>-1</alter><octave>4</octave></pitch><duration>1</duration><tie type="start" /><voice>1</voice><type>eighth</type><stem default-y="-55">down</stem><beam number="1">end</beam><notations><tied type="start" /><slur number="1" placement="above" type="start" /></notations><lyric default-y="-111" name="verse" number="1"><syllabic>single</syllabic><text font-size="10.8">dir,</text><extend /></lyric></note><note default-x="208"><pitch><step>B</step><alter>-1</alter><octave>4</octave></pitch><duration>1</duration><tie type="stop" /><voice>1</voice><type>eighth</type><stem default-y="15">up</stem><beam number="1">begin</beam><notations><tied type="stop" /></notations></note><note default-x="258"><pitch><step>A</step><alter>-1</alter><octave>4</octave></pitch><duration>1</duration><voice>1</voice><type>eighth</type><stem default-y="10">up</stem><beam number="1">end</beam><notations><slur number="1" type="stop" /></notations></note><note default-x="307"><pitch><step>G</step><octave>4</octave></pitch><duration>2</duration><voice>1</voice><type>quarter</type><stem default-y="6">up</stem><lyric default-y="-111" name="verse" number="1"><syllabic>single</syllabic><text font-size="10.8">wir</text></lyric></note></measure><!--=======================================================--><measure number="3" width="210"><print new-system="no" /><harmony default-y="29" font-size="10" font-weight="bold"><root><root-step>F</root-step></root><kind text="m7">minor-seventh</kind></harmony><note default-x="26"><pitch><step>E</step><alter>-1</alter><octave>4</octave></pitch><duration>4</duration><voice>1</voice><type>half</type><stem default-y="-4">up</stem><lyric default-y="-111" name="verse" number="1"><syllabic>begin</syllabic><text font-size="10.8">dan</text></lyric></note><note default-x="118"><pitch><step>F</step><octave>4</octave></pitch><duration>4</duration><voice>1</voice><type>half</type><stem default-y="0.5">up</stem><lyric default-y="-111" name="verse" number="1"><syllabic>end</syllabic><text font-size="10.8">ken</text></lyric></note></measure><!--=======================================================--><measure number="4" width="320"><print new-system="yes"><system-layout><system-distance>172</system-distance></system-layout></print><note default-x="111"><pitch><step>G</step><octave>4</octave></pitch><duration>4</duration><voice>1</voice><type>half</type><stem default-y="6">up</stem><lyric default-y="-111" name="verse" number="1" relative-x="-10"><syllabic>single</syllabic><text font-size="10.8">dir,</text></lyric></note><note default-x="215"><pitch><step>A</step><alter>-1</alter><octave>4</octave></pitch><duration>4</duration><voice>1</voice><type>half</type><stem default-y="11">up</stem><lyric default-y="-111" name="verse" number="1"><syllabic>single</syllabic><text font-size="10.8">Herr.</text></lyric></note></measure><!--=======================================================--><measure number="5" width="409"><print new-system="no" /><harmony default-y="29" font-size="10" font-weight="bold"><root><root-step>E</root-step><root-alter>-1</root-alter></root><kind text="">major</kind></harmony><note default-x="29"><pitch><step>G</step><octave>4</octave></pitch><duration>1</duration><voice>1</voice><type>eighth</type><stem default-y="6">up</stem><lyric default-y="-111" name="verse" number="1"><syllabic>single</syllabic><text font-size="10.8">Dank</text></lyric></note><note default-x="85"><pitch><step>B</step><alter>-1</alter><octave>4</octave></pitch><duration>2</duration><voice>1</voice><type>quarter</type><stem default-y="-55">down</stem><lyric default-y="-111" name="verse" number="1"><syllabic>single</syllabic><text font-size="10.8">sei</text></lyric></note><note default-x="174"><pitch><step>B</step><alter>-1</alter><octave>4</octave></pitch><duration>1</duration><tie type="start" /><voice>1</voice><type>eighth</type><stem default-y="-55">down</stem><notations><tied type="start" /></notations><lyric default-y="-111" name="verse" number="1"><syllabic>single</syllabic><text font-size="10.8">dir,</text><extend /></lyric></note><note default-x="229"><pitch><step>B</step><alter>-1</alter><octave>4</octave></pitch><duration>2</duration><tie type="stop" /><voice>1</voice><type>quarter</type><stem default-y="-55">down</stem><notations><tied type="stop" /></notations></note><note default-x="318"><pitch><step>B</step><alter>-1</alter><octave>4</octave></pitch><duration>2</duration><voice>1</voice><type>quarter</type><stem default-y="-55">down</stem><lyric default-y="-111" name="verse" number="1"><syllabic>single</syllabic><text font-size="10.8">ja,</text></lyric></note></measure><!--=======================================================--><measure number="6" width="423"><print new-system="no" /><note default-x="29"><pitch><step>B</step><alter>-1</alter><octave>4</octave></pitch><duration>2</duration><voice>1</voice><type>quarter</type><stem default-y="-55">down</stem><lyric default-y="-111" name="verse" number="1"><syllabic>single</syllabic><text font-size="10.8">Dank</text></lyric></note><note default-x="117"><pitch><step>B</step><alter>-1</alter><octave>4</octave></pitch><duration>1</duration><voice>1</voice><type>eighth</type><stem default-y="-54.5">down</stem><beam number="1">begin</beam><lyric default-y="-111" name="verse" number="1"><syllabic>single</syllabic><text font-size="10.8">sei</text></lyric></note><note default-x="171"><pitch><step>B</step><alter>-1</alter><octave>4</octave></pitch><duration>1</duration><tie type="start" /><voice>1</voice><type>eighth</type><stem default-y="-54.5">down</stem><beam number="1">end</beam><notations><tied type="start" /><slur number="1" placement="above" type="start" /></notations><lyric default-y="-111" name="verse" number="1"><syllabic>single</syllabic><text font-size="10.8">dir,</text><extend /></lyric></note><note default-x="226"><pitch><step>B</step><alter>-1</alter><octave>4</octave></pitch><duration>1</duration><tie type="stop" /><voice>1</voice><type>eighth</type><stem default-y="15">up</stem><beam number="1">begin</beam><notations><tied type="stop" /></notations></note><note default-x="280"><pitch><step>A</step><alter>-1</alter><octave>4</octave></pitch><duration>1</duration><voice>1</voice><type>eighth</type><stem default-y="10">up</stem><beam number="1">end</beam><notations><slur number="1" type="stop" /></notations></note><note default-x="334"><pitch><step>G</step><octave>4</octave></pitch><duration>2</duration><voice>1</voice><type>quarter</type><stem default-y="6">up</stem><lyric default-y="-111" name="verse" number="1"><syllabic>single</syllabic><text font-size="10.8">O</text></lyric></note></measure><!--=======================================================--><measure number="7" width="264"><print new-system="yes"><system-layout><system-distance>172</system-distance></system-layout></print><harmony default-y="29" font-size="10" font-weight="bold"><root><root-step>F</root-step></root><kind text="m7">minor-seventh</kind></harmony><note default-x="109"><pitch><step>E</step><alter>-1</alter><octave>4</octave></pitch><duration>8</duration><tie type="start" /><voice>1</voice><type>whole</type><notations><tied type="start" /></notations><lyric default-y="-111" name="verse" number="1"><syllabic>single</syllabic><text font-size="10.8">Herr.</text><extend /></lyric></note></measure><!--=======================================================--><measure number="8" width="156"><print new-system="no" /><note default-x="10"><pitch><step>E</step><alter>-1</alter><octave>4</octave></pitch><duration>8</duration><tie type="stop" /><voice>1</voice><type>whole</type><notations><tied type="stop" /></notations></note></measure><!--=======================================================--><measure number="9" width="470"><print new-system="no" /><harmony default-y="29" font-size="10" font-weight="bold"><root><root-step>A</root-step><root-alter>-1</root-alter></root><kind text="">major</kind></harmony><note default-x="30"><pitch><step>E</step><alter>-1</alter><octave>4</octave></pitch><duration>2</duration><voice>1</voice><type>quarter</type><stem default-y="-4">up</stem><lyric default-y="-111" name="verse" number="1"><syllabic>single</syllabic><text font-size="10.8">Denn</text></lyric></note><note default-x="128"><pitch><step>E</step><alter>-1</alter><octave>4</octave></pitch><duration>2</duration><voice>1</voice><type>quarter</type><stem default-y="-4">up</stem><lyric default-y="-111" name="verse" number="1"><syllabic>single</syllabic><text font-size="10.8">du</text></lyric></note><note default-x="226"><pitch><step>E</step><alter>-1</alter><octave>4</octave></pitch><duration>1</duration><voice>1</voice><type>eighth</type><stem default-y="-4.5">up</stem><beam number="1">begin</beam><lyric default-y="-111" name="verse" number="1"><syllabic>single</syllabic><text font-size="10.8">bist</text></lyric></note><note default-x="286"><pitch><step>F</step><octave>4</octave></pitch><duration>1</duration><tie type="start" /><voice>1</voice><type>eighth</type><stem default-y="0">up</stem><beam number="1">end</beam><notations><tied type="start" /></notations><lyric default-y="-111" name="verse" number="1"><syllabic>single</syllabic><text font-size="10.8">uns</text><extend /></lyric></note><note default-x="348"><pitch><step>F</step><octave>4</octave></pitch><duration>1</duration><tie type="stop" /><voice>1</voice><type>eighth</type><stem default-y="0">up</stem><beam number="1">begin</beam><notations><tied type="stop" /></notations></note><note default-x="408"><pitch><step>G</step><octave>4</octave></pitch><duration>1</duration><tie type="start" /><voice>1</voice><type>eighth</type><stem default-y="5">up</stem><beam number="1">end</beam><notations><tied type="start" /></notations><lyric default-y="-111" name="verse" number="1"><syllabic>single</syllabic><text font-size="10.8">nah,</text><extend /></lyric></note></measure><!--=======================================================--><measure number="10" width="262"><print new-system="no" /><harmony default-y="29" font-size="10" font-weight="bold"><root><root-step>A</root-step><root-alter>-1</root-alter></root><kind text="">major</kind><bass><bass-step>B</bass-step><bass-alter>-1</bass-alter></bass></harmony><note default-x="32"><pitch><step>G</step><octave>4</octave></pitch><duration>6</duration><tie type="stop" /><voice>1</voice><type>half</type><dot /><stem default-y="6">up</stem><notations><tied type="stop" /></notations></note><note default-x="201"><pitch><step>B</step><alter>-1</alter><octave>4</octave></pitch><duration>2</duration><voice>1</voice><type>quarter</type><stem default-y="16">up</stem><lyric default-y="-111" name="verse" number="1"><syllabic>single</syllabic><text font-size="10.8">dein</text></lyric></note><backup><duration>8</duration></backup><note default-x="33"><rest><display-step>A</display-step><display-octave>3</display-octave></rest><duration>2</duration><voice>2</voice><type size="cue">quarter</type></note><note default-x="93"><pitch><step>E</step><alter>-1</alter><octave>4</octave></pitch><duration>2</duration><voice>2</voice><type size="cue">quarter</type><stem default-y="-65">down</stem></note><harmony default-y="29" font-size="10" font-weight="bold"><root><root-step>B</root-step><root-alter>-1</root-alter></root><kind text="7">dominant</kind></harmony><note default-x="152"><pitch><step>D</step><octave>4</octave></pitch><duration>4</duration><voice>2</voice><type size="cue">half</type><stem default-y="-70">down</stem></note></measure><!--=======================================================--><measure number="11" width="453"><print new-system="yes"><system-layout><system-distance>172</system-distance></system-layout></print><harmony default-y="29" font-size="10" font-weight="bold"><root><root-step>E</root-step><root-alter>-1</root-alter></root><kind text="">major</kind></harmony><note default-x="102"><pitch><step>B</step><alter>-1</alter><octave>4</octave></pitch><duration>2</duration><voice>1</voice><type>quarter</type><stem default-y="-55.5">down</stem><lyric default-y="-111" name="verse" number="1"><syllabic>begin</syllabic><text font-size="10.8">Wir</text></lyric></note><note default-x="178"><pitch><step>B</step><alter>-1</alter><octave>4</octave></pitch><duration>1</duration><voice>1</voice><type>eighth</type><stem default-y="-55">down</stem><beam number="1">begin</beam><lyric default-y="-111" name="verse" number="1"><syllabic>end</syllabic><text font-size="10.8">ken,</text></lyric></note><note default-x="237"><pitch><step>B</step><alter>-1</alter><octave>4</octave></pitch><duration>1</duration><tie type="start" /><voice>1</voice><type>eighth</type><stem default-y="-55">down</stem><beam number="1">end</beam><notations><tied type="start" /><slur number="1" placement="above" type="start" /></notations><lyric default-y="-111" name="verse" number="1"><syllabic>single</syllabic><text font-size="10.8">Herr,</text><extend /></lyric></note><note default-x="296"><pitch><step>B</step><alter>-1</alter><octave>4</octave></pitch><duration>1</duration><tie type="stop" /><voice>1</voice><type>eighth</type><stem default-y="15">up</stem><beam number="1">begin</beam><notations><tied type="stop" /></notations></note><note default-x="339"><pitch><step>A</step><alter>-1</alter><octave>4</octave></pitch><duration>1</duration><voice>1</voice><type>eighth</type><stem default-y="10">up</stem><beam number="1">end</beam><notations><slur number="1" type="stop" /></notations></note><note default-x="382"><pitch><step>G</step><octave>4</octave></pitch><duration>2</duration><voice>1</voice><type>quarter</type><stem default-y="6">up</stem><lyric default-y="-111" name="verse" number="1"><syllabic>single</syllabic><text font-size="10.8">ist</text></lyric></note></measure><!--=======================================================--><measure number="12" width="294"><print new-system="no" /><harmony default-y="29" font-size="10" font-weight="bold"><root><root-step>A</root-step><root-alter>-1</root-alter></root><kind text="">major</kind></harmony><note default-x="17"><pitch><step>A</step><alter>-1</alter><octave>4</octave></pitch><duration>2</duration><voice>1</voice><type>quarter</type><stem default-y="11">up</stem><lyric default-y="-111" name="verse" number="1"><syllabic>begin</syllabic><text font-size="10.8">of</text></lyric></note><note default-x="84"><pitch><step>G</step><octave>4</octave></pitch><duration>1</duration><voice>1</voice><type>eighth</type><stem default-y="5">up</stem><beam number="1">begin</beam><lyric default-y="-111" name="verse" number="1"><syllabic>middle</syllabic><text font-size="10.8">fen</text></lyric></note><note default-x="134"><pitch><step>E</step><alter>-1</alter><octave>4</octave></pitch><duration>1</duration><tie type="start" /><voice>1</voice><type>eighth</type><stem default-y="0">up</stem><beam number="1">end</beam><notations><tied type="start" /></notations><lyric default-y="-111" name="verse" number="1"><syllabic>end</syllabic><text font-size="10.8">bar.</text><extend /></lyric></note><note default-x="187"><pitch><step>E</step><alter>-1</alter><octave>4</octave></pitch><duration>4</duration><tie type="stop" /><voice>1</voice><type>half</type><stem default-y="-4">up</stem><notations><tied type="stop" /></notations></note></measure><!--=======================================================--><measure number="13" width="405"><print new-system="no" /><harmony default-y="29" font-size="10" font-weight="bold"><root><root-step>E</root-step><root-alter>-1</root-alter></root><kind text="">major</kind><bass><bass-step>B</bass-step><bass-alter>-1</bass-alter></bass></harmony><note default-x="30"><pitch><step>G</step><octave>4</octave></pitch><duration>1</duration><voice>1</voice><type>eighth</type><stem default-y="10">up</stem><beam number="1">begin</beam><lyric default-y="-111" name="verse" number="1"><syllabic>single</syllabic><text font-size="10.8">Dank</text></lyric></note><note default-x="83"><pitch><step>B</step><alter>-1</alter><octave>4</octave></pitch><duration>1</duration><tie type="start" /><voice>1</voice><type>eighth</type><stem default-y="15">up</stem><beam number="1">end</beam><notations><tied type="start" /></notations><lyric default-y="-111" name="verse" number="1"><syllabic>single</syllabic><text font-size="10.8">sei</text><extend /></lyric></note><note default-x="135"><pitch><step>B</step><alter>-1</alter><octave>4</octave></pitch><duration>1</duration><tie type="stop" /><voice>1</voice><type>eighth</type><stem default-y="-55">down</stem><beam number="1">begin</beam><notations><tied type="stop" /></notations></note><note default-x="183"><pitch><step>B</step><alter>-1</alter><octave>4</octave></pitch><duration>1</duration><tie type="start" /><voice>1</voice><type>eighth</type><stem default-y="-55">down</stem><beam number="1">end</beam><notations><tied type="start" /><slur number="1" placement="above" type="start" /></notations><lyric default-y="-111" name="verse" number="1"><syllabic>single</syllabic><text font-size="10.8">dir,</text><extend /></lyric></note><note default-x="236"><pitch><step>B</step><alter>-1</alter><octave>4</octave></pitch><duration>1</duration><tie type="stop" /><voice>1</voice><type>eighth</type><stem default-y="15">up</stem><beam number="1">begin</beam><notations><tied type="stop" /></notations></note><note default-x="282"><pitch><step>A</step><alter>-1</alter><octave>4</octave></pitch><duration>1</duration><voice>1</voice><type>eighth</type><stem default-y="10">up</stem><beam number="1">end</beam><notations><slur number="1" type="stop" /></notations></note><note default-x="329"><pitch><step>G</step><octave>4</octave></pitch><duration>2</duration><voice>1</voice><type>quarter</type><stem default-y="6">up</stem><lyric default-y="-111" name="verse" number="1"><syllabic>single</syllabic><text font-size="10.8">ja,</text></lyric></note></measure><!--=======================================================--><measure number="14" width="526"><print new-system="yes"><system-layout><system-distance>172</system-distance></system-layout></print><harmony default-y="29" font-size="10" font-weight="bold"><root><root-step>A</root-step><root-alter>-1</root-alter></root><kind text="">major</kind><bass><bass-step>B</bass-step><bass-alter>-1</bass-alter></bass></harmony><note default-x="114"><pitch><step>A</step><alter>-1</alter><octave>4</octave></pitch><duration>2</duration><voice>1</voice><type>quarter</type><stem default-y="11">up</stem><lyric default-y="-111" name="verse" number="1"><syllabic>single</syllabic><text font-size="10.8">Dank</text></lyric></note><note default-x="206"><pitch><step>A</step><alter>-1</alter><octave>4</octave></pitch><duration>1</duration><voice>1</voice><type>eighth</type><stem default-y="10">up</stem><beam number="1">begin</beam><lyric default-y="-111" name="verse" number="1"><syllabic>single</syllabic><text font-size="10.8">sei</text></lyric></note><harmony default-y="29" font-size="10" font-weight="bold"><root><root-step>B</root-step><root-alter>-1</root-alter></root><kind text="7">dominant</kind></harmony><note default-x="262"><pitch><step>A</step><alter>-1</alter><octave>4</octave></pitch><duration>1</duration><tie type="start" /><voice>1</voice><type>eighth</type><stem default-y="10">up</stem><beam number="1">end</beam><notations><tied type="start" /><slur number="1" placement="below" type="start" /></notations><lyric default-y="-111" name="verse" number="1"><syllabic>single</syllabic><text font-size="10.8">dir,</text><extend /></lyric></note><note default-x="319"><pitch><step>A</step><alter>-1</alter><octave>4</octave></pitch><duration>1</duration><tie type="stop" /><voice>1</voice><type>eighth</type><stem default-y="10">up</stem><beam number="1">begin</beam><notations><tied type="stop" /></notations></note><note default-x="376"><pitch><step>G</step><octave>4</octave></pitch><duration>1</duration><voice>1</voice><type>eighth</type><stem default-y="5">up</stem><beam number="1">end</beam><notations><slur number="1" type="stop" /></notations></note><note default-x="433"><pitch><step>F</step><octave>4</octave></pitch><duration>2</duration><voice>1</voice><type>quarter</type><stem default-y="1">up</stem><lyric default-y="-111" name="verse" number="1"><syllabic>single</syllabic><text font-size="10.8">O</text></lyric></note></measure><!--=======================================================--><measure number="15" width="439"><print new-system="no" /><harmony default-y="29" font-size="10" font-weight="bold"><root><root-step>E</root-step><root-alter>-1</root-alter></root><kind text="">major</kind></harmony><note default-x="28"><pitch><step>E</step><alter>-1</alter><octave>4</octave></pitch><duration>8</duration><tie type="start" /><voice>1</voice><type>whole</type><notations><tied orientation="over" type="start" /></notations><lyric default-y="-111" name="verse" number="1"><syllabic>single</syllabic><text font-size="10.8">Herr.</text><extend /></lyric></note><backup><duration>8</duration></backup><note default-x="28"><rest><display-step>G</display-step><display-octave>3</display-octave></rest><duration>2</duration><voice>2</voice><type>quarter</type></note><note default-x="115"><pitch><step>B</step><alter>-1</alter><octave>3</octave></pitch><duration>1</duration><voice>2</voice><type size="cue">eighth</type><stem default-y="-89.5">down</stem><beam number="1">begin</beam></note><harmony default-y="29" font-size="10" font-weight="bold"><root><root-step>F</root-step></root><kind text="m7">minor-seventh</kind><bass><bass-step>E</bass-step><bass-alter>-1</bass-alter></bass></harmony><note default-x="176"><pitch><step>C</step><octave>4</octave></pitch><duration>1</duration><tie type="start" /><voice>2</voice><type size="cue">eighth</type><stem default-y="-84.5">down</stem><beam number="1">end</beam><notations><tied orientation="under" type="start" /></notations></note><note default-x="242"><pitch><step>C</step><octave>4</octave></pitch><duration>1</duration><tie type="stop" /><voice>2</voice><type size="cue">eighth</type><stem default-y="-84.5">down</stem><beam number="1">begin</beam><notations><tied type="stop" /></notations></note><note default-x="297"><pitch><step>D</step><octave>4</octave></pitch><duration>1</duration><voice>2</voice><type size="cue">eighth</type><stem default-y="-80">down</stem><beam number="1">end</beam></note><note default-x="350"><pitch><step>A</step><alter>-1</alter><octave>3</octave></pitch><duration>2</duration><voice>2</voice><type size="cue">quarter</type><stem default-y="-85">down</stem></note></measure><!--=======================================================--><measure number="16" width="187"><print new-system="no" /><harmony default-y="29" font-size="10" font-weight="bold"><root><root-step>E</root-step><root-alter>-1</root-alter></root><kind text="">major</kind></harmony><note default-x="15"><pitch><step>E</step><alter>-1</alter><octave>4</octave></pitch><duration>8</duration><tie type="stop" /><voice>1</voice><type>whole</type><notations><tied type="stop" /></notations></note><barline location="right"><bar-style>light-heavy</bar-style></barline></measure></part><!--=========================================================--></score-partwise>