<?xml version="1.0" encoding="UTF-8" standalone="no"?><!DOCTYPE score-partwise PUBLIC "-//Recordare//DTD MusicXML 3.0 Partwise//EN" "http://www.musicxml.org/dtds/3.0/partwise.dtd"[]><score-partwise version="3.0"><movement-title>Dein Wort</movement-title><identification><creator type="composer">Amy Grant und Michael W. Smith</creator><creator type="lyricist">Unbekannt</creator><encoding><software>Finale v26.3 for Windows</software><encoding-date>2022-01-28</encoding-date><supports attribute="new-system" element="print" type="yes" value="yes" /><supports attribute="new-page" element="print" type="yes" value="yes" /><supports element="accidental" type="yes" /><supports element="beam" type="yes" /><supports element="stem" type="yes" /></encoding><rights>CCLI-Liednummer 5693201
© 1984 Meadowgreen Music Company | Curb Word Music
Nutzung ausschließlich im Rahmen der SongSelect®-Nutzungsbedingungen. Alle Rechte vorbehalten. www.ccli.com
CCLI-Lizenznummer 2182334
</rights></identification><defaults><scaling><millimeters>6.5088</millimeters><tenths>40</tenths></scaling><page-layout><page-height>1717</page-height><page-width>1327</page-width><page-margins type="both"><left-margin>78</left-margin><right-margin>78</right-margin><top-margin>78</top-margin><bottom-margin>78</bottom-margin></page-margins></page-layout><system-layout><system-margins><left-margin>0</left-margin><right-margin>0</right-margin></system-margins><system-distance>190</system-distance><top-system-distance>117</top-system-distance></system-layout><appearance><line-width type="stem">1.4583</line-width><line-width type="beam">5</line-width><line-width type="staff">1.25</line-width><line-width type="light barline">1.4583</line-width><line-width type="heavy barline">5</line-width><line-width type="leger">1.875</line-width><line-width type="ending">1.4583</line-width><line-width type="wedge">1.4583</line-width><line-width type="enclosure">1.4583</line-width><line-width type="tuplet bracket">1.4583</line-width><note-size type="grace">50</note-size><note-size type="cue">50</note-size><distance type="hyphen">240</distance><distance type="beam">7.5</distance></appearance><music-font font-family="Maestro,engraved" font-size="18.5" /><word-font font-family="Arial" font-size="9.2" /><lyric-font font-family="Georgia" font-size="10.8" name="verse" /><lyric-font font-family="Arial" font-size="10.8" name="section" /></defaults><credit page="1"><credit-type>title</credit-type><credit-words default-x="663" default-y="1649" font-size="21.6" font-weight="bold" justify="center" valign="top">Dein Wort</credit-words></credit><credit page="1"><credit-words default-x="1249" default-y="1576" font-size="10.8" font-style="italic" justify="right" valign="top">Text und Musik:</credit-words></credit><credit page="1"><credit-words default-x="78" default-y="1576" font-size="10.8" font-style="italic" valign="top">Deutsch:</credit-words></credit><credit page="1"><credit-type>lyricist</credit-type><credit-words default-x="78" default-y="1552" font-size="10.8" font-weight="bold" valign="top">Unbekannt</credit-words></credit><credit page="1"><credit-type>composer</credit-type><credit-words default-x="1249" default-y="1552" font-size="10.8" font-weight="bold" justify="right" valign="top">Amy Grant und Michael W. Smith</credit-words></credit><part-list><score-part id="P1"><part-name print-object="no">Vocals</part-name><score-instrument id="P1-I2"><instrument-name>Melody</instrument-name></score-instrument><midi-instrument id="P1-I2"><midi-channel>1</midi-channel><midi-program>1</midi-program><volume>80</volume><pan>0</pan></midi-instrument></score-part></part-list><!--=========================================================--><part id="P1"><measure number="1" width="345"><print><page-layout><page-height>1717</page-height><page-width>1327</page-width><page-margins><left-margin>78</left-margin><right-margin>78</right-margin><top-margin>190</top-margin><bottom-margin>163</bottom-margin></page-margins></page-layout><system-layout><system-margins><left-margin>68</left-margin><right-margin>0</right-margin></system-margins></system-layout><measure-numbering>system</measure-numbering></print><attributes><divisions>4</divisions><key><fifths>-1</fifths><mode>major</mode></key><time><beats>4</beats><beat-type>4</beat-type></time><clef><sign>G</sign><line>2</line></clef></attributes><harmony default-y="36" font-size="10" font-weight="bold"><root><root-step>F</root-step></root><kind halign="center" text="">major</kind></harmony><direction directive="yes" placement="above"><direction-type><metronome default-y="59" font-family="EngraverTextT" font-size="7.7" halign="right"><beat-unit>quarter</beat-unit><per-minute font-family="Times New Roman" font-weight="bold">70</per-minute></metronome></direction-type><sound tempo="70" /></direction><direction placement="above"><direction-type><rehearsal default-y="69" font-weight="bold" relative-x="-5">CHORUS</rehearsal></direction-type></direction><note default-x="114"><pitch><step>F</step><octave>4</octave></pitch><duration>8</duration><voice>1</voice><type>half</type><stem default-y="-4">up</stem><lyric default-y="-91" name="verse" number="1"><syllabic>single</syllabic><text font-size="10.8">Dein</text></lyric></note><note default-x="182"><pitch><step>C</step><octave>4</octave></pitch><duration>4</duration><voice>1</voice><type>quarter</type><stem default-y="-19">up</stem><lyric default-y="-91" name="verse" number="1"><syllabic>single</syllabic><text font-size="10.8">Wort</text></lyric></note><note default-x="241"><pitch><step>C</step><octave>4</octave></pitch><duration>2</duration><voice>1</voice><type>eighth</type><stem default-y="-8.5">up</stem><beam number="1">begin</beam><lyric default-y="-91" name="verse" number="1"><syllabic>single</syllabic><text font-size="10.8">ist</text></lyric></note><note default-x="294"><pitch><step>F</step><octave>4</octave></pitch><duration>2</duration><voice>1</voice><type>eighth</type><stem default-y="-4">up</stem><beam number="1">end</beam><lyric default-y="-91" name="verse" number="1"><syllabic>single</syllabic><text font-size="10.8">ein</text></lyric></note></measure><!--=======================================================--><measure number="2" width="494"><harmony default-y="36" font-size="10" font-weight="bold"><root><root-step>C</root-step></root><kind halign="center" text="">major</kind><bass><bass-step>E</bass-step></bass></harmony><note default-x="20"><pitch><step>G</step><octave>4</octave></pitch><duration>2</duration><voice>1</voice><type>eighth</type><stem default-y="1">up</stem><beam number="1">begin</beam><lyric default-y="-91" name="verse" number="1"><syllabic>single</syllabic><text font-size="10.8">Licht</text></lyric></note><note default-x="83"><pitch><step>G</step><octave>4</octave></pitch><duration>1</duration><voice>1</voice><type>16th</type><stem default-y="1">up</stem><beam number="1">continue</beam><beam number="2">begin</beam><lyric default-y="-91" name="verse" number="1"><syllabic>single</syllabic><text font-size="10.8">auf</text></lyric></note><note default-x="141"><pitch><step>G</step><octave>4</octave></pitch><duration>1</duration><tie type="start" /><voice>1</voice><type>16th</type><stem default-y="1">up</stem><beam number="1">end</beam><beam number="2">end</beam><notations><tied type="start" /></notations><lyric default-y="-91" name="verse" number="1"><syllabic>begin</syllabic><text font-size="10.8">mei</text></lyric></note><note default-x="191"><pitch><step>G</step><octave>4</octave></pitch><duration>2</duration><tie type="stop" /><voice>1</voice><type>eighth</type><stem default-y="1">up</stem><beam number="1">begin</beam><notations><tied type="stop" /></notations></note><note default-x="242"><pitch><step>A</step><octave>4</octave></pitch><duration>2</duration><voice>1</voice><type>eighth</type><stem default-y="6">up</stem><beam number="1">end</beam><lyric default-y="-91" name="verse" number="1"><syllabic>end</syllabic><text font-size="10.8">nem</text></lyric></note><harmony default-y="36" font-size="10" font-weight="bold"><root><root-step>F</root-step></root><kind halign="center" text="">major</kind></harmony><note default-x="309"><pitch><step>A</step><octave>4</octave></pitch><duration>4</duration><voice>1</voice><type>quarter</type><stem default-y="6">up</stem><lyric default-y="-91" name="verse" number="1"><syllabic>single</syllabic><text font-size="10.8">Weg,</text></lyric></note><note default-x="379"><pitch><step>A</step><octave>4</octave></pitch><duration>2</duration><voice>1</voice><type>eighth</type><stem default-y="6">up</stem><beam number="1">begin</beam><lyric default-y="-91" name="verse" number="1"><syllabic>single</syllabic><text font-size="10.8">wenn</text></lyric></note><note default-x="443"><pitch><step>G</step><octave>4</octave></pitch><duration>2</duration><voice>1</voice><type>eighth</type><stem default-y="1">up</stem><beam number="1">end</beam><lyric default-y="-91" name="verse" number="1"><syllabic>single</syllabic><text font-size="10.8">ich</text></lyric></note></measure><!--=======================================================--><measure number="3" width="263"><harmony default-y="36" font-size="10" font-weight="bold"><root><root-step>B</root-step><root-alter>-1</root-alter></root><kind halign="center" text="">major</kind><bass><bass-step>D</bass-step></bass></harmony><note default-x="24"><pitch><step>F</step><octave>4</octave></pitch><duration>6</duration><voice>1</voice><type>quarter</type><dot /><stem default-y="-4">up</stem><lyric default-y="-91" name="verse" number="1"><syllabic>single</syllabic><text font-size="10.8">durch</text></lyric></note><note default-x="88"><pitch><step>A</step><octave>4</octave></pitch><duration>2</duration><voice>1</voice><type>eighth</type><stem default-y="6">up</stem><lyric default-y="-91" name="verse" number="1"><syllabic>single</syllabic><text font-size="10.8">das</text></lyric></note><harmony default-y="36" font-size="10" font-weight="bold"><root><root-step>C</root-step></root><kind halign="center" text="">major</kind></harmony><note default-x="149"><pitch><step>G</step><octave>4</octave></pitch><duration>6</duration><voice>1</voice><type>quarter</type><dot /><stem default-y="1">up</stem><lyric default-y="-91" name="verse" number="1"><syllabic>begin</syllabic><text font-size="10.8">Dun</text></lyric></note><note default-x="208"><pitch><step>F</step><octave>4</octave></pitch><duration>2</duration><voice>1</voice><type>eighth</type><stem default-y="-4">up</stem><lyric default-y="-91" name="verse" number="1"><syllabic>end</syllabic><text font-size="10.8">kel</text></lyric></note></measure><!--=======================================================--><measure number="4" width="193"><print new-system="yes"><system-layout><system-distance>180</system-distance></system-layout></print><harmony default-y="36" font-size="10" font-weight="bold"><root><root-step>F</root-step></root><kind halign="center" text="">major</kind></harmony><note default-x="78"><pitch><step>F</step><octave>4</octave></pitch><duration>16</duration><voice>1</voice><type>whole</type><lyric default-y="-91" name="verse" number="1"><syllabic>single</syllabic><text font-size="10.8">geh.</text></lyric></note></measure><!--=======================================================--><measure number="5" width="324"><note default-x="18"><pitch><step>F</step><octave>4</octave></pitch><duration>8</duration><voice>1</voice><type>half</type><stem default-y="-4">up</stem><lyric default-y="-91" name="verse" number="1"><syllabic>single</syllabic><text font-size="10.8">Dein</text></lyric></note><note default-x="94"><pitch><step>C</step><octave>4</octave></pitch><duration>4</duration><voice>1</voice><type>quarter</type><stem default-y="-18">up</stem><lyric default-y="-91" name="verse" number="1"><syllabic>single</syllabic><text font-size="10.8">Wort</text></lyric></note><note default-x="171"><pitch><step>C</step><octave>4</octave></pitch><duration>2</duration><voice>1</voice><type>eighth</type><stem default-y="-8.5">up</stem><beam number="1">begin</beam><lyric default-y="-91" name="verse" number="1"><syllabic>single</syllabic><text font-size="10.8">ist</text></lyric></note><note default-x="247"><pitch><step>F</step><octave>4</octave></pitch><duration>2</duration><voice>1</voice><type>eighth</type><stem default-y="-4">up</stem><beam number="1">end</beam><lyric default-y="-91" name="verse" number="1"><syllabic>single</syllabic><text font-size="10.8">ein</text></lyric></note></measure><!--=======================================================--><measure number="6" width="653"><harmony default-y="36" font-size="10" font-weight="bold"><root><root-step>C</root-step></root><kind halign="center" text="">major</kind><bass><bass-step>E</bass-step></bass></harmony><note default-x="20"><pitch><step>G</step><octave>4</octave></pitch><duration>2</duration><voice>1</voice><type>eighth</type><stem default-y="1">up</stem><beam number="1">begin</beam><lyric default-y="-91" name="verse" number="1"><syllabic>single</syllabic><text font-size="10.8">Licht</text></lyric></note><note default-x="99"><pitch><step>G</step><octave>4</octave></pitch><duration>1</duration><voice>1</voice><type>16th</type><stem default-y="1">up</stem><beam number="1">continue</beam><beam number="2">begin</beam><lyric default-y="-91" name="verse" number="1"><syllabic>single</syllabic><text font-size="10.8">auf</text></lyric></note><note default-x="178"><pitch><step>G</step><octave>4</octave></pitch><duration>1</duration><tie type="start" /><voice>1</voice><type>16th</type><stem default-y="1">up</stem><beam number="1">end</beam><beam number="2">end</beam><notations><tied type="start" /></notations><lyric default-y="-91" name="verse" number="1"><syllabic>begin</syllabic><text font-size="10.8">mei</text></lyric></note><note default-x="257"><pitch><step>G</step><octave>4</octave></pitch><duration>2</duration><tie type="stop" /><voice>1</voice><type>eighth</type><stem default-y="1">up</stem><beam number="1">begin</beam><notations><tied type="stop" /></notations></note><note default-x="336"><pitch><step>A</step><octave>4</octave></pitch><duration>2</duration><voice>1</voice><type>eighth</type><stem default-y="6.5">up</stem><beam number="1">end</beam><lyric default-y="-91" name="verse" number="1"><syllabic>end</syllabic><text font-size="10.8">nem</text></lyric></note><harmony default-y="36" font-size="10" font-weight="bold"><root><root-step>F</root-step></root><kind halign="center" text="">major</kind></harmony><note default-x="415"><pitch><step>A</step><octave>4</octave></pitch><duration>4</duration><voice>1</voice><type>quarter</type><stem default-y="6.5">up</stem><lyric default-y="-91" name="verse" number="1"><syllabic>single</syllabic><text font-size="10.8">Weg,</text></lyric></note><note default-x="494"><pitch><step>A</step><octave>4</octave></pitch><duration>2</duration><voice>1</voice><type>eighth</type><stem default-y="6.5">up</stem><beam number="1">begin</beam><lyric default-y="-91" name="verse" number="1"><syllabic>single</syllabic><text font-size="10.8">lässt</text></lyric></note><note default-x="573"><pitch><step>G</step><octave>4</octave></pitch><duration>2</duration><voice>1</voice><type>eighth</type><stem default-y="1">up</stem><beam number="1">end</beam><lyric default-y="-91" name="verse" number="1"><syllabic>single</syllabic><text font-size="10.8">mich</text></lyric></note></measure><!--=======================================================--><measure number="7" width="271"><print new-system="yes"><system-layout><system-distance>180</system-distance></system-layout></print><harmony default-y="36" font-size="10" font-weight="bold"><root><root-step>B</root-step><root-alter>-1</root-alter></root><kind halign="center" text="">major</kind><bass><bass-step>D</bass-step></bass></harmony><note default-x="81"><pitch><step>F</step><octave>4</octave></pitch><duration>6</duration><voice>1</voice><type>quarter</type><dot /><stem default-y="-3">up</stem><lyric default-y="-91" name="verse" number="1"><syllabic>begin</syllabic><text font-size="10.8">dei</text></lyric></note><note default-x="131"><pitch><step>A</step><octave>4</octave></pitch><duration>2</duration><voice>1</voice><type>eighth</type><stem default-y="6.5">up</stem><lyric default-y="-91" name="verse" number="1"><syllabic>end</syllabic><text font-size="10.8">ne</text></lyric></note><harmony default-y="36" font-size="10" font-weight="bold"><root><root-step>C</root-step></root><kind halign="center" text="">major</kind></harmony><note default-x="178"><pitch><step>G</step><octave>4</octave></pitch><duration>6</duration><voice>1</voice><type>quarter</type><dot /><stem default-y="1.5">up</stem><lyric default-y="-91" name="verse" number="1"><syllabic>begin</syllabic><text font-size="10.8">Hil</text></lyric></note><note default-x="224"><pitch><step>F</step><octave>4</octave></pitch><duration>2</duration><voice>1</voice><type>eighth</type><stem default-y="-3">up</stem><lyric default-y="-91" name="verse" number="1"><syllabic>end</syllabic><text font-size="10.8">fe</text></lyric></note></measure><!--=======================================================--><measure number="8" width="108"><harmony default-y="36" font-size="10" font-weight="bold"><root><root-step>F</root-step></root><kind halign="center" text="">major</kind></harmony><note default-x="21"><pitch><step>F</step><octave>4</octave></pitch><duration>16</duration><voice>1</voice><type>whole</type><lyric default-y="-91" name="verse" number="1"><syllabic>single</syllabic><text font-size="10.8">sehn.</text></lyric></note><direction placement="above"><direction-type><words default-x="99" default-y="6" font-style="italic" justify="right">Fine</words></direction-type><sound fine="yes" time-only="4" /></direction><barline location="right"><bar-style>light-heavy</bar-style></barline></measure><!--=======================================================--><measure number="9" width="416"><harmony default-y="36" font-size="10" font-weight="bold"><root><root-step>C</root-step></root><kind halign="center" text="">major</kind></harmony><direction placement="above"><direction-type><rehearsal default-y="69" font-weight="bold" relative-x="-5">VERS</rehearsal></direction-type></direction><note default-x="43"><pitch><step>G</step><octave>4</octave></pitch><duration>2</duration><voice>1</voice><type>eighth</type><stem default-y="1.5">up</stem><beam number="1">begin</beam><lyric default-y="-91" name="verse" number="1"><syllabic>single</syllabic><text font-size="10.8">1.</text><elision> </elision><syllabic>single</syllabic><text font-size="10.8">Ne</text><elision> </elision><syllabic>single</syllabic><text font-size="10.8" /><elision> </elision><syllabic>single</syllabic><text font-size="10.8" /><elision> </elision><syllabic>single</syllabic><text font-size="10.8">­</text><elision> </elision><syllabic>single</syllabic><text font-size="10.8" /><elision> </elision><syllabic>single</syllabic><text font-size="10.8" /></lyric><lyric default-y="-115" name="verse" number="2"><syllabic>single</syllabic><text font-size="10.8">2.</text><elision> </elision><syllabic>single</syllabic><text font-size="10.8">Mau</text><elision> </elision><syllabic>single</syllabic><text font-size="10.8" /><elision> </elision><syllabic>single</syllabic><text font-size="10.8">­</text><elision> </elision><syllabic>single</syllabic><text font-size="10.8" /></lyric><lyric default-y="-140" name="verse" number="3"><syllabic>single</syllabic><text font-size="10.8">3.</text><elision> </elision><syllabic>single</syllabic><text font-size="10.8">Trä</text><elision> </elision><syllabic>single</syllabic><text font-size="10.8" /><elision> </elision><syllabic>single</syllabic><text font-size="10.8">­</text><elision> </elision><syllabic>single</syllabic><text font-size="10.8" /><elision> </elision><syllabic>single</syllabic><text font-size="10.8" /></lyric></note><note default-x="131"><pitch><step>G</step><octave>4</octave></pitch><duration>1</duration><voice>1</voice><type>16th</type><stem default-y="1.5">up</stem><beam number="1">continue</beam><beam number="2">begin</beam><lyric default-y="-91" name="verse" number="1"><syllabic>single</syllabic><text font-size="10.8">bel</text></lyric><lyric default-y="-115" name="verse" number="2"><syllabic>single</syllabic><text font-size="10.8">ern</text></lyric><lyric default-y="-140" name="verse" number="3"><syllabic>single</syllabic><text font-size="10.8">nen</text></lyric></note><note default-x="206"><pitch><step>G</step><octave>4</octave></pitch><duration>1</duration><tie type="start" /><voice>1</voice><type>16th</type><stem default-y="1.5">up</stem><beam number="1">end</beam><beam number="2">end</beam><notations><tied type="start" /></notations><lyric default-y="-91" name="verse" number="1"><syllabic>single</syllabic><text font-size="10.8">rings</text><extend type="start" /></lyric><lyric default-y="-115" name="verse" number="2"><syllabic>single</syllabic><text font-size="10.8">hart</text><extend type="start" /></lyric><lyric default-y="-140" name="verse" number="3"><syllabic>single</syllabic><text font-size="10.8">wischst</text><extend type="start" /></lyric></note><note default-x="254"><pitch><step>G</step><octave>4</octave></pitch><duration>2</duration><tie type="stop" /><voice>1</voice><type>eighth</type><stem default-y="1.5">up</stem><beam number="1">begin</beam><notations><tied type="stop" /></notations><lyric name="verse" number="1"><extend type="stop" /></lyric><lyric name="verse" number="2"><extend type="stop" /></lyric><lyric name="verse" number="3"><extend type="stop" /></lyric></note><note default-x="301"><pitch><step>A</step><octave>4</octave></pitch><duration>2</duration><voice>1</voice><type>eighth</type><stem default-y="6.5">up</stem><beam number="1">end</beam><lyric default-y="-91" name="verse" number="1"><syllabic>begin</syllabic><text font-size="10.8">um</text></lyric><lyric default-y="-115" name="verse" number="2"><syllabic>single</syllabic><text font-size="10.8">und</text></lyric><lyric default-y="-140" name="verse" number="3"><syllabic>single</syllabic><text font-size="10.8">du</text></lyric></note><harmony default-y="36" font-size="10" font-weight="bold"><root><root-step>G</root-step></root><kind halign="center" text="m">minor</kind></harmony><note default-x="364"><pitch><step>B</step><alter>-1</alter><octave>4</octave></pitch><duration>8</duration><voice>1</voice><type>half</type><stem default-y="-51">down</stem><lyric default-y="-91" name="verse" number="1"><syllabic>end</syllabic><text font-size="10.8">her,</text></lyric><lyric default-y="-115" name="verse" number="2"><syllabic>single</syllabic><text font-size="10.8">kalt,</text></lyric><lyric default-y="-140" name="verse" number="3"><syllabic>single</syllabic><text font-size="10.8">fort,</text></lyric></note></measure><!--=======================================================--><measure number="10" width="375"><harmony default-y="36" font-size="10" font-weight="bold"><root><root-step>D</root-step></root><kind halign="center" text="m">minor</kind></harmony><note default-x="21"><pitch><step>F</step><octave>4</octave></pitch><duration>2</duration><voice>1</voice><type>eighth</type><stem default-y="-3">up</stem><beam number="1">begin</beam><lyric default-y="-91" name="verse" number="1"><syllabic>single</syllabic><text font-size="10.8">ich</text></lyric><lyric default-y="-115" name="verse" number="2"><syllabic>begin</syllabic><text font-size="10.8">ge</text></lyric><lyric default-y="-140" name="verse" number="3"><syllabic>begin</syllabic><text font-size="10.8">trös</text></lyric></note><note default-x="80"><pitch><step>F</step><octave>4</octave></pitch><duration>1</duration><voice>1</voice><type>16th</type><stem default-y="-3">up</stem><beam number="1">continue</beam><beam number="2">begin</beam><lyric default-y="-91" name="verse" number="1"><syllabic>single</syllabic><text font-size="10.8">seh</text></lyric><lyric default-y="-115" name="verse" number="2"><syllabic>end</syllabic><text font-size="10.8">ben</text></lyric><lyric default-y="-140" name="verse" number="3"><syllabic>end</syllabic><text font-size="10.8">test</text></lyric></note><note default-x="147"><pitch><step>F</step><octave>4</octave></pitch><duration>1</duration><tie type="start" /><voice>1</voice><type>16th</type><stem default-y="-3">up</stem><beam number="1">end</beam><beam number="2">end</beam><notations><tied type="start" /></notations><lyric default-y="-91" name="verse" number="1"><syllabic>single</syllabic><text font-size="10.8">dich</text><extend type="start" /></lyric><lyric default-y="-115" name="verse" number="2"><syllabic>begin</syllabic><text font-size="10.8">kei</text></lyric><lyric default-y="-140" name="verse" number="3"><syllabic>single</syllabic><text font-size="10.8">durch</text><extend type="start" /></lyric></note><note default-x="195"><pitch><step>F</step><octave>4</octave></pitch><duration>2</duration><tie type="stop" /><voice>1</voice><type>eighth</type><stem default-y="-3">up</stem><beam number="1">begin</beam><notations><tied type="stop" /></notations><lyric name="verse" number="1"><extend type="stop" /></lyric><lyric name="verse" number="3"><extend type="stop" /></lyric></note><note default-x="242"><pitch><step>G</step><octave>4</octave></pitch><duration>2</duration><voice>1</voice><type>eighth</type><stem default-y="1.5">up</stem><beam number="1">end</beam><lyric default-y="-91" name="verse" number="1"><syllabic>single</syllabic><text font-size="10.8">nicht</text></lyric><lyric default-y="-115" name="verse" number="2"><syllabic>end</syllabic><text font-size="10.8">nen</text></lyric><lyric default-y="-140" name="verse" number="3"><syllabic>single</syllabic><text font-size="10.8">dein</text></lyric></note><harmony default-y="36" font-size="10" font-weight="bold"><root><root-step>A</root-step></root><kind halign="center" text="m">minor</kind></harmony><note default-x="316"><pitch><step>A</step><octave>4</octave></pitch><duration>8</duration><voice>1</voice><type>half</type><stem default-y="6.5">up</stem><lyric default-y="-91" name="verse" number="1"><syllabic>single</syllabic><text font-size="10.8">mehr,</text></lyric><lyric default-y="-115" name="verse" number="2"><syllabic>single</syllabic><text font-size="10.8">Halt,</text></lyric><lyric default-y="-140" name="verse" number="3"><syllabic>single</syllabic><text font-size="10.8">Wort,</text></lyric></note></measure><!--=======================================================--><measure number="11" width="420"><print new-system="yes"><system-layout><system-distance>180</system-distance></system-layout></print><harmony default-y="36" font-size="10" font-weight="bold"><root><root-step>B</root-step><root-alter>-1</root-alter></root><kind halign="center" text="">major</kind></harmony><note default-x="82"><pitch><step>D</step><octave>4</octave></pitch><duration>6</duration><voice>1</voice><type>quarter</type><dot /><stem default-y="-14">up</stem><lyric default-y="-91" name="verse" number="1"><syllabic>single</syllabic><text font-size="10.8">kann</text></lyric><lyric default-y="-115" name="verse" number="2"><syllabic>begin</syllabic><text font-size="10.8">dro</text></lyric><lyric default-y="-140" name="verse" number="3"><syllabic>single</syllabic><text font-size="10.8">Kraft</text></lyric></note><note default-x="152"><pitch><step>F</step><octave>4</octave></pitch><duration>2</duration><voice>1</voice><type>eighth</type><stem default-y="-3.5">up</stem><lyric default-y="-91" name="verse" number="1"><syllabic>single</syllabic><text font-size="10.8">den</text></lyric><lyric default-y="-115" name="verse" number="2"><syllabic>end</syllabic><text font-size="10.8">hend</text></lyric><lyric default-y="-140" name="verse" number="3"><syllabic>single</syllabic><text font-size="10.8">zum</text></lyric></note><harmony default-y="36" font-size="10" font-weight="bold"><root><root-step>C</root-step></root><kind halign="center" text="">major</kind></harmony><note default-x="220"><pitch><step>E</step><octave>4</octave></pitch><duration>4</duration><voice>1</voice><type>quarter</type><stem default-y="-9">up</stem><lyric default-y="-91" name="verse" number="1"><syllabic>single</syllabic><text font-size="10.8">Weg</text></lyric><lyric default-y="-115" name="verse" number="2"><syllabic>begin</syllabic><text font-size="10.8">ste</text></lyric><lyric default-y="-140" name="verse" number="3"><syllabic>begin</syllabic><text font-size="10.8">Le</text></lyric></note><note default-x="288"><pitch><step>D</step><octave>4</octave></pitch><duration>2</duration><voice>1</voice><type>eighth</type><stem default-y="-14">up</stem><beam number="1">begin</beam><lyric default-y="-91" name="verse" number="1"><syllabic>single</syllabic><text font-size="10.8">nicht</text></lyric><lyric default-y="-115" name="verse" number="2"><syllabic>end</syllabic><text font-size="10.8">hen</text></lyric><lyric default-y="-140" name="verse" number="3"><syllabic>end</syllabic><text font-size="10.8">ben</text></lyric></note><note default-x="359"><pitch><step>C</step><octave>4</octave></pitch><duration>2</duration><voice>1</voice><type>eighth</type><stem default-y="-18.5">up</stem><beam number="1">end</beam><lyric default-y="-91" name="verse" number="1"><syllabic>single</syllabic><text font-size="10.8">mehr</text></lyric><lyric default-y="-115" name="verse" number="2"><syllabic>single</syllabic><text font-size="10.8">sie</text></lyric><lyric default-y="-140" name="verse" number="3"><syllabic>single</syllabic><text font-size="10.8">gibst</text></lyric></note></measure><!--=======================================================--><measure number="12" width="253"><harmony default-y="36" font-size="10" font-weight="bold"><root><root-step>B</root-step><root-alter>-1</root-alter></root><kind halign="center" text="">major</kind><bass><bass-step>F</bass-step></bass></harmony><note default-x="19"><pitch><step>D</step><octave>4</octave></pitch><duration>6</duration><voice>1</voice><type>quarter</type><dot /><stem default-y="-14">up</stem><notations><slur bezier-x="11" bezier-y="-16" default-x="6" default-y="-55" number="1" placement="below" type="start" /></notations><lyric default-y="-91" name="verse" number="1"><syllabic>begin</syllabic><text font-size="10.8">se</text></lyric><lyric default-y="-115" name="verse" number="2"><syllabic>single</syllabic><text font-size="10.8">vor</text><extend type="start" /></lyric><lyric default-y="-140" name="verse" number="3"><syllabic>single</syllabic><text font-size="10.8">du</text><extend type="start" /></lyric></note><note default-x="65"><pitch><step>C</step><octave>4</octave></pitch><duration>2</duration><voice>1</voice><type>eighth</type><stem default-y="-18.5">up</stem><notations><slur bezier-x="-14" bezier-y="-13" default-x="6" default-y="-60" number="1" type="stop" /></notations><lyric name="verse" number="2"><extend type="stop" /></lyric><lyric name="verse" number="3"><extend type="stop" /></lyric></note><harmony default-y="36" font-size="10" font-weight="bold"><root><root-step>F</root-step></root><kind halign="center" text="">major</kind></harmony><note default-x="112"><pitch><step>C</step><octave>4</octave></pitch><duration>4</duration><voice>1</voice><type>quarter</type><stem default-y="-18.5">up</stem><lyric default-y="-91" name="verse" number="1"><syllabic>end</syllabic><text font-size="10.8">hen.</text></lyric><lyric default-y="-115" name="verse" number="2"><syllabic>single</syllabic><text font-size="10.8">mir.</text></lyric><lyric default-y="-140" name="verse" number="3"><syllabic>single</syllabic><text font-size="10.8">mir.</text></lyric></note><note default-x="157"><rest /><duration>2</duration><voice>1</voice><type>eighth</type></note><note default-x="202"><pitch><step>C</step><octave>4</octave></pitch><duration>2</duration><voice>1</voice><type>eighth</type><stem default-y="-18.5">up</stem><lyric default-y="-91" name="verse" number="1"><syllabic>single</syllabic><text font-size="10.8">Doch</text></lyric><lyric default-y="-115" name="verse" number="2"><syllabic>single</syllabic><text font-size="10.8">Doch</text></lyric><lyric default-y="-140" name="verse" number="3"><syllabic>single</syllabic><text font-size="10.8">Und</text></lyric></note></measure><!--=======================================================--><measure number="13" width="498"><harmony default-y="36" font-size="10" font-weight="bold"><root><root-step>C</root-step></root><kind halign="center" text="">major</kind></harmony><note default-x="16"><pitch><step>G</step><octave>4</octave></pitch><duration>2</duration><voice>1</voice><type>eighth</type><stem default-y="1.5">up</stem><beam number="1">begin</beam><lyric default-y="-91" name="verse" number="1"><syllabic>single</syllabic><text font-size="10.8">dein</text></lyric><lyric default-y="-115" name="verse" number="2"><syllabic>single</syllabic><text font-size="10.8">dein</text></lyric><lyric default-y="-140" name="verse" number="3"><syllabic>single</syllabic><text font-size="10.8">wie</text></lyric></note><note default-x="84"><pitch><step>G</step><octave>4</octave></pitch><duration>1</duration><voice>1</voice><type>16th</type><stem default-y="1.5">up</stem><beam number="1">continue</beam><beam number="2">begin</beam><lyric default-y="-91" name="verse" number="1"><syllabic>single</syllabic><text font-size="10.8">Wort</text></lyric><lyric default-y="-115" name="verse" number="2"><syllabic>single</syllabic><text font-size="10.8">Wort</text></lyric><lyric default-y="-140" name="verse" number="3"><syllabic>single</syllabic><text font-size="10.8">ein</text></lyric></note><note default-x="147"><pitch><step>G</step><octave>4</octave></pitch><duration>1</duration><tie type="start" /><voice>1</voice><type>16th</type><stem default-y="1.5">up</stem><beam number="1">end</beam><beam number="2">end</beam><notations><tied type="start" /></notations><lyric default-y="-91" name="verse" number="1"><syllabic>single</syllabic><text font-size="10.8">ist</text><extend type="start" /></lyric><lyric default-y="-115" name="verse" number="2"><syllabic>single</syllabic><text font-size="10.8">ist</text><extend type="start" /></lyric><lyric default-y="-140" name="verse" number="3"><syllabic>begin</syllabic><text font-size="10.8">wei</text></lyric></note><note default-x="192"><pitch><step>G</step><octave>4</octave></pitch><duration>2</duration><tie type="stop" /><voice>1</voice><type>eighth</type><stem default-y="1.5">up</stem><beam number="1">begin</beam><notations><tied type="stop" /></notations><lyric name="verse" number="1"><extend type="stop" /></lyric><lyric name="verse" number="2"><extend type="stop" /></lyric></note><note default-x="238"><pitch><step>A</step><octave>4</octave></pitch><duration>2</duration><voice>1</voice><type>eighth</type><stem default-y="6">up</stem><beam number="1">end</beam><lyric default-y="-91" name="verse" number="1"><syllabic>single</syllabic><text font-size="10.8">das</text></lyric><lyric default-y="-115" name="verse" number="2"><syllabic>single</syllabic><text font-size="10.8">mein</text></lyric><lyric default-y="-140" name="verse" number="3"><syllabic>end</syllabic><text font-size="10.8">tes</text></lyric></note><harmony default-y="36" font-size="10" font-weight="bold"><root><root-step>G</root-step></root><kind halign="center" text="m">minor</kind></harmony><note default-x="325"><pitch><step>B</step><alter>-1</alter><octave>4</octave></pitch><duration>6</duration><voice>1</voice><type>quarter</type><dot /><stem default-y="-51">down</stem><lyric default-y="-91" name="verse" number="1"><syllabic>single</syllabic><text font-size="10.8">Licht,</text></lyric><lyric default-y="-115" name="verse" number="2"><syllabic>single</syllabic><text font-size="10.8">Schwert,</text></lyric><lyric default-y="-140" name="verse" number="3"><syllabic>single</syllabic><text font-size="10.8">Meer</text></lyric></note><note default-x="405"><pitch><step>A</step><octave>4</octave></pitch><duration>1</duration><voice>1</voice><type>16th</type><stem default-y="6">up</stem><beam number="1">begin</beam><beam number="2">begin</beam><notations><slur bezier-x="11" bezier-y="-14" default-x="7" default-y="-35" number="1" placement="below" type="start" /></notations><lyric default-y="-91" name="verse" number="1"><syllabic>single</syllabic><text font-size="10.8">das</text><extend type="start" /></lyric><lyric default-y="-115" name="verse" number="2"><syllabic>single</syllabic><text font-size="10.8">das</text><extend type="start" /></lyric><lyric default-y="-140" name="verse" number="3"><syllabic>single</syllabic><text font-size="10.8">ist</text><extend type="start" /></lyric></note><note default-x="450"><pitch><step>G</step><octave>4</octave></pitch><duration>1</duration><voice>1</voice><type>16th</type><stem default-y="1.5">up</stem><beam number="1">end</beam><beam number="2">end</beam><notations><slur bezier-x="-15" bezier-y="-9" default-x="7" default-y="-43" number="1" type="stop" /></notations><lyric name="verse" number="1"><extend type="stop" /></lyric><lyric name="verse" number="2"><extend type="stop" /></lyric><lyric name="verse" number="3"><extend type="stop" /></lyric></note></measure><!--=======================================================--><measure number="14" width="420"><print new-system="yes"><system-layout><system-distance>180</system-distance></system-layout></print><harmony default-y="36" font-size="10" font-weight="bold"><root><root-step>D</root-step></root><kind halign="center" text="m">minor</kind></harmony><note default-x="86"><pitch><step>F</step><octave>4</octave></pitch><duration>2</duration><voice>1</voice><type>eighth</type><stem default-y="-3.5">up</stem><beam number="1">begin</beam><lyric default-y="-91" name="verse" number="1"><syllabic>single</syllabic><text font-size="10.8">durch</text></lyric><lyric default-y="-115" name="verse" number="2"><syllabic>begin</syllabic><text font-size="10.8">al</text></lyric><lyric default-y="-140" name="verse" number="3"><syllabic>single</syllabic><text font-size="10.8">dein</text></lyric></note><note default-x="163"><pitch><step>F</step><octave>4</octave></pitch><duration>1</duration><voice>1</voice><type>16th</type><stem default-y="-3.5">up</stem><beam number="1">continue</beam><beam number="2">begin</beam><lyric default-y="-91" name="verse" number="1"><syllabic>single</syllabic><text font-size="10.8">den</text></lyric><lyric default-y="-115" name="verse" number="2"><syllabic>end</syllabic><text font-size="10.8">ler</text></lyric><lyric default-y="-140" name="verse" number="3"><syllabic>single</syllabic><text font-size="10.8">Wort,</text></lyric></note><note default-x="229"><pitch><step>F</step><octave>4</octave></pitch><duration>1</duration><tie type="start" /><voice>1</voice><type>16th</type><stem default-y="-3.5">up</stem><beam number="1">end</beam><beam number="2">end</beam><notations><tied type="start" /></notations><lyric default-y="-91" name="verse" number="1"><syllabic>begin</syllabic><text font-size="10.8">Ne</text></lyric><lyric default-y="-115" name="verse" number="2"><syllabic>begin</syllabic><text font-size="10.8">Här</text></lyric><lyric default-y="-140" name="verse" number="3"><syllabic>begin</syllabic><text font-size="10.8">gro</text></lyric></note><note default-x="261"><pitch><step>F</step><octave>4</octave></pitch><duration>2</duration><tie type="stop" /><voice>1</voice><type>eighth</type><stem default-y="-3.5">up</stem><beam number="1">begin</beam><notations><tied type="stop" /></notations></note><note default-x="294"><pitch><step>G</step><octave>4</octave></pitch><duration>2</duration><voice>1</voice><type>eighth</type><stem default-y="1.5">up</stem><beam number="1">end</beam><lyric default-y="-91" name="verse" number="1"><syllabic>end</syllabic><text font-size="10.8">bel</text></lyric><lyric default-y="-115" name="verse" number="2"><syllabic>end</syllabic><text font-size="10.8">te</text></lyric><lyric default-y="-140" name="verse" number="3"><syllabic>end</syllabic><text font-size="10.8">ßer</text></lyric></note><harmony default-y="36" font-size="10" font-weight="bold"><root><root-step>A</root-step></root><kind halign="center" text="m">minor</kind></harmony><note default-x="362"><pitch><step>A</step><octave>4</octave></pitch><duration>8</duration><voice>1</voice><type>half</type><stem default-y="6">up</stem><lyric default-y="-91" name="verse" number="1"><syllabic>single</syllabic><text font-size="10.8">bricht.</text></lyric><lyric default-y="-115" name="verse" number="2"><syllabic>single</syllabic><text font-size="10.8">wehrt.</text></lyric><lyric default-y="-140" name="verse" number="3"><syllabic>single</syllabic><text font-size="10.8">Herr,</text></lyric></note></measure><!--=======================================================--><measure number="15" width="255"><harmony default-y="36" font-size="10" font-weight="bold"><root><root-step>B</root-step><root-alter>-1</root-alter></root><kind halign="center" text="">major</kind></harmony><note default-x="15"><pitch><step>D</step><octave>4</octave></pitch><duration>6</duration><voice>1</voice><type>quarter</type><dot /><stem default-y="-14">up</stem><lyric default-y="-91" name="verse" number="1"><syllabic>single</syllabic><text font-size="10.8">Du</text></lyric><lyric default-y="-115" name="verse" number="2"><syllabic>single</syllabic><text font-size="10.8">Du</text></lyric><lyric default-y="-140" name="verse" number="3"><syllabic>begin</syllabic><text font-size="10.8">un</text></lyric></note><note default-x="75"><pitch><step>F</step><octave>4</octave></pitch><duration>2</duration><voice>1</voice><type>eighth</type><stem default-y="-3.5">up</stem><lyric default-y="-91" name="verse" number="1"><syllabic>single</syllabic><text font-size="10.8">führst</text></lyric><lyric default-y="-115" name="verse" number="2"><syllabic>single</syllabic><text font-size="10.8">stellst</text></lyric><lyric default-y="-140" name="verse" number="3"><syllabic>middle</syllabic><text font-size="10.8">er</text></lyric></note><harmony default-y="36" font-size="10" font-weight="bold"><root><root-step>C</root-step></root><kind halign="center" text="">major</kind></harmony><note default-x="150"><pitch><step>G</step><octave>4</octave></pitch><duration>6</duration><voice>1</voice><type>quarter</type><dot /><stem default-y="1.5">up</stem><lyric default-y="-91" name="verse" number="1"><syllabic>single</syllabic><text font-size="10.8">mich</text></lyric><lyric default-y="-115" name="verse" number="2"><syllabic>single</syllabic><text font-size="10.8">mich</text></lyric><lyric default-y="-140" name="verse" number="3"><syllabic>middle</syllabic><text font-size="10.8">gründ</text></lyric></note><note default-x="213"><pitch><step>F</step><octave>4</octave></pitch><duration>2</duration><voice>1</voice><type>eighth</type><stem default-y="-3.5">up</stem><lyric default-y="-91" name="verse" number="1"><syllabic>single</syllabic><text font-size="10.8">an</text></lyric><lyric default-y="-115" name="verse" number="2"><syllabic>single</syllabic><text font-size="10.8">auf</text></lyric><lyric default-y="-140" name="verse" number="3"><syllabic>end</syllabic><text font-size="10.8">lich</text></lyric></note></measure><!--=======================================================--><measure number="16" width="334"><harmony default-y="36" font-size="10" font-weight="bold"><root><root-step>C</root-step></root><kind halign="center" text="">major</kind><bass><bass-step>D</bass-step></bass></harmony><note default-x="16"><pitch><step>G</step><octave>4</octave></pitch><duration>2</duration><voice>1</voice><type>eighth</type><stem default-y="6">up</stem><beam number="1">begin</beam><lyric default-y="-91" name="verse" number="1"><syllabic>begin</syllabic><text font-size="10.8">dei</text></lyric><lyric default-y="-115" name="verse" number="2"><syllabic>begin</syllabic><text font-size="10.8">wei</text></lyric><lyric default-y="-140" name="verse" number="3"><syllabic>single</syllabic><text font-size="10.8">tief</text></lyric></note><harmony default-y="36" font-size="10" font-weight="bold"><root><root-step>D</root-step></root><kind halign="center" text="">major</kind></harmony><note default-x="70"><pitch><step>A</step><octave>4</octave></pitch><duration>1</duration><voice>1</voice><type>16th</type><stem default-y="6">up</stem><beam number="1">continue</beam><beam number="2">begin</beam><lyric default-y="-91" name="verse" number="1"><syllabic>end</syllabic><text font-size="10.8">ner</text></lyric><lyric default-y="-115" name="verse" number="2"><syllabic>end</syllabic><text font-size="10.8">ten</text></lyric><lyric default-y="-140" name="verse" number="3"><syllabic>single</syllabic><text font-size="10.8">und</text></lyric></note><note default-x="141"><pitch><step>A</step><octave>4</octave></pitch><duration>1</duration><tie type="start" /><voice>1</voice><type>16th</type><stem default-y="6">up</stem><beam number="1">end</beam><beam number="2">end</beam><notations><tied type="start" /><slur bezier-x="40" bezier-y="-27" default-x="6" default-y="-35" number="1" placement="below" type="start" /></notations><lyric default-y="-91" name="verse" number="1"><syllabic>single</syllabic><text font-size="10.8">Hand.</text><extend type="start" /></lyric><lyric default-y="-115" name="verse" number="2"><syllabic>single</syllabic><text font-size="10.8">Raum.</text><extend type="start" /></lyric><lyric default-y="-140" name="verse" number="3"><syllabic>single</syllabic><text font-size="10.8">reich.</text><extend type="start" /></lyric></note><note default-x="180"><pitch><step>A</step><octave>4</octave></pitch><duration>4</duration><tie type="stop" /><tie type="start" /><voice>1</voice><type>quarter</type><stem default-y="6">up</stem><notations><tied type="stop" /><tied type="start" /></notations></note><note default-x="219"><pitch><step>A</step><octave>4</octave></pitch><duration>6</duration><tie type="stop" /><voice>1</voice><type>quarter</type><dot /><stem default-y="6">up</stem><notations><tied type="stop" /></notations></note><note default-x="258"><pitch><step>B</step><alter>-1</alter><octave>4</octave></pitch><duration>1</duration><voice>1</voice><type>16th</type><stem default-y="11">up</stem><beam number="1">begin</beam><beam number="2">begin</beam></note><note default-x="295"><pitch><step>A</step><octave>4</octave></pitch><duration>1</duration><voice>1</voice><type>16th</type><stem default-y="6">up</stem><beam number="1">end</beam><beam number="2">end</beam></note></measure><!--=======================================================--><measure number="17" width="162"><harmony default-y="36" font-size="10" font-weight="bold"><root><root-step>C</root-step></root><kind halign="center" text="sus">suspended-fourth</kind></harmony><note default-x="30"><pitch><step>G</step><octave>4</octave></pitch><duration>8</duration><tie type="start" /><voice>1</voice><type>half</type><stem default-y="1.5">up</stem><notations><tied type="start" /></notations></note><harmony default-y="36" font-size="10" font-weight="bold"><root><root-step>C</root-step></root><kind halign="center" text="">major</kind></harmony><note default-x="79"><pitch><step>G</step><octave>4</octave></pitch><duration>4</duration><tie type="stop" /><voice>1</voice><type>quarter</type><stem default-y="1.5">up</stem><notations><tied type="stop" /><slur bezier-x="-42" bezier-y="-25" default-x="6" default-y="-43" number="1" type="stop" /></notations><lyric name="verse" number="1"><extend type="stop" /></lyric><lyric name="verse" number="2"><extend type="stop" /></lyric><lyric name="verse" number="3"><extend type="stop" /></lyric></note><note default-x="117"><rest /><duration>4</duration><voice>1</voice><type>quarter</type></note><direction placement="above"><direction-type><words default-x="159" default-y="8" font-style="italic" justify="right">D.C. al Fine</words></direction-type><sound dacapo="yes" /></direction><barline location="right"><bar-style>light-light</bar-style></barline></measure></part><!--=========================================================--></score-partwise>