<?xml version="1.0" encoding="UTF-8" standalone="no"?><!DOCTYPE score-partwise PUBLIC "-//Recordare//DTD MusicXML 3.0 Partwise//EN" "http://www.musicxml.org/dtds/partwise.dtd"[]><score-partwise version="3.0"><movement-title>Dir gebührt die Ehre</movement-title><identification><creator type="composer">Eva-Lena Hellmark</creator><encoding><software>Finale 2014.5 for Windows</software><software>Dolet Light for Finale 2014.5</software><encoding-date>2020-03-13</encoding-date><supports attribute="new-system" element="print" type="yes" value="yes" /><supports attribute="new-page" element="print" type="yes" value="yes" /><supports element="accidental" type="yes" /><supports element="beam" type="yes" /><supports element="stem" type="yes" /></encoding><rights>CCLI-Liednummer 5608337
© 1992 Hellmark, Eva-Lena
Nutzung ausschließlich im Rahmen der SongSelect®-Nutzungsbedingungen. Alle Rechte vorbehalten. www.ccli.com
CCLI-Lizenznummer 2182334
</rights></identification><defaults><scaling><millimeters>6.5088</millimeters><tenths>40</tenths></scaling><page-layout><page-height>1717</page-height><page-width>1327</page-width><page-margins type="both"><left-margin>78</left-margin><right-margin>78</right-margin><top-margin>78</top-margin><bottom-margin>78</bottom-margin></page-margins></page-layout><system-layout><system-margins><left-margin>0</left-margin><right-margin>0</right-margin></system-margins><system-distance>190</system-distance><top-system-distance>117</top-system-distance></system-layout><appearance><line-width type="stem">1.4583</line-width><line-width type="beam">5</line-width><line-width type="staff">1.25</line-width><line-width type="light barline">1.4583</line-width><line-width type="heavy barline">5</line-width><line-width type="leger">1.875</line-width><line-width type="ending">1.4583</line-width><line-width type="wedge">1.4583</line-width><line-width type="enclosure">1.4583</line-width><line-width type="tuplet bracket">1.4583</line-width><note-size type="grace">50</note-size><note-size type="cue">50</note-size><distance type="hyphen">240</distance><distance type="beam">8</distance></appearance><music-font font-family="Maestro,engraved" font-size="18.5" /><word-font font-family="Arial" font-size="9.2" /><lyric-font font-family="Arial" font-size="10.8" name="verse" /><lyric-font font-family="Arial" font-size="10.8" name="section" /></defaults><credit page="1"><credit-type>title</credit-type><credit-words default-x="663" default-y="1649" font-size="21.6" font-weight="bold" justify="center" valign="top" xml:lang="de">Dir gebührt die Ehre</credit-words></credit><credit page="1"><credit-words default-x="1249" default-y="1576" font-size="10.8" font-style="italic" justify="right" valign="top">Text und Musik:</credit-words></credit><credit page="1"><credit-type>composer</credit-type><credit-words default-x="1249" default-y="1552" font-size="10.8" font-weight="bold" justify="right" valign="top">Eva-Lena Hellmark</credit-words></credit><part-list><score-part id="P1"><part-name print-object="no">Vocals</part-name><score-instrument id="P1-I2"><instrument-name>Melody</instrument-name></score-instrument><midi-instrument id="P1-I2"><midi-channel>1</midi-channel><midi-program>1</midi-program><volume>80</volume><pan>0</pan></midi-instrument></score-part></part-list><!--=========================================================--><part id="P1"><measure implicit="yes" number="0" width="333"><print><page-layout><page-height>1717</page-height><page-width>1327</page-width><page-margins><left-margin>78</left-margin><right-margin>78</right-margin><top-margin>190</top-margin><bottom-margin>163</bottom-margin></page-margins></page-layout><system-layout><system-margins><left-margin>68</left-margin><right-margin>0</right-margin></system-margins></system-layout><measure-numbering>system</measure-numbering></print><attributes><divisions>8</divisions><key><fifths>-2</fifths><mode>major</mode></key><time symbol="cut"><beats>2</beats><beat-type>2</beat-type></time><clef><sign>G</sign><line>2</line></clef></attributes><direction placement="above"><direction-type><metronome default-y="59" halign="left" relative-x="-66"><beat-unit>half</beat-unit><per-minute>60</per-minute></metronome></direction-type><sound tempo="120" /></direction><note default-x="114"><pitch><step>D</step><octave>4</octave></pitch><duration>4</duration><voice>1</voice><type>eighth</type><stem default-y="-4">up</stem><beam number="1">begin</beam><lyric default-y="-91" name="verse" number="1"><syllabic>single</syllabic><text font-size="10.8">Dir</text></lyric></note><note default-x="166"><pitch><step>F</step><octave>4</octave></pitch><duration>4</duration><voice>1</voice><type>eighth</type><stem default-y="-4">up</stem><beam number="1">continue</beam><lyric default-y="-91" name="verse" number="1"><syllabic>begin</syllabic><text font-size="10.8">ge</text></lyric></note><note default-x="224"><pitch><step>F</step><octave>4</octave></pitch><duration>4</duration><voice>1</voice><type>eighth</type><stem default-y="-4">up</stem><beam number="1">continue</beam><lyric default-y="-91" name="verse" number="1"><syllabic>end</syllabic><text font-size="10.8">bührt</text></lyric></note><note default-x="285"><pitch><step>D</step><octave>4</octave></pitch><duration>4</duration><voice>1</voice><type>eighth</type><stem default-y="-4">up</stem><beam number="1">end</beam><lyric default-y="-91" name="verse" number="1"><syllabic>single</syllabic><text font-size="10.8">die</text></lyric></note></measure><!--=======================================================--><measure number="1" width="173"><barline location="left"><bar-style>heavy-light</bar-style><repeat direction="forward" winged="none" /></barline><harmony default-y="36" font-size="10" font-weight="bold"><root><root-step>B</root-step><root-alter>-1</root-alter></root><kind halign="center" text="">major</kind></harmony><direction placement="above"><direction-type><rehearsal default-y="69" font-weight="bold" relative-x="-5">VERS</rehearsal></direction-type></direction><note default-x="34"><pitch><step>F</step><octave>4</octave></pitch><duration>8</duration><voice>1</voice><type>quarter</type><stem default-y="-3">up</stem><lyric default-y="-91" name="verse" number="1"><syllabic>begin</syllabic><text font-size="10.8">Eh</text></lyric></note><note default-x="77"><pitch><step>D</step><octave>4</octave></pitch><duration>24</duration><tie type="start" /><voice>1</voice><type>half</type><dot /><stem default-y="-13">up</stem><notations><tied type="start" /></notations><lyric default-y="-91" name="verse" number="1"><syllabic>end</syllabic><text font-size="10.8">re</text><extend type="start" /></lyric></note></measure><!--=======================================================--><measure number="2" width="197"><note default-x="10"><pitch><step>D</step><octave>4</octave></pitch><duration>8</duration><tie type="stop" /><voice>1</voice><type>quarter</type><stem default-y="-13">up</stem><notations><tied type="stop" /></notations><lyric name="verse" number="1"><extend type="stop" /></lyric></note><note default-x="55"><rest /><duration>8</duration><voice>1</voice><type>quarter</type></note><note default-x="99"><pitch><step>D</step><octave>4</octave></pitch><duration>8</duration><voice>1</voice><type>quarter</type><stem default-y="-13">up</stem><lyric default-y="-91" name="verse" number="1"><syllabic>single</syllabic><text font-size="10.8">und</text></lyric></note><note default-x="151"><pitch><step>F</step><octave>4</octave></pitch><duration>8</duration><voice>1</voice><type>quarter</type><stem default-y="-3">up</stem><lyric default-y="-91" name="verse" number="1"><syllabic>begin</syllabic><text font-size="10.8">An</text></lyric></note></measure><!--=======================================================--><measure number="3" width="184"><harmony default-y="36" font-size="10" font-weight="bold"><root><root-step>G</root-step></root><kind halign="center" text="m7">minor-seventh</kind></harmony><note default-x="28"><pitch><step>F</step><octave>4</octave></pitch><duration>8</duration><voice>1</voice><type>quarter</type><stem default-y="-3">up</stem><lyric default-y="-91" name="verse" number="1"><syllabic>middle</syllabic><text font-size="10.8">be</text></lyric></note><note default-x="86"><pitch><step>D</step><octave>4</octave></pitch><duration>24</duration><tie type="start" /><voice>1</voice><type>half</type><dot /><stem default-y="-13">up</stem><notations><tied type="start" /></notations><lyric default-y="-91" name="verse" number="1"><syllabic>end</syllabic><text font-size="10.8">tung.</text><extend type="start" /></lyric></note></measure><!--=======================================================--><measure number="4" width="216"><note default-x="10"><pitch><step>D</step><octave>4</octave></pitch><duration>16</duration><tie type="stop" /><voice>1</voice><type>half</type><stem default-y="-13">up</stem><notations><tied type="stop" /></notations><lyric name="verse" number="1"><extend type="stop" /></lyric></note><note default-x="84"><rest /><duration>8</duration><voice>1</voice><type>quarter</type></note><note default-x="129"><pitch><step>F</step><octave>4</octave></pitch><duration>4</duration><voice>1</voice><type>eighth</type><stem default-y="-4">up</stem><beam number="1">begin</beam><lyric default-y="-91" name="verse" number="1"><syllabic>single</syllabic><text font-size="10.8">Wir</text></lyric></note><note default-x="176"><pitch><step>F</step><octave>4</octave></pitch><duration>4</duration><voice>1</voice><type>eighth</type><stem default-y="-4">up</stem><beam number="1">end</beam><lyric default-y="-91" name="verse" number="1"><syllabic>begin</syllabic><text font-size="10.8">er</text></lyric></note></measure><!--=======================================================--><measure number="5" width="435"><print new-system="yes"><system-layout><system-distance>180</system-distance></system-layout></print><harmony default-y="36" font-size="10" font-weight="bold"><root><root-step>E</root-step><root-alter>-1</root-alter></root><kind halign="center" text="">major</kind></harmony><note default-x="87"><pitch><step>F</step><octave>4</octave></pitch><duration>8</duration><voice>1</voice><type>quarter</type><stem default-y="-2.5">up</stem><lyric default-y="-91" name="verse" number="1"><syllabic>middle</syllabic><text font-size="10.8">he</text></lyric></note><note default-x="169"><pitch><step>E</step><alter>-1</alter><octave>4</octave></pitch><duration>8</duration><voice>1</voice><type>quarter</type><stem default-y="-8">up</stem><lyric default-y="-91" name="verse" number="1"><syllabic>end</syllabic><text font-size="10.8">ben</text></lyric></note><note default-x="250"><pitch><step>E</step><alter>-1</alter><octave>4</octave></pitch><duration>8</duration><voice>1</voice><type>quarter</type><stem default-y="-8">up</stem><lyric default-y="-91" name="verse" number="1"><syllabic>begin</syllabic><text font-size="10.8">uns</text></lyric></note><note default-x="332"><pitch><step>D</step><octave>4</octave></pitch><duration>4</duration><voice>1</voice><type>eighth</type><stem default-y="-13.5">up</stem><beam number="1">begin</beam><lyric default-y="-91" name="verse" number="1"><syllabic>end</syllabic><text font-size="10.8">re</text></lyric></note><note default-x="383"><pitch><step>D</step><octave>4</octave></pitch><duration>4</duration><tie type="start" /><voice>1</voice><type>eighth</type><stem default-y="-13.5">up</stem><beam number="1">end</beam><notations><tied type="start" /></notations><lyric default-y="-91" name="verse" number="1"><syllabic>begin</syllabic><text font-size="10.8">Hän</text></lyric></note></measure><!--=======================================================--><measure number="6" width="310"><note default-x="10"><pitch><step>D</step><octave>4</octave></pitch><duration>4</duration><tie type="stop" /><voice>1</voice><type>eighth</type><stem default-y="-13">up</stem><notations><tied type="stop" /></notations></note><note default-x="54"><pitch><step>C</step><octave>4</octave></pitch><duration>12</duration><voice>1</voice><type>quarter</type><dot /><stem default-y="-18">up</stem><lyric default-y="-91" name="verse" number="1"><syllabic>end</syllabic><text font-size="10.8">de,</text></lyric></note><note default-x="149"><rest /><duration>8</duration><voice>1</voice><type>quarter</type></note><note default-x="220"><pitch><step>C</step><octave>4</octave></pitch><duration>4</duration><voice>1</voice><type>eighth</type><stem default-y="-18">up</stem><beam number="1">begin</beam><lyric default-y="-91" name="verse" number="1"><syllabic>single</syllabic><text font-size="10.8">wir</text></lyric></note><note default-x="264"><pitch><step>D</step><octave>4</octave></pitch><duration>4</duration><voice>1</voice><type>eighth</type><stem default-y="-13.5">up</stem><beam number="1">end</beam><lyric default-y="-91" name="verse" number="1"><syllabic>begin</syllabic><text font-size="10.8">er</text></lyric></note></measure><!--=======================================================--><measure number="7" width="426"><harmony default-y="36" font-size="10" font-weight="bold"><root><root-step>C</root-step></root><kind halign="center" text="m7">minor-seventh</kind></harmony><note default-x="27"><pitch><step>E</step><alter>-1</alter><octave>4</octave></pitch><duration>8</duration><voice>1</voice><type>quarter</type><stem default-y="-8">up</stem><lyric default-y="-91" name="verse" number="1"><syllabic>middle</syllabic><text font-size="10.8">he</text></lyric></note><note default-x="116"><pitch><step>D</step><octave>4</octave></pitch><duration>8</duration><voice>1</voice><type>quarter</type><stem default-y="-13">up</stem><lyric default-y="-91" name="verse" number="1"><syllabic>end</syllabic><text font-size="10.8">ben</text></lyric></note><note default-x="205"><pitch><step>E</step><alter>-1</alter><octave>4</octave></pitch><duration>8</duration><voice>1</voice><type>quarter</type><stem default-y="-8">up</stem><lyric default-y="-91" name="verse" number="1"><syllabic>begin</syllabic><text font-size="10.8">Dei</text></lyric></note><note default-x="294"><pitch><step>F</step><octave>4</octave></pitch><duration>4</duration><voice>1</voice><type>eighth</type><stem default-y="-4">up</stem><beam number="1">begin</beam><lyric default-y="-91" name="verse" number="1"><syllabic>end</syllabic><text font-size="10.8">nen</text></lyric></note><note default-x="361"><pitch><step>F</step><octave>4</octave></pitch><duration>4</duration><tie type="start" /><voice>1</voice><type>eighth</type><stem default-y="-4">up</stem><beam number="1">end</beam><notations><tied type="start" /></notations><lyric default-y="-91" name="verse" number="1"><syllabic>single</syllabic><text font-size="10.8">Nam’.</text><extend type="start" /></lyric></note></measure><!--=======================================================--><measure number="8" width="418"><print new-system="yes"><system-layout><system-distance>180</system-distance></system-layout></print><barline location="left"><ending default-y="71" end-length="71" font-size="6.2" number="1" type="start" /></barline><harmony default-y="36" font-size="10" font-weight="bold"><root><root-step>C</root-step></root><kind halign="center" text="m7">minor-seventh</kind><bass><bass-step>F</bass-step></bass></harmony><note default-x="94"><pitch><step>F</step><octave>4</octave></pitch><duration>8</duration><tie type="stop" /><voice>1</voice><type>quarter</type><stem default-y="-3">up</stem><notations><tied type="stop" /></notations><lyric name="verse" number="1"><extend type="stop" /></lyric></note><note default-x="148"><rest /><duration>8</duration><voice>1</voice><type>quarter</type></note><harmony default-y="36" font-size="10" font-weight="bold"><root><root-step>F</root-step></root><kind halign="center" text="">major</kind></harmony><note default-x="190"><pitch><step>D</step><octave>4</octave></pitch><duration>4</duration><voice>1</voice><type>eighth</type><stem default-y="-3">up</stem><beam number="1">begin</beam><lyric default-y="-91" name="verse" number="1"><syllabic>single</syllabic><text font-size="10.8">Dir</text></lyric></note><note default-x="237"><pitch><step>F</step><octave>4</octave></pitch><duration>4</duration><voice>1</voice><type>eighth</type><stem default-y="-3">up</stem><beam number="1">continue</beam><lyric default-y="-91" name="verse" number="1"><syllabic>begin</syllabic><text font-size="10.8">ge</text></lyric></note><note default-x="294"><pitch><step>F</step><octave>4</octave></pitch><duration>4</duration><voice>1</voice><type>eighth</type><stem default-y="-3">up</stem><beam number="1">continue</beam><lyric default-y="-91" name="verse" number="1"><syllabic>end</syllabic><text font-size="10.8">bührt</text></lyric></note><note default-x="356"><pitch><step>D</step><octave>4</octave></pitch><duration>4</duration><voice>1</voice><type>eighth</type><stem default-y="-3">up</stem><beam number="1">end</beam><lyric default-y="-91" name="verse" number="1"><syllabic>single</syllabic><text font-size="10.8">die</text></lyric></note><barline location="right"><bar-style>light-heavy</bar-style><ending number="1" type="stop" /><repeat direction="backward" winged="none" /></barline></measure><!--=======================================================--><measure number="9" width="267"><barline location="left"><ending default-y="71" end-length="71" font-size="6.2" number="2" type="start" /></barline><harmony default-y="36" font-size="10" font-weight="bold"><root><root-step>C</root-step></root><kind halign="center" text="m7">minor-seventh</kind><bass><bass-step>F</bass-step></bass></harmony><direction placement="below"><direction-type><bracket default-y="-91" line-end="none" line-type="solid" number="1" relative-x="-10" type="start" /></direction-type></direction><direction placement="below"><direction-type><bracket line-end="none" number="1" relative-x="14" type="stop" /></direction-type></direction><note default-x="32"><pitch><step>F</step><octave>4</octave></pitch><duration>8</duration><voice>1</voice><type>quarter</type><stem default-y="-3">up</stem><notations><slur default-x="-20" default-y="-45" number="1" placement="below" type="start" /><slur number="1" type="stop" /></notations></note><note default-x="83"><rest /><duration>4</duration><voice>1</voice><type>eighth</type></note><note default-x="109"><pitch><step>F</step><octave>4</octave></pitch><duration>4</duration><voice>1</voice><type>eighth</type><stem default-y="-3">up</stem><lyric default-y="-91" name="verse" number="1"><syllabic>single</syllabic><text font-size="10.8">Denn</text></lyric></note><harmony default-y="36" font-size="10" font-weight="bold"><root><root-step>E</root-step><root-alter>-1</root-alter></root><kind halign="center" text="">major</kind><bass><bass-step>F</bass-step></bass></harmony><note default-x="168"><pitch><step>B</step><alter>-1</alter><octave>4</octave></pitch><duration>8</duration><voice>1</voice><type>quarter</type><stem default-y="-51.5">down</stem><lyric default-y="-91" name="verse" number="1"><syllabic>single</syllabic><text font-size="10.8">Du</text></lyric></note><harmony default-y="36" font-size="10" font-weight="bold"><root><root-step>F</root-step></root><kind halign="center" text="">major</kind></harmony><note default-x="221"><pitch><step>A</step><octave>4</octave></pitch><duration>8</duration><voice>1</voice><type>quarter</type><stem default-y="7">up</stem><lyric default-y="-91" name="verse" number="1"><syllabic>single</syllabic><text font-size="10.8">bist</text></lyric></note><barline location="right"><ending number="2" type="discontinue" /></barline></measure><!--=======================================================--><measure number="10" width="246"><barline location="left"><bar-style>heavy-light</bar-style><repeat direction="forward" winged="none" /></barline><harmony default-y="36" font-size="10" font-weight="bold"><root><root-step>B</root-step><root-alter>-1</root-alter></root><kind halign="center" text="">major</kind></harmony><direction placement="above"><direction-type><rehearsal default-y="69" font-weight="bold" relative-x="-5">CHORUS</rehearsal></direction-type></direction><note default-x="38"><pitch><step>B</step><alter>-1</alter><octave>4</octave></pitch><duration>16</duration><voice>1</voice><type>half</type><stem default-y="-51.5">down</stem><lyric default-y="-91" name="verse" number="1"><syllabic>single</syllabic><text font-size="10.8">groß,</text></lyric></note><note default-x="107"><rest /><duration>8</duration><voice>1</voice><type>quarter</type></note><note default-x="148"><pitch><step>A</step><octave>4</octave></pitch><duration>4</duration><voice>1</voice><type>eighth</type><stem default-y="6.5">up</stem><beam number="1">begin</beam><lyric default-y="-91" name="verse" number="1"><syllabic>single</syllabic><text font-size="10.8">Du</text></lyric></note><note default-x="200"><pitch><step>B</step><alter>-1</alter><octave>4</octave></pitch><duration>4</duration><voice>1</voice><type>eighth</type><stem default-y="11">up</stem><beam number="1">end</beam><lyric default-y="-91" name="verse" number="1"><syllabic>single</syllabic><text font-size="10.8">tust</text></lyric></note></measure><!--=======================================================--><measure number="11" width="240"><note default-x="11"><pitch><step>C</step><octave>5</octave></pitch><duration>8</duration><voice>1</voice><type>quarter</type><stem default-y="-47">down</stem><lyric default-y="-91" name="verse" number="1"><syllabic>begin</syllabic><text font-size="10.8">gro</text></lyric></note><note default-x="61"><pitch><step>B</step><alter>-1</alter><octave>4</octave></pitch><duration>4</duration><voice>1</voice><type>eighth</type><stem default-y="-51">down</stem><beam number="1">begin</beam><lyric default-y="-91" name="verse" number="1"><syllabic>end</syllabic><text font-size="10.8">ße</text></lyric></note><note default-x="118"><pitch><step>B</step><alter>-1</alter><octave>4</octave></pitch><duration>4</duration><tie type="start" /><voice>1</voice><type>eighth</type><stem default-y="-51">down</stem><beam number="1">end</beam><notations><tied type="start" /></notations><lyric default-y="-91" name="verse" number="1"><syllabic>begin</syllabic><text font-size="10.8">Wun</text></lyric></note><note default-x="148"><pitch><step>B</step><alter>-1</alter><octave>4</octave></pitch><duration>8</duration><tie type="stop" /><voice>1</voice><type>quarter</type><stem default-y="-51.5">down</stem><notations><tied type="stop" /></notations></note><harmony default-y="36" font-size="10" font-weight="bold"><root><root-step>B</root-step><root-alter>-1</root-alter></root><kind halign="center" text="">major</kind><bass><bass-step>A</bass-step></bass></harmony><note default-x="190"><pitch><step>A</step><octave>4</octave></pitch><duration>8</duration><voice>1</voice><type>quarter</type><stem default-y="7">up</stem><lyric default-y="-91" name="verse" number="1"><syllabic>end</syllabic><text font-size="10.8">der,</text></lyric></note></measure><!--=======================================================--><measure number="12" width="389"><print new-system="yes"><system-layout><system-distance>180</system-distance></system-layout></print><harmony default-y="36" font-size="10" font-weight="bold"><root><root-step>G</root-step></root><kind halign="center" text="m7">minor-seventh</kind></harmony><note default-x="100"><pitch><step>B</step><alter>-1</alter><octave>4</octave></pitch><duration>16</duration><voice>1</voice><type>half</type><stem default-y="-51.5">down</stem><lyric default-y="-91" name="verse" number="1"><syllabic>single</syllabic><text font-size="10.8">groß,</text></lyric></note><note default-x="204"><rest /><duration>8</duration><voice>1</voice><type>quarter</type></note><note default-x="268"><pitch><step>A</step><octave>4</octave></pitch><duration>4</duration><voice>1</voice><type>eighth</type><stem default-y="6">up</stem><beam number="1">begin</beam><lyric default-y="-91" name="verse" number="1"><syllabic>begin</syllabic><text font-size="10.8">nie</text></lyric></note><note default-x="331"><pitch><step>B</step><alter>-1</alter><octave>4</octave></pitch><duration>4</duration><voice>1</voice><type>eighth</type><stem default-y="11">up</stem><beam number="1">end</beam><lyric default-y="-91" name="verse" number="1"><syllabic>end</syllabic><text font-size="10.8">mand</text></lyric></note></measure><!--=======================================================--><measure number="13" width="307"><note default-x="11"><pitch><step>C</step><octave>5</octave></pitch><duration>8</duration><voice>1</voice><type>quarter</type><stem default-y="-47">down</stem><lyric default-y="-91" name="verse" number="1"><syllabic>begin</syllabic><text font-size="10.8">an</text></lyric></note><note default-x="79"><pitch><step>B</step><alter>-1</alter><octave>4</octave></pitch><duration>4</duration><voice>1</voice><type>eighth</type><stem default-y="11">up</stem><beam number="1">begin</beam><lyric default-y="-91" name="verse" number="1"><syllabic>end</syllabic><text font-size="10.8">ders</text></lyric></note><note default-x="131"><pitch><step>A</step><octave>4</octave></pitch><duration>4</duration><tie type="start" /><voice>1</voice><type>eighth</type><stem default-y="6">up</stem><beam number="1">end</beam><notations><tied type="start" /></notations><lyric default-y="-91" name="verse" number="1"><syllabic>single</syllabic><text font-size="10.8">ist</text><extend type="start" /></lyric></note><note default-x="172"><pitch><step>A</step><octave>4</octave></pitch><duration>8</duration><tie type="stop" /><voice>1</voice><type>quarter</type><stem default-y="7">up</stem><notations><tied type="stop" /></notations><lyric name="verse" number="1"><extend type="stop" /></lyric></note><harmony default-y="36" font-size="10" font-weight="bold"><root><root-step>G</root-step></root><kind halign="center" text="m7">minor-seventh</kind><bass><bass-step>F</bass-step></bass></harmony><note default-x="236"><pitch><step>B</step><alter>-1</alter><octave>4</octave></pitch><duration>8</duration><voice>1</voice><type>quarter</type><stem default-y="-51.5">down</stem><lyric default-y="-91" name="verse" number="1"><syllabic>single</syllabic><text font-size="10.8">wie</text></lyric></note></measure><!--=======================================================--><measure number="14" width="156"><harmony default-y="36" font-size="10" font-weight="bold"><root><root-step>E</root-step><root-alter>-1</root-alter></root><kind halign="center" text="">major</kind></harmony><harmony default-y="36" font-size="10" font-weight="bold"><root><root-step>E</root-step><root-alter>-1</root-alter></root><kind halign="center" text="">major</kind><bass><bass-step>D</bass-step></bass><offset>16</offset></harmony><note default-x="15"><pitch><step>G</step><octave>4</octave></pitch><duration>32</duration><tie type="start" /><voice>1</voice><type>whole</type><notations><tied type="start" /></notations><lyric default-y="-91" name="verse" number="1"><syllabic>single</syllabic><text font-size="10.8">Du,</text><extend type="start" /></lyric></note></measure><!--=======================================================--><measure number="15" width="318"><harmony default-y="36" font-size="10" font-weight="bold"><root><root-step>C</root-step></root><kind halign="center" text="m7">minor-seventh</kind></harmony><note default-x="27"><pitch><step>G</step><octave>4</octave></pitch><duration>16</duration><tie type="stop" /><voice>1</voice><type>half</type><stem default-y="2">up</stem><notations><tied type="stop" /></notations><lyric name="verse" number="1"><extend type="stop" /></lyric></note><note default-x="132"><rest /><duration>8</duration><voice>1</voice><type>quarter</type></note><note default-x="197"><pitch><step>B</step><alter>-1</alter><octave>4</octave></pitch><duration>4</duration><voice>1</voice><type>eighth</type><stem default-y="-51">down</stem><beam number="1">begin</beam><lyric default-y="-91" name="verse" number="1"><syllabic>begin</syllabic><text font-size="10.8">nie</text></lyric></note><note default-x="259"><pitch><step>B</step><alter>-1</alter><octave>4</octave></pitch><duration>4</duration><voice>1</voice><type>eighth</type><stem default-y="-51">down</stem><beam number="1">end</beam><lyric default-y="-91" name="verse" number="1"><syllabic>end</syllabic><text font-size="10.8">mand</text></lyric></note></measure><!--=======================================================--><measure number="16" width="377"><print new-system="yes"><system-layout><system-distance>180</system-distance></system-layout></print><barline location="left"><ending default-y="71" end-length="71" font-size="6.2" number="1" type="start" /></barline><harmony default-y="36" font-size="10" font-weight="bold"><root><root-step>C</root-step></root><kind halign="center" text="m7">minor-seventh</kind><bass><bass-step>F</bass-step></bass></harmony><note default-x="102"><pitch><step>B</step><alter>-1</alter><octave>4</octave></pitch><duration>8</duration><voice>1</voice><type>quarter</type><stem default-y="-52">down</stem><lyric default-y="-91" name="verse" number="1"><syllabic>begin</syllabic><text font-size="10.8">an</text></lyric></note><note default-x="172"><pitch><step>A</step><octave>4</octave></pitch><duration>4</duration><voice>1</voice><type>eighth</type><stem default-y="6">up</stem><beam number="1">begin</beam><lyric default-y="-91" name="verse" number="1"><syllabic>end</syllabic><text font-size="10.8">ders</text></lyric></note><harmony default-y="36" font-size="10" font-weight="bold"><root><root-step>F</root-step></root><kind halign="center" text="">major</kind></harmony><note default-x="219"><pitch><step>A</step><octave>4</octave></pitch><duration>4</duration><tie type="start" /><voice>1</voice><type>eighth</type><stem default-y="6">up</stem><beam number="1">end</beam><notations><tied type="start" /></notations><lyric default-y="-91" name="verse" number="1"><syllabic>single</syllabic><text font-size="10.8">ist</text><extend type="start" /></lyric></note><note default-x="255"><pitch><step>A</step><octave>4</octave></pitch><duration>8</duration><tie type="stop" /><voice>1</voice><type>quarter</type><stem default-y="7">up</stem><notations><tied type="stop" /></notations><lyric name="verse" number="1"><extend type="stop" /></lyric></note><harmony default-y="36" font-size="10" font-weight="bold"><root><root-step>C</root-step></root><kind halign="center" text="m7">minor-seventh</kind><bass><bass-step>F</bass-step></bass></harmony><note default-x="313"><pitch><step>G</step><octave>4</octave></pitch><duration>8</duration><voice>1</voice><type>quarter</type><stem default-y="2">up</stem><lyric default-y="-91" name="verse" number="1"><syllabic>single</syllabic><text font-size="10.8">wie</text></lyric></note></measure><!--=======================================================--><measure number="17" width="292"><harmony default-y="36" font-size="10" font-weight="bold"><root><root-step>F</root-step></root><kind halign="center" text="">major</kind></harmony><note default-x="11"><pitch><step>F</step><octave>4</octave></pitch><duration>8</duration><voice>1</voice><type>quarter</type><stem default-y="-3">up</stem><lyric default-y="-91" name="verse" number="1"><syllabic>single</syllabic><text font-size="10.8">Du.</text></lyric></note><note default-x="59"><rest /><duration>4</duration><voice>1</voice><type>eighth</type></note><note default-x="102"><pitch><step>F</step><octave>4</octave></pitch><duration>4</duration><voice>1</voice><type>eighth</type><stem default-y="-3">up</stem><lyric default-y="-91" name="verse" number="1"><syllabic>single</syllabic><text font-size="10.8">Denn</text></lyric></note><harmony default-y="36" font-size="10" font-weight="bold"><root><root-step>E</root-step><root-alter>-1</root-alter></root><kind halign="center" text="">major</kind><bass><bass-step>F</bass-step></bass></harmony><note default-x="162"><pitch><step>B</step><alter>-1</alter><octave>4</octave></pitch><duration>8</duration><voice>1</voice><type>quarter</type><stem default-y="-52">down</stem><lyric default-y="-91" name="verse" number="1"><syllabic>single</syllabic><text font-size="10.8">Du</text></lyric></note><harmony default-y="36" font-size="10" font-weight="bold"><root><root-step>F</root-step></root><kind halign="center" text="">major</kind></harmony><note default-x="220"><pitch><step>A</step><octave>4</octave></pitch><duration>8</duration><voice>1</voice><type>quarter</type><stem default-y="7">up</stem><lyric default-y="-91" name="verse" number="1"><syllabic>single</syllabic><text font-size="10.8">bist</text></lyric></note><barline location="right"><bar-style>light-heavy</bar-style><ending number="1" type="stop" /><repeat direction="backward" winged="none" /></barline></measure><!--=======================================================--><measure number="18" width="182"><barline location="left"><ending default-y="71" end-length="71" font-size="6.2" number="2" type="start" /></barline><harmony default-y="36" font-size="10" font-weight="bold"><root><root-step>C</root-step></root><kind halign="center" text="m7">minor-seventh</kind><bass><bass-step>F</bass-step></bass></harmony><note default-x="28"><pitch><step>B</step><alter>-1</alter><octave>4</octave></pitch><duration>16</duration><voice>1</voice><type>half</type><stem default-y="-52">down</stem><lyric default-y="-91" name="verse" number="1"><syllabic>begin</syllabic><text font-size="10.8">an</text></lyric></note><harmony default-y="36" font-size="10" font-weight="bold"><root><root-step>F</root-step></root><kind halign="center" text="">major</kind></harmony><note default-x="105"><pitch><step>A</step><octave>4</octave></pitch><duration>16</duration><voice>1</voice><type>half</type><stem default-y="7">up</stem><lyric default-y="-91" name="verse" number="1"><syllabic>end</syllabic><text font-size="10.8">ders</text></lyric></note><barline location="right"><ending number="2" type="discontinue" /></barline></measure><!--=======================================================--><measure number="19" width="181"><harmony default-y="36" font-size="10" font-weight="bold"><root><root-step>C</root-step></root><kind halign="center" text="m7">minor-seventh</kind><bass><bass-step>F</bass-step></bass></harmony><note default-x="30"><pitch><step>G</step><octave>4</octave></pitch><duration>16</duration><voice>1</voice><type>half</type><stem default-y="2">up</stem><lyric default-y="-91" name="verse" number="1"><syllabic>single</syllabic><text font-size="10.8">ist</text></lyric></note><harmony default-y="36" font-size="10" font-weight="bold"><root><root-step>F</root-step></root><kind halign="center" text="">major</kind></harmony><note default-x="105"><pitch><step>A</step><octave>4</octave></pitch><duration>16</duration><voice>1</voice><type>half</type><stem default-y="7">up</stem><lyric default-y="-91" name="verse" number="1"><syllabic>single</syllabic><text font-size="10.8">wie</text></lyric></note></measure><!--=======================================================--><measure number="20" width="138"><harmony default-y="36" font-size="10" font-weight="bold"><root><root-step>B</root-step><root-alter>-1</root-alter></root><kind halign="center" text="">major</kind></harmony><note default-x="16"><pitch><step>B</step><alter>-1</alter><octave>4</octave></pitch><duration>32</duration><voice>1</voice><type>whole</type><lyric default-y="-91" name="verse" number="1"><syllabic>single</syllabic><text font-size="10.8">Du.</text></lyric></note><barline location="right"><bar-style>light-heavy</bar-style></barline></measure></part><!--=========================================================--></score-partwise>