<?xml version="1.0" encoding="UTF-8" standalone="no"?><!DOCTYPE score-partwise PUBLIC "-//Recordare//DTD MusicXML 3.0 Partwise//EN" "http://www.musicxml.org/dtds/partwise.dtd"[]><score-partwise version="3.0"><movement-title>Du bist mein Zufluchtsort</movement-title><identification><creator type="composer">Michael Ledner</creator><creator type="arranger">Gitta Leuschner</creator><encoding><software>Finale 2014 for Windows</software><software>Dolet Light for Finale 2014</software><encoding-date>2016-12-06</encoding-date><supports attribute="new-system" element="print" type="yes" value="yes" /><supports attribute="new-page" element="print" type="yes" value="yes" /><supports element="accidental" type="yes" /><supports element="beam" type="yes" /><supports element="stem" type="yes" /></encoding><rights>CCLI-Liednummer 5348178
© 1981 CCCM Music | Universal Music - Brentwood Benson Publishing
Nutzung ausschließlich im Rahmen der SongSelect®-Nutzungsbedingungen. Alle Rechte vorbehalten. www.ccli.com
CCLI-Lizenznummer 2182334
</rights></identification><defaults><scaling><millimeters>6.5088</millimeters><tenths>40</tenths></scaling><page-layout><page-height>1717</page-height><page-width>1327</page-width><page-margins type="both"><left-margin>78</left-margin><right-margin>78</right-margin><top-margin>78</top-margin><bottom-margin>78</bottom-margin></page-margins></page-layout><system-layout><system-margins><left-margin>0</left-margin><right-margin>0</right-margin></system-margins><system-distance>190</system-distance><top-system-distance>117</top-system-distance></system-layout><appearance><line-width type="stem">1.4583</line-width><line-width type="beam">5</line-width><line-width type="staff">1.25</line-width><line-width type="light barline">1.4583</line-width><line-width type="heavy barline">5</line-width><line-width type="leger">1.875</line-width><line-width type="ending">1.4583</line-width><line-width type="wedge">1.4583</line-width><line-width type="enclosure">1.4583</line-width><line-width type="tuplet bracket">1.4583</line-width><note-size type="grace">50</note-size><note-size type="cue">50</note-size><distance type="hyphen">240</distance><distance type="beam">8</distance></appearance><music-font font-family="Maestro,engraved" font-size="18.5" /><word-font font-family="Arial" font-size="9.2" /><lyric-font font-family="Arial" font-size="10.8" name="verse" /><lyric-font font-family="Arial" font-size="10.8" name="section" /></defaults><credit page="1"><credit-type>title</credit-type><credit-words default-x="663" default-y="1649" font-size="21.6" font-weight="bold" justify="center" valign="top">Du bist mein Zufluchtsort</credit-words></credit><credit page="1"><credit-words default-x="1249" default-y="1576" font-size="10.8" font-style="italic" justify="right" valign="top">Text und Musik:</credit-words></credit><credit page="1"><credit-type>composer</credit-type><credit-words default-x="1249" default-y="1552" font-size="10.8" font-weight="bold" justify="right" valign="top">Michael Ledner</credit-words></credit><credit page="1"><credit-words default-x="78" default-y="1576" font-size="10.8" font-style="italic" valign="top">Deutsch:</credit-words></credit><credit page="1"><credit-type>arranger</credit-type><credit-words default-x="78" default-y="1552" font-size="10.8" font-weight="bold" valign="top">Gitta Leuschner</credit-words></credit><part-list><score-part id="P1"><part-name print-object="no">Vocals</part-name><score-instrument id="P1-I2"><instrument-name>Melody</instrument-name></score-instrument><midi-instrument id="P1-I2"><midi-channel>1</midi-channel><midi-program>1</midi-program><volume>80</volume><pan>0</pan></midi-instrument></score-part></part-list><!--=========================================================--><part id="P1"><measure number="1" width="346"><print><page-layout><page-height>1717</page-height><page-width>1327</page-width><page-margins><left-margin>78</left-margin><right-margin>78</right-margin><top-margin>190</top-margin><bottom-margin>163</bottom-margin></page-margins></page-layout><system-layout><system-margins><left-margin>68</left-margin><right-margin>0</right-margin></system-margins></system-layout><measure-numbering>system</measure-numbering></print><attributes><divisions>2</divisions><key><fifths>0</fifths><mode>minor</mode></key><time><beats>4</beats><beat-type>4</beat-type></time><clef><sign>G</sign><line>2</line></clef></attributes><harmony default-y="36" font-size="10" font-weight="bold"><root><root-step>A</root-step></root><kind halign="center" text="m">minor</kind></harmony><direction placement="above"><direction-type><metronome default-y="59" halign="left" relative-x="-66"><beat-unit>quarter</beat-unit><per-minute>76</per-minute></metronome></direction-type><sound tempo="76" /></direction><direction placement="above"><direction-type><rehearsal default-y="69" font-weight="bold" relative-x="-5">CHORUS</rehearsal></direction-type></direction><note default-x="92"><rest /><duration>2</duration><voice>1</voice><type>quarter</type></note><note default-x="151"><pitch><step>E</step><octave>4</octave></pitch><duration>2</duration><voice>1</voice><type>quarter</type><stem default-y="-8">up</stem><lyric default-y="-91" name="verse" number="1"><syllabic>single</syllabic><text font-size="10.8">Du</text></lyric></note><note default-x="214"><pitch><step>A</step><octave>4</octave></pitch><duration>3</duration><voice>1</voice><type>quarter</type><dot /><stem default-y="7">up</stem><lyric default-y="-91" name="verse" number="1"><syllabic>single</syllabic><text font-size="10.8">bist</text></lyric></note><note default-x="295"><pitch><step>E</step><octave>4</octave></pitch><duration>1</duration><voice>1</voice><type>eighth</type><stem default-y="-8">up</stem><lyric default-y="-91" name="verse" number="1"><syllabic>single</syllabic><text font-size="10.8">mein</text></lyric></note></measure><!--=======================================================--><measure number="2" width="253"><harmony default-y="36" font-size="10" font-weight="bold"><root><root-step>D</root-step></root><kind halign="center" text="sus">suspended-fourth</kind></harmony><note default-x="30"><pitch><step>G</step><octave>4</octave></pitch><duration>3</duration><voice>1</voice><type>quarter</type><dot /><stem default-y="2">up</stem><lyric default-y="-91" name="verse" number="1"><syllabic>begin</syllabic><text font-size="10.8">Zu</text></lyric></note><note default-x="104"><pitch><step>F</step><octave>4</octave></pitch><duration>1</duration><voice>1</voice><type>eighth</type><stem default-y="-3">up</stem><lyric default-y="-91" name="verse" number="1"><syllabic>middle</syllabic><text font-size="10.8">fluchts</text></lyric></note><harmony default-y="36" font-size="10" font-weight="bold"><root><root-step>D</root-step></root><kind halign="center" text="m">minor</kind></harmony><note default-x="177"><pitch><step>F</step><octave>4</octave></pitch><duration>4</duration><voice>1</voice><type>half</type><stem default-y="-3">up</stem><lyric default-y="-91" name="verse" number="1"><syllabic>end</syllabic><text font-size="10.8">ort.</text></lyric></note></measure><!--=======================================================--><measure number="3" width="239"><harmony default-y="36" font-size="10" font-weight="bold"><root><root-step>G</root-step></root><kind halign="center" text="">major</kind></harmony><note default-x="14"><rest /><duration>2</duration><voice>1</voice><type>quarter</type></note><note default-x="69"><pitch><step>D</step><octave>4</octave></pitch><duration>2</duration><voice>1</voice><type>quarter</type><stem default-y="-13">up</stem><lyric default-y="-91" name="verse" number="1"><syllabic>single</syllabic><text font-size="10.8">Ich</text></lyric></note><note default-x="125"><pitch><step>G</step><octave>4</octave></pitch><duration>3</duration><voice>1</voice><type>quarter</type><dot /><stem default-y="2">up</stem><lyric default-y="-91" name="verse" number="1"><syllabic>begin</syllabic><text font-size="10.8">ber</text></lyric></note><note default-x="182"><pitch><step>D</step><octave>4</octave></pitch><duration>1</duration><voice>1</voice><type>eighth</type><stem default-y="-13">up</stem><lyric default-y="-91" name="verse" number="1"><syllabic>end</syllabic><text font-size="10.8">ge</text></lyric></note></measure><!--=======================================================--><measure number="4" width="264"><harmony default-y="36" font-size="10" font-weight="bold"><root><root-step>C</root-step></root><kind halign="center" text="sus">suspended-fourth</kind></harmony><note default-x="30"><pitch><step>F</step><octave>4</octave></pitch><duration>3</duration><voice>1</voice><type>quarter</type><dot /><stem default-y="-3">up</stem><lyric default-y="-91" name="verse" number="1"><syllabic>single</syllabic><text font-size="10.8">mich</text></lyric></note><note default-x="88"><pitch><step>E</step><octave>4</octave></pitch><duration>1</duration><voice>1</voice><type>eighth</type><stem default-y="-8">up</stem><lyric default-y="-91" name="verse" number="1"><syllabic>single</syllabic><text font-size="10.8">in</text></lyric></note><harmony default-y="36" font-size="10" font-weight="bold"><root><root-step>C</root-step></root><kind halign="center" text="">major</kind></harmony><note default-x="146"><pitch><step>E</step><octave>4</octave></pitch><duration>2</duration><voice>1</voice><type>quarter</type><stem default-y="-8">up</stem><lyric default-y="-91" name="verse" number="1"><syllabic>begin</syllabic><text font-size="10.8">dei</text></lyric></note><harmony default-y="36" font-size="10" font-weight="bold"><root><root-step>G</root-step></root><kind halign="center" text="">major</kind><bass><bass-step>B</bass-step></bass></harmony><note default-x="204"><pitch><step>D</step><octave>4</octave></pitch><duration>2</duration><voice>1</voice><type>quarter</type><stem default-y="-13">up</stem><lyric default-y="-91" name="verse" number="1"><syllabic>end</syllabic><text font-size="10.8">ner</text></lyric></note></measure><!--=======================================================--><measure number="5" width="345"><print new-system="yes"><system-layout><system-distance>180</system-distance></system-layout></print><harmony default-y="36" font-size="10" font-weight="bold"><root><root-step>F</root-step></root><kind halign="center" text="">major</kind><bass><bass-step>A</bass-step></bass></harmony><note default-x="61"><pitch><step>C</step><octave>4</octave></pitch><duration>4</duration><voice>1</voice><type>half</type><stem default-y="-18">up</stem><lyric default-y="-91" name="verse" number="1"><syllabic>single</syllabic><text font-size="10.8">Hand,</text></lyric></note><harmony default-y="36" font-size="10" font-weight="bold"><root><root-step>F</root-step></root><kind halign="center" text="">major</kind></harmony><note default-x="134"><pitch><step>F</step><octave>4</octave></pitch><duration>2</duration><tie type="start" /><voice>1</voice><type>quarter</type><stem default-y="-2.5">up</stem><notations><tied type="start" /></notations><lyric default-y="-91" name="verse" number="1"><syllabic>single</syllabic><text font-size="10.8">denn</text><extend type="start" /></lyric></note><harmony default-y="36" font-size="10" font-weight="bold"><root><root-step>A</root-step></root><kind halign="center" text="m">minor</kind><bass><bass-step>E</bass-step></bass></harmony><note default-x="204"><pitch><step>F</step><octave>4</octave></pitch><duration>1</duration><tie type="stop" /><voice>1</voice><type>eighth</type><stem default-y="-4">up</stem><beam number="1">begin</beam><notations><tied type="stop" /></notations><lyric name="verse" number="1"><extend type="stop" /></lyric></note><note default-x="268"><pitch><step>C</step><octave>4</octave></pitch><duration>1</duration><voice>1</voice><type>eighth</type><stem default-y="-8.5">up</stem><beam number="1">end</beam><lyric default-y="-91" name="verse" number="1"><syllabic>single</syllabic><text font-size="10.8">du</text></lyric></note></measure><!--=======================================================--><measure number="6" width="414"><harmony default-y="36" font-size="10" font-weight="bold"><root><root-step>D</root-step></root><kind halign="center" text="m2">minor</kind><degree print-object="no"><degree-value>2</degree-value><degree-alter>0</degree-alter><degree-type>add</degree-type></degree></harmony><note default-x="30"><pitch><step>E</step><octave>4</octave></pitch><duration>3</duration><voice>1</voice><type>quarter</type><dot /><stem default-y="-8">up</stem><lyric default-y="-91" name="verse" number="1"><syllabic>single</syllabic><text font-size="10.8">schützt</text></lyric></note><note default-x="113"><pitch><step>D</step><octave>4</octave></pitch><duration>1</duration><voice>1</voice><type>eighth</type><stem default-y="-13">up</stem><lyric default-y="-91" name="verse" number="1"><syllabic>single</syllabic><text font-size="10.8">mich,</text></lyric></note><harmony default-y="36" font-size="10" font-weight="bold"><root><root-step>D</root-step></root><kind halign="center" text="m">minor</kind></harmony><note default-x="193"><pitch><step>D</step><octave>4</octave></pitch><duration>2</duration><voice>1</voice><type>quarter</type><stem default-y="-13">up</stem><lyric default-y="-91" name="verse" number="1"><syllabic>single</syllabic><text font-size="10.8">Herr.</text></lyric></note><note default-x="264"><rest /><duration>1</duration><voice>1</voice><type>eighth</type></note><note default-x="337"><pitch><step>C</step><octave>4</octave></pitch><duration>1</duration><voice>1</voice><type>eighth</type><stem default-y="-18">up</stem><lyric default-y="-91" name="verse" number="1"><syllabic>single</syllabic><text font-size="10.8">Wann</text></lyric></note></measure><!--=======================================================--><measure number="7" width="412"><harmony default-y="36" font-size="10" font-weight="bold"><root><root-step>E</root-step></root><kind halign="center" text="sus">suspended-fourth</kind></harmony><note default-x="29"><pitch><step>B</step><octave>3</octave></pitch><duration>1</duration><voice>1</voice><type>eighth</type><stem default-y="-20">up</stem><beam number="1">begin</beam><lyric default-y="-91" name="verse" number="1"><syllabic>begin</syllabic><text font-size="10.8">im</text></lyric></note><note default-x="89"><pitch><step>B</step><octave>3</octave></pitch><duration>1</duration><voice>1</voice><type>eighth</type><stem default-y="-20">up</stem><beam number="1">end</beam><lyric default-y="-91" name="verse" number="1"><syllabic>end</syllabic><text font-size="10.8">mer</text></lyric></note><note default-x="152"><pitch><step>B</step><octave>3</octave></pitch><duration>2</duration><voice>1</voice><type>quarter</type><stem default-y="-19">up</stem><lyric default-y="-91" name="verse" number="1"><syllabic>single</syllabic><text font-size="10.8">mich</text></lyric></note><note default-x="243"><pitch><step>C</step><octave>4</octave></pitch><duration>2</duration><voice>1</voice><type>quarter</type><stem default-y="-18">up</stem><lyric default-y="-91" name="verse" number="1"><syllabic>single</syllabic><text font-size="10.8">Angst</text></lyric></note><note default-x="330"><pitch><step>D</step><octave>4</octave></pitch><duration>2</duration><voice>1</voice><type>quarter</type><stem default-y="-13">up</stem><lyric default-y="-91" name="verse" number="1"><syllabic>begin</syllabic><text font-size="10.8">be</text></lyric></note></measure><!--=======================================================--><measure number="8" width="489"><print new-system="yes"><system-layout><system-distance>180</system-distance></system-layout></print><harmony default-y="36" font-size="10" font-weight="bold"><root><root-step>E</root-step></root><kind halign="center" text="">major</kind></harmony><note default-x="53"><pitch><step>E</step><octave>4</octave></pitch><duration>2</duration><voice>1</voice><type>quarter</type><stem default-y="-8">up</stem><lyric default-y="-91" name="verse" number="1"><syllabic>end</syllabic><text font-size="10.8">fällt,</text></lyric></note><note default-x="138"><pitch><step>E</step><octave>4</octave></pitch><duration>1</duration><voice>1</voice><type>eighth</type><stem default-y="-9">up</stem><beam number="1">begin</beam><lyric default-y="-91" name="verse" number="1"><syllabic>begin</syllabic><text font-size="10.8">trau</text></lyric></note><note default-x="224"><pitch><step>E</step><octave>4</octave></pitch><duration>1</duration><voice>1</voice><type>eighth</type><stem default-y="-9">up</stem><beam number="1">end</beam><lyric default-y="-91" name="verse" number="1"><syllabic>end</syllabic><text font-size="10.8">e</text></lyric></note><harmony default-y="36" font-size="10" font-weight="bold"><root><root-step>E</root-step></root><kind halign="center" text="2sus">suspended-fourth</kind><degree print-object="no"><degree-value>2</degree-value><degree-alter>0</degree-alter><degree-type>add</degree-type></degree></harmony><note default-x="310"><pitch><step>F</step><alter>1</alter><octave>4</octave></pitch><duration>2</duration><voice>1</voice><type>quarter</type><accidental>sharp</accidental><stem default-y="-3">up</stem><lyric default-y="-91" name="verse" number="1"><syllabic>single</syllabic><text font-size="10.8">ich</text></lyric></note><harmony default-y="36" font-size="10" font-weight="bold"><root><root-step>E</root-step></root><kind halign="center" text="">major</kind></harmony><note default-x="396"><pitch><step>G</step><alter>1</alter><octave>4</octave></pitch><duration>2</duration><voice>1</voice><type>quarter</type><accidental>sharp</accidental><stem default-y="2">up</stem><lyric default-y="-91" name="verse" number="1"><syllabic>single</syllabic><text font-size="10.8">auf</text></lyric></note><direction placement="above"><direction-type><words default-y="67" font-style="italic" justify="right">Schluss zur Coda </words></direction-type><direction-type><coda /></direction-type><sound tocoda="17" /></direction><barline location="right"><bar-style>light-light</bar-style></barline></measure><!--=======================================================--><measure number="9" width="119"><harmony default-y="36" font-size="10" font-weight="bold"><root><root-step>A</root-step></root><kind halign="center" text="m">minor</kind></harmony><direction placement="above"><direction-type><rehearsal default-y="69" font-weight="bold" relative-x="-14">BRIDGE</rehearsal></direction-type></direction><note default-x="28"><pitch><step>A</step><octave>4</octave></pitch><duration>8</duration><voice>1</voice><type>whole</type><lyric default-y="-91" name="verse" number="1"><syllabic>single</syllabic><text font-size="10.8">dich.</text></lyric></note></measure><!--=======================================================--><measure number="10" width="443"><harmony default-y="36" font-size="10" font-weight="bold"><root><root-step>D</root-step></root><kind halign="center" text="m7">minor-seventh</kind></harmony><note default-x="27"><rest /><duration>2</duration><voice>1</voice><type>quarter</type></note><note default-x="110"><pitch><step>A</step><octave>4</octave></pitch><duration>1</duration><voice>1</voice><type>eighth</type><stem default-y="6.5">up</stem><beam number="1">begin</beam><lyric default-y="-91" name="verse" number="1"><syllabic>single</syllabic><text font-size="10.8">Ja,</text></lyric></note><note default-x="193"><pitch><step>G</step><octave>4</octave></pitch><duration>1</duration><voice>1</voice><type>eighth</type><stem default-y="1.5">up</stem><beam number="1">end</beam><lyric default-y="-91" name="verse" number="1"><syllabic>single</syllabic><text font-size="10.8">ich</text></lyric></note><note default-x="276"><pitch><step>F</step><octave>4</octave></pitch><duration>2</duration><voice>1</voice><type>quarter</type><stem default-y="-3">up</stem><lyric default-y="-91" name="verse" number="1"><syllabic>single</syllabic><text font-size="10.8">trau</text></lyric></note><note default-x="359"><pitch><step>A</step><octave>4</octave></pitch><duration>2</duration><voice>1</voice><type>quarter</type><stem default-y="7">up</stem><lyric default-y="-91" name="verse" number="1"><syllabic>single</syllabic><text font-size="10.8">auf</text></lyric></note></measure><!--=======================================================--><measure number="11" width="119"><harmony default-y="36" font-size="10" font-weight="bold"><root><root-step>G</root-step></root><kind halign="center" text="">major</kind></harmony><note default-x="18"><pitch><step>G</step><octave>4</octave></pitch><duration>8</duration><voice>1</voice><type>whole</type><lyric default-y="-91" name="verse" number="1"><syllabic>single</syllabic><text font-size="10.8">dich,</text></lyric></note></measure><!--=======================================================--><measure number="12" width="377"><print new-system="yes"><system-layout><system-distance>180</system-distance></system-layout></print><harmony default-y="36" font-size="10" font-weight="bold"><root><root-step>C</root-step></root><kind halign="center" text="">major</kind></harmony><note default-x="59"><rest /><duration>2</duration><voice>1</voice><type>quarter</type></note><note default-x="115"><pitch><step>G</step><octave>4</octave></pitch><duration>1</duration><voice>1</voice><type>eighth</type><stem default-y="1.5">up</stem><beam number="1">begin</beam><lyric default-y="-91" name="verse" number="1"><syllabic>single</syllabic><text font-size="10.8">und</text></lyric></note><note default-x="180"><pitch><step>F</step><octave>4</octave></pitch><duration>1</duration><voice>1</voice><type>eighth</type><stem default-y="-3.5">up</stem><beam number="1">end</beam><lyric default-y="-91" name="verse" number="1"><syllabic>single</syllabic><text font-size="10.8">ich</text></lyric></note><note default-x="245"><pitch><step>E</step><octave>4</octave></pitch><duration>2</duration><voice>1</voice><type>quarter</type><stem default-y="-8">up</stem><lyric default-y="-91" name="verse" number="1"><syllabic>begin</syllabic><text font-size="10.8">sa</text></lyric></note><harmony default-y="36" font-size="10" font-weight="bold"><root><root-step>C</root-step></root><kind halign="center" text="">major</kind><bass><bass-step>E</bass-step></bass></harmony><note default-x="311"><pitch><step>G</step><octave>4</octave></pitch><duration>2</duration><voice>1</voice><type>quarter</type><stem default-y="2">up</stem><lyric default-y="-91" name="verse" number="1"><syllabic>end</syllabic><text font-size="10.8">ge:</text></lyric></note></measure><!--=======================================================--><measure number="13" width="162"><harmony default-y="36" font-size="10" font-weight="bold"><root><root-step>F</root-step></root><kind halign="center" text="">major</kind></harmony><note default-x="26"><pitch><step>F</step><octave>4</octave></pitch><duration>6</duration><voice>1</voice><type>half</type><dot /><stem default-y="-3">up</stem><lyric default-y="-91" name="verse" number="1"><syllabic>single</syllabic><text font-size="10.8">"Ich</text></lyric></note><harmony default-y="36" font-size="10" font-weight="bold"><root><root-step>A</root-step></root><kind halign="center" text="m">minor</kind><bass><bass-step>E</bass-step></bass></harmony><note default-x="86"><pitch><step>E</step><octave>4</octave></pitch><duration>2</duration><voice>1</voice><type>quarter</type><stem default-y="-8">up</stem><lyric default-y="-91" name="verse" number="1"><syllabic>single</syllabic><text font-size="10.8">bin</text></lyric></note></measure><!--=======================================================--><measure number="14" width="229"><harmony default-y="36" font-size="10" font-weight="bold"><root><root-step>D</root-step></root><kind halign="center" text="m">minor</kind></harmony><note default-x="21"><pitch><step>D</step><octave>4</octave></pitch><duration>4</duration><voice>1</voice><type>half</type><stem default-y="-12.5">up</stem><lyric default-y="-91" name="verse" number="1"><syllabic>single</syllabic><text font-size="10.8">stark</text></lyric></note><note default-x="90"><pitch><step>E</step><octave>4</octave></pitch><duration>2</duration><voice>1</voice><type>quarter</type><stem default-y="-8">up</stem><lyric default-y="-91" name="verse" number="1"><syllabic>single</syllabic><text font-size="10.8">in</text></lyric></note><note default-x="158"><pitch><step>F</step><octave>4</octave></pitch><duration>2</duration><voice>1</voice><type>quarter</type><stem default-y="-3">up</stem><lyric default-y="-91" name="verse" number="1"><syllabic>single</syllabic><text font-size="10.8">der</text></lyric></note></measure><!--=======================================================--><measure number="15" width="268"><harmony default-y="36" font-size="10" font-weight="bold"><root><root-step>E</root-step></root><kind halign="center" text="sus">suspended-fourth</kind></harmony><note default-x="29"><pitch><step>E</step><octave>4</octave></pitch><duration>4</duration><voice>1</voice><type>half</type><stem default-y="-8">up</stem><lyric default-y="-91" name="verse" number="1"><syllabic>single</syllabic><text font-size="10.8">Kraft</text></lyric></note><note default-x="108"><pitch><step>E</step><octave>4</octave></pitch><duration>2</duration><voice>1</voice><type>quarter</type><stem default-y="-8">up</stem><lyric default-y="-91" name="verse" number="1"><syllabic>begin</syllabic><text font-size="10.8">mei</text></lyric></note><note default-x="187"><pitch><step>F</step><octave>4</octave></pitch><duration>2</duration><voice>1</voice><type>quarter</type><stem default-y="-3">up</stem><lyric default-y="-91" name="verse" number="1"><syllabic>end</syllabic><text font-size="10.8">nes</text></lyric></note></measure><!--=======================================================--><measure number="16" width="135"><harmony default-y="36" font-size="10" font-weight="bold"><root><root-step>E</root-step></root><kind halign="center" text="">major</kind></harmony><note default-x="29"><pitch><step>E</step><octave>4</octave></pitch><duration>8</duration><voice>1</voice><type>whole</type><lyric default-y="-91" name="verse" number="1"><syllabic>single</syllabic><text font-size="10.8">Herrn."</text></lyric></note><direction placement="above"><direction-type><words default-x="129" default-y="11" font-style="italic" justify="right">D.C. al Coda</words></direction-type><sound dacapo="yes" /></direction><barline location="right"><bar-style>light-light</bar-style></barline></measure><!--=======================================================--><measure number="17" width="257"><print new-system="yes"><system-layout><system-margins><left-margin>70</left-margin><right-margin>844</right-margin></system-margins><system-distance>180</system-distance></system-layout></print><harmony default-y="36" font-size="10" font-weight="bold"><root><root-step>A</root-step></root><kind halign="center" text="m">minor</kind></harmony><direction placement="above"><direction-type><coda default-x="41" default-y="71" /></direction-type><sound coda="17" divisions="2" /></direction><direction placement="above"><direction-type><words default-x="65" default-y="68" font-style="italic">Coda</words></direction-type></direction><note default-x="67"><pitch><step>A</step><octave>4</octave></pitch><duration>8</duration><voice>1</voice><type>whole</type><lyric default-y="-91" name="verse" number="1"><syllabic>single</syllabic><text font-size="10.8">dich.</text></lyric></note><barline location="right"><bar-style>light-heavy</bar-style></barline></measure></part><!--=========================================================--></score-partwise>