<?xml version="1.0" encoding="UTF-8" standalone="no"?><!DOCTYPE score-partwise PUBLIC "-//Recordare//DTD MusicXML 3.0 Partwise//EN" "http://www.musicxml.org/dtds/partwise.dtd"[]><score-partwise version="3.0"><movement-title>Er ist der Erlöser</movement-title><identification><creator type="composer">Melody Green-Sievright</creator><creator type="arranger">Hartmut Sünderwald</creator><encoding><software>Finale 2014 for Windows</software><software>Dolet Light for Finale 2014</software><encoding-date>2016-12-05</encoding-date><supports attribute="new-system" element="print" type="yes" value="yes" /><supports attribute="new-page" element="print" type="yes" value="yes" /><supports element="accidental" type="yes" /><supports element="beam" type="yes" /><supports element="stem" type="yes" /></encoding><rights>CCLI-Liednummer 5416749
© 1982 Universal Music - Brentwood Benson Publishing | Birdwing Music | Ears To Hear
Nutzung ausschließlich im Rahmen der SongSelect®-Nutzungsbedingungen. Alle Rechte vorbehalten. www.ccli.com
CCLI-Lizenznummer 2182334
</rights></identification><defaults><scaling><millimeters>6.5088</millimeters><tenths>40</tenths></scaling><page-layout><page-height>1717</page-height><page-width>1327</page-width><page-margins type="both"><left-margin>78</left-margin><right-margin>78</right-margin><top-margin>78</top-margin><bottom-margin>78</bottom-margin></page-margins></page-layout><system-layout><system-margins><left-margin>0</left-margin><right-margin>0</right-margin></system-margins><system-distance>190</system-distance><top-system-distance>117</top-system-distance></system-layout><appearance><line-width type="stem">1.4583</line-width><line-width type="beam">5</line-width><line-width type="staff">1.25</line-width><line-width type="light barline">1.4583</line-width><line-width type="heavy barline">5</line-width><line-width type="leger">1.875</line-width><line-width type="ending">1.4583</line-width><line-width type="wedge">1.4583</line-width><line-width type="enclosure">1.4583</line-width><line-width type="tuplet bracket">1.4583</line-width><note-size type="grace">50</note-size><note-size type="cue">50</note-size><distance type="hyphen">240</distance><distance type="beam">8</distance></appearance><music-font font-family="Maestro,engraved" font-size="18.5" /><word-font font-family="Arial" font-size="9.2" /><lyric-font font-family="Arial" font-size="10.8" name="verse" /><lyric-font font-family="Arial" font-size="10.8" name="section" /></defaults><credit page="1"><credit-type>title</credit-type><credit-words default-x="663" default-y="1649" font-size="21.6" font-weight="bold" justify="center" valign="top" xml:lang="de">Er ist der Erlöser</credit-words></credit><credit page="1"><credit-words default-x="1249" default-y="1576" font-size="10.8" font-style="italic" justify="right" valign="top">Text und Musik:</credit-words></credit><credit page="1"><credit-type>composer</credit-type><credit-words default-x="1249" default-y="1552" font-size="10.8" font-weight="bold" justify="right" valign="top">Melody Green-Sievright</credit-words></credit><credit page="1"><credit-words default-x="78" default-y="1576" font-size="10.8" font-style="italic" valign="top">Deutsch:</credit-words></credit><credit page="1"><credit-type>arranger</credit-type><credit-words default-x="78" default-y="1552" font-size="10.8" font-weight="bold" valign="top" xml:lang="de">Hartmut Sünderwald</credit-words></credit><part-list><score-part id="P1"><part-name print-object="no">Vocals</part-name><score-instrument id="P1-I2"><instrument-name>Melody</instrument-name></score-instrument><midi-instrument id="P1-I2"><midi-channel>1</midi-channel><midi-program>1</midi-program><volume>80</volume><pan>0</pan></midi-instrument></score-part></part-list><!--=========================================================--><part id="P1"><measure number="1" width="418"><print><page-layout><page-height>1717</page-height><page-width>1327</page-width><page-margins><left-margin>78</left-margin><right-margin>78</right-margin><top-margin>190</top-margin><bottom-margin>163</bottom-margin></page-margins></page-layout><system-layout><system-margins><left-margin>68</left-margin><right-margin>0</right-margin></system-margins></system-layout><measure-numbering>system</measure-numbering></print><attributes><divisions>8</divisions><key><fifths>2</fifths><mode>major</mode></key><time><beats>4</beats><beat-type>4</beat-type></time><clef><sign>G</sign><line>2</line></clef></attributes><harmony default-y="36" font-size="10" font-weight="bold"><root><root-step>D</root-step></root><kind halign="center" text="">major</kind></harmony><direction placement="above"><direction-type><metronome default-y="59" halign="left" relative-x="-66"><beat-unit>quarter</beat-unit><per-minute>92</per-minute></metronome></direction-type><sound tempo="92" /></direction><direction placement="above"><direction-type><rehearsal default-y="69" font-weight="bold" relative-x="-5">VERS</rehearsal></direction-type></direction><note default-x="139"><pitch><step>F</step><alter>1</alter><octave>4</octave></pitch><duration>8</duration><voice>1</voice><type>quarter</type><stem default-y="-3">up</stem><lyric default-y="-91" name="verse" number="1"><syllabic>single</syllabic><text font-size="10.8">1.</text><elision> </elision><syllabic>single</syllabic><text font-size="10.8">Er</text><elision> </elision><syllabic>single</syllabic><text font-size="10.8" /><elision> </elision><syllabic>single</syllabic><text font-size="10.8" /><elision> </elision><syllabic>single</syllabic><text font-size="10.8" /></lyric><lyric default-y="-115" name="verse" number="2"><syllabic>single</syllabic><text font-size="10.8">2.</text><elision> </elision><syllabic>single</syllabic><text font-size="10.8">Je</text><elision> </elision><syllabic>single</syllabic><text font-size="10.8" /><elision> </elision><syllabic>single</syllabic><text font-size="10.8" /><elision> </elision><syllabic>begin</syllabic><text font-size="10.8" /></lyric><lyric default-y="-140" name="verse" number="3"><syllabic>single</syllabic><text font-size="10.8">3.</text><elision> </elision><syllabic>single</syllabic><text font-size="10.8">Einst</text></lyric></note><note default-x="223"><pitch><step>F</step><alter>1</alter><octave>4</octave></pitch><duration>8</duration><voice>1</voice><type>quarter</type><stem default-y="-3">up</stem><lyric default-y="-91" name="verse" number="1"><syllabic>single</syllabic><text font-size="10.8">ist</text></lyric><lyric default-y="-115" name="verse" number="2"><syllabic>end</syllabic><text font-size="10.8">sus,</text></lyric><lyric default-y="-140" name="verse" number="3"><syllabic>single</syllabic><text font-size="10.8">werd</text></lyric></note><harmony default-y="36" font-size="10" font-weight="bold"><root><root-step>D</root-step></root><kind halign="center" text="2sus">suspended-fourth</kind><degree print-object="no"><degree-value>2</degree-value><degree-alter>0</degree-alter><degree-type>add</degree-type></degree></harmony><note default-x="293"><pitch><step>E</step><octave>4</octave></pitch><duration>8</duration><voice>1</voice><type>quarter</type><stem default-y="-8">up</stem><lyric default-y="-91" name="verse" number="1"><syllabic>single</syllabic><text font-size="10.8">der</text></lyric><lyric default-y="-115" name="verse" number="2"><syllabic>single</syllabic><text font-size="10.8">mein</text></lyric><lyric default-y="-140" name="verse" number="3"><syllabic>single</syllabic><text font-size="10.8">ich</text></lyric></note><harmony default-y="36" font-size="10" font-weight="bold"><root><root-step>D</root-step></root><kind halign="center" text="">major</kind></harmony><note default-x="359"><pitch><step>F</step><alter>1</alter><octave>4</octave></pitch><duration>8</duration><voice>1</voice><type>quarter</type><stem default-y="-3">up</stem><lyric default-y="-91" name="verse" number="1"><syllabic>begin</syllabic><text font-size="10.8">Er</text></lyric><lyric default-y="-115" name="verse" number="2"><syllabic>begin</syllabic><text font-size="10.8">Er</text></lyric><lyric default-y="-140" name="verse" number="3"><syllabic>single</syllabic><text font-size="10.8">ihn</text></lyric></note></measure><!--=======================================================--><measure number="2" width="167"><harmony default-y="36" font-size="10" font-weight="bold"><root><root-step>G</root-step></root><kind halign="center" text="">major</kind><bass><bass-step>D</bass-step></bass></harmony><note default-x="16"><pitch><step>G</step><octave>4</octave></pitch><duration>16</duration><voice>1</voice><type>half</type><stem default-y="2">up</stem><lyric default-y="-91" name="verse" number="1"><syllabic>middle</syllabic><text font-size="10.8">lö</text></lyric><lyric default-y="-115" name="verse" number="2"><syllabic>middle</syllabic><text font-size="10.8">lö</text></lyric><lyric default-y="-140" name="verse" number="3"><syllabic>begin</syllabic><text font-size="10.8">se</text></lyric></note><harmony default-y="36" font-size="10" font-weight="bold"><root><root-step>D</root-step></root><kind halign="center" text="">major</kind></harmony><note default-x="91"><pitch><step>F</step><alter>1</alter><octave>4</octave></pitch><duration>16</duration><voice>1</voice><type>half</type><stem default-y="-3">up</stem><lyric default-y="-91" name="verse" number="1"><syllabic>end</syllabic><text font-size="10.8">ser,</text></lyric><lyric default-y="-115" name="verse" number="2"><syllabic>end</syllabic><text font-size="10.8">ser,</text></lyric><lyric default-y="-140" name="verse" number="3"><syllabic>end</syllabic><text font-size="10.8">hen,</text></lyric></note></measure><!--=======================================================--><measure number="3" width="285"><harmony default-y="36" font-size="10" font-weight="bold"><root><root-step>A</root-step></root><kind halign="center" text="">major</kind></harmony><note default-x="24"><pitch><step>E</step><octave>4</octave></pitch><duration>8</duration><voice>1</voice><type>quarter</type><stem default-y="-8">up</stem><lyric default-y="-91" name="verse" number="1"><syllabic>begin</syllabic><text font-size="10.8">Je</text></lyric><lyric default-y="-115" name="verse" number="2"><syllabic>begin</syllabic><text font-size="10.8">höchs</text></lyric><lyric default-y="-140" name="verse" number="3"><syllabic>single</syllabic><text font-size="10.8">in</text></lyric></note><harmony default-y="36" font-size="10" font-weight="bold"><root><root-step>D</root-step></root><kind halign="center" text="">major</kind></harmony><note default-x="94"><pitch><step>F</step><alter>1</alter><octave>4</octave></pitch><duration>8</duration><voice>1</voice><type>quarter</type><stem default-y="-3">up</stem><lyric default-y="-91" name="verse" number="1"><syllabic>end</syllabic><text font-size="10.8">sus,</text></lyric><lyric default-y="-115" name="verse" number="2"><syllabic>end</syllabic><text font-size="10.8">ter</text></lyric><lyric default-y="-140" name="verse" number="3"><syllabic>single</syllabic><text font-size="10.8">der</text></lyric></note><harmony default-y="36" font-size="10" font-weight="bold"><root><root-step>G</root-step></root><kind halign="center" text="">major</kind></harmony><note default-x="160"><pitch><step>D</step><octave>4</octave></pitch><duration>8</duration><voice>1</voice><type>quarter</type><stem default-y="-13">up</stem><lyric default-y="-91" name="verse" number="1"><syllabic>begin</syllabic><text font-size="10.8">Got</text></lyric><lyric default-y="-115" name="verse" number="2"><syllabic>begin</syllabic><text font-size="10.8">al</text></lyric><lyric default-y="-140" name="verse" number="3"><syllabic>begin</syllabic><text font-size="10.8">Herr</text></lyric></note><harmony default-y="36" font-size="10" font-weight="bold"><root><root-step>A</root-step></root><kind halign="center" text="">major</kind></harmony><note default-x="226"><pitch><step>E</step><octave>4</octave></pitch><duration>8</duration><voice>1</voice><type>quarter</type><stem default-y="-8">up</stem><lyric default-y="-91" name="verse" number="1"><syllabic>end</syllabic><text font-size="10.8">tes</text></lyric><lyric default-y="-115" name="verse" number="2"><syllabic>end</syllabic><text font-size="10.8">ler</text></lyric><lyric default-y="-140" name="verse" number="3"><syllabic>middle</syllabic><text font-size="10.8">lich</text></lyric></note></measure><!--=======================================================--><measure number="4" width="233"><harmony default-y="36" font-size="10" font-weight="bold"><root><root-step>D</root-step></root><kind halign="center" text="">major</kind></harmony><note default-x="23"><pitch><step>F</step><alter>1</alter><octave>4</octave></pitch><duration>12</duration><voice>1</voice><type>quarter</type><dot /><stem default-y="-3">up</stem><notations><slur bezier-x="33" bezier-y="-17" default-x="7" default-y="-45" number="1" placement="below" type="start" /></notations><lyric default-y="-91" name="verse" number="1"><syllabic>single</syllabic><text font-size="10.8">Sohn;</text><extend type="start" /></lyric><lyric default-y="-115" name="verse" number="2"><syllabic>begin</syllabic><text font-size="10.8">Na</text></lyric><lyric default-y="-140" name="verse" number="3"><syllabic>end</syllabic><text font-size="10.8">keit.</text><extend type="start" /></lyric></note><note default-x="87"><pitch><step>G</step><octave>4</octave></pitch><duration>2</duration><voice>1</voice><type>16th</type><stem default-y="1">up</stem><beam number="1">begin</beam><beam number="2">begin</beam></note><note default-x="112"><pitch><step>F</step><alter>1</alter><octave>4</octave></pitch><duration>2</duration><voice>1</voice><type>16th</type><stem default-y="-4">up</stem><beam number="1">end</beam><beam number="2">end</beam></note><harmony default-y="36" font-size="10" font-weight="bold"><root><root-step>A</root-step></root><kind halign="center" text="">major</kind></harmony><note default-x="153"><pitch><step>E</step><octave>4</octave></pitch><duration>16</duration><voice>1</voice><type>half</type><stem default-y="-8">up</stem><notations><slur bezier-x="-34" bezier-y="-15" default-x="7" default-y="-50" number="1" type="stop" /></notations><lyric default-y="-115" name="verse" number="2"><syllabic>end</syllabic><text font-size="10.8">men.</text></lyric><lyric name="verse" number="1"><extend type="stop" /></lyric><lyric name="verse" number="3"><extend type="stop" /></lyric></note></measure><!--=======================================================--><measure number="5" width="361"><print new-system="yes"><system-layout><system-distance>221</system-distance></system-layout></print><harmony default-y="36" font-size="10" font-weight="bold"><root><root-step>D</root-step></root><kind halign="center" text="">major</kind></harmony><note default-x="87"><pitch><step>F</step><alter>1</alter><octave>4</octave></pitch><duration>8</duration><voice>1</voice><type>quarter</type><stem default-y="-3">up</stem><lyric default-y="-91" name="verse" number="1"><syllabic>begin</syllabic><text font-size="10.8">Got</text></lyric><lyric default-y="-115" name="verse" number="2"><syllabic>begin</syllabic><text font-size="10.8">Got</text></lyric><lyric default-y="-140" name="verse" number="3"><syllabic>begin</syllabic><text font-size="10.8">Mei</text></lyric></note><note default-x="154"><pitch><step>F</step><alter>1</alter><octave>4</octave></pitch><duration>8</duration><voice>1</voice><type>quarter</type><stem default-y="-3">up</stem><lyric default-y="-91" name="verse" number="1"><syllabic>end</syllabic><text font-size="10.8">tes</text></lyric><lyric default-y="-115" name="verse" number="2"><syllabic>end</syllabic><text font-size="10.8">tes</text></lyric><lyric default-y="-140" name="verse" number="3"><syllabic>end</syllabic><text font-size="10.8">nem</text></lyric></note><harmony default-y="36" font-size="10" font-weight="bold"><root><root-step>D</root-step></root><kind halign="center" text="2sus">suspended-fourth</kind><degree print-object="no"><degree-value>2</degree-value><degree-alter>0</degree-alter><degree-type>add</degree-type></degree></harmony><note default-x="225"><pitch><step>E</step><octave>4</octave></pitch><duration>8</duration><voice>1</voice><type>quarter</type><stem default-y="-8">up</stem><lyric default-y="-91" name="verse" number="1"><syllabic>single</syllabic><text font-size="10.8">Lamm,</text></lyric><lyric default-y="-115" name="verse" number="2"><syllabic>single</syllabic><text font-size="10.8">Lamm,</text></lyric><lyric default-y="-140" name="verse" number="3"><syllabic>begin</syllabic><text font-size="10.8">Kö</text></lyric></note><harmony default-y="36" font-size="10" font-weight="bold"><root><root-step>D</root-step></root><kind halign="center" text="">major</kind></harmony><note default-x="295"><pitch><step>F</step><alter>1</alter><octave>4</octave></pitch><duration>8</duration><voice>1</voice><type>quarter</type><stem default-y="-3">up</stem><lyric default-y="-91" name="verse" number="1"><syllabic>begin</syllabic><text font-size="10.8">er</text></lyric><lyric default-y="-115" name="verse" number="2"><syllabic>begin</syllabic><text font-size="10.8">er</text></lyric><lyric default-y="-140" name="verse" number="3"><syllabic>end</syllabic><text font-size="10.8">nig,</text></lyric></note></measure><!--=======================================================--><measure number="6" width="284"><harmony default-y="36" font-size="10" font-weight="bold"><root><root-step>G</root-step></root><kind halign="center" text="">major</kind><bass><bass-step>D</bass-step></bass></harmony><note default-x="21"><pitch><step>G</step><octave>4</octave></pitch><duration>12</duration><voice>1</voice><type>quarter</type><dot /><stem default-y="2">up</stem><lyric default-y="-91" name="verse" number="1"><syllabic>end</syllabic><text font-size="10.8">wählt</text></lyric><lyric default-y="-115" name="verse" number="2"><syllabic>end</syllabic><text font-size="10.8">wählt</text></lyric><lyric default-y="-140" name="verse" number="3"><syllabic>single</syllabic><text font-size="10.8">werd</text></lyric></note><harmony default-y="36" font-size="10" font-weight="bold"><root><root-step>D</root-step></root><kind halign="center" text="">major</kind></harmony><note default-x="96"><pitch><step>F</step><alter>1</alter><octave>4</octave></pitch><duration>4</duration><voice>1</voice><type>eighth</type><stem default-y="-3">up</stem><lyric default-y="-91" name="verse" number="1"><syllabic>single</syllabic><text font-size="10.8">zu</text></lyric><lyric default-y="-115" name="verse" number="2"><syllabic>single</syllabic><text font-size="10.8">zu</text></lyric><lyric default-y="-140" name="verse" number="3"><syllabic>single</syllabic><text font-size="10.8">ich</text></lyric></note><harmony default-y="36" font-size="10" font-weight="bold"><root><root-step>D</root-step></root><kind halign="center" text="2sus">suspended-fourth</kind><degree print-object="no"><degree-value>2</degree-value><degree-alter>0</degree-alter><degree-type>add</degree-type></degree></harmony><note default-x="153"><pitch><step>E</step><octave>4</octave></pitch><duration>4</duration><voice>1</voice><type>eighth</type><stem default-y="-8">up</stem><lyric default-y="-91" name="verse" number="1"><syllabic>begin</syllabic><text font-size="10.8">tra</text></lyric><lyric default-y="-115" name="verse" number="2"><syllabic>begin</syllabic><text font-size="10.8">tra</text></lyric><lyric default-y="-140" name="verse" number="3"><syllabic>begin</syllabic><text font-size="10.8">die</text></lyric></note><harmony default-y="36" font-size="10" font-weight="bold"><root><root-step>D</root-step></root><kind halign="center" text="">major</kind></harmony><note default-x="212"><pitch><step>F</step><alter>1</alter><octave>4</octave></pitch><duration>12</duration><voice>1</voice><type>quarter</type><dot /><stem default-y="-3">up</stem><lyric default-y="-91" name="verse" number="1"><syllabic>end</syllabic><text font-size="10.8">gen</text></lyric><lyric default-y="-115" name="verse" number="2"><syllabic>end</syllabic><text font-size="10.8">gen</text></lyric><lyric default-y="-140" name="verse" number="3"><syllabic>end</syllabic><text font-size="10.8">nen</text></lyric></note></measure><!--=======================================================--><measure number="7" width="375"><harmony default-y="36" font-size="10" font-weight="bold"><root><root-step>G</root-step></root><kind halign="center" text="">major</kind></harmony><note default-x="13"><pitch><step>G</step><octave>4</octave></pitch><duration>4</duration><voice>1</voice><type>eighth</type><stem default-y="1.5">up</stem><beam number="1">begin</beam><notations><slur number="1" placement="below" type="start" /></notations><lyric default-y="-91" name="verse" number="1"><syllabic>begin</syllabic><text font-size="10.8">un</text></lyric><lyric default-y="-115" name="verse" number="2"><syllabic>begin</syllabic><text font-size="10.8">un</text></lyric><lyric default-y="-140" name="verse" number="3"><syllabic>single</syllabic><text font-size="10.8">bis</text></lyric></note><note default-x="61"><pitch><step>F</step><alter>1</alter><octave>4</octave></pitch><duration>4</duration><voice>1</voice><type>eighth</type><stem default-y="-3.5">up</stem><beam number="1">end</beam><notations><slur number="1" type="stop" /></notations><lyric default-y="-140" name="verse" number="3"><syllabic>single</syllabic><text font-size="10.8">in</text></lyric></note><note default-x="105"><pitch><step>E</step><octave>4</octave></pitch><duration>4</duration><voice>1</voice><type>eighth</type><stem default-y="-8">up</stem><beam number="1">begin</beam><lyric default-y="-91" name="verse" number="1"><syllabic>middle</syllabic><text font-size="10.8">se</text></lyric><lyric default-y="-115" name="verse" number="2"><syllabic>middle</syllabic><text font-size="10.8">se</text></lyric><lyric default-y="-140" name="verse" number="3"><syllabic>begin</syllabic><text font-size="10.8">al</text></lyric></note><note default-x="154"><pitch><step>D</step><octave>4</octave></pitch><duration>4</duration><voice>1</voice><type>eighth</type><stem default-y="-14">up</stem><beam number="1">end</beam><lyric default-y="-91" name="verse" number="1"><syllabic>end</syllabic><text font-size="10.8">rer</text></lyric><lyric default-y="-115" name="verse" number="2"><syllabic>end</syllabic><text font-size="10.8">rer</text></lyric><lyric default-y="-140" name="verse" number="3"><syllabic>end</syllabic><text font-size="10.8">le</text></lyric></note><harmony default-y="36" font-size="10" font-weight="bold"><root><root-step>A</root-step></root><kind halign="center" text="sus">suspended-fourth</kind></harmony><note default-x="208"><pitch><step>E</step><octave>4</octave></pitch><duration>8</duration><tie type="start" /><voice>1</voice><type>quarter</type><stem default-y="-8">up</stem><notations><tied orientation="under" type="start" /></notations><lyric default-y="-91" name="verse" number="1"><syllabic>begin</syllabic><text font-size="10.8">Sün</text></lyric><lyric default-y="-115" name="verse" number="2"><syllabic>begin</syllabic><text font-size="10.8">Sün</text></lyric><lyric default-y="-140" name="verse" number="3"><syllabic>begin</syllabic><text font-size="10.8">E</text></lyric></note><harmony default-y="36" font-size="10" font-weight="bold"><root><root-step>A</root-step></root><kind halign="center" text="7">dominant</kind></harmony><note default-x="277"><pitch><step>E</step><octave>4</octave></pitch><duration>4</duration><tie type="stop" /><voice>1</voice><type>eighth</type><stem default-y="-8">up</stem><beam number="1">begin</beam><notations><tied type="stop" /></notations></note><note default-x="326"><pitch><step>D</step><octave>4</octave></pitch><duration>4</duration><voice>1</voice><type>eighth</type><stem default-y="-14">up</stem><beam number="1">end</beam><lyric default-y="-91" name="verse" number="1"><syllabic>end</syllabic><text font-size="10.8">de</text></lyric><lyric default-y="-115" name="verse" number="2"><syllabic>end</syllabic><text font-size="10.8">de</text></lyric><lyric default-y="-140" name="verse" number="3"><syllabic>middle</syllabic><text font-size="10.8">wig</text></lyric></note><backup><duration>32</duration></backup><note default-x="13"><pitch><step>G</step><octave>4</octave></pitch><duration>4</duration><voice>2</voice><type>eighth</type><stem default-y="1.5">up</stem><beam number="1">begin</beam></note><note default-x="61"><pitch><step>F</step><alter>1</alter><octave>4</octave></pitch><duration>4</duration><voice>2</voice><type>eighth</type><stem default-y="-3.5">up</stem><beam number="1">end</beam></note><note default-x="105"><pitch><step>E</step><octave>4</octave></pitch><duration>4</duration><voice>2</voice><type>eighth</type><stem default-y="-8">up</stem><beam number="1">begin</beam></note><note default-x="154"><pitch><step>D</step><octave>4</octave></pitch><duration>4</duration><voice>2</voice><type>eighth</type><stem default-y="-14">up</stem><beam number="1">end</beam></note><note default-x="208"><pitch><step>E</step><octave>4</octave></pitch><duration>8</duration><tie type="start" /><voice>2</voice><type>quarter</type><stem default-y="-8">up</stem><notations><tied orientation="under" type="start" /></notations></note><note default-x="277"><pitch><step>E</step><octave>4</octave></pitch><duration>4</duration><tie type="stop" /><voice>2</voice><type>eighth</type><stem default-y="-8">up</stem><beam number="1">begin</beam><notations><tied type="stop" /></notations></note><note default-x="326"><pitch><step>D</step><octave>4</octave></pitch><duration>4</duration><voice>2</voice><type>eighth</type><stem default-y="-14">up</stem><beam number="1">end</beam></note></measure><!--=======================================================--><measure number="8" width="152"><harmony default-y="36" font-size="10" font-weight="bold"><root><root-step>D</root-step></root><kind halign="center" text="">major</kind></harmony><note default-x="21"><pitch><step>D</step><octave>4</octave></pitch><duration>32</duration><voice>1</voice><type>whole</type><lyric default-y="-91" name="verse" number="1"><syllabic>single</syllabic><text font-size="10.8">Lohn.</text></lyric><lyric default-y="-115" name="verse" number="2"><syllabic>single</syllabic><text font-size="10.8">Lohn.</text></lyric><lyric default-y="-140" name="verse" number="3"><syllabic>end</syllabic><text font-size="10.8">keit.</text></lyric></note><barline location="right"><bar-style>light-light</bar-style></barline></measure><!--=======================================================--><measure number="9" width="345"><print new-system="yes"><system-layout><system-distance>221</system-distance></system-layout></print><harmony default-y="36" font-size="10" font-weight="bold"><root><root-step>D</root-step></root><kind halign="center" text="">major</kind></harmony><direction placement="above"><direction-type><rehearsal default-y="69" font-weight="bold" relative-x="-5">CHORUS</rehearsal></direction-type></direction><note default-x="88"><pitch><step>A</step><octave>4</octave></pitch><duration>8</duration><voice>1</voice><type>quarter</type><stem default-y="7">up</stem><lyric default-y="-91" name="verse" number="1"><syllabic>begin</syllabic><text font-size="10.8">Dan</text></lyric></note><note default-x="152"><pitch><step>A</step><octave>4</octave></pitch><duration>8</duration><voice>1</voice><type>quarter</type><stem default-y="7">up</stem><lyric default-y="-91" name="verse" number="1"><syllabic>end</syllabic><text font-size="10.8">ke,</text></lyric></note><harmony default-y="36" font-size="10" font-weight="bold"><root><root-step>D</root-step></root><kind halign="center" text="">major</kind><bass><bass-step>F</bass-step><bass-alter>1</bass-alter></bass></harmony><note default-x="216"><pitch><step>D</step><octave>5</octave></pitch><duration>8</duration><voice>1</voice><type>quarter</type><stem default-y="-42">down</stem><lyric default-y="-91" name="verse" number="1"><syllabic>begin</syllabic><text font-size="10.8">lie</text></lyric></note><note default-x="279"><pitch><step>C</step><alter>1</alter><octave>5</octave></pitch><duration>8</duration><voice>1</voice><type>quarter</type><stem default-y="-47">down</stem><lyric default-y="-91" name="verse" number="1"><syllabic>end</syllabic><text font-size="10.8">ber</text></lyric></note></measure><!--=======================================================--><measure number="10" width="219"><harmony default-y="36" font-size="10" font-weight="bold"><root><root-step>G</root-step></root><kind halign="center" text="">major</kind></harmony><note default-x="13"><pitch><step>B</step><octave>4</octave></pitch><duration>16</duration><voice>1</voice><type>half</type><stem default-y="-52">down</stem><lyric default-y="-91" name="verse" number="1"><syllabic>begin</syllabic><text font-size="10.8">Va</text></lyric></note><harmony default-y="36" font-size="10" font-weight="bold"><root><root-step>D</root-step></root><kind halign="center" text="">major</kind></harmony><note default-x="105"><pitch><step>A</step><octave>4</octave></pitch><duration>12</duration><voice>1</voice><type>quarter</type><dot /><stem default-y="7">up</stem><lyric default-y="-91" name="verse" number="1"><syllabic>end</syllabic><text font-size="10.8">ter,</text></lyric></note><note default-x="181"><pitch><step>F</step><alter>1</alter><octave>4</octave></pitch><duration>4</duration><voice>1</voice><type>eighth</type><stem default-y="-3">up</stem><lyric default-y="-91" name="verse" number="1"><syllabic>single</syllabic><text font-size="10.8">du</text></lyric></note></measure><!--=======================================================--><measure number="11" width="304"><harmony default-y="36" font-size="10" font-weight="bold"><root><root-step>G</root-step></root><kind halign="center" text="">major</kind></harmony><note default-x="21"><pitch><step>G</step><octave>4</octave></pitch><duration>4</duration><voice>1</voice><type>eighth</type><stem default-y="2">up</stem><lyric default-y="-91" name="verse" number="1"><syllabic>single</syllabic><text font-size="10.8">gabst</text></lyric></note><note default-x="87"><pitch><step>G</step><octave>4</octave></pitch><duration>12</duration><voice>1</voice><type>quarter</type><dot /><stem default-y="2">up</stem><lyric default-y="-91" name="verse" number="1"><syllabic>single</syllabic><text font-size="10.8">uns</text></lyric></note><note default-x="169"><pitch><step>B</step><octave>4</octave></pitch><duration>8</duration><voice>1</voice><type>quarter</type><stem default-y="-52">down</stem><lyric default-y="-91" name="verse" number="1"><syllabic>begin</syllabic><text font-size="10.8">dei</text></lyric></note><harmony default-y="36" font-size="10" font-weight="bold"><root><root-step>A</root-step></root><kind halign="center" text="">major</kind></harmony><note default-x="238"><pitch><step>A</step><octave>4</octave></pitch><duration>8</duration><voice>1</voice><type>quarter</type><stem default-y="7">up</stem><lyric default-y="-91" name="verse" number="1"><syllabic>end</syllabic><text font-size="10.8">nen</text></lyric></note></measure><!--=======================================================--><measure number="12" width="303"><harmony default-y="36" font-size="10" font-weight="bold"><root><root-step>D</root-step></root><kind halign="center" text="">major</kind></harmony><note default-x="23"><pitch><step>F</step><alter>1</alter><octave>4</octave></pitch><duration>12</duration><voice>1</voice><type>quarter</type><dot /><stem default-y="-3">up</stem><notations><slur bezier-x="35" bezier-y="-20" default-x="7" default-y="-45" number="1" placement="below" type="start" /></notations><lyric default-y="-91" name="verse" number="1"><syllabic>single</syllabic><text font-size="10.8">Sohn.</text><extend type="start" /></lyric></note><note default-x="109"><pitch><step>G</step><octave>4</octave></pitch><duration>2</duration><voice>1</voice><type>16th</type><stem default-y="1.5">up</stem><beam number="1">begin</beam><beam number="2">begin</beam></note><note default-x="136"><pitch><step>F</step><alter>1</alter><octave>4</octave></pitch><duration>2</duration><voice>1</voice><type>16th</type><stem default-y="-3.5">up</stem><beam number="1">end</beam><beam number="2">end</beam></note><harmony default-y="36" font-size="10" font-weight="bold"><root><root-step>A</root-step></root><kind halign="center" text="7">dominant</kind></harmony><note default-x="167"><pitch><step>E</step><octave>4</octave></pitch><duration>12</duration><voice>1</voice><type>quarter</type><dot /><stem default-y="-8">up</stem><notations><slur bezier-x="-36" bezier-y="-18" default-x="7" default-y="-50" number="1" type="stop" /></notations><lyric name="verse" number="1"><extend type="stop" /></lyric></note><note default-x="253"><pitch><step>E</step><octave>4</octave></pitch><duration>4</duration><voice>1</voice><type>eighth</type><stem default-y="-8">up</stem><lyric default-y="-91" name="verse" number="1"><syllabic>single</syllabic><text font-size="10.8">Dein</text></lyric></note></measure><!--=======================================================--><measure number="13" width="363"><print new-system="yes"><system-layout><system-distance>180</system-distance></system-layout></print><harmony default-y="36" font-size="10" font-weight="bold"><root><root-step>D</root-step></root><kind halign="center" text="">major</kind></harmony><note default-x="94"><pitch><step>F</step><alter>1</alter><octave>4</octave></pitch><duration>8</duration><voice>1</voice><type>quarter</type><stem default-y="-3">up</stem><lyric default-y="-91" name="verse" number="1"><syllabic>single</syllabic><text font-size="10.8">Geist</text></lyric></note><note default-x="161"><pitch><step>F</step><alter>1</alter><octave>4</octave></pitch><duration>8</duration><voice>1</voice><type>quarter</type><stem default-y="-3">up</stem><lyric default-y="-91" name="verse" number="1"><syllabic>single</syllabic><text font-size="10.8">gibt</text></lyric></note><harmony default-y="36" font-size="10" font-weight="bold"><root><root-step>D</root-step></root><kind halign="center" text="2sus">suspended-fourth</kind><degree print-object="no"><degree-value>2</degree-value><degree-alter>0</degree-alter><degree-type>add</degree-type></degree></harmony><note default-x="228"><pitch><step>E</step><octave>4</octave></pitch><duration>8</duration><voice>1</voice><type>quarter</type><stem default-y="-8">up</stem><lyric default-y="-91" name="verse" number="1"><syllabic>single</syllabic><text font-size="10.8">uns</text></lyric></note><harmony default-y="36" font-size="10" font-weight="bold"><root><root-step>D</root-step></root><kind halign="center" text="">major</kind></harmony><note default-x="294"><pitch><step>F</step><alter>1</alter><octave>4</octave></pitch><duration>8</duration><voice>1</voice><type>quarter</type><stem default-y="-3">up</stem><lyric default-y="-91" name="verse" number="1"><syllabic>single</syllabic><text font-size="10.8">die</text></lyric></note></measure><!--=======================================================--><measure number="14" width="299"><harmony default-y="36" font-size="10" font-weight="bold"><root><root-step>G</root-step></root><kind halign="center" text="">major</kind><bass><bass-step>D</bass-step></bass></harmony><note default-x="17"><pitch><step>G</step><octave>4</octave></pitch><duration>12</duration><voice>1</voice><type>quarter</type><dot /><stem default-y="2">up</stem><lyric default-y="-91" name="verse" number="1"><syllabic>single</syllabic><text font-size="10.8">Kraft</text></lyric></note><harmony default-y="36" font-size="10" font-weight="bold"><root><root-step>D</root-step></root><kind halign="center" text="">major</kind><offset>-4</offset></harmony><note default-x="99"><pitch><step>F</step><alter>1</alter><octave>4</octave></pitch><duration>4</duration><voice>1</voice><type>eighth</type><stem default-y="-3">up</stem><lyric default-y="-91" name="verse" number="1"><syllabic>single</syllabic><text font-size="10.8">zu</text></lyric></note><harmony default-y="36" font-size="10" font-weight="bold"><root><root-step>D</root-step></root><kind halign="center" text="2sus">suspended-fourth</kind><degree print-object="no"><degree-value>2</degree-value><degree-alter>0</degree-alter><degree-type>add</degree-type></degree></harmony><note default-x="156"><pitch><step>E</step><octave>4</octave></pitch><duration>4</duration><voice>1</voice><type>eighth</type><stem default-y="-8">up</stem><lyric default-y="-91" name="verse" number="1"><syllabic>begin</syllabic><text font-size="10.8">die</text></lyric></note><note default-x="217"><pitch><step>F</step><alter>1</alter><octave>4</octave></pitch><duration>12</duration><voice>1</voice><type>quarter</type><dot /><stem default-y="-3">up</stem><lyric default-y="-91" name="verse" number="1"><syllabic>end</syllabic><text font-size="10.8">nen,</text></lyric></note><harmony default-y="36" font-size="10" font-weight="bold"><root><root-step>D</root-step></root><kind halign="center" text="">major</kind><offset>-4</offset></harmony></measure><!--=======================================================--><measure number="15" width="339"><harmony default-y="36" font-size="10" font-weight="bold"><root><root-step>G</root-step></root><kind halign="center" text="">major</kind></harmony><note default-x="13"><pitch><step>G</step><octave>4</octave></pitch><duration>4</duration><voice>1</voice><type>eighth</type><stem default-y="1.5">up</stem><beam number="1">begin</beam><notations><slur number="1" placement="below" type="start" /></notations><lyric default-y="-91" name="verse" number="1"><syllabic>single</syllabic><text font-size="10.8">bis</text><extend type="start" /></lyric></note><note default-x="55"><pitch><step>F</step><alter>1</alter><octave>4</octave></pitch><duration>4</duration><voice>1</voice><type>eighth</type><stem default-y="-3.5">up</stem><beam number="1">end</beam><notations><slur number="1" type="stop" /></notations><lyric name="verse" number="1"><extend type="stop" /></lyric></note><note default-x="96"><pitch><step>E</step><octave>4</octave></pitch><duration>4</duration><voice>1</voice><type>eighth</type><stem default-y="-8">up</stem><beam number="1">begin</beam><notations><slur number="1" placement="below" type="start" /></notations><lyric default-y="-91" name="verse" number="1"><syllabic>single</syllabic><text font-size="10.8">er</text><extend type="start" /></lyric></note><note default-x="139"><pitch><step>D</step><octave>4</octave></pitch><duration>4</duration><voice>1</voice><type>eighth</type><stem default-y="-14">up</stem><beam number="1">end</beam><notations><slur number="1" type="stop" /></notations><lyric name="verse" number="1"><extend type="stop" /></lyric></note><harmony default-y="36" font-size="10" font-weight="bold"><root><root-step>A</root-step></root><kind halign="center" text="sus">suspended-fourth</kind></harmony><note default-x="182"><pitch><step>E</step><octave>4</octave></pitch><duration>8</duration><tie type="start" /><voice>1</voice><type>quarter</type><stem default-y="-8">up</stem><notations><tied type="start" /></notations><lyric default-y="-91" name="verse" number="1"><syllabic>begin</syllabic><text font-size="10.8">wie</text></lyric></note><harmony default-y="36" font-size="10" font-weight="bold"><root><root-step>A</root-step></root><kind halign="center" text="7">dominant</kind></harmony><note default-x="250"><pitch><step>E</step><octave>4</octave></pitch><duration>4</duration><tie type="stop" /><voice>1</voice><type>eighth</type><stem default-y="-8">up</stem><beam number="1">begin</beam><notations><tied type="stop" /></notations></note><note default-x="294"><pitch><step>D</step><octave>4</octave></pitch><duration>4</duration><voice>1</voice><type>eighth</type><stem default-y="-14">up</stem><beam number="1">end</beam><lyric default-y="-91" name="verse" number="1"><syllabic>middle</syllabic><text font-size="10.8">der</text></lyric></note></measure><!--=======================================================--><measure number="16" width="170"><harmony default-y="36" font-size="10" font-weight="bold"><root><root-step>D</root-step></root><kind halign="center" text="">major</kind></harmony><note default-x="30"><pitch><step>D</step><octave>4</octave></pitch><duration>32</duration><voice>1</voice><type>whole</type><lyric default-y="-91" name="verse" number="1"><syllabic>end</syllabic><text font-size="10.8">kommt.</text></lyric></note><barline location="right"><bar-style>light-heavy</bar-style></barline></measure></part><!--=========================================================--></score-partwise>