<?xml version="1.0" encoding="UTF-8" standalone="no"?><!DOCTYPE score-partwise PUBLIC "-//Recordare//DTD MusicXML 3.0 Partwise//EN" "http://www.musicxml.org/dtds/partwise.dtd"[]><score-partwise version="3.0"><movement-title>Friedefürst Wunderrat</movement-title><identification><creator type="composer">Jennifer Randolph</creator><creator type="arranger">Mirjana Angelina</creator><encoding><software>Finale 2014 for Windows</software><software>Dolet Light for Finale 2014</software><encoding-date>2015-08-05</encoding-date><supports attribute="new-system" element="print" type="yes" value="yes" /><supports attribute="new-page" element="print" type="yes" value="yes" /><supports element="accidental" type="yes" /><supports element="beam" type="yes" /><supports element="stem" type="yes" /></encoding><rights>CCLI-Liednummer 5321391
© 1985 Integrity's Hosanna! Music
Nutzung ausschließlich im Rahmen der SongSelect®-Nutzungsbedingungen. Alle Rechte vorbehalten. www.ccli.com
CCLI-Lizenznummer 2182334
</rights></identification><defaults><scaling><millimeters>6.5088</millimeters><tenths>40</tenths></scaling><page-layout><page-height>1717</page-height><page-width>1327</page-width><page-margins type="both"><left-margin>78</left-margin><right-margin>78</right-margin><top-margin>78</top-margin><bottom-margin>78</bottom-margin></page-margins></page-layout><system-layout><system-margins><left-margin>0</left-margin><right-margin>0</right-margin></system-margins><system-distance>190</system-distance><top-system-distance>117</top-system-distance></system-layout><appearance><line-width type="stem">1.4583</line-width><line-width type="beam">5</line-width><line-width type="staff">1.25</line-width><line-width type="light barline">1.4583</line-width><line-width type="heavy barline">5</line-width><line-width type="leger">1.875</line-width><line-width type="ending">1.4583</line-width><line-width type="wedge">1.4583</line-width><line-width type="enclosure">1.4583</line-width><line-width type="tuplet bracket">1.4583</line-width><note-size type="grace">50</note-size><note-size type="cue">50</note-size><distance type="hyphen">240</distance><distance type="beam">8</distance></appearance><music-font font-family="Maestro,engraved" font-size="18.5" /><word-font font-family="Arial" font-size="9.2" /><lyric-font font-family="Arial" font-size="10.8" name="verse" /><lyric-font font-family="Arial" font-size="10.8" name="section" /></defaults><credit page="1"><credit-type>title</credit-type><credit-words default-x="663" default-y="1649" font-size="21.6" font-weight="bold" justify="center" valign="top" xml:lang="de">Friedefürst Wunderrat</credit-words></credit><credit page="1"><credit-words default-x="1249" default-y="1576" font-size="10.8" font-style="italic" justify="right" valign="top">Text und Musik:</credit-words></credit><credit page="1"><credit-type>composer</credit-type><credit-words default-x="1249" default-y="1552" font-size="10.8" font-weight="bold" justify="right" valign="top">Jennifer Randolph</credit-words></credit><credit page="1"><credit-words default-x="78" default-y="1576" font-size="10.8" font-style="italic" valign="top">Deutsch:</credit-words></credit><credit page="1"><credit-type>arranger</credit-type><credit-words default-x="78" default-y="1552" font-size="10.8" font-weight="bold" valign="top">Mirjana Angelina</credit-words></credit><part-list><score-part id="P1"><part-name print-object="no">Vocals</part-name><score-instrument id="P1-I2"><instrument-name>Melody</instrument-name></score-instrument><midi-instrument id="P1-I2"><midi-channel>1</midi-channel><midi-program>1</midi-program><volume>80</volume><pan>0</pan></midi-instrument></score-part></part-list><!--=========================================================--><part id="P1"><measure number="1" width="413"><print><page-layout><page-height>1717</page-height><page-width>1327</page-width><page-margins><left-margin>78</left-margin><right-margin>78</right-margin><top-margin>190</top-margin><bottom-margin>163</bottom-margin></page-margins></page-layout><system-layout><system-margins><left-margin>68</left-margin><right-margin>0</right-margin></system-margins></system-layout><measure-numbering>system</measure-numbering></print><attributes><divisions>4</divisions><key><fifths>3</fifths><mode>major</mode></key><time><beats>4</beats><beat-type>4</beat-type></time><clef><sign>G</sign><line>2</line></clef></attributes><harmony default-y="36" font-size="10" font-weight="bold"><root><root-step>A</root-step></root><kind halign="center" text="">major</kind></harmony><direction placement="above"><direction-type><metronome default-y="59" halign="left" relative-x="-66"><beat-unit>quarter</beat-unit><per-minute>66</per-minute></metronome></direction-type><sound tempo="66" /></direction><direction placement="above"><direction-type><rehearsal default-y="69" font-weight="bold" relative-x="-5">VERS</rehearsal></direction-type></direction><note default-x="133"><rest /><duration>4</duration><voice>1</voice><type>quarter</type></note><note default-x="197"><pitch><step>C</step><alter>1</alter><octave>4</octave></pitch><duration>2</duration><voice>1</voice><type>eighth</type><stem default-y="-13.5">up</stem><beam number="1">begin</beam><lyric default-y="-91" name="verse" number="1"><syllabic>begin</syllabic><text font-size="10.8">Frie</text></lyric></note><note default-x="251"><pitch><step>E</step><octave>4</octave></pitch><duration>2</duration><voice>1</voice><type>eighth</type><stem default-y="-8.5">up</stem><beam number="1">end</beam><lyric default-y="-91" name="verse" number="1"><syllabic>middle</syllabic><text font-size="10.8">de</text></lyric></note><note default-x="308"><pitch><step>E</step><octave>4</octave></pitch><duration>8</duration><voice>1</voice><type>half</type><stem default-y="-8">up</stem><lyric default-y="-91" name="verse" number="1"><syllabic>end</syllabic><text font-size="10.8">fürst,</text></lyric></note></measure><!--=======================================================--><measure number="2" width="351"><harmony default-y="36" font-size="10" font-weight="bold"><root><root-step>E</root-step></root><kind halign="center" text="">major</kind><bass><bass-step>G</bass-step><bass-alter>1</bass-alter></bass></harmony><note default-x="15"><rest /><duration>4</duration><voice>1</voice><type>quarter</type></note><note default-x="91"><pitch><step>B</step><octave>3</octave></pitch><duration>2</duration><voice>1</voice><type>eighth</type><stem default-y="-8.5">up</stem><beam number="1">begin</beam><lyric default-y="-91" name="verse" number="1"><syllabic>begin</syllabic><text font-size="10.8">Wun</text></lyric></note><note default-x="156"><pitch><step>E</step><octave>4</octave></pitch><duration>1</duration><voice>1</voice><type>16th</type><stem default-y="-8.5">up</stem><beam number="1">continue</beam><beam number="2">begin</beam><lyric default-y="-91" name="verse" number="1"><syllabic>middle</syllabic><text font-size="10.8">der</text></lyric></note><note default-x="208"><pitch><step>E</step><octave>4</octave></pitch><duration>1</duration><tie type="start" /><voice>1</voice><type>16th</type><stem default-y="-8.5">up</stem><beam number="1">end</beam><beam number="2">end</beam><notations><tied type="start" /></notations><lyric default-y="-91" name="verse" number="1"><syllabic>end</syllabic><text font-size="10.8">rat,</text><extend type="start" /></lyric></note><note default-x="243"><pitch><step>E</step><octave>4</octave></pitch><duration>8</duration><tie type="stop" /><voice>1</voice><type>half</type><stem default-y="-8">up</stem><notations><tied type="stop" /></notations><lyric name="verse" number="1"><extend type="stop" /></lyric></note></measure><!--=======================================================--><measure number="3" width="338"><harmony default-y="36" font-size="10" font-weight="bold"><root><root-step>G</root-step></root><kind halign="center" text="">major</kind></harmony><note default-x="13"><rest /><duration>4</duration><voice>1</voice><type>quarter</type></note><note default-x="76"><pitch><step>B</step><octave>3</octave></pitch><duration>2</duration><voice>1</voice><type>eighth</type><stem default-y="-19">up</stem><beam number="1">begin</beam><lyric default-y="-91" name="verse" number="1"><syllabic>begin</syllabic><text font-size="10.8">gna</text></lyric></note><note default-x="141"><pitch><step>C</step><alter>1</alter><octave>4</octave></pitch><duration>1</duration><voice>1</voice><type>16th</type><stem default-y="-16">up</stem><beam number="1">continue</beam><beam number="2">begin</beam><lyric default-y="-91" name="verse" number="1"><syllabic>middle</syllabic><text font-size="10.8">den</text></lyric></note><note default-x="199"><pitch><step>D</step><octave>4</octave></pitch><duration>1</duration><tie type="start" /><voice>1</voice><type>16th</type><stem default-y="-13.5">up</stem><beam number="1">end</beam><beam number="2">end</beam><notations><tied type="start" /></notations><lyric default-y="-91" name="verse" number="1"><syllabic>end</syllabic><text font-size="10.8">voll,</text><extend type="start" /></lyric></note><note default-x="234"><pitch><step>D</step><octave>4</octave></pitch><duration>8</duration><tie type="stop" /><voice>1</voice><type>half</type><stem default-y="-13">up</stem><notations><tied type="stop" /></notations><lyric name="verse" number="1"><extend type="stop" /></lyric></note></measure><!--=======================================================--><measure number="4" width="381"><print new-system="yes"><system-layout><system-distance>180</system-distance></system-layout></print><harmony default-y="36" font-size="10" font-weight="bold"><root><root-step>B</root-step></root><kind halign="center" text="m7">minor-seventh</kind></harmony><note default-x="113"><rest><display-step>B</display-step><display-octave>4</display-octave></rest><duration>4</duration><voice>1</voice><type>quarter</type></note><note default-x="165"><pitch><step>D</step><octave>4</octave></pitch><duration>2</duration><voice>1</voice><type>eighth</type><stem default-y="-13.5">up</stem><beam number="1">begin</beam><lyric default-y="-107" name="verse" number="1"><syllabic>begin</syllabic><text font-size="10.8">Got</text></lyric></note><note default-x="221"><pitch><step>E</step><octave>4</octave></pitch><duration>2</duration><voice>1</voice><type>eighth</type><stem default-y="-8.5">up</stem><beam number="1">end</beam><lyric default-y="-107" name="verse" number="1"><syllabic>end</syllabic><text font-size="10.8">tes</text></lyric></note><harmony default-y="36" font-size="10" font-weight="bold"><root><root-step>E</root-step></root><kind halign="center" text="sus">suspended-fourth</kind></harmony><note default-x="285"><pitch><step>B</step><octave>3</octave></pitch><duration>8</duration><voice>1</voice><type>half</type><stem default-y="-19">up</stem><lyric default-y="-107" name="verse" number="1"><syllabic>single</syllabic><text font-size="10.8">Sohn,</text></lyric></note><backup><duration>16</duration></backup><forward><duration>12</duration><voice>2</voice></forward><harmony default-y="36" font-size="10" font-weight="bold"><root><root-step>E</root-step></root><kind halign="center" text="">major</kind></harmony><forward><duration>4</duration><voice>2</voice></forward></measure><!--=======================================================--><measure number="5" width="372"><harmony default-y="36" font-size="10" font-weight="bold"><root><root-step>A</root-step></root><kind halign="center" text="">major</kind></harmony><note default-x="12"><rest><display-step>D</display-step><display-octave>5</display-octave></rest><duration>8</duration><voice>1</voice><type>half</type></note><note default-x="200"><rest><display-step>E</display-step><display-octave>5</display-octave></rest><duration>4</duration><voice>1</voice><type>quarter</type></note><note default-x="257"><pitch><step>A</step><octave>4</octave></pitch><duration>2</duration><voice>1</voice><type>eighth</type><stem default-y="11.5">up</stem><beam number="1">begin</beam><lyric default-y="-140" name="verse" number="3"><syllabic>single</syllabic><text font-size="10.8">(Herr</text></lyric></note><note default-x="321"><pitch><step>C</step><alter>1</alter><octave>5</octave></pitch><duration>2</duration><voice>1</voice><type>eighth</type><stem default-y="16">up</stem><beam number="1">end</beam><lyric default-y="-140" name="verse" number="3"><syllabic>single</syllabic><text font-size="10.8">der</text></lyric></note><backup><duration>16</duration></backup><note default-x="14"><rest><display-step>A</display-step><display-octave>3</display-octave></rest><duration>4</duration><voice>2</voice><type>quarter</type></note><note default-x="71"><pitch><step>C</step><alter>1</alter><octave>4</octave></pitch><duration>2</duration><voice>2</voice><type>eighth</type><stem default-y="-81">down</stem><beam number="1">begin</beam><lyric default-y="-107" name="verse" number="1"><syllabic>single</syllabic><text font-size="10.8">Herr</text></lyric></note><note default-x="132"><pitch><step>E</step><octave>4</octave></pitch><duration>2</duration><voice>2</voice><type>eighth</type><stem default-y="-76">down</stem><beam number="1">end</beam><lyric default-y="-107" name="verse" number="1"><syllabic>single</syllabic><text font-size="10.8">der</text></lyric></note><note default-x="200"><pitch><step>E</step><octave>4</octave></pitch><duration>8</duration><voice>2</voice><type>half</type><stem default-y="-68">down</stem><lyric default-y="-107" name="verse" number="1"><syllabic>single</syllabic><text font-size="10.8">Herrn,</text></lyric></note></measure><!--=======================================================--><measure number="6" width="418"><harmony default-y="36" font-size="10" font-weight="bold"><root><root-step>E</root-step></root><kind halign="center" text="">major</kind><bass><bass-step>G</bass-step><bass-alter>1</bass-alter></bass></harmony><note default-x="25"><pitch><step>B</step><octave>4</octave></pitch><duration>8</duration><voice>1</voice><type>half</type><stem default-y="12">up</stem><lyric default-y="-140" name="verse" number="3"><syllabic>single</syllabic><text font-size="10.8">Herrn)</text></lyric></note><note default-x="249"><rest><display-step>E</display-step><display-octave>5</display-octave></rest><duration>4</duration><voice>1</voice><type>quarter</type></note><note default-x="304"><pitch><step>B</step><octave>4</octave></pitch><duration>2</duration><voice>1</voice><type>eighth</type><stem default-y="11.5">up</stem><beam number="1">begin</beam><lyric default-y="-140" name="verse" number="3"><syllabic>begin</syllabic><text font-size="10.8">(star</text></lyric></note><note default-x="367"><pitch><step>C</step><alter>1</alter><octave>5</octave></pitch><duration>2</duration><voice>1</voice><type>eighth</type><stem default-y="16">up</stem><beam number="1">end</beam><lyric default-y="-140" name="verse" number="3"><syllabic>end</syllabic><text font-size="10.8">ker</text></lyric></note><backup><duration>16</duration></backup><note default-x="25"><rest><display-step>A</display-step><display-octave>3</display-octave></rest><duration>4</duration><voice>2</voice><type>quarter</type></note><note default-x="93"><pitch><step>B</step><octave>3</octave></pitch><duration>2</duration><voice>2</voice><type>eighth</type><stem default-y="-86">down</stem><beam number="1">begin</beam><lyric default-y="-107" name="verse" number="1"><syllabic>begin</syllabic><text font-size="10.8">star</text></lyric></note><note default-x="153"><pitch><step>E</step><octave>4</octave></pitch><duration>1</duration><voice>2</voice><type>16th</type><stem default-y="-86">down</stem><beam number="1">continue</beam><beam number="2">begin</beam><lyric default-y="-107" name="verse" number="1"><syllabic>end</syllabic><text font-size="10.8">ker</text></lyric></note><note default-x="214"><pitch><step>E</step><octave>4</octave></pitch><duration>1</duration><tie type="start" /><voice>2</voice><type>16th</type><stem default-y="-86">down</stem><beam number="1">end</beam><beam number="2">end</beam><notations><tied orientation="under" type="start" /></notations><lyric default-y="-107" name="verse" number="1"><syllabic>single</syllabic><text font-size="10.8">Held,</text><extend type="start" /></lyric></note><note default-x="248"><pitch><step>E</step><octave>4</octave></pitch><duration>4</duration><tie type="stop" /><voice>2</voice><type>quarter</type><stem default-y="-68">down</stem><notations><tied type="stop" /></notations><lyric name="verse" number="1"><extend type="stop" /></lyric></note><note default-x="304"><rest><display-step>A</display-step><display-octave>3</display-octave></rest><duration>4</duration><voice>2</voice><type>quarter</type></note></measure><!--=======================================================--><measure number="7" width="355"><print new-system="yes"><system-layout><system-distance>180</system-distance></system-layout></print><harmony default-y="36" font-size="10" font-weight="bold"><root><root-step>G</root-step></root><kind halign="center" text="">major</kind></harmony><note default-x="106"><pitch><step>D</step><octave>5</octave></pitch><duration>8</duration><voice>1</voice><type>half</type><stem default-y="18">up</stem><lyric default-y="-140" name="verse" number="3"><syllabic>single</syllabic><text font-size="10.8">Held)</text></lyric></note><note default-x="228"><rest><display-step>E</display-step><display-octave>5</display-octave></rest><duration>4</duration><voice>1</voice><type>quarter</type></note><note default-x="278"><rest><display-step>D</display-step><display-octave>5</display-octave></rest><duration>2</duration><voice>1</voice><type>eighth</type></note><note default-x="309"><pitch><step>C</step><alter>1</alter><octave>4</octave></pitch><duration>2</duration><voice>1</voice><type>eighth</type><stem default-y="-18">up</stem></note><backup><duration>2</duration></backup><note default-x="309"><pitch><step>C</step><alter>1</alter><octave>4</octave></pitch><duration>2</duration><voice>3</voice><type>eighth</type><stem default-y="-81">down</stem><lyric default-y="-109" name="verse" number="1"><syllabic>single</syllabic><text font-size="10.8">und</text></lyric></note><backup><duration>16</duration></backup><note default-x="106"><rest><display-step>A</display-step><display-octave>3</display-octave></rest><duration>4</duration><voice>2</voice><type>quarter</type></note><note default-x="156"><pitch><step>B</step><octave>3</octave></pitch><duration>2</duration><voice>2</voice><type>eighth</type><stem default-y="-86">down</stem><beam number="1">begin</beam><notations><slur number="1" placement="below" type="start" /></notations><lyric default-y="-109" name="verse" number="1"><syllabic>begin</syllabic><text font-size="10.8">Kö</text></lyric></note><note default-x="190"><pitch><step>C</step><alter>1</alter><octave>4</octave></pitch><duration>2</duration><voice>2</voice><type>eighth</type><stem default-y="-81">down</stem><beam number="1">end</beam><notations><slur number="1" type="stop" /></notations></note><note default-x="227"><pitch><step>D</step><octave>4</octave></pitch><duration>6</duration><voice>2</voice><type>quarter</type><dot /><stem default-y="-73">down</stem><lyric default-y="-109" name="verse" number="1"><syllabic>end</syllabic><text font-size="10.8">nig</text></lyric></note><forward><duration>2</duration><voice>2</voice></forward></measure><!--=======================================================--><measure number="8" width="438"><harmony default-y="36" font-size="10" font-weight="bold"><root><root-step>B</root-step></root><kind halign="center" text="m7">minor-seventh</kind></harmony><note default-x="27"><pitch><step>B</step><octave>3</octave></pitch><duration>2</duration><voice>1</voice><type>eighth</type><stem default-y="-19.5">up</stem><beam number="1">begin</beam><lyric default-y="-109" name="verse" number="1"><syllabic>single</syllabic><text font-size="10.8">Gott</text></lyric></note><note default-x="87"><pitch><step>C</step><alter>1</alter><octave>4</octave></pitch><duration>2</duration><voice>1</voice><type>eighth</type><stem default-y="-15">up</stem><beam number="1">end</beam><lyric default-y="-109" name="verse" number="1"><syllabic>single</syllabic><text font-size="10.8">von</text></lyric></note><note default-x="137"><pitch><step>D</step><octave>4</octave></pitch><duration>2</duration><voice>1</voice><type>eighth</type><stem default-y="-14">up</stem><beam number="1">begin</beam><lyric default-y="-109" name="verse" number="1"><syllabic>begin</syllabic><text font-size="10.8">E</text></lyric></note><note default-x="186"><pitch><step>E</step><octave>4</octave></pitch><duration>2</duration><voice>1</voice><type>eighth</type><stem default-y="-9">up</stem><beam number="1">end</beam><lyric default-y="-109" name="verse" number="1"><syllabic>middle</syllabic><text font-size="10.8">wig</text></lyric></note><harmony default-y="36" font-size="10" font-weight="bold"><root><root-step>D</root-step></root><kind halign="center" text="">major</kind><bass><bass-step>E</bass-step></bass></harmony><note default-x="244"><pitch><step>F</step><alter>1</alter><octave>4</octave></pitch><duration>2</duration><voice>1</voice><type>eighth</type><stem default-y="-3">up</stem><beam number="1">begin</beam><notations><slur bezier-x="12" bezier-y="-15" default-x="7" default-y="-45" number="1" placement="below" type="start" /></notations><lyric default-y="-109" name="verse" number="1"><syllabic>end</syllabic><text font-size="10.8">keit!</text><extend type="start" /></lyric></note><note default-x="292"><pitch><step>E</step><octave>4</octave></pitch><duration>2</duration><voice>1</voice><type>eighth</type><stem default-y="-9">up</stem><beam number="1">end</beam><notations><slur bezier-x="-15" bezier-y="-12" default-x="7" default-y="-50" number="1" type="stop" /></notations><lyric name="verse" number="1"><extend type="stop" /></lyric></note><note default-x="334"><pitch><step>F</step><alter>1</alter><octave>4</octave></pitch><duration>2</duration><voice>1</voice><type>eighth</type><stem default-y="-3">up</stem><beam number="1">begin</beam><lyric default-y="-109" name="verse" number="1"><syllabic>single</syllabic><text font-size="10.8">Ich</text></lyric></note><note default-x="384"><pitch><step>G</step><alter>1</alter><octave>4</octave></pitch><duration>2</duration><voice>1</voice><type>eighth</type><stem default-y="1.5">up</stem><beam number="1">end</beam><lyric default-y="-109" name="verse" number="1"><syllabic>begin</syllabic><text font-size="10.8">er</text></lyric></note><barline location="right"><bar-style>light-light</bar-style></barline></measure><!--=======================================================--><measure number="9" width="378"><harmony default-y="36" font-size="10" font-weight="bold"><root><root-step>A</root-step></root><kind halign="center" text="">major</kind></harmony><direction placement="above"><direction-type><rehearsal default-y="69" font-weight="bold" relative-x="-5">CHORUS</rehearsal></direction-type></direction><note default-x="12"><pitch><step>A</step><octave>4</octave></pitch><duration>6</duration><voice>1</voice><type>quarter</type><dot /><stem default-y="7">up</stem><lyric default-y="-109" name="verse" number="1"><syllabic>middle</syllabic><text font-size="10.8">he</text></lyric></note><harmony default-y="36" font-size="10" font-weight="bold"><root><root-step>A</root-step></root><kind halign="center" text="sus">suspended-fourth</kind></harmony><note default-x="93"><pitch><step>E</step><octave>4</octave></pitch><duration>2</duration><voice>1</voice><type>eighth</type><stem default-y="-8">up</stem><lyric default-y="-109" name="verse" number="1"><syllabic>end</syllabic><text font-size="10.8">be</text></lyric></note><harmony default-y="36" font-size="10" font-weight="bold"><root><root-step>A</root-step></root><kind halign="center" text="">major</kind></harmony><note default-x="154"><pitch><step>E</step><octave>4</octave></pitch><duration>2</duration><voice>1</voice><type>eighth</type><stem default-y="11">up</stem><beam number="1">begin</beam><lyric default-y="-109" name="verse" number="1"><syllabic>single</syllabic><text font-size="10.8">Dich,</text></lyric></note><note default-x="222"><pitch><step>C</step><alter>1</alter><octave>5</octave></pitch><duration>2</duration><voice>1</voice><type>eighth</type><stem default-y="16">up</stem><beam number="1">end</beam><lyric default-y="-109" name="verse" number="1"><syllabic>single</syllabic><text font-size="10.8">Herr,</text></lyric></note><harmony default-y="36" font-size="10" font-weight="bold"><root><root-step>F</root-step><root-alter>1</root-alter></root><kind halign="center" text="m7">minor-seventh</kind></harmony><note default-x="281"><pitch><step>B</step><octave>4</octave></pitch><duration>2</duration><voice>1</voice><type>eighth</type><stem default-y="11">up</stem><beam number="1">begin</beam><lyric default-y="-109" name="verse" number="1"><syllabic>single</syllabic><text font-size="10.8">ich</text></lyric></note><note default-x="331"><pitch><step>A</step><octave>4</octave></pitch><duration>2</duration><voice>1</voice><type>eighth</type><stem default-y="6.5">up</stem><beam number="1">end</beam><lyric default-y="-109" name="verse" number="1"><syllabic>begin</syllabic><text font-size="10.8">er</text></lyric></note></measure><!--=======================================================--><measure number="10" width="326"><print new-system="yes"><system-layout><system-distance>180</system-distance></system-layout></print><harmony default-y="36" font-size="10" font-weight="bold"><root><root-step>E</root-step></root><kind halign="center" text="">major</kind></harmony><note default-x="97"><pitch><step>B</step><octave>4</octave></pitch><duration>6</duration><voice>1</voice><type>quarter</type><dot /><stem default-y="-51.5">down</stem><lyric default-y="-91" name="verse" number="1"><syllabic>middle</syllabic><text font-size="10.8">he</text></lyric></note><note default-x="153"><pitch><step>E</step><octave>4</octave></pitch><duration>2</duration><voice>1</voice><type>eighth</type><stem default-y="-8">up</stem><lyric default-y="-91" name="verse" number="1"><syllabic>end</syllabic><text font-size="10.8">be</text></lyric></note><note default-x="210"><pitch><step>E</step><octave>4</octave></pitch><duration>4</duration><voice>1</voice><type>quarter</type><stem default-y="-8">up</stem><lyric default-y="-91" name="verse" number="1"><syllabic>single</syllabic><text font-size="10.8">Dich.</text></lyric></note><note default-x="252"><rest /><duration>2</duration><voice>1</voice><type>eighth</type></note><note default-x="282"><pitch><step>E</step><octave>4</octave></pitch><duration>2</duration><voice>1</voice><type>eighth</type><stem default-y="-8">up</stem><lyric default-y="-91" name="verse" number="1"><syllabic>single</syllabic><text font-size="10.8">Die</text></lyric></note></measure><!--=======================================================--><measure number="11" width="457"><harmony default-y="36" font-size="10" font-weight="bold"><root><root-step>D</root-step></root><kind halign="center" text="maj7">major-seventh</kind></harmony><note default-x="35"><pitch><step>F</step><alter>1</alter><octave>4</octave></pitch><duration>2</duration><voice>1</voice><type>eighth</type><stem default-y="1.5">up</stem><beam number="1">begin</beam><lyric default-y="-91" name="verse" number="1"><syllabic>begin</syllabic><text font-size="10.8">Schöp</text></lyric></note><note default-x="110"><pitch><step>G</step><alter>1</alter><octave>4</octave></pitch><duration>1</duration><voice>1</voice><type>16th</type><stem default-y="4">up</stem><beam number="1">continue</beam><beam number="2">begin</beam><lyric default-y="-91" name="verse" number="1"><syllabic>end</syllabic><text font-size="10.8">fung</text></lyric></note><note default-x="166"><pitch><step>A</step><octave>4</octave></pitch><duration>1</duration><tie type="start" /><voice>1</voice><type>16th</type><stem default-y="6">up</stem><beam number="1">end</beam><beam number="2">end</beam><notations><tied type="start" /></notations><lyric default-y="-91" name="verse" number="1"><syllabic>single</syllabic><text font-size="10.8">ruft</text><extend type="start" /></lyric></note><note default-x="195"><pitch><step>A</step><octave>4</octave></pitch><duration>2</duration><tie type="stop" /><voice>1</voice><type>eighth</type><stem default-y="11">up</stem><beam number="1">begin</beam><notations><tied type="stop" /></notations><lyric name="verse" number="1"><extend type="stop" /></lyric></note><note default-x="226"><pitch><step>B</step><octave>4</octave></pitch><duration>1</duration><voice>1</voice><type>16th</type><stem default-y="11">up</stem><beam number="1">continue</beam><beam number="2">begin</beam><lyric default-y="-91" name="verse" number="1"><syllabic>single</syllabic><text font-size="10.8">Dir</text></lyric></note><note default-x="276"><pitch><step>F</step><alter>1</alter><octave>4</octave></pitch><duration>1</duration><tie type="start" /><voice>1</voice><type>16th</type><stem default-y="11">up</stem><beam number="1">end</beam><beam number="2">end</beam><notations><tied type="start" /></notations><lyric default-y="-91" name="verse" number="1"><syllabic>single</syllabic><text font-size="10.8">zu:</text><extend type="start" /></lyric></note><note default-x="305"><pitch><step>F</step><alter>1</alter><octave>4</octave></pitch><duration>4</duration><tie type="stop" /><voice>1</voice><type>quarter</type><stem default-y="-3">up</stem><notations><tied type="stop" /></notations><lyric name="verse" number="1"><extend type="stop" /></lyric></note><harmony default-y="36" font-size="10" font-weight="bold"><root><root-step>A</root-step></root><kind halign="center" text="">major</kind><bass><bass-step>C</bass-step><bass-alter>1</bass-alter></bass></harmony><note default-x="348"><rest /><duration>2</duration><voice>1</voice><type>eighth</type></note><note default-x="411"><pitch><step>E</step><octave>4</octave></pitch><duration>2</duration><voice>1</voice><type>eighth</type><stem default-y="-8">up</stem><lyric default-y="-91" name="verse" number="1"><syllabic>single</syllabic><text font-size="10.8">"So</text></lyric></note></measure><!--=======================================================--><measure number="12" width="387"><harmony default-y="36" font-size="10" font-weight="bold"><root><root-step>B</root-step></root><kind halign="center" text="m7">minor-seventh</kind></harmony><note default-x="27"><pitch><step>F</step><alter>1</alter><octave>4</octave></pitch><duration>2</duration><voice>1</voice><type>eighth</type><stem default-y="-3.5">up</stem><beam number="1">begin</beam><lyric default-y="-91" name="verse" number="1"><syllabic>begin</syllabic><text font-size="10.8">herr</text></lyric></note><note default-x="84"><pitch><step>G</step><alter>1</alter><octave>4</octave></pitch><duration>2</duration><voice>1</voice><type>eighth</type><stem default-y="1.5">up</stem><beam number="1">end</beam><lyric default-y="-91" name="verse" number="1"><syllabic>end</syllabic><text font-size="10.8">lich</text></lyric></note><note default-x="137"><pitch><step>A</step><octave>4</octave></pitch><duration>2</duration><voice>1</voice><type>eighth</type><stem default-y="6">up</stem><beam number="1">begin</beam><lyric default-y="-91" name="verse" number="1"><syllabic>single</syllabic><text font-size="10.8">bist</text></lyric></note><note default-x="190"><pitch><step>B</step><octave>4</octave></pitch><duration>2</duration><voice>1</voice><type>eighth</type><stem default-y="11">up</stem><beam number="1">end</beam><lyric default-y="-91" name="verse" number="1"><syllabic>single</syllabic><text font-size="10.8">nur</text></lyric></note><note default-x="248"><pitch><step>C</step><alter>1</alter><octave>5</octave></pitch><duration>2</duration><voice>1</voice><type>eighth</type><stem default-y="-46">down</stem><beam number="1">begin</beam><notations><slur bezier-x="10" bezier-y="15" default-x="9" default-y="-2" number="1" placement="above" type="start" /></notations><lyric default-y="-91" name="verse" number="1"><syllabic>single</syllabic><text font-size="10.8">Du".</text><extend type="start" /></lyric></note><note default-x="274"><pitch><step>B</step><octave>4</octave></pitch><duration>2</duration><voice>1</voice><type>eighth</type><stem default-y="-51">down</stem><beam number="1">end</beam><notations><slur bezier-x="-3" bezier-y="18" default-x="6" default-y="-7" number="1" type="stop" /></notations><lyric name="verse" number="1"><extend type="stop" /></lyric></note><harmony default-y="36" font-size="10" font-weight="bold"><root><root-step>D</root-step></root><kind halign="center" text="">major</kind><bass><bass-step>E</bass-step></bass></harmony><note default-x="305"><pitch><step>F</step><alter>1</alter><octave>4</octave></pitch><duration>2</duration><voice>1</voice><type>eighth</type><stem default-y="-3.5">up</stem><beam number="1">begin</beam><lyric default-y="-91" name="verse" number="1"><syllabic>single</syllabic><text font-size="10.8">Ich</text></lyric></note><harmony default-y="36" font-size="10" font-weight="bold"><root><root-step>E</root-step></root><kind halign="center" text="">major</kind></harmony><note default-x="348"><pitch><step>G</step><alter>1</alter><octave>4</octave></pitch><duration>2</duration><voice>1</voice><type>eighth</type><stem default-y="1.5">up</stem><beam number="1">end</beam><lyric default-y="-91" name="verse" number="1"><syllabic>begin</syllabic><text font-size="10.8">er</text></lyric></note></measure><!--=======================================================--><measure number="13" width="472"><print new-system="yes"><system-layout><system-distance>180</system-distance></system-layout></print><harmony default-y="36" font-size="10" font-weight="bold"><root><root-step>A</root-step></root><kind halign="center" text="">major</kind></harmony><note default-x="100"><pitch><step>A</step><octave>4</octave></pitch><duration>6</duration><voice>1</voice><type>quarter</type><dot /><stem default-y="7">up</stem><lyric default-y="-91" name="verse" number="1"><syllabic>middle</syllabic><text font-size="10.8">he</text></lyric></note><harmony default-y="36" font-size="10" font-weight="bold"><root><root-step>A</root-step></root><kind halign="center" text="sus">suspended-fourth</kind></harmony><note default-x="184"><pitch><step>E</step><octave>4</octave></pitch><duration>2</duration><voice>1</voice><type>eighth</type><stem default-y="-8">up</stem><lyric default-y="-91" name="verse" number="1"><syllabic>end</syllabic><text font-size="10.8">be</text></lyric></note><harmony default-y="36" font-size="10" font-weight="bold"><root><root-step>A</root-step></root><kind halign="center" text="">major</kind></harmony><note default-x="246"><pitch><step>E</step><octave>4</octave></pitch><duration>2</duration><voice>1</voice><type>eighth</type><stem default-y="11">up</stem><beam number="1">begin</beam><lyric default-y="-91" name="verse" number="1"><syllabic>single</syllabic><text font-size="10.8">Dich,</text></lyric></note><note default-x="313"><pitch><step>C</step><alter>1</alter><octave>5</octave></pitch><duration>2</duration><voice>1</voice><type>eighth</type><stem default-y="16">up</stem><beam number="1">end</beam><lyric default-y="-91" name="verse" number="1"><syllabic>single</syllabic><text font-size="10.8">Herr,</text></lyric></note><harmony default-y="36" font-size="10" font-weight="bold"><root><root-step>D</root-step></root><kind halign="center" text="">major</kind></harmony><note default-x="373"><pitch><step>B</step><octave>4</octave></pitch><duration>2</duration><voice>1</voice><type>eighth</type><stem default-y="11">up</stem><beam number="1">begin</beam><lyric default-y="-91" name="verse" number="1"><syllabic>single</syllabic><text font-size="10.8">ich</text></lyric></note><note default-x="424"><pitch><step>A</step><octave>4</octave></pitch><duration>2</duration><voice>1</voice><type>eighth</type><stem default-y="6">up</stem><beam number="1">end</beam><lyric default-y="-91" name="verse" number="1"><syllabic>begin</syllabic><text font-size="10.8">er</text></lyric></note></measure><!--=======================================================--><measure number="14" width="344"><harmony default-y="36" font-size="10" font-weight="bold"><root><root-step>E</root-step></root><kind halign="center" text="">major</kind></harmony><note default-x="11"><pitch><step>B</step><octave>4</octave></pitch><duration>6</duration><voice>1</voice><type>quarter</type><dot /><stem default-y="-52">down</stem><notations><slur bezier-x="21" bezier-y="21" default-x="7" default-y="-3" number="1" placement="above" type="start" /></notations><lyric default-y="-91" name="verse" number="1"><syllabic>middle</syllabic><text font-size="10.8">he</text></lyric></note><note default-x="94"><pitch><step>E</step><octave>4</octave></pitch><duration>2</duration><voice>1</voice><type>eighth</type><stem default-y="-8">up</stem><notations><slur bezier-x="-19" bezier-y="23" default-x="5" default-y="-8" number="1" type="stop" /></notations><lyric default-y="-91" name="verse" number="1"><syllabic>end</syllabic><text font-size="10.8">be</text></lyric></note><note default-x="152"><pitch><step>E</step><octave>4</octave></pitch><duration>4</duration><voice>1</voice><type>quarter</type><stem default-y="-8">up</stem><lyric default-y="-91" name="verse" number="1"><syllabic>single</syllabic><text font-size="10.8">Dich.</text></lyric></note><harmony default-y="36" font-size="10" font-weight="bold"><root><root-step>E</root-step></root><kind halign="center" text="">major</kind><bass><bass-step>D</bass-step></bass></harmony><note default-x="231"><pitch><step>E</step><octave>4</octave></pitch><duration>2</duration><voice>1</voice><type>eighth</type><stem default-y="-8">up</stem><beam number="1">begin</beam><notations><slur number="1" placement="below" type="start" /></notations><lyric default-y="-91" name="verse" number="1"><syllabic>single</syllabic><text font-size="10.8">Mein</text><extend type="start" /></lyric></note><harmony default-y="36" font-size="10" font-weight="bold"><root><root-step>C</root-step><root-alter>1</root-alter></root><kind halign="center" text="m7">minor-seventh</kind></harmony><note default-x="294"><pitch><step>E</step><octave>4</octave></pitch><duration>2</duration><voice>1</voice><type>eighth</type><stem default-y="-8">up</stem><beam number="1">end</beam><notations><slur number="1" type="stop" /></notations><lyric name="verse" number="1"><extend type="stop" /></lyric></note></measure><!--=======================================================--><measure number="15" width="355"><harmony default-y="36" font-size="10" font-weight="bold"><root><root-step>B</root-step></root><kind halign="center" text="m7">minor-seventh</kind></harmony><note default-x="27"><pitch><step>D</step><octave>5</octave></pitch><duration>4</duration><voice>1</voice><type>quarter</type><stem default-y="-42">down</stem><lyric default-y="-91" name="verse" number="1"><syllabic>begin</syllabic><text font-size="10.8">Je</text></lyric></note><harmony default-y="36" font-size="10" font-weight="bold"><root><root-step>A</root-step></root><kind halign="center" text="">major</kind><bass><bass-step>C</bass-step><bass-alter>1</bass-alter></bass></harmony><note default-x="99"><pitch><step>C</step><alter>1</alter><octave>5</octave></pitch><duration>4</duration><voice>1</voice><type>quarter</type><stem default-y="-47">down</stem><lyric default-y="-91" name="verse" number="1"><syllabic>end</syllabic><text font-size="10.8">sus,</text></lyric></note><harmony default-y="36" font-size="10" font-weight="bold"><root><root-step>D</root-step></root><kind halign="center" text="">major</kind></harmony><note default-x="172"><pitch><step>B</step><octave>4</octave></pitch><duration>2</duration><voice>1</voice><type>eighth</type><stem default-y="11">up</stem><beam number="1">begin</beam><lyric default-y="-91" name="verse" number="1"><syllabic>single</syllabic><text font-size="10.8">ich</text></lyric></note><note default-x="218"><pitch><step>A</step><octave>4</octave></pitch><duration>2</duration><voice>1</voice><type>eighth</type><stem default-y="6">up</stem><beam number="1">end</beam><lyric default-y="-91" name="verse" number="1"><syllabic>begin</syllabic><text font-size="10.8">er</text></lyric></note><harmony default-y="36" font-size="10" font-weight="bold"><root><root-step>E</root-step></root><kind halign="center" text="">major</kind></harmony><note default-x="263"><pitch><step>G</step><alter>1</alter><octave>4</octave></pitch><duration>2</duration><voice>1</voice><type>eighth</type><stem default-y="1.5">up</stem><beam number="1">begin</beam><lyric default-y="-91" name="verse" number="1"><syllabic>middle</syllabic><text font-size="10.8">he</text></lyric></note><note default-x="308"><pitch><step>A</step><octave>4</octave></pitch><duration>2</duration><voice>1</voice><type>eighth</type><stem default-y="6">up</stem><beam number="1">end</beam><lyric default-y="-91" name="verse" number="1"><syllabic>end</syllabic><text font-size="10.8">be</text></lyric></note></measure><!--=======================================================--><measure number="16" width="1171"><print new-system="yes"><system-layout><system-distance>180</system-distance></system-layout></print><harmony default-y="36" font-size="10" font-weight="bold"><root><root-step>D</root-step></root><kind halign="center" text="">major</kind><bass><bass-step>A</bass-step></bass></harmony><note default-x="104"><pitch><step>A</step><octave>4</octave></pitch><duration>16</duration><voice>1</voice><type>whole</type><lyric default-y="-91" name="verse" number="1"><syllabic>single</syllabic><text font-size="10.8">Dich.</text></lyric></note><backup><duration>16</duration></backup><forward><duration>8</duration><voice>2</voice></forward><harmony default-y="36" font-size="10" font-weight="bold"><root><root-step>A</root-step></root><kind halign="center" text="">major</kind></harmony><forward><duration>8</duration><voice>2</voice></forward><barline location="right"><bar-style>light-heavy</bar-style></barline></measure></part><!--=========================================================--></score-partwise>