<?xml version="1.0" encoding="UTF-8" standalone="no"?><!DOCTYPE score-partwise PUBLIC "-//Recordare//DTD MusicXML 3.0 Partwise//EN" "http://www.musicxml.org/dtds/partwise.dtd"[]><score-partwise version="3.0"><movement-title>Gnade und Wahrheit</movement-title><identification><creator type="composer">Albert Frey</creator><encoding><software>Finale 2014 for Windows</software><software>Dolet Light for Finale 2014</software><encoding-date>2016-11-22</encoding-date><supports attribute="new-system" element="print" type="yes" value="yes" /><supports attribute="new-page" element="print" type="yes" value="yes" /><supports element="accidental" type="yes" /><supports element="beam" type="yes" /><supports element="stem" type="yes" /></encoding><rights>CCLI-Liednummer 4686044
© 2001 D&amp;D Medien, D-88287 Grünkraut
Nutzung ausschließlich im Rahmen der SongSelect®-Nutzungsbedingungen. Alle Rechte vorbehalten. www.ccli.com
CCLI-Lizenznummer 2182334
</rights></identification><defaults><scaling><millimeters>6.5088</millimeters><tenths>40</tenths></scaling><page-layout><page-height>1717</page-height><page-width>1327</page-width><page-margins type="both"><left-margin>78</left-margin><right-margin>78</right-margin><top-margin>78</top-margin><bottom-margin>78</bottom-margin></page-margins></page-layout><system-layout><system-margins><left-margin>0</left-margin><right-margin>0</right-margin></system-margins><system-distance>190</system-distance><top-system-distance>117</top-system-distance></system-layout><appearance><line-width type="stem">1.4583</line-width><line-width type="beam">5</line-width><line-width type="staff">1.25</line-width><line-width type="light barline">1.4583</line-width><line-width type="heavy barline">5</line-width><line-width type="leger">1.875</line-width><line-width type="ending">1.4583</line-width><line-width type="wedge">1.4583</line-width><line-width type="enclosure">1.4583</line-width><line-width type="tuplet bracket">1.4583</line-width><note-size type="grace">50</note-size><note-size type="cue">50</note-size><distance type="hyphen">240</distance><distance type="beam">8</distance></appearance><music-font font-family="Maestro,engraved" font-size="18.5" /><word-font font-family="Arial" font-size="9.2" /><lyric-font font-family="Arial" font-size="10.8" name="verse" /><lyric-font font-family="Arial" font-size="10.8" name="section" /></defaults><credit page="1"><credit-type>title</credit-type><credit-words default-x="663" default-y="1649" font-size="21.6" font-weight="bold" justify="center" valign="top">Gnade und Wahrheit</credit-words></credit><credit page="1"><credit-words default-x="1249" default-y="1576" font-size="10.8" font-style="italic" justify="right" valign="top">Text und Musik:</credit-words></credit><credit page="1"><credit-type>composer</credit-type><credit-words default-x="1249" default-y="1552" font-size="10.8" font-weight="bold" justify="right" valign="top">Albert Frey</credit-words></credit><credit page="2"><credit-type>title</credit-type><credit-type>page number</credit-type><credit-words default-x="663" default-y="1663" font-size="10.8" justify="center" valign="top">Gnade und Wahrheit - 2</credit-words></credit><part-list><score-part id="P1"><part-name print-object="no">Vocals</part-name><score-instrument id="P1-I2"><instrument-name>Melody</instrument-name></score-instrument><midi-instrument id="P1-I2"><midi-channel>1</midi-channel><midi-program>1</midi-program><volume>80</volume><pan>0</pan></midi-instrument></score-part></part-list><!--=========================================================--><part id="P1"><measure implicit="yes" number="0" width="162"><print page-number="1"><page-layout><page-height>1717</page-height><page-width>1327</page-width><page-margins><left-margin>78</left-margin><right-margin>78</right-margin><top-margin>190</top-margin><bottom-margin>163</bottom-margin></page-margins></page-layout><system-layout><system-margins><left-margin>68</left-margin><right-margin>0</right-margin></system-margins></system-layout><measure-numbering>system</measure-numbering></print><attributes><divisions>2</divisions><key><fifths>1</fifths><mode>major</mode></key><time><beats>4</beats><beat-type>4</beat-type></time><clef><sign>G</sign><line>2</line></clef></attributes><sound tempo="96" /><note default-x="109"><pitch><step>B</step><octave>3</octave></pitch><duration>1</duration><voice>1</voice><type>eighth</type><stem default-y="-19">up</stem><lyric default-y="-91" name="verse" number="1"><syllabic>single</syllabic><text font-size="10.8">Wir</text></lyric></note><barline location="right"><bar-style>light-light</bar-style></barline></measure><!--=======================================================--><measure number="1" width="428"><harmony default-y="36" font-size="10" font-weight="bold"><root><root-step>E</root-step></root><kind halign="center" text="m">minor</kind></harmony><direction placement="above"><direction-type><rehearsal default-y="69" font-weight="bold" relative-x="-17">VERS</rehearsal></direction-type></direction><note default-x="23"><pitch><step>G</step><octave>4</octave></pitch><duration>1</duration><voice>1</voice><type>eighth</type><stem default-y="1">up</stem><beam number="1">begin</beam><lyric default-y="-91" name="verse" number="1"><syllabic>begin</syllabic><text font-size="10.8">schau</text></lyric></note><note default-x="84"><pitch><step>G</step><octave>4</octave></pitch><duration>1</duration><voice>1</voice><type>eighth</type><stem default-y="1">up</stem><beam number="1">end</beam><lyric default-y="-91" name="verse" number="1"><syllabic>end</syllabic><text font-size="10.8">en</text></lyric></note><note default-x="133"><pitch><step>G</step><octave>4</octave></pitch><duration>1</duration><voice>1</voice><type>eighth</type><stem default-y="1">up</stem><beam number="1">begin</beam><lyric default-y="-91" name="verse" number="1"><syllabic>single</syllabic><text font-size="10.8">der</text></lyric></note><note default-x="197"><pitch><step>G</step><octave>4</octave></pitch><duration>1</duration><tie type="start" /><voice>1</voice><type>eighth</type><stem default-y="1">up</stem><beam number="1">end</beam><notations><tied type="start" /></notations><lyric default-y="-91" name="verse" number="1"><syllabic>begin</syllabic><text font-size="10.8">Wahr</text></lyric></note><note default-x="240"><pitch><step>G</step><octave>4</octave></pitch><duration>1</duration><tie type="stop" /><voice>1</voice><type>eighth</type><stem default-y="1">up</stem><beam number="1">begin</beam><notations><tied type="stop" /></notations></note><note default-x="282"><pitch><step>G</step><octave>4</octave></pitch><duration>1</duration><voice>1</voice><type>eighth</type><stem default-y="1">up</stem><beam number="1">end</beam><lyric default-y="-91" name="verse" number="1"><syllabic>end</syllabic><text font-size="10.8">heit</text></lyric></note><note default-x="335"><pitch><step>F</step><alter>1</alter><octave>4</octave></pitch><duration>1</duration><voice>1</voice><type>eighth</type><stem default-y="-4">up</stem><beam number="1">begin</beam><lyric default-y="-91" name="verse" number="1"><syllabic>single</syllabic><text font-size="10.8">ins</text></lyric></note><note default-x="383"><pitch><step>F</step><alter>1</alter><octave>4</octave></pitch><duration>1</duration><tie type="start" /><voice>1</voice><type>eighth</type><stem default-y="-4">up</stem><beam number="1">end</beam><notations><tied type="start" /></notations><lyric default-y="-91" name="verse" number="1"><syllabic>begin</syllabic><text font-size="10.8">Au</text></lyric></note></measure><!--=======================================================--><measure number="2" width="140"><harmony default-y="36" font-size="10" font-weight="bold"><root><root-step>C</root-step></root><kind halign="center" text="">major</kind></harmony><note default-x="13"><pitch><step>F</step><alter>1</alter><octave>4</octave></pitch><duration>1</duration><tie type="stop" /><voice>1</voice><type>eighth</type><stem default-y="-3">up</stem><notations><tied type="stop" /></notations></note><note default-x="54"><pitch><step>E</step><octave>4</octave></pitch><duration>3</duration><voice>1</voice><type>quarter</type><dot /><stem default-y="-8">up</stem><lyric default-y="-91" name="verse" number="1"><syllabic>end</syllabic><text font-size="10.8">ge,</text></lyric></note><note default-x="95"><rest /><duration>4</duration><voice>1</voice><type>half</type></note></measure><!--=======================================================--><measure number="3" width="372"><harmony default-y="36" font-size="10" font-weight="bold"><root><root-step>G</root-step></root><kind halign="center" text="">major</kind></harmony><note default-x="13"><pitch><step>D</step><octave>4</octave></pitch><duration>1</duration><voice>1</voice><type>eighth</type><stem default-y="-13.5">up</stem><beam number="1">begin</beam><lyric default-y="-91" name="verse" number="1"><syllabic>begin</syllabic><text font-size="10.8">stel</text></lyric></note><note default-x="64"><pitch><step>D</step><octave>4</octave></pitch><duration>1</duration><voice>1</voice><type>eighth</type><stem default-y="-13.5">up</stem><beam number="1">end</beam><lyric default-y="-91" name="verse" number="1"><syllabic>end</syllabic><text font-size="10.8">len</text></lyric></note><note default-x="116"><pitch><step>D</step><octave>4</octave></pitch><duration>1</duration><voice>1</voice><type>eighth</type><stem default-y="-13.5">up</stem><beam number="1">begin</beam><lyric default-y="-91" name="verse" number="1"><syllabic>single</syllabic><text font-size="10.8">uns</text></lyric></note><note default-x="162"><pitch><step>D</step><octave>4</octave></pitch><duration>1</duration><tie type="start" /><voice>1</voice><type>eighth</type><stem default-y="-13.5">up</stem><beam number="1">end</beam><notations><tied type="start" /></notations><lyric default-y="-91" name="verse" number="1"><syllabic>single</syllabic><text font-size="10.8">in</text><extend type="start" /></lyric></note><note default-x="205"><pitch><step>D</step><octave>4</octave></pitch><duration>1</duration><tie type="stop" /><voice>1</voice><type>eighth</type><stem default-y="-13">up</stem><notations><tied type="stop" /></notations><lyric name="verse" number="1"><extend type="stop" /></lyric></note><note default-x="252"><pitch><step>E</step><octave>4</octave></pitch><duration>2</duration><voice>1</voice><type>quarter</type><stem default-y="-8">up</stem><lyric default-y="-91" name="verse" number="1"><syllabic>single</syllabic><text font-size="10.8">dein</text></lyric></note><note default-x="318"><pitch><step>D</step><octave>4</octave></pitch><duration>1</duration><tie type="start" /><voice>1</voice><type>eighth</type><stem default-y="-13">up</stem><notations><tied type="start" /></notations><lyric default-y="-91" name="verse" number="1"><syllabic>single</syllabic><text font-size="10.8">Licht.</text><extend type="start" /></lyric></note></measure><!--=======================================================--><measure number="4" width="342"><print new-system="yes"><system-layout><system-distance>180</system-distance></system-layout></print><harmony default-y="36" font-size="10" font-weight="bold"><root><root-step>D</root-step></root><kind halign="center" text="">major</kind></harmony><note default-x="73"><pitch><step>D</step><octave>4</octave></pitch><duration>4</duration><tie type="stop" /><voice>1</voice><type>half</type><stem default-y="-13">up</stem><notations><tied type="stop" /></notations><lyric name="verse" number="1"><extend type="stop" /></lyric></note><note default-x="140"><rest /><duration>2</duration><voice>1</voice><type>quarter</type></note><note default-x="207"><rest /><duration>1</duration><voice>1</voice><type>eighth</type></note><note default-x="274"><pitch><step>B</step><octave>3</octave></pitch><duration>1</duration><voice>1</voice><type>eighth</type><stem default-y="-19">up</stem><lyric default-y="-91" name="verse" number="1"><syllabic>single</syllabic><text font-size="10.8">Wir</text></lyric></note></measure><!--=======================================================--><measure number="5" width="612"><harmony default-y="36" font-size="10" font-weight="bold"><root><root-step>E</root-step></root><kind halign="center" text="m">minor</kind></harmony><note default-x="20"><pitch><step>G</step><octave>4</octave></pitch><duration>1</duration><voice>1</voice><type>eighth</type><stem default-y="1">up</stem><beam number="1">begin</beam><lyric default-y="-91" name="verse" number="1"><syllabic>begin</syllabic><text font-size="10.8">hal</text></lyric></note><note default-x="105"><pitch><step>G</step><octave>4</octave></pitch><duration>1</duration><voice>1</voice><type>eighth</type><stem default-y="1">up</stem><beam number="1">end</beam><lyric default-y="-91" name="verse" number="1"><syllabic>end</syllabic><text font-size="10.8">ten</text></lyric></note><note default-x="189"><pitch><step>G</step><octave>4</octave></pitch><duration>1</duration><voice>1</voice><type>eighth</type><stem default-y="1">up</stem><beam number="1">begin</beam><lyric default-y="-91" name="verse" number="1"><syllabic>single</syllabic><text font-size="10.8">dort</text></lyric></note><note default-x="274"><pitch><step>G</step><octave>4</octave></pitch><duration>1</duration><tie type="start" /><voice>1</voice><type>eighth</type><stem default-y="1">up</stem><beam number="1">end</beam><notations><tied type="start" /></notations><lyric default-y="-91" name="verse" number="1"><syllabic>single</syllabic><text font-size="10.8">aus</text><extend type="start" /></lyric></note><note default-x="358"><pitch><step>G</step><octave>4</octave></pitch><duration>1</duration><tie type="stop" /><voice>1</voice><type>eighth</type><stem default-y="2">up</stem><notations><tied type="stop" /></notations><lyric name="verse" number="1"><extend type="stop" /></lyric></note><note default-x="442"><pitch><step>F</step><alter>1</alter><octave>4</octave></pitch><duration>2</duration><voice>1</voice><type>quarter</type><stem default-y="-2.5">up</stem><lyric default-y="-91" name="verse" number="1"><syllabic>single</syllabic><text font-size="10.8">durch</text></lyric></note><note default-x="527"><pitch><step>F</step><alter>1</alter><octave>4</octave></pitch><duration>1</duration><tie type="start" /><voice>1</voice><type>eighth</type><stem default-y="-2.5">up</stem><notations><tied type="start" /></notations><lyric default-y="-91" name="verse" number="1"><syllabic>begin</syllabic><text font-size="10.8">Gna</text></lyric></note></measure><!--=======================================================--><measure number="6" width="216"><harmony default-y="36" font-size="10" font-weight="bold"><root><root-step>C</root-step></root><kind halign="center" text="">major</kind></harmony><note default-x="13"><pitch><step>F</step><alter>1</alter><octave>4</octave></pitch><duration>1</duration><tie type="stop" /><voice>1</voice><type>eighth</type><stem default-y="-2.5">up</stem><notations><tied type="stop" /></notations></note><note default-x="80"><pitch><step>E</step><octave>4</octave></pitch><duration>3</duration><voice>1</voice><type>quarter</type><dot /><stem default-y="-8">up</stem><lyric default-y="-91" name="verse" number="1"><syllabic>end</syllabic><text font-size="10.8">de,</text></lyric></note><note default-x="145"><rest /><duration>4</duration><voice>1</voice><type>half</type></note></measure><!--=======================================================--><measure number="7" width="469"><print new-system="yes"><system-layout><system-distance>180</system-distance></system-layout></print><harmony default-y="36" font-size="10" font-weight="bold"><root><root-step>G</root-step></root><kind halign="center" text="">major</kind></harmony><note default-x="82"><pitch><step>D</step><octave>4</octave></pitch><duration>1</duration><voice>1</voice><type>eighth</type><stem default-y="-14">up</stem><beam number="1">begin</beam><lyric default-y="-91" name="verse" number="1"><syllabic>single</syllabic><text font-size="10.8">denn</text></lyric></note><note default-x="139"><pitch><step>D</step><octave>4</octave></pitch><duration>1</duration><voice>1</voice><type>eighth</type><stem default-y="-14">up</stem><beam number="1">end</beam><lyric default-y="-91" name="verse" number="1"><syllabic>single</syllabic><text font-size="10.8">du</text></lyric></note><note default-x="187"><pitch><step>D</step><octave>4</octave></pitch><duration>1</duration><voice>1</voice><type>eighth</type><stem default-y="-14">up</stem><beam number="1">begin</beam><lyric default-y="-91" name="verse" number="1"><syllabic>begin</syllabic><text font-size="10.8">ver</text></lyric></note><note default-x="264"><pitch><step>D</step><octave>4</octave></pitch><duration>1</duration><tie type="start" /><voice>1</voice><type>eighth</type><stem default-y="-14">up</stem><beam number="1">end</beam><notations><tied type="start" /></notations><lyric default-y="-91" name="verse" number="1"><syllabic>end</syllabic><text font-size="10.8">dammst</text><extend type="start" /></lyric></note><note default-x="307"><pitch><step>D</step><octave>4</octave></pitch><duration>1</duration><tie type="stop" /><voice>1</voice><type>eighth</type><stem default-y="-13">up</stem><notations><tied type="stop" /></notations><lyric name="verse" number="1"><extend type="stop" /></lyric></note><note default-x="351"><pitch><step>E</step><octave>4</octave></pitch><duration>2</duration><voice>1</voice><type>quarter</type><stem default-y="-8">up</stem><lyric default-y="-91" name="verse" number="1"><syllabic>single</syllabic><text font-size="10.8">uns</text></lyric></note><note default-x="415"><pitch><step>D</step><octave>4</octave></pitch><duration>1</duration><tie type="start" /><voice>1</voice><type>eighth</type><stem default-y="-13">up</stem><notations><tied type="start" /></notations><lyric default-y="-91" name="verse" number="1"><syllabic>single</syllabic><text font-size="10.8">nicht.</text><extend type="start" /></lyric></note></measure><!--=======================================================--><measure number="8" width="182"><harmony default-y="36" font-size="10" font-weight="bold"><root><root-step>D</root-step></root><kind halign="center" text="">major</kind></harmony><note default-x="12"><pitch><step>D</step><octave>4</octave></pitch><duration>4</duration><tie type="stop" /><voice>1</voice><type>half</type><stem default-y="-13">up</stem><notations><tied type="stop" /></notations><lyric name="verse" number="1"><extend type="stop" /></lyric></note><note default-x="54"><rest /><duration>2</duration><voice>1</voice><type>quarter</type></note><note default-x="97"><rest /><duration>1</duration><voice>1</voice><type>eighth</type></note><note default-x="138"><pitch><step>D</step><octave>4</octave></pitch><duration>1</duration><voice>1</voice><type>eighth</type><stem default-y="-13">up</stem><lyric default-y="-91" name="verse" number="1"><syllabic>single</syllabic><text font-size="10.8">Du</text></lyric></note></measure><!--=======================================================--><measure number="9" width="377"><harmony default-y="36" font-size="10" font-weight="bold"><root><root-step>A</root-step></root><kind halign="center" text="m7">minor-seventh</kind></harmony><note default-x="29"><pitch><step>C</step><octave>5</octave></pitch><duration>1</duration><voice>1</voice><type>eighth</type><stem default-y="-46">down</stem><beam number="1">begin</beam><lyric default-y="-91" name="verse" number="1"><syllabic>single</syllabic><text font-size="10.8">kennst</text></lyric></note><note default-x="100"><pitch><step>C</step><octave>5</octave></pitch><duration>1</duration><voice>1</voice><type>eighth</type><stem default-y="-46">down</stem><beam number="1">end</beam><lyric default-y="-91" name="verse" number="1"><syllabic>begin</syllabic><text font-size="10.8">uns</text></lyric></note><note default-x="147"><pitch><step>C</step><octave>5</octave></pitch><duration>1</duration><voice>1</voice><type>eighth</type><stem default-y="-46">down</stem><beam number="1">begin</beam><lyric default-y="-91" name="verse" number="1"><syllabic>end</syllabic><text font-size="10.8">re</text></lyric></note><note default-x="190"><pitch><step>C</step><octave>5</octave></pitch><duration>1</duration><tie type="start" /><voice>1</voice><type>eighth</type><stem default-y="-46">down</stem><beam number="1">end</beam><notations><tied type="start" /></notations><lyric default-y="-91" name="verse" number="1"><syllabic>begin</syllabic><text font-size="10.8">to</text></lyric></note><note default-x="232"><pitch><step>C</step><octave>5</octave></pitch><duration>1</duration><tie type="stop" /><voice>1</voice><type>eighth</type><stem default-y="-47">down</stem><notations><tied type="stop" /></notations></note><note default-x="274"><pitch><step>B</step><octave>4</octave></pitch><duration>2</duration><voice>1</voice><type>quarter</type><stem default-y="-51.5">down</stem><lyric default-y="-91" name="verse" number="1"><syllabic>end</syllabic><text font-size="10.8">ten</text></lyric></note><note default-x="329"><pitch><step>B</step><octave>4</octave></pitch><duration>1</duration><tie type="start" /><voice>1</voice><type>eighth</type><stem default-y="-51.5">down</stem><notations><tied type="start" /></notations><lyric default-y="-91" name="verse" number="1"><syllabic>begin</syllabic><text font-size="10.8">Win</text></lyric></note></measure><!--=======================================================--><measure number="10" width="142"><harmony default-y="36" font-size="10" font-weight="bold"><root><root-step>D</root-step></root><kind halign="center" text="">major</kind></harmony><note default-x="12"><pitch><step>B</step><octave>4</octave></pitch><duration>1</duration><tie type="stop" /><voice>1</voice><type>eighth</type><stem default-y="-51.5">down</stem><notations><tied type="stop" /></notations></note><note default-x="55"><pitch><step>A</step><octave>4</octave></pitch><duration>3</duration><voice>1</voice><type>quarter</type><dot /><stem default-y="7">up</stem><lyric default-y="-91" name="verse" number="1"><syllabic>end</syllabic><text font-size="10.8">kel,</text></lyric></note><note default-x="96"><rest /><duration>4</duration><voice>1</voice><type>half</type></note></measure><!--=======================================================--><measure number="11" width="521"><print new-system="yes"><system-layout><system-distance>180</system-distance></system-layout></print><harmony default-y="36" font-size="10" font-weight="bold"><root><root-step>C</root-step></root><kind halign="center" text="">major</kind></harmony><note default-x="87"><pitch><step>G</step><octave>4</octave></pitch><duration>1</duration><voice>1</voice><type>eighth</type><stem default-y="1.5">up</stem><beam number="1">begin</beam><lyric default-y="-91" name="verse" number="1"><syllabic>single</syllabic><text font-size="10.8">siehst</text></lyric></note><note default-x="154"><pitch><step>G</step><octave>4</octave></pitch><duration>1</duration><voice>1</voice><type>eighth</type><stem default-y="1.5">up</stem><beam number="1">end</beam><lyric default-y="-91" name="verse" number="1"><syllabic>begin</syllabic><text font-size="10.8">uns</text></lyric></note><note default-x="215"><pitch><step>G</step><octave>4</octave></pitch><duration>1</duration><voice>1</voice><type>eighth</type><stem default-y="1.5">up</stem><beam number="1">begin</beam><lyric default-y="-91" name="verse" number="1"><syllabic>end</syllabic><text font-size="10.8">ren</text></lyric></note><note default-x="276"><pitch><step>G</step><octave>4</octave></pitch><duration>1</duration><tie type="start" /><voice>1</voice><type>eighth</type><stem default-y="1.5">up</stem><beam number="1">end</beam><notations><tied type="start" /></notations><lyric default-y="-91" name="verse" number="1"><syllabic>begin</syllabic><text font-size="10.8">blin</text></lyric></note><note default-x="332"><pitch><step>G</step><octave>4</octave></pitch><duration>1</duration><tie type="stop" /><voice>1</voice><type>eighth</type><stem default-y="2">up</stem><notations><tied type="stop" /></notations></note><note default-x="390"><pitch><step>B</step><octave>4</octave></pitch><duration>2</duration><voice>1</voice><type>quarter</type><stem default-y="-51.5">down</stem><lyric default-y="-91" name="verse" number="1"><syllabic>end</syllabic><text font-size="10.8">den</text></lyric></note><note default-x="457"><pitch><step>B</step><octave>4</octave></pitch><duration>1</duration><tie type="start" /><voice>1</voice><type>eighth</type><stem default-y="-51.5">down</stem><notations><tied type="start" /></notations><lyric default-y="-91" name="verse" number="1"><syllabic>single</syllabic><text font-size="10.8">Fleck,</text><extend type="start" /></lyric></note></measure><!--=======================================================--><measure number="12" width="204"><harmony default-y="36" font-size="10" font-weight="bold"><root><root-step>G</root-step></root><kind halign="center" text="">major</kind></harmony><note default-x="13"><pitch><step>B</step><octave>4</octave></pitch><duration>4</duration><tie type="stop" /><voice>1</voice><type>half</type><stem default-y="-51.5">down</stem><notations><tied type="stop" /></notations><lyric name="verse" number="1"><extend type="stop" /></lyric></note><note default-x="61"><rest /><duration>2</duration><voice>1</voice><type>quarter</type></note><note default-x="109"><rest /><duration>1</duration><voice>1</voice><type>eighth</type></note><note default-x="156"><pitch><step>G</step><octave>4</octave></pitch><duration>1</duration><voice>1</voice><type>eighth</type><stem default-y="2">up</stem><lyric default-y="-91" name="verse" number="1"><syllabic>begin</syllabic><text font-size="10.8">be</text></lyric></note></measure><!--=======================================================--><measure number="13" width="446"><harmony default-y="36" font-size="10" font-weight="bold"><root><root-step>A</root-step></root><kind halign="center" text="m7">minor-seventh</kind></harmony><note default-x="28"><pitch><step>C</step><octave>5</octave></pitch><duration>1</duration><voice>1</voice><type>eighth</type><stem default-y="-46">down</stem><beam number="1">begin</beam><lyric default-y="-91" name="verse" number="1"><syllabic>end</syllabic><text font-size="10.8">rührst</text></lyric></note><note default-x="95"><pitch><step>C</step><octave>5</octave></pitch><duration>1</duration><voice>1</voice><type>eighth</type><stem default-y="-46">down</stem><beam number="1">end</beam><lyric default-y="-91" name="verse" number="1"><syllabic>begin</syllabic><text font-size="10.8">uns</text></lyric></note><note default-x="152"><pitch><step>C</step><octave>5</octave></pitch><duration>1</duration><voice>1</voice><type>eighth</type><stem default-y="-46">down</stem><beam number="1">begin</beam><lyric default-y="-91" name="verse" number="1"><syllabic>end</syllabic><text font-size="10.8">re</text></lyric></note><note default-x="211"><pitch><step>C</step><octave>5</octave></pitch><duration>1</duration><tie type="start" /><voice>1</voice><type>eighth</type><stem default-y="-46">down</stem><beam number="1">end</beam><notations><tied type="start" /></notations><lyric default-y="-91" name="verse" number="1"><syllabic>begin</syllabic><text font-size="10.8">wun</text></lyric></note><note default-x="265"><pitch><step>C</step><octave>5</octave></pitch><duration>1</duration><tie type="stop" /><voice>1</voice><type>eighth</type><stem default-y="-47">down</stem><notations><tied type="stop" /></notations></note><note default-x="319"><pitch><step>B</step><octave>4</octave></pitch><duration>2</duration><voice>1</voice><type>quarter</type><stem default-y="-51.5">down</stem><lyric default-y="-91" name="verse" number="1"><syllabic>end</syllabic><text font-size="10.8">den</text></lyric></note><note default-x="384"><pitch><step>B</step><octave>4</octave></pitch><duration>1</duration><tie type="start" /><voice>1</voice><type>eighth</type><stem default-y="-51.5">down</stem><notations><tied type="start" /></notations><lyric default-y="-91" name="verse" number="1"><syllabic>begin</syllabic><text font-size="10.8">Punk</text></lyric></note></measure><!--=======================================================--><measure number="14" width="302"><print new-system="yes"><system-layout><system-distance>180</system-distance></system-layout></print><harmony default-y="36" font-size="10" font-weight="bold"><root><root-step>D</root-step></root><kind halign="center" text="">major</kind></harmony><note default-x="73"><pitch><step>B</step><octave>4</octave></pitch><duration>1</duration><tie type="stop" /><voice>1</voice><type>eighth</type><stem default-y="-52">down</stem><notations><tied type="stop" /></notations></note><note default-x="149"><pitch><step>A</step><octave>4</octave></pitch><duration>3</duration><voice>1</voice><type>quarter</type><dot /><stem default-y="7">up</stem><lyric default-y="-91" name="verse" number="1"><syllabic>end</syllabic><text font-size="10.8">te,</text></lyric></note><note default-x="223"><rest /><duration>4</duration><voice>1</voice><type>half</type></note></measure><!--=======================================================--><measure number="15" width="692"><harmony default-y="36" font-size="10" font-weight="bold"><root><root-step>C</root-step></root><kind halign="center" text="">major</kind></harmony><note default-x="29"><pitch><step>G</step><octave>4</octave></pitch><duration>1</duration><voice>1</voice><type>eighth</type><stem default-y="1.5">up</stem><beam number="1">begin</beam><lyric default-y="-91" name="verse" number="1"><syllabic>single</syllabic><text font-size="10.8">nimmst</text></lyric></note><note default-x="124"><pitch><step>G</step><octave>4</octave></pitch><duration>1</duration><voice>1</voice><type>eighth</type><stem default-y="1.5">up</stem><beam number="1">end</beam><lyric default-y="-91" name="verse" number="1"><syllabic>begin</syllabic><text font-size="10.8">uns</text></lyric></note><note default-x="219"><pitch><step>G</step><octave>4</octave></pitch><duration>1</duration><voice>1</voice><type>eighth</type><stem default-y="1.5">up</stem><beam number="1">begin</beam><lyric default-y="-91" name="verse" number="1"><syllabic>end</syllabic><text font-size="10.8">re</text></lyric></note><note default-x="313"><pitch><step>G</step><octave>4</octave></pitch><duration>1</duration><tie type="start" /><voice>1</voice><type>eighth</type><stem default-y="1.5">up</stem><beam number="1">end</beam><notations><tied type="start" /></notations><lyric default-y="-91" name="verse" number="1"><syllabic>begin</syllabic><text font-size="10.8">Ängs</text></lyric></note><note default-x="408"><pitch><step>G</step><octave>4</octave></pitch><duration>1</duration><tie type="stop" /><voice>1</voice><type>eighth</type><stem default-y="2">up</stem><notations><tied type="stop" /></notations></note><note default-x="502"><pitch><step>B</step><octave>4</octave></pitch><duration>2</duration><voice>1</voice><type>quarter</type><stem default-y="-52">down</stem><lyric default-y="-91" name="verse" number="1"><syllabic>end</syllabic><text font-size="10.8">te</text></lyric></note><note default-x="597"><pitch><step>B</step><octave>4</octave></pitch><duration>1</duration><tie type="start" /><voice>1</voice><type>eighth</type><stem default-y="-52">down</stem><notations><tied type="start" /></notations><lyric default-y="-91" name="verse" number="1"><syllabic>single</syllabic><text font-size="10.8">weg.</text><extend type="start" /></lyric></note></measure><!--=======================================================--><measure number="16" width="176"><harmony default-y="36" font-size="10" font-weight="bold"><root><root-step>B</root-step></root><kind halign="center" text="">major</kind></harmony><note default-x="12"><pitch><step>B</step><octave>4</octave></pitch><duration>6</duration><tie type="stop" /><voice>1</voice><type>half</type><dot /><stem default-y="-52">down</stem><notations><tied type="stop" /></notations><lyric name="verse" number="1"><extend type="stop" /></lyric></note><note default-x="91"><rest /><duration>2</duration><voice>1</voice><type>quarter</type></note><barline location="right"><bar-style>light-light</bar-style></barline></measure><!--=======================================================--><measure number="17" width="344"><print new-system="yes"><system-layout><system-distance>180</system-distance></system-layout></print><harmony default-y="36" font-size="10" font-weight="bold"><root><root-step>A</root-step></root><kind halign="center" text="m7">minor-seventh</kind></harmony><direction placement="above"><direction-type><rehearsal default-y="69" font-weight="bold" relative-x="-17">CHORUS</rehearsal></direction-type></direction><note default-x="92"><pitch><step>B</step><octave>4</octave></pitch><duration>2</duration><voice>1</voice><type>quarter</type><stem default-y="-52">down</stem><notations><slur number="1" placement="above" type="start" /></notations><lyric default-y="-91" name="verse" number="1"><syllabic>begin</syllabic><text font-size="10.8">Je</text></lyric></note><note default-x="141"><pitch><step>A</step><octave>4</octave></pitch><duration>1</duration><voice>1</voice><type>eighth</type><stem default-y="6">up</stem><beam number="1">begin</beam><notations><slur number="1" type="stop" /></notations></note><note default-x="192"><pitch><step>A</step><octave>4</octave></pitch><duration>1</duration><tie type="start" /><voice>1</voice><type>eighth</type><stem default-y="6">up</stem><beam number="1">end</beam><notations><tied type="start" /></notations><lyric default-y="-91" name="verse" number="1"><syllabic>end</syllabic><text font-size="10.8">sus,</text><extend type="start" /></lyric></note><note default-x="242"><pitch><step>A</step><octave>4</octave></pitch><duration>2</duration><tie type="stop" /><voice>1</voice><type>quarter</type><stem default-y="7">up</stem><notations><tied type="stop" /></notations><lyric name="verse" number="1"><extend type="stop" /></lyric></note><note default-x="293"><pitch><step>D</step><octave>4</octave></pitch><duration>2</duration><voice>1</voice><type>quarter</type><stem default-y="-13">up</stem><lyric default-y="-91" name="verse" number="1"><syllabic>single</syllabic><text font-size="10.8">dein</text></lyric></note></measure><!--=======================================================--><measure number="18" width="290"><harmony default-y="36" font-size="10" font-weight="bold"><root><root-step>D</root-step></root><kind halign="center" text="sus">suspended-fourth</kind></harmony><note default-x="29"><pitch><step>B</step><octave>4</octave></pitch><duration>2</duration><voice>1</voice><type>quarter</type><stem default-y="-52">down</stem><notations><slur number="1" placement="above" type="start" /></notations><lyric default-y="-91" name="verse" number="1"><syllabic>single</syllabic><text font-size="10.8">Licht</text><extend type="start" /></lyric></note><note default-x="81"><pitch><step>A</step><octave>4</octave></pitch><duration>1</duration><voice>1</voice><type>eighth</type><stem default-y="6">up</stem><beam number="1">begin</beam><notations><slur number="1" type="stop" /></notations><lyric name="verse" number="1"><extend type="stop" /></lyric></note><harmony default-y="36" font-size="10" font-weight="bold"><root><root-step>D</root-step></root><kind halign="center" text="">major</kind></harmony><note default-x="133"><pitch><step>A</step><octave>4</octave></pitch><duration>1</duration><tie type="start" /><voice>1</voice><type>eighth</type><stem default-y="6">up</stem><beam number="1">end</beam><notations><tied type="start" /></notations><lyric default-y="-91" name="verse" number="1"><syllabic>single</syllabic><text font-size="10.8">scheint</text><extend type="start" /></lyric></note><note default-x="185"><pitch><step>A</step><octave>4</octave></pitch><duration>2</duration><tie type="stop" /><voice>1</voice><type>quarter</type><stem default-y="7">up</stem><notations><tied type="stop" /></notations><lyric name="verse" number="1"><extend type="stop" /></lyric></note><note default-x="237"><pitch><step>D</step><octave>4</octave></pitch><duration>2</duration><voice>1</voice><type>quarter</type><stem default-y="-13">up</stem><lyric default-y="-91" name="verse" number="1"><syllabic>single</syllabic><text font-size="10.8">voll</text></lyric></note></measure><!--=======================================================--><measure number="19" width="263"><harmony default-y="36" font-size="10" font-weight="bold"><root><root-step>G</root-step></root><kind halign="center" text="">major</kind></harmony><note default-x="15"><pitch><step>A</step><octave>4</octave></pitch><duration>2</duration><voice>1</voice><type>quarter</type><stem default-y="7">up</stem><notations><slur number="1" placement="below" type="start" /></notations><lyric default-y="-91" name="verse" number="1"><syllabic>begin</syllabic><text font-size="10.8">Gna</text></lyric></note><note default-x="64"><pitch><step>G</step><octave>4</octave></pitch><duration>1</duration><voice>1</voice><type>eighth</type><stem default-y="1">up</stem><beam number="1">begin</beam><notations><slur number="1" type="stop" /></notations></note><note default-x="113"><pitch><step>G</step><octave>4</octave></pitch><duration>1</duration><tie type="start" /><voice>1</voice><type>eighth</type><stem default-y="1">up</stem><beam number="1">end</beam><notations><tied type="start" /></notations><lyric default-y="-91" name="verse" number="1"><syllabic>end</syllabic><text font-size="10.8">de</text><extend type="start" /></lyric></note><note default-x="163"><pitch><step>G</step><octave>4</octave></pitch><duration>2</duration><tie type="stop" /><voice>1</voice><type>quarter</type><stem default-y="2">up</stem><notations><tied type="stop" /></notations><lyric name="verse" number="1"><extend type="stop" /></lyric></note><note default-x="211"><pitch><step>D</step><octave>4</octave></pitch><duration>2</duration><voice>1</voice><type>quarter</type><stem default-y="-13">up</stem><lyric default-y="-91" name="verse" number="1"><syllabic>single</syllabic><text font-size="10.8">und</text></lyric></note></measure><!--=======================================================--><measure number="20" width="274"><harmony default-y="36" font-size="10" font-weight="bold"><root><root-step>E</root-step></root><kind halign="center" text="m7">minor-seventh</kind></harmony><note default-x="26"><pitch><step>A</step><octave>4</octave></pitch><duration>2</duration><voice>1</voice><type>quarter</type><stem default-y="7">up</stem><notations><slur number="1" placement="below" type="start" /></notations><lyric default-y="-91" name="verse" number="1"><syllabic>begin</syllabic><text font-size="10.8">Wahr</text></lyric></note><note default-x="75"><pitch><step>G</step><octave>4</octave></pitch><duration>1</duration><voice>1</voice><type>eighth</type><stem default-y="1">up</stem><beam number="1">begin</beam><notations><slur number="1" type="stop" /></notations></note><note default-x="125"><pitch><step>G</step><octave>4</octave></pitch><duration>1</duration><tie type="start" /><voice>1</voice><type>eighth</type><stem default-y="1">up</stem><beam number="1">end</beam><notations><tied type="start" /></notations><lyric default-y="-91" name="verse" number="1"><syllabic>end</syllabic><text font-size="10.8">heit.</text><extend type="start" /></lyric></note><note default-x="174"><pitch><step>G</step><octave>4</octave></pitch><duration>2</duration><tie type="stop" /><voice>1</voice><type>quarter</type><stem default-y="2">up</stem><notations><tied type="stop" /></notations><lyric name="verse" number="1"><extend type="stop" /></lyric></note><note default-x="224"><rest /><duration>2</duration><voice>1</voice><type>quarter</type></note></measure><!--=======================================================--><measure number="21" width="349"><print new-page="yes" page-number="2" /><harmony default-y="36" font-size="10" font-weight="bold"><root><root-step>A</root-step></root><kind halign="center" text="m7">minor-seventh</kind></harmony><note default-x="92"><pitch><step>B</step><octave>4</octave></pitch><duration>2</duration><voice>1</voice><type>quarter</type><stem default-y="-51.5">down</stem><notations><slur number="1" placement="above" type="start" /></notations><lyric default-y="-91" name="verse" number="1"><syllabic>begin</syllabic><text font-size="10.8">Je</text></lyric></note><note default-x="143"><pitch><step>A</step><octave>4</octave></pitch><duration>1</duration><voice>1</voice><type>eighth</type><stem default-y="6.5">up</stem><beam number="1">begin</beam><notations><slur number="1" type="stop" /></notations></note><note default-x="194"><pitch><step>A</step><octave>4</octave></pitch><duration>1</duration><tie type="start" /><voice>1</voice><type>eighth</type><stem default-y="6.5">up</stem><beam number="1">end</beam><notations><tied type="start" /></notations><lyric default-y="-91" name="verse" number="1"><syllabic>end</syllabic><text font-size="10.8">sus,</text><extend type="start" /></lyric></note><note default-x="245"><pitch><step>A</step><octave>4</octave></pitch><duration>2</duration><tie type="stop" /><voice>1</voice><type>quarter</type><stem default-y="7">up</stem><notations><tied type="stop" /></notations><lyric name="verse" number="1"><extend type="stop" /></lyric></note><note default-x="296"><pitch><step>D</step><octave>4</octave></pitch><duration>2</duration><voice>1</voice><type>quarter</type><stem default-y="-13">up</stem><lyric default-y="-91" name="verse" number="1"><syllabic>single</syllabic><text font-size="10.8">dein</text></lyric></note></measure><!--=======================================================--><measure number="22" width="344"><harmony default-y="36" font-size="10" font-weight="bold"><root><root-step>D</root-step></root><kind halign="center" text="sus">suspended-fourth</kind></harmony><note default-x="29"><pitch><step>B</step><octave>4</octave></pitch><duration>2</duration><voice>1</voice><type>quarter</type><stem default-y="-51.5">down</stem><notations><slur number="1" placement="above" type="start" /></notations><lyric default-y="-91" name="verse" number="1"><syllabic>single</syllabic><text font-size="10.8">Licht</text><extend type="start" /></lyric></note><note default-x="81"><pitch><step>A</step><octave>4</octave></pitch><duration>1</duration><voice>1</voice><type>eighth</type><stem default-y="6.5">up</stem><beam number="1">begin</beam><notations><slur number="1" type="stop" /></notations><lyric name="verse" number="1"><extend type="stop" /></lyric></note><harmony default-y="36" font-size="10" font-weight="bold"><root><root-step>D</root-step></root><kind halign="center" text="">major</kind></harmony><note default-x="134"><pitch><step>A</step><octave>4</octave></pitch><duration>1</duration><tie type="start" /><voice>1</voice><type>eighth</type><stem default-y="6.5">up</stem><beam number="1">end</beam><notations><tied type="start" /></notations><lyric default-y="-91" name="verse" number="1"><syllabic>single</syllabic><text font-size="10.8">scheint</text><extend type="start" /></lyric></note><note default-x="186"><pitch><step>A</step><octave>4</octave></pitch><duration>2</duration><tie type="stop" /><voice>1</voice><type>quarter</type><stem default-y="7">up</stem><notations><tied type="stop" /></notations><lyric name="verse" number="1"><extend type="stop" /></lyric></note><note default-x="238"><rest /><duration>1</duration><voice>1</voice><type>eighth</type></note><note default-x="290"><pitch><step>B</step><octave>4</octave></pitch><duration>1</duration><voice>1</voice><type>eighth</type><stem default-y="-51.5">down</stem><lyric default-y="-91" name="verse" number="1"><syllabic>single</syllabic><text font-size="10.8">in</text></lyric></note></measure><!--=======================================================--><measure number="23" width="353"><harmony default-y="36" font-size="10" font-weight="bold"><root><root-step>D</root-step><root-alter>1</root-alter></root><kind halign="center" use-symbols="yes">diminished-seventh</kind></harmony><note default-x="19"><pitch><step>C</step><octave>5</octave></pitch><duration>2</duration><voice>1</voice><type>quarter</type><stem default-y="-46.5">down</stem><lyric default-y="-91" name="verse" number="1"><syllabic>begin</syllabic><text font-size="10.8">uns</text></lyric></note><note default-x="74"><pitch><step>C</step><octave>5</octave></pitch><duration>1</duration><voice>1</voice><type>eighth</type><stem default-y="-46">down</stem><beam number="1">begin</beam><lyric default-y="-91" name="verse" number="1"><syllabic>end</syllabic><text font-size="10.8">re</text></lyric></note><note default-x="130"><pitch><step>C</step><octave>5</octave></pitch><duration>1</duration><tie type="start" /><voice>1</voice><type>eighth</type><stem default-y="-46">down</stem><beam number="1">end</beam><notations><tied type="start" /></notations><lyric default-y="-91" name="verse" number="1"><syllabic>begin</syllabic><text font-size="10.8">Dun</text></lyric></note><note default-x="185"><pitch><step>C</step><octave>5</octave></pitch><duration>1</duration><tie type="stop" /><voice>1</voice><type>eighth</type><stem default-y="-46.5">down</stem><notations><tied type="stop" /></notations></note><note default-x="240"><pitch><step>B</step><octave>4</octave></pitch><duration>2</duration><voice>1</voice><type>quarter</type><stem default-y="-51.5">down</stem><lyric default-y="-91" name="verse" number="1"><syllabic>middle</syllabic><text font-size="10.8">kel</text></lyric></note><note default-x="296"><pitch><step>B</step><octave>4</octave></pitch><duration>1</duration><tie type="start" /><voice>1</voice><type>eighth</type><stem default-y="-51.5">down</stem><notations><tied type="start" /></notations><lyric default-y="-91" name="verse" number="1"><syllabic>end</syllabic><text font-size="10.8">heit.</text><extend type="start" /></lyric></note></measure><!--=======================================================--><measure number="24" width="125"><harmony default-y="36" font-size="10" font-weight="bold"><root><root-step>E</root-step></root><kind halign="center" text="m">minor</kind></harmony><note default-x="21"><pitch><step>B</step><octave>4</octave></pitch><duration>6</duration><tie type="stop" /><voice>1</voice><type>half</type><dot /><stem default-y="-51.5">down</stem><notations><tied type="stop" /></notations><lyric name="verse" number="1"><extend type="stop" /></lyric></note><note default-x="72"><rest /><duration>2</duration><voice>1</voice><type>quarter</type></note></measure><!--=======================================================--><measure number="25" width="357"><print new-system="yes"><system-layout><system-distance>180</system-distance></system-layout></print><harmony default-y="36" font-size="10" font-weight="bold"><root><root-step>A</root-step></root><kind halign="center" text="m7">minor-seventh</kind></harmony><note default-x="92"><pitch><step>B</step><octave>4</octave></pitch><duration>2</duration><voice>1</voice><type>quarter</type><stem default-y="-51.5">down</stem><notations><slur number="1" placement="above" type="start" /></notations><lyric default-y="-91" name="verse" number="1"><syllabic>begin</syllabic><text font-size="10.8">Je</text></lyric></note><note default-x="144"><pitch><step>A</step><octave>4</octave></pitch><duration>1</duration><voice>1</voice><type>eighth</type><stem default-y="6.5">up</stem><beam number="1">begin</beam><notations><slur number="1" type="stop" /></notations></note><note default-x="197"><pitch><step>A</step><octave>4</octave></pitch><duration>1</duration><tie type="start" /><voice>1</voice><type>eighth</type><stem default-y="6.5">up</stem><beam number="1">end</beam><notations><tied type="start" /></notations><lyric default-y="-91" name="verse" number="1"><syllabic>end</syllabic><text font-size="10.8">sus,</text><extend type="start" /></lyric></note><note default-x="249"><pitch><step>A</step><octave>4</octave></pitch><duration>2</duration><tie type="stop" /><voice>1</voice><type>quarter</type><stem default-y="7">up</stem><notations><tied type="stop" /></notations><lyric name="verse" number="1"><extend type="stop" /></lyric></note><note default-x="302"><pitch><step>D</step><octave>4</octave></pitch><duration>2</duration><voice>1</voice><type>quarter</type><stem default-y="-13">up</stem><lyric default-y="-91" name="verse" number="1"><syllabic>begin</syllabic><text font-size="10.8">durch</text></lyric></note></measure><!--=======================================================--><measure number="26" width="277"><harmony default-y="36" font-size="10" font-weight="bold"><root><root-step>D</root-step></root><kind halign="center" text="sus">suspended-fourth</kind></harmony><note default-x="29"><pitch><step>B</step><octave>4</octave></pitch><duration>2</duration><voice>1</voice><type>quarter</type><stem default-y="-51.5">down</stem><notations><slur number="1" placement="above" type="start" /></notations><lyric default-y="-91" name="verse" number="1"><syllabic>end</syllabic><text font-size="10.8">dring</text><extend type="start" /></lyric></note><note default-x="78"><pitch><step>A</step><octave>4</octave></pitch><duration>1</duration><voice>1</voice><type>eighth</type><stem default-y="6.5">up</stem><beam number="1">begin</beam><notations><slur number="1" type="stop" /></notations><lyric name="verse" number="1"><extend type="stop" /></lyric></note><harmony default-y="36" font-size="10" font-weight="bold"><root><root-step>D</root-step></root><kind halign="center" text="">major</kind></harmony><note default-x="128"><pitch><step>A</step><octave>4</octave></pitch><duration>1</duration><tie type="start" /><voice>1</voice><type>eighth</type><stem default-y="6.5">up</stem><beam number="1">end</beam><notations><tied type="start" /></notations><lyric default-y="-91" name="verse" number="1"><syllabic>single</syllabic><text font-size="10.8">uns</text><extend type="start" /></lyric></note><note default-x="177"><pitch><step>A</step><octave>4</octave></pitch><duration>2</duration><tie type="stop" /><voice>1</voice><type>quarter</type><stem default-y="7">up</stem><notations><tied type="stop" /></notations><lyric name="verse" number="1"><extend type="stop" /></lyric></note><note default-x="226"><pitch><step>D</step><octave>4</octave></pitch><duration>2</duration><voice>1</voice><type>quarter</type><stem default-y="-13">up</stem><lyric default-y="-91" name="verse" number="1"><syllabic>single</syllabic><text font-size="10.8">mit</text></lyric></note></measure><!--=======================================================--><measure number="27" width="262"><harmony default-y="36" font-size="10" font-weight="bold"><root><root-step>G</root-step></root><kind halign="center" text="">major</kind></harmony><note default-x="15"><pitch><step>A</step><octave>4</octave></pitch><duration>2</duration><voice>1</voice><type>quarter</type><stem default-y="7">up</stem><notations><slur number="1" placement="below" type="start" /></notations><lyric default-y="-91" name="verse" number="1"><syllabic>begin</syllabic><text font-size="10.8">Gna</text></lyric></note><note default-x="64"><pitch><step>G</step><octave>4</octave></pitch><duration>1</duration><voice>1</voice><type>eighth</type><stem default-y="2">up</stem><beam number="1">begin</beam><notations><slur number="1" type="stop" /></notations></note><note default-x="113"><pitch><step>G</step><octave>4</octave></pitch><duration>1</duration><tie type="start" /><voice>1</voice><type>eighth</type><stem default-y="2">up</stem><beam number="1">end</beam><notations><tied type="start" /></notations><lyric default-y="-91" name="verse" number="1"><syllabic>end</syllabic><text font-size="10.8">de</text><extend type="start" /></lyric></note><note default-x="162"><pitch><step>G</step><octave>4</octave></pitch><duration>2</duration><tie type="stop" /><voice>1</voice><type>quarter</type><stem default-y="2">up</stem><notations><tied type="stop" /></notations><lyric name="verse" number="1"><extend type="stop" /></lyric></note><note default-x="211"><pitch><step>D</step><octave>4</octave></pitch><duration>2</duration><voice>1</voice><type>quarter</type><stem default-y="-13">up</stem><lyric default-y="-91" name="verse" number="1"><syllabic>single</syllabic><text font-size="10.8">und</text></lyric></note></measure><!--=======================================================--><measure number="28" width="274"><harmony default-y="36" font-size="10" font-weight="bold"><root><root-step>E</root-step></root><kind halign="center" text="m7">minor-seventh</kind></harmony><note default-x="26"><pitch><step>A</step><octave>4</octave></pitch><duration>2</duration><voice>1</voice><type>quarter</type><stem default-y="7">up</stem><notations><slur number="1" placement="below" type="start" /></notations><lyric default-y="-91" name="verse" number="1"><syllabic>begin</syllabic><text font-size="10.8">Wahr</text></lyric></note><note default-x="76"><pitch><step>G</step><octave>4</octave></pitch><duration>1</duration><voice>1</voice><type>eighth</type><stem default-y="2">up</stem><beam number="1">begin</beam><notations><slur number="1" type="stop" /></notations></note><note default-x="125"><pitch><step>G</step><octave>4</octave></pitch><duration>1</duration><tie type="start" /><voice>1</voice><type>eighth</type><stem default-y="2">up</stem><beam number="1">end</beam><notations><tied type="start" /></notations><lyric default-y="-91" name="verse" number="1"><syllabic>end</syllabic><text font-size="10.8">heit.</text><extend type="start" /></lyric></note><note default-x="174"><pitch><step>G</step><octave>4</octave></pitch><duration>2</duration><tie type="stop" /><voice>1</voice><type>quarter</type><stem default-y="2">up</stem><notations><tied type="stop" /></notations><lyric name="verse" number="1"><extend type="stop" /></lyric></note><note default-x="224"><rest /><duration>2</duration><voice>1</voice><type>quarter</type></note></measure><!--=======================================================--><measure number="29" width="509"><print new-system="yes"><system-layout><system-distance>180</system-distance></system-layout></print><harmony default-y="36" font-size="10" font-weight="bold"><root><root-step>A</root-step></root><kind halign="center" text="m7">minor-seventh</kind></harmony><note default-x="92"><pitch><step>B</step><octave>4</octave></pitch><duration>2</duration><voice>1</voice><type>quarter</type><stem default-y="-52">down</stem><notations><slur number="1" placement="above" type="start" /></notations><lyric default-y="-91" name="verse" number="1"><syllabic>begin</syllabic><text font-size="10.8">Je</text></lyric></note><note default-x="175"><pitch><step>A</step><octave>4</octave></pitch><duration>1</duration><voice>1</voice><type>eighth</type><stem default-y="6">up</stem><beam number="1">begin</beam><notations><slur number="1" type="stop" /></notations></note><note default-x="258"><pitch><step>A</step><octave>4</octave></pitch><duration>1</duration><tie type="start" /><voice>1</voice><type>eighth</type><stem default-y="6">up</stem><beam number="1">end</beam><notations><tied type="start" /></notations><lyric default-y="-91" name="verse" number="1"><syllabic>end</syllabic><text font-size="10.8">sus,</text><extend type="start" /></lyric></note><note default-x="341"><pitch><step>A</step><octave>4</octave></pitch><duration>2</duration><tie type="stop" /><voice>1</voice><type>quarter</type><stem default-y="7">up</stem><notations><tied type="stop" /></notations><lyric name="verse" number="1"><extend type="stop" /></lyric></note><note default-x="424"><pitch><step>D</step><octave>4</octave></pitch><duration>2</duration><voice>1</voice><type>quarter</type><stem default-y="-13">up</stem><lyric default-y="-91" name="verse" number="1"><syllabic>single</syllabic><text font-size="10.8">komm</text></lyric></note></measure><!--=======================================================--><measure number="30" width="412"><harmony default-y="36" font-size="10" font-weight="bold"><root><root-step>D</root-step></root><kind halign="center" text="sus">suspended-fourth</kind></harmony><note default-x="29"><pitch><step>B</step><octave>4</octave></pitch><duration>2</duration><voice>1</voice><type>quarter</type><stem default-y="-52">down</stem><notations><slur number="1" placement="above" type="start" /></notations><lyric default-y="-91" name="verse" number="1"><syllabic>single</syllabic><text font-size="10.8">bring</text><extend type="start" /></lyric></note><note default-x="105"><pitch><step>A</step><octave>4</octave></pitch><duration>1</duration><voice>1</voice><type>eighth</type><stem default-y="6">up</stem><beam number="1">begin</beam><notations><slur number="1" type="stop" /></notations><lyric name="verse" number="1"><extend type="stop" /></lyric></note><harmony default-y="36" font-size="10" font-weight="bold"><root><root-step>D</root-step></root><kind halign="center" text="">major</kind></harmony><note default-x="182"><pitch><step>A</step><octave>4</octave></pitch><duration>1</duration><tie type="start" /><voice>1</voice><type>eighth</type><stem default-y="6">up</stem><beam number="1">end</beam><notations><tied type="start" /></notations><lyric default-y="-91" name="verse" number="1"><syllabic>single</syllabic><text font-size="10.8">uns</text><extend type="start" /></lyric></note><note default-x="258"><pitch><step>A</step><octave>4</octave></pitch><duration>2</duration><tie type="stop" /><voice>1</voice><type>quarter</type><stem default-y="7">up</stem><notations><tied type="stop" /></notations><lyric name="verse" number="1"><extend type="stop" /></lyric></note><note default-x="334"><pitch><step>G</step><octave>4</octave></pitch><duration>2</duration><voice>1</voice><type>quarter</type><stem default-y="2">up</stem><lyric default-y="-91" name="verse" number="1"><syllabic>single</syllabic><text font-size="10.8">ins</text></lyric></note></measure><!--=======================================================--><measure number="31" width="125"><harmony default-y="36" font-size="10" font-weight="bold"><root><root-step>G</root-step></root><kind halign="center" text="">major</kind></harmony><note default-x="20"><pitch><step>G</step><octave>4</octave></pitch><duration>8</duration><voice>1</voice><type>whole</type><lyric default-y="-91" name="verse" number="1"><syllabic>single</syllabic><text font-size="10.8">Licht.</text></lyric></note></measure><!--=======================================================--><measure number="32" width="124"><note><rest measure="yes" /><duration>8</duration><voice>1</voice></note><barline location="right"><bar-style>light-heavy</bar-style></barline></measure></part><!--=========================================================--></score-partwise>