<?xml version="1.0" encoding="UTF-8" standalone="no"?><!DOCTYPE score-partwise PUBLIC "-//Recordare//DTD MusicXML 3.0 Partwise//EN" "http://www.musicxml.org/dtds/3.0/partwise.dtd"[]><score-partwise version="3.0"><movement-title>Wenn die Last der Welt</movement-title><identification><creator type="composer">Mark Heard</creator><creator type="lyricist">Christoph Zehendner</creator><encoding><software>Finale v26.3 for Windows</software><encoding-date>2022-03-10</encoding-date><supports attribute="new-system" element="print" type="yes" value="yes" /><supports attribute="new-page" element="print" type="yes" value="yes" /><supports element="accidental" type="yes" /><supports element="beam" type="yes" /><supports element="stem" type="yes" /></encoding><rights>CCLI-Liednummer 5515413
© 1983 Curb Word Music
Nutzung ausschließlich im Rahmen der SongSelect®-Nutzungsbedingungen. Alle Rechte vorbehalten. www.ccli.com
CCLI-Lizenznummer 2182334
</rights></identification><defaults><scaling><millimeters>6.5088</millimeters><tenths>40</tenths></scaling><page-layout><page-height>1717</page-height><page-width>1327</page-width><page-margins type="both"><left-margin>78</left-margin><right-margin>78</right-margin><top-margin>78</top-margin><bottom-margin>78</bottom-margin></page-margins></page-layout><system-layout><system-margins><left-margin>0</left-margin><right-margin>0</right-margin></system-margins><system-distance>215</system-distance><top-system-distance>117</top-system-distance></system-layout><appearance><line-width type="stem">1.4583</line-width><line-width type="beam">5</line-width><line-width type="staff">1.25</line-width><line-width type="light barline">1.4583</line-width><line-width type="heavy barline">5</line-width><line-width type="leger">1.875</line-width><line-width type="ending">1.4583</line-width><line-width type="wedge">1.4583</line-width><line-width type="enclosure">1.4583</line-width><line-width type="tuplet bracket">1.4583</line-width><note-size type="grace">50</note-size><note-size type="cue">50</note-size><distance type="hyphen">240</distance><distance type="beam">7.5</distance></appearance><music-font font-family="Maestro,engraved" font-size="18.5" /><word-font font-family="Arial" font-size="9.2" /><lyric-font font-family="Georgia" font-size="10.8" name="verse" /><lyric-font font-family="Arial" font-size="10.8" name="section" /></defaults><credit page="1"><credit-type>title</credit-type><credit-words default-x="663" default-y="1649" font-size="21.6" font-weight="bold" justify="center" valign="top">Wenn die Last der Welt</credit-words></credit><credit page="1"><credit-words default-x="1249" default-y="1576" font-size="10.8" font-style="italic" justify="right" valign="top">Text und Musik:</credit-words></credit><credit page="1"><credit-words default-x="78" default-y="1576" font-size="10.8" font-style="italic" valign="top">Deutsch:</credit-words></credit><credit page="1"><credit-type>lyricist</credit-type><credit-words default-x="78" default-y="1552" font-size="10.8" font-weight="bold" valign="top">Christoph Zehendner</credit-words></credit><credit page="1"><credit-type>composer</credit-type><credit-words default-x="1249" default-y="1552" font-size="10.8" font-weight="bold" justify="right" valign="top">Mark Heard</credit-words></credit><part-list><score-part id="P1"><part-name print-object="no">Vocals</part-name><score-instrument id="P1-I2"><instrument-name>Melody</instrument-name></score-instrument><midi-instrument id="P1-I2"><midi-channel>1</midi-channel><midi-program>1</midi-program><volume>80</volume><pan>0</pan></midi-instrument></score-part></part-list><!--=========================================================--><part id="P1"><measure implicit="yes" number="0" width="336"><print><page-layout><page-height>1717</page-height><page-width>1327</page-width><page-margins><left-margin>78</left-margin><right-margin>78</right-margin><top-margin>190</top-margin><bottom-margin>163</bottom-margin></page-margins></page-layout><system-layout><system-margins><left-margin>68</left-margin><right-margin>0</right-margin></system-margins></system-layout><measure-numbering>system</measure-numbering></print><attributes><divisions>2</divisions><key><fifths>-1</fifths><mode>major</mode></key><time><beats>4</beats><beat-type>4</beat-type></time><clef><sign>G</sign><line>2</line></clef></attributes><sound tempo="96" /><note default-x="146"><pitch><step>F</step><octave>4</octave></pitch><duration>1</duration><voice>1</voice><type>eighth</type><stem default-y="-4">up</stem><beam number="1">begin</beam><lyric default-y="-91" name="verse" number="1"><syllabic>single</syllabic><text font-size="10.8">1.</text><elision> </elision><syllabic>single</syllabic><text font-size="10.8">Wenn</text><elision> </elision><syllabic>single</syllabic><text font-size="10.8" /><elision> </elision><syllabic>single</syllabic><text font-size="10.8" /><elision> </elision><syllabic>single</syllabic><text font-size="10.8" /><elision> </elision><syllabic>single</syllabic><text font-size="10.8" /></lyric><lyric default-y="-115" name="verse" number="2"><syllabic>single</syllabic><text font-size="10.8">2.</text><elision> </elision><syllabic>single</syllabic><text font-size="10.8">Wenn</text><elision> </elision><syllabic>single</syllabic><text font-size="10.8" /><elision> </elision><syllabic>single</syllabic><text font-size="10.8" /><elision> </elision><syllabic>single</syllabic><text font-size="10.8" /><elision> </elision><syllabic>single</syllabic><text font-size="10.8" /></lyric><lyric default-y="-140" name="verse" number="3"><syllabic>single</syllabic><text font-size="10.8">3.</text><elision> </elision><syllabic>single</syllabic><text font-size="10.8">Wenn</text><elision> </elision><syllabic>single</syllabic><text font-size="10.8" /><elision> </elision><syllabic>single</syllabic><text font-size="10.8" /><elision> </elision><syllabic>single</syllabic><text font-size="10.8" /><elision> </elision><syllabic>single</syllabic><text font-size="10.8" /></lyric></note><note default-x="237"><pitch><step>G</step><octave>4</octave></pitch><duration>1</duration><voice>1</voice><type>eighth</type><stem default-y="1">up</stem><beam number="1">end</beam><lyric default-y="-91" name="verse" number="1"><syllabic>single</syllabic><text font-size="10.8">die</text></lyric><lyric default-y="-115" name="verse" number="2"><syllabic>single</syllabic><text font-size="10.8">du</text></lyric><lyric default-y="-140" name="verse" number="3"><syllabic>single</syllabic><text font-size="10.8">die</text></lyric></note><barline location="right"><bar-style>light-light</bar-style></barline></measure><!--=======================================================--><measure number="1" width="455"><harmony default-y="36" font-size="10" font-weight="bold"><root><root-step>F</root-step></root><kind halign="center" text="maj7">major-seventh</kind></harmony><direction placement="above"><direction-type><rehearsal default-y="69" font-weight="bold" relative-x="-5">VERS</rehearsal></direction-type></direction><note default-x="33"><pitch><step>A</step><octave>4</octave></pitch><duration>2</duration><voice>1</voice><type>quarter</type><stem default-y="6">up</stem><lyric default-y="-91" name="verse" number="1"><syllabic>single</syllabic><text font-size="10.8">Last</text></lyric><lyric default-y="-115" name="verse" number="2"><syllabic>begin</syllabic><text font-size="10.8">kraft</text></lyric><lyric default-y="-140" name="verse" number="3"><syllabic>begin</syllabic><text font-size="10.8">Mensch</text></lyric></note><note default-x="109"><pitch><step>A</step><octave>4</octave></pitch><duration>1</duration><voice>1</voice><type>eighth</type><stem default-y="6">up</stem><beam number="1">begin</beam><lyric default-y="-91" name="verse" number="1"><syllabic>single</syllabic><text font-size="10.8">der</text></lyric><lyric default-y="-115" name="verse" number="2"><syllabic>end</syllabic><text font-size="10.8">los</text></lyric><lyric default-y="-140" name="verse" number="3"><syllabic>end</syllabic><text font-size="10.8">heit</text></lyric></note><note default-x="182"><pitch><step>A</step><octave>4</octave></pitch><duration>1</duration><tie type="start" /><voice>1</voice><type>eighth</type><stem default-y="6">up</stem><beam number="1">end</beam><notations><tied type="start" /></notations><lyric default-y="-91" name="verse" number="1"><syllabic>single</syllabic><text font-size="10.8">Welt</text><extend type="start" /></lyric><lyric default-y="-115" name="verse" number="2"><syllabic>single</syllabic><text font-size="10.8">bist</text><extend type="start" /></lyric><lyric default-y="-140" name="verse" number="3"><syllabic>single</syllabic><text font-size="10.8">vor</text><extend type="start" /></lyric></note><note default-x="248"><pitch><step>A</step><octave>4</octave></pitch><duration>1</duration><tie type="stop" /><voice>1</voice><type>eighth</type><stem default-y="6">up</stem><beam number="1">begin</beam><notations><tied type="stop" /></notations><lyric name="verse" number="1"><extend type="stop" /></lyric><lyric name="verse" number="2"><extend type="stop" /></lyric><lyric name="verse" number="3"><extend type="stop" /></lyric></note><note default-x="316"><pitch><step>G</step><octave>4</octave></pitch><duration>1</duration><voice>1</voice><type>eighth</type><stem default-y="1">up</stem><beam number="1">end</beam><lyric default-y="-91" name="verse" number="1"><syllabic>single</syllabic><text font-size="10.8">dir</text></lyric><lyric default-y="-115" name="verse" number="2"><syllabic>single</syllabic><text font-size="10.8">und</text></lyric><lyric default-y="-140" name="verse" number="3"><syllabic>begin</syllabic><text font-size="10.8">ih</text></lyric></note><note default-x="387"><pitch><step>F</step><octave>4</octave></pitch><duration>2</duration><voice>1</voice><type>quarter</type><stem default-y="-4">up</stem><lyric default-y="-91" name="verse" number="1"><syllabic>single</syllabic><text font-size="10.8">zu</text></lyric><lyric default-y="-115" name="verse" number="2"><syllabic>begin</syllabic><text font-size="10.8">ver</text></lyric><lyric default-y="-140" name="verse" number="3"><syllabic>end</syllabic><text font-size="10.8">rem</text></lyric></note></measure><!--=======================================================--><measure number="2" width="311"><harmony default-y="36" font-size="10" font-weight="bold"><root><root-step>G</root-step></root><kind halign="center" text="m7">minor-seventh</kind></harmony><note default-x="28"><pitch><step>F</step><octave>4</octave></pitch><duration>2</duration><voice>1</voice><type>quarter</type><stem default-y="-4">up</stem><lyric default-y="-91" name="verse" number="1"><syllabic>begin</syllabic><text font-size="10.8">schaf</text></lyric><lyric default-y="-115" name="verse" number="2"><syllabic>middle</syllabic><text font-size="10.8">zwei</text></lyric><lyric default-y="-140" name="verse" number="3"><syllabic>begin</syllabic><text font-size="10.8">En</text></lyric></note><note default-x="98"><pitch><step>D</step><octave>4</octave></pitch><duration>1</duration><voice>1</voice><type>eighth</type><stem default-y="-13.5">up</stem><beam number="1">begin</beam><lyric default-y="-91" name="verse" number="1"><syllabic>end</syllabic><text font-size="10.8">fen</text></lyric><lyric default-y="-115" name="verse" number="2"><syllabic>end</syllabic><text font-size="10.8">felt</text></lyric><lyric default-y="-140" name="verse" number="3"><syllabic>end</syllabic><text font-size="10.8">de</text></lyric></note><note default-x="169"><pitch><step>C</step><octave>4</octave></pitch><duration>1</duration><tie type="start" /><voice>1</voice><type>eighth</type><stem default-y="-19">up</stem><beam number="1">end</beam><notations><tied type="start" /></notations><lyric default-y="-91" name="verse" number="1"><syllabic>single</syllabic><text font-size="10.8">macht,</text><extend type="start" /></lyric><lyric default-y="-115" name="verse" number="2"><syllabic>single</syllabic><text font-size="10.8">weinst,</text><extend type="start" /></lyric><lyric default-y="-140" name="verse" number="3"><syllabic>single</syllabic><text font-size="10.8">steht,</text><extend type="start" /></lyric></note><harmony default-y="36" font-size="10" font-weight="bold"><root><root-step>C</root-step></root><kind halign="center" text="7">dominant</kind></harmony><note default-x="239"><pitch><step>C</step><octave>4</octave></pitch><duration>4</duration><tie type="stop" /><voice>1</voice><type>half</type><stem default-y="-19">up</stem><notations><tied type="stop" /></notations><lyric name="verse" number="1"><extend type="stop" /></lyric><lyric name="verse" number="2"><extend type="stop" /></lyric><lyric name="verse" number="3"><extend type="stop" /></lyric></note></measure><!--=======================================================--><measure number="3" width="441"><print new-system="yes"><system-layout><system-distance>200</system-distance></system-layout></print><harmony default-y="36" font-size="10" font-weight="bold"><root><root-step>D</root-step></root><kind halign="center" text="m7">minor-seventh</kind></harmony><note default-x="89"><pitch><step>F</step><octave>4</octave></pitch><duration>2</duration><voice>1</voice><type>quarter</type><stem default-y="-4">up</stem><lyric default-y="-91" name="verse" number="1"><syllabic>single</syllabic><text font-size="10.8">hört</text></lyric><lyric default-y="-115" name="verse" number="2"><syllabic>single</syllabic><text font-size="10.8">hört</text></lyric><lyric default-y="-140" name="verse" number="3"><syllabic>single</syllabic><text font-size="10.8">hört</text></lyric></note><note default-x="147"><pitch><step>F</step><octave>4</octave></pitch><duration>2</duration><voice>1</voice><type>quarter</type><stem default-y="-4">up</stem><lyric default-y="-91" name="verse" number="1"><syllabic>single</syllabic><text font-size="10.8">er</text></lyric><lyric default-y="-115" name="verse" number="2"><syllabic>single</syllabic><text font-size="10.8">er</text></lyric><lyric default-y="-140" name="verse" number="3"><syllabic>single</syllabic><text font-size="10.8">er</text></lyric></note><harmony default-y="36" font-size="10" font-weight="bold"><root><root-step>C</root-step></root><kind halign="center" text="7">dominant</kind></harmony><note default-x="205"><pitch><step>G</step><octave>4</octave></pitch><duration>1</duration><voice>1</voice><type>eighth</type><stem default-y="1">up</stem><beam number="1">begin</beam><notations><slur bezier-x="11" bezier-y="-12" default-x="6" default-y="-43" number="1" placement="below" type="start" /></notations><lyric default-y="-91" name="verse" number="1"><syllabic>single</syllabic><text font-size="10.8">dein</text><extend type="start" /></lyric><lyric default-y="-115" name="verse" number="2"><syllabic>single</syllabic><text font-size="10.8">dein</text><extend type="start" /></lyric><lyric default-y="-140" name="verse" number="3"><syllabic>single</syllabic><text font-size="10.8">dein</text><extend type="start" /></lyric></note><note default-x="264"><pitch><step>F</step><octave>4</octave></pitch><duration>1</duration><voice>1</voice><type>eighth</type><stem default-y="-4">up</stem><beam number="1">end</beam><notations><slur bezier-x="-12" bezier-y="-12" default-x="6" default-y="-45" number="1" type="stop" /></notations><lyric name="verse" number="1"><extend type="stop" /></lyric><lyric name="verse" number="2"><extend type="stop" /></lyric><lyric name="verse" number="3"><extend type="stop" /></lyric></note><note default-x="322"><pitch><step>G</step><octave>4</octave></pitch><duration>1</duration><voice>1</voice><type>eighth</type><stem default-y="1">up</stem><beam number="1">begin</beam><lyric default-y="-91" name="verse" number="1"><syllabic>begin</syllabic><text font-size="10.8">Ge</text></lyric><lyric default-y="-115" name="verse" number="2"><syllabic>begin</syllabic><text font-size="10.8">Ge</text></lyric><lyric default-y="-140" name="verse" number="3"><syllabic>begin</syllabic><text font-size="10.8">Ge</text></lyric></note><note default-x="381"><pitch><step>A</step><octave>4</octave></pitch><duration>1</duration><tie type="start" /><voice>1</voice><type>eighth</type><stem default-y="6">up</stem><beam number="1">end</beam><notations><tied type="start" /></notations><lyric default-y="-91" name="verse" number="1"><syllabic>end</syllabic><text font-size="10.8">bet.</text><extend type="start" /></lyric><lyric default-y="-115" name="verse" number="2"><syllabic>end</syllabic><text font-size="10.8">bet.</text><extend type="start" /></lyric><lyric default-y="-140" name="verse" number="3"><syllabic>end</syllabic><text font-size="10.8">bet.</text><extend type="start" /></lyric></note></measure><!--=======================================================--><measure number="4" width="294"><harmony default-y="36" font-size="10" font-weight="bold"><root><root-step>F</root-step></root><kind halign="center" text="maj7">major-seventh</kind></harmony><note default-x="34"><pitch><step>A</step><octave>4</octave></pitch><duration>4</duration><tie type="stop" /><voice>1</voice><type>half</type><stem default-y="6">up</stem><notations><tied type="stop" /></notations><lyric name="verse" number="1"><extend type="stop" /></lyric><lyric name="verse" number="2"><extend type="stop" /></lyric><lyric name="verse" number="3"><extend type="stop" /></lyric></note><note default-x="97"><rest /><duration>2</duration><voice>1</voice><type>quarter</type></note><note default-x="159"><pitch><step>F</step><octave>4</octave></pitch><duration>1</duration><voice>1</voice><type>eighth</type><stem default-y="-4">up</stem><beam number="1">begin</beam><lyric default-y="-91" name="verse" number="1"><syllabic>single</syllabic><text font-size="10.8">Wenn</text></lyric><lyric default-y="-115" name="verse" number="2"><syllabic>single</syllabic><text font-size="10.8">Wenn</text></lyric><lyric default-y="-140" name="verse" number="3"><syllabic>single</syllabic><text font-size="10.8">Wenn</text></lyric></note><note default-x="229"><pitch><step>G</step><octave>4</octave></pitch><duration>1</duration><voice>1</voice><type>eighth</type><stem default-y="1">up</stem><beam number="1">end</beam><lyric default-y="-91" name="verse" number="1"><syllabic>single</syllabic><text font-size="10.8">dich</text></lyric><lyric default-y="-115" name="verse" number="2"><syllabic>single</syllabic><text font-size="10.8">du</text></lyric><lyric default-y="-140" name="verse" number="3"><syllabic>single</syllabic><text font-size="10.8">die</text></lyric></note></measure><!--=======================================================--><measure number="5" width="436"><note default-x="28"><pitch><step>A</step><octave>4</octave></pitch><duration>2</duration><voice>1</voice><type>quarter</type><stem default-y="6">up</stem><lyric default-y="-91" name="verse" number="1"><syllabic>single</syllabic><text font-size="10.8">Furcht</text></lyric><lyric default-y="-115" name="verse" number="2"><syllabic>begin</syllabic><text font-size="10.8">ängst</text></lyric><lyric default-y="-140" name="verse" number="3"><syllabic>begin</syllabic><text font-size="10.8">Son</text></lyric></note><note default-x="98"><pitch><step>A</step><octave>4</octave></pitch><duration>1</duration><voice>1</voice><type>eighth</type><stem default-y="6">up</stem><beam number="1">begin</beam><lyric default-y="-91" name="verse" number="1"><syllabic>begin</syllabic><text font-size="10.8">be</text></lyric><lyric default-y="-115" name="verse" number="2"><syllabic>end</syllabic><text font-size="10.8">lich</text></lyric><lyric default-y="-140" name="verse" number="3"><syllabic>end</syllabic><text font-size="10.8">ne</text></lyric></note><note default-x="167"><pitch><step>A</step><octave>4</octave></pitch><duration>1</duration><tie type="start" /><voice>1</voice><type>eighth</type><stem default-y="6">up</stem><beam number="1">end</beam><notations><tied type="start" /></notations><lyric default-y="-91" name="verse" number="1"><syllabic>end</syllabic><text font-size="10.8">fällt</text><extend type="start" /></lyric><lyric default-y="-115" name="verse" number="2"><syllabic>single</syllabic><text font-size="10.8">bist</text><extend type="start" /></lyric><lyric default-y="-140" name="verse" number="3"><syllabic>single</syllabic><text font-size="10.8">sinkt</text><extend type="start" /></lyric></note><note default-x="233"><pitch><step>A</step><octave>4</octave></pitch><duration>1</duration><tie type="stop" /><voice>1</voice><type>eighth</type><stem default-y="6">up</stem><beam number="1">begin</beam><notations><tied type="stop" /></notations><lyric name="verse" number="1"><extend type="stop" /></lyric><lyric name="verse" number="2"><extend type="stop" /></lyric><lyric name="verse" number="3"><extend type="stop" /></lyric></note><note default-x="300"><pitch><step>G</step><octave>4</octave></pitch><duration>1</duration><voice>1</voice><type>eighth</type><stem default-y="1">up</stem><beam number="1">end</beam><lyric default-y="-91" name="verse" number="1"><syllabic>single</syllabic><text font-size="10.8">vor</text></lyric><lyric default-y="-115" name="verse" number="2"><syllabic>single</syllabic><text font-size="10.8">und</text></lyric><lyric default-y="-140" name="verse" number="3"><syllabic>single</syllabic><text font-size="10.8">und</text></lyric></note><note default-x="368"><pitch><step>F</step><octave>4</octave></pitch><duration>2</duration><voice>1</voice><type>quarter</type><stem default-y="-4">up</stem><lyric default-y="-91" name="verse" number="1"><syllabic>single</syllabic><text font-size="10.8">der</text></lyric><lyric default-y="-115" name="verse" number="2"><syllabic>single</syllabic><text font-size="10.8">dich</text></lyric><lyric default-y="-140" name="verse" number="3"><syllabic>single</syllabic><text font-size="10.8">die</text></lyric></note></measure><!--=======================================================--><measure number="6" width="311"><print new-system="yes"><system-layout><system-distance>200</system-distance></system-layout></print><harmony default-y="36" font-size="10" font-weight="bold"><root><root-step>G</root-step></root><kind halign="center" text="m7">minor-seventh</kind></harmony><note default-x="90"><pitch><step>F</step><octave>4</octave></pitch><duration>2</duration><voice>1</voice><type>quarter</type><stem default-y="-4">up</stem><lyric default-y="-91" name="verse" number="1"><syllabic>begin</syllabic><text font-size="10.8">lan</text></lyric><lyric default-y="-115" name="verse" number="2"><syllabic>single</syllabic><text font-size="10.8">selbst</text></lyric><lyric default-y="-140" name="verse" number="3"><syllabic>single</syllabic><text font-size="10.8">Welt</text></lyric></note><note default-x="155"><pitch><step>D</step><octave>4</octave></pitch><duration>1</duration><voice>1</voice><type>eighth</type><stem default-y="-13.5">up</stem><beam number="1">begin</beam><lyric default-y="-91" name="verse" number="1"><syllabic>end</syllabic><text font-size="10.8">gen</text></lyric><lyric default-y="-115" name="verse" number="2"><syllabic>begin</syllabic><text font-size="10.8">ver</text></lyric><lyric default-y="-140" name="verse" number="3"><syllabic>begin</syllabic><text font-size="10.8">ver</text></lyric></note><note default-x="225"><pitch><step>C</step><octave>4</octave></pitch><duration>1</duration><tie type="start" /><voice>1</voice><type>eighth</type><stem default-y="-18">up</stem><beam number="1">end</beam><notations><tied type="start" /></notations><lyric default-y="-91" name="verse" number="1"><syllabic>single</syllabic><text font-size="10.8">Nacht,</text><extend type="start" /></lyric><lyric default-y="-115" name="verse" number="2"><syllabic>end</syllabic><text font-size="10.8">neinst,</text><extend type="start" /></lyric><lyric default-y="-140" name="verse" number="3"><syllabic>end</syllabic><text font-size="10.8">geht,</text><extend type="start" /></lyric></note><harmony default-y="36" font-size="10" font-weight="bold"><root><root-step>C</root-step></root><kind halign="center" text="7">dominant</kind></harmony><note default-x="267"><pitch><step>C</step><octave>4</octave></pitch><duration>4</duration><tie type="stop" /><voice>1</voice><type>half</type><stem default-y="-18">up</stem><notations><tied type="stop" /></notations><lyric name="verse" number="1"><extend type="stop" /></lyric><lyric name="verse" number="2"><extend type="stop" /></lyric><lyric name="verse" number="3"><extend type="stop" /></lyric></note></measure><!--=======================================================--><measure number="7" width="304"><harmony default-y="36" font-size="10" font-weight="bold"><root><root-step>D</root-step></root><kind halign="center" text="m7">minor-seventh</kind></harmony><note default-x="27"><pitch><step>F</step><octave>4</octave></pitch><duration>2</duration><voice>1</voice><type>quarter</type><stem default-y="-4">up</stem><lyric default-y="-91" name="verse" number="1"><syllabic>single</syllabic><text font-size="10.8">hört</text></lyric><lyric default-y="-115" name="verse" number="2"><syllabic>single</syllabic><text font-size="10.8">hört</text></lyric><lyric default-y="-140" name="verse" number="3"><syllabic>single</syllabic><text font-size="10.8">hört</text></lyric></note><note default-x="76"><pitch><step>F</step><octave>4</octave></pitch><duration>2</duration><voice>1</voice><type>quarter</type><stem default-y="-4">up</stem><lyric default-y="-91" name="verse" number="1"><syllabic>single</syllabic><text font-size="10.8">er</text></lyric><lyric default-y="-115" name="verse" number="2"><syllabic>single</syllabic><text font-size="10.8">er</text></lyric><lyric default-y="-140" name="verse" number="3"><syllabic>single</syllabic><text font-size="10.8">er</text></lyric></note><harmony default-y="36" font-size="10" font-weight="bold"><root><root-step>C</root-step></root><kind halign="center" text="7">dominant</kind></harmony><note default-x="126"><pitch><step>G</step><octave>4</octave></pitch><duration>1</duration><voice>1</voice><type>eighth</type><stem default-y="1">up</stem><beam number="1">begin</beam><notations><slur bezier-x="10" bezier-y="-10" default-x="6" default-y="-43" number="1" placement="below" type="start" /></notations><lyric default-y="-91" name="verse" number="1"><syllabic>single</syllabic><text font-size="10.8">dein</text><extend type="start" /></lyric><lyric default-y="-115" name="verse" number="2"><syllabic>single</syllabic><text font-size="10.8">dein</text><extend type="start" /></lyric><lyric default-y="-140" name="verse" number="3"><syllabic>single</syllabic><text font-size="10.8">dein</text><extend type="start" /></lyric></note><note default-x="167"><pitch><step>F</step><octave>4</octave></pitch><duration>1</duration><voice>1</voice><type>eighth</type><stem default-y="-4">up</stem><beam number="1">end</beam><notations><slur bezier-x="-10" bezier-y="-10" default-x="6" default-y="-45" number="1" type="stop" /></notations><lyric name="verse" number="1"><extend type="stop" /></lyric><lyric name="verse" number="2"><extend type="stop" /></lyric><lyric name="verse" number="3"><extend type="stop" /></lyric></note><note default-x="210"><pitch><step>E</step><octave>4</octave></pitch><duration>1</duration><voice>1</voice><type>eighth</type><stem default-y="-8.5">up</stem><beam number="1">begin</beam><lyric default-y="-91" name="verse" number="1"><syllabic>begin</syllabic><text font-size="10.8">Ge</text></lyric><lyric default-y="-115" name="verse" number="2"><syllabic>begin</syllabic><text font-size="10.8">Ge</text></lyric><lyric default-y="-140" name="verse" number="3"><syllabic>begin</syllabic><text font-size="10.8">Ge</text></lyric></note><note default-x="260"><pitch><step>F</step><octave>4</octave></pitch><duration>1</duration><tie type="start" /><voice>1</voice><type>eighth</type><stem default-y="-4">up</stem><beam number="1">end</beam><notations><tied type="start" /></notations><lyric default-y="-91" name="verse" number="1"><syllabic>end</syllabic><text font-size="10.8">bet.</text><extend type="start" /></lyric><lyric default-y="-115" name="verse" number="2"><syllabic>end</syllabic><text font-size="10.8">bet.</text><extend type="start" /></lyric><lyric default-y="-140" name="verse" number="3"><syllabic>end</syllabic><text font-size="10.8">bet.</text><extend type="start" /></lyric></note></measure><!--=======================================================--><measure number="8" width="102"><harmony default-y="36" font-size="10" font-weight="bold"><root><root-step>F</root-step></root><kind halign="center" text="">major</kind></harmony><note default-x="11"><pitch><step>F</step><octave>4</octave></pitch><duration>4</duration><tie type="stop" /><voice>1</voice><type>half</type><stem default-y="-4">up</stem><notations><tied type="stop" /></notations><lyric name="verse" number="1"><extend type="stop" /></lyric><lyric name="verse" number="2"><extend type="stop" /></lyric><lyric name="verse" number="3"><extend type="stop" /></lyric></note><note default-x="51"><rest /><duration>4</duration><voice>1</voice><type>half</type></note><barline location="right"><bar-style>light-light</bar-style></barline></measure><!--=======================================================--><measure number="9" width="333"><harmony default-y="36" font-size="10" font-weight="bold"><root><root-step>F</root-step></root><kind halign="center" text="maj7">major-seventh</kind></harmony><direction placement="above"><direction-type><rehearsal default-y="69" font-weight="bold" relative-x="-5">CHORUS</rehearsal></direction-type></direction><note default-x="32"><pitch><step>C</step><octave>5</octave></pitch><duration>2</duration><voice>1</voice><type>quarter</type><stem default-y="-46">down</stem><lyric default-y="-91" name="verse" number="1"><syllabic>single</syllabic><text font-size="10.8">Gott</text></lyric></note><note default-x="94"><pitch><step>C</step><octave>5</octave></pitch><duration>2</duration><voice>1</voice><type>quarter</type><stem default-y="-46">down</stem><lyric default-y="-91" name="verse" number="1"><syllabic>single</syllabic><text font-size="10.8">hört</text></lyric></note><harmony default-y="36" font-size="10" font-weight="bold"><root><root-step>B</root-step><root-alter>-1</root-alter></root><kind halign="center" text="">major</kind><bass><bass-step>F</bass-step></bass></harmony><note default-x="154"><pitch><step>D</step><octave>5</octave></pitch><duration>1</duration><voice>1</voice><type>eighth</type><stem default-y="-41">down</stem><beam number="1">begin</beam><notations><slur bezier-x="12" bezier-y="8" default-x="6" default-y="3" number="1" placement="above" type="start" /></notations><lyric default-y="-91" name="verse" number="1"><syllabic>single</syllabic><text font-size="10.8">dein</text><extend type="start" /></lyric></note><note default-x="197"><pitch><step>C</step><octave>5</octave></pitch><duration>1</duration><voice>1</voice><type>eighth</type><stem default-y="-46">down</stem><beam number="1">end</beam><notations><slur bezier-x="-8" bezier-y="12" default-x="6" default-y="-5" number="1" type="stop" /></notations><lyric name="verse" number="1"><extend type="stop" /></lyric></note><note default-x="238"><pitch><step>D</step><octave>5</octave></pitch><duration>1</duration><voice>1</voice><type>eighth</type><stem default-y="-41">down</stem><beam number="1">begin</beam><lyric default-y="-91" name="verse" number="1"><syllabic>begin</syllabic><text font-size="10.8">Ge</text></lyric></note><note default-x="288"><pitch><step>C</step><octave>5</octave></pitch><duration>1</duration><tie type="start" /><voice>1</voice><type>eighth</type><stem default-y="-46">down</stem><beam number="1">end</beam><notations><tied type="start" /><slur bezier-x="4" bezier-y="21" default-x="7" default-y="-5" number="1" placement="above" type="start" /></notations><lyric default-y="-91" name="verse" number="1"><syllabic>end</syllabic><text font-size="10.8">bet,</text><extend type="start" /></lyric></note></measure><!--=======================================================--><measure number="10" width="122"><harmony default-y="36" font-size="10" font-weight="bold"><root><root-step>F</root-step></root><kind halign="center" text="maj7">major-seventh</kind></harmony><note default-x="34"><pitch><step>C</step><octave>5</octave></pitch><duration>4</duration><tie type="stop" /><voice>1</voice><type>half</type><stem default-y="-46">down</stem><notations><tied type="stop" /></notations></note><note default-x="77"><pitch><step>A</step><octave>4</octave></pitch><duration>4</duration><voice>1</voice><type>half</type><stem default-y="6">up</stem><notations><slur bezier-x="-10" bezier-y="19" default-x="5" default-y="14" number="1" type="stop" /></notations><lyric name="verse" number="1"><extend type="stop" /></lyric></note></measure><!--=======================================================--><measure number="11" width="414"><print new-system="yes"><system-layout><system-distance>200</system-distance></system-layout></print><harmony default-y="36" font-size="10" font-weight="bold"><root><root-step>D</root-step></root><kind halign="center" text="m7">minor-seventh</kind></harmony><note default-x="89"><pitch><step>A</step><octave>4</octave></pitch><duration>2</duration><voice>1</voice><type>quarter</type><stem default-y="6">up</stem><lyric default-y="-91" name="verse" number="1"><syllabic>single</syllabic><text font-size="10.8">hört</text></lyric></note><note default-x="145"><pitch><step>A</step><octave>4</octave></pitch><duration>2</duration><voice>1</voice><type>quarter</type><stem default-y="6">up</stem><lyric default-y="-91" name="verse" number="1"><syllabic>single</syllabic><text font-size="10.8">auf</text></lyric></note><note default-x="201"><pitch><step>G</step><octave>4</octave></pitch><duration>1</duration><voice>1</voice><type>eighth</type><stem default-y="1">up</stem><beam number="1">begin</beam><notations><slur bezier-x="11" bezier-y="-12" default-x="6" default-y="-43" number="1" placement="below" type="start" /></notations><lyric default-y="-91" name="verse" number="1"><syllabic>single</syllabic><text font-size="10.8">dein</text><extend type="start" /></lyric></note><note default-x="253"><pitch><step>F</step><octave>4</octave></pitch><duration>1</duration><voice>1</voice><type>eighth</type><stem default-y="-3.5">up</stem><beam number="1">end</beam><notations><slur bezier-x="-12" bezier-y="-11" default-x="6" default-y="-45" number="1" type="stop" /></notations><lyric name="verse" number="1"><extend type="stop" /></lyric></note><note default-x="305"><pitch><step>G</step><octave>4</octave></pitch><duration>1</duration><voice>1</voice><type>eighth</type><stem default-y="1">up</stem><beam number="1">begin</beam><lyric default-y="-91" name="verse" number="1"><syllabic>begin</syllabic><text font-size="10.8">Ge</text></lyric></note><note default-x="359"><pitch><step>A</step><octave>4</octave></pitch><duration>1</duration><tie type="start" /><voice>1</voice><type>eighth</type><stem default-y="6">up</stem><beam number="1">end</beam><notations><tied type="start" /><slur bezier-x="6" bezier-y="-20" default-x="7" default-y="-35" number="1" placement="below" type="start" /></notations><lyric default-y="-91" name="verse" number="1"><syllabic>end</syllabic><text font-size="10.8">bet.</text><extend type="start" /></lyric></note></measure><!--=======================================================--><measure number="12" width="115"><harmony default-y="36" font-size="10" font-weight="bold"><root><root-step>C</root-step></root><kind halign="center" text="7">dominant</kind></harmony><note default-x="18"><pitch><step>A</step><octave>4</octave></pitch><duration>4</duration><tie type="stop" /><voice>1</voice><type>half</type><stem default-y="6">up</stem><notations><tied type="stop" /></notations></note><note default-x="66"><pitch><step>G</step><octave>4</octave></pitch><duration>4</duration><voice>1</voice><type>half</type><stem default-y="1">up</stem><notations><slur bezier-x="-9" bezier-y="-20" default-x="6" default-y="-43" number="1" type="stop" /></notations><lyric name="verse" number="1"><extend type="stop" /></lyric></note></measure><!--=======================================================--><measure number="13" width="392"><harmony default-y="36" font-size="10" font-weight="bold"><root><root-step>F</root-step></root><kind halign="center" text="maj7">major-seventh</kind></harmony><note default-x="34"><rest /><duration>2</duration><voice>1</voice><type>quarter</type></note><note default-x="90"><pitch><step>A</step><octave>4</octave></pitch><duration>1</duration><voice>1</voice><type>eighth</type><stem default-y="6">up</stem><beam number="1">begin</beam><lyric default-y="-91" name="verse" number="1"><syllabic>single</syllabic><text font-size="10.8">Er</text></lyric></note><note default-x="146"><pitch><step>A</step><octave>4</octave></pitch><duration>1</duration><voice>1</voice><type>eighth</type><stem default-y="6">up</stem><beam number="1">end</beam><lyric default-y="-91" name="verse" number="1"><syllabic>begin</syllabic><text font-size="10.8">ver</text></lyric></note><harmony default-y="36" font-size="10" font-weight="bold"><root><root-step>B</root-step><root-alter>-1</root-alter></root><kind halign="center" text="maj7">major-seventh</kind></harmony><note default-x="209"><pitch><step>A</step><octave>4</octave></pitch><duration>2</duration><voice>1</voice><type>quarter</type><stem default-y="6">up</stem><lyric default-y="-91" name="verse" number="1"><syllabic>end</syllabic><text font-size="10.8">steht,</text></lyric></note><note default-x="273"><pitch><step>G</step><octave>4</octave></pitch><duration>1</duration><voice>1</voice><type>eighth</type><stem default-y="1">up</stem><beam number="1">begin</beam><lyric default-y="-91" name="verse" number="1"><syllabic>single</syllabic><text font-size="10.8">was</text></lyric></note><note default-x="335"><pitch><step>F</step><octave>4</octave></pitch><duration>1</duration><voice>1</voice><type>eighth</type><stem default-y="-3.5">up</stem><beam number="1">end</beam><lyric default-y="-91" name="verse" number="1"><syllabic>single</syllabic><text font-size="10.8">sein</text></lyric></note></measure><!--=======================================================--><measure number="14" width="250"><harmony default-y="36" font-size="10" font-weight="bold"><root><root-step>G</root-step></root><kind halign="center" text="m7">minor-seventh</kind></harmony><note default-x="28"><pitch><step>F</step><octave>4</octave></pitch><duration>2</duration><voice>1</voice><type>quarter</type><stem default-y="-3.5">up</stem><lyric default-y="-91" name="verse" number="1"><syllabic>single</syllabic><text font-size="10.8">Kind</text></lyric></note><note default-x="83"><pitch><step>D</step><octave>4</octave></pitch><duration>1</duration><voice>1</voice><type>eighth</type><stem default-y="-14">up</stem><beam number="1">begin</beam><lyric default-y="-91" name="verse" number="1"><syllabic>begin</syllabic><text font-size="10.8">be</text></lyric></note><note default-x="140"><pitch><step>C</step><octave>4</octave></pitch><duration>1</duration><tie type="start" /><voice>1</voice><type>eighth</type><stem default-y="-19">up</stem><beam number="1">end</beam><notations><tied type="start" /></notations><lyric default-y="-91" name="verse" number="1"><syllabic>end</syllabic><text font-size="10.8">wegt.</text><extend type="start" /></lyric></note><note default-x="194"><pitch><step>C</step><octave>4</octave></pitch><duration>4</duration><tie type="stop" /><voice>1</voice><type>half</type><stem default-y="-19">up</stem><notations><tied type="stop" /></notations><lyric name="verse" number="1"><extend type="stop" /></lyric></note></measure><!--=======================================================--><measure number="15" width="925"><print new-system="yes"><system-layout><system-distance>180</system-distance></system-layout></print><harmony default-y="36" font-size="10" font-weight="bold"><root><root-step>D</root-step></root><kind halign="center" text="m7">minor-seventh</kind></harmony><note default-x="89"><pitch><step>F</step><octave>4</octave></pitch><duration>2</duration><voice>1</voice><type>quarter</type><stem default-y="-4">up</stem><lyric default-y="-91" name="verse" number="1"><syllabic>single</syllabic><text font-size="10.8">Gott</text></lyric></note><note default-x="228"><pitch><step>F</step><octave>4</octave></pitch><duration>2</duration><voice>1</voice><type>quarter</type><stem default-y="-4">up</stem><lyric default-y="-91" name="verse" number="1"><syllabic>single</syllabic><text font-size="10.8">hört</text></lyric></note><harmony default-y="36" font-size="10" font-weight="bold"><root><root-step>C</root-step></root><kind halign="center" text="7">dominant</kind></harmony><note default-x="367"><pitch><step>G</step><octave>4</octave></pitch><duration>1</duration><voice>1</voice><type>eighth</type><stem default-y="1">up</stem><beam number="1">begin</beam><notations><slur bezier-x="10" bezier-y="-21" default-x="6" default-y="-43" number="1" placement="below" type="start" /></notations><lyric default-y="-91" name="verse" number="1"><syllabic>single</syllabic><text font-size="10.8">dein</text><extend type="start" /></lyric></note><note default-x="506"><pitch><step>F</step><octave>4</octave></pitch><duration>1</duration><voice>1</voice><type>eighth</type><stem default-y="-4">up</stem><beam number="1">end</beam><notations><slur bezier-x="-10" bezier-y="-21" default-x="6" default-y="-45" number="1" type="stop" /></notations><lyric name="verse" number="1"><extend type="stop" /></lyric></note><note default-x="645"><pitch><step>E</step><octave>4</octave></pitch><duration>1</duration><voice>1</voice><type>eighth</type><stem default-y="-8.5">up</stem><beam number="1">begin</beam><lyric default-y="-91" name="verse" number="1"><syllabic>begin</syllabic><text font-size="10.8">Ge</text></lyric></note><note default-x="784"><pitch><step>F</step><octave>4</octave></pitch><duration>1</duration><tie type="start" /><voice>1</voice><type>eighth</type><stem default-y="-4">up</stem><beam number="1">end</beam><notations><tied type="start" /></notations><lyric default-y="-91" name="verse" number="1"><syllabic>end</syllabic><text font-size="10.8">bet.</text><extend type="start" /></lyric></note></measure><!--=======================================================--><measure number="16" width="246"><harmony default-y="36" font-size="10" font-weight="bold"><root><root-step>F</root-step></root><kind halign="center" text="">major</kind></harmony><note default-x="11"><pitch><step>F</step><octave>4</octave></pitch><duration>6</duration><tie type="stop" /><voice>1</voice><type>half</type><dot /><stem default-y="-4">up</stem><notations><tied type="stop" /></notations><lyric name="verse" number="1"><extend type="stop" /></lyric></note><barline location="right"><bar-style>light-heavy</bar-style></barline></measure></part><!--=========================================================--></score-partwise>