<?xml version="1.0" encoding="UTF-8"?><!DOCTYPE score-partwise PUBLIC "-//Recordare//DTD MusicXML 2.0 Partwise//EN" "http://www.musicxml.org/dtds/partwise.dtd"[]><score-partwise version="2.0"><movement-title>Gott ist stark</movement-title><identification><creator type="composer">Ute Spengler</creator><encoding><software>Finale 2011 for Windows</software><software>Dolet Light for Finale 2011</software><encoding-date>2012-12-18</encoding-date><supports attribute="new-system" element="print" type="yes" value="yes" /><supports attribute="new-page" element="print" type="yes" value="yes" /></encoding><rights>CCLI-Liednummer 4902395
© 1998 Gerth Medien
Nutzung ausschließlich im Rahmen der SongSelect®-Nutzungsbedingungen. Alle Rechte vorbehalten. www.ccli.com
CCLI-Lizenznummer 2182334
</rights></identification><defaults><scaling><millimeters>6.5088</millimeters><tenths>40</tenths></scaling><page-layout><page-height>1771</page-height><page-width>1308</page-width><page-margins type="both"><left-margin>78</left-margin><right-margin>78</right-margin><top-margin>78</top-margin><bottom-margin>78</bottom-margin></page-margins></page-layout><system-layout><system-margins><left-margin>0</left-margin><right-margin>0</right-margin></system-margins><system-distance>195</system-distance><top-system-distance>122</top-system-distance></system-layout><appearance><line-width type="stem">1.4583</line-width><line-width type="beam">5</line-width><line-width type="staff">1.25</line-width><line-width type="light barline">1.4583</line-width><line-width type="heavy barline">5</line-width><line-width type="leger">1.875</line-width><line-width type="ending">1.4583</line-width><line-width type="wedge">1.4583</line-width><line-width type="enclosure">1.4583</line-width><line-width type="tuplet bracket">1.4583</line-width><note-size type="grace">50</note-size><note-size type="cue">50</note-size></appearance><music-font font-family="Maestro" font-size="18.5" /><word-font font-family="Arial" font-size="9.2" /><lyric-font font-family="Arial" font-size="10.8" name="verse" /><lyric-font font-family="Arial" font-size="10.8" name="section" /></defaults><credit page="1"><credit-words default-x="654" default-y="1688" font-size="21.6" font-weight="bold" justify="center" valign="top">Gott ist stark</credit-words></credit><credit page="1"><credit-words default-x="1230" default-y="1620" font-size="10.8" font-style="italic" justify="right" valign="top">Text und Musik:</credit-words><credit-words font-size="10.8" font-style="normal" font-weight="bold">
Ute Spengler</credit-words></credit><part-list><score-part id="P1"><part-name print-object="no">Melodie</part-name><score-instrument id="P1-I2"><instrument-name>Melodie</instrument-name></score-instrument><midi-instrument id="P1-I2"><midi-channel>1</midi-channel><midi-program>1</midi-program><volume>80</volume><pan>0</pan></midi-instrument></score-part></part-list><!--=========================================================--><part id="P1"><measure number="1" width="408"><print><page-layout><page-height>1771</page-height><page-width>1308</page-width><page-margins><left-margin>78</left-margin><right-margin>78</right-margin><top-margin>78</top-margin><bottom-margin>163</bottom-margin></page-margins></page-layout><system-layout><system-margins><left-margin>68</left-margin><right-margin>0</right-margin></system-margins><top-system-distance>244</top-system-distance></system-layout><measure-numbering>system</measure-numbering></print><barline location="left"><bar-style>heavy-light</bar-style><repeat direction="forward" /></barline><attributes><divisions>2</divisions><key><fifths>2</fifths><mode>major</mode></key><time><beats>4</beats><beat-type>4</beat-type></time><clef><sign>G</sign><line>2</line></clef></attributes><sound tempo="96" /><harmony default-y="29" font-size="10" font-weight="bold"><root><root-step>D</root-step></root><kind halign="center" text="">major</kind></harmony><note default-x="143"><pitch><step>F</step><alter>1</alter><octave>4</octave></pitch><duration>1</duration><voice>1</voice><type>eighth</type><stem default-y="1">up</stem><lyric default-y="-95" name="verse" number="1"><syllabic>single</syllabic><text font-size="10.8">Gott</text></lyric></note><note default-x="194"><pitch><step>D</step><octave>4</octave></pitch><duration>2</duration><voice>1</voice><type>quarter</type><stem default-y="-9">up</stem><lyric default-y="-95" name="verse" number="1"><syllabic>single</syllabic><text font-size="10.8">ist</text></lyric></note><note default-x="264"><pitch><step>A</step><octave>4</octave></pitch><duration>1</duration><tie type="start" /><voice>1</voice><type>eighth</type><stem default-y="11">up</stem><notations><tied type="start" /></notations><lyric default-y="-95" name="verse" number="1"><syllabic>single</syllabic><text font-size="10.8">stark.</text><extend /></lyric></note><note default-x="308"><pitch><step>A</step><octave>4</octave></pitch><duration>4</duration><tie type="stop" /><voice>1</voice><type>half</type><stem default-y="11">up</stem><notations><tied type="stop" /></notations></note></measure><!--=======================================================--><measure number="2" width="280"><note default-x="15"><pitch><step>F</step><alter>1</alter><octave>4</octave></pitch><duration>1</duration><voice>1</voice><type>eighth</type><stem default-y="1">up</stem><lyric default-y="-95" name="verse" number="1"><syllabic>single</syllabic><text font-size="10.8">Gott</text></lyric></note><note default-x="67"><pitch><step>D</step><octave>4</octave></pitch><duration>2</duration><voice>1</voice><type>quarter</type><stem default-y="-9">up</stem><lyric default-y="-95" name="verse" number="1"><syllabic>single</syllabic><text font-size="10.8">ist</text></lyric></note><note default-x="137"><pitch><step>A</step><octave>4</octave></pitch><duration>1</duration><tie type="start" /><voice>1</voice><type>eighth</type><stem default-y="11">up</stem><notations><tied type="start" /></notations><lyric default-y="-95" name="verse" number="1"><syllabic>single</syllabic><text font-size="10.8">stark.</text><extend /></lyric></note><note default-x="181"><pitch><step>A</step><octave>4</octave></pitch><duration>4</duration><tie type="stop" /><voice>1</voice><type>half</type><stem default-y="11">up</stem><notations><tied type="stop" /></notations></note></measure><!--=======================================================--><measure number="3" width="396"><harmony default-y="29" font-size="10" font-weight="bold"><root><root-step>G</root-step></root><kind halign="center" text="">major</kind></harmony><note default-x="15"><pitch><step>G</step><octave>4</octave></pitch><duration>2</duration><voice>1</voice><type>quarter</type><stem default-y="6">up</stem><lyric default-y="-95" name="verse" number="1"><syllabic>single</syllabic><text font-size="10.8">Gott</text></lyric></note><note default-x="91"><pitch><step>G</step><octave>4</octave></pitch><duration>2</duration><voice>1</voice><type>quarter</type><stem default-y="6">up</stem><lyric default-y="-95" name="verse" number="1"><syllabic>single</syllabic><text font-size="10.8">ist</text></lyric></note><note default-x="167"><pitch><step>G</step><octave>4</octave></pitch><duration>1</duration><voice>1</voice><type>eighth</type><stem default-y="5">up</stem><beam number="1">begin</beam><lyric default-y="-95" name="verse" number="1"><syllabic>begin</syllabic><text font-size="10.8">stär</text></lyric></note><note default-x="225"><pitch><step>G</step><octave>4</octave></pitch><duration>1</duration><voice>1</voice><type>eighth</type><stem default-y="5">up</stem><beam number="1">end</beam><lyric default-y="-95" name="verse" number="1"><syllabic>end</syllabic><text font-size="10.8">ker</text></lyric></note><note default-x="285"><pitch><step>F</step><alter>1</alter><octave>4</octave></pitch><duration>1</duration><voice>1</voice><type>eighth</type><stem default-y="0">up</stem><beam number="1">begin</beam><lyric default-y="-95" name="verse" number="1"><syllabic>single</syllabic><text font-size="10.8">noch</text></lyric></note><note default-x="344"><pitch><step>E</step><octave>4</octave></pitch><duration>1</duration><voice>1</voice><type>eighth</type><stem default-y="-5">up</stem><beam number="1">end</beam><lyric default-y="-95" name="verse" number="1"><syllabic>single</syllabic><text font-size="10.8">als</text></lyric></note></measure><!--=======================================================--><measure number="4" width="316"><print new-system="yes"><system-layout><system-distance>184</system-distance></system-layout></print><harmony default-y="29" font-size="10" font-weight="bold"><root><root-step>A</root-step></root><kind halign="center" text="">major</kind></harmony><note default-x="88"><pitch><step>C</step><alter>1</alter><octave>4</octave></pitch><duration>1</duration><voice>1</voice><type>eighth</type><stem default-y="-14">up</stem><lyric default-y="-95" name="verse" number="1"><syllabic>begin</syllabic><text font-size="10.8">Su</text></lyric></note><note default-x="135"><pitch><step>D</step><octave>4</octave></pitch><duration>2</duration><voice>1</voice><type>quarter</type><stem default-y="-9">up</stem><lyric default-y="-95" name="verse" number="1"><syllabic>middle</syllabic><text font-size="10.8">per</text></lyric></note><note default-x="199"><pitch><step>E</step><octave>4</octave></pitch><duration>1</duration><tie type="start" /><voice>1</voice><type>eighth</type><stem default-y="-4">up</stem><notations><tied type="start" /></notations><lyric default-y="-95" name="verse" number="1"><syllabic>end</syllabic><text font-size="10.8">man!</text><extend /></lyric></note><note default-x="238"><pitch><step>E</step><octave>4</octave></pitch><duration>4</duration><tie type="stop" /><voice>1</voice><type>half</type><stem default-y="-4">up</stem><notations><tied type="stop" /></notations></note></measure><!--=======================================================--><measure number="5" width="244"><harmony default-y="29" font-size="10" font-weight="bold"><root><root-step>D</root-step></root><kind halign="center" text="">major</kind></harmony><note default-x="15"><pitch><step>F</step><alter>1</alter><octave>4</octave></pitch><duration>1</duration><voice>1</voice><type>eighth</type><stem default-y="0.5">up</stem><lyric default-y="-95" name="verse" number="1"><syllabic>single</syllabic><text font-size="10.8">Gott</text></lyric></note><note default-x="67"><pitch><step>D</step><octave>4</octave></pitch><duration>2</duration><voice>1</voice><type>quarter</type><stem default-y="-9">up</stem><lyric default-y="-95" name="verse" number="1"><syllabic>single</syllabic><text font-size="10.8">ist</text></lyric></note><note default-x="128"><pitch><step>A</step><octave>4</octave></pitch><duration>1</duration><tie type="start" /><voice>1</voice><type>eighth</type><stem default-y="11">up</stem><notations><tied type="start" /></notations><lyric default-y="-95" name="verse" number="1"><syllabic>single</syllabic><text font-size="10.8">stark.</text><extend /></lyric></note><note default-x="168"><pitch><step>A</step><octave>4</octave></pitch><duration>4</duration><tie type="stop" /><voice>1</voice><type>half</type><stem default-y="11">up</stem><notations><tied type="stop" /></notations></note></measure><!--=======================================================--><measure number="6" width="244"><note default-x="15"><pitch><step>F</step><alter>1</alter><octave>4</octave></pitch><duration>1</duration><voice>1</voice><type>eighth</type><stem default-y="0.5">up</stem><lyric default-y="-95" name="verse" number="1"><syllabic>single</syllabic><text font-size="10.8">Gott</text></lyric></note><note default-x="67"><pitch><step>D</step><octave>4</octave></pitch><duration>2</duration><voice>1</voice><type>quarter</type><stem default-y="-9">up</stem><lyric default-y="-95" name="verse" number="1"><syllabic>single</syllabic><text font-size="10.8">ist</text></lyric></note><note default-x="129"><pitch><step>A</step><octave>4</octave></pitch><duration>1</duration><tie type="start" /><voice>1</voice><type>eighth</type><stem default-y="11">up</stem><notations><tied type="start" /></notations><lyric default-y="-95" name="verse" number="1"><syllabic>single</syllabic><text font-size="10.8">stark.</text><extend /></lyric></note><note default-x="168"><pitch><step>A</step><octave>4</octave></pitch><duration>4</duration><tie type="stop" /><voice>1</voice><type>half</type><stem default-y="11">up</stem><notations><tied type="stop" /></notations></note></measure><!--=======================================================--><measure number="7" width="348"><harmony default-y="29" font-size="10" font-weight="bold"><root><root-step>G</root-step></root><kind halign="center" text="">major</kind></harmony><note default-x="15"><pitch><step>G</step><octave>4</octave></pitch><duration>2</duration><voice>1</voice><type>quarter</type><stem default-y="6">up</stem><lyric default-y="-95" name="verse" number="1"><syllabic>single</syllabic><text font-size="10.8">Gott</text></lyric></note><note default-x="73"><pitch><step>G</step><octave>4</octave></pitch><duration>2</duration><voice>1</voice><type>quarter</type><stem default-y="6">up</stem><lyric default-y="-95" name="verse" number="1"><syllabic>single</syllabic><text font-size="10.8">ist</text></lyric></note><note default-x="131"><pitch><step>G</step><octave>4</octave></pitch><duration>1</duration><voice>1</voice><type>eighth</type><stem default-y="5">up</stem><beam number="1">begin</beam><lyric default-y="-95" name="verse" number="1"><syllabic>begin</syllabic><text font-size="10.8">stär</text></lyric></note><note default-x="186"><pitch><step>G</step><octave>4</octave></pitch><duration>1</duration><voice>1</voice><type>eighth</type><stem default-y="5">up</stem><beam number="1">end</beam><lyric default-y="-95" name="verse" number="1"><syllabic>end</syllabic><text font-size="10.8">ker</text></lyric></note><note default-x="246"><pitch><step>F</step><alter>1</alter><octave>4</octave></pitch><duration>1</duration><voice>1</voice><type>eighth</type><stem default-y="0">up</stem><beam number="1">begin</beam><lyric default-y="-95" name="verse" number="1"><syllabic>single</syllabic><text font-size="10.8">noch</text></lyric></note><note default-x="303"><pitch><step>E</step><octave>4</octave></pitch><duration>1</duration><voice>1</voice><type>eighth</type><stem default-y="-5">up</stem><beam number="1">end</beam><lyric default-y="-95" name="verse" number="1"><syllabic>single</syllabic><text font-size="10.8">als</text></lyric></note></measure><!--=======================================================--><measure number="8" width="618"><print new-system="yes"><system-layout><system-distance>184</system-distance></system-layout></print><harmony default-y="29" font-size="10" font-weight="bold"><root><root-step>A</root-step></root><kind halign="center" text="">major</kind></harmony><note default-x="88"><pitch><step>C</step><alter>1</alter><octave>4</octave></pitch><duration>1</duration><voice>1</voice><type>eighth</type><stem default-y="-14">up</stem><lyric default-y="-103" name="verse" number="1"><syllabic>begin</syllabic><text font-size="10.8">Su</text></lyric></note><note default-x="158"><pitch><step>D</step><octave>4</octave></pitch><duration>2</duration><voice>1</voice><type>quarter</type><stem default-y="-9">up</stem><lyric default-y="-103" name="verse" number="1"><syllabic>middle</syllabic><text font-size="10.8">per</text></lyric></note><note default-x="269"><pitch><step>E</step><octave>4</octave></pitch><duration>1</duration><tie type="start" /><voice>1</voice><type>eighth</type><stem default-y="-4">up</stem><notations><tied type="start" /></notations><lyric default-y="-103" name="verse" number="1"><syllabic>end</syllabic><text font-size="10.8">man!</text><extend /></lyric></note><note default-x="339"><pitch><step>E</step><octave>4</octave></pitch><duration>1</duration><tie type="stop" /><voice>1</voice><type>eighth</type><stem default-y="-5">up</stem><beam number="1">begin</beam><notations><tied type="stop" /></notations></note><note default-x="408"><pitch><step>A</step><octave>3</octave></pitch><duration>1</duration><voice>1</voice><type>eighth</type><stem default-y="-10">up</stem><beam number="1">end</beam><lyric default-y="-103" name="verse" number="1"><syllabic>single</syllabic><text font-size="10.8">Er</text></lyric></note><note default-x="477"><pitch><step>A</step><octave>3</octave></pitch><duration>1</duration><voice>1</voice><type>eighth</type><stem default-y="-20">up</stem><beam number="1">begin</beam><lyric default-y="-103" name="verse" number="1"><syllabic>single</syllabic><text font-size="10.8">ist</text></lyric></note><note default-x="547"><pitch><step>A</step><octave>3</octave></pitch><duration>1</duration><voice>1</voice><type>eighth</type><stem default-y="-20">up</stem><beam number="1">end</beam><lyric default-y="-103" name="verse" number="1"><syllabic>single</syllabic><text font-size="10.8">der</text></lyric></note></measure><!--=======================================================--><measure number="9" width="534"><harmony default-y="29" font-size="10" font-weight="bold"><root><root-step>G</root-step></root><kind halign="center" text="">major</kind></harmony><note default-x="13"><pitch><step>B</step><octave>3</octave></pitch><duration>1</duration><voice>1</voice><type>eighth</type><stem default-y="-20">up</stem><beam number="1">begin</beam><lyric default-y="-103" name="verse" number="1"><syllabic>begin</syllabic><text font-size="10.8">al</text></lyric></note><note default-x="86"><pitch><step>B</step><octave>3</octave></pitch><duration>1</duration><voice>1</voice><type>eighth</type><stem default-y="-20">up</stem><beam number="1">end</beam><lyric default-y="-103" name="verse" number="1"><syllabic>end</syllabic><text font-size="10.8">ler</text><elision> </elision><syllabic>single</syllabic><text font-size="10.8">­,</text></lyric></note><note default-x="159"><pitch><step>B</step><octave>3</octave></pitch><duration>1</duration><voice>1</voice><type>eighth</type><stem default-y="-20">up</stem><beam number="1">begin</beam><lyric default-y="-103" name="verse" number="1"><syllabic>begin</syllabic><text font-size="10.8">al</text></lyric></note><note default-x="231"><pitch><step>B</step><octave>3</octave></pitch><duration>1</duration><voice>1</voice><type>eighth</type><stem default-y="-20">up</stem><beam number="1">end</beam><lyric default-y="-103" name="verse" number="1"><syllabic>end</syllabic><text font-size="10.8">ler</text><elision> </elision><syllabic>single</syllabic><text font-size="10.8">­,</text></lyric></note><harmony default-y="29" font-size="10" font-weight="bold"><root><root-step>A</root-step></root><kind halign="center" text="">major</kind></harmony><note default-x="305"><pitch><step>C</step><alter>1</alter><octave>4</octave></pitch><duration>1</duration><voice>1</voice><type>eighth</type><stem default-y="-14">up</stem><lyric default-y="-103" name="verse" number="1"><syllabic>begin</syllabic><text font-size="10.8">al</text></lyric></note><note default-x="377"><pitch><step>C</step><alter>1</alter><octave>4</octave></pitch><duration>3</duration><voice>1</voice><type>quarter</type><dot /><stem default-y="-14">up</stem><lyric default-y="-103" name="verse" number="1"><syllabic>end</syllabic><text font-size="10.8">ler</text><elision> </elision><syllabic>single</syllabic><text font-size="10.8">­,</text></lyric></note></measure><!--=======================================================--><measure number="10" width="479"><print new-system="yes"><system-layout><system-distance>184</system-distance></system-layout></print><harmony default-y="29" font-size="10" font-weight="bold"><root><root-step>B</root-step></root><kind halign="center" text="m">minor</kind></harmony><note default-x="95"><pitch><step>D</step><octave>4</octave></pitch><duration>1</duration><voice>1</voice><type>eighth</type><stem default-y="-9.5">up</stem><beam number="1">begin</beam><lyric default-y="-103" name="verse" number="1"><syllabic>begin</syllabic><text font-size="10.8">al</text></lyric></note><note default-x="148"><pitch><step>D</step><octave>4</octave></pitch><duration>1</duration><voice>1</voice><type>eighth</type><stem default-y="-9.5">up</stem><beam number="1">end</beam><lyric default-y="-103" name="verse" number="1"><syllabic>middle</syllabic><text font-size="10.8">ler</text></lyric></note><note default-x="204"><pitch><step>D</step><octave>4</octave></pitch><duration>1</duration><voice>1</voice><type>eighth</type><stem default-y="-9.5">up</stem><beam number="1">begin</beam><lyric default-y="-103" name="verse" number="1"><syllabic>middle</syllabic><text font-size="10.8">größ</text></lyric></note><note default-x="259"><pitch><step>D</step><octave>4</octave></pitch><duration>1</duration><voice>1</voice><type>eighth</type><stem default-y="-9.5">up</stem><beam number="1">end</beam><lyric default-y="-103" name="verse" number="1"><syllabic>end</syllabic><text font-size="10.8">te</text></lyric></note><harmony default-y="29" font-size="10" font-weight="bold"><root><root-step>A</root-step></root><kind halign="center" text="">major</kind></harmony><note default-x="315"><pitch><step>E</step><octave>4</octave></pitch><duration>3</duration><voice>1</voice><type>quarter</type><dot /><stem default-y="-4">up</stem><lyric default-y="-103" name="verse" number="1"><syllabic>single</syllabic><text font-size="10.8">Held,</text></lyric></note><note default-x="424"><pitch><step>A</step><octave>3</octave></pitch><duration>1</duration><voice>1</voice><type>eighth</type><stem default-y="-19">up</stem><lyric default-y="-103" name="verse" number="1"><syllabic>single</syllabic><text font-size="10.8">der</text></lyric></note></measure><!--=======================================================--><measure number="11" width="385"><harmony default-y="29" font-size="10" font-weight="bold"><root><root-step>D</root-step></root><kind halign="center" text="">major</kind></harmony><note default-x="12"><pitch><step>F</step><alter>1</alter><octave>4</octave></pitch><duration>1</duration><voice>1</voice><type>eighth</type><stem default-y="0">up</stem><beam number="1">begin</beam><lyric default-y="-103" name="verse" number="1"><syllabic>begin</syllabic><text font-size="10.8">al</text></lyric></note><note default-x="63"><pitch><step>F</step><alter>1</alter><octave>4</octave></pitch><duration>1</duration><voice>1</voice><type>eighth</type><stem default-y="0">up</stem><beam number="1">end</beam><lyric default-y="-103" name="verse" number="1"><syllabic>middle</syllabic><text font-size="10.8">ler</text></lyric></note><note default-x="119"><pitch><step>F</step><alter>1</alter><octave>4</octave></pitch><duration>1</duration><voice>1</voice><type>eighth</type><stem default-y="0">up</stem><beam number="1">begin</beam><lyric default-y="-103" name="verse" number="1"><syllabic>middle</syllabic><text font-size="10.8">größ</text></lyric></note><note default-x="173"><pitch><step>F</step><alter>1</alter><octave>4</octave></pitch><duration>1</duration><voice>1</voice><type>eighth</type><stem default-y="0">up</stem><beam number="1">end</beam><lyric default-y="-103" name="verse" number="1"><syllabic>end</syllabic><text font-size="10.8">te</text></lyric></note><harmony default-y="29" font-size="10" font-weight="bold"><root><root-step>G</root-step></root><kind halign="center" text="">major</kind></harmony><note default-x="228"><pitch><step>G</step><octave>4</octave></pitch><duration>2</duration><voice>1</voice><type>quarter</type><stem default-y="5.5">up</stem><lyric default-y="-103" name="verse" number="1"><syllabic>single</syllabic><text font-size="10.8">Held</text></lyric></note><note default-x="308"><pitch><step>G</step><octave>4</octave></pitch><duration>2</duration><voice>1</voice><type>quarter</type><stem default-y="5.5">up</stem><lyric default-y="-103" name="verse" number="1"><syllabic>single</syllabic><text font-size="10.8">auf</text></lyric></note></measure><!--=======================================================--><measure number="12" width="288"><harmony default-y="29" font-size="10" font-weight="bold"><root><root-step>D</root-step></root><kind halign="center" text="">major</kind></harmony><note default-x="12"><pitch><step>F</step><alter>1</alter><octave>4</octave></pitch><duration>1</duration><voice>1</voice><type>eighth</type><stem default-y="1">up</stem><lyric default-y="-103" name="verse" number="1"><syllabic>begin</syllabic><text font-size="10.8">die</text></lyric></note><note default-x="62"><pitch><step>D</step><octave>4</octave></pitch><duration>2</duration><voice>1</voice><type>quarter</type><stem default-y="-9">up</stem><lyric default-y="-103" name="verse" number="1"><syllabic>end</syllabic><text font-size="10.8">ser</text></lyric></note><harmony default-y="29" font-size="10" font-weight="bold"><root><root-step>A</root-step></root><kind halign="center" text="">major</kind></harmony><note default-x="136"><pitch><step>A</step><octave>4</octave></pitch><duration>1</duration><tie type="start" /><voice>1</voice><type>eighth</type><stem default-y="11">up</stem><notations><tied type="start" /></notations><lyric default-y="-103" name="verse" number="1"><syllabic>single</syllabic><text font-size="10.8">Welt!</text><extend /></lyric></note><note default-x="181"><pitch><step>A</step><octave>4</octave></pitch><duration>4</duration><tie type="stop" /><voice>1</voice><type>half</type><stem default-y="11">up</stem><notations><tied type="stop" /></notations></note></measure><!--=======================================================--><measure number="13" width="417"><print new-system="yes"><system-layout><system-distance>184</system-distance></system-layout></print><note default-x="89"><pitch><step>E</step><octave>5</octave></pitch><duration>2</duration><voice>1</voice><type>quarter</type><stem default-y="-40.5">down</stem><notehead>x</notehead><lyric default-y="-103" name="verse" number="1"><syllabic>single</syllabic><text font-size="10.8">Gott</text></lyric></note><note default-x="151"><pitch><step>E</step><octave>5</octave></pitch><duration>2</duration><voice>1</voice><type>quarter</type><stem default-y="-40.5">down</stem><notehead>x</notehead><lyric default-y="-103" name="verse" number="1"><syllabic>single</syllabic><text font-size="10.8">ist</text></lyric></note><note default-x="219"><pitch><step>E</step><octave>5</octave></pitch><duration>2</duration><voice>1</voice><type>quarter</type><stem default-y="-40.5">down</stem><notehead>x</notehead><lyric default-y="-103" name="verse" number="1"><syllabic>single</syllabic><text font-size="10.8">stark!</text></lyric></note><note default-x="293"><pitch><step>A</step><octave>3</octave></pitch><duration>1</duration><voice>1</voice><type>eighth</type><stem default-y="-20">up</stem><beam number="1">begin</beam><lyric default-y="-103" name="verse" number="1"><syllabic>single</syllabic><text font-size="10.8">Und</text></lyric></note><note default-x="360"><pitch><step>A</step><octave>3</octave></pitch><duration>1</duration><voice>1</voice><type>eighth</type><stem default-y="-20">up</stem><beam number="1">end</beam><lyric default-y="-103" name="verse" number="1"><syllabic>single</syllabic><text font-size="10.8">wenn</text></lyric></note></measure><!--=======================================================--><measure number="14" width="270"><harmony default-y="29" font-size="10" font-weight="bold"><root><root-step>G</root-step></root><kind halign="center" text="">major</kind></harmony><note default-x="13"><pitch><step>G</step><octave>4</octave></pitch><duration>2</duration><voice>1</voice><type>quarter</type><stem default-y="6">up</stem><lyric default-y="-103" name="verse" number="1"><syllabic>single</syllabic><text font-size="10.8">ich</text></lyric></note><note default-x="73"><pitch><step>F</step><alter>1</alter><octave>4</octave></pitch><duration>2</duration><voice>1</voice><type>quarter</type><stem default-y="1">up</stem><lyric default-y="-103" name="verse" number="1"><syllabic>single</syllabic><text font-size="10.8">mal</text></lyric></note><note default-x="138"><pitch><step>E</step><octave>4</octave></pitch><duration>2</duration><voice>1</voice><type>quarter</type><stem default-y="-4">up</stem><lyric default-y="-103" name="verse" number="1"><syllabic>single</syllabic><text font-size="10.8">nicht</text></lyric></note><note default-x="207"><pitch><step>D</step><octave>4</octave></pitch><duration>2</duration><voice>1</voice><type>quarter</type><stem default-y="-9">up</stem><lyric default-y="-103" name="verse" number="1"><syllabic>single</syllabic><text font-size="10.8">mehr</text></lyric></note></measure><!--=======================================================--><measure number="15" width="237"><harmony default-y="29" font-size="10" font-weight="bold"><root><root-step>A</root-step></root><kind halign="center" text="">major</kind></harmony><note default-x="20"><pitch><step>E</step><octave>4</octave></pitch><duration>6</duration><voice>1</voice><type>half</type><dot /><stem default-y="-4">up</stem><lyric default-y="-103" name="verse" number="1"><syllabic>single</syllabic><text font-size="10.8">kann,</text></lyric></note><note default-x="129"><pitch><step>A</step><octave>3</octave></pitch><duration>1</duration><voice>1</voice><type>eighth</type><stem default-y="-20">up</stem><beam number="1">begin</beam><lyric default-y="-103" name="verse" number="1"><syllabic>single</syllabic><text font-size="10.8">ja,</text></lyric></note><note default-x="184"><pitch><step>A</step><octave>3</octave></pitch><duration>1</duration><voice>1</voice><type>eighth</type><stem default-y="-20">up</stem><beam number="1">end</beam><lyric default-y="-103" name="verse" number="1"><syllabic>single</syllabic><text font-size="10.8">dann</text></lyric></note></measure><!--=======================================================--><measure number="16" width="228"><harmony default-y="29" font-size="10" font-weight="bold"><root><root-step>G</root-step></root><kind halign="center" text="">major</kind></harmony><note default-x="13"><pitch><step>G</step><octave>4</octave></pitch><duration>2</duration><voice>1</voice><type>quarter</type><stem default-y="6">up</stem><lyric default-y="-103" name="verse" number="1"><syllabic>begin</syllabic><text font-size="10.8">feu</text></lyric></note><note default-x="66"><pitch><step>F</step><alter>1</alter><octave>4</octave></pitch><duration>2</duration><voice>1</voice><type>quarter</type><stem default-y="1">up</stem><lyric default-y="-103" name="verse" number="1"><syllabic>end</syllabic><text font-size="10.8">ert</text></lyric></note><note default-x="119"><pitch><step>E</step><octave>4</octave></pitch><duration>2</duration><voice>1</voice><type>quarter</type><stem default-y="-4">up</stem><lyric default-y="-103" name="verse" number="1"><syllabic>single</syllabic><text font-size="10.8">er</text></lyric></note><note default-x="173"><pitch><step>D</step><octave>4</octave></pitch><duration>2</duration><voice>1</voice><type>quarter</type><stem default-y="-9">up</stem><lyric default-y="-103" name="verse" number="1"><syllabic>single</syllabic><text font-size="10.8">mich</text></lyric></note></measure><!--=======================================================--><measure number="17" width="247"><print new-system="yes"><system-layout><system-distance>184</system-distance></system-layout></print><barline location="left"><ending default-y="71" end-length="71" font-size="6.2" number="1" print-object="yes" type="start" /></barline><harmony default-y="29" font-size="10" font-weight="bold"><root><root-step>A</root-step></root><kind halign="center" text="">major</kind></harmony><note default-x="88"><pitch><step>A</step><octave>4</octave></pitch><duration>8</duration><voice>1</voice><type>whole</type><lyric default-y="-95" name="verse" number="1"><syllabic>single</syllabic><text font-size="10.8">an.</text></lyric></note></measure><!--=======================================================--><measure number="18" width="163"><note default-x="62"><rest /><duration>8</duration><voice>1</voice><type>whole</type></note><barline location="right"><bar-style>light-heavy</bar-style><ending number="1" print-object="yes" type="stop" /><repeat direction="backward" /></barline></measure><!--=======================================================--><measure number="19" width="171"><barline location="left"><ending default-y="71" end-length="71" font-size="6.2" number="2" print-object="yes" type="start" /></barline><harmony default-y="29" font-size="10" font-weight="bold"><root><root-step>A</root-step></root><kind halign="center" text="">major</kind></harmony><note default-x="12"><pitch><step>A</step><octave>4</octave></pitch><duration>8</duration><voice>1</voice><type>whole</type><lyric default-y="-95" name="verse" number="1"><syllabic>single</syllabic><text font-size="10.8">an.</text></lyric></note><barline location="right"><ending number="2" type="discontinue" /></barline></measure><!--=======================================================--><measure number="20" width="378"><note default-x="11"><rest /><duration>2</duration><voice>1</voice><type>quarter</type></note><note default-x="97"><pitch><step>A</step><octave>4</octave></pitch><duration>2</duration><voice>1</voice><type>quarter</type><stem default-y="11">up</stem><lyric default-y="-95" name="verse" number="1"><syllabic>single</syllabic><text font-size="10.8">Ja,</text></lyric></note><note default-x="183"><pitch><step>B</step><octave>4</octave></pitch><duration>1</duration><voice>1</voice><type>eighth</type><stem default-y="-55.5">down</stem><lyric default-y="-95" name="verse" number="1"><syllabic>single</syllabic><text font-size="10.8">Gott</text></lyric></note><note default-x="237"><pitch><step>C</step><alter>1</alter><octave>5</octave></pitch><duration>2</duration><voice>1</voice><type>quarter</type><stem default-y="-51">down</stem><lyric default-y="-95" name="verse" number="1"><syllabic>single</syllabic><text font-size="10.8">ist</text></lyric></note><harmony default-y="29" font-size="10" font-weight="bold"><root><root-step>D</root-step></root><kind halign="center" text="">major</kind></harmony><note default-x="323"><pitch><step>D</step><octave>5</octave></pitch><duration>1</duration><tie type="start" /><voice>1</voice><type>eighth</type><stem default-y="-45">down</stem><notations><tied type="start" /></notations><lyric default-y="-95" name="verse" number="1"><syllabic>single</syllabic><text font-size="10.8">stark!</text><extend /></lyric></note></measure><!--=======================================================--><measure number="21" width="194"><note default-x="11"><pitch><step>D</step><octave>5</octave></pitch><duration>2</duration><tie type="stop" /><voice>1</voice><type>quarter</type><stem default-y="-45">down</stem><notations><tied type="stop" /></notations></note><note default-x="59"><rest /><duration>2</duration><voice>1</voice><type>quarter</type></note><note default-x="105"><rest /><duration>4</duration><voice>1</voice><type>half</type></note><barline location="right"><bar-style>light-heavy</bar-style></barline></measure></part><!--=========================================================--></score-partwise>