<?xml version="1.0" encoding="UTF-8"?><!DOCTYPE score-partwise PUBLIC "-//Recordare//DTD MusicXML 2.0 Partwise//EN" "http://www.musicxml.org/dtds/partwise.dtd"[]><score-partwise version="2.0"><movement-title>Groß ist dein Name</movement-title><identification><creator type="composer">Gerhard Schnitter</creator><encoding><software>Finale 2011 for Windows</software><software>Dolet Light for Finale 2011</software><encoding-date>2013-02-28</encoding-date><supports attribute="new-system" element="print" type="yes" value="yes" /><supports attribute="new-page" element="print" type="yes" value="yes" /></encoding><rights>CCLI-Liednummer 4336882
© 1971 SCM Hänssler, Holzgerlingen
Nutzung ausschließlich im Rahmen der SongSelect®-Nutzungsbedingungen. Alle Rechte vorbehalten. www.ccli.com
CCLI-Lizenznummer 2182334
</rights></identification><defaults><scaling><millimeters>6.5088</millimeters><tenths>40</tenths></scaling><page-layout><page-height>1771</page-height><page-width>1308</page-width><page-margins type="both"><left-margin>78</left-margin><right-margin>78</right-margin><top-margin>78</top-margin><bottom-margin>163</bottom-margin></page-margins></page-layout><system-layout><system-margins><left-margin>0</left-margin><right-margin>0</right-margin></system-margins><system-distance>278</system-distance><top-system-distance>122</top-system-distance></system-layout><appearance><line-width type="stem">1.4583</line-width><line-width type="beam">5</line-width><line-width type="staff">1.25</line-width><line-width type="light barline">1.4583</line-width><line-width type="heavy barline">5</line-width><line-width type="leger">1.875</line-width><line-width type="ending">1.4583</line-width><line-width type="wedge">1.4583</line-width><line-width type="enclosure">1.4583</line-width><line-width type="tuplet bracket">1.4583</line-width><note-size type="grace">50</note-size><note-size type="cue">50</note-size></appearance><music-font font-family="Maestro" font-size="18.5" /><word-font font-family="Arial" font-size="9.2" /><lyric-font font-family="Arial" font-size="10.8" name="verse" /><lyric-font font-family="Arial" font-size="10.8" name="section" /></defaults><credit page="1"><credit-words default-x="654" default-y="1688" font-size="21.6" font-weight="bold" justify="center" valign="top" xml:lang="de">Groß ist dein Name</credit-words></credit><credit page="1"><credit-words default-x="1230" default-y="1620" font-size="10.8" font-style="italic" justify="right" valign="top">Text und Musik:</credit-words><credit-words font-size="10.8" font-style="normal" font-weight="bold">
Gerhard Schnitter</credit-words></credit><part-list><score-part id="P1"><part-name print-object="no">Melodie</part-name><score-instrument id="P1-I2"><instrument-name>Melodie</instrument-name></score-instrument><midi-instrument id="P1-I2"><midi-channel>1</midi-channel><midi-program>1</midi-program><volume>80</volume><pan>0</pan></midi-instrument></score-part></part-list><!--=========================================================--><part id="P1"><measure number="1" width="299"><print><system-layout><system-margins><left-margin>68</left-margin><right-margin>0</right-margin></system-margins><top-system-distance>244</top-system-distance></system-layout><measure-numbering>system</measure-numbering></print><attributes><divisions>2</divisions><key><fifths>2</fifths><mode>major</mode></key><time><beats>4</beats><beat-type>4</beat-type></time><clef><sign>G</sign><line>2</line></clef></attributes><sound tempo="96" /><harmony default-y="29" font-size="10" font-weight="bold"><root><root-step>D</root-step></root><kind halign="center" text="">major</kind></harmony><note default-x="127"><pitch><step>F</step><alter>1</alter><octave>4</octave></pitch><duration>4</duration><voice>1</voice><type>half</type><stem default-y="1">up</stem><lyric default-y="-95" name="verse" number="1"><syllabic>single</syllabic><text font-size="10.8">Groß</text></lyric></note><note default-x="197"><pitch><step>F</step><alter>1</alter><octave>4</octave></pitch><duration>2</duration><voice>1</voice><type>quarter</type><stem default-y="1">up</stem><lyric default-y="-95" name="verse" number="1"><syllabic>single</syllabic><text font-size="10.8">ist</text></lyric></note><note default-x="250"><pitch><step>A</step><octave>4</octave></pitch><duration>2</duration><voice>1</voice><type>quarter</type><stem default-y="11">up</stem><lyric default-y="-95" name="verse" number="1"><syllabic>single</syllabic><text font-size="10.8">dein</text></lyric></note></measure><!--=======================================================--><measure number="2" width="157"><harmony default-y="29" font-size="10" font-weight="bold"><root><root-step>A</root-step></root><kind halign="center" text="">major</kind><bass><bass-step>C</bass-step><bass-alter>1</bass-alter></bass></harmony><note default-x="17"><pitch><step>A</step><octave>4</octave></pitch><duration>4</duration><voice>1</voice><type>half</type><stem default-y="11">up</stem><lyric default-y="-95" name="verse" number="1"><syllabic>begin</syllabic><text font-size="10.8">Na</text></lyric></note><note default-x="86"><pitch><step>E</step><octave>4</octave></pitch><duration>4</duration><voice>1</voice><type>half</type><stem default-y="-4">up</stem><lyric default-y="-95" name="verse" number="1"><syllabic>end</syllabic><text font-size="10.8">me,</text></lyric></note></measure><!--=======================================================--><measure number="3" width="294"><harmony default-y="29" font-size="10" font-weight="bold"><root><root-step>B</root-step></root><kind halign="center" text="m7">minor-seventh</kind></harmony><note default-x="27"><pitch><step>D</step><octave>4</octave></pitch><duration>2</duration><voice>1</voice><type>quarter</type><stem default-y="-9">up</stem><lyric default-y="-95" name="verse" number="1"><syllabic>single</syllabic><text font-size="10.8">Herr,</text></lyric></note><note default-x="87"><pitch><step>F</step><alter>1</alter><octave>4</octave></pitch><duration>2</duration><voice>1</voice><type>quarter</type><stem default-y="1">up</stem><lyric default-y="-95" name="verse" number="1"><syllabic>single</syllabic><text font-size="10.8">wir</text></lyric></note><harmony default-y="29" font-size="10" font-weight="bold"><root><root-step>A</root-step></root><kind halign="center" text="">major</kind></harmony><note default-x="133"><pitch><step>E</step><octave>4</octave></pitch><duration>1</duration><voice>1</voice><type>eighth</type><stem default-y="-4">up</stem><lyric default-y="-95" name="verse" number="1"><syllabic>begin</syllabic><text font-size="10.8">lo</text></lyric></note><note default-x="179"><pitch><step>E</step><octave>4</octave></pitch><duration>2</duration><voice>1</voice><type>quarter</type><stem default-y="-4">up</stem><lyric default-y="-95" name="verse" number="1"><syllabic>end</syllabic><text font-size="10.8">ben</text></lyric></note><harmony default-y="29" font-size="10" font-weight="bold"><root><root-step>D</root-step></root><kind halign="center" text="">major</kind></harmony><note default-x="243"><pitch><step>F</step><alter>1</alter><octave>4</octave></pitch><duration>1</duration><tie type="start" /><voice>1</voice><type>eighth</type><stem default-y="1">up</stem><notations><tied type="start" /></notations><lyric default-y="-95" name="verse" number="1"><syllabic>single</syllabic><text font-size="10.8">dich!</text><extend /></lyric></note></measure><!--=======================================================--><measure number="4" width="124"><note default-x="10"><pitch><step>F</step><alter>1</alter><octave>4</octave></pitch><duration>6</duration><tie type="stop" /><voice>1</voice><type>half</type><dot /><stem default-y="1">up</stem><notations><tied type="stop" /></notations></note><note default-x="87"><rest /><duration>2</duration><voice>1</voice><type>quarter</type></note></measure><!--=======================================================--><measure number="5" width="210"><note default-x="10"><pitch><step>F</step><alter>1</alter><octave>4</octave></pitch><duration>3</duration><voice>1</voice><type>quarter</type><dot /><stem default-y="1">up</stem><lyric default-y="-95" name="verse" number="1"><syllabic>begin</syllabic><text font-size="10.8">Hei</text></lyric></note><note default-x="67"><pitch><step>G</step><octave>4</octave></pitch><duration>1</duration><voice>1</voice><type>eighth</type><stem default-y="6">up</stem><lyric default-y="-95" name="verse" number="1"><syllabic>end</syllabic><text font-size="10.8">lig</text></lyric></note><note default-x="108"><pitch><step>A</step><octave>4</octave></pitch><duration>2</duration><voice>1</voice><type>quarter</type><stem default-y="11">up</stem><lyric default-y="-95" name="verse" number="1"><syllabic>single</syllabic><text font-size="10.8">ist</text></lyric></note><note default-x="161"><pitch><step>B</step><octave>4</octave></pitch><duration>2</duration><voice>1</voice><type>quarter</type><stem default-y="-55">down</stem><lyric default-y="-95" name="verse" number="1"><syllabic>single</syllabic><text font-size="10.8">dein</text></lyric></note></measure><!--=======================================================--><measure number="6" width="341"><print new-system="yes"><system-layout><system-distance>184</system-distance></system-layout></print><harmony default-y="29" font-size="10" font-weight="bold"><root><root-step>B</root-step></root><kind halign="center" text="m">minor</kind></harmony><note default-x="95"><pitch><step>B</step><octave>4</octave></pitch><duration>4</duration><voice>1</voice><type>half</type><stem default-y="-55">down</stem><lyric default-y="-95" name="verse" number="1"><syllabic>begin</syllabic><text font-size="10.8">Na</text></lyric></note><direction placement="above"><direction-type><words default-x="278" default-y="58" font-style="italic" justify="right">Schluss zur Coda</words></direction-type></direction><note default-x="217"><pitch><step>F</step><alter>1</alter><octave>4</octave></pitch><duration>4</duration><voice>1</voice><type>half</type><stem default-y="0.5">up</stem><lyric default-y="-95" name="verse" number="1"><syllabic>end</syllabic><text font-size="10.8">me,</text></lyric></note><direction placement="above"><direction-type><coda default-x="288" default-y="58" /></direction-type><sound coda="6" divisions="2" /></direction></measure><!--=======================================================--><measure number="7" width="534"><harmony default-y="29" font-size="10" font-weight="bold"><root><root-step>B</root-step></root><kind halign="center" text="m7">minor-seventh</kind><bass><bass-step>E</bass-step></bass></harmony><note default-x="30"><pitch><step>A</step><octave>4</octave></pitch><duration>2</duration><voice>1</voice><type>quarter</type><stem default-y="11">up</stem><lyric default-y="-95" name="verse" number="1"><syllabic>single</syllabic><text font-size="10.8">Herr,</text></lyric></note><note default-x="148"><pitch><step>F</step><alter>1</alter><octave>4</octave></pitch><duration>2</duration><voice>1</voice><type>quarter</type><stem default-y="0.5">up</stem><lyric default-y="-95" name="verse" number="1"><syllabic>single</syllabic><text font-size="10.8">wir</text></lyric></note><harmony default-y="29" font-size="10" font-weight="bold"><root><root-step>A</root-step></root><kind halign="center" text="7">dominant</kind></harmony><note default-x="267"><pitch><step>E</step><octave>4</octave></pitch><duration>1</duration><voice>1</voice><type>eighth</type><stem default-y="-4">up</stem><lyric default-y="-95" name="verse" number="1"><syllabic>begin</syllabic><text font-size="10.8">prei</text></lyric></note><note default-x="340"><pitch><step>F</step><alter>1</alter><octave>4</octave></pitch><duration>2</duration><voice>1</voice><type>quarter</type><stem default-y="0.5">up</stem><lyric default-y="-95" name="verse" number="1"><syllabic>end</syllabic><text font-size="10.8">sen</text></lyric></note><harmony default-y="29" font-size="10" font-weight="bold"><root><root-step>D</root-step></root><kind halign="center" text="">major</kind></harmony><note default-x="459"><pitch><step>D</step><octave>4</octave></pitch><duration>1</duration><tie type="start" /><voice>1</voice><type>eighth</type><stem default-y="-9">up</stem><notations><tied type="start" /></notations><lyric default-y="-95" name="verse" number="1"><syllabic>single</syllabic><text font-size="10.8">dich!</text><extend /></lyric></note></measure><!--=======================================================--><measure number="8" width="278"><note default-x="10"><pitch><step>D</step><octave>4</octave></pitch><duration>6</duration><tie type="stop" /><voice>1</voice><type>half</type><dot /><stem default-y="-9">up</stem><notations><tied type="stop" /></notations></note><note default-x="188"><pitch><step>F</step><alter>1</alter><octave>4</octave></pitch><duration>2</duration><voice>1</voice><type>quarter</type><stem default-y="0.5">up</stem><lyric default-y="-95" name="verse" number="1" relative-x="-10"><syllabic>single</syllabic><text font-size="10.8">1.</text><elision> </elision><syllabic>single</syllabic><text font-size="10.8">Er</text></lyric><lyric default-y="-120" name="verse" number="2" relative-x="-2"><syllabic>single</syllabic><text font-size="10.8">2.</text><elision> </elision><syllabic>single</syllabic><text font-size="10.8">Der</text></lyric><lyric default-y="-145" name="verse" number="3"><syllabic>single</syllabic><text font-size="10.8">3.</text><elision> </elision><syllabic>single</syllabic><text font-size="10.8">Nun</text></lyric><lyric default-y="-169" name="verse" number="4" relative-x="-4"><syllabic>single</syllabic><text font-size="10.8">4.</text><elision> </elision><syllabic>single</syllabic><text font-size="10.8">Wir</text></lyric></note><barline location="right"><bar-style>light-light</bar-style></barline></measure><!--=======================================================--><measure number="9" width="417"><print new-system="yes"><system-layout><system-distance>255</system-distance></system-layout></print><harmony default-y="29" font-size="10" font-weight="bold"><root><root-step>B</root-step></root><kind halign="center" text="m">minor</kind></harmony><note default-x="95"><pitch><step>B</step><octave>4</octave></pitch><duration>2</duration><voice>1</voice><type>quarter</type><stem default-y="-56">down</stem><lyric default-y="-95" name="verse" number="1"><syllabic>begin</syllabic><text font-size="10.8">sel</text></lyric><lyric default-y="-120" name="verse" number="2"><syllabic>begin</syllabic><text font-size="10.8">Sie</text></lyric><lyric default-y="-145" name="verse" number="3"><syllabic>begin</syllabic><text font-size="10.8">schä</text></lyric><lyric default-y="-169" name="verse" number="4"><syllabic>begin</syllabic><text font-size="10.8">wol</text></lyric></note><note default-x="166"><pitch><step>B</step><octave>4</octave></pitch><duration>2</duration><voice>1</voice><type>quarter</type><stem default-y="-56">down</stem><lyric default-y="-95" name="verse" number="1"><syllabic>end</syllabic><text font-size="10.8">ber,</text></lyric><lyric default-y="-120" name="verse" number="2"><syllabic>end</syllabic><text font-size="10.8">ger</text></lyric><lyric default-y="-145" name="verse" number="3"><syllabic>end</syllabic><text font-size="10.8">men</text></lyric><lyric default-y="-169" name="verse" number="4"><syllabic>end</syllabic><text font-size="10.8">len</text></lyric></note><note default-x="231"><pitch><step>A</step><octave>4</octave></pitch><duration>1</duration><voice>1</voice><type>eighth</type><stem default-y="11">up</stem><lyric default-y="-95" name="verse" number="1"><syllabic>begin</syllabic><text font-size="10.8">Got</text></lyric><lyric default-y="-120" name="verse" number="2"><syllabic>begin</syllabic><text font-size="10.8">Je</text></lyric><lyric default-y="-145" name="verse" number="3"><syllabic>single</syllabic><text font-size="10.8">wir</text></lyric><lyric default-y="-169" name="verse" number="4"><syllabic>begin</syllabic><text font-size="10.8">un</text></lyric></note><note default-x="287"><pitch><step>F</step><alter>1</alter><octave>4</octave></pitch><duration>2</duration><voice>1</voice><type>quarter</type><stem default-y="1">up</stem><lyric default-y="-95" name="verse" number="1"><syllabic>end</syllabic><text font-size="10.8">tes</text></lyric><lyric default-y="-120" name="verse" number="2"><syllabic>end</syllabic><text font-size="10.8">sus</text></lyric><lyric default-y="-145" name="verse" number="3"><syllabic>single</syllabic><text font-size="10.8">uns</text></lyric><lyric default-y="-169" name="verse" number="4"><syllabic>end</syllabic><text font-size="10.8">ser</text></lyric></note><harmony default-y="29" font-size="10" font-weight="bold"><root><root-step>E</root-step></root><kind halign="center" text="m7">minor-seventh</kind></harmony><note default-x="359"><pitch><step>G</step><octave>4</octave></pitch><duration>1</duration><tie type="start" /><voice>1</voice><type>eighth</type><stem default-y="6">up</stem><notations><tied type="start" /></notations><lyric default-y="-95" name="verse" number="1"><syllabic>single</syllabic><text font-size="10.8">Sohn,</text><extend /></lyric><lyric default-y="-120" name="verse" number="2"><syllabic>single</syllabic><text font-size="10.8">Christ</text><extend /></lyric><lyric default-y="-145" name="verse" number="3"><syllabic>single</syllabic><text font-size="10.8">nicht</text><extend /></lyric><lyric default-y="-169" name="verse" number="4"><syllabic>begin</syllabic><text font-size="10.8">Le</text></lyric></note></measure><!--=======================================================--><measure number="10" width="192"><note default-x="10"><pitch><step>G</step><octave>4</octave></pitch><duration>4</duration><tie type="stop" /><voice>1</voice><type>half</type><stem default-y="6">up</stem><notations><tied type="stop" /></notations></note><note default-x="84"><pitch><step>G</step><octave>4</octave></pitch><duration>2</duration><voice>1</voice><type size="cue">quarter</type><stem default-y="6">up</stem><lyric default-y="-169" name="verse" number="4"><syllabic>end</syllabic><text font-size="10.8">ben</text></lyric></note><note default-x="141"><pitch><step>F</step><alter>1</alter><octave>4</octave></pitch><duration>2</duration><voice>1</voice><type>quarter</type><stem default-y="1">up</stem><lyric default-y="-95" name="verse" number="1"><syllabic>begin</syllabic><text font-size="10.8">ver</text></lyric><lyric default-y="-120" name="verse" number="2"><syllabic>single</syllabic><text font-size="10.8">vom</text></lyric><lyric default-y="-145" name="verse" number="3"><syllabic>single</syllabic><text font-size="10.8">und</text></lyric><lyric default-y="-169" name="verse" number="4"><syllabic>single</syllabic><text font-size="10.8">aus</text></lyric></note></measure><!--=======================================================--><measure number="11" width="351"><harmony default-y="29" font-size="10" font-weight="bold"><root><root-step>A</root-step></root><kind halign="center" text="">major</kind></harmony><note default-x="19"><pitch><step>E</step><octave>4</octave></pitch><duration>2</duration><voice>1</voice><type>quarter</type><stem default-y="-4">up</stem><lyric default-y="-95" name="verse" number="1"><syllabic>end</syllabic><text font-size="10.8">ließ</text></lyric><lyric default-y="-120" name="verse" number="2"><syllabic>single</syllabic><text font-size="10.8">Tod</text></lyric><lyric default-y="-145" name="verse" number="3"><syllabic>begin</syllabic><text font-size="10.8">tre</text></lyric><lyric default-y="-169" name="verse" number="4"><syllabic>begin</syllabic><text font-size="10.8">Dank</text></lyric></note><note default-x="90"><pitch><step>E</step><octave>4</octave></pitch><duration>2</duration><voice>1</voice><type>quarter</type><stem default-y="-4">up</stem><lyric default-y="-95" name="verse" number="1"><syllabic>single</syllabic><text font-size="10.8">des</text></lyric><lyric default-y="-120" name="verse" number="2"><syllabic>begin</syllabic><text font-size="10.8">er</text></lyric><lyric default-y="-145" name="verse" number="3"><syllabic>end</syllabic><text font-size="10.8">ten</text></lyric><lyric default-y="-169" name="verse" number="4"><syllabic>middle</syllabic><text font-size="10.8">bar</text></lyric></note><note default-x="156"><pitch><step>D</step><octave>4</octave></pitch><duration>1</duration><voice>1</voice><type>eighth</type><stem default-y="-9">up</stem><lyric default-y="-95" name="verse" number="1"><syllabic>begin</syllabic><text font-size="10.8">Va</text></lyric><lyric default-y="-120" name="verse" number="2"><syllabic>middle</syllabic><text font-size="10.8">stan</text></lyric><lyric default-y="-145" name="verse" number="3"><syllabic>single</syllabic><text font-size="10.8">frei</text></lyric><lyric default-y="-169" name="verse" number="4"><syllabic>end</syllabic><text font-size="10.8">keit</text></lyric></note><note default-x="215"><pitch><step>E</step><octave>4</octave></pitch><duration>2</duration><voice>1</voice><type>quarter</type><stem default-y="-4">up</stem><lyric default-y="-95" name="verse" number="1"><syllabic>end</syllabic><text font-size="10.8">ters</text></lyric><lyric default-y="-120" name="verse" number="2"><syllabic>end</syllabic><text font-size="10.8">den</text></lyric><lyric default-y="-145" name="verse" number="3"><syllabic>single</syllabic><text font-size="10.8">ans</text></lyric><lyric default-y="-169" name="verse" number="4"><syllabic>single</syllabic><text font-size="10.8">dir</text></lyric></note><harmony default-y="29" font-size="10" font-weight="bold"><root><root-step>D</root-step></root><kind halign="center" text="">major</kind></harmony><note default-x="291"><pitch><step>F</step><alter>1</alter><octave>4</octave></pitch><duration>1</duration><tie type="start" /><voice>1</voice><type>eighth</type><stem default-y="1">up</stem><notations><tied type="start" /></notations><lyric default-y="-95" name="verse" number="1"><syllabic>single</syllabic><text font-size="10.8">Thron,</text><extend /></lyric><lyric default-y="-120" name="verse" number="2"><syllabic>single</syllabic><text font-size="10.8">ist.</text><extend /></lyric><lyric default-y="-145" name="verse" number="3"><syllabic>single</syllabic><text font-size="10.8">Licht.</text><extend /></lyric><lyric default-y="-169" name="verse" number="4"><syllabic>begin</syllabic><text font-size="10.8">ge</text></lyric></note></measure><!--=======================================================--><measure number="12" width="193"><note default-x="10"><pitch><step>F</step><alter>1</alter><octave>4</octave></pitch><duration>4</duration><tie type="stop" /><tie type="start" /><voice>1</voice><type>half</type><stem default-y="1">up</stem><notations><tied type="stop" /><tied type="start" /></notations></note><note default-x="85"><pitch><step>F</step><alter>1</alter><octave>4</octave></pitch><duration>2</duration><tie type="stop" /><voice>1</voice><type>quarter</type><stem default-y="1">up</stem><notations><tied type="stop" /></notations><lyric default-y="-169" name="verse" number="4"><syllabic>end</syllabic><text font-size="10.8">ben.</text></lyric></note><note default-x="142"><pitch><step>F</step><alter>1</alter><octave>4</octave></pitch><duration>2</duration><voice>1</voice><type>quarter</type><stem default-y="1">up</stem><lyric default-y="-95" name="verse" number="1"><syllabic>single</syllabic><text font-size="10.8">litt</text></lyric><lyric default-y="-120" name="verse" number="2"><syllabic>single</syllabic><text font-size="10.8">Zu</text></lyric><lyric default-y="-145" name="verse" number="3"><syllabic>single</syllabic><text font-size="10.8">Wir</text></lyric><lyric default-y="-169" name="verse" number="4"><syllabic>single</syllabic><text font-size="10.8">Nur</text></lyric></note></measure><!--=======================================================--><measure number="13" width="404"><print new-system="yes"><system-layout><system-distance>255</system-distance></system-layout></print><harmony default-y="29" font-size="10" font-weight="bold"><root><root-step>B</root-step></root><kind halign="center" text="">major</kind></harmony><note default-x="100"><pitch><step>F</step><alter>1</alter><octave>4</octave></pitch><duration>2</duration><voice>1</voice><type>quarter</type><stem default-y="1">up</stem><lyric default-y="-95" name="verse" number="1"><syllabic>begin</syllabic><text font-size="10.8">Schan</text></lyric><lyric default-y="-120" name="verse" number="2"><syllabic>begin</syllabic><text font-size="10.8">En</text></lyric><lyric default-y="-145" name="verse" number="3"><syllabic>begin</syllabic><text font-size="10.8">neh</text></lyric><lyric default-y="-169" name="verse" number="4"><syllabic>begin</syllabic><text font-size="10.8">da</text></lyric></note><note default-x="176"><pitch><step>D</step><alter>1</alter><octave>4</octave></pitch><duration>2</duration><voice>1</voice><type>quarter</type><accidental>sharp</accidental><stem default-y="-9">up</stem><lyric default-y="-95" name="verse" number="1"><syllabic>end</syllabic><text font-size="10.8">de,</text></lyric><lyric default-y="-120" name="verse" number="2"><syllabic>end</syllabic><text font-size="10.8">de</text></lyric><lyric default-y="-145" name="verse" number="3"><syllabic>end</syllabic><text font-size="10.8">men</text></lyric><lyric default-y="-169" name="verse" number="4"><syllabic>end</syllabic><text font-size="10.8">rin</text></lyric></note><note default-x="251"><pitch><step>E</step><octave>4</octave></pitch><duration>2</duration><voice>1</voice><type>quarter</type><stem default-y="-4">up</stem><lyric default-y="-95" name="verse" number="1"><syllabic>single</syllabic><text font-size="10.8">Spott</text></lyric><lyric default-y="-120" name="verse" number="2"><syllabic>single</syllabic><text font-size="10.8">ist</text></lyric><lyric default-y="-145" name="verse" number="3"><syllabic>begin</syllabic><text font-size="10.8">stau</text></lyric><lyric default-y="-169" name="verse" number="4"><syllabic>single</syllabic><text font-size="10.8">liegt</text></lyric></note><note default-x="327"><pitch><step>F</step><alter>1</alter><octave>4</octave></pitch><duration>2</duration><voice>1</voice><type>quarter</type><stem default-y="1">up</stem><lyric default-y="-95" name="verse" number="1"><syllabic>single</syllabic><text font-size="10.8">und</text></lyric><lyric default-y="-120" name="verse" number="2"><syllabic>single</syllabic><text font-size="10.8">die</text></lyric><lyric default-y="-145" name="verse" number="3"><syllabic>end</syllabic><text font-size="10.8">nend</text></lyric><lyric default-y="-169" name="verse" number="4"><syllabic>begin</syllabic><text font-size="10.8">Ge</text></lyric></note></measure><!--=======================================================--><measure number="14" width="211"><harmony default-y="29" font-size="10" font-weight="bold"><root><root-step>E</root-step></root><kind halign="center" text="m">minor</kind></harmony><note default-x="26"><pitch><step>G</step><octave>4</octave></pitch><duration>4</duration><voice>1</voice><type>half</type><stem default-y="6">up</stem><lyric default-y="-95" name="verse" number="1"><syllabic>single</syllabic><text font-size="10.8">Not,</text></lyric><lyric default-y="-120" name="verse" number="2"><syllabic>single</syllabic><text font-size="10.8">Nacht,</text></lyric><lyric default-y="-145" name="verse" number="3"><syllabic>single</syllabic><text font-size="10.8">an,</text></lyric><lyric default-y="-169" name="verse" number="4"><syllabic>end</syllabic><text font-size="10.8">winn.</text></lyric></note><note default-x="109"><rest /><duration>2</duration><voice>1</voice><type>quarter</type></note><note default-x="159"><pitch><step>B</step><octave>4</octave></pitch><duration>2</duration><voice>1</voice><type>quarter</type><stem default-y="-55.5">down</stem><lyric default-y="-95" name="verse" number="1"><syllabic>single</syllabic><text font-size="10.8">ging</text></lyric><lyric default-y="-120" name="verse" number="2"><syllabic>begin</syllabic><text font-size="10.8">vor</text></lyric><lyric default-y="-145" name="verse" number="3"><syllabic>single</syllabic><text font-size="10.8">was</text></lyric><lyric default-y="-169" name="verse" number="4"><syllabic>single</syllabic><text font-size="10.8">Du</text></lyric></note></measure><!--=======================================================--><measure number="15" width="390"><harmony default-y="29" font-size="10" font-weight="bold"><root><root-step>E</root-step></root><kind halign="center" text="7">dominant</kind></harmony><note default-x="23"><pitch><step>G</step><alter>1</alter><octave>4</octave></pitch><duration>2</duration><voice>1</voice><type>quarter</type><accidental>sharp</accidental><stem default-y="6">up</stem><lyric default-y="-95" name="verse" number="1"><syllabic>single</syllabic><text font-size="10.8">für</text></lyric><lyric default-y="-120" name="verse" number="2"><syllabic>end</syllabic><text font-size="10.8">bei</text></lyric><lyric default-y="-145" name="verse" number="3"><syllabic>single</syllabic><text font-size="10.8">er</text></lyric><lyric default-y="-169" name="verse" number="4"><syllabic>single</syllabic><text font-size="10.8">bist</text></lyric></note><note default-x="99"><pitch><step>E</step><octave>4</octave></pitch><duration>2</duration><voice>1</voice><type>quarter</type><stem default-y="-4">up</stem><lyric default-y="-95" name="verse" number="1"><syllabic>single</syllabic><text font-size="10.8">uns</text></lyric><lyric default-y="-120" name="verse" number="2"><syllabic>single</syllabic><text font-size="10.8">der</text></lyric><lyric default-y="-145" name="verse" number="3"><syllabic>single</syllabic><text font-size="10.8">für</text></lyric><lyric default-y="-169" name="verse" number="4"><syllabic>single</syllabic><text font-size="10.8">des</text></lyric></note><note default-x="177"><pitch><step>F</step><alter>1</alter><octave>4</octave></pitch><duration>1</duration><voice>1</voice><type>eighth</type><stem default-y="1">up</stem><lyric default-y="-95" name="verse" number="1"><syllabic>single</syllabic><text font-size="10.8">in</text></lyric><lyric default-y="-120" name="verse" number="2"><syllabic>begin</syllabic><text font-size="10.8">Sün</text></lyric><lyric default-y="-145" name="verse" number="3"><syllabic>single</syllabic><text font-size="10.8">uns</text></lyric><lyric default-y="-169" name="verse" number="4"><syllabic>begin</syllabic><text font-size="10.8">Le</text></lyric></note><note default-x="239"><pitch><step>G</step><alter>1</alter><octave>4</octave></pitch><duration>2</duration><voice>1</voice><type>quarter</type><stem default-y="6">up</stem><lyric default-y="-95" name="verse" number="1"><syllabic>single</syllabic><text font-size="10.8">den</text></lyric><lyric default-y="-120" name="verse" number="2"><syllabic>end</syllabic><text font-size="10.8">de</text></lyric><lyric default-y="-145" name="verse" number="3"><syllabic>begin</syllabic><text font-size="10.8">ge</text></lyric><lyric default-y="-169" name="verse" number="4"><syllabic>end</syllabic><text font-size="10.8">bens</text></lyric></note><harmony default-y="29" font-size="10" font-weight="bold"><root><root-step>A</root-step></root><kind halign="center" text="">major</kind></harmony><note default-x="328"><pitch><step>A</step><octave>4</octave></pitch><duration>1</duration><tie type="start" /><voice>1</voice><type>eighth</type><stem default-y="11">up</stem><notations><tied type="start" /></notations><lyric default-y="-95" name="verse" number="1"><syllabic>single</syllabic><text font-size="10.8">Tod.</text><extend /></lyric><lyric default-y="-120" name="verse" number="2"><syllabic>single</syllabic><text font-size="10.8">Macht.</text><extend /></lyric><lyric default-y="-145" name="verse" number="3"><syllabic>end</syllabic><text font-size="10.8">tan.</text><extend /></lyric><lyric default-y="-169" name="verse" number="4"><syllabic>single</syllabic><text font-size="10.8">Sinn!</text><extend /></lyric></note></measure><!--=======================================================--><measure number="16" width="147"><note default-x="10"><pitch><step>A</step><octave>4</octave></pitch><duration>6</duration><tie type="stop" /><voice>1</voice><type>half</type><dot /><stem default-y="11">up</stem><notations><tied type="stop" /></notations></note><note default-x="99"><rest /><duration>2</duration><voice>1</voice><type>quarter</type></note><direction placement="above"><direction-type><words default-x="146" default-y="18" font-style="italic" justify="right">D.C. al Coda</words></direction-type><sound dacapo="yes" /></direction><barline location="right"><bar-style>light-light</bar-style></barline></measure><!--=======================================================--><measure number="17" width="796"><print new-system="yes"><system-layout><system-margins><left-margin>70</left-margin><right-margin>0</right-margin></system-margins><system-distance>255</system-distance></system-layout></print><direction placement="above"><direction-type><coda default-x="14" default-y="66" /></direction-type><sound coda="17" divisions="2" /></direction><direction placement="above"><direction-type><words default-x="40" default-y="66" font-style="italic">Coda</words></direction-type></direction><harmony default-y="29" font-size="10" font-weight="bold"><root><root-step>B</root-step></root><kind halign="center" text="m7">minor-seventh</kind><bass><bass-step>E</bass-step></bass></harmony><note default-x="105"><pitch><step>A</step><octave>4</octave></pitch><duration>2</duration><voice>1</voice><type>quarter</type><stem default-y="11">up</stem><lyric default-y="-95" name="verse" number="1"><syllabic>single</syllabic><text font-size="10.8">Herr,</text></lyric></note><note default-x="268"><pitch><step>F</step><alter>1</alter><octave>4</octave></pitch><duration>2</duration><voice>1</voice><type>quarter</type><stem default-y="1">up</stem><lyric default-y="-95" name="verse" number="1"><syllabic>single</syllabic><text font-size="10.8">wir</text></lyric></note><harmony default-y="29" font-size="10" font-weight="bold"><root><root-step>A</root-step></root><kind halign="center" text="7">dominant</kind></harmony><note default-x="431"><pitch><step>E</step><octave>4</octave></pitch><duration>1</duration><voice>1</voice><type>eighth</type><stem default-y="-4">up</stem><lyric default-y="-95" name="verse" number="1"><syllabic>begin</syllabic><text font-size="10.8">prei</text></lyric></note><note default-x="532"><pitch><step>F</step><alter>1</alter><octave>4</octave></pitch><duration>2</duration><voice>1</voice><type>quarter</type><stem default-y="1">up</stem><lyric default-y="-95" name="verse" number="1"><syllabic>end</syllabic><text font-size="10.8">sen</text></lyric></note><harmony default-y="29" font-size="10" font-weight="bold"><root><root-step>D</root-step></root><kind halign="center" text="">major</kind></harmony><note default-x="694"><pitch><step>D</step><octave>4</octave></pitch><duration>1</duration><tie type="start" /><voice>1</voice><type>eighth</type><stem default-y="-9">up</stem><notations><tied type="start" /></notations><lyric default-y="-95" name="verse" number="1"><syllabic>single</syllabic><text font-size="10.8">dich!</text><extend /></lyric></note></measure><!--=======================================================--><measure number="18" width="286"><note default-x="23"><pitch><step>D</step><octave>4</octave></pitch><duration>6</duration><tie type="stop" /><voice>1</voice><type>half</type><dot /><stem default-y="-9">up</stem><notations><tied type="stop" /></notations></note><note default-x="191"><rest /><duration>2</duration><voice>1</voice><type>quarter</type></note><barline location="right"><bar-style>light-heavy</bar-style></barline></measure></part><!--=========================================================--></score-partwise>