<?xml version="1.0" encoding="UTF-8" standalone="no"?><!DOCTYPE score-partwise PUBLIC "-//Recordare//DTD MusicXML 3.0 Partwise//EN" "http://www.musicxml.org/dtds/partwise.dtd"[]><score-partwise version="3.0"><movement-title>Großer herrlicher Gott</movement-title><identification><creator type="composer">Josef Avakian und
D. Grossmann</creator><creator type="arranger">Unbekannt</creator><encoding><software>Finale 2014 for Windows</software><software>Dolet Light for Finale 2014</software><encoding-date>2016-12-01</encoding-date><supports attribute="new-system" element="print" type="yes" value="yes" /><supports attribute="new-page" element="print" type="yes" value="yes" /><supports element="accidental" type="yes" /><supports element="beam" type="yes" /><supports element="stem" type="yes" /></encoding><rights>CCLI-Liednummer 4004592
© 1991 SCM Hänssler, Holzgerlingen
Nutzung ausschließlich im Rahmen der SongSelect®-Nutzungsbedingungen. Alle Rechte vorbehalten. www.ccli.com
CCLI-Lizenznummer 2182334
</rights></identification><defaults><scaling><millimeters>6.5088</millimeters><tenths>40</tenths></scaling><page-layout><page-height>1717</page-height><page-width>1327</page-width><page-margins type="both"><left-margin>78</left-margin><right-margin>78</right-margin><top-margin>78</top-margin><bottom-margin>78</bottom-margin></page-margins></page-layout><system-layout><system-margins><left-margin>0</left-margin><right-margin>0</right-margin></system-margins><system-distance>190</system-distance><top-system-distance>117</top-system-distance></system-layout><appearance><line-width type="stem">1.4583</line-width><line-width type="beam">5</line-width><line-width type="staff">1.25</line-width><line-width type="light barline">1.4583</line-width><line-width type="heavy barline">5</line-width><line-width type="leger">1.875</line-width><line-width type="ending">1.4583</line-width><line-width type="wedge">1.4583</line-width><line-width type="enclosure">1.4583</line-width><line-width type="tuplet bracket">1.4583</line-width><note-size type="grace">50</note-size><note-size type="cue">50</note-size><distance type="hyphen">240</distance><distance type="beam">8</distance></appearance><music-font font-family="Maestro,engraved" font-size="18.5" /><word-font font-family="Arial" font-size="9.2" /><lyric-font font-family="Arial" font-size="10.8" name="verse" /><lyric-font font-family="Arial" font-size="10.8" name="section" /></defaults><credit page="1"><credit-type>title</credit-type><credit-words default-x="663" default-y="1649" font-size="21.6" font-weight="bold" justify="center" valign="top" xml:lang="de">Großer herrlicher Gott</credit-words></credit><credit page="1"><credit-words default-x="1249" default-y="1576" font-size="10.8" font-style="italic" justify="right" valign="top">Text und Musik:</credit-words></credit><credit page="1"><credit-type>composer</credit-type><credit-words default-x="1249" default-y="1552" font-size="10.8" font-weight="bold" justify="right" valign="top" xml:space="preserve">Josef Avakian und
D. Grossmann</credit-words></credit><credit page="2"><credit-type>title</credit-type><credit-type>page number</credit-type><credit-words default-x="663" default-y="1663" font-size="10.8" justify="center" valign="top" xml:lang="de">Großer herrlicher Gott - 2</credit-words></credit><part-list><score-part id="P1"><part-name print-object="no">Vocals</part-name><score-instrument id="P1-I2"><instrument-name>Melody</instrument-name></score-instrument><midi-instrument id="P1-I2"><midi-channel>1</midi-channel><midi-program>1</midi-program><volume>80</volume><pan>0</pan></midi-instrument></score-part></part-list><!--=========================================================--><part id="P1"><measure number="1" width="469"><print page-number="1"><page-layout><page-height>1717</page-height><page-width>1327</page-width><page-margins><left-margin>78</left-margin><right-margin>78</right-margin><top-margin>190</top-margin><bottom-margin>163</bottom-margin></page-margins></page-layout><system-layout><system-margins><left-margin>68</left-margin><right-margin>0</right-margin></system-margins></system-layout><measure-numbering>system</measure-numbering></print><barline location="left"><bar-style>heavy-light</bar-style><repeat direction="forward" winged="none" /></barline><attributes><divisions>2</divisions><key><fifths>1</fifths><mode>minor</mode></key><time><beats>4</beats><beat-type>4</beat-type></time><clef><sign>G</sign><line>2</line></clef></attributes><sound tempo="96" /><harmony default-y="36" font-size="10" font-weight="bold"><root><root-step>E</root-step></root><kind halign="center" text="m">minor</kind></harmony><direction placement="above"><direction-type><rehearsal default-y="69" font-weight="bold" relative-x="-28">CHORUS</rehearsal></direction-type></direction><note default-x="137"><pitch><step>B</step><octave>4</octave></pitch><duration>2</duration><voice>1</voice><type>quarter</type><stem default-y="-52">down</stem><lyric default-y="-91" name="verse" number="1"><syllabic>begin</syllabic><text font-size="10.8">Gro</text></lyric></note><note default-x="198"><pitch><step>B</step><octave>4</octave></pitch><duration>2</duration><voice>1</voice><type>quarter</type><stem default-y="-52">down</stem><lyric default-y="-91" name="verse" number="1"><syllabic>end</syllabic><text font-size="10.8">ßer,</text></lyric></note><note default-x="258"><pitch><step>A</step><octave>4</octave></pitch><duration>1</duration><voice>1</voice><type>eighth</type><stem default-y="6">up</stem><beam number="1">begin</beam><lyric default-y="-91" name="verse" number="1"><syllabic>begin</syllabic><text font-size="10.8">herr</text></lyric></note><note default-x="304"><pitch><step>G</step><octave>4</octave></pitch><duration>1</duration><voice>1</voice><type>eighth</type><stem default-y="1">up</stem><beam number="1">end</beam><lyric default-y="-91" name="verse" number="1"><syllabic>middle</syllabic><text font-size="10.8">li</text></lyric></note><note default-x="350"><pitch><step>A</step><octave>4</octave></pitch><duration>1</duration><voice>1</voice><type>eighth</type><stem default-y="6">up</stem><beam number="1">begin</beam><lyric default-y="-91" name="verse" number="1"><syllabic>end</syllabic><text font-size="10.8">cher</text></lyric></note><note default-x="416"><pitch><step>B</step><octave>4</octave></pitch><duration>1</duration><tie type="start" /><voice>1</voice><type>eighth</type><stem default-y="11.5">up</stem><beam number="1">end</beam><notations><tied type="start" /></notations><lyric default-y="-91" name="verse" number="1"><syllabic>single</syllabic><text font-size="10.8">Gott,</text><extend type="start" /></lyric></note></measure><!--=======================================================--><measure number="2" width="172"><note default-x="11"><pitch><step>B</step><octave>4</octave></pitch><duration>6</duration><tie type="stop" /><voice>1</voice><type>half</type><dot /><stem default-y="-52">down</stem><notations><tied type="stop" /></notations><lyric name="verse" number="1"><extend type="stop" /></lyric></note><note default-x="102"><rest /><duration>1</duration><voice>1</voice><type>eighth</type></note><note default-x="129"><pitch><step>B</step><octave>4</octave></pitch><duration>1</duration><voice>1</voice><type>eighth</type><stem default-y="-52">down</stem><lyric default-y="-91" name="verse" number="1"><syllabic>single</syllabic><text font-size="10.8">wir</text></lyric></note></measure><!--=======================================================--><measure number="3" width="317"><harmony default-y="36" font-size="10" font-weight="bold"><root><root-step>C</root-step></root><kind halign="center" text="maj7">major-seventh</kind></harmony><note default-x="35"><pitch><step>B</step><octave>4</octave></pitch><duration>2</duration><voice>1</voice><type>quarter</type><stem default-y="-52">down</stem><lyric default-y="-91" name="verse" number="1"><syllabic>begin</syllabic><text font-size="10.8">kom</text></lyric></note><note default-x="99"><pitch><step>G</step><octave>4</octave></pitch><duration>1</duration><voice>1</voice><type>eighth</type><stem default-y="1">up</stem><beam number="1">begin</beam><lyric default-y="-91" name="verse" number="1"><syllabic>end</syllabic><text font-size="10.8">men</text></lyric></note><note default-x="158"><pitch><step>G</step><octave>4</octave></pitch><duration>1</duration><tie type="start" /><voice>1</voice><type>eighth</type><stem default-y="1">up</stem><beam number="1">end</beam><notations><tied type="start" /></notations><lyric default-y="-91" name="verse" number="1"><syllabic>single</syllabic><text font-size="10.8">nun</text><extend type="start" /></lyric></note><note default-x="189"><pitch><step>G</step><octave>4</octave></pitch><duration>1</duration><tie type="stop" /><voice>1</voice><type>eighth</type><stem default-y="2">up</stem><notations><tied type="stop" /></notations><lyric name="verse" number="1"><extend type="stop" /></lyric></note><note default-x="227"><pitch><step>A</step><octave>4</octave></pitch><duration>2</duration><voice>1</voice><type>quarter</type><stem default-y="7">up</stem><lyric default-y="-91" name="verse" number="1"><syllabic>single</syllabic><text font-size="10.8">zu</text></lyric></note><note default-x="275"><pitch><step>G</step><octave>4</octave></pitch><duration>1</duration><tie type="start" /><voice>1</voice><type>eighth</type><stem default-y="2">up</stem><notations><tied type="start" /></notations><lyric default-y="-91" name="verse" number="1"><syllabic>single</syllabic><text font-size="10.8">dir.</text><extend type="start" /></lyric></note></measure><!--=======================================================--><measure number="4" width="144"><note default-x="10"><pitch><step>G</step><octave>4</octave></pitch><duration>6</duration><tie type="stop" /><voice>1</voice><type>half</type><dot /><stem default-y="2">up</stem><notations><tied type="stop" /></notations><lyric name="verse" number="1"><extend type="stop" /></lyric></note><note default-x="100"><rest /><duration>2</duration><voice>1</voice><type>quarter</type></note></measure><!--=======================================================--><measure number="5" width="445"><print new-system="yes"><system-layout><system-distance>180</system-distance></system-layout></print><harmony default-y="36" font-size="10" font-weight="bold"><root><root-step>E</root-step></root><kind halign="center" text="m">minor</kind></harmony><note default-x="83"><pitch><step>B</step><octave>4</octave></pitch><duration>2</duration><voice>1</voice><type>quarter</type><stem default-y="-52">down</stem><lyric default-y="-91" name="verse" number="1"><syllabic>begin</syllabic><text font-size="10.8">Gro</text></lyric></note><note default-x="154"><pitch><step>B</step><octave>4</octave></pitch><duration>2</duration><voice>1</voice><type>quarter</type><stem default-y="-52">down</stem><lyric default-y="-91" name="verse" number="1"><syllabic>end</syllabic><text font-size="10.8">ßer,</text></lyric></note><note default-x="223"><pitch><step>A</step><octave>4</octave></pitch><duration>1</duration><voice>1</voice><type>eighth</type><stem default-y="6.5">up</stem><beam number="1">begin</beam><lyric default-y="-91" name="verse" number="1"><syllabic>begin</syllabic><text font-size="10.8">herr</text></lyric></note><note default-x="273"><pitch><step>G</step><octave>4</octave></pitch><duration>1</duration><voice>1</voice><type>eighth</type><stem default-y="1">up</stem><beam number="1">end</beam><lyric default-y="-91" name="verse" number="1"><syllabic>middle</syllabic><text font-size="10.8">li</text></lyric></note><note default-x="324"><pitch><step>A</step><octave>4</octave></pitch><duration>1</duration><voice>1</voice><type>eighth</type><stem default-y="6.5">up</stem><beam number="1">begin</beam><lyric default-y="-91" name="verse" number="1"><syllabic>end</syllabic><text font-size="10.8">cher</text></lyric></note><note default-x="390"><pitch><step>B</step><octave>4</octave></pitch><duration>1</duration><tie type="start" /><voice>1</voice><type>eighth</type><stem default-y="11.5">up</stem><beam number="1">end</beam><notations><tied type="start" /></notations><lyric default-y="-91" name="verse" number="1"><syllabic>single</syllabic><text font-size="10.8">Gott,</text><extend type="start" /></lyric></note></measure><!--=======================================================--><measure number="6" width="187"><note default-x="11"><pitch><step>B</step><octave>4</octave></pitch><duration>6</duration><tie type="stop" /><voice>1</voice><type>half</type><dot /><stem default-y="-52">down</stem><notations><tied type="stop" /></notations><lyric name="verse" number="1"><extend type="stop" /></lyric></note><note default-x="113"><rest /><duration>1</duration><voice>1</voice><type>eighth</type></note><note default-x="144"><pitch><step>B</step><octave>4</octave></pitch><duration>1</duration><voice>1</voice><type>eighth</type><stem default-y="-52">down</stem><lyric default-y="-91" name="verse" number="1"><syllabic>single</syllabic><text font-size="10.8">wir</text></lyric></note></measure><!--=======================================================--><measure number="7" width="355"><harmony default-y="36" font-size="10" font-weight="bold"><root><root-step>C</root-step></root><kind halign="center" text="maj7">major-seventh</kind></harmony><note default-x="36"><pitch><step>B</step><octave>4</octave></pitch><duration>2</duration><voice>1</voice><type>quarter</type><stem default-y="-52">down</stem><lyric default-y="-91" name="verse" number="1"><syllabic>begin</syllabic><text font-size="10.8">beu</text></lyric></note><note default-x="103"><pitch><step>G</step><octave>4</octave></pitch><duration>1</duration><voice>1</voice><type>eighth</type><stem default-y="1">up</stem><beam number="1">begin</beam><lyric default-y="-91" name="verse" number="1"><syllabic>end</syllabic><text font-size="10.8">gen</text></lyric></note><note default-x="159"><pitch><step>G</step><octave>4</octave></pitch><duration>1</duration><tie type="start" /><voice>1</voice><type>eighth</type><stem default-y="1">up</stem><beam number="1">end</beam><notations><tied type="start" /></notations><lyric default-y="-91" name="verse" number="1"><syllabic>begin</syllabic><text font-size="10.8">uns</text></lyric></note><note default-x="196"><pitch><step>G</step><octave>4</octave></pitch><duration>1</duration><tie type="stop" /><voice>1</voice><type>eighth</type><stem default-y="2">up</stem><notations><tied type="stop" /></notations></note><note default-x="237"><pitch><step>A</step><octave>4</octave></pitch><duration>2</duration><voice>1</voice><type>quarter</type><stem default-y="7">up</stem><lyric default-y="-91" name="verse" number="1"><syllabic>end</syllabic><text font-size="10.8">re</text></lyric></note><note default-x="302"><pitch><step>G</step><octave>4</octave></pitch><duration>1</duration><tie type="start" /><voice>1</voice><type>eighth</type><stem default-y="2">up</stem><notations><tied type="start" /></notations><lyric default-y="-91" name="verse" number="1"><syllabic>single</syllabic><text font-size="10.8">Knie.</text><extend type="start" /></lyric></note></measure><!--=======================================================--><measure number="8" width="183"><note default-x="10"><pitch><step>G</step><octave>4</octave></pitch><duration>4</duration><tie type="stop" /><voice>1</voice><type>half</type><stem default-y="2">up</stem><notations><tied type="stop" /></notations><lyric name="verse" number="1"><extend type="stop" /></lyric></note><note default-x="87"><rest /><duration>2</duration><voice>1</voice><type>quarter</type></note><note default-x="134"><pitch><step>G</step><octave>4</octave></pitch><duration>2</duration><voice>1</voice><type>quarter</type><stem default-y="2">up</stem><lyric default-y="-91" name="verse" number="1"><syllabic>single</syllabic><text font-size="10.8">Wir</text></lyric></note></measure><!--=======================================================--><measure number="9" width="392"><print new-system="yes"><system-layout><system-distance>180</system-distance></system-layout></print><harmony default-y="36" font-size="10" font-weight="bold"><root><root-step>B</root-step></root><kind halign="center" text="m">minor</kind></harmony><note default-x="84"><pitch><step>F</step><alter>1</alter><octave>4</octave></pitch><duration>2</duration><voice>1</voice><type>quarter</type><stem default-y="-3">up</stem><lyric default-y="-91" name="verse" number="1"><syllabic>begin</syllabic><text font-size="10.8">wol</text></lyric></note><note default-x="154"><pitch><step>G</step><octave>4</octave></pitch><duration>2</duration><voice>1</voice><type>quarter</type><stem default-y="2">up</stem><lyric default-y="-91" name="verse" number="1"><syllabic>end</syllabic><text font-size="10.8">len</text></lyric></note><note default-x="226"><pitch><step>F</step><alter>1</alter><octave>4</octave></pitch><duration>2</duration><voice>1</voice><type>quarter</type><stem default-y="-3">up</stem><lyric default-y="-91" name="verse" number="1"><syllabic>single</syllabic><text font-size="10.8">dich</text></lyric></note><note default-x="296"><pitch><step>G</step><octave>4</octave></pitch><duration>1</duration><voice>1</voice><type>eighth</type><stem default-y="1.5">up</stem><beam number="1">begin</beam><lyric default-y="-91" name="verse" number="1"><syllabic>begin</syllabic><text font-size="10.8">er</text></lyric></note><note default-x="344"><pitch><step>F</step><alter>1</alter><octave>4</octave></pitch><duration>1</duration><tie type="start" /><voice>1</voice><type>eighth</type><stem default-y="-3">up</stem><beam number="1">end</beam><notations><tied type="start" /></notations><lyric default-y="-91" name="verse" number="1"><syllabic>middle</syllabic><text font-size="10.8">ken</text></lyric></note></measure><!--=======================================================--><measure number="10" width="231"><note default-x="10"><pitch><step>F</step><alter>1</alter><octave>4</octave></pitch><duration>1</duration><tie type="stop" /><voice>1</voice><type>eighth</type><stem default-y="-3">up</stem><beam number="1">begin</beam><notations><tied type="stop" /></notations></note><note default-x="48"><pitch><step>D</step><octave>4</octave></pitch><duration>1</duration><tie type="start" /><voice>1</voice><type>eighth</type><stem default-y="-9">up</stem><beam number="1">end</beam><notations><tied type="start" /></notations><lyric default-y="-91" name="verse" number="1"><syllabic>end</syllabic><text font-size="10.8">nen,</text><extend type="start" /></lyric></note><note default-x="83"><pitch><step>D</step><octave>4</octave></pitch><duration>4</duration><tie type="stop" /><voice>1</voice><type>half</type><stem default-y="-13">up</stem><notations><tied type="stop" /></notations><lyric name="verse" number="1"><extend type="stop" /></lyric></note><note default-x="173"><rest /><duration>2</duration><voice>1</voice><type>quarter</type></note></measure><!--=======================================================--><measure number="11" width="346"><harmony default-y="36" font-size="10" font-weight="bold"><root><root-step>E</root-step></root><kind halign="center" text="m">minor</kind></harmony><note default-x="20"><pitch><step>G</step><octave>4</octave></pitch><duration>2</duration><voice>1</voice><type>quarter</type><stem default-y="2">up</stem><lyric default-y="-91" name="verse" number="1"><syllabic>single</syllabic><text font-size="10.8">wie</text></lyric></note><note default-x="91"><pitch><step>A</step><octave>4</octave></pitch><duration>2</duration><voice>1</voice><type>quarter</type><stem default-y="7">up</stem><lyric default-y="-91" name="verse" number="1"><syllabic>single</syllabic><text font-size="10.8">du</text></lyric></note><note default-x="164"><pitch><step>G</step><octave>4</octave></pitch><duration>2</duration><voice>1</voice><type>quarter</type><stem default-y="2">up</stem><lyric default-y="-91" name="verse" number="1"><syllabic>begin</syllabic><text font-size="10.8">wirk</text></lyric></note><note default-x="238"><pitch><step>A</step><octave>4</octave></pitch><duration>1</duration><voice>1</voice><type>eighth</type><stem default-y="6.5">up</stem><beam number="1">begin</beam><lyric default-y="-91" name="verse" number="1"><syllabic>end</syllabic><text font-size="10.8">lich</text></lyric></note><note default-x="294"><pitch><step>G</step><octave>4</octave></pitch><duration>1</duration><tie type="start" /><voice>1</voice><type>eighth</type><stem default-y="1.5">up</stem><beam number="1">end</beam><notations><tied type="start" /></notations><lyric default-y="-91" name="verse" number="1"><syllabic>single</syllabic><text font-size="10.8">bist,</text><extend type="start" /></lyric></note></measure><!--=======================================================--><measure number="12" width="201"><note default-x="10"><pitch><step>G</step><octave>4</octave></pitch><duration>4</duration><tie type="stop" /><voice>1</voice><type>half</type><stem default-y="2">up</stem><notations><tied type="stop" /></notations><lyric name="verse" number="1"><extend type="stop" /></lyric></note><note default-x="95"><rest /><duration>2</duration><voice>1</voice><type>quarter</type></note><note default-x="147"><pitch><step>G</step><octave>4</octave></pitch><duration>2</duration><voice>1</voice><type>quarter</type><stem default-y="2">up</stem><lyric default-y="-91" name="verse" number="1"><syllabic>single</syllabic><text font-size="10.8">die</text></lyric></note></measure><!--=======================================================--><measure number="13" width="368"><print new-system="yes"><system-layout><system-distance>180</system-distance></system-layout></print><harmony default-y="36" font-size="10" font-weight="bold"><root><root-step>B</root-step></root><kind halign="center" text="m">minor</kind></harmony><note default-x="84"><pitch><step>F</step><alter>1</alter><octave>4</octave></pitch><duration>2</duration><voice>1</voice><type>quarter</type><stem default-y="-3">up</stem><lyric default-y="-91" name="verse" number="1"><syllabic>begin</syllabic><text font-size="10.8">Brei</text></lyric></note><note default-x="150"><pitch><step>G</step><octave>4</octave></pitch><duration>2</duration><voice>1</voice><type>quarter</type><stem default-y="2">up</stem><lyric default-y="-91" name="verse" number="1"><syllabic>end</syllabic><text font-size="10.8">te,</text></lyric></note><note default-x="215"><pitch><step>F</step><alter>1</alter><octave>4</octave></pitch><duration>2</duration><voice>1</voice><type>quarter</type><stem default-y="-3">up</stem><lyric default-y="-91" name="verse" number="1"><syllabic>begin</syllabic><text font-size="10.8">Tie</text></lyric></note><note default-x="280"><pitch><step>G</step><octave>4</octave></pitch><duration>1</duration><voice>1</voice><type>eighth</type><stem default-y="1.5">up</stem><beam number="1">begin</beam><lyric default-y="-91" name="verse" number="1"><syllabic>end</syllabic><text font-size="10.8">fe,</text></lyric></note><note default-x="324"><pitch><step>F</step><alter>1</alter><octave>4</octave></pitch><duration>1</duration><tie type="start" /><voice>1</voice><type>eighth</type><stem default-y="-3.5">up</stem><beam number="1">end</beam><notations><tied type="start" /></notations><lyric default-y="-91" name="verse" number="1"><syllabic>begin</syllabic><text font-size="10.8">Hö</text></lyric></note></measure><!--=======================================================--><measure number="14" width="214"><note default-x="10"><pitch><step>F</step><alter>1</alter><octave>4</octave></pitch><duration>1</duration><tie type="stop" /><voice>1</voice><type>eighth</type><stem default-y="-3.5">up</stem><beam number="1">begin</beam><notations><tied type="stop" /></notations></note><note default-x="43"><pitch><step>D</step><octave>4</octave></pitch><duration>1</duration><tie type="start" /><voice>1</voice><type>eighth</type><stem default-y="-9">up</stem><beam number="1">end</beam><notations><tied type="start" /></notations><lyric default-y="-91" name="verse" number="1"><syllabic>end</syllabic><text font-size="10.8">he</text><extend type="start" /></lyric></note><note default-x="76"><pitch><step>D</step><octave>4</octave></pitch><duration>4</duration><tie type="stop" /><voice>1</voice><type>half</type><stem default-y="-12.5">up</stem><notations><tied type="stop" /></notations><lyric name="verse" number="1"><extend type="stop" /></lyric></note><note default-x="161"><rest /><duration>2</duration><voice>1</voice><type>quarter</type></note></measure><!--=======================================================--><measure number="15" width="384"><harmony default-y="36" font-size="10" font-weight="bold"><root><root-step>C</root-step></root><kind halign="center" text="maj7">major-seventh</kind></harmony><note default-x="36"><pitch><step>G</step><octave>4</octave></pitch><duration>2</duration><voice>1</voice><type>quarter</type><stem default-y="2">up</stem><lyric default-y="-91" name="verse" number="1"><syllabic>begin</syllabic><text font-size="10.8">dei</text></lyric></note><note default-x="117"><pitch><step>A</step><octave>4</octave></pitch><duration>2</duration><voice>1</voice><type>quarter</type><stem default-y="7">up</stem><lyric default-y="-91" name="verse" number="1"><syllabic>end</syllabic><text font-size="10.8">ner</text></lyric></note><note default-x="198"><pitch><step>G</step><octave>4</octave></pitch><duration>2</duration><voice>1</voice><type>quarter</type><stem default-y="2">up</stem><lyric default-y="-91" name="verse" number="1"><syllabic>single</syllabic><text font-size="10.8">selbst,</text></lyric></note><note default-x="280"><pitch><step>A</step><octave>4</octave></pitch><duration>1</duration><voice>1</voice><type>eighth</type><stem default-y="6">up</stem><beam number="1">begin</beam><lyric default-y="-91" name="verse" number="1"><syllabic>single</syllabic><text font-size="10.8">o</text></lyric></note><note default-x="331"><pitch><step>G</step><octave>4</octave></pitch><duration>1</duration><tie type="start" /><voice>1</voice><type>eighth</type><stem default-y="1.5">up</stem><beam number="1">end</beam><notations><tied type="start" /></notations><lyric default-y="-91" name="verse" number="1"><syllabic>single</syllabic><text font-size="10.8">Herr,</text><extend type="start" /></lyric></note></measure><!--=======================================================--><measure number="16" width="205"><note default-x="10"><pitch><step>G</step><octave>4</octave></pitch><duration>4</duration><tie type="stop" /><voice>1</voice><type>half</type><stem default-y="2">up</stem><notations><tied type="stop" /></notations><lyric name="verse" number="1"><extend type="stop" /></lyric></note><note default-x="96"><pitch><step>G</step><octave>4</octave></pitch><duration>2</duration><voice>1</voice><type>quarter</type><stem default-y="2">up</stem><lyric default-y="-91" name="verse" number="1"><syllabic>begin</syllabic><text font-size="10.8">un</text></lyric></note><note default-x="149"><pitch><step>A</step><octave>4</octave></pitch><duration>2</duration><voice>1</voice><type>quarter</type><stem default-y="7">up</stem><lyric default-y="-91" name="verse" number="1"><syllabic>end</syllabic><text font-size="10.8">ser</text></lyric></note></measure><!--=======================================================--><measure number="17" width="204"><print new-system="yes"><system-layout><system-distance>180</system-distance></system-layout></print><barline location="left"><ending default-y="71" end-length="71" font-size="6.2" number="1" type="start" /></barline><harmony default-y="36" font-size="10" font-weight="bold"><root><root-step>D</root-step></root><kind halign="center" text="sus">suspended-fourth</kind></harmony><note default-x="92"><pitch><step>A</step><octave>4</octave></pitch><duration>8</duration><tie type="start" /><voice>1</voice><type>whole</type><notations><tied type="start" /></notations><lyric default-y="-91" name="verse" number="1"><syllabic>single</syllabic><text font-size="10.8">Gott.</text><extend type="start" /></lyric></note></measure><!--=======================================================--><measure number="18" width="167"><harmony default-y="36" font-size="10" font-weight="bold"><root><root-step>D</root-step></root><kind halign="center" text="">major</kind></harmony><note default-x="12"><pitch><step>A</step><octave>4</octave></pitch><duration>6</duration><tie type="stop" /><voice>1</voice><type>half</type><dot /><stem default-y="7">up</stem><notations><tied type="stop" /></notations><lyric name="verse" number="1"><extend type="stop" /></lyric></note><note default-x="103"><rest /><duration>2</duration><voice>1</voice><type>quarter</type></note><barline location="right"><bar-style>light-heavy</bar-style><ending number="1" type="stop" /><repeat direction="backward" winged="none" /></barline></measure><!--=======================================================--><measure number="19" width="139"><barline location="left"><ending default-y="71" end-length="71" font-size="6.2" number="2" type="start" /></barline><harmony default-y="36" font-size="10" font-weight="bold"><root><root-step>D</root-step></root><kind halign="center" text="sus">suspended-fourth</kind></harmony><note default-x="28"><pitch><step>A</step><octave>4</octave></pitch><duration>8</duration><tie type="start" /><voice>1</voice><type>whole</type><notations><tied type="start" /></notations><lyric default-y="-91" name="verse" number="1"><syllabic>single</syllabic><text font-size="10.8">Gott.</text><extend type="start" /></lyric></note><barline location="right"><ending number="2" type="discontinue" /></barline></measure><!--=======================================================--><measure number="20" width="180"><harmony default-y="36" font-size="10" font-weight="bold"><root><root-step>D</root-step></root><kind halign="center" text="">major</kind></harmony><note default-x="13"><pitch><step>A</step><octave>4</octave></pitch><duration>4</duration><tie type="stop" /><voice>1</voice><type>half</type><stem default-y="7">up</stem><notations><tied type="stop" /></notations><lyric name="verse" number="1"><extend type="stop" /></lyric></note><note default-x="81"><pitch><step>G</step><octave>4</octave></pitch><duration>2</duration><voice>1</voice><type>quarter</type><stem default-y="2">up</stem><lyric default-y="-91" name="verse" number="1"><syllabic>begin</syllabic><text font-size="10.8">Dei</text></lyric></note><note default-x="129"><pitch><step>A</step><octave>4</octave></pitch><duration>2</duration><voice>1</voice><type>quarter</type><stem default-y="7">up</stem><lyric default-y="-91" name="verse" number="1"><syllabic>end</syllabic><text font-size="10.8">ne</text></lyric></note><barline location="right"><bar-style>light-light</bar-style></barline></measure><!--=======================================================--><measure number="21" width="250"><harmony default-y="36" font-size="10" font-weight="bold"><root><root-step>G</root-step></root><kind halign="center" text="">major</kind></harmony><direction placement="above"><direction-type><rehearsal default-y="69" font-weight="bold" relative-x="-5">VERS</rehearsal></direction-type></direction><note default-x="11"><pitch><step>A</step><octave>4</octave></pitch><duration>2</duration><voice>1</voice><type>quarter</type><stem default-y="7">up</stem><lyric default-y="-91" name="verse" number="1"><syllabic>begin</syllabic><text font-size="10.8">un</text></lyric></note><note default-x="66"><pitch><step>B</step><octave>4</octave></pitch><duration>2</duration><voice>1</voice><type>quarter</type><stem default-y="-52">down</stem><lyric default-y="-91" name="verse" number="1"><syllabic>middle</syllabic><text font-size="10.8">fass</text></lyric></note><note default-x="120"><pitch><step>B</step><octave>4</octave></pitch><duration>2</duration><voice>1</voice><type>quarter</type><stem default-y="-52">down</stem><lyric default-y="-91" name="verse" number="1"><syllabic>middle</syllabic><text font-size="10.8">ba</text></lyric></note><note default-x="164"><pitch><step>A</step><octave>4</octave></pitch><duration>1</duration><voice>1</voice><type>eighth</type><stem default-y="6">up</stem><beam number="1">begin</beam><lyric default-y="-91" name="verse" number="1"><syllabic>end</syllabic><text font-size="10.8">re</text></lyric></note><note default-x="207"><pitch><step>B</step><octave>4</octave></pitch><duration>1</duration><tie type="start" /><voice>1</voice><type>eighth</type><stem default-y="11">up</stem><beam number="1">end</beam><notations><tied type="start" /></notations><lyric default-y="-91" name="verse" number="1"><syllabic>begin</syllabic><text font-size="10.8">Lie</text></lyric></note></measure><!--=======================================================--><measure number="22" width="230"><note default-x="10"><pitch><step>B</step><octave>4</octave></pitch><duration>1</duration><tie type="stop" /><voice>1</voice><type>eighth</type><stem default-y="11">up</stem><beam number="1">begin</beam><notations><tied type="stop" /></notations></note><note default-x="42"><pitch><step>G</step><octave>4</octave></pitch><duration>1</duration><tie type="start" /><voice>1</voice><type>eighth</type><stem default-y="6">up</stem><beam number="1">end</beam><notations><tied type="start" /></notations><lyric default-y="-91" name="verse" number="1"><syllabic>end</syllabic><text font-size="10.8">be,</text><extend type="start" /></lyric></note><note default-x="73"><pitch><step>G</step><octave>4</octave></pitch><duration>2</duration><tie type="stop" /><voice>1</voice><type>quarter</type><stem default-y="2">up</stem><notations><tied type="stop" /></notations><lyric name="verse" number="1"><extend type="stop" /></lyric></note><note default-x="118"><pitch><step>G</step><octave>4</octave></pitch><duration>2</duration><voice>1</voice><type>quarter</type><stem default-y="2">up</stem><lyric default-y="-91" name="verse" number="1"><syllabic>single</syllabic><text font-size="10.8">die</text></lyric></note><note default-x="177"><pitch><step>A</step><octave>4</octave></pitch><duration>2</duration><voice>1</voice><type>quarter</type><stem default-y="7">up</stem><lyric default-y="-91" name="verse" number="1"><syllabic>single</syllabic><text font-size="10.8">mein</text></lyric></note></measure><!--=======================================================--><measure number="23" width="386"><print new-system="yes"><system-layout><system-distance>180</system-distance></system-layout></print><harmony default-y="36" font-size="10" font-weight="bold"><root><root-step>E</root-step></root><kind halign="center" text="m">minor</kind></harmony><note default-x="83"><pitch><step>A</step><octave>4</octave></pitch><duration>2</duration><voice>1</voice><type>quarter</type><stem default-y="7">up</stem><lyric default-y="-91" name="verse" number="1"><syllabic>begin</syllabic><text font-size="10.8">Den</text></lyric></note><note default-x="150"><pitch><step>B</step><octave>4</octave></pitch><duration>2</duration><voice>1</voice><type>quarter</type><stem default-y="-52">down</stem><lyric default-y="-91" name="verse" number="1"><syllabic>end</syllabic><text font-size="10.8">ken</text></lyric></note><note default-x="205"><pitch><step>B</step><octave>4</octave></pitch><duration>2</duration><voice>1</voice><type>quarter</type><stem default-y="-52">down</stem><lyric default-y="-91" name="verse" number="1"><syllabic>begin</syllabic><text font-size="10.8">ü</text></lyric></note><note default-x="259"><pitch><step>A</step><octave>4</octave></pitch><duration>1</duration><voice>1</voice><type>eighth</type><stem default-y="6">up</stem><beam number="1">begin</beam><lyric default-y="-91" name="verse" number="1"><syllabic>middle</syllabic><text font-size="10.8">ber</text></lyric></note><note default-x="326"><pitch><step>B</step><octave>4</octave></pitch><duration>1</duration><tie type="start" /><voice>1</voice><type>eighth</type><stem default-y="11">up</stem><beam number="1">end</beam><notations><tied type="start" /></notations><lyric default-y="-91" name="verse" number="1"><syllabic>end</syllabic><text font-size="10.8">steigt,</text><extend type="start" /></lyric></note></measure><!--=======================================================--><measure number="24" width="209"><note default-x="11"><pitch><step>B</step><octave>4</octave></pitch><duration>2</duration><tie type="stop" /><voice>1</voice><type>quarter</type><stem default-y="-52">down</stem><notations><tied type="stop" /></notations><lyric name="verse" number="1"><extend type="stop" /></lyric></note><note default-x="61"><rest /><duration>2</duration><voice>1</voice><type>quarter</type></note><note default-x="110"><pitch><step>B</step><octave>4</octave></pitch><duration>2</duration><voice>1</voice><type>quarter</type><stem default-y="-52">down</stem><lyric default-y="-91" name="verse" number="1"><syllabic>single</syllabic><text font-size="10.8">will</text></lyric></note><note default-x="159"><pitch><step>B</step><octave>4</octave></pitch><duration>2</duration><voice>1</voice><type>quarter</type><stem default-y="-52">down</stem><lyric default-y="-91" name="verse" number="1"><syllabic>single</syllabic><text font-size="10.8">ich</text></lyric></note></measure><!--=======================================================--><measure number="25" width="344"><harmony default-y="36" font-size="10" font-weight="bold"><root><root-step>C</root-step></root><kind halign="center" text="maj7">major-seventh</kind></harmony><note default-x="35"><pitch><step>B</step><octave>4</octave></pitch><duration>2</duration><voice>1</voice><type>quarter</type><stem default-y="-52">down</stem><lyric default-y="-91" name="verse" number="1"><syllabic>begin</syllabic><text font-size="10.8">im</text></lyric></note><note default-x="107"><pitch><step>G</step><octave>4</octave></pitch><duration>2</duration><voice>1</voice><type>quarter</type><stem default-y="2">up</stem><lyric default-y="-91" name="verse" number="1"><syllabic>end</syllabic><text font-size="10.8">mer</text></lyric></note><note default-x="179"><pitch><step>G</step><octave>4</octave></pitch><duration>2</duration><voice>1</voice><type>quarter</type><stem default-y="2">up</stem><lyric default-y="-91" name="verse" number="1"><syllabic>single</syllabic><text font-size="10.8">mehr</text></lyric></note><note default-x="252"><pitch><step>E</step><octave>4</octave></pitch><duration>1</duration><voice>1</voice><type>eighth</type><stem default-y="-3.5">up</stem><beam number="1">begin</beam><lyric default-y="-91" name="verse" number="1"><syllabic>begin</syllabic><text font-size="10.8">er</text></lyric></note><note default-x="297"><pitch><step>G</step><octave>4</octave></pitch><duration>1</duration><tie type="start" /><voice>1</voice><type>eighth</type><stem default-y="1">up</stem><beam number="1">end</beam><notations><tied type="start" /></notations><lyric default-y="-91" name="verse" number="1"><syllabic>middle</syllabic><text font-size="10.8">fas</text></lyric></note></measure><!--=======================================================--><measure number="26" width="232"><note default-x="10"><pitch><step>G</step><octave>4</octave></pitch><duration>1</duration><tie type="stop" /><voice>1</voice><type>eighth</type><stem default-y="1">up</stem><beam number="1">begin</beam><notations><tied type="stop" /></notations></note><note default-x="45"><pitch><step>G</step><octave>4</octave></pitch><duration>1</duration><tie type="start" /><voice>1</voice><type>eighth</type><stem default-y="1">up</stem><beam number="1">end</beam><notations><tied type="start" /></notations><lyric default-y="-91" name="verse" number="1"><syllabic>end</syllabic><text font-size="10.8">sen</text><extend type="start" /></lyric></note><note default-x="78"><pitch><step>G</step><octave>4</octave></pitch><duration>2</duration><tie type="stop" /><voice>1</voice><type>quarter</type><stem default-y="2">up</stem><notations><tied type="stop" /></notations><lyric name="verse" number="1"><extend type="stop" /></lyric></note><note default-x="128"><pitch><step>G</step><octave>4</octave></pitch><duration>2</duration><voice>1</voice><type>quarter</type><stem default-y="2">up</stem><lyric default-y="-91" name="verse" number="1"><syllabic>single</syllabic><text font-size="10.8">und</text></lyric></note><note default-x="180"><pitch><step>G</step><octave>4</octave></pitch><duration>2</duration><voice>1</voice><type>quarter</type><stem default-y="2">up</stem><lyric default-y="-91" name="verse" number="1"><syllabic>single</syllabic><text font-size="10.8">in</text></lyric></note></measure><!--=======================================================--><measure number="27" width="398"><print new-page="yes" page-number="2" /><harmony default-y="36" font-size="10" font-weight="bold"><root><root-step>D</root-step></root><kind halign="center" text="sus">suspended-fourth</kind></harmony><note default-x="92"><pitch><step>G</step><octave>4</octave></pitch><duration>2</duration><voice>1</voice><type>quarter</type><stem default-y="2">up</stem><lyric default-y="-91" name="verse" number="1"><syllabic>single</syllabic><text font-size="10.8">ihr</text></lyric></note><note default-x="152"><pitch><step>A</step><octave>4</octave></pitch><duration>2</duration><voice>1</voice><type>quarter</type><stem default-y="7">up</stem><lyric default-y="-91" name="verse" number="1"><syllabic>begin</syllabic><text font-size="10.8">ver</text></lyric></note><note default-x="217"><pitch><step>A</step><octave>4</octave></pitch><duration>2</duration><voice>1</voice><type>quarter</type><stem default-y="7">up</stem><lyric default-y="-91" name="verse" number="1"><syllabic>middle</syllabic><text font-size="10.8">wur</text></lyric></note><note default-x="283"><pitch><step>B</step><octave>4</octave></pitch><duration>1</duration><voice>1</voice><type>eighth</type><stem default-y="11.5">up</stem><beam number="1">begin</beam><lyric default-y="-91" name="verse" number="1"><syllabic>end</syllabic><text font-size="10.8">zelt</text></lyric></note><note default-x="344"><pitch><step>A</step><octave>4</octave></pitch><duration>1</duration><tie type="start" /><voice>1</voice><type>eighth</type><stem default-y="6.5">up</stem><beam number="1">end</beam><notations><tied type="start" /></notations><lyric default-y="-91" name="verse" number="1"><syllabic>single</syllabic><text font-size="10.8">sein.</text><extend type="start" /></lyric></note></measure><!--=======================================================--><measure number="28" width="223"><harmony default-y="36" font-size="10" font-weight="bold"><root><root-step>D</root-step></root><kind halign="center" text="">major</kind></harmony><note default-x="13"><pitch><step>A</step><octave>4</octave></pitch><duration>2</duration><tie type="stop" /><voice>1</voice><type>quarter</type><stem default-y="7">up</stem><notations><tied type="stop" /></notations><lyric name="verse" number="1"><extend type="stop" /></lyric></note><note default-x="63"><rest /><duration>2</duration><voice>1</voice><type>quarter</type></note><note default-x="113"><pitch><step>G</step><octave>4</octave></pitch><duration>2</duration><voice>1</voice><type>quarter</type><stem default-y="2">up</stem><lyric default-y="-91" name="verse" number="1"><syllabic>single</syllabic><text font-size="10.8">All</text></lyric></note><note default-x="169"><pitch><step>A</step><octave>4</octave></pitch><duration>2</duration><voice>1</voice><type>quarter</type><stem default-y="7">up</stem><lyric default-y="-91" name="verse" number="1"><syllabic>single</syllabic><text font-size="10.8">mein</text></lyric></note></measure><!--=======================================================--><measure number="29" width="318"><harmony default-y="36" font-size="10" font-weight="bold"><root><root-step>G</root-step></root><kind halign="center" text="">major</kind></harmony><note default-x="13"><pitch><step>A</step><octave>4</octave></pitch><duration>2</duration><voice>1</voice><type>quarter</type><stem default-y="7">up</stem><lyric default-y="-91" name="verse" number="1"><syllabic>begin</syllabic><text font-size="10.8">Den</text></lyric></note><note default-x="82"><pitch><step>B</step><octave>4</octave></pitch><duration>2</duration><voice>1</voice><type>quarter</type><stem default-y="-51.5">down</stem><lyric default-y="-91" name="verse" number="1"><syllabic>end</syllabic><text font-size="10.8">ken,</text></lyric></note><note default-x="142"><pitch><step>B</step><octave>4</octave></pitch><duration>2</duration><voice>1</voice><type>quarter</type><stem default-y="-51.5">down</stem><lyric default-y="-91" name="verse" number="1"><syllabic>single</syllabic><text font-size="10.8">all</text></lyric></note><note default-x="205"><pitch><step>A</step><octave>4</octave></pitch><duration>1</duration><voice>1</voice><type>eighth</type><stem default-y="6.5">up</stem><beam number="1">begin</beam><lyric default-y="-91" name="verse" number="1"><syllabic>single</syllabic><text font-size="10.8">mein</text></lyric></note><note default-x="269"><pitch><step>B</step><octave>4</octave></pitch><duration>1</duration><tie type="start" /><voice>1</voice><type>eighth</type><stem default-y="11.5">up</stem><beam number="1">end</beam><notations><tied type="start" /></notations><lyric default-y="-91" name="verse" number="1"><syllabic>begin</syllabic><text font-size="10.8">Wol</text></lyric></note></measure><!--=======================================================--><measure number="30" width="231"><note default-x="10"><pitch><step>B</step><octave>4</octave></pitch><duration>1</duration><tie type="stop" /><voice>1</voice><type>eighth</type><stem default-y="11.5">up</stem><beam number="1">begin</beam><notations><tied type="stop" /></notations></note><note default-x="43"><pitch><step>G</step><octave>4</octave></pitch><duration>1</duration><tie type="start" /><voice>1</voice><type>eighth</type><stem default-y="6.5">up</stem><beam number="1">end</beam><notations><tied type="start" /></notations><lyric default-y="-91" name="verse" number="1"><syllabic>end</syllabic><text font-size="10.8">len</text><extend type="start" /></lyric></note><note default-x="75"><pitch><step>G</step><octave>4</octave></pitch><duration>2</duration><tie type="stop" /><voice>1</voice><type>quarter</type><stem default-y="2">up</stem><notations><tied type="stop" /></notations><lyric name="verse" number="1"><extend type="stop" /></lyric></note><note default-x="127"><pitch><step>G</step><octave>4</octave></pitch><duration>2</duration><voice>1</voice><type>quarter</type><stem default-y="2">up</stem><lyric default-y="-91" name="verse" number="1"><syllabic>single</syllabic><text font-size="10.8">soll</text></lyric></note><note default-x="178"><pitch><step>A</step><octave>4</octave></pitch><duration>2</duration><voice>1</voice><type>quarter</type><stem default-y="7">up</stem><lyric default-y="-91" name="verse" number="1"><syllabic>single</syllabic><text font-size="10.8">auf</text></lyric></note></measure><!--=======================================================--><measure number="31" width="393"><print new-system="yes"><system-layout><system-distance>180</system-distance></system-layout></print><harmony default-y="36" font-size="10" font-weight="bold"><root><root-step>E</root-step></root><kind halign="center" text="m">minor</kind></harmony><note default-x="83"><pitch><step>A</step><octave>4</octave></pitch><duration>2</duration><voice>1</voice><type>quarter</type><stem default-y="7">up</stem><lyric default-y="-91" name="verse" number="1"><syllabic>single</syllabic><text font-size="10.8">dich</text></lyric></note><note default-x="151"><pitch><step>B</step><octave>4</octave></pitch><duration>2</duration><voice>1</voice><type>quarter</type><stem default-y="-51.5">down</stem><lyric default-y="-91" name="verse" number="1"><syllabic>begin</syllabic><text font-size="10.8">ge</text></lyric></note><note default-x="217"><pitch><step>B</step><octave>4</octave></pitch><duration>2</duration><voice>1</voice><type>quarter</type><stem default-y="-51.5">down</stem><lyric default-y="-91" name="verse" number="1"><syllabic>middle</syllabic><text font-size="10.8">rich</text></lyric></note><note default-x="283"><pitch><step>A</step><octave>4</octave></pitch><duration>1</duration><voice>1</voice><type>eighth</type><stem default-y="6.5">up</stem><beam number="1">begin</beam><lyric default-y="-91" name="verse" number="1"><syllabic>end</syllabic><text font-size="10.8">tet</text></lyric></note><note default-x="339"><pitch><step>B</step><octave>4</octave></pitch><duration>1</duration><tie type="start" /><voice>1</voice><type>eighth</type><stem default-y="11.5">up</stem><beam number="1">end</beam><notations><tied type="start" /></notations><lyric default-y="-91" name="verse" number="1"><syllabic>single</syllabic><text font-size="10.8">sein.</text><extend type="start" /></lyric></note></measure><!--=======================================================--><measure number="32" width="219"><note default-x="11"><pitch><step>B</step><octave>4</octave></pitch><duration>2</duration><tie type="stop" /><voice>1</voice><type>quarter</type><stem default-y="-51.5">down</stem><notations><tied type="stop" /></notations><lyric name="verse" number="1"><extend type="stop" /></lyric></note><note default-x="63"><rest /><duration>2</duration><voice>1</voice><type>quarter</type></note><note default-x="115"><pitch><step>B</step><octave>4</octave></pitch><duration>2</duration><voice>1</voice><type>quarter</type><stem default-y="-51.5">down</stem><lyric default-y="-91" name="verse" number="1"><syllabic>begin</syllabic><text font-size="10.8">Dei</text></lyric></note><note default-x="166"><pitch><step>B</step><octave>4</octave></pitch><duration>2</duration><voice>1</voice><type>quarter</type><stem default-y="-51.5">down</stem><lyric default-y="-91" name="verse" number="1"><syllabic>end</syllabic><text font-size="10.8">ne</text></lyric></note></measure><!--=======================================================--><measure number="33" width="308"><harmony default-y="36" font-size="10" font-weight="bold"><root><root-step>C</root-step></root><kind halign="center" text="maj7">major-seventh</kind></harmony><note default-x="35"><pitch><step>B</step><octave>4</octave></pitch><duration>2</duration><voice>1</voice><type>quarter</type><stem default-y="-51.5">down</stem><lyric default-y="-91" name="verse" number="1"><syllabic>begin</syllabic><text font-size="10.8">Fül</text></lyric></note><note default-x="97"><pitch><step>G</step><octave>4</octave></pitch><duration>2</duration><voice>1</voice><type>quarter</type><stem default-y="2">up</stem><lyric default-y="-91" name="verse" number="1"><syllabic>end</syllabic><text font-size="10.8">le</text></lyric></note><note default-x="157"><pitch><step>G</step><octave>4</octave></pitch><duration>2</duration><voice>1</voice><type>quarter</type><stem default-y="2">up</stem><lyric default-y="-91" name="verse" number="1"><syllabic>single</syllabic><text font-size="10.8">will</text></lyric></note><note default-x="220"><pitch><step>E</step><octave>4</octave></pitch><duration>1</duration><voice>1</voice><type>eighth</type><stem default-y="-4">up</stem><beam number="1">begin</beam><lyric default-y="-91" name="verse" number="1"><syllabic>single</syllabic><text font-size="10.8">ich</text></lyric></note><note default-x="264"><pitch><step>G</step><octave>4</octave></pitch><duration>1</duration><tie type="start" /><voice>1</voice><type>eighth</type><stem default-y="2">up</stem><beam number="1">end</beam><notations><tied type="start" /></notations><lyric default-y="-91" name="verse" number="1"><syllabic>begin</syllabic><text font-size="10.8">ha</text></lyric></note></measure><!--=======================================================--><measure number="34" width="251"><note default-x="10"><pitch><step>G</step><octave>4</octave></pitch><duration>1</duration><tie type="stop" /><voice>1</voice><type>eighth</type><stem default-y="2">up</stem><beam number="1">begin</beam><notations><tied type="stop" /></notations></note><note default-x="47"><pitch><step>G</step><octave>4</octave></pitch><duration>1</duration><tie type="start" /><voice>1</voice><type>eighth</type><stem default-y="2">up</stem><beam number="1">end</beam><notations><tied type="start" /></notations><lyric default-y="-91" name="verse" number="1"><syllabic>end</syllabic><text font-size="10.8">ben,</text><extend type="start" /></lyric></note><note default-x="83"><pitch><step>G</step><octave>4</octave></pitch><duration>2</duration><tie type="stop" /><voice>1</voice><type>quarter</type><stem default-y="2">up</stem><notations><tied type="stop" /></notations><lyric name="verse" number="1"><extend type="stop" /></lyric></note><note default-x="138"><pitch><step>G</step><octave>4</octave></pitch><duration>2</duration><voice>1</voice><type>quarter</type><stem default-y="2">up</stem><lyric default-y="-91" name="verse" number="1"><syllabic>single</syllabic><text font-size="10.8">dich</text></lyric></note><note default-x="195"><pitch><step>G</step><octave>4</octave></pitch><duration>2</duration><voice>1</voice><type>quarter</type><stem default-y="2">up</stem><lyric default-y="-91" name="verse" number="1"><syllabic>begin</syllabic><text font-size="10.8">er</text></lyric></note></measure><!--=======================================================--><measure number="35" width="392"><print new-system="yes"><system-layout><system-distance>180</system-distance></system-layout></print><harmony default-y="36" font-size="10" font-weight="bold"><root><root-step>D</root-step></root><kind halign="center" text="sus">suspended-fourth</kind></harmony><note default-x="92"><pitch><step>G</step><octave>4</octave></pitch><duration>2</duration><voice>1</voice><type>quarter</type><stem default-y="2">up</stem><lyric default-y="-91" name="verse" number="1"><syllabic>middle</syllabic><text font-size="10.8">ken</text></lyric></note><note default-x="161"><pitch><step>A</step><octave>4</octave></pitch><duration>2</duration><voice>1</voice><type>quarter</type><stem default-y="7">up</stem><lyric default-y="-91" name="verse" number="1"><syllabic>end</syllabic><text font-size="10.8">nen,</text></lyric></note><note default-x="229"><pitch><step>A</step><octave>4</octave></pitch><duration>2</duration><voice>1</voice><type>quarter</type><stem default-y="7">up</stem><lyric default-y="-91" name="verse" number="1"><syllabic>single</syllabic><text font-size="10.8">wie</text></lyric></note><note default-x="292"><pitch><step>B</step><octave>4</octave></pitch><duration>1</duration><voice>1</voice><type>eighth</type><stem default-y="11">up</stem><beam number="1">begin</beam><lyric default-y="-91" name="verse" number="1"><syllabic>single</syllabic><text font-size="10.8">du</text></lyric></note><note default-x="343"><pitch><step>A</step><octave>4</octave></pitch><duration>1</duration><tie type="start" /><voice>1</voice><type>eighth</type><stem default-y="6">up</stem><beam number="1">end</beam><notations><tied type="start" /></notations><lyric default-y="-91" name="verse" number="1"><syllabic>single</syllabic><text font-size="10.8">bist,</text><extend type="start" /></lyric></note></measure><!--=======================================================--><measure number="36" width="136"><harmony default-y="36" font-size="10" font-weight="bold"><root><root-step>D</root-step></root><kind halign="center" text="">major</kind></harmony><note default-x="12"><pitch><step>A</step><octave>4</octave></pitch><duration>8</duration><tie type="stop" /><tie type="start" /><voice>1</voice><type>whole</type><notations><tied type="stop" /><tied type="start" /></notations></note></measure><!--=======================================================--><measure number="37" width="155"><harmony default-y="36" font-size="10" font-weight="bold"><root><root-step>D</root-step></root><kind halign="center" text="sus">suspended-fourth</kind></harmony><note default-x="30"><pitch><step>A</step><octave>4</octave></pitch><duration>8</duration><tie type="stop" /><tie type="start" /><voice>1</voice><type>whole</type><notations><tied type="stop" /><tied type="start" /></notations></note></measure><!--=======================================================--><measure number="38" width="199"><harmony default-y="36" font-size="10" font-weight="bold"><root><root-step>D</root-step></root><kind halign="center" text="">major</kind></harmony><note default-x="12"><pitch><step>A</step><octave>4</octave></pitch><duration>4</duration><tie type="stop" /><voice>1</voice><type>half</type><stem default-y="7">up</stem><notations><tied type="stop" /></notations><lyric name="verse" number="1"><extend type="stop" /></lyric></note><note default-x="89"><pitch><step>B</step><octave>4</octave></pitch><duration>1</duration><voice>1</voice><type>eighth</type><stem default-y="11">up</stem><beam number="1">begin</beam><notations><slur number="1" placement="below" type="start" /></notations><lyric default-y="-91" name="verse" number="1"><syllabic>single</syllabic><text font-size="10.8">wie</text><extend type="start" /></lyric></note><note default-x="120"><pitch><step>A</step><octave>4</octave></pitch><duration>1</duration><voice>1</voice><type>eighth</type><stem default-y="6">up</stem><beam number="1">end</beam><notations><slur number="1" type="stop" /></notations><lyric name="verse" number="1"><extend type="stop" /></lyric></note><note default-x="150"><pitch><step>G</step><octave>4</octave></pitch><duration>2</duration><voice>1</voice><type>quarter</type><stem default-y="2">up</stem><lyric default-y="-91" name="verse" number="1"><syllabic>single</syllabic><text font-size="10.8">du</text></lyric></note></measure><!--=======================================================--><measure number="39" width="145"><harmony default-y="36" font-size="10" font-weight="bold"><root><root-step>E</root-step></root><kind halign="center" text="m">minor</kind></harmony><note default-x="20"><pitch><step>G</step><octave>4</octave></pitch><duration>8</duration><tie type="start" /><voice>1</voice><type>whole</type><notations><tied type="start" /></notations><lyric default-y="-91" name="verse" number="1"><syllabic>single</syllabic><text font-size="10.8">bist.</text><extend type="start" /></lyric></note></measure><!--=======================================================--><measure number="40" width="143"><note default-x="10"><pitch><step>G</step><octave>4</octave></pitch><duration>8</duration><tie type="stop" /><voice>1</voice><type>whole</type><notations><tied type="stop" /></notations><lyric name="verse" number="1"><extend type="stop" /></lyric></note><barline location="right"><bar-style>light-heavy</bar-style></barline></measure></part><!--=========================================================--></score-partwise>