<?xml version="1.0" encoding="UTF-8" standalone="no"?><!DOCTYPE score-partwise PUBLIC "-//Recordare//DTD MusicXML 3.0 Partwise//EN" "http://www.musicxml.org/dtds/partwise.dtd"[]><score-partwise version="3.0"><movement-title>Groß ist unser Gott</movement-title><identification><creator type="composer">Lothar Kosse</creator><creator type="arranger">Unbekannt</creator><encoding><software>Finale 2014 for Windows</software><software>Dolet Light for Finale 2014</software><encoding-date>2016-12-22</encoding-date><supports attribute="new-system" element="print" type="yes" value="yes" /><supports attribute="new-page" element="print" type="yes" value="yes" /><supports element="accidental" type="yes" /><supports element="beam" type="yes" /><supports element="stem" type="yes" /></encoding><rights>CCLI-Liednummer 4325006
© 1995 Praize Republic
Nutzung ausschließlich im Rahmen der SongSelect®-Nutzungsbedingungen. Alle Rechte vorbehalten. www.ccli.com
CCLI-Lizenznummer 2182334
</rights></identification><defaults><scaling><millimeters>6.5088</millimeters><tenths>40</tenths></scaling><page-layout><page-height>1717</page-height><page-width>1327</page-width><page-margins type="both"><left-margin>78</left-margin><right-margin>78</right-margin><top-margin>78</top-margin><bottom-margin>78</bottom-margin></page-margins></page-layout><system-layout><system-margins><left-margin>0</left-margin><right-margin>0</right-margin></system-margins><system-distance>190</system-distance><top-system-distance>117</top-system-distance></system-layout><appearance><line-width type="stem">1.4583</line-width><line-width type="beam">5</line-width><line-width type="staff">1.25</line-width><line-width type="light barline">1.4583</line-width><line-width type="heavy barline">5</line-width><line-width type="leger">1.875</line-width><line-width type="ending">1.4583</line-width><line-width type="wedge">1.4583</line-width><line-width type="enclosure">1.4583</line-width><line-width type="tuplet bracket">1.4583</line-width><note-size type="grace">50</note-size><note-size type="cue">50</note-size><distance type="hyphen">240</distance><distance type="beam">8</distance></appearance><music-font font-family="Maestro,engraved" font-size="18.5" /><word-font font-family="Arial" font-size="9.2" /><lyric-font font-family="Arial" font-size="10.8" name="verse" /><lyric-font font-family="Arial" font-size="10.8" name="section" /></defaults><credit page="1"><credit-type>title</credit-type><credit-words default-x="663" default-y="1649" font-size="21.6" font-weight="bold" justify="center" valign="top" xml:lang="de">Groß ist unser Gott</credit-words></credit><credit page="1"><credit-words default-x="1249" default-y="1576" font-size="10.8" font-style="italic" justify="right" valign="top">Text und Musik:</credit-words></credit><credit page="1"><credit-type>composer</credit-type><credit-words default-x="1249" default-y="1552" font-size="10.8" font-weight="bold" justify="right" valign="top">Lothar Kosse</credit-words></credit><part-list><score-part id="P1"><part-name print-object="no">Vocals</part-name><score-instrument id="P1-I2"><instrument-name>Melody</instrument-name></score-instrument><midi-instrument id="P1-I2"><midi-channel>1</midi-channel><midi-program>1</midi-program><volume>80</volume><pan>0</pan></midi-instrument></score-part></part-list><!--=========================================================--><part id="P1"><measure number="1" width="598"><print><page-layout><page-height>1717</page-height><page-width>1327</page-width><page-margins><left-margin>78</left-margin><right-margin>78</right-margin><top-margin>190</top-margin><bottom-margin>163</bottom-margin></page-margins></page-layout><system-layout><system-margins><left-margin>68</left-margin><right-margin>0</right-margin></system-margins></system-layout><measure-numbering>system</measure-numbering></print><attributes><divisions>4</divisions><key><fifths>2</fifths><mode>major</mode></key><time><beats>4</beats><beat-type>4</beat-type></time><clef><sign>G</sign><line>2</line></clef></attributes><sound tempo="96" /><harmony default-y="36" font-size="10" font-weight="bold"><root><root-step>D</root-step></root><kind halign="center" text="">major</kind></harmony><direction placement="above"><direction-type><rehearsal default-y="69" font-weight="bold" relative-x="-5">CHORUS</rehearsal></direction-type></direction><note default-x="120"><rest /><duration>4</duration><voice>1</voice><type>quarter</type></note><note default-x="188"><pitch><step>A</step><octave>4</octave></pitch><duration>2</duration><voice>1</voice><type>eighth</type><stem default-y="6">up</stem><beam number="1">begin</beam><lyric default-y="-91" name="verse" number="1"><syllabic>single</syllabic><text font-size="10.8">Groß</text></lyric></note><note default-x="256"><pitch><step>A</step><octave>4</octave></pitch><duration>2</duration><voice>1</voice><type>eighth</type><stem default-y="6">up</stem><beam number="1">end</beam><lyric default-y="-91" name="verse" number="1"><syllabic>single</syllabic><text font-size="10.8">ist</text></lyric></note><harmony default-y="36" font-size="10" font-weight="bold"><root><root-step>G</root-step></root><kind halign="center" text="">major</kind><bass><bass-step>D</bass-step></bass></harmony><note default-x="324"><pitch><step>G</step><octave>4</octave></pitch><duration>3</duration><voice>1</voice><type>eighth</type><dot /><stem default-y="1">up</stem><beam number="1">begin</beam><lyric default-y="-91" name="verse" number="1"><syllabic>begin</syllabic><text font-size="10.8">un</text></lyric></note><note default-x="392"><pitch><step>G</step><octave>4</octave></pitch><duration>1</duration><tie type="start" /><voice>1</voice><type>16th</type><stem default-y="1">up</stem><beam number="1">end</beam><beam number="2">backward hook</beam><notations><tied type="start" /></notations><lyric default-y="-91" name="verse" number="1"><syllabic>end</syllabic><text font-size="10.8">ser</text><extend type="start" /></lyric></note><note default-x="461"><pitch><step>G</step><octave>4</octave></pitch><duration>2</duration><tie type="stop" /><voice>1</voice><type>eighth</type><stem default-y="1">up</stem><beam number="1">begin</beam><notations><tied type="stop" /></notations><lyric name="verse" number="1"><extend type="stop" /></lyric></note><note default-x="528"><pitch><step>F</step><alter>1</alter><octave>4</octave></pitch><duration>2</duration><tie type="start" /><voice>1</voice><type>eighth</type><stem default-y="-4">up</stem><beam number="1">end</beam><notations><tied type="start" /></notations><lyric default-y="-91" name="verse" number="1"><syllabic>single</syllabic><text font-size="10.8">Gott,</text><extend type="start" /></lyric></note></measure><!--=======================================================--><measure number="2" width="504"><harmony default-y="36" font-size="10" font-weight="bold"><root><root-step>D</root-step></root><kind halign="center" text="">major</kind></harmony><note default-x="12"><pitch><step>F</step><alter>1</alter><octave>4</octave></pitch><duration>4</duration><tie type="stop" /><voice>1</voice><type>quarter</type><stem default-y="-3">up</stem><notations><tied type="stop" /></notations><lyric name="verse" number="1"><extend type="stop" /></lyric></note><note default-x="83"><pitch><step>A</step><octave>4</octave></pitch><duration>2</duration><voice>1</voice><type>eighth</type><stem default-y="6">up</stem><beam number="1">begin</beam><lyric default-y="-91" name="verse" number="1"><syllabic>single</syllabic><text font-size="10.8">Herr</text></lyric></note><note default-x="152"><pitch><step>A</step><octave>4</octave></pitch><duration>2</duration><voice>1</voice><type>eighth</type><stem default-y="6">up</stem><beam number="1">end</beam><lyric default-y="-91" name="verse" number="1"><syllabic>single</syllabic><text font-size="10.8">der</text></lyric></note><harmony default-y="36" font-size="10" font-weight="bold"><root><root-step>D</root-step></root><kind halign="center" text="">major</kind><bass><bass-step>F</bass-step><bass-alter>1</bass-alter></bass></harmony><note default-x="222"><pitch><step>G</step><octave>4</octave></pitch><duration>3</duration><voice>1</voice><type>eighth</type><dot /><stem default-y="1">up</stem><beam number="1">begin</beam><lyric default-y="-91" name="verse" number="1"><syllabic>begin</syllabic><text font-size="10.8">E</text></lyric></note><note default-x="292"><pitch><step>F</step><alter>1</alter><octave>4</octave></pitch><duration>1</duration><tie type="start" /><voice>1</voice><type>16th</type><stem default-y="-4">up</stem><beam number="1">end</beam><beam number="2">backward hook</beam><notations><tied type="start" /></notations><lyric default-y="-91" name="verse" number="1"><syllabic>middle</syllabic><text font-size="10.8">wig</text></lyric></note><note default-x="362"><pitch><step>F</step><alter>1</alter><octave>4</octave></pitch><duration>2</duration><tie type="stop" /><voice>1</voice><type>eighth</type><stem default-y="-4">up</stem><beam number="1">begin</beam><notations><tied type="stop" /></notations></note><note default-x="432"><pitch><step>D</step><octave>4</octave></pitch><duration>2</duration><tie type="start" /><voice>1</voice><type>eighth</type><stem default-y="-8.5">up</stem><beam number="1">end</beam><notations><tied type="start" /></notations><lyric default-y="-91" name="verse" number="1"><syllabic>end</syllabic><text font-size="10.8">keit.</text><extend type="start" /></lyric></note></measure><!--=======================================================--><measure number="3" width="588"><print new-system="yes"><system-layout><system-distance>180</system-distance></system-layout></print><harmony default-y="36" font-size="10" font-weight="bold"><root><root-step>G</root-step></root><kind halign="center" text="">major</kind></harmony><note default-x="99"><pitch><step>D</step><octave>4</octave></pitch><duration>4</duration><tie type="stop" /><voice>1</voice><type>quarter</type><stem default-y="-13">up</stem><notations><tied type="stop" /></notations><lyric default-y="-91" name="verse" number="1" relative-x="-24"><extend type="start" /></lyric><lyric name="verse" number="1"><extend type="stop" /></lyric><lyric name="verse" number="1"><extend type="stop" /></lyric></note><note default-x="169"><pitch><step>A</step><octave>4</octave></pitch><duration>2</duration><voice>1</voice><type>eighth</type><stem default-y="6.5">up</stem><beam number="1">begin</beam><lyric default-y="-91" name="verse" number="1"><syllabic>single</syllabic><text font-size="10.8">Er</text></lyric></note><note default-x="238"><pitch><step>A</step><octave>4</octave></pitch><duration>2</duration><voice>1</voice><type>eighth</type><stem default-y="6.5">up</stem><beam number="1">end</beam><lyric default-y="-91" name="verse" number="1"><syllabic>begin</syllabic><text font-size="10.8">al</text></lyric></note><note default-x="308"><pitch><step>G</step><octave>4</octave></pitch><duration>3</duration><voice>1</voice><type>eighth</type><dot /><stem default-y="1">up</stem><beam number="1">begin</beam><lyric default-y="-91" name="verse" number="1"><syllabic>end</syllabic><text font-size="10.8">lein</text></lyric></note><note default-x="378"><pitch><step>F</step><alter>1</alter><octave>4</octave></pitch><duration>1</duration><tie type="start" /><voice>1</voice><type>16th</type><stem default-y="-4">up</stem><beam number="1">end</beam><beam number="2">backward hook</beam><notations><tied type="start" /></notations><lyric default-y="-91" name="verse" number="1"><syllabic>begin</syllabic><text font-size="10.8">re</text></lyric></note><note default-x="447"><pitch><step>F</step><alter>1</alter><octave>4</octave></pitch><duration>2</duration><tie type="stop" /><voice>1</voice><type>eighth</type><stem default-y="-4">up</stem><beam number="1">begin</beam><notations><tied type="stop" /></notations></note><note default-x="517"><pitch><step>D</step><octave>4</octave></pitch><duration>2</duration><tie type="start" /><voice>1</voice><type>eighth</type><stem default-y="-8.5">up</stem><beam number="1">end</beam><notations><tied type="start" /></notations><lyric default-y="-91" name="verse" number="1"><syllabic>end</syllabic><text font-size="10.8">giert</text><extend type="start" /></lyric></note></measure><!--=======================================================--><measure number="4" width="583"><harmony default-y="36" font-size="10" font-weight="bold"><root><root-step>E</root-step></root><kind halign="center" text="m7">minor-seventh</kind></harmony><note default-x="26"><pitch><step>D</step><octave>4</octave></pitch><duration>4</duration><tie type="stop" /><voice>1</voice><type>quarter</type><stem default-y="-13">up</stem><notations><tied type="stop" /></notations><lyric name="verse" number="1"><extend type="stop" /></lyric></note><note default-x="106"><pitch><step>F</step><alter>1</alter><octave>4</octave></pitch><duration>2</duration><voice>1</voice><type>eighth</type><stem default-y="-4">up</stem><beam number="1">begin</beam><lyric default-y="-91" name="verse" number="1"><syllabic>begin</syllabic><text font-size="10.8">ü</text></lyric></note><note default-x="185"><pitch><step>F</step><alter>1</alter><octave>4</octave></pitch><duration>2</duration><voice>1</voice><type>eighth</type><stem default-y="-4">up</stem><beam number="1">end</beam><lyric default-y="-91" name="verse" number="1"><syllabic>end</syllabic><text font-size="10.8">ber</text></lyric></note><harmony default-y="36" font-size="10" font-weight="bold"><root><root-step>A</root-step></root><kind halign="center" text="sus">suspended-fourth</kind></harmony><note default-x="264"><pitch><step>E</step><octave>4</octave></pitch><duration>3</duration><voice>1</voice><type>eighth</type><dot /><stem default-y="-8.5">up</stem><beam number="1">begin</beam><lyric default-y="-91" name="verse" number="1"><syllabic>single</syllabic><text font-size="10.8">Raum</text></lyric></note><note default-x="344"><pitch><step>D</step><octave>4</octave></pitch><duration>1</duration><tie type="start" /><voice>1</voice><type>16th</type><stem default-y="-13.5">up</stem><beam number="1">end</beam><beam number="2">backward hook</beam><notations><tied type="start" /></notations><lyric default-y="-91" name="verse" number="1"><syllabic>single</syllabic><text font-size="10.8">und</text><extend type="start" /></lyric></note><note default-x="423"><pitch><step>D</step><octave>4</octave></pitch><duration>2</duration><tie type="stop" /><voice>1</voice><type>eighth</type><stem default-y="-8.5">up</stem><beam number="1">begin</beam><notations><tied type="stop" /></notations><lyric name="verse" number="1"><extend type="stop" /></lyric></note><note default-x="502"><pitch><step>F</step><alter>1</alter><octave>4</octave></pitch><duration>2</duration><tie type="start" /><voice>1</voice><type>eighth</type><stem default-y="-4">up</stem><beam number="1">end</beam><notations><tied type="start" /></notations><lyric default-y="-91" name="verse" number="1"><syllabic>single</syllabic><text font-size="10.8">Zeit.</text><extend type="start" /></lyric></note></measure><!--=======================================================--><measure number="5" width="620"><print new-system="yes"><system-layout><system-distance>180</system-distance></system-layout></print><harmony default-y="36" font-size="10" font-weight="bold"><root><root-step>D</root-step></root><kind halign="center" text="">major</kind></harmony><note default-x="100"><pitch><step>F</step><alter>1</alter><octave>4</octave></pitch><duration>4</duration><tie type="stop" /><voice>1</voice><type>quarter</type><stem default-y="-3">up</stem><notations><tied type="stop" /></notations><lyric default-y="-91" name="verse" number="1" relative-x="-24"><extend type="start" /></lyric><lyric name="verse" number="1"><extend type="stop" /></lyric><lyric name="verse" number="1"><extend type="stop" /></lyric></note><note default-x="173"><pitch><step>A</step><octave>4</octave></pitch><duration>2</duration><voice>1</voice><type>eighth</type><stem default-y="6.5">up</stem><beam number="1">begin</beam><lyric default-y="-91" name="verse" number="1"><syllabic>begin</syllabic><text font-size="10.8">Sou</text></lyric></note><note default-x="248"><pitch><step>A</step><octave>4</octave></pitch><duration>2</duration><voice>1</voice><type>eighth</type><stem default-y="6.5">up</stem><beam number="1">end</beam><lyric default-y="-91" name="verse" number="1"><syllabic>middle</syllabic><text font-size="10.8">ve</text></lyric></note><harmony default-y="36" font-size="10" font-weight="bold"><root><root-step>G</root-step></root><kind halign="center" text="">major</kind><bass><bass-step>D</bass-step></bass></harmony><note default-x="321"><pitch><step>G</step><octave>4</octave></pitch><duration>3</duration><voice>1</voice><type>eighth</type><dot /><stem default-y="1.5">up</stem><beam number="1">begin</beam><lyric default-y="-91" name="verse" number="1"><syllabic>end</syllabic><text font-size="10.8">rän</text></lyric></note><note default-x="399"><pitch><step>G</step><octave>4</octave></pitch><duration>1</duration><tie type="start" /><voice>1</voice><type>16th</type><stem default-y="1.5">up</stem><beam number="1">end</beam><beam number="2">backward hook</beam><notations><tied type="start" /></notations><lyric default-y="-91" name="verse" number="1"><syllabic>single</syllabic><text font-size="10.8">herrscht</text><extend type="start" /></lyric></note><note default-x="472"><pitch><step>G</step><octave>4</octave></pitch><duration>2</duration><tie type="stop" /><voice>1</voice><type>eighth</type><stem default-y="1.5">up</stem><beam number="1">begin</beam><notations><tied type="stop" /></notations><lyric name="verse" number="1"><extend type="stop" /></lyric></note><note default-x="545"><pitch><step>F</step><alter>1</alter><octave>4</octave></pitch><duration>2</duration><tie type="start" /><voice>1</voice><type>eighth</type><stem default-y="-3">up</stem><beam number="1">end</beam><notations><tied type="start" /></notations><lyric default-y="-91" name="verse" number="1"><syllabic>single</syllabic><text font-size="10.8">Er,</text><extend type="start" /></lyric></note></measure><!--=======================================================--><measure number="6" width="551"><harmony default-y="36" font-size="10" font-weight="bold"><root><root-step>D</root-step></root><kind halign="center" text="">major</kind></harmony><note default-x="13"><pitch><step>F</step><alter>1</alter><octave>4</octave></pitch><duration>4</duration><tie type="stop" /><voice>1</voice><type>quarter</type><stem default-y="-3">up</stem><notations><tied type="stop" /></notations><lyric name="verse" number="1"><extend type="stop" /></lyric></note><note default-x="89"><pitch><step>A</step><octave>4</octave></pitch><duration>2</duration><voice>1</voice><type>eighth</type><stem default-y="6.5">up</stem><beam number="1">begin</beam><lyric default-y="-91" name="verse" number="1"><syllabic>begin</syllabic><text font-size="10.8">Schö</text></lyric></note><note default-x="165"><pitch><step>A</step><octave>4</octave></pitch><duration>2</duration><voice>1</voice><type>eighth</type><stem default-y="6.5">up</stem><beam number="1">end</beam><lyric default-y="-91" name="verse" number="1"><syllabic>end</syllabic><text font-size="10.8">pfer</text></lyric></note><harmony default-y="36" font-size="10" font-weight="bold"><root><root-step>D</root-step></root><kind halign="center" text="">major</kind><bass><bass-step>F</bass-step><bass-alter>1</bass-alter></bass></harmony><note default-x="242"><pitch><step>G</step><octave>4</octave></pitch><duration>3</duration><voice>1</voice><type>eighth</type><dot /><stem default-y="1.5">up</stem><beam number="1">begin</beam><lyric default-y="-91" name="verse" number="1"><syllabic>begin</syllabic><text font-size="10.8">die</text></lyric></note><note default-x="319"><pitch><step>F</step><alter>1</alter><octave>4</octave></pitch><duration>1</duration><tie type="start" /><voice>1</voice><type>16th</type><stem default-y="-3">up</stem><beam number="1">end</beam><beam number="2">backward hook</beam><notations><tied type="start" /></notations><lyric default-y="-91" name="verse" number="1"><syllabic>end</syllabic><text font-size="10.8">ser</text><extend type="start" /></lyric></note><note default-x="396"><pitch><step>F</step><alter>1</alter><octave>4</octave></pitch><duration>2</duration><tie type="stop" /><voice>1</voice><type>eighth</type><stem default-y="-3">up</stem><beam number="1">begin</beam><notations><tied type="stop" /></notations><lyric name="verse" number="1"><extend type="stop" /></lyric></note><note default-x="472"><pitch><step>D</step><octave>4</octave></pitch><duration>2</duration><tie type="start" /><voice>1</voice><type>eighth</type><stem default-y="-9">up</stem><beam number="1">end</beam><notations><tied type="start" /></notations><lyric default-y="-91" name="verse" number="1"><syllabic>single</syllabic><text font-size="10.8">Welt,</text><extend type="start" /></lyric></note></measure><!--=======================================================--><measure number="7" width="529"><print new-system="yes"><system-layout><system-distance>180</system-distance></system-layout></print><harmony default-y="36" font-size="10" font-weight="bold"><root><root-step>G</root-step></root><kind halign="center" text="">major</kind></harmony><note default-x="99"><pitch><step>D</step><octave>4</octave></pitch><duration>4</duration><tie type="stop" /><voice>1</voice><type>quarter</type><stem default-y="-12.5">up</stem><notations><tied type="stop" /></notations><lyric default-y="-91" name="verse" number="1" relative-x="-24"><extend type="start" /></lyric><lyric name="verse" number="1"><extend type="stop" /></lyric><lyric name="verse" number="1"><extend type="stop" /></lyric></note><note default-x="160"><pitch><step>A</step><octave>4</octave></pitch><duration>2</duration><voice>1</voice><type>eighth</type><stem default-y="6">up</stem><beam number="1">begin</beam><lyric default-y="-91" name="verse" number="1"><syllabic>single</syllabic><text font-size="10.8">der</text></lyric></note><note default-x="222"><pitch><step>A</step><octave>4</octave></pitch><duration>2</duration><voice>1</voice><type>eighth</type><stem default-y="6">up</stem><beam number="1">end</beam><lyric default-y="-91" name="verse" number="1"><syllabic>single</syllabic><text font-size="10.8">in</text></lyric></note><note default-x="282"><pitch><step>G</step><octave>4</octave></pitch><duration>3</duration><voice>1</voice><type>eighth</type><dot /><stem default-y="1.5">up</stem><beam number="1">begin</beam><lyric default-y="-91" name="verse" number="1"><syllabic>begin</syllabic><text font-size="10.8">Sei</text></lyric></note><note default-x="344"><pitch><step>F</step><alter>1</alter><octave>4</octave></pitch><duration>1</duration><tie type="start" /><voice>1</voice><type>16th</type><stem default-y="-3.5">up</stem><beam number="1">end</beam><beam number="2">backward hook</beam><notations><tied type="start" /></notations><lyric default-y="-91" name="verse" number="1"><syllabic>end</syllabic><text font-size="10.8">ner</text><extend type="start" /></lyric></note><note default-x="405"><pitch><step>F</step><alter>1</alter><octave>4</octave></pitch><duration>2</duration><tie type="stop" /><voice>1</voice><type>eighth</type><stem default-y="-3.5">up</stem><beam number="1">begin</beam><notations><tied type="stop" /></notations><lyric name="verse" number="1"><extend type="stop" /></lyric></note><note default-x="466"><pitch><step>G</step><octave>4</octave></pitch><duration>2</duration><tie type="start" /><voice>1</voice><type>eighth</type><stem default-y="1.5">up</stem><beam number="1">end</beam><notations><tied type="start" /></notations><lyric default-y="-91" name="verse" number="1"><syllabic>single</syllabic><text font-size="10.8">Hand</text><extend type="start" /></lyric></note></measure><!--=======================================================--><measure number="8" width="505"><harmony default-y="36" font-size="10" font-weight="bold"><root><root-step>E</root-step></root><kind halign="center" text="m7">minor-seventh</kind></harmony><note default-x="26"><pitch><step>G</step><octave>4</octave></pitch><duration>4</duration><tie type="stop" /><voice>1</voice><type>quarter</type><stem default-y="2">up</stem><notations><tied type="stop" /></notations><lyric name="verse" number="1"><extend type="stop" /></lyric></note><note default-x="93"><pitch><step>G</step><octave>4</octave></pitch><duration>2</duration><voice>1</voice><type>eighth</type><stem default-y="1.5">up</stem><beam number="1">begin</beam><lyric default-y="-91" name="verse" number="1"><syllabic>begin</syllabic><text font-size="10.8">un</text></lyric></note><note default-x="161"><pitch><step>F</step><alter>1</alter><octave>4</octave></pitch><duration>2</duration><voice>1</voice><type>eighth</type><stem default-y="-3.5">up</stem><beam number="1">end</beam><lyric default-y="-91" name="verse" number="1"><syllabic>end</syllabic><text font-size="10.8">ser</text></lyric></note><harmony default-y="36" font-size="10" font-weight="bold"><root><root-step>A</root-step></root><kind halign="center" text="sus">suspended-fourth</kind></harmony><note default-x="232"><pitch><step>E</step><octave>4</octave></pitch><duration>3</duration><voice>1</voice><type>eighth</type><dot /><stem default-y="-9">up</stem><beam number="1">begin</beam><lyric default-y="-91" name="verse" number="1"><syllabic>begin</syllabic><text font-size="10.8">Schick</text></lyric></note><note default-x="302"><pitch><step>D</step><octave>4</octave></pitch><duration>1</duration><tie type="start" /><voice>1</voice><type>16th</type><stem default-y="-14">up</stem><beam number="1">end</beam><beam number="2">backward hook</beam><notations><tied type="start" /></notations><lyric default-y="-91" name="verse" number="1"><syllabic>end</syllabic><text font-size="10.8">sal</text><extend type="start" /></lyric></note><note default-x="369"><pitch><step>D</step><octave>4</octave></pitch><duration>2</duration><tie type="stop" /><voice>1</voice><type>eighth</type><stem default-y="-14">up</stem><beam number="1">begin</beam><notations><tied type="stop" /></notations><lyric name="verse" number="1"><extend type="stop" /></lyric></note><note default-x="436"><pitch><step>D</step><octave>4</octave></pitch><duration>2</duration><tie type="start" /><voice>1</voice><type>eighth</type><stem default-y="-14">up</stem><beam number="1">end</beam><notations><tied type="start" /></notations><lyric default-y="-91" name="verse" number="1"><syllabic>single</syllabic><text font-size="10.8">hält.</text><extend type="start" /></lyric></note></measure><!--=======================================================--><measure number="9" width="137"><harmony default-y="36" font-size="10" font-weight="bold"><root><root-step>D</root-step></root><kind halign="center" text="">major</kind></harmony><note default-x="12"><pitch><step>D</step><octave>4</octave></pitch><duration>12</duration><tie type="stop" /><voice>1</voice><type>half</type><dot /><stem default-y="-12.5">up</stem><notations><tied type="stop" /></notations><lyric name="verse" number="1"><extend type="stop" /></lyric></note><note default-x="70"><rest /><duration>4</duration><voice>1</voice><type>quarter</type></note><direction placement="above"><direction-type><words default-x="121" default-y="18" font-style="italic" justify="right">Fine</words></direction-type><sound fine="yes" /></direction><barline location="right"><bar-style>light-heavy</bar-style></barline></measure><!--=======================================================--><measure number="10" width="268"><print new-system="yes"><system-layout><system-distance>180</system-distance></system-layout></print><harmony default-y="36" font-size="10" font-weight="bold"><root><root-step>A</root-step></root><kind halign="center" text="">major</kind></harmony><direction placement="above"><direction-type><rehearsal default-y="69" font-weight="bold" relative-x="-5">VERS</rehearsal></direction-type></direction><note default-x="88"><pitch><step>A</step><octave>4</octave></pitch><duration>4</duration><voice>1</voice><type>quarter</type><stem default-y="7">up</stem><lyric default-y="-91" name="verse" number="1" relative-x="5"><syllabic>single</syllabic><text font-size="10.8">Sein</text></lyric></note><note default-x="133"><rest /><duration>4</duration><voice>1</voice><type>quarter</type></note><harmony default-y="36" font-size="10" font-weight="bold"><root><root-step>G</root-step></root><kind halign="center" text="">major</kind></harmony><note default-x="177"><pitch><step>G</step><octave>4</octave></pitch><duration>4</duration><voice>1</voice><type>quarter</type><stem default-y="2">up</stem><lyric default-y="-91" name="verse" number="1"><syllabic>single</syllabic><text font-size="10.8">Wort</text></lyric></note><note default-x="222"><rest /><duration>4</duration><voice>1</voice><type>quarter</type></note></measure><!--=======================================================--><measure number="11" width="358"><harmony default-y="36" font-size="10" font-weight="bold"><root><root-step>D</root-step></root><kind halign="center" text="">major</kind><bass><bass-step>F</bass-step><bass-alter>1</bass-alter></bass></harmony><note default-x="15"><pitch><step>F</step><alter>1</alter><octave>4</octave></pitch><duration>2</duration><voice>1</voice><type>eighth</type><stem default-y="-3.5">up</stem><beam number="1">begin</beam><lyric default-y="-91" name="verse" number="1" relative-x="5"><syllabic>single</syllabic><text font-size="10.8">gilt</text></lyric></note><note default-x="72"><pitch><step>F</step><alter>1</alter><octave>4</octave></pitch><duration>1</duration><voice>1</voice><type>16th</type><stem default-y="-3.5">up</stem><beam number="1">continue</beam><beam number="2">begin</beam><lyric default-y="-91" name="verse" number="1"><syllabic>single</syllabic><text font-size="10.8">für</text></lyric></note><note default-x="120"><pitch><step>F</step><alter>1</alter><octave>4</octave></pitch><duration>1</duration><tie type="start" /><voice>1</voice><type>16th</type><stem default-y="-3.5">up</stem><beam number="1">end</beam><beam number="2">end</beam><notations><tied type="start" /></notations><lyric default-y="-91" name="verse" number="1"><syllabic>begin</syllabic><text font-size="10.8">al</text></lyric></note><note default-x="165"><pitch><step>F</step><alter>1</alter><octave>4</octave></pitch><duration>1</duration><tie type="stop" /><voice>1</voice><type>16th</type><stem default-y="1.5">up</stem><beam number="1">begin</beam><beam number="2">begin</beam><notations><tied type="stop" /></notations></note><note default-x="212"><pitch><step>G</step><octave>4</octave></pitch><duration>1</duration><voice>1</voice><type>16th</type><stem default-y="3.5">up</stem><beam number="1">continue</beam><beam number="2">end</beam><lyric default-y="-91" name="verse" number="1"><syllabic>end</syllabic><text font-size="10.8">le</text></lyric></note><note default-x="265"><pitch><step>A</step><octave>4</octave></pitch><duration>2</duration><tie type="start" /><voice>1</voice><type>eighth</type><stem default-y="6">up</stem><beam number="1">end</beam><notations><tied type="start" /></notations><lyric default-y="-91" name="verse" number="1"><syllabic>single</syllabic><text font-size="10.8">Zeit.</text><extend type="start" /></lyric></note><note default-x="311"><pitch><step>A</step><octave>4</octave></pitch><duration>8</duration><tie type="stop" /><voice>1</voice><type>half</type><stem default-y="7">up</stem><notations><tied type="stop" /></notations><lyric name="verse" number="1"><extend type="stop" /></lyric></note></measure><!--=======================================================--><measure number="12" width="153"><harmony default-y="36" font-size="10" font-weight="bold"><root><root-step>A</root-step></root><kind halign="center" text="">major</kind></harmony><note default-x="14"><pitch><step>A</step><octave>4</octave></pitch><duration>8</duration><voice>1</voice><type>half</type><stem default-y="7">up</stem><lyric default-y="-91" name="verse" number="1" relative-x="5"><syllabic>single</syllabic><text font-size="10.8">Sein</text></lyric></note><harmony default-y="36" font-size="10" font-weight="bold"><root><root-step>G</root-step></root><kind halign="center" text="">major</kind><bass><bass-step>B</bass-step></bass></harmony><note default-x="88"><pitch><step>G</step><octave>4</octave></pitch><duration>8</duration><voice>1</voice><type>half</type><stem default-y="2">up</stem><lyric default-y="-91" name="verse" number="1"><syllabic>single</syllabic><text font-size="10.8">Reich</text></lyric></note></measure><!--=======================================================--><measure number="13" width="391"><harmony default-y="36" font-size="10" font-weight="bold"><root><root-step>G</root-step></root><kind halign="center" text="">major</kind><bass><bass-step>D</bass-step></bass></harmony><note default-x="20"><pitch><step>G</step><octave>4</octave></pitch><duration>2</duration><voice>1</voice><type>eighth</type><stem default-y="1.5">up</stem><beam number="1">begin</beam><lyric default-y="-91" name="verse" number="1" relative-x="7"><syllabic>single</syllabic><text font-size="10.8">kommt</text></lyric></note><note default-x="89"><pitch><step>G</step><octave>4</octave></pitch><duration>1</duration><voice>1</voice><type>16th</type><stem default-y="1.5">up</stem><beam number="1">continue</beam><beam number="2">begin</beam><lyric default-y="-91" name="verse" number="1"><syllabic>single</syllabic><text font-size="10.8">in</text></lyric></note><note default-x="143"><pitch><step>G</step><octave>4</octave></pitch><duration>1</duration><tie type="start" /><voice>1</voice><type>16th</type><stem default-y="1.5">up</stem><beam number="1">end</beam><beam number="2">end</beam><notations><tied type="start" /></notations><lyric default-y="-91" name="verse" number="1"><syllabic>begin</syllabic><text font-size="10.8">Herr</text></lyric></note><note default-x="190"><pitch><step>G</step><octave>4</octave></pitch><duration>1</duration><tie type="stop" /><voice>1</voice><type>16th</type><stem default-y="6">up</stem><beam number="1">begin</beam><beam number="2">begin</beam><notations><tied type="stop" /></notations></note><note default-x="237"><pitch><step>A</step><octave>4</octave></pitch><duration>1</duration><voice>1</voice><type>16th</type><stem default-y="6">up</stem><beam number="1">continue</beam><beam number="2">end</beam><lyric default-y="-91" name="verse" number="1"><syllabic>middle</syllabic><text font-size="10.8">lich</text></lyric></note><note default-x="296"><pitch><step>F</step><alter>1</alter><octave>4</octave></pitch><duration>2</duration><tie type="start" /><voice>1</voice><type>eighth</type><stem default-y="6">up</stem><beam number="1">end</beam><notations><tied type="start" /></notations><lyric default-y="-91" name="verse" number="1"><syllabic>end</syllabic><text font-size="10.8">keit.</text><extend type="start" /></lyric></note><harmony default-y="36" font-size="10" font-weight="bold"><root><root-step>D</root-step></root><kind halign="center" text="">major</kind></harmony><note default-x="343"><pitch><step>F</step><alter>1</alter><octave>4</octave></pitch><duration>8</duration><tie type="stop" /><voice>1</voice><type>half</type><stem default-y="-3">up</stem><notations><tied type="stop" /></notations><lyric name="verse" number="1"><extend type="stop" /></lyric></note></measure><!--=======================================================--><measure number="14" width="282"><print new-system="yes"><system-layout><system-distance>180</system-distance></system-layout></print><harmony default-y="36" font-size="10" font-weight="bold"><root><root-step>A</root-step></root><kind halign="center" text="">major</kind></harmony><note default-x="88"><pitch><step>A</step><octave>4</octave></pitch><duration>8</duration><voice>1</voice><type>half</type><stem default-y="7">up</stem><lyric default-y="-91" name="verse" number="1"><syllabic>single</syllabic><text font-size="10.8">Wir</text></lyric></note><harmony default-y="36" font-size="10" font-weight="bold"><root><root-step>G</root-step></root><kind halign="center" text="">major</kind></harmony><note default-x="184"><pitch><step>G</step><octave>4</octave></pitch><duration>8</duration><voice>1</voice><type>half</type><stem default-y="2">up</stem><lyric default-y="-91" name="verse" number="1"><syllabic>single</syllabic><text font-size="10.8">steh’n</text></lyric></note></measure><!--=======================================================--><measure number="15" width="564"><harmony default-y="36" font-size="10" font-weight="bold"><root><root-step>D</root-step></root><kind halign="center" text="">major</kind><bass><bass-step>F</bass-step><bass-alter>1</bass-alter></bass></harmony><note default-x="15"><pitch><step>F</step><alter>1</alter><octave>4</octave></pitch><duration>2</duration><voice>1</voice><type>eighth</type><stem default-y="-3.5">up</stem><beam number="1">begin</beam><lyric default-y="-91" name="verse" number="1" relative-x="5"><syllabic>begin</syllabic><text font-size="10.8">stau</text></lyric></note><note default-x="93"><pitch><step>F</step><alter>1</alter><octave>4</octave></pitch><duration>1</duration><voice>1</voice><type>16th</type><stem default-y="-3.5">up</stem><beam number="1">continue</beam><beam number="2">begin</beam><lyric default-y="-91" name="verse" number="1"><syllabic>end</syllabic><text font-size="10.8">nend,</text></lyric></note><note default-x="171"><pitch><step>F</step><alter>1</alter><octave>4</octave></pitch><duration>1</duration><tie type="start" /><voice>1</voice><type>16th</type><stem default-y="-3.5">up</stem><beam number="1">end</beam><beam number="2">end</beam><notations><tied type="start" /></notations><lyric default-y="-91" name="verse" number="1"><syllabic>single</syllabic><text font-size="10.8">Gott,</text><extend type="start" /></lyric></note><note default-x="249"><pitch><step>F</step><alter>1</alter><octave>4</octave></pitch><duration>1</duration><tie type="stop" /><voice>1</voice><type>16th</type><stem default-y="1">up</stem><beam number="1">begin</beam><beam number="2">begin</beam><notations><tied type="stop" /></notations><lyric name="verse" number="1"><extend type="stop" /></lyric></note><note default-x="328"><pitch><step>G</step><octave>4</octave></pitch><duration>1</duration><voice>1</voice><type>16th</type><stem default-y="4">up</stem><beam number="1">continue</beam><beam number="2">end</beam><lyric default-y="-91" name="verse" number="1"><syllabic>single</syllabic><text font-size="10.8">vor</text></lyric></note><note default-x="406"><pitch><step>A</step><octave>4</octave></pitch><duration>2</duration><tie type="start" /><voice>1</voice><type>eighth</type><stem default-y="6">up</stem><beam number="1">end</beam><notations><tied type="start" /></notations><lyric default-y="-91" name="verse" number="1"><syllabic>single</syllabic><text font-size="10.8">Dir,</text><extend type="start" /></lyric></note><note default-x="484"><pitch><step>A</step><octave>4</octave></pitch><duration>8</duration><tie type="stop" /><voice>1</voice><type>half</type><stem default-y="7">up</stem><notations><tied type="stop" /></notations><lyric name="verse" number="1"><extend type="stop" /></lyric></note></measure><!--=======================================================--><measure number="16" width="155"><harmony default-y="36" font-size="10" font-weight="bold"><root><root-step>A</root-step></root><kind halign="center" text="">major</kind></harmony><note default-x="14"><pitch><step>E</step><octave>4</octave></pitch><duration>8</duration><voice>1</voice><type>half</type><stem default-y="-8">up</stem><lyric default-y="-91" name="verse" number="1"><syllabic>begin</syllabic><text font-size="10.8">un</text></lyric></note><harmony default-y="36" font-size="10" font-weight="bold"><root><root-step>D</root-step></root><kind halign="center" text="">major</kind><bass><bass-step>A</bass-step></bass></harmony><note default-x="84"><pitch><step>F</step><alter>1</alter><octave>4</octave></pitch><duration>8</duration><voice>1</voice><type>half</type><stem default-y="-3">up</stem><lyric default-y="-91" name="verse" number="1"><syllabic>end</syllabic><text font-size="10.8">ser</text></lyric></note></measure><!--=======================================================--><measure number="17" width="171"><harmony default-y="36" font-size="10" font-weight="bold"><root><root-step>G</root-step></root><kind halign="center" text="">major</kind><bass><bass-step>A</bass-step></bass></harmony><note default-x="16"><pitch><step>G</step><octave>4</octave></pitch><duration>8</duration><voice>1</voice><type>half</type><stem default-y="2">up</stem><lyric default-y="-91" name="verse" number="1"><syllabic>begin</syllabic><text font-size="10.8">Va</text></lyric></note><harmony default-y="36" font-size="10" font-weight="bold"><root><root-step>A</root-step></root><kind halign="center" text="">major</kind></harmony><note default-x="90"><pitch><step>A</step><octave>4</octave></pitch><duration>8</duration><voice>1</voice><type>half</type><stem default-y="0">up</stem><lyric default-y="-91" name="verse" number="1"><syllabic>end</syllabic><text font-size="10.8">ter.</text></lyric></note><direction placement="above"><direction-type><words default-x="171" default-y="9" font-style="italic" justify="right">D.C. al Fine</words></direction-type><sound dacapo="yes" /></direction><barline location="right"><bar-style>light-light</bar-style></barline></measure></part><!--=========================================================--></score-partwise>