<?xml version="1.0" encoding="UTF-8" standalone="no"?><!DOCTYPE score-partwise PUBLIC "-//Recordare//DTD MusicXML 3.0 Partwise//EN" "http://www.musicxml.org/dtds/3.0/partwise.dtd"[]><score-partwise version="3.0"><movement-title>Herr ich sehe deine Welt</movement-title><identification><creator type="composer">Peter Strauc</creator><encoding><software>Finale v26.3 for Windows</software><encoding-date>2022-12-01</encoding-date><supports attribute="new-system" element="print" type="yes" value="yes" /><supports attribute="new-page" element="print" type="yes" value="yes" /><supports element="accidental" type="yes" /><supports element="beam" type="yes" /><supports element="stem" type="yes" /></encoding><rights>CCLI-Liednummer 4326067
© 1977 SCM Hänssler, Holzgerlingen
Nutzung ausschließlich im Rahmen der SongSelect®-Nutzungsbedingungen. Alle Rechte vorbehalten. www.ccli.com
CCLI-Lizenznummer 2182334
</rights></identification><defaults><scaling><millimeters>6.5088</millimeters><tenths>40</tenths></scaling><page-layout><page-height>1717</page-height><page-width>1327</page-width><page-margins type="both"><left-margin>78</left-margin><right-margin>78</right-margin><top-margin>78</top-margin><bottom-margin>78</bottom-margin></page-margins></page-layout><system-layout><system-margins><left-margin>0</left-margin><right-margin>0</right-margin></system-margins><system-distance>190</system-distance><top-system-distance>117</top-system-distance></system-layout><appearance><line-width type="stem">1.4583</line-width><line-width type="beam">5</line-width><line-width type="staff">1.25</line-width><line-width type="light barline">1.4583</line-width><line-width type="heavy barline">5</line-width><line-width type="leger">1.875</line-width><line-width type="ending">1.4583</line-width><line-width type="wedge">1.4583</line-width><line-width type="enclosure">1.4583</line-width><line-width type="tuplet bracket">1.4583</line-width><note-size type="grace">50</note-size><note-size type="cue">50</note-size><distance type="hyphen">240</distance><distance type="beam">7.5</distance></appearance><music-font font-family="Maestro,engraved" font-size="18.5" /><word-font font-family="Arial" font-size="9.2" /><lyric-font font-family="Georgia" font-size="10.8" name="verse" /><lyric-font font-family="Arial" font-size="10.8" name="section" /></defaults><credit page="1"><credit-type>title</credit-type><credit-words default-x="663" default-y="1649" font-size="21.6" font-weight="bold" justify="center" valign="top">Herr ich sehe deine Welt</credit-words></credit><credit page="1"><credit-words default-x="1249" default-y="1576" font-size="10.8" font-style="italic" justify="right" valign="top">Text und Musik:</credit-words></credit><credit page="1"><credit-type>composer</credit-type><credit-words default-x="1249" default-y="1552" font-size="10.8" font-weight="bold" justify="right" valign="top">Peter Strauc</credit-words></credit><credit page="2"><credit-type>page number</credit-type><credit-type>title</credit-type><credit-words default-x="663" default-y="1663" font-size="10.8" justify="center" valign="top">Herr ich sehe deine Welt - 2</credit-words></credit><part-list><score-part id="P1"><part-name print-object="no">Vocals</part-name><score-instrument id="P1-I2"><instrument-name>Melody</instrument-name></score-instrument><midi-instrument id="P1-I2"><midi-channel>1</midi-channel><midi-program>1</midi-program><volume>80</volume><pan>0</pan></midi-instrument></score-part></part-list><!--=========================================================--><part id="P1"><measure number="1" width="302"><print page-number="1"><page-layout><page-height>1717</page-height><page-width>1327</page-width><page-margins><left-margin>78</left-margin><right-margin>78</right-margin><top-margin>190</top-margin><bottom-margin>163</bottom-margin></page-margins></page-layout><system-layout><system-margins><left-margin>68</left-margin><right-margin>0</right-margin></system-margins></system-layout><measure-numbering>system</measure-numbering></print><barline location="left"><bar-style>heavy-light</bar-style><repeat direction="forward" winged="none" /></barline><attributes><divisions>2</divisions><key><fifths>2</fifths><mode>major</mode></key><time><beats>4</beats><beat-type>4</beat-type></time><clef><sign>G</sign><line>2</line></clef></attributes><sound tempo="96" /><harmony default-y="36" font-size="10" font-weight="bold"><root><root-step>D</root-step></root><kind halign="center" text="">major</kind></harmony><direction placement="above"><direction-type><rehearsal default-y="69" font-weight="bold" relative-x="-5">VERS</rehearsal></direction-type></direction><note default-x="163"><pitch><step>A</step><octave>4</octave></pitch><duration>6</duration><voice>1</voice><type>half</type><dot /><stem default-y="6">up</stem><lyric default-y="-91" name="verse" number="1"><syllabic>single</syllabic><text font-size="10.8">1.</text><elision> </elision><syllabic>single</syllabic><text font-size="10.8">Herr,</text></lyric><lyric default-y="-115" name="verse" number="2" relative-x="4"><syllabic>begin</syllabic><text font-size="10.8">Ber</text></lyric><lyric default-y="-140" name="verse" number="3"><syllabic>single</syllabic><text font-size="10.8">2.</text><elision> </elision><syllabic>single</syllabic><text font-size="10.8">Auch</text></lyric><lyric default-y="-165" name="verse" number="4"><syllabic>single</syllabic><text font-size="10.8">Ist</text></lyric><lyric default-y="-190" name="verse" number="5"><syllabic>single</syllabic><text font-size="10.8">3.</text><elision> </elision><syllabic>single</syllabic><text font-size="10.8">Herr,</text></lyric><lyric default-y="-215" name="verse" number="6"><syllabic>single</syllabic><text font-size="10.8">Du</text></lyric></note><note default-x="239"><pitch><step>A</step><octave>4</octave></pitch><duration>2</duration><voice>1</voice><type>quarter</type><stem default-y="6">up</stem><lyric default-y="-91" name="verse" number="1"><syllabic>single</syllabic><text font-size="10.8">ich</text></lyric><lyric default-y="-115" name="verse" number="2"><syllabic>end</syllabic><text font-size="10.8">ge,</text></lyric><lyric default-y="-140" name="verse" number="3"><syllabic>single</syllabic><text font-size="10.8">die</text></lyric><lyric default-y="-165" name="verse" number="4"><syllabic>single</syllabic><text font-size="10.8">der</text></lyric><lyric default-y="-190" name="verse" number="5"><syllabic>single</syllabic><text font-size="10.8">weil</text></lyric><lyric default-y="-215" name="verse" number="6"><syllabic>begin</syllabic><text font-size="10.8">re</text></lyric></note></measure><!--=======================================================--><measure number="2" width="349"><harmony default-y="36" font-size="10" font-weight="bold"><root><root-step>E</root-step></root><kind halign="center" text="m">minor</kind></harmony><note default-x="34"><pitch><step>G</step><octave>4</octave></pitch><duration>2</duration><voice>1</voice><type>quarter</type><stem default-y="1">up</stem><lyric default-y="-91" name="verse" number="1"><syllabic>begin</syllabic><text font-size="10.8">se</text></lyric><lyric default-y="-115" name="verse" number="2"><syllabic>begin</syllabic><text font-size="10.8">Flüs</text></lyric><lyric default-y="-140" name="verse" number="3"><syllabic>begin</syllabic><text font-size="10.8">Men</text></lyric><lyric default-y="-165" name="verse" number="4"><syllabic>single</syllabic><text font-size="10.8">Mensch</text></lyric><lyric default-y="-190" name="verse" number="5"><syllabic>single</syllabic><text font-size="10.8">du</text></lyric><lyric default-y="-215" name="verse" number="6"><syllabic>end</syllabic><text font-size="10.8">gierst</text></lyric></note><note default-x="121"><pitch><step>G</step><octave>4</octave></pitch><duration>2</duration><voice>1</voice><type>quarter</type><stem default-y="1">up</stem><lyric default-y="-91" name="verse" number="1"><syllabic>end</syllabic><text font-size="10.8">he</text></lyric><lyric default-y="-115" name="verse" number="2"><syllabic>end</syllabic><text font-size="10.8">se</text></lyric><lyric default-y="-140" name="verse" number="3"><syllabic>end</syllabic><text font-size="10.8">schen</text></lyric><lyric default-y="-165" name="verse" number="4"><syllabic>single</syllabic><text font-size="10.8">auch</text></lyric><lyric default-y="-190" name="verse" number="5"><syllabic>single</syllabic><text font-size="10.8">der</text></lyric><lyric default-y="-215" name="verse" number="6"><syllabic>single</syllabic><text font-size="10.8">auch</text></lyric></note><harmony default-y="36" font-size="10" font-weight="bold"><root><root-step>A</root-step></root><kind halign="center" text="7">dominant</kind></harmony><note default-x="200"><pitch><step>G</step><octave>4</octave></pitch><duration>1</duration><voice>1</voice><type>eighth</type><stem default-y="1">up</stem><lyric default-y="-91" name="verse" number="1"><syllabic>begin</syllabic><text font-size="10.8">dei</text></lyric><lyric default-y="-115" name="verse" number="2"><syllabic>single</syllabic><text font-size="10.8">und</text></lyric><lyric default-y="-140" name="verse" number="3"><syllabic>single</syllabic><text font-size="10.8">sind</text></lyric><lyric default-y="-165" name="verse" number="4"><syllabic>single</syllabic><text font-size="10.8">sehr</text></lyric><lyric default-y="-190" name="verse" number="5"><syllabic>begin</syllabic><text font-size="10.8">Herr</text></lyric><lyric default-y="-215" name="verse" number="6"><syllabic>begin</syllabic><text font-size="10.8">uns</text></lyric></note><note default-x="278"><pitch><step>A</step><octave>4</octave></pitch><duration>3</duration><voice>1</voice><type>quarter</type><dot /><stem default-y="6">up</stem><lyric default-y="-91" name="verse" number="1"><syllabic>end</syllabic><text font-size="10.8">ne</text></lyric><lyric default-y="-115" name="verse" number="2"><syllabic>single</syllabic><text font-size="10.8">die</text></lyric><lyric default-y="-140" name="verse" number="3"><syllabic>single</syllabic><text font-size="10.8">von</text></lyric><lyric default-y="-165" name="verse" number="4"><syllabic>begin</syllabic><text font-size="10.8">ent</text></lyric><lyric default-y="-190" name="verse" number="5"><syllabic>end</syllabic><text font-size="10.8">scher</text></lyric><lyric default-y="-215" name="verse" number="6"><syllabic>end</syllabic><text font-size="10.8">re</text></lyric></note></measure><!--=======================================================--><measure number="3" width="149"><harmony default-y="36" font-size="10" font-weight="bold"><root><root-step>D</root-step></root><kind halign="center" text="">major</kind></harmony><note default-x="28"><pitch><step>F</step><alter>1</alter><octave>4</octave></pitch><duration>6</duration><voice>1</voice><type>half</type><dot /><stem default-y="-4">up</stem><lyric default-y="-91" name="verse" number="1"><syllabic>single</syllabic><text font-size="10.8">Welt,</text></lyric><lyric default-y="-115" name="verse" number="2"><syllabic>single</syllabic><text font-size="10.8">Seen,</text></lyric><lyric default-y="-140" name="verse" number="3"><syllabic>single</syllabic><text font-size="10.8">dir</text></lyric><lyric default-y="-165" name="verse" number="4"><syllabic>end</syllabic><text font-size="10.8">stellt,</text></lyric><lyric default-y="-190" name="verse" number="5"><syllabic>single</syllabic><text font-size="10.8">bist</text></lyric><lyric default-y="-215" name="verse" number="6"><syllabic>single</syllabic><text font-size="10.8">Zeit,</text></lyric></note><note default-x="94"><pitch><step>F</step><alter>1</alter><octave>4</octave></pitch><duration>2</duration><voice>1</voice><type>quarter</type><stem default-y="-4">up</stem><lyric default-y="-91" name="verse" number="1"><syllabic>single</syllabic><text font-size="10.8">das</text></lyric><lyric default-y="-115" name="verse" number="2"><syllabic>single</syllabic><text font-size="10.8">die</text></lyric><lyric default-y="-140" name="verse" number="3"><syllabic>single</syllabic><text font-size="10.8">und</text></lyric><lyric default-y="-165" name="verse" number="4"><syllabic>single</syllabic><text font-size="10.8">weil</text></lyric><lyric default-y="-190" name="verse" number="5"><syllabic>single</syllabic><text font-size="10.8">und</text></lyric><lyric default-y="-215" name="verse" number="6"><syllabic>single</syllabic><text font-size="10.8">und</text></lyric></note></measure><!--=======================================================--><measure number="4" width="302"><harmony default-y="36" font-size="10" font-weight="bold"><root><root-step>B</root-step></root><kind halign="center" text="m">minor</kind></harmony><note default-x="27"><pitch><step>F</step><alter>1</alter><octave>4</octave></pitch><duration>2</duration><voice>1</voice><type>quarter</type><stem default-y="-4">up</stem><lyric default-y="-91" name="verse" number="1"><syllabic>begin</syllabic><text font-size="10.8">wei</text></lyric><lyric default-y="-115" name="verse" number="2"><syllabic>begin</syllabic><text font-size="10.8">Tä</text></lyric><lyric default-y="-140" name="verse" number="3"><syllabic>begin</syllabic><text font-size="10.8">ha</text></lyric><lyric default-y="-165" name="verse" number="4"><syllabic>single</syllabic><text font-size="10.8">er</text></lyric><lyric default-y="-190" name="verse" number="5"><syllabic>begin</syllabic><text font-size="10.8">al</text></lyric><lyric default-y="-215" name="verse" number="6"><syllabic>single</syllabic><text font-size="10.8">bald</text></lyric></note><note default-x="96"><pitch><step>F</step><alter>1</alter><octave>4</octave></pitch><duration>2</duration><voice>1</voice><type>quarter</type><stem default-y="-4">up</stem><lyric default-y="-91" name="verse" number="1"><syllabic>end</syllabic><text font-size="10.8">te</text></lyric><lyric default-y="-115" name="verse" number="2"><syllabic>end</syllabic><text font-size="10.8">ler</text></lyric><lyric default-y="-140" name="verse" number="3"><syllabic>end</syllabic><text font-size="10.8">ben</text></lyric><lyric default-y="-165" name="verse" number="4"><syllabic>single</syllabic><text font-size="10.8">die</text></lyric><lyric default-y="-190" name="verse" number="5"><syllabic>end</syllabic><text font-size="10.8">le</text></lyric><lyric default-y="-215" name="verse" number="6"><syllabic>single</syllabic><text font-size="10.8">ist</text></lyric></note><note default-x="164"><pitch><step>F</step><alter>1</alter><octave>4</octave></pitch><duration>1</duration><voice>1</voice><type>eighth</type><stem default-y="-4">up</stem><lyric default-y="-91" name="verse" number="1"><syllabic>single</syllabic><text font-size="10.8">Him</text></lyric><lyric default-y="-115" name="verse" number="2"><syllabic>single</syllabic><text font-size="10.8">und</text></lyric><lyric default-y="-140" name="verse" number="3"><syllabic>begin</syllabic><text font-size="10.8">Le</text></lyric><lyric default-y="-165" name="verse" number="4"><syllabic>begin</syllabic><text font-size="10.8">Sün</text></lyric><lyric default-y="-190" name="verse" number="5"><syllabic>begin</syllabic><text font-size="10.8">Men</text></lyric><lyric default-y="-215" name="verse" number="6"><syllabic>single</syllabic><text font-size="10.8">es</text></lyric></note><note default-x="233"><pitch><step>G</step><octave>4</octave></pitch><duration>3</duration><voice>1</voice><type>quarter</type><dot /><stem default-y="1">up</stem><lyric default-y="-91" name="verse" number="1"><syllabic>begin</syllabic><text font-size="10.8">mels</text></lyric><lyric default-y="-115" name="verse" number="2"><syllabic>single</syllabic><text font-size="10.8">die</text></lyric><lyric default-y="-140" name="verse" number="3"><syllabic>end</syllabic><text font-size="10.8">ben</text></lyric><lyric default-y="-165" name="verse" number="4"><syllabic>end</syllabic><text font-size="10.8">de</text></lyric><lyric default-y="-190" name="verse" number="5"><syllabic>end</syllabic><text font-size="10.8">schen</text></lyric><lyric default-y="-215" name="verse" number="6"><syllabic>begin</syllabic><text font-size="10.8">so</text></lyric></note></measure><!--=======================================================--><measure number="5" width="249"><print new-system="yes"><system-layout><system-distance>275</system-distance></system-layout></print><harmony default-y="36" font-size="10" font-weight="bold"><root><root-step>E</root-step></root><kind halign="center" text="m7">minor-seventh</kind></harmony><note default-x="101"><pitch><step>E</step><octave>4</octave></pitch><duration>6</duration><voice>1</voice><type>half</type><dot /><stem default-y="-8.5">up</stem><lyric default-y="-91" name="verse" number="1"><syllabic>end</syllabic><text font-size="10.8">zelt,</text></lyric><lyric default-y="-115" name="verse" number="2"><syllabic>single</syllabic><text font-size="10.8">Höhn</text></lyric><lyric default-y="-140" name="verse" number="3"><syllabic>single</syllabic><text font-size="10.8">hier</text></lyric><lyric default-y="-165" name="verse" number="4"><syllabic>single</syllabic><text font-size="10.8">wählt,</text></lyric><lyric default-y="-190" name="verse" number="5"><syllabic>single</syllabic><text font-size="10.8">siehst,</text></lyric><lyric default-y="-215" name="verse" number="6"><syllabic>end</syllabic><text font-size="10.8">weit,</text></lyric></note><note default-x="180"><pitch><step>E</step><octave>4</octave></pitch><duration>2</duration><voice>1</voice><type>quarter</type><stem default-y="-8.5">up</stem><lyric default-y="-91" name="verse" number="1"><syllabic>single</syllabic><text font-size="10.8">die</text></lyric><lyric default-y="-115" name="verse" number="2"><syllabic>single</syllabic><text font-size="10.8">sind</text></lyric><lyric default-y="-140" name="verse" number="3"><syllabic>single</syllabic><text font-size="10.8">durch</text></lyric><lyric default-y="-165" name="verse" number="4"><syllabic>single</syllabic><text font-size="10.8">du</text></lyric><lyric default-y="-190" name="verse" number="5"><syllabic>single</syllabic><text font-size="10.8">bin</text></lyric><lyric default-y="-215" name="verse" number="6"><syllabic>single</syllabic><text font-size="10.8">dann</text></lyric></note></measure><!--=======================================================--><measure number="6" width="284"><harmony default-y="36" font-size="10" font-weight="bold"><root><root-step>A</root-step></root><kind halign="center" text="">major</kind></harmony><note default-x="32"><pitch><step>E</step><octave>4</octave></pitch><duration>2</duration><voice>1</voice><type>quarter</type><stem default-y="-8.5">up</stem><lyric default-y="-91" name="verse" number="1"><syllabic>begin</syllabic><text font-size="10.8">Wun</text></lyric><lyric default-y="-115" name="verse" number="2"><syllabic>begin</syllabic><text font-size="10.8">Zei</text></lyric><lyric default-y="-140" name="verse" number="3"><syllabic>begin</syllabic><text font-size="10.8">dei</text></lyric><lyric default-y="-165" name="verse" number="4"><syllabic>single</syllabic><text font-size="10.8">willst</text></lyric><lyric default-y="-190" name="verse" number="5"><syllabic>single</syllabic><text font-size="10.8">ich</text></lyric><lyric default-y="-215" name="verse" number="6"><syllabic>single</syllabic><text font-size="10.8">wirst</text></lyric></note><note default-x="101"><pitch><step>E</step><octave>4</octave></pitch><duration>2</duration><voice>1</voice><type>quarter</type><stem default-y="-8.5">up</stem><lyric default-y="-91" name="verse" number="1"><syllabic>end</syllabic><text font-size="10.8">der</text></lyric><lyric default-y="-115" name="verse" number="2"><syllabic>end</syllabic><text font-size="10.8">chen</text></lyric><lyric default-y="-140" name="verse" number="3"><syllabic>end</syllabic><text font-size="10.8">ne</text></lyric><lyric default-y="-165" name="verse" number="4"><syllabic>single</syllabic><text font-size="10.8">ihn</text></lyric><lyric default-y="-190" name="verse" number="5"><syllabic>single</syllabic><text font-size="10.8">in</text></lyric><lyric default-y="-215" name="verse" number="6"><syllabic>single</syllabic><text font-size="10.8">du</text></lyric></note><note default-x="169"><pitch><step>D</step><octave>4</octave></pitch><duration>1</duration><voice>1</voice><type>eighth</type><stem default-y="-14">up</stem><lyric default-y="-91" name="verse" number="1"><syllabic>begin</syllabic><text font-size="10.8">dei</text></lyric><lyric default-y="-115" name="verse" number="2"><syllabic>begin</syllabic><text font-size="10.8">dei</text></lyric><lyric default-y="-140" name="verse" number="3"><syllabic>begin</syllabic><text font-size="10.8">gro</text></lyric><lyric default-y="-165" name="verse" number="4"><syllabic>single</syllabic><text font-size="10.8">nicht</text></lyric><lyric default-y="-190" name="verse" number="5"><syllabic>single</syllabic><text font-size="10.8">dir</text></lyric><lyric default-y="-215" name="verse" number="6"><syllabic>begin</syllabic><text font-size="10.8">sicht</text></lyric></note><note default-x="232"><pitch><step>E</step><octave>4</octave></pitch><duration>3</duration><voice>1</voice><type>quarter</type><dot /><stem default-y="-8.5">up</stem><lyric default-y="-91" name="verse" number="1"><syllabic>end</syllabic><text font-size="10.8">ner</text></lyric><lyric default-y="-115" name="verse" number="2"><syllabic>end</syllabic><text font-size="10.8">ner</text></lyric><lyric default-y="-140" name="verse" number="3"><syllabic>end</syllabic><text font-size="10.8">ße</text></lyric><lyric default-y="-165" name="verse" number="4"><syllabic>begin</syllabic><text font-size="10.8">zer</text></lyric><lyric default-y="-190" name="verse" number="5"><syllabic>begin</syllabic><text font-size="10.8">ge</text></lyric><lyric default-y="-215" name="verse" number="6"><syllabic>end</syllabic><text font-size="10.8">bar</text></lyric></note></measure><!--=======================================================--><measure number="7" width="101"><harmony default-y="36" font-size="10" font-weight="bold"><root><root-step>D</root-step></root><kind halign="center" text="">major</kind></harmony><note default-x="30"><pitch><step>F</step><alter>1</alter><octave>4</octave></pitch><duration>8</duration><voice>1</voice><type>whole</type><lyric default-y="-91" name="verse" number="1" relative-x="4"><syllabic>begin</syllabic><text font-size="10.8">Schöp</text></lyric><lyric default-y="-115" name="verse" number="2"><syllabic>begin</syllabic><text font-size="10.8">Lie</text></lyric><lyric default-y="-140" name="verse" number="3"><syllabic>begin</syllabic><text font-size="10.8">Gü</text></lyric><lyric default-y="-165" name="verse" number="4"><syllabic>middle</syllabic><text font-size="10.8">stö</text></lyric><lyric default-y="-190" name="verse" number="5"><syllabic>middle</syllabic><text font-size="10.8">bor</text></lyric><lyric default-y="-215" name="verse" number="6" relative-x="6"><syllabic>begin</syllabic><text font-size="10.8">kom</text></lyric></note></measure><!--=======================================================--><measure number="8" width="101"><harmony default-y="36" font-size="10" font-weight="bold"><root><root-step>A</root-step></root><kind halign="center" text="">major</kind></harmony><note default-x="26"><pitch><step>E</step><octave>4</octave></pitch><duration>8</duration><voice>1</voice><type>whole</type><lyric default-y="-91" name="verse" number="1"><syllabic>end</syllabic><text font-size="10.8">fung.</text></lyric><lyric default-y="-115" name="verse" number="2"><syllabic>end</syllabic><text font-size="10.8">be.</text></lyric><lyric default-y="-140" name="verse" number="3"><syllabic>end</syllabic><text font-size="10.8">te.</text></lyric><lyric default-y="-165" name="verse" number="4"><syllabic>end</syllabic><text font-size="10.8">ren.</text></lyric><lyric default-y="-190" name="verse" number="5"><syllabic>end</syllabic><text font-size="10.8">gen.</text></lyric><lyric default-y="-215" name="verse" number="6"><syllabic>end</syllabic><text font-size="10.8">men.</text></lyric></note></measure><!--=======================================================--><measure number="9" width="138"><harmony default-y="36" font-size="10" font-weight="bold"><root><root-step>D</root-step></root><kind halign="center" text="">major</kind></harmony><note default-x="31"><pitch><step>A</step><octave>4</octave></pitch><duration>6</duration><voice>1</voice><type>half</type><dot /><stem default-y="6">up</stem><lyric default-y="-91" name="verse" number="1"><syllabic>begin</syllabic><text font-size="10.8">Al</text></lyric><lyric default-y="-115" name="verse" number="2"><syllabic>begin</syllabic><text font-size="10.8">Son</text></lyric><lyric default-y="-140" name="verse" number="3"><syllabic>begin</syllabic><text font-size="10.8">Füh</text></lyric><lyric default-y="-165" name="verse" number="4"><syllabic>begin</syllabic><text font-size="10.8">Dei</text></lyric><lyric default-y="-190" name="verse" number="5"><syllabic>begin</syllabic><text font-size="10.8">Klein</text></lyric><lyric default-y="-215" name="verse" number="6"><syllabic>single</syllabic><text font-size="10.8">Mit</text></lyric></note><note default-x="94"><pitch><step>A</step><octave>4</octave></pitch><duration>2</duration><voice>1</voice><type>quarter</type><stem default-y="6">up</stem><lyric default-y="-91" name="verse" number="1"><syllabic>end</syllabic><text font-size="10.8">les</text></lyric><lyric default-y="-115" name="verse" number="2"><syllabic>end</syllabic><text font-size="10.8">ne,</text></lyric><lyric default-y="-140" name="verse" number="3"><syllabic>end</syllabic><text font-size="10.8">len,</text></lyric><lyric default-y="-165" name="verse" number="4"><syllabic>end</syllabic><text font-size="10.8">ne</text></lyric><lyric default-y="-190" name="verse" number="5"><syllabic>end</syllabic><text font-size="10.8">ste</text></lyric><lyric default-y="-215" name="verse" number="6"><syllabic>single</syllabic><text font-size="10.8">uns</text></lyric></note></measure><!--=======================================================--><measure number="10" width="298"><harmony default-y="36" font-size="10" font-weight="bold"><root><root-step>E</root-step></root><kind halign="center" text="m">minor</kind></harmony><note default-x="33"><pitch><step>G</step><octave>4</octave></pitch><duration>2</duration><voice>1</voice><type>quarter</type><stem default-y="1">up</stem><lyric default-y="-91" name="verse" number="1"><syllabic>single</syllabic><text font-size="10.8">das</text></lyric><lyric default-y="-115" name="verse" number="2"><syllabic>begin</syllabic><text font-size="10.8">Wol</text></lyric><lyric default-y="-140" name="verse" number="3"><syllabic>begin</syllabic><text font-size="10.8">Wol</text></lyric><lyric default-y="-165" name="verse" number="4"><syllabic>begin</syllabic><text font-size="10.8">Lie</text></lyric><lyric default-y="-190" name="verse" number="5"><syllabic>begin</syllabic><text font-size="10.8">We</text></lyric><lyric default-y="-215" name="verse" number="6"><syllabic>single</syllabic><text font-size="10.8">sehnt</text></lyric></note><note default-x="101"><pitch><step>G</step><octave>4</octave></pitch><duration>2</duration><voice>1</voice><type>quarter</type><stem default-y="1">up</stem><lyric default-y="-91" name="verse" number="1"><syllabic>single</syllabic><text font-size="10.8">hast</text></lyric><lyric default-y="-115" name="verse" number="2"><syllabic>end</syllabic><text font-size="10.8">ken,</text></lyric><lyric default-y="-140" name="verse" number="3"><syllabic>end</syllabic><text font-size="10.8">len</text></lyric><lyric default-y="-165" name="verse" number="4"><syllabic>end</syllabic><text font-size="10.8">be</text></lyric><lyric default-y="-190" name="verse" number="5"><syllabic>end</syllabic><text font-size="10.8">sen</text></lyric><lyric default-y="-215" name="verse" number="6"><syllabic>single</syllabic><text font-size="10.8">sich</text></lyric></note><harmony default-y="36" font-size="10" font-weight="bold"><root><root-step>A</root-step></root><kind halign="center" text="7">dominant</kind></harmony><note default-x="172"><pitch><step>G</step><octave>4</octave></pitch><duration>1</duration><voice>1</voice><type>eighth</type><stem default-y="1">up</stem><lyric default-y="-91" name="verse" number="1"><syllabic>single</syllabic><text font-size="10.8">du</text></lyric><lyric default-y="-115" name="verse" number="2"><syllabic>single</syllabic><text font-size="10.8">Sand</text></lyric><lyric default-y="-140" name="verse" number="3"><syllabic>single</syllabic><text font-size="10.8">und</text></lyric><lyric default-y="-165" name="verse" number="4"><syllabic>single</syllabic><text font-size="10.8">macht</text></lyric><lyric default-y="-190" name="verse" number="5"><syllabic>single</syllabic><text font-size="10.8">in</text></lyric><lyric default-y="-215" name="verse" number="6"><syllabic>single</syllabic><text font-size="10.8">die</text></lyric></note><note default-x="242"><pitch><step>A</step><octave>4</octave></pitch><duration>3</duration><voice>1</voice><type>quarter</type><dot /><stem default-y="6">up</stem><lyric default-y="-91" name="verse" number="1"><syllabic>begin</syllabic><text font-size="10.8">ge</text></lyric><lyric default-y="-115" name="verse" number="2"><syllabic>single</syllabic><text font-size="10.8">und</text></lyric><lyric default-y="-140" name="verse" number="3"><syllabic>begin</syllabic><text font-size="10.8">Ver</text></lyric><lyric default-y="-165" name="verse" number="4"><syllabic>single</syllabic><text font-size="10.8">ihn</text></lyric><lyric default-y="-190" name="verse" number="5"><syllabic>single</syllabic><text font-size="10.8">der</text></lyric><lyric default-y="-215" name="verse" number="6"><syllabic>begin</syllabic><text font-size="10.8">Na</text></lyric></note></measure><!--=======================================================--><measure number="11" width="233"><print new-system="yes"><system-layout><system-distance>275</system-distance></system-layout></print><harmony default-y="36" font-size="10" font-weight="bold"><root><root-step>D</root-step></root><kind halign="center" text="">major</kind></harmony><direction placement="below"><direction-type><words default-y="-219" font-size="10.8" relative-x="-25">-</words></direction-type></direction><note default-x="105"><pitch><step>F</step><alter>1</alter><octave>4</octave></pitch><duration>6</duration><voice>1</voice><type>half</type><dot /><stem default-y="-3.5">up</stem><lyric default-y="-91" name="verse" number="1"><syllabic>end</syllabic><text font-size="10.8">macht,</text></lyric><lyric default-y="-115" name="verse" number="2"><syllabic>single</syllabic><text font-size="10.8">Meer,</text></lyric><lyric default-y="-140" name="verse" number="3"><syllabic>end</syllabic><text font-size="10.8">stand</text></lyric><lyric default-y="-165" name="verse" number="4"><syllabic>single</syllabic><text font-size="10.8">frei</text></lyric><lyric default-y="-190" name="verse" number="5"><syllabic>single</syllabic><text font-size="10.8">Welt,</text></lyric><lyric default-y="-215" name="verse" number="6"><syllabic>end</syllabic><text font-size="10.8">tur</text></lyric></note><note default-x="180"><pitch><step>F</step><alter>1</alter><octave>4</octave></pitch><duration>2</duration><voice>1</voice><type>quarter</type><stem default-y="-3.5">up</stem><lyric default-y="-91" name="verse" number="1"><syllabic>single</syllabic><text font-size="10.8">den</text></lyric><lyric default-y="-115" name="verse" number="2"><syllabic>single</syllabic><text font-size="10.8">die</text></lyric><lyric default-y="-140" name="verse" number="3"><syllabic>single</syllabic><text font-size="10.8">sind</text></lyric><lyric default-y="-165" name="verse" number="4"><syllabic>single</syllabic><text font-size="10.8">von</text></lyric><lyric default-y="-190" name="verse" number="5"><syllabic>single</syllabic><text font-size="10.8">das</text></lyric><lyric default-y="-215" name="verse" number="6"><syllabic>single</syllabic><text font-size="10.8">und</text></lyric></note></measure><!--=======================================================--><measure number="12" width="256"><harmony default-y="36" font-size="10" font-weight="bold"><root><root-step>B</root-step></root><kind halign="center" text="m">minor</kind></harmony><note default-x="27"><pitch><step>F</step><alter>1</alter><octave>4</octave></pitch><duration>2</duration><voice>1</voice><type>quarter</type><stem default-y="-3.5">up</stem><lyric default-y="-91" name="verse" number="1"><syllabic>single</syllabic><text font-size="10.8">Tag</text></lyric><lyric default-y="-115" name="verse" number="2"><syllabic>begin</syllabic><text font-size="10.8">lo</text></lyric><lyric default-y="-140" name="verse" number="3"><syllabic>begin</syllabic><text font-size="10.8">Wer</text></lyric><lyric default-y="-165" name="verse" number="4"><syllabic>begin</syllabic><text font-size="10.8">al</text></lyric><lyric default-y="-190" name="verse" number="5"><syllabic>begin</syllabic><text font-size="10.8">gro</text></lyric><lyric default-y="-215" name="verse" number="6"><syllabic>begin</syllabic><text font-size="10.8">al</text></lyric></note><note default-x="86"><pitch><step>F</step><alter>1</alter><octave>4</octave></pitch><duration>2</duration><voice>1</voice><type>quarter</type><stem default-y="-3.5">up</stem><lyric default-y="-91" name="verse" number="1"><syllabic>single</syllabic><text font-size="10.8">und</text></lyric><lyric default-y="-115" name="verse" number="2"><syllabic>end</syllabic><text font-size="10.8">ben</text></lyric><lyric default-y="-140" name="verse" number="3"><syllabic>end</syllabic><text font-size="10.8">ke</text></lyric><lyric default-y="-165" name="verse" number="4"><syllabic>end</syllabic><text font-size="10.8">ler</text></lyric><lyric default-y="-190" name="verse" number="5"><syllabic>end</syllabic><text font-size="10.8">ße</text></lyric><lyric default-y="-215" name="verse" number="6"><syllabic>end</syllabic><text font-size="10.8">le</text></lyric></note><note default-x="148"><pitch><step>F</step><alter>1</alter><octave>4</octave></pitch><duration>1</duration><voice>1</voice><type>eighth</type><stem default-y="-3.5">up</stem><lyric default-y="-91" name="verse" number="1"><syllabic>single</syllabic><text font-size="10.8">auch</text></lyric><lyric default-y="-115" name="verse" number="2"><syllabic>single</syllabic><text font-size="10.8">dich</text></lyric><lyric default-y="-140" name="verse" number="3"><syllabic>begin</syllabic><text font-size="10.8">dei</text></lyric><lyric default-y="-165" name="verse" number="4"><syllabic>begin</syllabic><text font-size="10.8">Ty</text></lyric><lyric default-y="-190" name="verse" number="5"><syllabic>begin</syllabic><text font-size="10.8">Ster</text></lyric><lyric default-y="-215" name="verse" number="6"><syllabic>begin</syllabic><text font-size="10.8">Kre</text></lyric></note><note default-x="209"><pitch><step>G</step><octave>4</octave></pitch><duration>3</duration><voice>1</voice><type>quarter</type><dot /><stem default-y="1">up</stem><lyric default-y="-91" name="verse" number="1"><syllabic>single</syllabic><text font-size="10.8">die</text></lyric><lyric default-y="-115" name="verse" number="2"><syllabic>single</syllabic><text font-size="10.8">so</text></lyric><lyric default-y="-140" name="verse" number="3"><syllabic>end</syllabic><text font-size="10.8">ner</text></lyric><lyric default-y="-165" name="verse" number="4"><syllabic>middle</syllabic><text font-size="10.8">ran</text></lyric><lyric default-y="-190" name="verse" number="5"><syllabic>middle</syllabic><text font-size="10.8">nen</text></lyric><lyric default-y="-215" name="verse" number="6"><syllabic>middle</syllabic><text font-size="10.8">a</text></lyric></note></measure><!--=======================================================--><measure number="13" width="169"><harmony default-y="36" font-size="10" font-weight="bold"><root><root-step>E</root-step></root><kind halign="center" text="m7">minor-seventh</kind></harmony><note default-x="38"><pitch><step>E</step><octave>4</octave></pitch><duration>6</duration><voice>1</voice><type>half</type><dot /><stem default-y="-8.5">up</stem><lyric default-y="-91" name="verse" number="1"><syllabic>single</syllabic><text font-size="10.8">Nacht;</text></lyric><lyric default-y="-115" name="verse" number="2"><syllabic>single</syllabic><text font-size="10.8">sehr,</text></lyric><lyric default-y="-140" name="verse" number="3"><syllabic>single</syllabic><text font-size="10.8">Hand,</text></lyric><lyric default-y="-165" name="verse" number="4"><syllabic>end</syllabic><text font-size="10.8">nei,</text></lyric><lyric default-y="-190" name="verse" number="5"><syllabic>end</syllabic><text font-size="10.8">zelt</text></lyric><lyric default-y="-215" name="verse" number="6"><syllabic>end</syllabic><text font-size="10.8">tur</text></lyric></note><note default-x="116"><pitch><step>E</step><octave>4</octave></pitch><duration>2</duration><voice>1</voice><type>quarter</type><stem default-y="-8.5">up</stem><lyric default-y="-91" name="verse" number="1"><syllabic>single</syllabic><text font-size="10.8">ich</text></lyric><lyric default-y="-115" name="verse" number="2"><syllabic>single</syllabic><text font-size="10.8">sie</text></lyric><lyric default-y="-140" name="verse" number="3"><syllabic>begin</syllabic><text font-size="10.8">ent</text></lyric><lyric default-y="-165" name="verse" number="4"><syllabic>single</syllabic><text font-size="10.8">wenn</text></lyric><lyric default-y="-190" name="verse" number="5"><syllabic>single</syllabic><text font-size="10.8">hältst</text></lyric><lyric default-y="-215" name="verse" number="6"><syllabic>single</syllabic><text font-size="10.8">nach</text></lyric></note></measure><!--=======================================================--><measure number="14" width="297"><harmony default-y="36" font-size="10" font-weight="bold"><root><root-step>A</root-step></root><kind halign="center" text="">major</kind></harmony><note default-x="34"><pitch><step>E</step><octave>4</octave></pitch><duration>2</duration><voice>1</voice><type>quarter</type><stem default-y="-8.5">up</stem><lyric default-y="-91" name="verse" number="1"><syllabic>begin</syllabic><text font-size="10.8">dan</text></lyric><lyric default-y="-115" name="verse" number="2"><syllabic>begin</syllabic><text font-size="10.8">prei</text></lyric><lyric default-y="-140" name="verse" number="3"><syllabic>middle</syllabic><text font-size="10.8">stam</text></lyric><lyric default-y="-165" name="verse" number="4"><syllabic>single</syllabic><text font-size="10.8">er</text></lyric><lyric default-y="-190" name="verse" number="5"><syllabic>single</syllabic><text font-size="10.8">du</text></lyric><lyric default-y="-215" name="verse" number="6"><syllabic>begin</syllabic><text font-size="10.8">dei</text></lyric></note><note default-x="109"><pitch><step>E</step><octave>4</octave></pitch><duration>2</duration><voice>1</voice><type>quarter</type><stem default-y="-8.5">up</stem><lyric default-y="-91" name="verse" number="1"><syllabic>end</syllabic><text font-size="10.8">ke</text></lyric><lyric default-y="-115" name="verse" number="2"><syllabic>end</syllabic><text font-size="10.8">sen</text></lyric><lyric default-y="-140" name="verse" number="3"><syllabic>end</syllabic><text font-size="10.8">men</text></lyric><lyric default-y="-165" name="verse" number="4"><syllabic>single</syllabic><text font-size="10.8">auf</text></lyric><lyric default-y="-190" name="verse" number="5"><syllabic>single</syllabic><text font-size="10.8">in</text></lyric><lyric default-y="-215" name="verse" number="6"><syllabic>end</syllabic><text font-size="10.8">ner</text></lyric></note><note default-x="175"><pitch><step>D</step><octave>4</octave></pitch><duration>1</duration><voice>1</voice><type>eighth</type><stem default-y="-13">up</stem><lyric default-y="-91" name="verse" number="1"><syllabic>single</syllabic><text font-size="10.8">dir</text></lyric><lyric default-y="-115" name="verse" number="2"><syllabic>begin</syllabic><text font-size="10.8">dei</text></lyric><lyric default-y="-140" name="verse" number="3"><syllabic>begin</syllabic><text font-size="10.8">dei</text></lyric><lyric default-y="-165" name="verse" number="4"><syllabic>single</syllabic><text font-size="10.8">dich</text></lyric><lyric default-y="-190" name="verse" number="5"><syllabic>begin</syllabic><text font-size="10.8">dei</text></lyric><lyric default-y="-215" name="verse" number="6"><syllabic>begin</syllabic><text font-size="10.8">Herr</text></lyric></note><note default-x="243"><pitch><step>C</step><alter>1</alter><octave>4</octave></pitch><duration>3</duration><voice>1</voice><type>quarter</type><dot /><stem default-y="-19">up</stem><lyric default-y="-91" name="verse" number="1"><syllabic>begin</syllabic><text font-size="10.8">da</text></lyric><lyric default-y="-115" name="verse" number="2"><syllabic>end</syllabic><text font-size="10.8">ne</text></lyric><lyric default-y="-140" name="verse" number="3"><syllabic>end</syllabic><text font-size="10.8">nem</text></lyric><lyric default-y="-165" name="verse" number="4"><syllabic>begin</syllabic><text font-size="10.8">ver</text></lyric><lyric default-y="-190" name="verse" number="5"><syllabic>end</syllabic><text font-size="10.8">ner</text></lyric><lyric default-y="-215" name="verse" number="6"><syllabic>middle</syllabic><text font-size="10.8">lich</text></lyric></note></measure><!--=======================================================--><measure number="15" width="97"><harmony default-y="36" font-size="10" font-weight="bold"><root><root-step>D</root-step></root><kind halign="center" text="">major</kind></harmony><note default-x="29"><pitch><step>D</step><octave>4</octave></pitch><duration>8</duration><tie type="start" /><voice>1</voice><type>whole</type><notations><tied type="start" /></notations><lyric default-y="-91" name="verse" number="1"><syllabic>end</syllabic><text font-size="10.8">für.</text><extend type="start" /></lyric><lyric default-y="-115" name="verse" number="2"><syllabic>single</syllabic><text font-size="10.8">Macht.</text><extend type="start" /></lyric><lyric default-y="-140" name="verse" number="3"><syllabic>single</syllabic><text font-size="10.8">Plan.</text><extend type="start" /></lyric><lyric default-y="-165" name="verse" number="4"><syllabic>end</syllabic><text font-size="10.8">traut.</text><extend type="start" /></lyric><lyric default-y="-190" name="verse" number="5"><syllabic>single</syllabic><text font-size="10.8">Hand.</text><extend type="start" /></lyric><lyric default-y="-215" name="verse" number="6"><syllabic>end</syllabic><text font-size="10.8">keit.</text><extend type="start" /></lyric></note></measure><!--=======================================================--><measure number="16" width="119"><note default-x="21"><pitch><step>D</step><octave>4</octave></pitch><duration>6</duration><tie type="stop" /><voice>1</voice><type>half</type><dot /><stem default-y="-13">up</stem><notations><tied type="stop" /></notations><lyric name="verse" number="1"><extend type="stop" /></lyric><lyric name="verse" number="2"><extend type="stop" /></lyric><lyric name="verse" number="3"><extend type="stop" /></lyric><lyric name="verse" number="4"><extend type="stop" /></lyric><lyric name="verse" number="5"><extend type="stop" /></lyric><lyric name="verse" number="6"><extend type="stop" /></lyric></note><note default-x="60"><rest /><duration>2</duration><voice>1</voice><type>quarter</type></note><barline location="right"><bar-style>light-heavy</bar-style><repeat direction="backward" winged="none" /></barline></measure><!--=======================================================--><measure number="17" width="190"><print new-system="yes"><system-layout><system-distance>275</system-distance></system-layout></print><harmony default-y="36" font-size="10" font-weight="bold"><root><root-step>G</root-step></root><kind halign="center" text="">major</kind></harmony><direction placement="above"><direction-type><rehearsal default-y="69" font-weight="bold" relative-x="-5">CHORUS</rehearsal></direction-type></direction><note default-x="98"><pitch><step>B</step><octave>4</octave></pitch><duration>6</duration><voice>1</voice><type>half</type><dot /><stem default-y="-51">down</stem><lyric default-y="-91" name="verse" number="1"><syllabic>begin</syllabic><text font-size="10.8">Da</text></lyric></note><note default-x="147"><pitch><step>B</step><octave>4</octave></pitch><duration>2</duration><voice>1</voice><type>quarter</type><stem default-y="-51">down</stem><lyric default-y="-91" name="verse" number="1"><syllabic>end</syllabic><text font-size="10.8">rum</text></lyric></note></measure><!--=======================================================--><measure number="18" width="204"><harmony default-y="36" font-size="10" font-weight="bold"><root><root-step>A</root-step></root><kind halign="center" text="">major</kind></harmony><note default-x="24"><pitch><step>C</step><alter>1</alter><octave>5</octave></pitch><duration>2</duration><voice>1</voice><type>quarter</type><stem default-y="-46">down</stem><lyric default-y="-91" name="verse" number="1"><syllabic>begin</syllabic><text font-size="10.8">be</text></lyric></note><note default-x="62"><pitch><step>C</step><alter>1</alter><octave>5</octave></pitch><duration>2</duration><voice>1</voice><type>quarter</type><stem default-y="-46">down</stem><lyric default-y="-91" name="verse" number="1"><syllabic>end</syllabic><text font-size="10.8">te</text></lyric></note><note default-x="105"><pitch><step>B</step><octave>4</octave></pitch><duration>1</duration><voice>1</voice><type>eighth</type><stem default-y="-51">down</stem><lyric default-y="-91" name="verse" number="1"><syllabic>single</syllabic><text font-size="10.8">ich</text></lyric></note><note default-x="158"><pitch><step>C</step><alter>1</alter><octave>5</octave></pitch><duration>3</duration><voice>1</voice><type>quarter</type><dot /><stem default-y="-46">down</stem><lyric default-y="-91" name="verse" number="1"><syllabic>single</syllabic><text font-size="10.8">dich</text></lyric></note></measure><!--=======================================================--><measure number="19" width="126"><harmony default-y="36" font-size="10" font-weight="bold"><root><root-step>F</root-step><root-alter>1</root-alter></root><kind halign="center" text="m">minor</kind></harmony><note default-x="34"><pitch><step>A</step><octave>4</octave></pitch><duration>6</duration><voice>1</voice><type>half</type><dot /><stem default-y="6">up</stem><lyric default-y="-91" name="verse" number="1"><syllabic>single</syllabic><text font-size="10.8">an,</text></lyric></note><note default-x="83"><pitch><step>A</step><octave>4</octave></pitch><duration>2</duration><voice>1</voice><type>quarter</type><stem default-y="6">up</stem><lyric default-y="-91" name="verse" number="1"><syllabic>single</syllabic><text font-size="10.8">weil</text></lyric></note></measure><!--=======================================================--><measure number="20" width="275"><harmony default-y="36" font-size="10" font-weight="bold"><root><root-step>B</root-step></root><kind halign="center" text="7">dominant</kind></harmony><note default-x="28"><pitch><step>A</step><octave>4</octave></pitch><duration>2</duration><voice>1</voice><type>quarter</type><stem default-y="6">up</stem><lyric default-y="-91" name="verse" number="1"><syllabic>single</syllabic><text font-size="10.8">ich</text></lyric></note><note default-x="86"><pitch><step>B</step><octave>4</octave></pitch><duration>2</duration><voice>1</voice><type>quarter</type><stem default-y="-51">down</stem><lyric default-y="-91" name="verse" number="1"><syllabic>single</syllabic><text font-size="10.8">nicht</text></lyric></note><note default-x="163"><pitch><step>B</step><octave>4</octave></pitch><duration>2</duration><voice>1</voice><type>quarter</type><stem default-y="-51">down</stem><lyric default-y="-91" name="verse" number="1"><syllabic>begin</syllabic><text font-size="10.8">schwei</text></lyric></note><note default-x="232"><pitch><step>F</step><alter>1</alter><octave>4</octave></pitch><duration>2</duration><voice>1</voice><type>quarter</type><stem default-y="-3.5">up</stem><lyric default-y="-91" name="verse" number="1"><syllabic>end</syllabic><text font-size="10.8">gen</text></lyric></note></measure><!--=======================================================--><measure number="21" width="132"><harmony default-y="36" font-size="10" font-weight="bold"><root><root-step>E</root-step></root><kind halign="center" text="m">minor</kind></harmony><note default-x="33"><pitch><step>G</step><octave>4</octave></pitch><duration>6</duration><voice>1</voice><type>half</type><dot /><stem default-y="1.5">up</stem><lyric default-y="-91" name="verse" number="1"><syllabic>single</syllabic><text font-size="10.8">kann;</text></lyric></note><note default-x="93"><pitch><step>B</step><octave>4</octave></pitch><duration>2</duration><voice>1</voice><type>quarter</type><stem default-y="-51">down</stem><lyric default-y="-91" name="verse" number="1"><syllabic>single</syllabic><text font-size="10.8">die</text></lyric></note></measure><!--=======================================================--><measure number="22" width="244"><harmony default-y="36" font-size="10" font-weight="bold"><root><root-step>A</root-step></root><kind halign="center" text="">major</kind></harmony><note default-x="28"><pitch><step>A</step><octave>4</octave></pitch><duration>2</duration><voice>1</voice><type>quarter</type><stem default-y="6">up</stem><lyric default-y="-91" name="verse" number="1"><syllabic>begin</syllabic><text font-size="10.8">Freu</text></lyric></note><note default-x="81"><pitch><step>E</step><octave>4</octave></pitch><duration>2</duration><voice>1</voice><type>quarter</type><stem default-y="-8">up</stem><lyric default-y="-91" name="verse" number="1"><syllabic>end</syllabic><text font-size="10.8">de</text></lyric></note><note default-x="131"><pitch><step>F</step><alter>1</alter><octave>4</octave></pitch><duration>2</duration><voice>1</voice><type>quarter</type><stem default-y="-3.5">up</stem><lyric default-y="-91" name="verse" number="1"><syllabic>single</syllabic><text font-size="10.8">füllt</text></lyric></note><note default-x="194"><pitch><step>G</step><octave>4</octave></pitch><duration>2</duration><voice>1</voice><type>quarter</type><stem default-y="1.5">up</stem><lyric default-y="-91" name="verse" number="1"><syllabic>single</syllabic><text font-size="10.8">mein</text></lyric></note></measure><!--=======================================================--><measure number="23" width="179"><print new-page="yes" page-number="2" /><harmony default-y="36" font-size="10" font-weight="bold"><root><root-step>D</root-step></root><kind halign="center" text="">major</kind></harmony><note default-x="97"><pitch><step>F</step><alter>1</alter><octave>4</octave></pitch><duration>8</duration><voice>1</voice><type>whole</type><lyric default-y="-91" name="verse" number="1"><syllabic>begin</syllabic><text font-size="10.8">Sin</text></lyric></note></measure><!--=======================================================--><measure number="24" width="105"><harmony default-y="36" font-size="10" font-weight="bold"><root><root-step>D</root-step></root><kind halign="center" text="7">dominant</kind></harmony><note default-x="28"><pitch><step>A</step><octave>4</octave></pitch><duration>8</duration><voice>1</voice><type>whole</type><lyric default-y="-91" name="verse" number="1"><syllabic>end</syllabic><text font-size="10.8">gen.</text></lyric></note></measure><!--=======================================================--><measure number="25" width="150"><harmony default-y="36" font-size="10" font-weight="bold"><root><root-step>G</root-step></root><kind halign="center" text="">major</kind></harmony><note default-x="27"><pitch><step>B</step><octave>4</octave></pitch><duration>6</duration><voice>1</voice><type>half</type><dot /><stem default-y="-51">down</stem><lyric default-y="-91" name="verse" number="1"><syllabic>begin</syllabic><text font-size="10.8">Stau</text></lyric></note><note default-x="93"><pitch><step>B</step><octave>4</octave></pitch><duration>2</duration><voice>1</voice><type>quarter</type><stem default-y="-51">down</stem><lyric default-y="-91" name="verse" number="1"><syllabic>end</syllabic><text font-size="10.8">nend</text></lyric></note></measure><!--=======================================================--><measure number="26" width="209"><harmony default-y="36" font-size="10" font-weight="bold"><root><root-step>A</root-step></root><kind halign="center" text="">major</kind></harmony><note default-x="24"><pitch><step>C</step><alter>1</alter><octave>5</octave></pitch><duration>2</duration><voice>1</voice><type>quarter</type><stem default-y="-46">down</stem><lyric default-y="-91" name="verse" number="1"><syllabic>begin</syllabic><text font-size="10.8">ha</text></lyric></note><note default-x="70"><pitch><step>C</step><alter>1</alter><octave>5</octave></pitch><duration>2</duration><voice>1</voice><type>quarter</type><stem default-y="-46">down</stem><lyric default-y="-91" name="verse" number="1"><syllabic>end</syllabic><text font-size="10.8">be</text></lyric></note><note default-x="116"><pitch><step>B</step><octave>4</octave></pitch><duration>1</duration><voice>1</voice><type>eighth</type><stem default-y="-51">down</stem><lyric default-y="-91" name="verse" number="1"><syllabic>single</syllabic><text font-size="10.8">ich</text></lyric></note><note default-x="162"><pitch><step>C</step><alter>1</alter><octave>5</octave></pitch><duration>3</duration><voice>1</voice><type>quarter</type><dot /><stem default-y="-46">down</stem><lyric default-y="-91" name="verse" number="1"><syllabic>begin</syllabic><text font-size="10.8">er</text></lyric></note></measure><!--=======================================================--><measure number="27" width="153"><harmony default-y="36" font-size="10" font-weight="bold"><root><root-step>F</root-step><root-alter>1</root-alter></root><kind halign="center" text="m">minor</kind></harmony><note default-x="27"><pitch><step>A</step><octave>4</octave></pitch><duration>6</duration><voice>1</voice><type>half</type><dot /><stem default-y="6.5">up</stem><lyric default-y="-91" name="verse" number="1"><syllabic>end</syllabic><text font-size="10.8">kannt:</text></lyric></note><note default-x="93"><pitch><step>A</step><octave>4</octave></pitch><duration>2</duration><voice>1</voice><type>quarter</type><stem default-y="6.5">up</stem><lyric default-y="-91" name="verse" number="1"><syllabic>single</syllabic><text font-size="10.8">ich</text></lyric></note></measure><!--=======================================================--><measure number="28" width="215"><harmony default-y="36" font-size="10" font-weight="bold"><root><root-step>B</root-step></root><kind halign="center" text="">major</kind></harmony><note default-x="22"><pitch><step>B</step><octave>4</octave></pitch><duration>2</duration><voice>1</voice><type>quarter</type><stem default-y="-51">down</stem><lyric default-y="-91" name="verse" number="1"><syllabic>single</syllabic><text font-size="10.8">bin</text></lyric></note><note default-x="71"><pitch><step>B</step><octave>4</octave></pitch><duration>2</duration><voice>1</voice><type>quarter</type><stem default-y="-51">down</stem><lyric default-y="-91" name="verse" number="1"><syllabic>single</syllabic><text font-size="10.8">in</text></lyric></note><note default-x="117"><pitch><step>B</step><octave>4</octave></pitch><duration>2</duration><voice>1</voice><type>quarter</type><stem default-y="-51">down</stem><lyric default-y="-91" name="verse" number="1"><syllabic>begin</syllabic><text font-size="10.8">dei</text></lyric></note><note default-x="167"><pitch><step>F</step><alter>1</alter><octave>4</octave></pitch><duration>2</duration><voice>1</voice><type>quarter</type><stem default-y="-4">up</stem><lyric default-y="-91" name="verse" number="1"><syllabic>end</syllabic><text font-size="10.8">ner</text></lyric></note></measure><!--=======================================================--><measure number="29" width="159"><harmony default-y="36" font-size="10" font-weight="bold"><root><root-step>E</root-step></root><kind halign="center" text="m">minor</kind></harmony><note default-x="26"><pitch><step>G</step><octave>4</octave></pitch><duration>6</duration><voice>1</voice><type>half</type><dot /><stem default-y="1">up</stem><lyric default-y="-91" name="verse" number="1"><syllabic>single</syllabic><text font-size="10.8">Hand,</text></lyric></note><note default-x="95"><pitch><step>B</step><octave>4</octave></pitch><duration>2</duration><voice>1</voice><type>quarter</type><stem default-y="-51">down</stem><lyric default-y="-91" name="verse" number="1"><syllabic>single</syllabic><text font-size="10.8">und</text></lyric></note></measure><!--=======================================================--><measure number="30" width="706"><print new-system="yes"><system-layout><system-distance>180</system-distance></system-layout></print><harmony default-y="36" font-size="10" font-weight="bold"><root><root-step>A</root-step></root><kind halign="center" text="">major</kind></harmony><note default-x="99"><pitch><step>A</step><octave>4</octave></pitch><duration>2</duration><voice>1</voice><type>quarter</type><stem default-y="6.5">up</stem><lyric default-y="-91" name="verse" number="1"><syllabic>single</syllabic><text font-size="10.8">du</text></lyric></note><note default-x="250"><pitch><step>A</step><octave>4</octave></pitch><duration>2</duration><voice>1</voice><type>quarter</type><stem default-y="6.5">up</stem><lyric default-y="-91" name="verse" number="1"><syllabic>single</syllabic><text font-size="10.8">lässt</text></lyric></note><note default-x="402"><pitch><step>F</step><alter>1</alter><octave>4</octave></pitch><duration>2</duration><voice>1</voice><type>quarter</type><stem default-y="-4">up</stem><lyric default-y="-91" name="verse" number="1"><syllabic>single</syllabic><text font-size="10.8">mich</text></lyric></note><note default-x="553"><pitch><step>E</step><octave>4</octave></pitch><duration>2</duration><voice>1</voice><type>quarter</type><stem default-y="-9">up</stem><lyric default-y="-91" name="verse" number="1"><syllabic>single</syllabic><text font-size="10.8">nicht</text></lyric></note></measure><!--=======================================================--><measure number="31" width="231"><harmony default-y="36" font-size="10" font-weight="bold"><root><root-step>D</root-step></root><kind halign="center" text="">major</kind></harmony><note default-x="22"><pitch><step>D</step><octave>4</octave></pitch><duration>8</duration><tie type="start" /><voice>1</voice><type>whole</type><notations><tied type="start" /></notations><lyric default-y="-91" name="verse" number="1"><syllabic>single</syllabic><text font-size="10.8">los.</text><extend type="start" /></lyric></note></measure><!--=======================================================--><measure number="32" width="233"><note default-x="20"><pitch><step>D</step><octave>4</octave></pitch><duration>8</duration><tie type="stop" /><voice>1</voice><type>whole</type><notations><tied type="stop" /></notations><lyric name="verse" number="1"><extend type="stop" /></lyric></note><barline location="right"><bar-style>light-heavy</bar-style></barline></measure></part><!--=========================================================--></score-partwise>