<?xml version="1.0" encoding="UTF-8" standalone="no"?><!DOCTYPE score-partwise PUBLIC "-//Recordare//DTD MusicXML 3.0 Partwise//EN" "http://www.musicxml.org/dtds/partwise.dtd"[]><score-partwise version="3.0"><movement-title>Herr du bist mächtig</movement-title><identification><creator type="composer">Lenny LeBlanc und Paul Baloche</creator><creator type="lyricist">Theo Eißler</creator><encoding><software>Finale 2014.5 for Windows</software><software>Dolet Light for Finale 2014.5</software><encoding-date>2020-06-05</encoding-date><supports attribute="new-system" element="print" type="yes" value="yes" /><supports attribute="new-page" element="print" type="yes" value="yes" /><supports element="accidental" type="yes" /><supports element="beam" type="yes" /><supports element="stem" type="yes" /></encoding><rights>CCLI-Liednummer 5274943
© 1999 LenSongs Publishing | Integrity's Hosanna! Music
Nutzung ausschließlich im Rahmen der SongSelect®-Nutzungsbedingungen. Alle Rechte vorbehalten. www.ccli.com
CCLI-Lizenznummer 2182334
</rights></identification><defaults><scaling><millimeters>6.5088</millimeters><tenths>40</tenths></scaling><page-layout><page-height>1717</page-height><page-width>1327</page-width><page-margins type="both"><left-margin>78</left-margin><right-margin>78</right-margin><top-margin>78</top-margin><bottom-margin>78</bottom-margin></page-margins></page-layout><system-layout><system-margins><left-margin>0</left-margin><right-margin>0</right-margin></system-margins><system-distance>190</system-distance><top-system-distance>117</top-system-distance></system-layout><appearance><line-width type="stem">1.4583</line-width><line-width type="beam">5</line-width><line-width type="staff">1.25</line-width><line-width type="light barline">1.4583</line-width><line-width type="heavy barline">5</line-width><line-width type="leger">1.875</line-width><line-width type="ending">1.4583</line-width><line-width type="wedge">1.4583</line-width><line-width type="enclosure">1.4583</line-width><line-width type="tuplet bracket">1.4583</line-width><note-size type="grace">50</note-size><note-size type="cue">50</note-size><distance type="hyphen">240</distance><distance type="beam">8</distance></appearance><music-font font-family="Maestro,engraved" font-size="18.5" /><word-font font-family="Arial" font-size="9.2" /><lyric-font font-family="Arial" font-size="10.8" name="verse" /><lyric-font font-family="Arial" font-size="10.8" name="section" /></defaults><credit page="1"><credit-type>title</credit-type><credit-words default-x="663" default-y="1649" font-size="21.6" font-weight="bold" justify="center" valign="top" xml:lang="de">Herr du bist mächtig</credit-words></credit><credit page="1"><credit-words default-x="1249" default-y="1576" font-size="10.8" font-style="italic" justify="right" valign="top">Text und Musik:</credit-words></credit><credit page="1"><credit-type>composer</credit-type><credit-words default-x="1249" default-y="1552" font-size="10.8" font-weight="bold" justify="right" valign="top">Lenny LeBlanc und Paul Baloche</credit-words></credit><credit page="1"><credit-words default-x="78" default-y="1576" font-size="10.8" font-style="italic" valign="top">Deutsch:</credit-words></credit><credit page="1"><credit-type>lyricist</credit-type><credit-words default-x="78" default-y="1552" font-size="10.8" font-weight="bold" valign="top" xml:lang="de">Theo Eißler</credit-words></credit><credit page="2"><credit-type>title</credit-type><credit-type>page number</credit-type><credit-words default-x="663" default-y="1663" font-size="10.8" justify="center" valign="top" xml:lang="de">Herr du bist mächtig - 2</credit-words></credit><part-list><score-part id="P1"><part-name print-object="no">Vocals</part-name><score-instrument id="P1-I2"><instrument-name>Melody</instrument-name></score-instrument><midi-instrument id="P1-I2"><midi-channel>1</midi-channel><midi-program>1</midi-program><volume>80</volume><pan>0</pan></midi-instrument></score-part></part-list><!--=========================================================--><part id="P1"><measure implicit="yes" number="0" width="358"><print page-number="1"><page-layout><page-height>1717</page-height><page-width>1327</page-width><page-margins><left-margin>78</left-margin><right-margin>78</right-margin><top-margin>190</top-margin><bottom-margin>163</bottom-margin></page-margins></page-layout><system-layout><system-margins><left-margin>68</left-margin><right-margin>0</right-margin></system-margins></system-layout><measure-numbering>system</measure-numbering></print><attributes><divisions>8</divisions><key><fifths>3</fifths><mode>major</mode></key><time><beats>4</beats><beat-type>4</beat-type></time><clef><sign>G</sign><line>2</line></clef></attributes><sound tempo="96" /><note default-x="129"><rest /><duration>6</duration><voice>1</voice><type>eighth</type><dot /><lyric default-y="-91" name="verse" number="1"><syllabic>single</syllabic><text font-size="10.8">1.</text></lyric></note><note default-x="187"><pitch><step>C</step><alter>1</alter><octave>4</octave></pitch><duration>2</duration><voice>1</voice><type>16th</type><stem default-y="-18">up</stem><lyric default-y="-91" name="verse" number="1"><syllabic>single</syllabic><text font-size="10.8">Herr,</text></lyric></note><harmony default-y="36" font-size="10" font-weight="bold"><root><root-step>A</root-step></root><kind halign="center" text="">major</kind></harmony><note default-x="242"><pitch><step>E</step><octave>4</octave></pitch><duration>2</duration><voice>1</voice><type>16th</type><stem default-y="6">up</stem><beam number="1">begin</beam><beam number="2">forward hook</beam><lyric default-y="-91" name="verse" number="1"><syllabic>single</syllabic><text font-size="10.8">du</text></lyric></note><note default-x="291"><pitch><step>A</step><octave>4</octave></pitch><duration>4</duration><voice>1</voice><type>eighth</type><stem default-y="6">up</stem><beam number="1">continue</beam><notations><slur number="1" placement="below" type="start" /></notations><lyric default-y="-91" name="verse" number="1"><syllabic>single</syllabic><text font-size="10.8">bist</text><extend type="start" /></lyric></note><note default-x="324"><pitch><step>G</step><alter>1</alter><octave>4</octave></pitch><duration>2</duration><voice>1</voice><type>16th</type><stem default-y="6">up</stem><beam number="1">end</beam><beam number="2">backward hook</beam><notations><slur number="1" type="stop" /></notations><lyric name="verse" number="1"><extend type="stop" /></lyric></note><barline location="right"><bar-style>light-light</bar-style></barline></measure><!--=======================================================--><measure number="1" width="384"><harmony default-y="36" font-size="10" font-weight="bold"><root><root-step>E</root-step></root><kind halign="center" text="">major</kind><bass><bass-step>D</bass-step></bass></harmony><direction placement="above"><direction-type><rehearsal default-y="69" font-weight="bold" relative-x="-5">VERS 1</rehearsal></direction-type></direction><note default-x="19"><pitch><step>G</step><alter>1</alter><octave>4</octave></pitch><duration>6</duration><voice>1</voice><type>eighth</type><dot /><stem default-y="1">up</stem><beam number="1">begin</beam><notations><slur number="1" placement="below" type="start" /></notations><lyric default-y="-91" name="verse" number="1"><syllabic>begin</syllabic><text font-size="10.8">mäch</text></lyric></note><note default-x="66"><pitch><step>F</step><alter>1</alter><octave>4</octave></pitch><duration>2</duration><voice>1</voice><type>16th</type><stem default-y="-4">up</stem><beam number="1">end</beam><beam number="2">backward hook</beam><notations><slur number="1" type="stop" /></notations></note><harmony default-y="36" font-size="10" font-weight="bold"><root><root-step>D</root-step></root><kind halign="center" text="">major</kind></harmony><note default-x="100"><pitch><step>F</step><alter>1</alter><octave>4</octave></pitch><duration>8</duration><voice>1</voice><type>quarter</type><stem default-y="-3">up</stem><lyric default-y="-91" name="verse" number="1"><syllabic>end</syllabic><text font-size="10.8">tig,</text></lyric></note><harmony default-y="36" font-size="10" font-weight="bold"><root><root-step>E</root-step></root><kind halign="center" text="sus">suspended-fourth</kind></harmony><note default-x="150"><rest /><duration>6</duration><voice>1</voice><type>eighth</type><dot /></note><note default-x="206"><pitch><step>D</step><octave>4</octave></pitch><duration>2</duration><voice>1</voice><type>16th</type><stem default-y="-13">up</stem><lyric default-y="-91" name="verse" number="1"><syllabic>single</syllabic><text font-size="10.8">bist</text></lyric></note><harmony default-y="36" font-size="10" font-weight="bold"><root><root-step>E</root-step></root><kind halign="center" text="">major</kind></harmony><note default-x="267"><pitch><step>D</step><octave>4</octave></pitch><duration>2</duration><voice>1</voice><type>16th</type><stem default-y="-4">up</stem><beam number="1">begin</beam><beam number="2">forward hook</beam><lyric default-y="-91" name="verse" number="1"><syllabic>single</syllabic><text font-size="10.8">hoch</text></lyric></note><note default-x="320"><pitch><step>F</step><alter>1</alter><octave>4</octave></pitch><duration>4</duration><voice>1</voice><type>eighth</type><stem default-y="-4">up</stem><beam number="1">continue</beam><notations><slur number="1" placement="below" type="start" /></notations><lyric default-y="-91" name="verse" number="1"><syllabic>begin</syllabic><text font-size="10.8">er</text></lyric></note><note default-x="352"><pitch><step>E</step><octave>4</octave></pitch><duration>2</duration><tie type="start" /><voice>1</voice><type>16th</type><stem default-y="-4">up</stem><beam number="1">end</beam><beam number="2">backward hook</beam><notations><tied type="start" /></notations></note></measure><!--=======================================================--><measure number="2" width="360"><harmony default-y="36" font-size="10" font-weight="bold"><root><root-step>A</root-step></root><kind halign="center" text="">major</kind></harmony><note default-x="14"><pitch><step>E</step><octave>4</octave></pitch><duration>4</duration><tie type="stop" /><voice>1</voice><type>eighth</type><stem default-y="-8">up</stem><notations><tied type="stop" /><slur number="1" type="stop" /></notations></note><note default-x="59"><pitch><step>E</step><octave>4</octave></pitch><duration>12</duration><voice>1</voice><type>quarter</type><dot /><stem default-y="-8">up</stem><lyric default-y="-91" name="verse" number="1"><syllabic>end</syllabic><text font-size="10.8">höht!</text></lyric></note><harmony default-y="36" font-size="10" font-weight="bold"><root><root-step>A</root-step></root><kind halign="center" text="">major</kind><bass><bass-step>C</bass-step><bass-alter>1</bass-alter></bass></harmony><note default-x="125"><rest /><duration>6</duration><voice>1</voice><type>eighth</type><dot /></note><note default-x="199"><pitch><step>C</step><alter>1</alter><octave>4</octave></pitch><duration>2</duration><voice>1</voice><type>16th</type><stem default-y="-18">up</stem><lyric default-y="-91" name="verse" number="1"><syllabic>single</syllabic><text font-size="10.8">Herr,</text></lyric></note><note default-x="254"><pitch><step>E</step><octave>4</octave></pitch><duration>2</duration><voice>1</voice><type>16th</type><stem default-y="6">up</stem><beam number="1">begin</beam><beam number="2">forward hook</beam><lyric default-y="-91" name="verse" number="1"><syllabic>single</syllabic><text font-size="10.8">du</text></lyric></note><note default-x="302"><pitch><step>A</step><octave>4</octave></pitch><duration>4</duration><voice>1</voice><type>eighth</type><stem default-y="6">up</stem><beam number="1">continue</beam><notations><slur number="1" placement="below" type="start" /></notations><lyric default-y="-91" name="verse" number="1"><syllabic>single</syllabic><text font-size="10.8">bist</text><extend type="start" /></lyric></note><note default-x="333"><pitch><step>G</step><alter>1</alter><octave>4</octave></pitch><duration>2</duration><voice>1</voice><type>16th</type><stem default-y="6">up</stem><beam number="1">end</beam><beam number="2">backward hook</beam><notations><slur number="1" type="stop" /></notations><lyric name="verse" number="1"><extend type="stop" /></lyric></note></measure><!--=======================================================--><measure number="3" width="742"><print new-system="yes"><system-layout><system-distance>180</system-distance></system-layout></print><harmony default-y="36" font-size="10" font-weight="bold"><root><root-step>E</root-step></root><kind halign="center" text="">major</kind><bass><bass-step>D</bass-step></bass></harmony><note default-x="107"><pitch><step>G</step><alter>1</alter><octave>4</octave></pitch><duration>6</duration><voice>1</voice><type>eighth</type><dot /><stem default-y="1">up</stem><beam number="1">begin</beam><notations><slur number="1" placement="below" type="start" /></notations><lyric default-y="-91" name="verse" number="1"><syllabic>begin</syllabic><text font-size="10.8">präch</text></lyric></note><note default-x="190"><pitch><step>F</step><alter>1</alter><octave>4</octave></pitch><duration>2</duration><voice>1</voice><type>16th</type><stem default-y="-4">up</stem><beam number="1">end</beam><beam number="2">backward hook</beam><notations><slur number="1" type="stop" /></notations></note><harmony default-y="36" font-size="10" font-weight="bold"><root><root-step>D</root-step></root><kind halign="center" text="">major</kind></harmony><note default-x="234"><pitch><step>F</step><alter>1</alter><octave>4</octave></pitch><duration>4</duration><voice>1</voice><type>eighth</type><stem default-y="1">up</stem><beam number="1">begin</beam><lyric default-y="-91" name="verse" number="1"><syllabic>end</syllabic><text font-size="10.8">tig</text></lyric></note><note default-x="307"><pitch><step>G</step><alter>1</alter><octave>4</octave></pitch><duration>2</duration><voice>1</voice><type>16th</type><stem default-y="4">up</stem><beam number="1">continue</beam><beam number="2">begin</beam><lyric default-y="-91" name="verse" number="1"><syllabic>single</syllabic><text font-size="10.8">und</text></lyric></note><note default-x="369"><pitch><step>A</step><octave>4</octave></pitch><duration>2</duration><tie type="start" /><voice>1</voice><type>16th</type><stem default-y="6.5">up</stem><beam number="1">end</beam><beam number="2">end</beam><notations><tied type="start" /></notations><lyric default-y="-91" name="verse" number="1"><syllabic>single</syllabic><text font-size="10.8">was</text><extend type="start" /></lyric></note><harmony default-y="36" font-size="10" font-weight="bold"><root><root-step>E</root-step></root><kind halign="center" text="sus">suspended-fourth</kind></harmony><note default-x="425"><pitch><step>A</step><octave>4</octave></pitch><duration>4</duration><tie type="stop" /><voice>1</voice><type>eighth</type><stem default-y="6.5">up</stem><beam number="1">begin</beam><notations><tied type="stop" /></notations><lyric name="verse" number="1"><extend type="stop" /></lyric></note><note default-x="506"><pitch><step>G</step><alter>1</alter><octave>4</octave></pitch><duration>2</duration><voice>1</voice><type>16th</type><stem default-y="4">up</stem><beam number="1">continue</beam><beam number="2">begin</beam><lyric default-y="-91" name="verse" number="1"><syllabic>single</syllabic><text font-size="10.8">durch</text></lyric></note><note default-x="574"><pitch><step>F</step><alter>1</alter><octave>4</octave></pitch><duration>2</duration><voice>1</voice><type>16th</type><stem default-y="1">up</stem><beam number="1">end</beam><beam number="2">end</beam><notations><slur number="1" placement="below" type="start" /></notations><lyric default-y="-91" name="verse" number="1"><syllabic>single</syllabic><text font-size="10.8">dich</text><extend type="start" /></lyric></note><harmony default-y="36" font-size="10" font-weight="bold"><root><root-step>E</root-step></root><kind halign="center" text="">major</kind></harmony><note default-x="615"><pitch><step>E</step><octave>4</octave></pitch><duration>2</duration><voice>1</voice><type>16th</type><stem default-y="-8.5">up</stem><beam number="1">begin</beam><beam number="2">forward hook</beam><notations><slur number="1" type="stop" /></notations><lyric name="verse" number="1"><extend type="stop" /></lyric></note><note default-x="660"><pitch><step>F</step><alter>1</alter><octave>4</octave></pitch><duration>6</duration><voice>1</voice><type>eighth</type><dot /><stem default-y="-4">up</stem><beam number="1">end</beam><lyric default-y="-91" name="verse" number="1"><syllabic>begin</syllabic><text font-size="10.8">ge</text></lyric></note></measure><!--=======================================================--><measure number="4" width="429"><harmony default-y="36" font-size="10" font-weight="bold"><root><root-step>A</root-step></root><kind halign="center" text="">major</kind></harmony><note default-x="33"><pitch><step>E</step><octave>4</octave></pitch><duration>16</duration><voice>1</voice><type>half</type><stem default-y="-8">up</stem><lyric default-y="-91" name="verse" number="1"><syllabic>end</syllabic><text font-size="10.8">schieht.</text></lyric></note><note default-x="165"><rest /><duration>6</duration><voice>1</voice><type>eighth</type><dot /></note><note default-x="240"><pitch><step>C</step><alter>1</alter><octave>4</octave></pitch><duration>2</duration><voice>1</voice><type>16th</type><stem default-y="-18">up</stem><lyric default-y="-91" name="verse" number="1"><syllabic>single</syllabic><text font-size="10.8">Herr,</text></lyric></note><harmony default-y="36" font-size="10" font-weight="bold"><root><root-step>A</root-step></root><kind halign="center" text="">major</kind><bass><bass-step>G</bass-step><bass-alter>1</bass-alter></bass></harmony><note default-x="299"><pitch><step>C</step><alter>1</alter><octave>4</octave></pitch><duration>2</duration><voice>1</voice><type>16th</type><stem default-y="-13.5">up</stem><beam number="1">begin</beam><beam number="2">forward hook</beam><lyric default-y="-91" name="verse" number="1"><syllabic>begin</syllabic><text font-size="10.8">dei</text></lyric></note><note default-x="358"><pitch><step>E</step><octave>4</octave></pitch><duration>6</duration><voice>1</voice><type>eighth</type><dot /><stem default-y="-8.5">up</stem><beam number="1">end</beam><lyric default-y="-91" name="verse" number="1"><syllabic>end</syllabic><text font-size="10.8">ne</text></lyric></note></measure><!--=======================================================--><measure number="5" width="851"><print new-system="yes"><system-layout><system-distance>180</system-distance></system-layout></print><harmony default-y="36" font-size="10" font-weight="bold"><root><root-step>F</root-step><root-alter>1</root-alter></root><kind halign="center" text="m">minor</kind></harmony><note default-x="109"><pitch><step>F</step><alter>1</alter><octave>4</octave></pitch><duration>6</duration><voice>1</voice><type>eighth</type><dot /><stem default-y="-3">up</stem><beam number="1">begin</beam><lyric default-y="-91" name="verse" number="1"><syllabic>begin</syllabic><text font-size="10.8">Weis</text></lyric></note><note default-x="218"><pitch><step>F</step><alter>1</alter><octave>4</octave></pitch><duration>2</duration><tie type="start" /><voice>1</voice><type>16th</type><stem default-y="-3">up</stem><beam number="1">end</beam><beam number="2">backward hook</beam><notations><tied type="start" /></notations><lyric default-y="-91" name="verse" number="1"><syllabic>end</syllabic><text font-size="10.8">heit</text><extend type="start" /></lyric></note><note default-x="269"><pitch><step>F</step><alter>1</alter><octave>4</octave></pitch><duration>4</duration><tie type="stop" /><voice>1</voice><type>eighth</type><stem default-y="1.5">up</stem><beam number="1">begin</beam><notations><tied type="stop" /></notations><lyric name="verse" number="1"><extend type="stop" /></lyric></note><note default-x="344"><pitch><step>G</step><alter>1</alter><octave>4</octave></pitch><duration>2</duration><voice>1</voice><type>16th</type><stem default-y="4">up</stem><beam number="1">continue</beam><beam number="2">begin</beam><lyric default-y="-91" name="verse" number="1"><syllabic>begin</syllabic><text font-size="10.8">er</text></lyric></note><note default-x="405"><pitch><step>A</step><octave>4</octave></pitch><duration>2</duration><tie type="start" /><voice>1</voice><type>16th</type><stem default-y="6.5">up</stem><beam number="1">end</beam><beam number="2">end</beam><notations><tied type="start" /></notations><lyric default-y="-91" name="verse" number="1"><syllabic>end</syllabic><text font-size="10.8">strahlt</text><extend type="start" /></lyric></note><harmony default-y="36" font-size="10" font-weight="bold"><root><root-step>A</root-step></root><kind halign="center" text="maj7">major-seventh</kind><bass><bass-step>E</bass-step></bass></harmony><note default-x="466"><pitch><step>A</step><octave>4</octave></pitch><duration>4</duration><tie type="stop" /><voice>1</voice><type>eighth</type><stem default-y="6.5">up</stem><beam number="1">begin</beam><notations><tied type="stop" /></notations><lyric name="verse" number="1"><extend type="stop" /></lyric></note><note default-x="554"><pitch><step>G</step><alter>1</alter><octave>4</octave></pitch><duration>2</duration><voice>1</voice><type>16th</type><stem default-y="3">up</stem><beam number="1">continue</beam><beam number="2">begin</beam><lyric default-y="-91" name="verse" number="1"><syllabic>single</syllabic><text font-size="10.8">in</text></lyric></note><note default-x="606"><pitch><step>E</step><octave>4</octave></pitch><duration>2</duration><tie type="start" /><voice>1</voice><type>16th</type><stem default-y="1.5">up</stem><beam number="1">end</beam><beam number="2">end</beam><notations><tied type="start" /></notations><lyric default-y="-91" name="verse" number="1"><syllabic>begin</syllabic><text font-size="10.8">E</text></lyric></note><note default-x="656"><pitch><step>E</step><octave>4</octave></pitch><duration>4</duration><tie type="stop" /><voice>1</voice><type>eighth</type><stem default-y="-9">up</stem><beam number="1">begin</beam><notations><tied type="stop" /></notations></note><note default-x="734"><pitch><step>C</step><alter>1</alter><octave>4</octave></pitch><duration>2</duration><voice>1</voice><type>16th</type><stem default-y="-5.5">up</stem><beam number="1">continue</beam><beam number="2">begin</beam><lyric default-y="-91" name="verse" number="1"><syllabic>middle</syllabic><text font-size="10.8">wig</text></lyric></note><note default-x="793"><pitch><step>F</step><alter>1</alter><octave>4</octave></pitch><duration>2</duration><tie type="start" /><voice>1</voice><type>16th</type><stem default-y="-3">up</stem><beam number="1">end</beam><beam number="2">end</beam><notations><tied type="start" /><slur number="1" placement="below" type="start" /></notations><lyric default-y="-91" name="verse" number="1"><syllabic>end</syllabic><text font-size="10.8">keit,</text><extend type="start" /></lyric></note></measure><!--=======================================================--><measure number="6" width="320"><harmony default-y="36" font-size="10" font-weight="bold"><root><root-step>D</root-step></root><kind halign="center" text="">major</kind></harmony><note default-x="12"><pitch><step>F</step><alter>1</alter><octave>4</octave></pitch><duration>8</duration><tie type="stop" /><tie type="start" /><voice>1</voice><type>quarter</type><stem default-y="-3">up</stem><notations><tied type="stop" /><tied type="start" /></notations></note><note default-x="82"><pitch><step>F</step><alter>1</alter><octave>4</octave></pitch><duration>6</duration><tie type="stop" /><voice>1</voice><type>eighth</type><dot /><stem default-y="-3">up</stem><beam number="1">begin</beam><notations><tied type="stop" /></notations></note><note default-x="139"><pitch><step>E</step><octave>4</octave></pitch><duration>2</duration><tie type="start" /><voice>1</voice><type>16th</type><stem default-y="-9">up</stem><beam number="1">end</beam><beam number="2">backward hook</beam><notations><tied type="start" /></notations></note><harmony default-y="36" font-size="10" font-weight="bold"><root><root-step>A</root-step></root><kind halign="center" text="">major</kind><bass><bass-step>C</bass-step><bass-alter>1</bass-alter></bass></harmony><note default-x="174"><pitch><step>E</step><octave>4</octave></pitch><duration>8</duration><tie type="stop" /><voice>1</voice><type>quarter</type><stem default-y="-8">up</stem><notations><tied type="stop" /><slur number="1" type="stop" /></notations><lyric name="verse" number="1"><extend type="stop" /></lyric></note><note default-x="249"><rest /><duration>8</duration><voice>1</voice><type>quarter</type></note></measure><!--=======================================================--><measure number="7" width="789"><print new-system="yes"><system-layout><system-distance>180</system-distance></system-layout></print><harmony default-y="36" font-size="10" font-weight="bold"><root><root-step>B</root-step></root><kind halign="center" text="m7">minor-seventh</kind></harmony><note default-x="113"><pitch><step>D</step><octave>4</octave></pitch><duration>4</duration><voice>1</voice><type>eighth</type><stem default-y="-14">up</stem><beam number="1">begin</beam><lyric default-y="-91" name="verse" number="1"><syllabic>single</syllabic><text font-size="10.8">denn</text></lyric></note><note default-x="187"><pitch><step>C</step><alter>1</alter><octave>4</octave></pitch><duration>2</duration><voice>1</voice><type>16th</type><stem default-y="-14">up</stem><beam number="1">continue</beam><beam number="2">begin</beam><lyric default-y="-91" name="verse" number="1"><syllabic>single</syllabic><text font-size="10.8">du</text></lyric></note><note default-x="246"><pitch><step>D</step><octave>4</octave></pitch><duration>2</duration><tie type="start" /><voice>1</voice><type>16th</type><stem default-y="-14">up</stem><beam number="1">end</beam><beam number="2">end</beam><notations><tied type="start" /></notations><lyric default-y="-91" name="verse" number="1"><syllabic>single</syllabic><text font-size="10.8">warst</text><extend type="start" /></lyric></note><note default-x="288"><pitch><step>D</step><octave>4</octave></pitch><duration>4</duration><tie type="stop" /><voice>1</voice><type>eighth</type><stem default-y="-9">up</stem><beam number="1">begin</beam><notations><tied type="stop" /></notations><lyric name="verse" number="1"><extend type="stop" /></lyric></note><note default-x="350"><pitch><step>E</step><octave>4</octave></pitch><duration>2</duration><voice>1</voice><type>16th</type><stem default-y="-6">up</stem><beam number="1">continue</beam><beam number="2">begin</beam><lyric default-y="-91" name="verse" number="1"><syllabic>single</syllabic><text font-size="10.8">der</text></lyric></note><note default-x="408"><pitch><step>F</step><alter>1</alter><octave>4</octave></pitch><duration>2</duration><tie type="start" /><voice>1</voice><type>16th</type><stem default-y="-3.5">up</stem><beam number="1">end</beam><beam number="2">end</beam><notations><tied type="start" /></notations><lyric default-y="-91" name="verse" number="1"><syllabic>single</syllabic><text font-size="10.8">Herr</text><extend type="start" /></lyric></note><harmony default-y="36" font-size="10" font-weight="bold"><root><root-step>D</root-step></root><kind halign="center" text="">major</kind><bass><bass-step>A</bass-step></bass></harmony><note default-x="454"><pitch><step>F</step><alter>1</alter><octave>4</octave></pitch><duration>4</duration><tie type="stop" /><voice>1</voice><type>eighth</type><stem default-y="-3.5">up</stem><beam number="1">begin</beam><notations><tied type="stop" /></notations><lyric name="verse" number="1"><extend type="stop" /></lyric></note><note default-x="526"><pitch><step>E</step><octave>4</octave></pitch><duration>2</duration><voice>1</voice><type>16th</type><stem default-y="-7">up</stem><beam number="1">continue</beam><beam number="2">begin</beam><lyric default-y="-91" name="verse" number="1"><syllabic>single</syllabic><text font-size="10.8">vor</text></lyric></note><note default-x="577"><pitch><step>D</step><octave>4</octave></pitch><duration>2</duration><tie type="start" /><voice>1</voice><type>16th</type><stem default-y="-9">up</stem><beam number="1">end</beam><beam number="2">end</beam><notations><tied type="start" /></notations><lyric default-y="-91" name="verse" number="1"><syllabic>begin</syllabic><text font-size="10.8">al</text></lyric></note><note default-x="619"><pitch><step>D</step><octave>4</octave></pitch><duration>4</duration><tie type="stop" /><voice>1</voice><type>eighth</type><stem default-y="-14">up</stem><beam number="1">begin</beam><notations><tied type="stop" /></notations></note><note default-x="679"><pitch><step>C</step><alter>1</alter><octave>4</octave></pitch><duration>2</duration><voice>1</voice><type>16th</type><stem default-y="-16">up</stem><beam number="1">continue</beam><beam number="2">begin</beam><lyric default-y="-91" name="verse" number="1"><syllabic>end</syllabic><text font-size="10.8">ler</text></lyric></note><note default-x="735"><pitch><step>B</step><octave>3</octave></pitch><duration>2</duration><tie type="start" /><voice>1</voice><type>16th</type><stem default-y="-18.5">up</stem><beam number="1">end</beam><beam number="2">end</beam><notations><tied type="start" /></notations><lyric default-y="-91" name="verse" number="1"><syllabic>single</syllabic><text font-size="10.8">Zeit.</text><extend type="start" /></lyric></note></measure><!--=======================================================--><measure number="8" width="382"><harmony default-y="36" font-size="10" font-weight="bold"><root><root-step>E</root-step></root><kind halign="center" text="">major</kind><bass><bass-step>G</bass-step><bass-alter>1</bass-alter></bass></harmony><note default-x="10"><pitch><step>B</step><octave>3</octave></pitch><duration>16</duration><tie type="stop" /><voice>1</voice><type>half</type><stem default-y="-19">up</stem><notations><tied type="stop" /></notations><lyric name="verse" number="1"><extend type="stop" /></lyric></note><harmony default-y="36" font-size="10" font-weight="bold"><root><root-step>A</root-step></root><kind halign="center" text="">major</kind></harmony><note default-x="117"><rest /><duration>6</duration><voice>1</voice><type>eighth</type><dot /><lyric default-y="-91" name="verse" number="1"><syllabic>single</syllabic><text font-size="10.8">2.</text></lyric></note><note default-x="184"><pitch><step>C</step><alter>1</alter><octave>4</octave></pitch><duration>2</duration><voice>1</voice><type>16th</type><stem default-y="-18">up</stem><lyric default-y="-91" name="verse" number="1"><syllabic>single</syllabic><text font-size="10.8">Herr,</text></lyric></note><harmony default-y="36" font-size="10" font-weight="bold"><root><root-step>A</root-step></root><kind halign="center" text="">major</kind><bass><bass-step>C</bass-step><bass-alter>1</bass-alter></bass></harmony><note default-x="241"><pitch><step>E</step><octave>4</octave></pitch><duration>2</duration><voice>1</voice><type>16th</type><stem default-y="6">up</stem><beam number="1">begin</beam><beam number="2">forward hook</beam><lyric default-y="-91" name="verse" number="1"><syllabic>single</syllabic><text font-size="10.8">du</text></lyric></note><note default-x="304"><pitch><step>A</step><octave>4</octave></pitch><duration>4</duration><voice>1</voice><type>eighth</type><stem default-y="6">up</stem><beam number="1">continue</beam><notations><slur number="1" placement="below" type="start" /></notations><lyric default-y="-91" name="verse" number="1"><syllabic>single</syllabic><text font-size="10.8">bist</text><extend type="start" /></lyric></note><note default-x="345"><pitch><step>G</step><alter>1</alter><octave>4</octave></pitch><duration>2</duration><voice>1</voice><type>16th</type><stem default-y="6">up</stem><beam number="1">end</beam><beam number="2">backward hook</beam><notations><slur number="1" type="stop" /></notations><lyric name="verse" number="1"><extend type="stop" /></lyric></note><barline location="right"><bar-style>light-light</bar-style></barline></measure><!--=======================================================--><measure number="9" width="631"><print new-system="yes"><system-layout><system-distance>180</system-distance></system-layout></print><harmony default-y="36" font-size="10" font-weight="bold"><root><root-step>E</root-step></root><kind halign="center" text="">major</kind><bass><bass-step>D</bass-step></bass></harmony><direction placement="above"><direction-type><rehearsal default-y="69" font-weight="bold" relative-x="-5">VERS 2</rehearsal></direction-type></direction><note default-x="100"><pitch><step>G</step><alter>1</alter><octave>4</octave></pitch><duration>6</duration><voice>1</voice><type>eighth</type><dot /><stem default-y="1.5">up</stem><beam number="1">begin</beam><notations><slur number="1" placement="below" type="start" /></notations><lyric default-y="-91" name="verse" number="1"><syllabic>begin</syllabic><text font-size="10.8">Kö</text></lyric></note><note default-x="184"><pitch><step>F</step><alter>1</alter><octave>4</octave></pitch><duration>2</duration><voice>1</voice><type>16th</type><stem default-y="-3.5">up</stem><beam number="1">end</beam><beam number="2">backward hook</beam><notations><slur number="1" type="stop" /></notations></note><harmony default-y="36" font-size="10" font-weight="bold"><root><root-step>D</root-step></root><kind halign="center" text="">major</kind></harmony><note default-x="229"><pitch><step>F</step><alter>1</alter><octave>4</octave></pitch><duration>8</duration><voice>1</voice><type>quarter</type><stem default-y="-3">up</stem><lyric default-y="-91" name="verse" number="1"><syllabic>end</syllabic><text font-size="10.8">nig</text></lyric></note><harmony default-y="36" font-size="10" font-weight="bold"><root><root-step>E</root-step></root><kind halign="center" text="sus">suspended-fourth</kind></harmony><note default-x="328"><rest /><duration>6</duration><voice>1</voice><type>eighth</type><dot /></note><note default-x="416"><pitch><step>D</step><octave>4</octave></pitch><duration>2</duration><voice>1</voice><type>16th</type><stem default-y="-13">up</stem><lyric default-y="-91" name="verse" number="1"><syllabic>single</syllabic><text font-size="10.8">auf</text></lyric></note><harmony default-y="36" font-size="10" font-weight="bold"><root><root-step>E</root-step></root><kind halign="center" text="">major</kind></harmony><note default-x="469"><pitch><step>D</step><octave>4</octave></pitch><duration>2</duration><voice>1</voice><type>16th</type><stem default-y="-3.5">up</stem><beam number="1">begin</beam><beam number="2">forward hook</beam><lyric default-y="-91" name="verse" number="1"><syllabic>begin</syllabic><text font-size="10.8">dei</text></lyric></note><note default-x="524"><pitch><step>F</step><alter>1</alter><octave>4</octave></pitch><duration>4</duration><voice>1</voice><type>eighth</type><stem default-y="-3.5">up</stem><beam number="1">continue</beam><notations><slur number="1" placement="below" type="start" /></notations><lyric default-y="-91" name="verse" number="1"><syllabic>end</syllabic><text font-size="10.8">nem</text><extend type="start" /></lyric></note><note default-x="586"><pitch><step>E</step><octave>4</octave></pitch><duration>2</duration><tie type="start" /><voice>1</voice><type>16th</type><stem default-y="-3.5">up</stem><beam number="1">end</beam><beam number="2">backward hook</beam><notations><tied type="start" /></notations></note></measure><!--=======================================================--><measure number="10" width="539"><harmony default-y="36" font-size="10" font-weight="bold"><root><root-step>A</root-step></root><kind halign="center" text="">major</kind></harmony><note default-x="14"><pitch><step>E</step><octave>4</octave></pitch><duration>4</duration><tie type="stop" /><voice>1</voice><type>eighth</type><stem default-y="-8">up</stem><notations><tied type="stop" /><slur number="1" type="stop" /></notations><lyric name="verse" number="1"><extend type="stop" /></lyric></note><note default-x="89"><pitch><step>E</step><octave>4</octave></pitch><duration>12</duration><voice>1</voice><type>quarter</type><dot /><stem default-y="-8">up</stem><lyric default-y="-91" name="verse" number="1"><syllabic>single</syllabic><text font-size="10.8">Thron!</text></lyric></note><note default-x="222"><rest /><duration>6</duration><voice>1</voice><type>eighth</type><dot /></note><note default-x="312"><pitch><step>C</step><alter>1</alter><octave>4</octave></pitch><duration>2</duration><voice>1</voice><type>16th</type><stem default-y="-18">up</stem><lyric default-y="-91" name="verse" number="1"><syllabic>single</syllabic><text font-size="10.8">Herr,</text></lyric></note><harmony default-y="36" font-size="10" font-weight="bold"><root><root-step>A</root-step></root><kind halign="center" text="">major</kind><bass><bass-step>C</bass-step><bass-alter>1</bass-alter></bass></harmony><note default-x="371"><pitch><step>E</step><octave>4</octave></pitch><duration>2</duration><voice>1</voice><type>16th</type><stem default-y="6">up</stem><beam number="1">begin</beam><beam number="2">forward hook</beam><lyric default-y="-91" name="verse" number="1"><syllabic>single</syllabic><text font-size="10.8">du</text></lyric></note><note default-x="433"><pitch><step>A</step><octave>4</octave></pitch><duration>4</duration><voice>1</voice><type>eighth</type><stem default-y="6">up</stem><beam number="1">continue</beam><notations><slur number="1" placement="below" type="start" /></notations><lyric default-y="-91" name="verse" number="1"><syllabic>single</syllabic><text font-size="10.8">bist</text><extend type="start" /></lyric></note><note default-x="496"><pitch><step>G</step><alter>1</alter><octave>4</octave></pitch><duration>2</duration><voice>1</voice><type>16th</type><stem default-y="6">up</stem><beam number="1">end</beam><beam number="2">backward hook</beam><notations><slur number="1" type="stop" /></notations><lyric name="verse" number="1"><extend type="stop" /></lyric></note></measure><!--=======================================================--><measure number="11" width="821"><print new-system="yes"><system-layout><system-distance>180</system-distance></system-layout></print><harmony default-y="36" font-size="10" font-weight="bold"><root><root-step>E</root-step></root><kind halign="center" text="">major</kind><bass><bass-step>D</bass-step></bass></harmony><note default-x="112"><pitch><step>G</step><alter>1</alter><octave>4</octave></pitch><duration>6</duration><voice>1</voice><type>eighth</type><dot /><stem default-y="1">up</stem><beam number="1">begin</beam><notations><slur number="1" placement="below" type="start" /></notations><lyric default-y="-91" name="verse" number="1"><syllabic>begin</syllabic><text font-size="10.8">Schöp</text></lyric></note><note default-x="190"><pitch><step>F</step><alter>1</alter><octave>4</octave></pitch><duration>2</duration><voice>1</voice><type>16th</type><stem default-y="-3.5">up</stem><beam number="1">end</beam><beam number="2">backward hook</beam><notations><slur number="1" type="stop" /></notations></note><harmony default-y="36" font-size="10" font-weight="bold"><root><root-step>D</root-step></root><kind halign="center" text="">major</kind></harmony><note default-x="234"><pitch><step>F</step><alter>1</alter><octave>4</octave></pitch><duration>4</duration><voice>1</voice><type>eighth</type><stem default-y="1">up</stem><beam number="1">begin</beam><lyric default-y="-91" name="verse" number="1"><syllabic>end</syllabic><text font-size="10.8">fer</text></lyric></note><note default-x="309"><pitch><step>G</step><alter>1</alter><octave>4</octave></pitch><duration>2</duration><voice>1</voice><type>16th</type><stem default-y="3.5">up</stem><beam number="1">continue</beam><beam number="2">begin</beam><lyric default-y="-91" name="verse" number="1"><syllabic>single</syllabic><text font-size="10.8">und</text></lyric></note><note default-x="392"><pitch><step>A</step><octave>4</octave></pitch><duration>2</duration><tie type="start" /><voice>1</voice><type>16th</type><stem default-y="6">up</stem><beam number="1">end</beam><beam number="2">end</beam><notations><tied type="start" /></notations><lyric default-y="-91" name="verse" number="1"><syllabic>single</syllabic><text font-size="10.8">schenkst</text><extend type="start" /></lyric></note><harmony default-y="36" font-size="10" font-weight="bold"><root><root-step>E</root-step></root><kind halign="center" text="sus">suspended-fourth</kind></harmony><note default-x="449"><pitch><step>A</step><octave>4</octave></pitch><duration>4</duration><tie type="stop" /><voice>1</voice><type>eighth</type><stem default-y="6">up</stem><beam number="1">begin</beam><notations><tied type="stop" /></notations><lyric name="verse" number="1"><extend type="stop" /></lyric></note><note default-x="523"><pitch><step>G</step><alter>1</alter><octave>4</octave></pitch><duration>2</duration><voice>1</voice><type>16th</type><stem default-y="3.5">up</stem><beam number="1">continue</beam><beam number="2">begin</beam><lyric default-y="-91" name="verse" number="1"><syllabic>single</syllabic><text font-size="10.8">uns</text></lyric></note><note default-x="583"><pitch><step>F</step><alter>1</alter><octave>4</octave></pitch><duration>2</duration><voice>1</voice><type>16th</type><stem default-y="1">up</stem><beam number="1">end</beam><beam number="2">end</beam><notations><slur number="1" placement="below" type="start" /></notations><lyric default-y="-91" name="verse" number="1"><syllabic>begin</syllabic><text font-size="10.8">dei</text></lyric></note><harmony default-y="36" font-size="10" font-weight="bold"><root><root-step>E</root-step></root><kind halign="center" text="">major</kind></harmony><note default-x="623"><pitch><step>E</step><octave>4</octave></pitch><duration>2</duration><voice>1</voice><type>16th</type><stem default-y="-3.5">up</stem><beam number="1">begin</beam><beam number="2">forward hook</beam><notations><slur number="1" type="stop" /></notations></note><note default-x="672"><pitch><step>F</step><alter>1</alter><octave>4</octave></pitch><duration>4</duration><voice>1</voice><type>eighth</type><stem default-y="-3.5">up</stem><beam number="1">continue</beam><lyric default-y="-91" name="verse" number="1"><syllabic>end</syllabic><text font-size="10.8">nen</text></lyric></note><note default-x="757"><pitch><step>E</step><octave>4</octave></pitch><duration>2</duration><tie type="start" /><voice>1</voice><type>16th</type><stem default-y="-3.5">up</stem><beam number="1">end</beam><beam number="2">backward hook</beam><notations><tied type="start" /></notations><lyric default-y="-91" name="verse" number="1"><syllabic>single</syllabic><text font-size="10.8">Sohn.</text><extend type="start" /></lyric></note></measure><!--=======================================================--><measure number="12" width="350"><harmony default-y="36" font-size="10" font-weight="bold"><root><root-step>A</root-step></root><kind halign="center" text="">major</kind></harmony><note default-x="10"><pitch><step>E</step><octave>4</octave></pitch><duration>16</duration><tie type="stop" /><voice>1</voice><type>half</type><stem default-y="-8">up</stem><notations><tied type="stop" /></notations><lyric name="verse" number="1"><extend type="stop" /></lyric></note><note default-x="119"><rest /><duration>6</duration><voice>1</voice><type>eighth</type><dot /></note><note default-x="173"><pitch><step>C</step><alter>1</alter><octave>4</octave></pitch><duration>2</duration><voice>1</voice><type>16th</type><stem default-y="-17.5">up</stem><lyric default-y="-91" name="verse" number="1"><syllabic>single</syllabic><text font-size="10.8">Herr,</text></lyric></note><harmony default-y="36" font-size="10" font-weight="bold"><root><root-step>A</root-step></root><kind halign="center" text="">major</kind><bass><bass-step>G</bass-step><bass-alter>1</bass-alter></bass></harmony><note default-x="231"><pitch><step>C</step><alter>1</alter><octave>4</octave></pitch><duration>2</duration><voice>1</voice><type>16th</type><stem default-y="-14">up</stem><beam number="1">begin</beam><beam number="2">forward hook</beam><lyric default-y="-91" name="verse" number="1"><syllabic>begin</syllabic><text font-size="10.8">dei</text></lyric></note><note default-x="289"><pitch><step>E</step><octave>4</octave></pitch><duration>6</duration><voice>1</voice><type>eighth</type><dot /><stem default-y="-8.5">up</stem><beam number="1">end</beam><lyric default-y="-91" name="verse" number="1"><syllabic>end</syllabic><text font-size="10.8">ne</text></lyric></note></measure><!--=======================================================--><measure number="13" width="860"><print new-page="yes" page-number="2" /><harmony default-y="36" font-size="10" font-weight="bold"><root><root-step>F</root-step><root-alter>1</root-alter></root><kind halign="center" text="m">minor</kind></harmony><note default-x="112"><pitch><step>F</step><alter>1</alter><octave>4</octave></pitch><duration>8</duration><voice>1</voice><type>quarter</type><stem default-y="-3">up</stem><lyric default-y="-91" name="verse" number="1"><syllabic>begin</syllabic><text font-size="10.8">Schön</text></lyric></note><note default-x="248"><pitch><step>F</step><alter>1</alter><octave>4</octave></pitch><duration>4</duration><voice>1</voice><type>eighth</type><stem default-y="1">up</stem><beam number="1">begin</beam><lyric default-y="-91" name="verse" number="1"><syllabic>end</syllabic><text font-size="10.8">heit</text></lyric></note><note default-x="333"><pitch><step>G</step><alter>1</alter><octave>4</octave></pitch><duration>2</duration><voice>1</voice><type>16th</type><stem default-y="4.5">up</stem><beam number="1">continue</beam><beam number="2">begin</beam><lyric default-y="-91" name="verse" number="1"><syllabic>single</syllabic><text font-size="10.8">ist</text></lyric></note><note default-x="390"><pitch><step>A</step><octave>4</octave></pitch><duration>2</duration><tie type="start" /><voice>1</voice><type>16th</type><stem default-y="6.5">up</stem><beam number="1">end</beam><beam number="2">end</beam><notations><tied type="start" /></notations><lyric default-y="-91" name="verse" number="1"><syllabic>begin</syllabic><text font-size="10.8">un</text></lyric></note><harmony default-y="36" font-size="10" font-weight="bold"><root><root-step>A</root-step></root><kind halign="center" text="maj7">major-seventh</kind><bass><bass-step>E</bass-step></bass></harmony><note default-x="451"><pitch><step>A</step><octave>4</octave></pitch><duration>4</duration><tie type="stop" /><voice>1</voice><type>eighth</type><stem default-y="6.5">up</stem><beam number="1">begin</beam><notations><tied type="stop" /></notations></note><note default-x="543"><pitch><step>G</step><alter>1</alter><octave>4</octave></pitch><duration>2</duration><voice>1</voice><type>16th</type><stem default-y="3">up</stem><beam number="1">continue</beam><beam number="2">begin</beam><lyric default-y="-91" name="verse" number="1"><syllabic>middle</syllabic><text font-size="10.8">er</text></lyric></note><note default-x="603"><pitch><step>E</step><octave>4</octave></pitch><duration>2</duration><tie type="start" /><voice>1</voice><type>16th</type><stem default-y="1">up</stem><beam number="1">end</beam><beam number="2">end</beam><notations><tied type="start" /></notations><lyric default-y="-91" name="verse" number="1"><syllabic>middle</syllabic><text font-size="10.8">mess</text></lyric></note><note default-x="655"><pitch><step>E</step><octave>4</octave></pitch><duration>4</duration><tie type="stop" /><voice>1</voice><type>eighth</type><stem default-y="-8.5">up</stem><beam number="1">begin</beam><notations><tied type="stop" /></notations></note><note default-x="737"><pitch><step>C</step><alter>1</alter><octave>4</octave></pitch><duration>2</duration><voice>1</voice><type>16th</type><stem default-y="-6">up</stem><beam number="1">continue</beam><beam number="2">begin</beam><lyric default-y="-91" name="verse" number="1"><syllabic>end</syllabic><text font-size="10.8">lich</text></lyric></note><note default-x="799"><pitch><step>F</step><alter>1</alter><octave>4</octave></pitch><duration>2</duration><tie type="start" /><voice>1</voice><type>16th</type><stem default-y="-4">up</stem><beam number="1">end</beam><beam number="2">end</beam><notations><tied type="start" /><slur number="1" placement="below" type="start" /></notations><lyric default-y="-91" name="verse" number="1"><syllabic>single</syllabic><text font-size="10.8">groß.</text><extend type="start" /></lyric></note></measure><!--=======================================================--><measure number="14" width="311"><harmony default-y="36" font-size="10" font-weight="bold"><root><root-step>D</root-step></root><kind halign="center" text="">major</kind></harmony><note default-x="12"><pitch><step>F</step><alter>1</alter><octave>4</octave></pitch><duration>8</duration><tie type="stop" /><tie type="start" /><voice>1</voice><type>quarter</type><stem default-y="-3">up</stem><notations><tied type="stop" /><tied type="start" /></notations></note><note default-x="79"><pitch><step>F</step><alter>1</alter><octave>4</octave></pitch><duration>6</duration><tie type="stop" /><voice>1</voice><type>eighth</type><dot /><stem default-y="-4">up</stem><beam number="1">begin</beam><notations><tied type="stop" /></notations></note><note default-x="134"><pitch><step>E</step><octave>4</octave></pitch><duration>2</duration><tie type="start" /><voice>1</voice><type>16th</type><stem default-y="-8.5">up</stem><beam number="1">end</beam><beam number="2">backward hook</beam><notations><tied type="start" /></notations></note><harmony default-y="36" font-size="10" font-weight="bold"><root><root-step>A</root-step></root><kind halign="center" text="">major</kind><bass><bass-step>C</bass-step><bass-alter>1</bass-alter></bass></harmony><note default-x="170"><pitch><step>E</step><octave>4</octave></pitch><duration>8</duration><tie type="stop" /><voice>1</voice><type>quarter</type><stem default-y="-8">up</stem><notations><tied type="stop" /><slur number="1" type="stop" /></notations><lyric name="verse" number="1"><extend type="stop" /></lyric></note><note default-x="243"><rest /><duration>8</duration><voice>1</voice><type>quarter</type></note></measure><!--=======================================================--><measure number="15" width="658"><print new-system="yes"><system-layout><system-distance>180</system-distance></system-layout></print><harmony default-y="36" font-size="10" font-weight="bold"><root><root-step>B</root-step></root><kind halign="center" text="m7">minor-seventh</kind></harmony><note default-x="113"><pitch><step>D</step><octave>4</octave></pitch><duration>4</duration><voice>1</voice><type>eighth</type><stem default-y="-13.5">up</stem><beam number="1">begin</beam><lyric default-y="-91" name="verse" number="1"><syllabic>begin</syllabic><text font-size="10.8">Dei</text></lyric></note><note default-x="160"><pitch><step>C</step><alter>1</alter><octave>4</octave></pitch><duration>2</duration><voice>1</voice><type>16th</type><stem default-y="-13.5">up</stem><beam number="1">continue</beam><beam number="2">begin</beam><lyric default-y="-91" name="verse" number="1"><syllabic>end</syllabic><text font-size="10.8">ne</text></lyric></note><note default-x="206"><pitch><step>D</step><octave>4</octave></pitch><duration>2</duration><tie type="start" /><voice>1</voice><type>16th</type><stem default-y="-13.5">up</stem><beam number="1">end</beam><beam number="2">end</beam><notations><tied type="start" /></notations><lyric default-y="-91" name="verse" number="1"><syllabic>begin</syllabic><text font-size="10.8">Lie</text></lyric></note><note default-x="236"><pitch><step>D</step><octave>4</octave></pitch><duration>4</duration><tie type="stop" /><voice>1</voice><type>eighth</type><stem default-y="-9">up</stem><beam number="1">begin</beam><notations><tied type="stop" /></notations></note><note default-x="264"><pitch><step>E</step><octave>4</octave></pitch><duration>2</duration><voice>1</voice><type>16th</type><stem default-y="-7">up</stem><beam number="1">continue</beam><beam number="2">begin</beam><lyric default-y="-91" name="verse" number="1"><syllabic>end</syllabic><text font-size="10.8">be</text></lyric></note><note default-x="319"><pitch><step>F</step><alter>1</alter><octave>4</octave></pitch><duration>2</duration><tie type="start" /><voice>1</voice><type>16th</type><stem default-y="-4">up</stem><beam number="1">end</beam><beam number="2">end</beam><notations><tied type="start" /></notations><lyric default-y="-91" name="verse" number="1"><syllabic>single</syllabic><text font-size="10.8">lässt</text><extend type="start" /></lyric></note><harmony default-y="36" font-size="10" font-weight="bold"><root><root-step>D</root-step></root><kind halign="center" text="">major</kind><bass><bass-step>A</bass-step></bass></harmony><note default-x="353"><pitch><step>F</step><alter>1</alter><octave>4</octave></pitch><duration>4</duration><tie type="stop" /><voice>1</voice><type>eighth</type><stem default-y="-4">up</stem><beam number="1">begin</beam><notations><tied type="stop" /></notations><lyric name="verse" number="1"><extend type="stop" /></lyric></note><note default-x="413"><pitch><step>E</step><octave>4</octave></pitch><duration>2</duration><voice>1</voice><type>16th</type><stem default-y="-6">up</stem><beam number="1">continue</beam><beam number="2">begin</beam><lyric default-y="-91" name="verse" number="1"><syllabic>single</syllabic><text font-size="10.8">mich</text></lyric></note><note default-x="479"><pitch><step>D</step><octave>4</octave></pitch><duration>2</duration><tie type="start" /><voice>1</voice><type>16th</type><stem default-y="-9">up</stem><beam number="1">end</beam><beam number="2">end</beam><notations><tied type="start" /></notations><lyric default-y="-91" name="verse" number="1"><syllabic>single</syllabic><text font-size="10.8">nicht</text><extend type="start" /></lyric></note><note default-x="509"><pitch><step>D</step><octave>4</octave></pitch><duration>4</duration><tie type="stop" /><voice>1</voice><type>eighth</type><stem default-y="-13.5">up</stem><beam number="1">begin</beam><notations><tied type="stop" /></notations><lyric name="verse" number="1"><extend type="stop" /></lyric></note><note default-x="551"><pitch><step>C</step><alter>1</alter><octave>4</octave></pitch><duration>2</duration><voice>1</voice><type>16th</type><stem default-y="-16">up</stem><beam number="1">continue</beam><beam number="2">begin</beam><lyric default-y="-91" name="verse" number="1"><syllabic>single</syllabic><text font-size="10.8">mehr</text></lyric></note><note default-x="615"><pitch><step>C</step><alter>1</alter><octave>4</octave></pitch><duration>2</duration><tie type="start" /><voice>1</voice><type>16th</type><stem default-y="-18.5">up</stem><beam number="1">end</beam><beam number="2">end</beam><notations><tied type="start" /></notations><lyric default-y="-91" name="verse" number="1"><syllabic>single</syllabic><text font-size="10.8">los.</text><extend type="start" /></lyric></note></measure><!--=======================================================--><measure number="16" width="185"><harmony default-y="36" font-size="10" font-weight="bold"><root><root-step>C</root-step><root-alter>1</root-alter></root><kind halign="center" text="sus">suspended-fourth</kind><bass><bass-step>G</bass-step><bass-alter>1</bass-alter></bass></harmony><note default-x="28"><pitch><step>C</step><alter>1</alter><octave>4</octave></pitch><duration>16</duration><tie type="stop" /><voice>1</voice><type>half</type><stem default-y="-18">up</stem><notations><tied type="stop" /></notations><lyric name="verse" number="1"><extend type="stop" /></lyric></note><harmony default-y="36" font-size="10" font-weight="bold"><root><root-step>C</root-step><root-alter>1</root-alter></root><kind halign="center" text="">major</kind></harmony><note default-x="108"><rest /><duration>16</duration><voice>1</voice><type>half</type></note><barline location="right"><bar-style>light-light</bar-style></barline></measure><!--=======================================================--><measure number="17" width="327"><harmony default-y="36" font-size="10" font-weight="bold"><root><root-step>A</root-step></root><kind halign="center" text="">major</kind></harmony><direction placement="above"><direction-type><rehearsal default-y="69" font-weight="bold" relative-x="-5">CHORUS</rehearsal></direction-type></direction><note default-x="13"><pitch><step>C</step><alter>1</alter><octave>5</octave></pitch><duration>8</duration><tie type="start" /><voice>1</voice><type>quarter</type><stem default-y="-46.5">down</stem><notations><tied type="start" /><slur number="1" placement="above" type="start" /></notations><lyric default-y="-91" name="verse" number="1"><syllabic>begin</syllabic><text font-size="10.8">Gro</text></lyric></note><note default-x="54"><pitch><step>C</step><alter>1</alter><octave>5</octave></pitch><duration>2</duration><tie type="stop" /><voice>1</voice><type>16th</type><stem default-y="-51">down</stem><beam number="1">begin</beam><beam number="2">begin</beam><notations><tied type="stop" /></notations></note><note default-x="78"><pitch><step>B</step><octave>4</octave></pitch><duration>2</duration><voice>1</voice><type>16th</type><stem default-y="-51">down</stem><beam number="1">continue</beam><beam number="2">continue</beam><notations><slur number="1" type="stop" /></notations></note><note default-x="111"><pitch><step>B</step><octave>4</octave></pitch><duration>2</duration><voice>1</voice><type>16th</type><stem default-y="-51">down</stem><beam number="1">continue</beam><beam number="2">continue</beam><lyric default-y="-91" name="verse" number="1"><syllabic>end</syllabic><text font-size="10.8">ßer</text></lyric></note><note default-x="173"><pitch><step>D</step><octave>5</octave></pitch><duration>2</duration><tie type="start" /><voice>1</voice><type>16th</type><stem default-y="-51">down</stem><beam number="1">end</beam><beam number="2">end</beam><notations><tied type="start" /></notations><lyric default-y="-91" name="verse" number="1"><syllabic>single</syllabic><text font-size="10.8">Gott,</text><extend type="start" /></lyric></note><harmony default-y="36" font-size="10" font-weight="bold"><root><root-step>B</root-step></root><kind halign="center" text="m7">minor-seventh</kind></harmony><note default-x="219"><pitch><step>D</step><octave>5</octave></pitch><duration>8</duration><tie type="stop" /><voice>1</voice><type>quarter</type><stem default-y="-42">down</stem><notations><tied type="stop" /></notations><lyric name="verse" number="1"><extend type="stop" /></lyric></note><note default-x="261"><rest /><duration>4</duration><voice>1</voice><type>eighth</type></note><note default-x="287"><pitch><step>B</step><octave>4</octave></pitch><duration>4</duration><voice>1</voice><type>eighth</type><stem default-y="-51.5">down</stem><lyric default-y="-91" name="verse" number="1"><syllabic>single</syllabic><text font-size="10.8">du</text></lyric></note></measure><!--=======================================================--><measure number="18" width="708"><print new-system="yes"><system-layout><system-distance>180</system-distance></system-layout></print><harmony default-y="36" font-size="10" font-weight="bold"><root><root-step>E</root-step></root><kind halign="center" text="">major</kind><bass><bass-step>G</bass-step><bass-alter>1</bass-alter></bass></harmony><note default-x="100"><pitch><step>B</step><octave>4</octave></pitch><duration>4</duration><voice>1</voice><type>eighth</type><stem default-y="-51">down</stem><beam number="1">begin</beam><lyric default-y="-91" name="verse" number="1"><syllabic>single</syllabic><text font-size="10.8">hast</text></lyric></note><note default-x="183"><pitch><step>C</step><alter>1</alter><octave>5</octave></pitch><duration>2</duration><voice>1</voice><type>16th</type><stem default-y="-48.5">down</stem><beam number="1">continue</beam><beam number="2">begin</beam><lyric default-y="-91" name="verse" number="1"><syllabic>single</syllabic><text font-size="10.8">dich</text></lyric></note><note default-x="246"><pitch><step>D</step><octave>5</octave></pitch><duration>2</duration><tie type="start" /><voice>1</voice><type>16th</type><stem default-y="-46">down</stem><beam number="1">end</beam><beam number="2">end</beam><notations><tied type="start" /><slur number="1" placement="above" type="start" /></notations><lyric default-y="-91" name="verse" number="1"><syllabic>single</syllabic><text font-size="10.8">klein</text><extend type="start" /></lyric></note><note default-x="289"><pitch><step>D</step><octave>5</octave></pitch><duration>2</duration><tie type="stop" /><voice>1</voice><type>16th</type><stem default-y="-46">down</stem><beam number="1">begin</beam><beam number="2">begin</beam><notations><tied type="stop" /></notations></note><note default-x="330"><pitch><step>C</step><alter>1</alter><octave>5</octave></pitch><duration>2</duration><voice>1</voice><type>16th</type><stem default-y="-46">down</stem><beam number="1">continue</beam><beam number="2">continue</beam><notations><slur number="1" type="stop" /></notations><lyric name="verse" number="1"><extend type="stop" /></lyric></note><note default-x="373"><pitch><step>C</step><alter>1</alter><octave>5</octave></pitch><duration>2</duration><voice>1</voice><type>16th</type><stem default-y="-46">down</stem><beam number="1">continue</beam><beam number="2">continue</beam><lyric default-y="-91" name="verse" number="1"><syllabic>begin</syllabic><text font-size="10.8">ge</text></lyric></note><note default-x="438"><pitch><step>C</step><alter>1</alter><octave>5</octave></pitch><duration>2</duration><tie type="start" /><voice>1</voice><type>16th</type><stem default-y="-46">down</stem><beam number="1">end</beam><beam number="2">end</beam><notations><tied type="start" /></notations><lyric default-y="-91" name="verse" number="1"><syllabic>end</syllabic><text font-size="10.8">macht.</text><extend type="start" /></lyric></note><harmony default-y="36" font-size="10" font-weight="bold"><root><root-step>A</root-step></root><kind halign="center" text="">major</kind></harmony><note default-x="484"><pitch><step>C</step><alter>1</alter><octave>5</octave></pitch><duration>8</duration><tie type="stop" /><voice>1</voice><type>quarter</type><stem default-y="-47">down</stem><notations><tied type="stop" /></notations><lyric name="verse" number="1"><extend type="stop" /></lyric></note><note default-x="577"><rest /><duration>6</duration><voice>1</voice><type>eighth</type><dot /></note><note default-x="656"><pitch><step>B</step><octave>4</octave></pitch><duration>2</duration><voice>1</voice><type>16th</type><stem default-y="-52">down</stem><lyric default-y="-91" name="verse" number="1"><syllabic>single</syllabic><text font-size="10.8">Du</text></lyric></note></measure><!--=======================================================--><measure number="19" width="463"><note default-x="28"><pitch><step>C</step><alter>1</alter><octave>5</octave></pitch><duration>12</duration><voice>1</voice><type>quarter</type><dot /><stem default-y="-47">down</stem><lyric default-y="-91" name="verse" number="1"><syllabic>single</syllabic><text font-size="10.8">starbst</text></lyric></note><note default-x="147"><pitch><step>B</step><octave>4</octave></pitch><duration>2</duration><voice>1</voice><type>16th</type><stem default-y="-51">down</stem><beam number="1">begin</beam><beam number="2">begin</beam><lyric default-y="-91" name="verse" number="1"><syllabic>single</syllabic><text font-size="10.8">für</text></lyric></note><note default-x="204"><pitch><step>D</step><octave>5</octave></pitch><duration>2</duration><tie type="start" /><voice>1</voice><type>16th</type><stem default-y="-46">down</stem><beam number="1">end</beam><beam number="2">end</beam><notations><tied type="start" /></notations><lyric default-y="-91" name="verse" number="1"><syllabic>single</syllabic><text font-size="10.8">mich</text><extend type="start" /></lyric></note><harmony default-y="36" font-size="10" font-weight="bold"><root><root-step>B</root-step></root><kind halign="center" text="m7">minor-seventh</kind></harmony><note default-x="255"><pitch><step>D</step><octave>5</octave></pitch><duration>8</duration><tie type="stop" /><voice>1</voice><type>quarter</type><stem default-y="-42">down</stem><notations><tied type="stop" /></notations><lyric name="verse" number="1"><extend type="stop" /></lyric></note><note default-x="338"><rest /><duration>6</duration><voice>1</voice><type>eighth</type><dot /></note><note default-x="412"><pitch><step>B</step><octave>4</octave></pitch><duration>2</duration><voice>1</voice><type>16th</type><stem default-y="-52">down</stem><lyric default-y="-91" name="verse" number="1"><syllabic>single</syllabic><text font-size="10.8">und</text></lyric></note></measure><!--=======================================================--><measure number="20" width="692"><print new-system="yes"><system-layout><system-distance>180</system-distance></system-layout></print><harmony default-y="36" font-size="10" font-weight="bold"><root><root-step>E</root-step></root><kind halign="center" text="">major</kind><bass><bass-step>G</bass-step><bass-alter>1</bass-alter></bass></harmony><note default-x="106"><pitch><step>B</step><octave>4</octave></pitch><duration>2</duration><voice>1</voice><type>16th</type><stem default-y="-51">down</stem><beam number="1">begin</beam><beam number="2">forward hook</beam><lyric default-y="-91" name="verse" number="1"><syllabic>single</syllabic><text font-size="10.8">riefst:</text></lyric></note><note default-x="166"><pitch><step>C</step><alter>1</alter><octave>5</octave></pitch><duration>4</duration><voice>1</voice><type>eighth</type><stem default-y="-48.5">down</stem><beam number="1">continue</beam><lyric default-y="-91" name="verse" number="1"><syllabic>single</syllabic><text font-size="10.8">Es</text></lyric></note><note default-x="220"><pitch><step>D</step><octave>5</octave></pitch><duration>2</duration><tie type="start" /><voice>1</voice><type>16th</type><stem default-y="-46">down</stem><beam number="1">end</beam><beam number="2">backward hook</beam><notations><tied type="start" /><slur number="1" placement="above" type="start" /></notations><lyric default-y="-91" name="verse" number="1"><syllabic>single</syllabic><text font-size="10.8">ist</text><extend type="start" /></lyric></note><note default-x="255"><pitch><step>D</step><octave>5</octave></pitch><duration>2</duration><tie type="stop" /><voice>1</voice><type>16th</type><stem default-y="-46">down</stem><beam number="1">begin</beam><beam number="2">begin</beam><notations><tied type="stop" /></notations></note><note default-x="286"><pitch><step>C</step><alter>1</alter><octave>5</octave></pitch><duration>2</duration><voice>1</voice><type>16th</type><stem default-y="-46">down</stem><beam number="1">continue</beam><beam number="2">continue</beam><notations><slur number="1" type="stop" /></notations><lyric name="verse" number="1"><extend type="stop" /></lyric></note><note default-x="325"><pitch><step>C</step><alter>1</alter><octave>5</octave></pitch><duration>2</duration><voice>1</voice><type>16th</type><stem default-y="-46">down</stem><beam number="1">continue</beam><beam number="2">continue</beam><lyric default-y="-91" name="verse" number="1"><syllabic>begin</syllabic><text font-size="10.8">voll</text></lyric></note><note default-x="395"><pitch><step>C</step><alter>1</alter><octave>5</octave></pitch><duration>2</duration><tie type="start" /><voice>1</voice><type>16th</type><stem default-y="-46">down</stem><beam number="1">end</beam><beam number="2">end</beam><notations><tied type="start" /></notations><lyric default-y="-91" name="verse" number="1"><syllabic>end</syllabic><text font-size="10.8">bracht!</text><extend type="start" /></lyric></note><harmony default-y="36" font-size="10" font-weight="bold"><root><root-step>A</root-step></root><kind halign="center" text="">major</kind></harmony><note default-x="433"><pitch><step>C</step><alter>1</alter><octave>5</octave></pitch><duration>8</duration><tie type="stop" /><voice>1</voice><type>quarter</type><stem default-y="-47">down</stem><notations><tied type="stop" /></notations><lyric name="verse" number="1"><extend type="stop" /></lyric></note><harmony default-y="36" font-size="10" font-weight="bold"><root><root-step>A</root-step></root><kind halign="center" text="">major</kind><bass><bass-step>G</bass-step><bass-alter>1</bass-alter></bass></harmony><note default-x="496"><pitch><step>C</step><alter>1</alter><octave>5</octave></pitch><duration>4</duration><voice>1</voice><type>eighth</type><stem default-y="-51">down</stem><beam number="1">begin</beam><lyric default-y="-91" name="verse" number="1"><syllabic>single</syllabic><text font-size="10.8">Wie</text></lyric></note><note default-x="566"><pitch><step>B</step><octave>4</octave></pitch><duration>2</duration><voice>1</voice><type>16th</type><stem default-y="-51">down</stem><beam number="1">continue</beam><beam number="2">begin</beam><lyric default-y="-91" name="verse" number="1"><syllabic>single</syllabic><text font-size="10.8">ein</text></lyric></note><note default-x="631"><pitch><step>B</step><octave>4</octave></pitch><duration>2</duration><voice>1</voice><type>16th</type><stem default-y="-51">down</stem><beam number="1">end</beam><beam number="2">end</beam><notations><slur number="1" placement="above" type="start" /></notations><lyric default-y="-91" name="verse" number="1"><syllabic>single</syllabic><text font-size="10.8">Lamm</text><extend type="start" /></lyric></note></measure><!--=======================================================--><measure number="21" width="479"><harmony default-y="36" font-size="10" font-weight="bold"><root><root-step>F</root-step><root-alter>1</root-alter></root><kind halign="center" text="m">minor</kind></harmony><note default-x="24"><pitch><step>A</step><octave>4</octave></pitch><duration>8</duration><voice>1</voice><type>quarter</type><stem default-y="7">up</stem><notations><slur number="1" type="stop" /></notations><lyric name="verse" number="1"><extend type="stop" /></lyric></note><note default-x="83"><rest /><duration>8</duration><voice>1</voice><type>quarter</type></note><harmony default-y="36" font-size="10" font-weight="bold"><root><root-step>A</root-step></root><kind halign="center" text="maj7">major-seventh</kind><bass><bass-step>E</bass-step></bass></harmony><note default-x="148"><pitch><step>C</step><alter>1</alter><octave>5</octave></pitch><duration>4</duration><voice>1</voice><type>eighth</type><stem default-y="-51">down</stem><beam number="1">begin</beam><lyric default-y="-91" name="verse" number="1"><syllabic>single</syllabic><text font-size="10.8">nahmst</text></lyric></note><note default-x="222"><pitch><step>B</step><octave>4</octave></pitch><duration>2</duration><voice>1</voice><type>16th</type><stem default-y="-54">down</stem><beam number="1">continue</beam><beam number="2">begin</beam><lyric default-y="-91" name="verse" number="1"><syllabic>single</syllabic><text font-size="10.8">du</text></lyric></note><note default-x="267"><pitch><step>A</step><octave>4</octave></pitch><duration>2</duration><tie type="start" /><voice>1</voice><type>16th</type><stem default-y="-56">down</stem><beam number="1">end</beam><beam number="2">end</beam><notations><tied type="start" /><slur number="1" placement="above" type="start" /></notations><lyric default-y="-91" name="verse" number="1"><syllabic>single</syllabic><text font-size="10.8">es</text><extend type="start" /></lyric></note><note default-x="302"><pitch><step>A</step><octave>4</octave></pitch><duration>2</duration><tie type="stop" /><voice>1</voice><type>16th</type><stem default-y="6">up</stem><beam number="1">begin</beam><beam number="2">begin</beam><notations><tied type="stop" /></notations></note><note default-x="330"><pitch><step>G</step><alter>1</alter><octave>4</octave></pitch><duration>2</duration><voice>1</voice><type>16th</type><stem default-y="5">up</stem><beam number="1">continue</beam><beam number="2">continue</beam><notations><slur number="1" type="stop" /></notations><lyric name="verse" number="1"><extend type="stop" /></lyric></note><note default-x="366"><pitch><step>G</step><alter>1</alter><octave>4</octave></pitch><duration>2</duration><voice>1</voice><type>16th</type><stem default-y="3.5">up</stem><beam number="1">continue</beam><beam number="2">continue</beam><lyric default-y="-91" name="verse" number="1"><syllabic>single</syllabic><text font-size="10.8">auf</text></lyric></note><note default-x="426"><pitch><step>F</step><alter>1</alter><octave>4</octave></pitch><duration>2</duration><tie type="start" /><voice>1</voice><type>16th</type><stem default-y="1.5">up</stem><beam number="1">end</beam><beam number="2">end</beam><notations><tied type="start" /><slur number="1" placement="below" type="start" /></notations><lyric default-y="-91" name="verse" number="1"><syllabic>single</syllabic><text font-size="10.8">dich,</text><extend type="start" /></lyric></note></measure><!--=======================================================--><measure number="22" width="512"><print new-system="yes"><system-layout><system-distance>180</system-distance></system-layout></print><harmony default-y="36" font-size="10" font-weight="bold"><root><root-step>D</root-step></root><kind halign="center" text="">major</kind></harmony><note default-x="96"><pitch><step>F</step><alter>1</alter><octave>4</octave></pitch><duration>8</duration><tie type="stop" /><tie type="start" /><voice>1</voice><type>quarter</type><stem default-y="-3">up</stem><notations><tied type="stop" /><tied type="start" /></notations></note><note default-x="141"><pitch><step>F</step><alter>1</alter><octave>4</octave></pitch><duration>6</duration><tie type="stop" /><voice>1</voice><type>eighth</type><dot /><stem default-y="-3.5">up</stem><beam number="1">begin</beam><notations><tied type="stop" /></notations></note><note default-x="179"><pitch><step>E</step><octave>4</octave></pitch><duration>2</duration><tie type="start" /><voice>1</voice><type>16th</type><stem default-y="-8.5">up</stem><beam number="1">end</beam><beam number="2">backward hook</beam><notations><tied type="start" /></notations></note><harmony default-y="36" font-size="10" font-weight="bold"><root><root-step>A</root-step></root><kind halign="center" text="">major</kind><bass><bass-step>C</bass-step><bass-alter>1</bass-alter></bass></harmony><note default-x="216"><pitch><step>E</step><octave>4</octave></pitch><duration>4</duration><tie type="stop" /><voice>1</voice><type>eighth</type><stem default-y="7">up</stem><beam number="1">begin</beam><notations><tied type="stop" /><slur number="1" type="stop" /></notations><lyric name="verse" number="1"><extend type="stop" /></lyric></note><note default-x="269"><pitch><step>B</step><octave>4</octave></pitch><duration>2</duration><voice>1</voice><type>16th</type><stem default-y="7">up</stem><beam number="1">continue</beam><beam number="2">begin</beam><lyric default-y="-91" name="verse" number="1"><syllabic>single</syllabic><text font-size="10.8">all</text></lyric></note><note default-x="318"><pitch><step>A</step><octave>4</octave></pitch><duration>2</duration><tie type="start" /><voice>1</voice><type>16th</type><stem default-y="7">up</stem><beam number="1">end</beam><beam number="2">end</beam><notations><tied type="start" /></notations><lyric default-y="-91" name="verse" number="1"><syllabic>begin</syllabic><text font-size="10.8">mei</text></lyric></note><note default-x="348"><pitch><step>A</step><octave>4</octave></pitch><duration>4</duration><tie type="stop" /><voice>1</voice><type>eighth</type><stem default-y="6">up</stem><beam number="1">begin</beam><notations><tied type="stop" /></notations></note><note default-x="378"><pitch><step>E</step><octave>4</octave></pitch><duration>2</duration><voice>1</voice><type>16th</type><stem default-y="4.5">up</stem><beam number="1">continue</beam><beam number="2">begin</beam><lyric default-y="-91" name="verse" number="1"><syllabic>end</syllabic><text font-size="10.8">ne</text></lyric></note><note default-x="448"><pitch><step>D</step><octave>4</octave></pitch><duration>2</duration><tie type="start" /><voice>1</voice><type>16th</type><stem default-y="1">up</stem><beam number="1">end</beam><beam number="2">end</beam><notations><tied type="start" /></notations><lyric default-y="-91" name="verse" number="1"><syllabic>single</syllabic><text font-size="10.8">Schuld,</text><extend type="start" /></lyric></note></measure><!--=======================================================--><measure number="23" width="379"><harmony default-y="36" font-size="10" font-weight="bold"><root><root-step>B</root-step></root><kind halign="center" text="m7">minor-seventh</kind></harmony><note default-x="27"><pitch><step>D</step><octave>4</octave></pitch><duration>16</duration><tie type="stop" /><voice>1</voice><type>half</type><stem default-y="-13">up</stem><notations><tied type="stop" /></notations><lyric name="verse" number="1"><extend type="stop" /></lyric></note><harmony default-y="36" font-size="10" font-weight="bold"><root><root-step>A</root-step></root><kind halign="center" text="">major</kind><bass><bass-step>C</bass-step><bass-alter>1</bass-alter></bass></harmony><note default-x="101"><rest /><duration>6</duration><voice>1</voice><type>eighth</type><dot /></note><note default-x="156"><pitch><step>E</step><octave>4</octave></pitch><duration>2</duration><voice>1</voice><type>16th</type><stem default-y="-8">up</stem><lyric default-y="-91" name="verse" number="1"><syllabic>single</syllabic><text font-size="10.8">und</text></lyric></note><note default-x="207"><pitch><step>A</step><octave>4</octave></pitch><duration>4</duration><voice>1</voice><type>eighth</type><stem default-y="6">up</stem><beam number="1">begin</beam><lyric default-y="-91" name="verse" number="1"><syllabic>begin</syllabic><text font-size="10.8">ret</text></lyric></note><note default-x="260"><pitch><step>G</step><alter>1</alter><octave>4</octave></pitch><duration>2</duration><voice>1</voice><type>16th</type><stem default-y="6">up</stem><beam number="1">continue</beam><beam number="2">begin</beam><lyric default-y="-91" name="verse" number="1"><syllabic>end</syllabic><text font-size="10.8">test</text></lyric></note><note default-x="325"><pitch><step>A</step><octave>4</octave></pitch><duration>2</duration><tie type="start" /><voice>1</voice><type>16th</type><stem default-y="6">up</stem><beam number="1">end</beam><beam number="2">end</beam><notations><tied type="start" /></notations><lyric default-y="-91" name="verse" number="1"><syllabic>single</syllabic><text font-size="10.8">mich,</text><extend type="start" /></lyric></note></measure><!--=======================================================--><measure number="24" width="279"><harmony default-y="36" font-size="10" font-weight="bold"><root><root-step>D</root-step></root><kind halign="center" text="2">major</kind><degree print-object="no"><degree-value>2</degree-value><degree-alter>0</degree-alter><degree-type>add</degree-type></degree></harmony><note default-x="18"><pitch><step>A</step><octave>4</octave></pitch><duration>16</duration><tie type="stop" /><voice>1</voice><type>half</type><stem default-y="7">up</stem><notations><tied type="stop" /></notations><lyric name="verse" number="1"><extend type="stop" /></lyric></note><harmony default-y="36" font-size="10" font-weight="bold"><root><root-step>E</root-step></root><kind halign="center" text="sus">suspended-fourth</kind></harmony><note default-x="90"><rest /><duration>8</duration><voice>1</voice><type>quarter</type></note><harmony default-y="36" font-size="10" font-weight="bold"><root><root-step>E</root-step></root><kind halign="center" text="">major</kind></harmony><note default-x="135"><pitch><step>F</step><alter>1</alter><octave>4</octave></pitch><duration>2</duration><voice>1</voice><type>16th</type><stem default-y="1">up</stem><beam number="1">begin</beam><beam number="2">forward hook</beam><lyric default-y="-91" name="verse" number="1"><syllabic>begin</syllabic><text font-size="10.8">mäch</text></lyric></note><note default-x="187"><pitch><step>G</step><alter>1</alter><octave>4</octave></pitch><duration>4</duration><voice>1</voice><type>eighth</type><stem default-y="4">up</stem><beam number="1">continue</beam><lyric default-y="-91" name="verse" number="1"><syllabic>middle</syllabic><text font-size="10.8">ti</text></lyric></note><note default-x="228"><pitch><step>A</step><octave>4</octave></pitch><duration>2</duration><voice>1</voice><type>16th</type><stem default-y="6">up</stem><beam number="1">end</beam><beam number="2">backward hook</beam><lyric default-y="-91" name="verse" number="1"><syllabic>end</syllabic><text font-size="10.8">ger</text></lyric></note><barline location="right"><bar-style>light-light</bar-style></barline></measure><!--=======================================================--><measure number="25" width="454"><print new-system="yes"><system-layout><system-distance>180</system-distance></system-layout></print><harmony default-y="36" font-size="10" font-weight="bold"><root><root-step>A</root-step></root><kind halign="center" text="">major</kind></harmony><direction placement="above"><direction-type><rehearsal default-y="69" font-weight="bold" relative-x="-5">OUTRO</rehearsal></direction-type></direction><note default-x="103"><pitch><step>A</step><octave>4</octave></pitch><duration>16</duration><voice>1</voice><type>half</type><stem default-y="7">up</stem><lyric default-y="-91" name="verse" number="1"><syllabic>single</syllabic><text font-size="10.8">Herr.</text></lyric></note><note default-x="237"><pitch><step>C</step><alter>1</alter><octave>5</octave></pitch><duration>4</duration><voice>1</voice><type size="cue">eighth</type><stem default-y="-51">down</stem><beam number="1">begin</beam></note><note default-x="288"><pitch><step>B</step><octave>4</octave></pitch><duration>2</duration><voice>1</voice><type size="cue">16th</type><stem default-y="-54">down</stem><beam number="1">continue</beam><beam number="2">begin</beam></note><note default-x="319"><pitch><step>A</step><octave>4</octave></pitch><duration>2</duration><tie type="start" /><voice>1</voice><type size="cue">16th</type><stem default-y="-56">down</stem><beam number="1">end</beam><beam number="2">end</beam><notations><tied type="start" /></notations></note><note default-x="351"><pitch><step>A</step><octave>4</octave></pitch><duration>4</duration><tie type="stop" /><voice>1</voice><type size="cue">eighth</type><stem default-y="6">up</stem><beam number="1">begin</beam><notations><tied type="stop" /></notations></note><note default-x="402"><pitch><step>G</step><alter>1</alter><octave>4</octave></pitch><duration>4</duration><voice>1</voice><type size="cue">eighth</type><stem default-y="1">up</stem><beam number="1">end</beam></note></measure><!--=======================================================--><measure number="26" width="310"><harmony default-y="36" font-size="10" font-weight="bold"><root><root-step>D</root-step></root><kind halign="center" text="">major</kind></harmony><note default-x="12"><pitch><step>F</step><alter>1</alter><octave>4</octave></pitch><duration>16</duration><voice>1</voice><type size="cue">half</type><stem default-y="-3">up</stem></note><harmony default-y="36" font-size="10" font-weight="bold"><root><root-step>E</root-step></root><kind halign="center" text="sus">suspended-fourth</kind></harmony><note default-x="138"><pitch><step>A</step><octave>4</octave></pitch><duration>8</duration><voice>1</voice><type size="cue">quarter</type><stem default-y="7">up</stem></note><harmony default-y="36" font-size="10" font-weight="bold"><root><root-step>E</root-step></root><kind halign="center" text="">major</kind></harmony><note default-x="216"><pitch><step>G</step><alter>1</alter><octave>4</octave></pitch><duration>6</duration><voice>1</voice><type size="cue">eighth</type><dot /><stem default-y="1">up</stem><beam number="1">begin</beam></note><note default-x="279"><pitch><step>A</step><octave>4</octave></pitch><duration>2</duration><voice>1</voice><type size="cue">16th</type><stem default-y="6">up</stem><beam number="1">end</beam><beam number="2">backward hook</beam></note></measure><!--=======================================================--><measure number="27" width="407"><harmony default-y="36" font-size="10" font-weight="bold"><root><root-step>A</root-step></root><kind halign="center" text="">major</kind></harmony><note default-x="14"><pitch><step>A</step><octave>4</octave></pitch><duration>16</duration><voice>1</voice><type size="cue">half</type><stem default-y="7">up</stem></note><harmony default-y="36" font-size="10" font-weight="bold"><root><root-step>D</root-step></root><kind halign="center" text="">major</kind><bass><bass-step>A</bass-step></bass><offset>-8</offset></harmony><harmony default-y="36" font-size="10" font-weight="bold"><root><root-step>A</root-step></root><kind halign="center" text="">major</kind></harmony><forward><duration>16</duration><voice>1</voice></forward><backup><duration>32</duration></backup><note default-x="14"><pitch><step>C</step><alter>1</alter><octave>4</octave></pitch><duration>4</duration><voice>2</voice><type size="cue">eighth</type><stem default-y="-86">down</stem><beam number="1">begin</beam></note><note default-x="71"><pitch><step>B</step><octave>3</octave></pitch><duration>2</duration><voice>2</voice><type size="cue">16th</type><stem default-y="-86">down</stem><beam number="1">continue</beam><beam number="2">begin</beam></note><note default-x="105"><pitch><step>C</step><alter>1</alter><octave>4</octave></pitch><duration>2</duration><voice>2</voice><type size="cue">16th</type><stem default-y="-86">down</stem><beam number="1">end</beam><beam number="2">end</beam></note><note default-x="140"><pitch><step>D</step><octave>4</octave></pitch><duration>6</duration><voice>2</voice><type size="cue">eighth</type><dot /><stem default-y="-76">down</stem><beam number="1">begin</beam></note><note default-x="214"><pitch><step>E</step><octave>4</octave></pitch><duration>2</duration><voice>2</voice><type size="cue">16th</type><stem default-y="-71">down</stem><beam number="1">end</beam><beam number="2">backward hook</beam></note><note default-x="249"><pitch><step>C</step><alter>1</alter><octave>4</octave></pitch><duration>16</duration><voice>2</voice><type size="cue">half</type><stem default-y="-18">up</stem></note><barline location="right"><bar-style>light-heavy</bar-style></barline></measure></part><!--=========================================================--></score-partwise>