<?xml version="1.0" encoding="UTF-8"?><!DOCTYPE score-partwise PUBLIC "-//Recordare//DTD MusicXML 1.1 Partwise//EN" "http://www.musicxml.org/dtds/partwise.dtd"[]><score-partwise version="1.1"><movement-title>Herr in deinem Namen</movement-title><identification><creator type="composer">Werner Arthur Hoffmann</creator><encoding><software>Finale for Windows</software><software>Dolet 4.4 for Finale</software><encoding-date>2009-10-30</encoding-date></encoding><rights>CCLI-Liednummer 4327949
© 1994 Gerth Medien
Nutzung ausschließlich im Rahmen der SongSelect®-Nutzungsbedingungen. Alle Rechte vorbehalten. www.ccli.com
CCLI-Lizenznummer 2182334
</rights></identification><defaults><scaling><millimeters>6.5088</millimeters><tenths>40</tenths></scaling><page-layout><page-height>1771</page-height><page-width>1308</page-width><page-margins type="both"><left-margin>78</left-margin><right-margin>78</right-margin><top-margin>78</top-margin><bottom-margin>163</bottom-margin></page-margins></page-layout><system-layout><system-margins><left-margin>68</left-margin><right-margin>0</right-margin></system-margins><system-distance>371</system-distance><top-system-distance>244</top-system-distance></system-layout><music-font font-family="Maestro" font-size="18.5" /><word-font font-family="Arial" font-size="9.2" /><lyric-font font-family="Arial" font-size="10.8" name="verse" /><lyric-font font-family="Arial" font-size="10.8" name="section" /></defaults><credit page="1"><credit-type>title</credit-type><credit-words default-x="654" default-y="1688" font-size="21.6" font-weight="bold" justify="center" valign="top">Herr in deinem Namen</credit-words></credit><credit page="1"><credit-words default-x="1230" default-y="1620" font-size="10.8" font-style="italic" justify="right" valign="top">Text und Musik:</credit-words></credit><credit page="1"><credit-type>composer</credit-type><credit-words font-size="10.8" valign="top" justify="right" font-weight="bold" default-y="1552" default-x="1249">
Werner Arthur Hoffmann</credit-words></credit><part-list><score-part id="P1"><part-name print-object="no">Melodie</part-name><score-instrument id="P1-I2"><instrument-name>Melodie</instrument-name></score-instrument><midi-instrument id="P1-I2"><midi-channel>1</midi-channel><midi-program>1</midi-program></midi-instrument></score-part></part-list><!--=========================================================--><part id="P1"><measure implicit="yes" number="0" width="281"><print page-number="1" /><attributes><divisions>2</divisions><key><fifths>1</fifths><mode>major</mode></key><time><beats>4</beats><beat-type>4</beat-type></time><clef><sign>G</sign><line>2</line></clef></attributes><sound tempo="96" /><note default-x="141"><pitch><step>B</step><octave>3</octave></pitch><duration>1</duration><voice>1</voice><type>eighth</type><stem default-y="-20">up</stem><beam number="1">begin</beam><lyric default-y="-95" name="verse" number="1"><syllabic>single</syllabic><text font-size="10.8">1.</text><elision /><syllabic>single</syllabic><text font-size="10.8">Herr,</text></lyric><lyric default-y="-120" name="verse" number="2" relative-x="-4"><syllabic>single</syllabic><text font-size="10.8">(2.</text><elision /><syllabic>single</syllabic><text font-size="10.8">Herr,</text></lyric><lyric default-y="-145" name="verse" number="3" relative-x="-4"><syllabic>single</syllabic><text font-size="10.8">(3.</text><elision /><syllabic>single</syllabic><text font-size="10.8">Herr,</text></lyric></note><note default-x="210"><pitch><step>C</step><octave>4</octave></pitch><duration>1</duration><voice>1</voice><type>eighth</type><stem default-y="-14.5">up</stem><beam number="1">end</beam><lyric default-y="-95" name="verse" number="1"><syllabic>single</syllabic><text font-size="10.8">in</text></lyric><lyric default-y="-120" name="verse" number="2"><syllabic>single</syllabic><text font-size="10.8">in)</text></lyric><lyric default-y="-145" name="verse" number="3"><syllabic>single</syllabic><text font-size="10.8">in)</text></lyric></note></measure><!--=======================================================--><measure number="1" width="329"><print new-system="no" /><barline location="left"><bar-style>heavy-light</bar-style><repeat direction="forward" /></barline><harmony default-y="29" font-size="10" font-weight="bold"><root><root-step>G</root-step></root><kind text="">major</kind></harmony><note default-x="37"><pitch><step>D</step><octave>4</octave></pitch><duration>2</duration><voice>1</voice><type>quarter</type><stem default-y="-9">up</stem><lyric default-y="-95" name="verse" number="1"><syllabic>begin</syllabic><text font-size="10.8">dei</text></lyric><lyric default-y="-120" name="verse" number="2"><syllabic>begin</syllabic><text font-size="10.8">dei</text></lyric><lyric default-y="-145" name="verse" number="3"><syllabic>begin</syllabic><text font-size="10.8">dei</text></lyric></note><note default-x="104"><pitch><step>D</step><octave>4</octave></pitch><duration>1</duration><voice>1</voice><type>eighth</type><stem default-y="-10">up</stem><beam number="1">begin</beam><lyric default-y="-95" name="verse" number="1"><syllabic>end</syllabic><text font-size="10.8">nem</text></lyric><lyric default-y="-120" name="verse" number="2"><syllabic>end</syllabic><text font-size="10.8">nem</text></lyric><lyric default-y="-145" name="verse" number="3"><syllabic>end</syllabic><text font-size="10.8">nem</text></lyric></note><note default-x="152"><pitch><step>D</step><octave>4</octave></pitch><duration>1</duration><tie type="start" /><voice>1</voice><type>eighth</type><stem default-y="-10">up</stem><beam number="1">end</beam><notations><tied type="start" /></notations><lyric default-y="-95" name="verse" number="1"><syllabic>begin</syllabic><text font-size="10.8">Na</text></lyric><lyric default-y="-120" name="verse" number="2"><syllabic>begin</syllabic><text font-size="10.8">Na</text></lyric><lyric default-y="-145" name="verse" number="3"><syllabic>begin</syllabic><text font-size="10.8">Na</text></lyric></note><note default-x="200"><pitch><step>D</step><octave>4</octave></pitch><duration>2</duration><tie type="stop" /><voice>1</voice><type>quarter</type><stem default-y="-9">up</stem><notations><tied type="stop" /></notations></note><note default-x="263"><pitch><step>D</step><octave>4</octave></pitch><duration>2</duration><voice>1</voice><type>quarter</type><stem default-y="-9">up</stem><lyric default-y="-95" name="verse" number="1"><syllabic>end</syllabic><text font-size="10.8">men</text></lyric><lyric default-y="-120" name="verse" number="2"><syllabic>end</syllabic><text font-size="10.8">men</text></lyric><lyric default-y="-145" name="verse" number="3"><syllabic>end</syllabic><text font-size="10.8">men</text></lyric></note></measure><!--=======================================================--><measure number="2" width="320"><print new-system="no" /><harmony default-y="29" font-size="10" font-weight="bold"><root><root-step>G</root-step></root><kind text="">major</kind><bass><bass-step>B</bass-step></bass></harmony><note default-x="25"><pitch><step>D</step><octave>4</octave></pitch><duration>2</duration><voice>1</voice><type>quarter</type><stem default-y="-9">up</stem><lyric default-y="-95" name="verse" number="1"><syllabic>begin</syllabic><text font-size="10.8">tref</text></lyric><lyric default-y="-120" name="verse" number="2"><syllabic>begin</syllabic><text font-size="10.8">tref</text></lyric><lyric default-y="-145" name="verse" number="3"><syllabic>begin</syllabic><text font-size="10.8">sen</text></lyric></note><note default-x="94"><pitch><step>G</step><octave>4</octave></pitch><duration>1</duration><voice>1</voice><type>eighth</type><stem default-y="5">up</stem><beam number="1">begin</beam><lyric default-y="-95" name="verse" number="1"><syllabic>end</syllabic><text font-size="10.8">fen</text></lyric><lyric default-y="-120" name="verse" number="2"><syllabic>end</syllabic><text font-size="10.8">fen</text></lyric><lyric default-y="-145" name="verse" number="3"><syllabic>end</syllabic><text font-size="10.8">dest</text></lyric></note><note default-x="143"><pitch><step>G</step><octave>4</octave></pitch><duration>1</duration><tie type="start" /><voice>1</voice><type>eighth</type><stem default-y="5">up</stem><beam number="1">end</beam><notations><tied type="start" /></notations><lyric default-y="-95" name="verse" number="1"><syllabic>single</syllabic><text font-size="10.8">wir</text><extend /></lyric><lyric default-y="-120" name="verse" number="2"><syllabic>single</syllabic><text font-size="10.8">wir</text><extend /></lyric><lyric default-y="-145" name="verse" number="3"><syllabic>single</syllabic><text font-size="10.8">du</text><extend /></lyric></note><note default-x="190"><pitch><step>G</step><octave>4</octave></pitch><duration>2</duration><tie type="stop" /><voice>1</voice><type>quarter</type><stem default-y="6">up</stem><notations><tied type="stop" /></notations></note><note default-x="254"><pitch><step>D</step><octave>4</octave></pitch><duration>2</duration><voice>1</voice><type>quarter</type><stem default-y="-9">up</stem><lyric default-y="-95" name="verse" number="1"><syllabic>single</syllabic><text font-size="10.8">uns</text></lyric><lyric default-y="-120" name="verse" number="2"><syllabic>single</syllabic><text font-size="10.8">uns</text></lyric><lyric default-y="-145" name="verse" number="3"><syllabic>single</syllabic><text font-size="10.8">uns</text></lyric></note></measure><!--=======================================================--><measure number="3" width="154"><print new-system="no" /><harmony default-y="29" font-size="10" font-weight="bold"><root><root-step>C</root-step></root><kind text="">major</kind></harmony><note default-x="25"><pitch><step>E</step><octave>4</octave></pitch><duration>8</duration><tie type="start" /><voice>1</voice><type>whole</type><notations><tied type="start" /></notations><lyric default-y="-95" name="verse" number="1"><syllabic>single</syllabic><text font-size="10.8">hier,</text><extend /></lyric><lyric default-y="-120" name="verse" number="2"><syllabic>single</syllabic><text font-size="10.8">hier.</text><extend /></lyric><lyric default-y="-145" name="verse" number="3"><syllabic>single</syllabic><text font-size="10.8">aus,</text><extend /></lyric></note></measure><!--=======================================================--><measure number="4" width="338"><print new-system="yes"><system-layout><system-margins><left-margin>0</left-margin><right-margin>0</right-margin></system-margins><system-distance>230</system-distance></system-layout></print><note default-x="73"><pitch><step>E</step><octave>4</octave></pitch><duration>4</duration><tie type="stop" /><voice>1</voice><type>half</type><stem default-y="-4">up</stem><notations><tied type="stop" /></notations></note><note default-x="180"><rest /><duration>2</duration><voice>1</voice><type>quarter</type></note><note default-x="247"><pitch><step>C</step><octave>4</octave></pitch><duration>1</duration><voice>1</voice><type>eighth</type><stem default-y="-15">up</stem><beam number="1">begin</beam><lyric default-y="-95" name="verse" number="1"><syllabic>single</syllabic><text font-size="10.8">um</text></lyric><lyric default-y="-120" name="verse" number="2"><syllabic>single</syllabic><text font-size="10.8">In</text></lyric><lyric default-y="-145" name="verse" number="3"><syllabic>single</syllabic><text font-size="10.8">um</text></lyric></note><note default-x="293"><pitch><step>D</step><octave>4</octave></pitch><duration>1</duration><voice>1</voice><type>eighth</type><stem default-y="-10">up</stem><beam number="1">end</beam><lyric default-y="-95" name="verse" number="1"><syllabic>single</syllabic><text font-size="10.8">dir</text></lyric><lyric default-y="-120" name="verse" number="2"><syllabic>single</syllabic><text font-size="10.8">der</text></lyric><lyric default-y="-145" name="verse" number="3"><syllabic>single</syllabic><text font-size="10.8">den</text></lyric></note></measure><!--=======================================================--><measure number="5" width="431"><print new-system="no" /><harmony default-y="29" font-size="10" font-weight="bold"><root><root-step>A</root-step></root><kind text="m">minor</kind></harmony><note default-x="25"><pitch><step>E</step><octave>4</octave></pitch><duration>2</duration><voice>1</voice><type>quarter</type><stem default-y="-4">up</stem><lyric default-y="-95" name="verse" number="1"><syllabic>begin</syllabic><text font-size="10.8">un</text></lyric><lyric default-y="-120" name="verse" number="2"><syllabic>begin</syllabic><text font-size="10.8">Stil</text></lyric><lyric default-y="-145" name="verse" number="3"><syllabic>begin</syllabic><text font-size="10.8">Men</text></lyric></note><note default-x="121"><pitch><step>E</step><octave>4</octave></pitch><duration>1</duration><voice>1</voice><type>eighth</type><stem default-y="-5">up</stem><beam number="1">begin</beam><lyric default-y="-95" name="verse" number="1"><syllabic>end</syllabic><text font-size="10.8">sern</text></lyric><lyric default-y="-120" name="verse" number="2"><syllabic>end</syllabic><text font-size="10.8">le</text></lyric><lyric default-y="-145" name="verse" number="3"><syllabic>end</syllabic><text font-size="10.8">schen</text></lyric></note><note default-x="189"><pitch><step>E</step><octave>4</octave></pitch><duration>1</duration><tie type="start" /><voice>1</voice><type>eighth</type><stem default-y="-5">up</stem><beam number="1">end</beam><notations><tied type="start" /></notations><lyric default-y="-95" name="verse" number="1"><syllabic>single</syllabic><text font-size="10.8">Dank</text><extend /></lyric><lyric default-y="-120" name="verse" number="2"><syllabic>begin</syllabic><text font-size="10.8">wol</text></lyric><lyric default-y="-145" name="verse" number="3"><syllabic>begin</syllabic><text font-size="10.8">dei</text></lyric></note><note default-x="255"><pitch><step>E</step><octave>4</octave></pitch><duration>2</duration><tie type="stop" /><voice>1</voice><type>quarter</type><stem default-y="-4">up</stem><notations><tied type="stop" /></notations></note><note default-x="342"><pitch><step>E</step><octave>4</octave></pitch><duration>2</duration><voice>1</voice><type>quarter</type><stem default-y="-4">up</stem><lyric default-y="-95" name="verse" number="1"><syllabic>single</syllabic><text font-size="10.8">und</text></lyric><lyric default-y="-120" name="verse" number="2"><syllabic>end</syllabic><text font-size="10.8">len</text></lyric><lyric default-y="-145" name="verse" number="3"><syllabic>end</syllabic><text font-size="10.8">nen</text></lyric></note></measure><!--=======================================================--><measure number="6" width="383"><print new-system="no" /><harmony default-y="29" font-size="10" font-weight="bold"><root><root-step>A</root-step></root><kind text="">major</kind><bass><bass-step>C</bass-step><bass-alter>1</bass-alter></bass></harmony><note default-x="29"><pitch><step>E</step><octave>4</octave></pitch><duration>2</duration><voice>1</voice><type>quarter</type><stem default-y="-4">up</stem><lyric default-y="-95" name="verse" number="1"><syllabic>begin</syllabic><text font-size="10.8">un</text></lyric><lyric default-y="-120" name="verse" number="2"><syllabic>single</syllabic><text font-size="10.8">wir</text></lyric><lyric default-y="-145" name="verse" number="3"><syllabic>begin</syllabic><text font-size="10.8">Frie</text></lyric></note><note default-x="113"><pitch><step>A</step><octave>4</octave></pitch><duration>1</duration><voice>1</voice><type>eighth</type><stem default-y="10">up</stem><beam number="1">begin</beam><lyric default-y="-95" name="verse" number="1"><syllabic>end</syllabic><text font-size="10.8">ser</text></lyric><lyric default-y="-120" name="verse" number="2"><syllabic>single</syllabic><text font-size="10.8">jetzt</text></lyric><lyric default-y="-145" name="verse" number="3"><syllabic>end</syllabic><text font-size="10.8">den</text></lyric></note><note default-x="165"><pitch><step>A</step><octave>4</octave></pitch><duration>1</duration><tie type="start" /><voice>1</voice><type>eighth</type><stem default-y="10">up</stem><beam number="1">end</beam><notations><tied type="start" /></notations><lyric default-y="-95" name="verse" number="1"><syllabic>single</syllabic><text font-size="10.8">Lob</text><extend /></lyric><lyric default-y="-120" name="verse" number="2"><syllabic>single</syllabic><text font-size="10.8">vor</text><extend /></lyric><lyric default-y="-145" name="verse" number="3"><syllabic>single</syllabic><text font-size="10.8">zu</text><extend /></lyric></note><note default-x="217"><pitch><step>A</step><octave>4</octave></pitch><duration>2</duration><tie type="stop" /><voice>1</voice><type>quarter</type><stem default-y="11">up</stem><notations><tied type="stop" /></notations></note><note default-x="299"><pitch><step>G</step><octave>4</octave></pitch><duration>2</duration><voice>1</voice><type>quarter</type><stem default-y="6">up</stem><lyric default-y="-95" name="verse" number="1"><syllabic>single</syllabic><text font-size="10.8">zu</text></lyric><lyric default-y="-120" name="verse" number="2"><syllabic>single</syllabic><text font-size="10.8">dir</text></lyric><lyric default-y="-145" name="verse" number="3"><syllabic>begin</syllabic><text font-size="10.8">ver</text></lyric></note></measure><!--=======================================================--><measure number="7" width="416"><print new-system="yes"><system-layout><system-margins><left-margin>0</left-margin><right-margin>0</right-margin></system-margins><system-distance>230</system-distance></system-layout></print><harmony default-y="29" font-size="10" font-weight="bold"><root><root-step>D</root-step></root><kind text="">major</kind></harmony><note default-x="85"><pitch><step>F</step><alter>1</alter><octave>4</octave></pitch><duration>2</duration><voice>1</voice><type>quarter</type><stem default-y="1">up</stem><notations><slur number="1" placement="below" type="start" /></notations><lyric default-y="-95" name="verse" number="1"><syllabic>begin</syllabic><text font-size="10.8">brin</text></lyric><lyric default-y="-120" name="verse" number="2"><syllabic>begin</syllabic><text font-size="10.8">ste</text></lyric><lyric default-y="-145" name="verse" number="3"><syllabic>middle</syllabic><text font-size="10.8">kün</text></lyric></note><note default-x="170"><pitch><step>E</step><octave>4</octave></pitch><duration>1</duration><voice>1</voice><type>eighth</type><stem default-y="-5">up</stem><beam number="1">begin</beam><notations><slur number="1" type="stop" /></notations></note><note default-x="223"><pitch><step>D</step><octave>4</octave></pitch><duration>1</duration><tie type="start" /><voice>1</voice><type>eighth</type><stem default-y="-10">up</stem><beam number="1">end</beam><notations><tied type="start" /></notations><lyric default-y="-95" name="verse" number="1"><syllabic>end</syllabic><text font-size="10.8">gen.</text><extend /></lyric><lyric default-y="-120" name="verse" number="2"><syllabic>end</syllabic><text font-size="10.8">hen.</text><extend /></lyric><lyric default-y="-145" name="verse" number="3"><syllabic>end</syllabic><text font-size="10.8">den.</text><extend /></lyric></note><note default-x="278"><pitch><step>D</step><octave>4</octave></pitch><duration>4</duration><tie type="stop" /><voice>1</voice><type>half</type><stem default-y="-9">up</stem><notations><tied type="stop" /></notations></note></measure><!--=======================================================--><measure number="8" width="320"><print new-system="no" /><note default-x="10"><rest /><duration>6</duration><voice>1</voice><type>half</type><dot /></note><note default-x="201"><pitch><step>F</step><alter>1</alter><octave>4</octave></pitch><duration>1</duration><voice>1</voice><type>eighth</type><stem default-y="0">up</stem><beam number="1">begin</beam><lyric default-y="-95" name="verse" number="1"><syllabic>single</syllabic><text font-size="10.8">Du</text></lyric><lyric default-y="-120" name="verse" number="2"><syllabic>begin</syllabic><text font-size="10.8">Re</text></lyric><lyric default-y="-145" name="verse" number="3"><syllabic>single</syllabic><text font-size="10.8">Durch</text></lyric></note><note default-x="261"><pitch><step>F</step><alter>1</alter><octave>4</octave></pitch><duration>1</duration><voice>1</voice><type>eighth</type><stem default-y="0">up</stem><beam number="1">end</beam><lyric default-y="-95" name="verse" number="1"><syllabic>single</syllabic><text font-size="10.8">bist</text></lyric><lyric default-y="-120" name="verse" number="2"><syllabic>end</syllabic><text font-size="10.8">de</text></lyric><lyric default-y="-145" name="verse" number="3"><syllabic>single</syllabic><text font-size="10.8">den</text></lyric></note></measure><!--=======================================================--><measure number="9" width="417"><print new-system="no" /><harmony default-y="29" font-size="10" font-weight="bold"><root><root-step>B</root-step></root><kind text="">major</kind><bass><bass-step>D</bass-step><bass-alter>1</bass-alter></bass></harmony><note default-x="34"><pitch><step>F</step><alter>1</alter><octave>4</octave></pitch><duration>3</duration><voice>1</voice><type>quarter</type><dot /><stem default-y="1">up</stem><lyric default-y="-95" name="verse" number="1"><syllabic>begin</syllabic><text font-size="10.8">gnä</text></lyric><lyric default-y="-120" name="verse" number="2"><syllabic>single</syllabic><text font-size="10.8">selbst</text></lyric><lyric default-y="-145" name="verse" number="3"><syllabic>single</syllabic><text font-size="10.8">Geist</text></lyric></note><note default-x="162"><pitch><step>B</step><octave>4</octave></pitch><duration>1</duration><tie type="start" /><voice>1</voice><type>eighth</type><stem default-y="-55.5">down</stem><notations><tied type="start" /></notations><lyric default-y="-95" name="verse" number="1"><syllabic>end</syllabic><text font-size="10.8">dig</text><extend /></lyric><lyric default-y="-120" name="verse" number="2"><syllabic>single</syllabic><text font-size="10.8">durch</text><extend /></lyric><lyric default-y="-145" name="verse" number="3"><syllabic>single</syllabic><text font-size="10.8">hilf</text><extend /></lyric></note><note default-x="224"><pitch><step>B</step><octave>4</octave></pitch><duration>2</duration><tie type="stop" /><voice>1</voice><type>quarter</type><stem default-y="-55.5">down</stem><notations><tied type="stop" /></notations></note><note default-x="319"><pitch><step>A</step><octave>4</octave></pitch><duration>2</duration><voice>1</voice><type>quarter</type><stem default-y="10.5">up</stem><lyric default-y="-95" name="verse" number="1"><syllabic>single</syllabic><text font-size="10.8">und</text></lyric><lyric default-y="-120" name="verse" number="2"><syllabic>single</syllabic><text font-size="10.8">dein</text></lyric><lyric default-y="-145" name="verse" number="3"><syllabic>single</syllabic><text font-size="10.8">uns</text></lyric></note></measure><!--=======================================================--><measure number="10" width="444"><print new-system="yes"><system-layout><system-margins><left-margin>0</left-margin><right-margin>0</right-margin></system-margins><system-distance>230</system-distance></system-layout></print><harmony default-y="29" font-size="10" font-weight="bold"><root><root-step>E</root-step></root><kind text="m">minor</kind></harmony><note default-x="94"><pitch><step>G</step><octave>4</octave></pitch><duration>6</duration><voice>1</voice><type>half</type><dot /><stem default-y="6">up</stem><lyric default-y="-95" name="verse" number="1"><syllabic>single</syllabic><text font-size="10.8">treu,</text></lyric><lyric default-y="-120" name="verse" number="2"><syllabic>single</syllabic><text font-size="10.8">Wort!</text></lyric><lyric default-y="-145" name="verse" number="3"><syllabic>single</syllabic><text font-size="10.8">hier,</text></lyric></note><note default-x="307"><pitch><step>G</step><octave>4</octave></pitch><duration>1</duration><voice>1</voice><type>eighth</type><stem default-y="5">up</stem><beam number="1">begin</beam><lyric default-y="-95" name="verse" number="1"><syllabic>single</syllabic><text font-size="10.8">komm,</text></lyric><lyric default-y="-120" name="verse" number="2"><syllabic>single</syllabic><text font-size="10.8">Was</text></lyric><lyric default-y="-145" name="verse" number="3"><syllabic>single</syllabic><text font-size="10.8">wenn</text></lyric></note><note default-x="377"><pitch><step>G</step><octave>4</octave></pitch><duration>1</duration><voice>1</voice><type>eighth</type><stem default-y="5">up</stem><beam number="1">end</beam><lyric default-y="-95" name="verse" number="1"><syllabic>begin</syllabic><text font-size="10.8">be</text></lyric><lyric default-y="-120" name="verse" number="2"><syllabic>single</syllabic><text font-size="10.8">noch</text></lyric><lyric default-y="-145" name="verse" number="3"><syllabic>single</syllabic><text font-size="10.8">wir</text></lyric></note></measure><!--=======================================================--><measure number="11" width="385"><print new-system="no" /><harmony default-y="29" font-size="10" font-weight="bold"><root><root-step>D</root-step></root><kind text="">major</kind><bass><bass-step>F</bass-step><bass-alter>1</bass-alter></bass></harmony><note default-x="29"><pitch><step>A</step><octave>4</octave></pitch><duration>3</duration><voice>1</voice><type>quarter</type><dot /><stem default-y="11">up</stem><lyric default-y="-95" name="verse" number="1"><syllabic>middle</syllabic><text font-size="10.8">geg</text></lyric><lyric default-y="-120" name="verse" number="2"><syllabic>single</syllabic><text font-size="10.8">stört,</text></lyric><lyric default-y="-145" name="verse" number="3"><syllabic>begin</syllabic><text font-size="10.8">re</text></lyric></note><note default-x="147"><pitch><step>D</step><octave>5</octave></pitch><duration>1</duration><tie type="start" /><voice>1</voice><type>eighth</type><stem default-y="-45.5">down</stem><notations><tied type="start" /></notations><lyric default-y="-95" name="verse" number="1"><syllabic>end</syllabic><text font-size="10.8">ne</text><extend /></lyric><lyric default-y="-120" name="verse" number="2"><syllabic>single</syllabic><text font-size="10.8">das</text><extend /></lyric><lyric default-y="-145" name="verse" number="3"><syllabic>end</syllabic><text font-size="10.8">den</text><extend /></lyric></note><note default-x="204"><pitch><step>D</step><octave>5</octave></pitch><duration>2</duration><tie type="stop" /><voice>1</voice><type>quarter</type><stem default-y="-45.5">down</stem><notations><tied type="stop" /></notations></note><note default-x="293"><pitch><step>C</step><octave>5</octave></pitch><duration>2</duration><voice>1</voice><type>quarter</type><stem default-y="-50.5">down</stem><lyric default-y="-95" name="verse" number="1"><syllabic>single</syllabic><text font-size="10.8">uns</text></lyric><lyric default-y="-120" name="verse" number="2"><syllabic>single</syllabic><text font-size="10.8">nimm</text></lyric><lyric default-y="-145" name="verse" number="3"><syllabic>single</syllabic><text font-size="10.8">von</text></lyric></note></measure><!--=======================================================--><measure number="12" width="323"><print new-system="no" /><harmony default-y="29" font-size="10" font-weight="bold"><root><root-step>G</root-step></root><kind text="">major</kind></harmony><note default-x="25"><pitch><step>B</step><octave>4</octave></pitch><duration>4</duration><voice>1</voice><type>half</type><stem default-y="-55">down</stem><lyric default-y="-95" name="verse" number="1"><syllabic>single</syllabic><text font-size="10.8">neu!</text></lyric><lyric default-y="-120" name="verse" number="2"><syllabic>single</syllabic><text font-size="10.8">fort.</text></lyric><lyric default-y="-145" name="verse" number="3"><syllabic>single</syllabic><text font-size="10.8">dir,</text></lyric></note><note default-x="157"><pitch><step>D</step><octave>5</octave></pitch><duration>2</duration><voice>1</voice><type>quarter</type><stem default-y="-45.5">down</stem><lyric default-y="-95" name="verse" number="1"><syllabic>single</syllabic><text font-size="10.8">Nur</text></lyric><lyric default-y="-120" name="verse" number="2"><syllabic>begin</syllabic><text font-size="10.8">Of</text></lyric><lyric default-y="-145" name="verse" number="3"><syllabic>single</syllabic><text font-size="10.8">dass</text></lyric></note><note default-x="239"><pitch><step>D</step><octave>5</octave></pitch><duration>2</duration><voice>1</voice><type>quarter</type><stem default-y="-45.5">down</stem><lyric default-y="-95" name="verse" number="1"><syllabic>single</syllabic><text font-size="10.8">für</text></lyric><lyric default-y="-120" name="verse" number="2"><syllabic>middle</syllabic><text font-size="10.8">fen</text></lyric><lyric default-y="-145" name="verse" number="3"><syllabic>single</syllabic><text font-size="10.8">noch</text></lyric></note></measure><!--=======================================================--><measure number="13" width="436"><print new-system="yes"><system-layout><system-margins><left-margin>0</left-margin><right-margin>0</right-margin></system-margins><system-distance>230</system-distance></system-layout></print><harmony default-y="29" font-size="10" font-weight="bold"><root><root-step>C</root-step></root><kind text="">major</kind></harmony><note default-x="91"><pitch><step>D</step><octave>5</octave></pitch><duration>2</duration><voice>1</voice><type>quarter</type><stem default-y="-45.5">down</stem><lyric default-y="-95" name="verse" number="1"><syllabic>single</syllabic><text font-size="10.8">dich,</text></lyric><lyric default-y="-120" name="verse" number="2"><syllabic>middle</syllabic><text font-size="10.8">ba</text></lyric><lyric default-y="-145" name="verse" number="3"><syllabic>begin</syllabic><text font-size="10.8">vie</text></lyric></note><note default-x="170"><pitch><step>C</step><octave>5</octave></pitch><duration>1</duration><voice>1</voice><type>eighth</type><stem default-y="-50">down</stem><beam number="1">begin</beam><lyric default-y="-95" name="verse" number="1"><syllabic>single</syllabic><text font-size="10.8">o</text></lyric><lyric default-y="-120" name="verse" number="2"><syllabic>end</syllabic><text font-size="10.8">re</text></lyric><lyric default-y="-145" name="verse" number="3"><syllabic>end</syllabic><text font-size="10.8">le</text></lyric></note><note default-x="224"><pitch><step>C</step><octave>5</octave></pitch><duration>1</duration><tie type="start" /><voice>1</voice><type>eighth</type><stem default-y="-50">down</stem><beam number="1">end</beam><notations><tied type="start" /></notations><lyric default-y="-95" name="verse" number="1"><syllabic>single</syllabic><text font-size="10.8">Herr,</text><extend /></lyric><lyric default-y="-120" name="verse" number="2"><syllabic>single</syllabic><text font-size="10.8">dich,</text><extend /></lyric><lyric default-y="-145" name="verse" number="3"><syllabic>begin</syllabic><text font-size="10.8">neu</text></lyric></note><note default-x="284"><pitch><step>C</step><octave>5</octave></pitch><duration>2</duration><tie type="stop" /><voice>1</voice><type>quarter</type><stem default-y="-50">down</stem><notations><tied type="stop" /></notations></note><note default-x="359"><pitch><step>B</step><octave>4</octave></pitch><duration>2</duration><voice>1</voice><type>quarter</type><stem default-y="-55">down</stem><lyric default-y="-95" name="verse" number="1"><syllabic>single</syllabic><text font-size="10.8">soll</text></lyric><lyric default-y="-120" name="verse" number="2"><syllabic>single</syllabic><text font-size="10.8">wir</text></lyric><lyric default-y="-145" name="verse" number="3"><syllabic>end</syllabic><text font-size="10.8">es</text></lyric></note></measure><!--=======================================================--><measure number="14" width="377"><print new-system="no" /><harmony default-y="29" font-size="10" font-weight="bold"><root><root-step>A</root-step></root><kind text="m">minor</kind></harmony><note default-x="23"><pitch><step>C</step><octave>5</octave></pitch><duration>2</duration><voice>1</voice><type>quarter</type><stem default-y="-50">down</stem><lyric default-y="-95" name="verse" number="1"><syllabic>begin</syllabic><text font-size="10.8">un</text></lyric><lyric default-y="-120" name="verse" number="2"><syllabic>begin</syllabic><text font-size="10.8">wol</text></lyric><lyric default-y="-145" name="verse" number="3"><syllabic>begin</syllabic><text font-size="10.8">Le</text></lyric></note><note default-x="105"><pitch><step>B</step><octave>4</octave></pitch><duration>1</duration><voice>1</voice><type>eighth</type><stem default-y="15">up</stem><beam number="1">begin</beam><lyric default-y="-95" name="verse" number="1"><syllabic>end</syllabic><text font-size="10.8">ser</text></lyric><lyric default-y="-120" name="verse" number="2"><syllabic>end</syllabic><text font-size="10.8">len</text></lyric><lyric default-y="-145" name="verse" number="3"><syllabic>end</syllabic><text font-size="10.8">ben</text></lyric></note><note default-x="159"><pitch><step>A</step><octave>4</octave></pitch><duration>1</duration><tie type="start" /><voice>1</voice><type>eighth</type><stem default-y="10">up</stem><beam number="1">end</beam><notations><tied type="start" /></notations><lyric default-y="-95" name="verse" number="1"><syllabic>single</syllabic><text font-size="10.8">Lied</text><extend /></lyric><lyric default-y="-120" name="verse" number="2"><syllabic>single</syllabic><text font-size="10.8">auf</text><extend /></lyric><lyric default-y="-145" name="verse" number="3"><syllabic>single</syllabic><text font-size="10.8">in</text><extend /></lyric></note><note default-x="214"><pitch><step>A</step><octave>4</octave></pitch><duration>2</duration><tie type="stop" /><voice>1</voice><type>quarter</type><stem default-y="11">up</stem><notations><tied type="stop" /></notations></note><note default-x="294"><pitch><step>G</step><octave>4</octave></pitch><duration>2</duration><voice>1</voice><type>quarter</type><stem default-y="6">up</stem><lyric default-y="-95" name="verse" number="1"><syllabic>begin</syllabic><text font-size="10.8">er</text></lyric><lyric default-y="-120" name="verse" number="2"><syllabic>single</syllabic><text font-size="10.8">dich</text></lyric><lyric default-y="-145" name="verse" number="3"><syllabic>single</syllabic><text font-size="10.8">dir</text></lyric></note></measure><!--=======================================================--><measure number="15" width="340"><print new-system="no" /><harmony default-y="29" font-size="10" font-weight="bold"><root><root-step>G</root-step></root><kind text="">major</kind><bass><bass-step>D</bass-step></bass></harmony><note default-x="25"><pitch><step>B</step><octave>4</octave></pitch><duration>2</duration><voice>1</voice><type>quarter</type><stem default-y="-55">down</stem><notations><slur number="1" placement="above" type="start" /></notations><lyric default-y="-95" name="verse" number="1"><syllabic>middle</syllabic><text font-size="10.8">klin</text></lyric><lyric default-y="-120" name="verse" number="2"><syllabic>begin</syllabic><text font-size="10.8">se</text></lyric><lyric default-y="-145" name="verse" number="3"><syllabic>begin</syllabic><text font-size="10.8">fin</text></lyric></note><note default-x="97"><pitch><step>A</step><octave>4</octave></pitch><duration>1</duration><voice>1</voice><type>eighth</type><stem default-y="10">up</stem><beam number="1">begin</beam><notations><slur number="1" type="stop" /></notations></note><note default-x="148"><pitch><step>A</step><octave>4</octave></pitch><duration>1</duration><tie type="start" /><voice>1</voice><type>eighth</type><stem default-y="10">up</stem><beam number="1">end</beam><notations><tied type="start" /></notations><lyric default-y="-95" name="verse" number="1"><syllabic>end</syllabic><text font-size="10.8">gen.</text><extend /></lyric><lyric default-y="-120" name="verse" number="2"><syllabic>end</syllabic><text font-size="10.8">hen.</text><extend /></lyric><lyric default-y="-145" name="verse" number="3"><syllabic>end</syllabic><text font-size="10.8">den.</text><extend /></lyric></note><harmony default-y="29" font-size="10" font-weight="bold"><root><root-step>D</root-step></root><kind text="sus">suspended-fourth</kind></harmony><note default-x="222"><pitch><step>A</step><octave>4</octave></pitch><duration>4</duration><tie type="stop" /><tie type="start" /><voice>1</voice><type>half</type><stem default-y="11">up</stem><notations><tied type="stop" /><tied type="start" /></notations></note></measure><!--=======================================================--><measure number="16" width="589"><print new-page="yes" page-number="2"><system-layout><system-margins><left-margin>0</left-margin><right-margin>0</right-margin></system-margins><top-system-distance>122</top-system-distance></system-layout></print><harmony default-y="29" font-size="10" font-weight="bold"><root><root-step>D</root-step></root><kind text="">major</kind><bass><bass-step>C</bass-step></bass></harmony><note default-x="87"><pitch><step>A</step><octave>4</octave></pitch><duration>2</duration><tie type="stop" /><voice>1</voice><type>quarter</type><stem default-y="11">up</stem><notations><tied type="stop" /></notations></note><note default-x="193"><rest /><duration>1</duration><voice>1</voice><type>eighth</type></note><note default-x="259"><pitch><step>B</step><octave>4</octave></pitch><duration>1</duration><tie type="start" /><voice>1</voice><type>eighth</type><stem default-y="-55.5">down</stem><notations><tied type="start" /></notations><lyric default-y="-95" name="verse" number="1"><syllabic>begin</syllabic><text font-size="10.8">Va</text></lyric><lyric default-y="-120" name="verse" number="2"><syllabic>single</syllabic><text font-size="10.8">Mach</text><extend /></lyric><lyric default-y="-145" name="verse" number="3"><syllabic>single</syllabic><text font-size="10.8">Herr,</text><extend /></lyric></note><note default-x="325"><pitch><step>B</step><octave>4</octave></pitch><duration>1</duration><tie type="stop" /><voice>1</voice><type>eighth</type><stem default-y="15">up</stem><beam number="1">begin</beam><notations><tied type="stop" /></notations></note><note default-x="390"><pitch><step>A</step><octave>4</octave></pitch><duration>1</duration><voice>1</voice><type>eighth</type><stem default-y="10">up</stem><beam number="1">end</beam><lyric default-y="-95" name="verse" number="1"><syllabic>end</syllabic><text font-size="10.8">ter,</text></lyric><lyric default-y="-120" name="verse" number="2"><syllabic>single</syllabic><text font-size="10.8">die</text></lyric><lyric default-y="-145" name="verse" number="3"><syllabic>single</syllabic><text font-size="10.8">wir</text></lyric></note><note default-x="456"><pitch><step>G</step><octave>4</octave></pitch><duration>1</duration><voice>1</voice><type>eighth</type><stem default-y="5">up</stem><beam number="1">begin</beam><lyric default-y="-95" name="verse" number="1"><syllabic>single</syllabic><text font-size="10.8">du</text></lyric><lyric default-y="-120" name="verse" number="2"><syllabic>begin</syllabic><text font-size="10.8">Her</text></lyric><lyric default-y="-145" name="verse" number="3"><syllabic>begin</syllabic><text font-size="10.8">brau</text></lyric></note><note default-x="522"><pitch><step>F</step><alter>1</alter><octave>4</octave></pitch><duration>1</duration><voice>1</voice><type>eighth</type><stem default-y="0">up</stem><beam number="1">end</beam><lyric default-y="-95" name="verse" number="1"><syllabic>single</syllabic><text font-size="10.8">bist</text></lyric><lyric default-y="-120" name="verse" number="2"><syllabic>end</syllabic><text font-size="10.8">zen</text></lyric><lyric default-y="-145" name="verse" number="3"><syllabic>end</syllabic><text font-size="10.8">chen</text></lyric></note></measure><!--=======================================================--><measure number="17" width="187"><print new-system="no" /><harmony default-y="29" font-size="10" font-weight="bold"><root><root-step>G</root-step></root><kind text="">major</kind><bass><bass-step>B</bass-step></bass></harmony><note default-x="27"><pitch><step>G</step><octave>4</octave></pitch><duration>8</duration><tie type="start" /><voice>1</voice><type>whole</type><notations><tied type="start" /></notations><lyric default-y="-95" name="verse" number="1"><syllabic>single</syllabic><text font-size="10.8">hier.</text><extend /></lyric><lyric default-y="-120" name="verse" number="2"><syllabic>single</syllabic><text font-size="10.8">weit,</text><extend /></lyric><lyric default-y="-145" name="verse" number="3"><syllabic>single</syllabic><text font-size="10.8">dich.</text><extend /></lyric></note></measure><!--=======================================================--><measure number="18" width="164"><print new-system="no" /><harmony default-y="29" font-size="10" font-weight="bold"><root><root-step>C</root-step></root><kind text="">major</kind></harmony><note default-x="13"><pitch><step>G</step><octave>4</octave></pitch><duration>8</duration><tie type="stop" /><tie type="start" /><voice>1</voice><type>whole</type><notations><tied type="stop" /><tied type="start" /></notations></note></measure><!--=======================================================--><measure number="19" width="213"><print new-system="no" /><harmony default-y="29" font-size="10" font-weight="bold"><root><root-step>G</root-step></root><kind text="">major</kind><bass><bass-step>D</bass-step></bass></harmony><note default-x="25"><pitch><step>G</step><octave>4</octave></pitch><duration>6</duration><tie type="stop" /><voice>1</voice><type>half</type><dot /><stem default-y="6">up</stem><notations><tied type="stop" /></notations></note><note default-x="152"><rest /><duration>2</duration><voice>1</voice><type>quarter</type></note></measure><!--=======================================================--><measure number="20" width="345"><print new-system="yes"><system-layout><system-margins><left-margin>0</left-margin><right-margin>0</right-margin></system-margins><system-distance>230</system-distance></system-layout></print><harmony default-y="29" font-size="10" font-weight="bold"><root><root-step>C</root-step></root><kind text="">major</kind><bass><bass-step>D</bass-step></bass></harmony><note default-x="97"><pitch><step>B</step><octave>4</octave></pitch><duration>2</duration><voice>1</voice><type>quarter</type><stem default-y="-55">down</stem><lyric default-y="-95" name="verse" number="1"><syllabic>single</syllabic><text font-size="10.8">Dank</text></lyric><lyric default-y="-120" name="verse" number="2"><syllabic>single</syllabic><text font-size="10.8">sprich</text></lyric><lyric default-y="-145" name="verse" number="3"><syllabic>single</syllabic><text font-size="10.8">Lass</text></lyric></note><note default-x="159"><pitch><step>A</step><octave>4</octave></pitch><duration>2</duration><voice>1</voice><type>quarter</type><stem default-y="11">up</stem><lyric default-y="-95" name="verse" number="1"><syllabic>single</syllabic><text font-size="10.8">sei</text></lyric><lyric default-y="-120" name="verse" number="2"><syllabic>single</syllabic><text font-size="10.8">in</text></lyric><lyric default-y="-145" name="verse" number="3"><syllabic>single</syllabic><text font-size="10.8">uns</text></lyric></note><note default-x="221"><pitch><step>G</step><octave>4</octave></pitch><duration>2</duration><voice>1</voice><type>quarter</type><stem default-y="6">up</stem><lyric default-y="-95" name="verse" number="1"><syllabic>single</syllabic><text font-size="10.8">dir</text></lyric><lyric default-y="-120" name="verse" number="2"><syllabic>begin</syllabic><text font-size="10.8">uns</text></lyric><lyric default-y="-145" name="verse" number="3"><syllabic>single</syllabic><text font-size="10.8">nicht</text></lyric></note><note default-x="282"><pitch><step>F</step><alter>1</alter><octave>4</octave></pitch><duration>2</duration><voice>1</voice><type>quarter</type><stem default-y="1">up</stem><lyric default-y="-95" name="verse" number="1"><syllabic>begin</syllabic><text font-size="10.8">da</text></lyric><lyric default-y="-120" name="verse" number="2"><syllabic>end</syllabic><text font-size="10.8">re</text></lyric><lyric default-y="-145" name="verse" number="3"><syllabic>single</syllabic><text font-size="10.8">im</text></lyric></note></measure><!--=======================================================--><measure number="21" width="152"><print new-system="no" /><harmony default-y="29" font-size="10" font-weight="bold"><root><root-step>G</root-step></root><kind text="">major</kind></harmony><note default-x="32"><pitch><step>G</step><octave>4</octave></pitch><duration>8</duration><tie type="start" /><voice>1</voice><type>whole</type><notations><tied type="start" /></notations><lyric default-y="-95" name="verse" number="1"><syllabic>end</syllabic><text font-size="10.8">für.</text><extend /></lyric><lyric default-y="-120" name="verse" number="2"><syllabic>single</syllabic><text font-size="10.8">Zeit.</text><extend /></lyric><lyric default-y="-145" name="verse" number="3"><syllabic>single</syllabic><text font-size="10.8">Stich.</text><extend /></lyric></note></measure><!--=======================================================--><measure number="22" width="143"><print new-system="no" /><harmony default-y="29" font-size="10" font-weight="bold"><root><root-step>C</root-step></root><kind text="">major</kind><bass><bass-step>G</bass-step></bass></harmony><note default-x="25"><pitch><step>G</step><octave>4</octave></pitch><duration>8</duration><tie type="stop" /><tie type="start" /><voice>1</voice><type>whole</type><notations><tied type="stop" /><tied type="start" /></notations></note></measure><!--=======================================================--><measure number="23" width="155"><print new-system="no" /><harmony default-y="29" font-size="10" font-weight="bold"><root><root-step>G</root-step></root><kind text="">major</kind></harmony><note default-x="13"><pitch><step>G</step><octave>4</octave></pitch><duration>4</duration><tie type="stop" /><voice>1</voice><type>half</type><stem default-y="6">up</stem><notations><tied type="stop" /></notations></note><note default-x="81"><rest /><duration>4</duration><voice>1</voice><type>half</type></note></measure><!--=======================================================--><measure number="24" width="233"><print new-system="no" /><barline location="left"><ending default-y="71" end-length="71" font-size="6.2" number="1, 2" type="start" /></barline><note default-x="10"><rest /><duration>6</duration><voice>1</voice><type>half</type><dot /></note><note default-x="117"><pitch><step>B</step><octave>3</octave></pitch><duration>1</duration><voice>1</voice><type>eighth</type><stem default-y="-19.5">up</stem><beam number="1">begin</beam><lyric default-y="-95" name="verse" number="1"><syllabic>single</syllabic><text font-size="10.8">2.</text><elision /><syllabic>single</syllabic><text font-size="10.8">Herr,</text></lyric><lyric default-y="-120" name="verse" number="2"><syllabic>single</syllabic><text font-size="10.8">3.</text><elision /><syllabic>single</syllabic><text font-size="10.8">Herr,</text></lyric></note><note default-x="177"><pitch><step>C</step><octave>4</octave></pitch><duration>1</duration><voice>1</voice><type>eighth</type><stem default-y="-15">up</stem><beam number="1">end</beam><lyric default-y="-95" name="verse" number="1"><syllabic>single</syllabic><text font-size="10.8">in</text></lyric><lyric default-y="-120" name="verse" number="2"><syllabic>single</syllabic><text font-size="10.8">in</text></lyric></note><barline location="right"><bar-style>light-heavy</bar-style><ending number="1, 2" type="stop" /><repeat direction="backward" /></barline></measure><!--=======================================================--><measure number="25" width="125"><print new-system="no" /><barline location="left"><ending default-y="71" end-length="71" font-size="6.2" number="3" type="start" /></barline><note><rest /><duration>8</duration><voice>1</voice></note><barline location="right"><bar-style>light-heavy</bar-style><ending number="3" type="stop" /></barline></measure></part><!--=========================================================--></score-partwise>