<?xml version="1.0" encoding="UTF-8"?><!DOCTYPE score-partwise PUBLIC "-//Recordare//DTD MusicXML 2.0 Partwise//EN" "http://www.musicxml.org/dtds/partwise.dtd"[]><score-partwise version="2.0"><movement-title>Herr unendlich viel</movement-title><identification><creator type="composer">Albert Frey</creator><encoding><software>Finale 2011 for Windows</software><software>Dolet Light for Finale 2011</software><encoding-date>2012-12-17</encoding-date><supports attribute="new-system" element="print" type="yes" value="yes" /><supports attribute="new-page" element="print" type="yes" value="yes" /></encoding><rights>CCLI-Liednummer 4662099
© 1995 Immanuel Music, Ravensburg
Nutzung ausschließlich im Rahmen der SongSelect®-Nutzungsbedingungen. Alle Rechte vorbehalten. www.ccli.com
CCLI-Lizenznummer 2182334
</rights></identification><defaults><scaling><millimeters>6.5088</millimeters><tenths>40</tenths></scaling><page-layout><page-height>1771</page-height><page-width>1308</page-width><page-margins type="both"><left-margin>78</left-margin><right-margin>78</right-margin><top-margin>78</top-margin><bottom-margin>78</bottom-margin></page-margins></page-layout><system-layout><system-margins><left-margin>0</left-margin><right-margin>780</right-margin></system-margins><system-distance>195</system-distance><top-system-distance>122</top-system-distance></system-layout><appearance><line-width type="stem">1.4583</line-width><line-width type="beam">5</line-width><line-width type="staff">1.25</line-width><line-width type="light barline">1.4583</line-width><line-width type="heavy barline">5</line-width><line-width type="leger">1.875</line-width><line-width type="ending">1.4583</line-width><line-width type="wedge">1.4583</line-width><line-width type="enclosure">1.4583</line-width><line-width type="tuplet bracket">1.4583</line-width><note-size type="grace">50</note-size><note-size type="cue">50</note-size></appearance><music-font font-family="Maestro" font-size="18.5" /><word-font font-family="Arial" font-size="9.2" /><lyric-font font-family="Arial" font-size="10.8" name="verse" /><lyric-font font-family="Arial" font-size="10.8" name="section" /></defaults><credit page="1"><credit-words default-x="654" default-y="1688" font-size="21.6" font-weight="bold" justify="center" valign="top">Herr unendlich viel</credit-words></credit><credit page="1"><credit-words default-x="1230" default-y="1620" font-size="10.8" font-style="italic" justify="right" valign="top">Text und Musik:</credit-words><credit-words font-size="10.8" font-style="normal" font-weight="bold">
Albert Frey</credit-words></credit><part-list><score-part id="P1"><part-name print-object="no">Melodie</part-name><score-instrument id="P1-I2"><instrument-name>Melodie</instrument-name></score-instrument><midi-instrument id="P1-I2"><midi-channel>1</midi-channel><midi-program>1</midi-program><volume>80</volume><pan>0</pan></midi-instrument></score-part></part-list><!--=========================================================--><part id="P1"><measure number="1" width="380"><print><page-layout><page-height>1771</page-height><page-width>1308</page-width><page-margins><left-margin>78</left-margin><right-margin>78</right-margin><top-margin>78</top-margin><bottom-margin>163</bottom-margin></page-margins></page-layout><system-layout><system-margins><left-margin>68</left-margin><right-margin>0</right-margin></system-margins><top-system-distance>244</top-system-distance></system-layout><measure-numbering>system</measure-numbering></print><attributes><divisions>8</divisions><key><fifths>2</fifths><mode>major</mode></key><time><beats>4</beats><beat-type>4</beat-type></time><clef><sign>G</sign><line>2</line></clef></attributes><sound tempo="96" /><harmony default-y="29" font-size="10" font-weight="bold"><root><root-step>D</root-step></root><kind halign="center" text="">major</kind></harmony><note default-x="126"><pitch><step>D</step><octave>4</octave></pitch><duration>24</duration><voice>1</voice><type>half</type><dot /><stem default-y="-9">up</stem><lyric default-y="-95" name="verse" number="1"><syllabic>single</syllabic><text font-size="10.8">Herr,</text></lyric></note><note default-x="229"><pitch><step>D</step><octave>4</octave></pitch><duration>2</duration><voice>1</voice><type>16th</type><stem default-y="-5">up</stem><beam number="1">begin</beam><beam number="2">begin</beam><lyric default-y="-95" name="verse" number="1"><syllabic>begin</syllabic><text font-size="10.8">un</text></lyric></note><note default-x="280"><pitch><step>E</step><octave>4</octave></pitch><duration>2</duration><voice>1</voice><type>16th</type><stem default-y="-3">up</stem><beam number="1">continue</beam><beam number="2">end</beam><lyric default-y="-95" name="verse" number="1"><syllabic>middle</syllabic><text font-size="10.8">end</text></lyric></note><note default-x="333"><pitch><step>F</step><alter>1</alter><octave>4</octave></pitch><duration>4</duration><voice>1</voice><type>eighth</type><stem default-y="0">up</stem><beam number="1">end</beam><lyric default-y="-95" name="verse" number="1"><syllabic>end</syllabic><text font-size="10.8">lich</text></lyric></note></measure><!--=======================================================--><measure number="2" width="420"><note default-x="11"><pitch><step>G</step><octave>4</octave></pitch><duration>6</duration><voice>1</voice><type>eighth</type><dot /><stem default-y="5">up</stem><beam number="1">begin</beam><lyric default-y="-95" name="verse" number="1"><syllabic>single</syllabic><text font-size="10.8">viel</text></lyric></note><note default-x="72"><pitch><step>F</step><alter>1</alter><octave>4</octave></pitch><duration>2</duration><tie type="start" /><voice>1</voice><type>16th</type><stem default-y="0">up</stem><beam number="1">end</beam><beam number="2">backward hook</beam><notations><tied type="start" /></notations><lyric default-y="-95" name="verse" number="1"><syllabic>single</syllabic><text font-size="10.8">hast</text><extend /></lyric></note><note default-x="104"><pitch><step>F</step><alter>1</alter><octave>4</octave></pitch><duration>4</duration><tie type="stop" /><voice>1</voice><type>eighth</type><stem default-y="0">up</stem><beam number="1">begin</beam><notations><tied type="stop" /></notations></note><note default-x="138"><pitch><step>E</step><octave>4</octave></pitch><duration>4</duration><tie type="start" /><voice>1</voice><type>eighth</type><stem default-y="-5">up</stem><beam number="1">end</beam><notations><tied type="start" /></notations><lyric default-y="-95" name="verse" number="1"><syllabic>single</syllabic><text font-size="10.8">du</text><extend /></lyric></note><note default-x="172"><pitch><step>E</step><octave>4</octave></pitch><duration>2</duration><tie type="stop" /><voice>1</voice><type>16th</type><stem default-y="-5">up</stem><beam number="1">begin</beam><beam number="2">forward hook</beam><notations><tied type="stop" /></notations></note><note default-x="204"><pitch><step>D</step><octave>4</octave></pitch><duration>6</duration><voice>1</voice><type>eighth</type><dot /><stem default-y="-10">up</stem><beam number="1">end</beam><lyric default-y="-95" name="verse" number="1"><syllabic>single</syllabic><text font-size="10.8">für</text></lyric></note><note default-x="266"><pitch><step>C</step><alter>1</alter><octave>4</octave></pitch><duration>4</duration><voice>1</voice><type>eighth</type><stem default-y="-10">up</stem><beam number="1">begin</beam><lyric default-y="-95" name="verse" number="1"><syllabic>single</syllabic><text font-size="10.8">mich</text></lyric></note><note default-x="324"><pitch><step>D</step><octave>4</octave></pitch><duration>2</duration><voice>1</voice><type>16th</type><stem default-y="-10">up</stem><beam number="1">continue</beam><beam number="2">begin</beam><lyric default-y="-95" name="verse" number="1"><syllabic>begin</syllabic><text font-size="10.8">ge</text></lyric></note><note default-x="375"><pitch><step>B</step><octave>3</octave></pitch><duration>2</duration><tie type="start" /><voice>1</voice><type>16th</type><stem default-y="-10">up</stem><beam number="1">end</beam><beam number="2">end</beam><notations><tied type="start" /></notations><lyric default-y="-95" name="verse" number="1"><syllabic>end</syllabic><text font-size="10.8">tan,</text><extend /></lyric></note></measure><!--=======================================================--><measure number="3" width="284"><harmony default-y="29" font-size="10" font-weight="bold"><root><root-step>G</root-step></root><kind halign="center" text="">major</kind></harmony><note default-x="13"><pitch><step>B</step><octave>3</octave></pitch><duration>24</duration><tie type="stop" /><voice>1</voice><type>half</type><dot /><stem default-y="-19">up</stem><notations><tied type="stop" /></notations></note><note default-x="117"><pitch><step>E</step><octave>4</octave></pitch><duration>2</duration><voice>1</voice><type>16th</type><stem default-y="0">up</stem><beam number="1">begin</beam><beam number="2">begin</beam><lyric default-y="-95" name="verse" number="1"><syllabic>single</syllabic><text font-size="10.8">von</text></lyric></note><note default-x="173"><pitch><step>F</step><alter>1</alter><octave>4</octave></pitch><duration>2</duration><voice>1</voice><type>16th</type><stem default-y="3">up</stem><beam number="1">continue</beam><beam number="2">end</beam><lyric default-y="-95" name="verse" number="1"><syllabic>begin</syllabic><text font-size="10.8">gan</text></lyric></note><note default-x="232"><pitch><step>G</step><octave>4</octave></pitch><duration>4</duration><voice>1</voice><type>eighth</type><stem default-y="5">up</stem><beam number="1">end</beam><lyric default-y="-95" name="verse" number="1"><syllabic>end</syllabic><text font-size="10.8">zem</text></lyric></note></measure><!--=======================================================--><measure number="4" width="473"><print new-system="yes"><system-layout><system-margins><left-margin>0</left-margin><right-margin>0</right-margin></system-margins><system-distance>184</system-distance></system-layout></print><harmony default-y="29" font-size="10" font-weight="bold"><root><root-step>E</root-step></root><kind halign="center" text="m">minor</kind></harmony><note default-x="95"><pitch><step>G</step><octave>4</octave></pitch><duration>6</duration><voice>1</voice><type>eighth</type><dot /><stem default-y="5">up</stem><beam number="1">begin</beam><lyric default-y="-95" name="verse" number="1"><syllabic>begin</syllabic><text font-size="10.8">Her</text></lyric></note><note default-x="154"><pitch><step>F</step><alter>1</alter><octave>4</octave></pitch><duration>2</duration><tie type="start" /><voice>1</voice><type>16th</type><stem default-y="0">up</stem><beam number="1">end</beam><beam number="2">backward hook</beam><notations><tied type="start" /></notations><lyric default-y="-95" name="verse" number="1"><syllabic>end</syllabic><text font-size="10.8">zen</text><extend /></lyric></note><note default-x="185"><pitch><step>F</step><alter>1</alter><octave>4</octave></pitch><duration>4</duration><tie type="stop" /><voice>1</voice><type>eighth</type><stem default-y="0">up</stem><beam number="1">begin</beam><notations><tied type="stop" /></notations></note><harmony default-y="29" font-size="10" font-weight="bold"><root><root-step>A</root-step></root><kind halign="center" text="">major</kind></harmony><note default-x="216"><pitch><step>E</step><octave>4</octave></pitch><duration>4</duration><tie type="start" /><voice>1</voice><type>eighth</type><stem default-y="-5">up</stem><beam number="1">end</beam><notations><tied type="start" /></notations><lyric default-y="-95" name="verse" number="1"><syllabic>begin</syllabic><text font-size="10.8">be</text></lyric></note><note default-x="248"><pitch><step>E</step><octave>4</octave></pitch><duration>2</duration><tie type="stop" /><voice>1</voice><type>16th</type><stem default-y="-5">up</stem><beam number="1">begin</beam><beam number="2">forward hook</beam><notations><tied type="stop" /></notations></note><note default-x="274"><pitch><step>D</step><octave>4</octave></pitch><duration>6</duration><voice>1</voice><type>eighth</type><dot /><stem default-y="-10">up</stem><beam number="1">end</beam><lyric default-y="-95" name="verse" number="1"><syllabic>end</syllabic><text font-size="10.8">te</text></lyric></note><note default-x="319"><pitch><step>C</step><alter>1</alter><octave>4</octave></pitch><duration>4</duration><voice>1</voice><type>eighth</type><stem default-y="-10">up</stem><beam number="1">begin</beam><lyric default-y="-95" name="verse" number="1"><syllabic>single</syllabic><text font-size="10.8">ich</text></lyric></note><note default-x="375"><pitch><step>D</step><octave>4</octave></pitch><duration>2</duration><voice>1</voice><type>16th</type><stem default-y="-10">up</stem><beam number="1">continue</beam><beam number="2">begin</beam><lyric default-y="-95" name="verse" number="1"><syllabic>single</syllabic><text font-size="10.8">dich</text></lyric></note><note default-x="430"><pitch><step>A</step><octave>3</octave></pitch><duration>2</duration><tie type="start" /><voice>1</voice><type>16th</type><stem default-y="-10">up</stem><beam number="1">end</beam><beam number="2">end</beam><notations><tied type="start" /></notations><lyric default-y="-95" name="verse" number="1"><syllabic>single</syllabic><text font-size="10.8">an.</text><extend /></lyric></note></measure><!--=======================================================--><measure number="5" width="261"><harmony default-y="29" font-size="10" font-weight="bold"><root><root-step>D</root-step></root><kind halign="center" text="">major</kind></harmony><note default-x="14"><pitch><step>A</step><octave>3</octave></pitch><duration>24</duration><tie type="stop" /><voice>1</voice><type>half</type><dot /><stem default-y="-19">up</stem><notations><tied type="stop" /></notations></note><note default-x="111"><pitch><step>D</step><octave>4</octave></pitch><duration>2</duration><voice>1</voice><type>16th</type><stem default-y="-5">up</stem><beam number="1">begin</beam><beam number="2">begin</beam><lyric default-y="-95" name="verse" number="1"><syllabic>begin</syllabic><text font-size="10.8">Un</text></lyric></note><note default-x="162"><pitch><step>E</step><octave>4</octave></pitch><duration>2</duration><voice>1</voice><type>16th</type><stem default-y="-3">up</stem><beam number="1">continue</beam><beam number="2">end</beam><lyric default-y="-95" name="verse" number="1"><syllabic>middle</syllabic><text font-size="10.8">end</text></lyric></note><note default-x="216"><pitch><step>F</step><alter>1</alter><octave>4</octave></pitch><duration>4</duration><voice>1</voice><type>eighth</type><stem default-y="0">up</stem><beam number="1">end</beam><lyric default-y="-95" name="verse" number="1"><syllabic>end</syllabic><text font-size="10.8">lich</text></lyric></note></measure><!--=======================================================--><measure number="6" width="418"><note default-x="17"><pitch><step>G</step><octave>4</octave></pitch><duration>6</duration><voice>1</voice><type>eighth</type><dot /><stem default-y="5">up</stem><beam number="1">begin</beam><lyric default-y="-95" name="verse" number="1"><syllabic>single</syllabic><text font-size="10.8">groß</text></lyric></note><note default-x="73"><pitch><step>F</step><alter>1</alter><octave>4</octave></pitch><duration>2</duration><tie type="start" /><voice>1</voice><type>16th</type><stem default-y="0">up</stem><beam number="1">end</beam><beam number="2">backward hook</beam><notations><tied type="start" /></notations><lyric default-y="-95" name="verse" number="1"><syllabic>single</syllabic><text font-size="10.8">ist</text><extend /></lyric></note><note default-x="103"><pitch><step>F</step><alter>1</alter><octave>4</octave></pitch><duration>4</duration><tie type="stop" /><voice>1</voice><type>eighth</type><stem default-y="0">up</stem><beam number="1">begin</beam><notations><tied type="stop" /></notations></note><note default-x="137"><pitch><step>E</step><octave>4</octave></pitch><duration>4</duration><tie type="start" /><voice>1</voice><type>eighth</type><stem default-y="-5">up</stem><beam number="1">end</beam><notations><tied type="start" /></notations><lyric default-y="-95" name="verse" number="1"><syllabic>begin</syllabic><text font-size="10.8">dei</text></lyric></note><note default-x="170"><pitch><step>E</step><octave>4</octave></pitch><duration>2</duration><tie type="stop" /><voice>1</voice><type>16th</type><stem default-y="-5">up</stem><beam number="1">begin</beam><beam number="2">forward hook</beam><notations><tied type="stop" /></notations></note><note default-x="199"><pitch><step>D</step><octave>4</octave></pitch><duration>6</duration><voice>1</voice><type>eighth</type><dot /><stem default-y="-10">up</stem><beam number="1">end</beam><lyric default-y="-95" name="verse" number="1"><syllabic>end</syllabic><text font-size="10.8">ne</text></lyric></note><note default-x="255"><pitch><step>C</step><alter>1</alter><octave>4</octave></pitch><duration>4</duration><voice>1</voice><type>eighth</type><stem default-y="-10">up</stem><beam number="1">begin</beam><lyric default-y="-95" name="verse" number="1"><syllabic>begin</syllabic><text font-size="10.8">Herr</text></lyric></note><note default-x="315"><pitch><step>D</step><octave>4</octave></pitch><duration>2</duration><voice>1</voice><type>16th</type><stem default-y="-10">up</stem><beam number="1">continue</beam><beam number="2">begin</beam><lyric default-y="-95" name="verse" number="1"><syllabic>middle</syllabic><text font-size="10.8">lich</text></lyric></note><note default-x="371"><pitch><step>B</step><octave>3</octave></pitch><duration>2</duration><tie type="start" /><voice>1</voice><type>16th</type><stem default-y="-10">up</stem><beam number="1">end</beam><beam number="2">end</beam><notations><tied type="start" /></notations><lyric default-y="-95" name="verse" number="1"><syllabic>end</syllabic><text font-size="10.8">keit,</text><extend /></lyric></note></measure><!--=======================================================--><measure number="7" width="342"><print new-system="yes"><system-layout><system-margins><left-margin>0</left-margin><right-margin>0</right-margin></system-margins><system-distance>184</system-distance></system-layout></print><harmony default-y="29" font-size="10" font-weight="bold"><root><root-step>G</root-step></root><kind halign="center" text="">major</kind></harmony><note default-x="88"><pitch><step>B</step><octave>3</octave></pitch><duration>24</duration><tie type="stop" /><voice>1</voice><type>half</type><dot /><stem default-y="-19">up</stem><notations><tied type="stop" /></notations></note><note default-x="191"><pitch><step>E</step><octave>4</octave></pitch><duration>2</duration><voice>1</voice><type>16th</type><stem default-y="0">up</stem><beam number="1">begin</beam><beam number="2">begin</beam><lyric default-y="-95" name="verse" number="1"><syllabic>begin</syllabic><text font-size="10.8">un</text></lyric></note><note default-x="241"><pitch><step>F</step><alter>1</alter><octave>4</octave></pitch><duration>2</duration><voice>1</voice><type>16th</type><stem default-y="2">up</stem><beam number="1">continue</beam><beam number="2">end</beam><lyric default-y="-95" name="verse" number="1"><syllabic>middle</syllabic><text font-size="10.8">end</text></lyric></note><note default-x="295"><pitch><step>G</step><octave>4</octave></pitch><duration>4</duration><voice>1</voice><type>eighth</type><stem default-y="5">up</stem><beam number="1">end</beam><lyric default-y="-95" name="verse" number="1"><syllabic>end</syllabic><text font-size="10.8">lich</text></lyric></note></measure><!--=======================================================--><measure number="8" width="456"><harmony default-y="29" font-size="10" font-weight="bold"><root><root-step>E</root-step></root><kind halign="center" text="m">minor</kind></harmony><note default-x="20"><pitch><step>G</step><octave>4</octave></pitch><duration>6</duration><voice>1</voice><type>eighth</type><dot /><stem default-y="5">up</stem><beam number="1">begin</beam><lyric default-y="-95" name="verse" number="1"><syllabic>single</syllabic><text font-size="10.8">stark</text></lyric></note><note default-x="81"><pitch><step>F</step><alter>1</alter><octave>4</octave></pitch><duration>2</duration><tie type="start" /><voice>1</voice><type>16th</type><stem default-y="0">up</stem><beam number="1">end</beam><beam number="2">backward hook</beam><notations><tied type="start" /></notations><lyric default-y="-95" name="verse" number="1"><syllabic>single</syllabic><text font-size="10.8">ist</text><extend /></lyric></note><note default-x="113"><pitch><step>F</step><alter>1</alter><octave>4</octave></pitch><duration>4</duration><tie type="stop" /><voice>1</voice><type>eighth</type><stem default-y="0">up</stem><beam number="1">begin</beam><notations><tied type="stop" /></notations></note><harmony default-y="29" font-size="10" font-weight="bold"><root><root-step>A</root-step></root><kind halign="center" text="">major</kind></harmony><note default-x="149"><pitch><step>E</step><octave>4</octave></pitch><duration>4</duration><tie type="start" /><voice>1</voice><type>eighth</type><stem default-y="-5">up</stem><beam number="1">end</beam><notations><tied type="start" /></notations><lyric default-y="-95" name="verse" number="1"><syllabic>begin</syllabic><text font-size="10.8">dei</text></lyric></note><note default-x="184"><pitch><step>E</step><octave>4</octave></pitch><duration>2</duration><tie type="stop" /><voice>1</voice><type>16th</type><stem default-y="-5">up</stem><beam number="1">begin</beam><beam number="2">forward hook</beam><notations><tied type="stop" /></notations></note><note default-x="218"><pitch><step>D</step><octave>4</octave></pitch><duration>6</duration><voice>1</voice><type>eighth</type><dot /><stem default-y="-10">up</stem><beam number="1">end</beam><lyric default-y="-95" name="verse" number="1"><syllabic>end</syllabic><text font-size="10.8">ner</text></lyric></note><note default-x="275"><pitch><step>C</step><alter>1</alter><octave>4</octave></pitch><duration>4</duration><voice>1</voice><type>eighth</type><stem default-y="-10">up</stem><beam number="1">begin</beam><lyric default-y="-95" name="verse" number="1"><syllabic>begin</syllabic><text font-size="10.8">Lie</text></lyric></note><direction placement="above"><direction-type><words default-x="423" default-y="46" font-style="italic" justify="right">Beim 2. Mal zur Coda</words></direction-type><sound tocoda="14" /></direction><note default-x="324"><pitch><step>D</step><octave>4</octave></pitch><duration>2</duration><voice>1</voice><type>16th</type><stem default-y="-10">up</stem><beam number="1">continue</beam><beam number="2">begin</beam><lyric default-y="-95" name="verse" number="1"><syllabic>end</syllabic><text font-size="10.8">be</text></lyric></note><note default-x="389"><pitch><step>D</step><octave>4</octave></pitch><duration>2</duration><tie type="start" /><voice>1</voice><type>16th</type><stem default-y="-10">up</stem><beam number="1">end</beam><beam number="2">end</beam><notations><tied type="start" /></notations><lyric default-y="-95" name="verse" number="1"><syllabic>single</syllabic><text font-size="10.8">Macht.</text><extend /></lyric></note><direction placement="above"><direction-type><coda default-x="440" default-y="46" /></direction-type><sound coda="8" divisions="8" /></direction><barline location="right"><bar-style>light-light</bar-style></barline></measure><!--=======================================================--><measure number="9" width="354"><harmony default-y="29" font-size="10" font-weight="bold"><root><root-step>D</root-step></root><kind halign="center" text="">major</kind></harmony><note default-x="11"><pitch><step>D</step><octave>4</octave></pitch><duration>16</duration><tie type="stop" /><voice>1</voice><type>half</type><stem default-y="-9">up</stem><notations><tied type="stop" /></notations></note><note default-x="91"><rest /><duration>6</duration><voice>1</voice><type>eighth</type><dot /></note><note default-x="132"><pitch><step>D</step><octave>4</octave></pitch><duration>2</duration><voice>1</voice><type>16th</type><stem default-y="-9">up</stem><lyric default-y="-95" name="verse" number="1"><syllabic>single</syllabic><text font-size="10.8">Du</text></lyric></note><note default-x="186"><pitch><step>F</step><alter>1</alter><octave>4</octave></pitch><duration>2</duration><voice>1</voice><type>16th</type><stem default-y="5">up</stem><beam number="1">begin</beam><beam number="2">begin</beam><lyric default-y="-95" name="verse" number="1"><syllabic>single</syllabic><text font-size="10.8">hast</text></lyric></note><note default-x="251"><pitch><step>G</step><octave>4</octave></pitch><duration>2</duration><voice>1</voice><type>16th</type><stem default-y="8">up</stem><beam number="1">continue</beam><beam number="2">end</beam><lyric default-y="-95" name="verse" number="1"><syllabic>single</syllabic><text font-size="10.8">mich</text></lyric></note><note default-x="305"><pitch><step>A</step><octave>4</octave></pitch><duration>4</duration><voice>1</voice><type>eighth</type><stem default-y="10">up</stem><beam number="1">end</beam><lyric default-y="-95" name="verse" number="1"><syllabic>begin</syllabic><text font-size="10.8">be</text></lyric></note><barline location="right"><bar-style>light-light</bar-style></barline></measure><!--=======================================================--><measure number="10" width="644"><print new-system="yes"><system-layout><system-margins><left-margin>0</left-margin><right-margin>0</right-margin></system-margins><system-distance>184</system-distance></system-layout></print><harmony default-y="29" font-size="10" font-weight="bold"><root><root-step>D</root-step></root><kind halign="center" text="">major</kind><bass><bass-step>C</bass-step></bass></harmony><note default-x="89"><pitch><step>A</step><octave>4</octave></pitch><duration>4</duration><voice>1</voice><type>eighth</type><stem default-y="10">up</stem><beam number="1">begin</beam><lyric default-y="-95" name="verse" number="1"><syllabic>end</syllabic><text font-size="10.8">freit</text></lyric></note><note default-x="158"><pitch><step>G</step><octave>4</octave></pitch><duration>2</duration><voice>1</voice><type>16th</type><stem default-y="8">up</stem><beam number="1">continue</beam><beam number="2">begin</beam><lyric default-y="-95" name="verse" number="1"><syllabic>single</syllabic><text font-size="10.8">vom</text></lyric></note><note default-x="222"><pitch><step>G</step><octave>4</octave></pitch><duration>2</duration><tie type="start" /><voice>1</voice><type>16th</type><stem default-y="5">up</stem><beam number="1">end</beam><beam number="2">end</beam><notations><tied type="start" /></notations><lyric default-y="-95" name="verse" number="1"><syllabic>single</syllabic><text font-size="10.8">Weg</text><extend /></lyric></note><note default-x="257"><pitch><step>G</step><octave>4</octave></pitch><duration>2</duration><tie type="stop" /><voice>1</voice><type>16th</type><stem default-y="5">up</stem><beam number="1">begin</beam><beam number="2">forward hook</beam><notations><tied type="stop" /></notations></note><note default-x="297"><pitch><step>F</step><alter>1</alter><octave>4</octave></pitch><duration>4</duration><voice>1</voice><type>eighth</type><stem default-y="3">up</stem><beam number="1">continue</beam><lyric default-y="-95" name="verse" number="1"><syllabic>single</syllabic><text font-size="10.8">des</text></lyric></note><note default-x="357"><pitch><step>F</step><alter>1</alter><octave>4</octave></pitch><duration>2</duration><tie type="start" /><voice>1</voice><type>16th</type><stem default-y="0">up</stem><beam number="1">end</beam><beam number="2">backward hook</beam><notations><tied type="start" /></notations><lyric default-y="-95" name="verse" number="1"><syllabic>begin</syllabic><text font-size="10.8">To</text></lyric></note><note default-x="392"><pitch><step>F</step><alter>1</alter><octave>4</octave></pitch><duration>2</duration><tie type="stop" /><voice>1</voice><type>16th</type><stem default-y="0">up</stem><beam number="1">begin</beam><beam number="2">forward hook</beam><notations><tied type="stop" /></notations></note><note default-x="435"><pitch><step>D</step><octave>4</octave></pitch><duration>6</duration><voice>1</voice><type>eighth</type><dot /><stem default-y="-5">up</stem><beam number="1">end</beam><lyric default-y="-95" name="verse" number="1"><syllabic>end</syllabic><text font-size="10.8">des,</text></lyric></note><note default-x="488"><rest /><duration>4</duration><voice>1</voice><type>eighth</type></note><note default-x="537"><pitch><step>D</step><octave>4</octave></pitch><duration>2</duration><voice>1</voice><type>16th</type><stem default-y="5">up</stem><beam number="1">begin</beam><beam number="2">begin</beam><lyric default-y="-95" name="verse" number="1"><syllabic>single</syllabic><text font-size="10.8">mich</text></lyric></note><note default-x="596"><pitch><step>A</step><octave>4</octave></pitch><duration>2</duration><voice>1</voice><type>16th</type><stem default-y="10">up</stem><beam number="1">end</beam><beam number="2">end</beam><lyric default-y="-95" name="verse" number="1"><syllabic>single</syllabic><text font-size="10.8">auf</text></lyric></note></measure><!--=======================================================--><measure number="11" width="508"><harmony default-y="29" font-size="10" font-weight="bold"><root><root-step>G</root-step></root><kind halign="center" text="">major</kind><bass><bass-step>B</bass-step></bass></harmony><note default-x="16"><pitch><step>A</step><octave>4</octave></pitch><duration>4</duration><voice>1</voice><type>eighth</type><stem default-y="10">up</stem><beam number="1">begin</beam><lyric default-y="-95" name="verse" number="1"><syllabic>begin</syllabic><text font-size="10.8">wei</text></lyric></note><note default-x="75"><pitch><step>G</step><octave>4</octave></pitch><duration>2</duration><voice>1</voice><type>16th</type><stem default-y="8">up</stem><beam number="1">continue</beam><beam number="2">begin</beam><lyric default-y="-95" name="verse" number="1"><syllabic>end</syllabic><text font-size="10.8">tes</text></lyric></note><note default-x="134"><pitch><step>G</step><octave>4</octave></pitch><duration>2</duration><tie type="start" /><voice>1</voice><type>16th</type><stem default-y="5">up</stem><beam number="1">end</beam><beam number="2">end</beam><notations><tied type="start" /></notations><lyric default-y="-95" name="verse" number="1"><syllabic>single</syllabic><text font-size="10.8">Land</text><extend /></lyric></note><note default-x="169"><pitch><step>G</step><octave>4</octave></pitch><duration>2</duration><tie type="stop" /><voice>1</voice><type>16th</type><stem default-y="5">up</stem><beam number="1">begin</beam><beam number="2">forward hook</beam><notations><tied type="stop" /></notations></note><note default-x="203"><pitch><step>F</step><alter>1</alter><octave>4</octave></pitch><duration>4</duration><voice>1</voice><type>eighth</type><stem default-y="3.5">up</stem><beam number="1">continue</beam><lyric default-y="-95" name="verse" number="1"><syllabic>begin</syllabic><text font-size="10.8">ge</text></lyric></note><note default-x="268"><pitch><step>D</step><octave>4</octave></pitch><duration>2</duration><tie type="start" /><voice>1</voice><type>16th</type><stem default-y="0">up</stem><beam number="1">end</beam><beam number="2">backward hook</beam><notations><tied type="start" /></notations><lyric default-y="-95" name="verse" number="1"><syllabic>end</syllabic><text font-size="10.8">stellt,</text><extend /></lyric></note><note default-x="303"><pitch><step>D</step><octave>4</octave></pitch><duration>8</duration><tie type="stop" /><voice>1</voice><type>quarter</type><stem default-y="-9">up</stem><notations><tied type="stop" /></notations></note><note default-x="365"><rest /><duration>4</duration><voice>1</voice><type>eighth</type></note><note default-x="408"><pitch><step>D</step><octave>4</octave></pitch><duration>2</duration><voice>1</voice><type>16th</type><stem default-y="5">up</stem><beam number="1">begin</beam><beam number="2">begin</beam><lyric default-y="-95" name="verse" number="1"><syllabic>single</syllabic><text font-size="10.8">und</text></lyric></note><note default-x="461"><pitch><step>A</step><octave>4</octave></pitch><duration>2</duration><voice>1</voice><type>16th</type><stem default-y="10">up</stem><beam number="1">end</beam><beam number="2">end</beam><lyric default-y="-95" name="verse" number="1"><syllabic>single</syllabic><text font-size="10.8">mit</text></lyric></note></measure><!--=======================================================--><measure number="12" width="693"><print new-system="yes"><system-layout><system-margins><left-margin>0</left-margin><right-margin>0</right-margin></system-margins><system-distance>184</system-distance></system-layout></print><harmony default-y="29" font-size="10" font-weight="bold"><root><root-step>G</root-step></root><kind halign="center" text="m">minor</kind><bass><bass-step>B</bass-step><bass-alter>-1</bass-alter></bass></harmony><note default-x="99"><pitch><step>A</step><octave>4</octave></pitch><duration>4</duration><voice>1</voice><type>eighth</type><stem default-y="10">up</stem><beam number="1">begin</beam><lyric default-y="-95" name="verse" number="1"><syllabic>single</syllabic><text font-size="10.8">dir</text></lyric></note><note default-x="172"><pitch><step>G</step><octave>4</octave></pitch><duration>2</duration><voice>1</voice><type>16th</type><stem default-y="7">up</stem><beam number="1">continue</beam><beam number="2">begin</beam><lyric default-y="-95" name="verse" number="1"><syllabic>single</syllabic><text font-size="10.8">darf</text></lyric></note><note default-x="218"><pitch><step>G</step><octave>4</octave></pitch><duration>2</duration><tie type="start" /><voice>1</voice><type>16th</type><stem default-y="5">up</stem><beam number="1">end</beam><beam number="2">end</beam><notations><tied type="start" /></notations><lyric default-y="-95" name="verse" number="1"><syllabic>single</syllabic><text font-size="10.8">ich</text><extend /></lyric></note><note default-x="262"><pitch><step>G</step><octave>4</octave></pitch><duration>2</duration><tie type="stop" /><voice>1</voice><type>16th</type><stem default-y="5">up</stem><beam number="1">begin</beam><beam number="2">forward hook</beam><notations><tied type="stop" /></notations></note><note default-x="306"><pitch><step>F</step><alter>1</alter><octave>4</octave></pitch><duration>4</duration><voice>1</voice><type>eighth</type><stem default-y="3.5">up</stem><beam number="1">continue</beam><lyric default-y="-95" name="verse" number="1"><syllabic>single</syllabic><text font-size="10.8">nun</text></lyric></note><note default-x="377"><pitch><step>F</step><alter>1</alter><octave>4</octave></pitch><duration>2</duration><tie type="start" /><voice>1</voice><type>16th</type><stem default-y="0">up</stem><beam number="1">end</beam><beam number="2">backward hook</beam><notations><tied type="start" /></notations><lyric default-y="-95" name="verse" number="1"><syllabic>begin</syllabic><text font-size="10.8">le</text></lyric></note><note default-x="421"><pitch><step>F</step><alter>1</alter><octave>4</octave></pitch><duration>2</duration><tie type="stop" /><voice>1</voice><type>16th</type><stem default-y="0">up</stem><beam number="1">begin</beam><beam number="2">forward hook</beam><notations><tied type="stop" /></notations></note><note default-x="464"><pitch><step>D</step><octave>4</octave></pitch><duration>6</duration><voice>1</voice><type>eighth</type><dot /><stem default-y="-5">up</stem><beam number="1">end</beam><lyric default-y="-95" name="verse" number="1"><syllabic>end</syllabic><text font-size="10.8">ben</text></lyric></note><note default-x="556"><rest /><duration>6</duration><voice>1</voice><type>eighth</type><dot /></note><note default-x="648"><pitch><step>E</step><octave>4</octave></pitch><duration>2</duration><voice>1</voice><type>16th</type><stem default-y="-4">up</stem><lyric default-y="-95" name="verse" number="1"><syllabic>single</syllabic><text font-size="10.8">in</text></lyric></note></measure><!--=======================================================--><measure number="13" width="459"><harmony default-y="29" font-size="10" font-weight="bold"><root><root-step>D</root-step></root><kind halign="center" text="">major</kind><bass><bass-step>A</bass-step></bass></harmony><note default-x="15"><pitch><step>F</step><alter>1</alter><octave>4</octave></pitch><duration>4</duration><voice>1</voice><type>eighth</type><stem default-y="0">up</stem><beam number="1">begin</beam><lyric default-y="-95" name="verse" number="1"><syllabic>begin</syllabic><text font-size="10.8">al</text></lyric></note><note default-x="77"><pitch><step>E</step><octave>4</octave></pitch><duration>2</duration><voice>1</voice><type>16th</type><stem default-y="-3">up</stem><beam number="1">continue</beam><beam number="2">begin</beam><lyric default-y="-95" name="verse" number="1"><syllabic>end</syllabic><text font-size="10.8">le</text></lyric></note><note default-x="115"><pitch><step>E</step><octave>4</octave></pitch><duration>2</duration><tie type="start" /><voice>1</voice><type>16th</type><stem default-y="-5">up</stem><beam number="1">end</beam><beam number="2">end</beam><notations><tied type="start" /></notations><lyric default-y="-95" name="verse" number="1"><syllabic>begin</syllabic><text font-size="10.8">E</text></lyric></note><note default-x="153"><pitch><step>E</step><octave>4</octave></pitch><duration>2</duration><tie type="stop" /><voice>1</voice><type>16th</type><stem default-y="-5">up</stem><beam number="1">begin</beam><beam number="2">forward hook</beam><notations><tied type="stop" /></notations></note><note default-x="191"><pitch><step>D</step><octave>4</octave></pitch><duration>4</duration><voice>1</voice><type>eighth</type><stem default-y="-5">up</stem><beam number="1">continue</beam><lyric default-y="-95" name="verse" number="1"><syllabic>middle</syllabic><text font-size="10.8">wig</text></lyric></note><note default-x="253"><pitch><step>E</step><octave>4</octave></pitch><duration>2</duration><tie type="start" /><voice>1</voice><type>16th</type><stem default-y="-5">up</stem><beam number="1">end</beam><beam number="2">backward hook</beam><notations><tied type="start" /></notations><lyric default-y="-95" name="verse" number="1"><syllabic>end</syllabic><text font-size="10.8">keit.</text><extend /></lyric></note><harmony default-y="29" font-size="10" font-weight="bold"><root><root-step>A</root-step></root><kind halign="center" text="">major</kind></harmony><note default-x="291"><pitch><step>E</step><octave>4</octave></pitch><duration>16</duration><tie type="stop" /><voice>1</voice><type>half</type><stem default-y="-4">up</stem><notations><tied type="stop" /></notations></note><direction placement="above"><direction-type><words default-x="447" default-y="52" font-style="italic" justify="right">D.C. al Coda</words></direction-type></direction><barline location="right"><bar-style>light-light</bar-style></barline></measure><!--=======================================================--><measure number="14" width="302"><print new-system="yes"><system-layout><system-margins><left-margin>70</left-margin><right-margin>780</right-margin></system-margins><system-distance>184</system-distance></system-layout></print><direction placement="above"><direction-type><coda default-x="-5" default-y="52" /></direction-type><sound coda="14" divisions="8" /></direction><direction placement="above"><direction-type><words default-x="22" default-y="53" font-style="italic">Coda</words></direction-type></direction><harmony default-y="29" font-size="10" font-weight="bold"><root><root-step>D</root-step></root><kind halign="center" text="">major</kind></harmony><direction placement="below"><direction-type><bracket default-y="-95" line-end="none" line-type="solid" number="1" relative-x="-22" type="start" /></direction-type></direction><direction placement="below"><direction-type><bracket line-end="none" number="1" type="stop" /></direction-type><offset>2</offset></direction><note default-x="91"><pitch><step>D</step><octave>4</octave></pitch><duration>16</duration><voice>1</voice><type>half</type><stem default-y="-9">up</stem><notations><slur default-x="-12" default-y="-58" number="1" placement="below" type="start" /><slur number="1" type="stop" /><fermata default-x="-5" default-y="5" type="upright" /></notations></note><note default-x="189"><rest /><duration>16</duration><voice>1</voice><type>half</type></note><barline location="right"><bar-style>light-heavy</bar-style></barline></measure></part><!--=========================================================--></score-partwise>