<?xml version="1.0" encoding="UTF-8" standalone="no"?><!DOCTYPE score-partwise PUBLIC "-//Recordare//DTD MusicXML 3.0 Partwise//EN" "http://www.musicxml.org/dtds/partwise.dtd"[]><score-partwise version="3.0"><movement-title>Herr dein Name sei erhöht</movement-title><identification><creator type="composer">Rick Founds</creator><creator type="arranger">Karin Geitz</creator><encoding><software>Finale 2014 for Windows</software><software>Dolet Light for Finale 2014</software><encoding-date>2016-12-22</encoding-date><supports attribute="new-system" element="print" type="yes" value="yes" /><supports attribute="new-page" element="print" type="yes" value="yes" /><supports element="accidental" type="yes" /><supports element="beam" type="yes" /><supports element="stem" type="yes" /></encoding><rights>CCLI-Liednummer 5183120
© 1989 Universal Music - Brentwood Benson Publishing
Nutzung ausschließlich im Rahmen der SongSelect®-Nutzungsbedingungen. Alle Rechte vorbehalten. www.ccli.com
CCLI-Lizenznummer 2182334
</rights></identification><defaults><scaling><millimeters>6.5088</millimeters><tenths>40</tenths></scaling><page-layout><page-height>1717</page-height><page-width>1327</page-width><page-margins type="both"><left-margin>78</left-margin><right-margin>78</right-margin><top-margin>78</top-margin><bottom-margin>78</bottom-margin></page-margins></page-layout><system-layout><system-margins><left-margin>0</left-margin><right-margin>0</right-margin></system-margins><system-distance>190</system-distance><top-system-distance>117</top-system-distance></system-layout><appearance><line-width type="stem">1.4583</line-width><line-width type="beam">5</line-width><line-width type="staff">1.25</line-width><line-width type="light barline">1.4583</line-width><line-width type="heavy barline">5</line-width><line-width type="leger">1.875</line-width><line-width type="ending">1.4583</line-width><line-width type="wedge">1.4583</line-width><line-width type="enclosure">1.4583</line-width><line-width type="tuplet bracket">1.4583</line-width><note-size type="grace">50</note-size><note-size type="cue">50</note-size><distance type="hyphen">240</distance><distance type="beam">8</distance></appearance><music-font font-family="Maestro,engraved" font-size="18.5" /><word-font font-family="Arial" font-size="9.2" /><lyric-font font-family="Arial" font-size="10.8" name="verse" /><lyric-font font-family="Arial" font-size="10.8" name="section" /></defaults><credit page="1"><credit-type>title</credit-type><credit-words default-x="663" default-y="1649" font-size="21.6" font-weight="bold" justify="center" valign="top" xml:lang="de">Herr dein Name sei erhöht</credit-words></credit><credit page="1"><credit-words default-x="1249" default-y="1576" font-size="10.8" font-style="italic" justify="right" valign="top">Text und Musik:</credit-words></credit><credit page="1"><credit-type>composer</credit-type><credit-words default-x="1249" default-y="1552" font-size="10.8" font-weight="bold" justify="right" valign="top">Rick Founds</credit-words></credit><credit page="1"><credit-words default-x="78" default-y="1576" font-size="10.8" font-style="italic" valign="top">Deutsch:</credit-words></credit><credit page="1"><credit-type>arranger</credit-type><credit-words default-x="78" default-y="1552" font-size="10.8" font-weight="bold" valign="top">Karin Geitz</credit-words></credit><part-list><score-part id="P1"><part-name print-object="no">Vocals</part-name><score-instrument id="P1-I2"><instrument-name>Melody</instrument-name></score-instrument><midi-instrument id="P1-I2"><midi-channel>1</midi-channel><midi-program>1</midi-program><volume>80</volume><pan>0</pan></midi-instrument></score-part></part-list><!--=========================================================--><part id="P1"><measure number="1" width="549"><print><page-layout><page-height>1717</page-height><page-width>1327</page-width><page-margins><left-margin>78</left-margin><right-margin>78</right-margin><top-margin>190</top-margin><bottom-margin>163</bottom-margin></page-margins></page-layout><system-layout><system-margins><left-margin>68</left-margin><right-margin>0</right-margin></system-margins></system-layout><measure-numbering>system</measure-numbering></print><attributes><divisions>4</divisions><key><fifths>1</fifths><mode>major</mode></key><time><beats>4</beats><beat-type>4</beat-type></time><clef><sign>G</sign><line>2</line></clef></attributes><harmony default-y="36" font-size="10" font-weight="bold"><root><root-step>G</root-step></root><kind halign="center" text="">major</kind></harmony><direction placement="above"><direction-type><rehearsal default-y="69" font-weight="bold" relative-x="-5">VERS</rehearsal></direction-type></direction><direction placement="above"><direction-type><metronome default-y="59" halign="left" relative-x="-66"><beat-unit>quarter</beat-unit><per-minute>86</per-minute></metronome></direction-type><sound tempo="86" /></direction><note default-x="109"><rest /><duration>4</duration><voice>1</voice><type>quarter</type></note><note default-x="160"><pitch><step>B</step><octave>3</octave></pitch><duration>2</duration><voice>1</voice><type>eighth</type><stem default-y="-19">up</stem><beam number="1">begin</beam><lyric default-y="-91" name="verse" number="1"><syllabic>single</syllabic><text font-size="10.8">Herr,</text></lyric></note><note default-x="224"><pitch><step>D</step><octave>4</octave></pitch><duration>2</duration><voice>1</voice><type>eighth</type><stem default-y="-13.5">up</stem><beam number="1">end</beam><lyric default-y="-91" name="verse" number="1"><syllabic>single</syllabic><text font-size="10.8">dein</text></lyric></note><harmony default-y="36" font-size="10" font-weight="bold"><root><root-step>C</root-step></root><kind halign="center" text="">major</kind><bass><bass-step>G</bass-step></bass></harmony><note default-x="282"><pitch><step>G</step><octave>4</octave></pitch><duration>2</duration><voice>1</voice><type>eighth</type><stem default-y="1">up</stem><beam number="1">begin</beam><lyric default-y="-91" name="verse" number="1"><syllabic>begin</syllabic><text font-size="10.8">Na</text></lyric></note><note default-x="339"><pitch><step>F</step><alter>1</alter><octave>4</octave></pitch><duration>1</duration><voice>1</voice><type>16th</type><stem default-y="-1">up</stem><beam number="1">continue</beam><beam number="2">begin</beam><lyric default-y="-91" name="verse" number="1"><syllabic>end</syllabic><text font-size="10.8">me</text></lyric></note><note default-x="395"><pitch><step>E</step><octave>4</octave></pitch><duration>1</duration><tie type="start" /><voice>1</voice><type>16th</type><stem default-y="-4">up</stem><beam number="1">end</beam><beam number="2">end</beam><notations><tied type="start" /></notations><lyric default-y="-91" name="verse" number="1"><syllabic>single</syllabic><text font-size="10.8">sei</text><extend type="start" /></lyric></note><note default-x="445"><pitch><step>E</step><octave>4</octave></pitch><duration>2</duration><tie type="stop" /><voice>1</voice><type>eighth</type><stem default-y="-8.5">up</stem><beam number="1">begin</beam><notations><tied type="stop" /></notations><lyric name="verse" number="1"><extend type="stop" /></lyric></note><note default-x="496"><pitch><step>D</step><octave>4</octave></pitch><duration>2</duration><voice>1</voice><type>eighth</type><stem default-y="-13.5">up</stem><beam number="1">end</beam><lyric default-y="-91" name="verse" number="1"><syllabic>begin</syllabic><text font-size="10.8">er</text></lyric></note></measure><!--=======================================================--><measure number="2" width="124"><harmony default-y="36" font-size="10" font-weight="bold"><root><root-step>D</root-step></root><kind halign="center" text="">major</kind><bass><bass-step>G</bass-step></bass></harmony><note default-x="18"><pitch><step>D</step><octave>4</octave></pitch><duration>16</duration><voice>1</voice><type>whole</type><lyric default-y="-91" name="verse" number="1"><syllabic>end</syllabic><text font-size="10.8">höht,</text></lyric></note><backup><duration>16</duration></backup><forward><duration>8</duration><voice>2</voice></forward><harmony default-y="36" font-size="10" font-weight="bold"><root><root-step>C</root-step></root><kind halign="center" text="">major</kind><bass><bass-step>G</bass-step></bass></harmony><forward><duration>8</duration><voice>2</voice></forward></measure><!--=======================================================--><measure number="3" width="429"><harmony default-y="36" font-size="10" font-weight="bold"><root><root-step>G</root-step></root><kind halign="center" text="">major</kind></harmony><note default-x="13"><rest /><duration>4</duration><voice>1</voice><type>quarter</type></note><note default-x="64"><pitch><step>B</step><octave>3</octave></pitch><duration>2</duration><voice>1</voice><type>eighth</type><stem default-y="-19">up</stem><beam number="1">begin</beam><lyric default-y="-91" name="verse" number="1"><syllabic>single</syllabic><text font-size="10.8">Herr,</text></lyric></note><note default-x="120"><pitch><step>D</step><octave>4</octave></pitch><duration>2</duration><voice>1</voice><type>eighth</type><stem default-y="-13.5">up</stem><beam number="1">end</beam><lyric default-y="-91" name="verse" number="1"><syllabic>single</syllabic><text font-size="10.8">ich</text></lyric></note><harmony default-y="36" font-size="10" font-weight="bold"><root><root-step>C</root-step></root><kind halign="center" text="">major</kind><bass><bass-step>G</bass-step></bass></harmony><note default-x="172"><pitch><step>G</step><octave>4</octave></pitch><duration>2</duration><voice>1</voice><type>eighth</type><stem default-y="1">up</stem><beam number="1">begin</beam><lyric default-y="-91" name="verse" number="1"><syllabic>begin</syllabic><text font-size="10.8">sin</text></lyric></note><note default-x="226"><pitch><step>F</step><alter>1</alter><octave>4</octave></pitch><duration>1</duration><voice>1</voice><type>16th</type><stem default-y="-1">up</stem><beam number="1">continue</beam><beam number="2">begin</beam><lyric default-y="-91" name="verse" number="1"><syllabic>end</syllabic><text font-size="10.8">ge</text></lyric></note><note default-x="277"><pitch><step>E</step><octave>4</octave></pitch><duration>1</duration><tie type="start" /><voice>1</voice><type>16th</type><stem default-y="-4">up</stem><beam number="1">end</beam><beam number="2">end</beam><notations><tied type="start" /></notations><lyric default-y="-91" name="verse" number="1"><syllabic>single</syllabic><text font-size="10.8">dir</text><extend type="start" /></lyric></note><note default-x="327"><pitch><step>E</step><octave>4</octave></pitch><duration>2</duration><tie type="stop" /><voice>1</voice><type>eighth</type><stem default-y="-8.5">up</stem><beam number="1">begin</beam><notations><tied type="stop" /></notations><lyric name="verse" number="1"><extend type="stop" /></lyric></note><note default-x="377"><pitch><step>D</step><octave>4</octave></pitch><duration>2</duration><voice>1</voice><type>eighth</type><stem default-y="-13.5">up</stem><beam number="1">end</beam><lyric default-y="-91" name="verse" number="1"><syllabic>single</syllabic><text font-size="10.8">zur</text></lyric></note></measure><!--=======================================================--><measure number="4" width="360"><print new-system="yes"><system-layout><system-distance>180</system-distance></system-layout></print><harmony default-y="36" font-size="10" font-weight="bold"><root><root-step>D</root-step></root><kind halign="center" text="">major</kind><bass><bass-step>G</bass-step></bass></harmony><note default-x="78"><pitch><step>E</step><octave>4</octave></pitch><duration>3</duration><voice>1</voice><type>eighth</type><dot /><stem default-y="-8.5">up</stem><beam number="1">begin</beam><notations><slur number="1" placement="below" type="start" /></notations><lyric default-y="-91" name="verse" number="1"><syllabic>begin</syllabic><text font-size="10.8">Eh</text></lyric></note><note default-x="148"><pitch><step>D</step><octave>4</octave></pitch><duration>1</duration><voice>1</voice><type>16th</type><stem default-y="-13.5">up</stem><beam number="1">end</beam><beam number="2">backward hook</beam><notations><slur number="1" type="stop" /></notations></note><note default-x="218"><pitch><step>D</step><octave>4</octave></pitch><duration>4</duration><tie type="start" /><voice>1</voice><type>quarter</type><stem default-y="-13">up</stem><notations><tied type="start" /></notations><lyric default-y="-91" name="verse" number="1"><syllabic>end</syllabic><text font-size="10.8">re.</text><extend type="start" /></lyric></note><harmony default-y="36" font-size="10" font-weight="bold"><root><root-step>C</root-step></root><kind halign="center" text="">major</kind><bass><bass-step>G</bass-step></bass></harmony><note default-x="288"><pitch><step>D</step><octave>4</octave></pitch><duration>8</duration><tie type="stop" /><voice>1</voice><type>half</type><stem default-y="-13">up</stem><notations><tied type="stop" /></notations><lyric name="verse" number="1"><extend type="stop" /></lyric></note></measure><!--=======================================================--><measure number="5" width="630"><harmony default-y="36" font-size="10" font-weight="bold"><root><root-step>G</root-step></root><kind halign="center" text="">major</kind></harmony><note default-x="13"><rest /><duration>4</duration><voice>1</voice><type>quarter</type></note><note default-x="90"><pitch><step>B</step><octave>3</octave></pitch><duration>2</duration><voice>1</voice><type>eighth</type><stem default-y="-18">up</stem><beam number="1">begin</beam><lyric default-y="-91" name="verse" number="1"><syllabic>begin</syllabic><text font-size="10.8">Dan</text></lyric></note><note default-x="167"><pitch><step>D</step><octave>4</octave></pitch><duration>2</duration><voice>1</voice><type>eighth</type><stem default-y="-13.5">up</stem><beam number="1">end</beam><lyric default-y="-91" name="verse" number="1"><syllabic>end</syllabic><text font-size="10.8">ke,</text></lyric></note><harmony default-y="36" font-size="10" font-weight="bold"><root><root-step>C</root-step></root><kind halign="center" text="">major</kind><bass><bass-step>G</bass-step></bass></harmony><note default-x="244"><pitch><step>G</step><octave>4</octave></pitch><duration>2</duration><voice>1</voice><type>eighth</type><stem default-y="1">up</stem><beam number="1">begin</beam><lyric default-y="-91" name="verse" number="1"><syllabic>single</syllabic><text font-size="10.8">dass</text></lyric></note><note default-x="321"><pitch><step>F</step><alter>1</alter><octave>4</octave></pitch><duration>1</duration><voice>1</voice><type>16th</type><stem default-y="-1">up</stem><beam number="1">continue</beam><beam number="2">begin</beam><lyric default-y="-91" name="verse" number="1"><syllabic>single</syllabic><text font-size="10.8">du</text></lyric></note><note default-x="398"><pitch><step>E</step><octave>4</octave></pitch><duration>1</duration><tie type="start" /><voice>1</voice><type>16th</type><stem default-y="-4">up</stem><beam number="1">end</beam><beam number="2">end</beam><notations><tied type="start" /></notations><lyric default-y="-91" name="verse" number="1"><syllabic>single</syllabic><text font-size="10.8">in</text><extend type="start" /></lyric></note><note default-x="475"><pitch><step>E</step><octave>4</octave></pitch><duration>2</duration><tie type="stop" /><voice>1</voice><type>eighth</type><stem default-y="-8.5">up</stem><beam number="1">begin</beam><notations><tied type="stop" /></notations><lyric name="verse" number="1"><extend type="stop" /></lyric></note><note default-x="552"><pitch><step>D</step><octave>4</octave></pitch><duration>2</duration><voice>1</voice><type>eighth</type><stem default-y="-13.5">up</stem><beam number="1">end</beam><lyric default-y="-91" name="verse" number="1"><syllabic>single</syllabic><text font-size="10.8">mir</text></lyric></note></measure><!--=======================================================--><measure number="6" width="181"><harmony default-y="36" font-size="10" font-weight="bold"><root><root-step>D</root-step></root><kind halign="center" text="">major</kind><bass><bass-step>G</bass-step></bass></harmony><note default-x="20"><pitch><step>D</step><octave>4</octave></pitch><duration>16</duration><voice>1</voice><type>whole</type><lyric default-y="-91" name="verse" number="1"><syllabic>single</syllabic><text font-size="10.8">lebst,</text></lyric></note><backup><duration>16</duration></backup><forward><duration>8</duration><voice>2</voice></forward><harmony default-y="36" font-size="10" font-weight="bold"><root><root-step>C</root-step></root><kind halign="center" text="">major</kind><bass><bass-step>G</bass-step></bass></harmony><forward><duration>8</duration><voice>2</voice></forward></measure><!--=======================================================--><measure number="7" width="658"><print new-system="yes"><system-layout><system-distance>180</system-distance></system-layout></print><harmony default-y="36" font-size="10" font-weight="bold"><root><root-step>G</root-step></root><kind halign="center" text="">major</kind></harmony><note default-x="76"><rest /><duration>4</duration><voice>1</voice><type>quarter</type></note><note default-x="148"><pitch><step>B</step><octave>3</octave></pitch><duration>2</duration><voice>1</voice><type>eighth</type><stem default-y="-18.5">up</stem><beam number="1">begin</beam><lyric default-y="-91" name="verse" number="1"><syllabic>begin</syllabic><text font-size="10.8">dan</text></lyric></note><note default-x="221"><pitch><step>D</step><octave>4</octave></pitch><duration>2</duration><voice>1</voice><type>eighth</type><stem default-y="-14">up</stem><beam number="1">end</beam><lyric default-y="-91" name="verse" number="1"><syllabic>end</syllabic><text font-size="10.8">ke</text></lyric></note><harmony default-y="36" font-size="10" font-weight="bold"><root><root-step>C</root-step></root><kind halign="center" text="">major</kind><bass><bass-step>G</bass-step></bass></harmony><note default-x="294"><pitch><step>G</step><octave>4</octave></pitch><duration>2</duration><voice>1</voice><type>eighth</type><stem default-y="1.5">up</stem><beam number="1">begin</beam><lyric default-y="-91" name="verse" number="1"><syllabic>single</syllabic><text font-size="10.8">für</text></lyric></note><note default-x="366"><pitch><step>F</step><alter>1</alter><octave>4</octave></pitch><duration>1</duration><voice>1</voice><type>16th</type><stem default-y="-1">up</stem><beam number="1">continue</beam><beam number="2">begin</beam><lyric default-y="-91" name="verse" number="1"><syllabic>begin</syllabic><text font-size="10.8">dei</text></lyric></note><note default-x="438"><pitch><step>E</step><octave>4</octave></pitch><duration>1</duration><tie type="start" /><voice>1</voice><type>16th</type><stem default-y="-3">up</stem><beam number="1">end</beam><beam number="2">end</beam><notations><tied type="start" /></notations><lyric default-y="-91" name="verse" number="1"><syllabic>end</syllabic><text font-size="10.8">ne</text><extend type="start" /></lyric></note><note default-x="512"><pitch><step>E</step><octave>4</octave></pitch><duration>2</duration><tie type="stop" /><voice>1</voice><type>eighth</type><stem default-y="-9">up</stem><beam number="1">begin</beam><notations><tied type="stop" /></notations><lyric name="verse" number="1"><extend type="stop" /></lyric></note><note default-x="584"><pitch><step>D</step><octave>4</octave></pitch><duration>2</duration><voice>1</voice><type>eighth</type><stem default-y="-14">up</stem><beam number="1">end</beam><lyric default-y="-91" name="verse" number="1"><syllabic>begin</syllabic><text font-size="10.8">Er</text></lyric></note></measure><!--=======================================================--><measure number="8" width="513"><harmony default-y="36" font-size="10" font-weight="bold"><root><root-step>D</root-step></root><kind halign="center" text="">major</kind></harmony><note default-x="12"><pitch><step>E</step><octave>4</octave></pitch><duration>3</duration><voice>1</voice><type>eighth</type><dot /><stem default-y="-9">up</stem><beam number="1">begin</beam><notations><slur number="1" placement="below" type="start" /></notations><lyric default-y="-91" name="verse" number="1"><syllabic>middle</syllabic><text font-size="10.8">lö</text></lyric></note><note default-x="83"><pitch><step>D</step><octave>4</octave></pitch><duration>1</duration><voice>1</voice><type>16th</type><stem default-y="-14">up</stem><beam number="1">end</beam><beam number="2">backward hook</beam><notations><slur number="1" type="stop" /></notations></note><note default-x="154"><pitch><step>D</step><octave>4</octave></pitch><duration>4</duration><tie type="start" /><voice>1</voice><type>quarter</type><stem default-y="-13">up</stem><notations><tied orientation="under" type="start" /></notations><lyric default-y="-91" name="verse" number="1"><syllabic>end</syllabic><text font-size="10.8">sung.</text><extend type="start" /></lyric></note><harmony default-y="36" font-size="10" font-weight="bold"><root><root-step>D</root-step></root><kind halign="center" text="sus">suspended-fourth</kind></harmony><note default-x="224"><pitch><step>D</step><octave>4</octave></pitch><duration>8</duration><tie type="stop" /><voice>1</voice><type>half</type><stem default-y="-73">down</stem><notations><tied type="stop" /></notations><lyric name="verse" number="1"><extend type="stop" /></lyric></note><backup><duration>16</duration></backup><forward><duration>8</duration><voice>2</voice></forward><note default-x="224"><pitch><step>G</step><octave>4</octave></pitch><duration>3</duration><voice>2</voice><type size="cue">eighth</type><dot /><stem default-y="1.5">up</stem><beam number="1">begin</beam></note><harmony default-y="36" font-size="10" font-weight="bold"><root><root-step>D</root-step></root><kind halign="center" text="">major</kind></harmony><note default-x="294"><pitch><step>F</step><alter>1</alter><octave>4</octave></pitch><duration>1</duration><tie type="start" /><voice>2</voice><type size="cue">16th</type><stem default-y="-3">up</stem><beam number="1">end</beam><beam number="2">backward hook</beam><notations><tied orientation="over" type="start" /></notations></note><note default-x="365"><pitch><step>F</step><alter>1</alter><octave>4</octave></pitch><duration>2</duration><tie type="stop" /><voice>2</voice><type size="cue">eighth</type><stem default-y="-3">up</stem><beam number="1">begin</beam><notations><tied type="stop" /></notations></note><harmony default-y="36" font-size="10" font-weight="bold"><root><root-step>C</root-step></root><kind halign="center" text="">major</kind></harmony><note default-x="435"><pitch><step>G</step><octave>4</octave></pitch><duration>2</duration><voice>2</voice><type size="cue">eighth</type><stem default-y="1.5">up</stem><beam number="1">end</beam></note><barline location="right"><bar-style>light-light</bar-style></barline></measure><!--=======================================================--><measure number="9" width="728"><print new-system="yes"><system-layout><system-distance>180</system-distance></system-layout></print><harmony default-y="36" font-size="10" font-weight="bold"><root><root-step>G</root-step></root><kind halign="center" text="">major</kind></harmony><direction placement="above"><direction-type><rehearsal default-y="69" font-weight="bold" relative-x="-5">CHORUS</rehearsal></direction-type></direction><note default-x="76"><rest /><duration>2</duration><voice>1</voice><type>eighth</type></note><note default-x="158"><pitch><step>B</step><octave>4</octave></pitch><duration>2</duration><voice>1</voice><type>eighth</type><stem default-y="-51.5">down</stem><lyric default-y="-91" name="verse" number="1"><syllabic>single</syllabic><text font-size="10.8">Du</text></lyric></note><note default-x="238"><pitch><step>B</step><octave>4</octave></pitch><duration>2</duration><voice>1</voice><type>eighth</type><stem default-y="-51">down</stem><beam number="1">begin</beam><lyric default-y="-91" name="verse" number="1"><syllabic>single</syllabic><text font-size="10.8">kamst</text></lyric></note><note default-x="320"><pitch><step>D</step><octave>5</octave></pitch><duration>2</duration><voice>1</voice><type>eighth</type><stem default-y="-46">down</stem><beam number="1">end</beam><lyric default-y="-91" name="verse" number="1"><syllabic>single</syllabic><text font-size="10.8">vom</text></lyric></note><harmony default-y="36" font-size="10" font-weight="bold"><root><root-step>C</root-step></root><kind halign="center" text="">major</kind></harmony><note default-x="401"><pitch><step>C</step><octave>5</octave></pitch><duration>4</duration><voice>1</voice><type>quarter</type><stem default-y="-47">down</stem><lyric default-y="-91" name="verse" number="1"><syllabic>begin</syllabic><text font-size="10.8">Him</text></lyric></note><note default-x="482"><pitch><step>B</step><octave>4</octave></pitch><duration>2</duration><voice>1</voice><type>eighth</type><stem default-y="11">up</stem><beam number="1">begin</beam><lyric default-y="-91" name="verse" number="1"><syllabic>end</syllabic><text font-size="10.8">mel</text></lyric></note><note default-x="564"><pitch><step>G</step><octave>4</octave></pitch><duration>1</duration><voice>1</voice><type>16th</type><stem default-y="9">up</stem><beam number="1">continue</beam><beam number="2">begin</beam><lyric default-y="-91" name="verse" number="1"><syllabic>begin</syllabic><text font-size="10.8">he</text></lyric></note><note default-x="645"><pitch><step>A</step><octave>4</octave></pitch><duration>1</duration><tie type="start" /><voice>1</voice><type>16th</type><stem default-y="6">up</stem><beam number="1">end</beam><beam number="2">end</beam><notations><tied type="start" /></notations><lyric default-y="-91" name="verse" number="1"><syllabic>end</syllabic><text font-size="10.8">rab,</text><extend type="start" /></lyric></note></measure><!--=======================================================--><measure number="10" width="443"><harmony default-y="36" font-size="10" font-weight="bold"><root><root-step>D</root-step></root><kind halign="center" text="">major</kind></harmony><note default-x="12"><pitch><step>A</step><octave>4</octave></pitch><duration>4</duration><tie type="stop" /><voice>1</voice><type>quarter</type><stem default-y="7">up</stem><notations><tied type="stop" /></notations><lyric name="verse" number="1"><extend type="stop" /></lyric></note><note default-x="98"><pitch><step>D</step><octave>5</octave></pitch><duration>4</duration><voice>1</voice><type>quarter</type><stem default-y="-42">down</stem><lyric default-y="-91" name="verse" number="1"><syllabic>single</syllabic><text font-size="10.8">zeigst</text></lyric></note><harmony default-y="36" font-size="10" font-weight="bold"><root><root-step>C</root-step></root><kind halign="center" text="">major</kind><bass><bass-step>D</bass-step></bass></harmony><note default-x="184"><pitch><step>C</step><octave>5</octave></pitch><duration>6</duration><voice>1</voice><type>quarter</type><dot /><stem default-y="-47">down</stem><lyric default-y="-91" name="verse" number="1"><syllabic>single</syllabic><text font-size="10.8">uns</text></lyric></note><note default-x="270"><pitch><step>B</step><octave>4</octave></pitch><duration>1</duration><voice>1</voice><type>16th</type><stem default-y="-51">down</stem><beam number="1">begin</beam><beam number="2">begin</beam><lyric default-y="-91" name="verse" number="1"><syllabic>single</syllabic><text font-size="10.8">den</text></lyric></note><note default-x="355"><pitch><step>B</step><octave>4</octave></pitch><duration>1</duration><tie type="start" /><voice>1</voice><type>16th</type><stem default-y="-51">down</stem><beam number="1">end</beam><beam number="2">end</beam><notations><tied type="start" /></notations><lyric default-y="-91" name="verse" number="1"><syllabic>single</syllabic><text font-size="10.8">Weg,</text><extend type="start" /></lyric></note></measure><!--=======================================================--><measure number="11" width="499"><print new-system="yes"><system-layout><system-distance>180</system-distance></system-layout></print><harmony default-y="36" font-size="10" font-weight="bold"><root><root-step>G</root-step></root><kind halign="center" text="">major</kind></harmony><note default-x="73"><pitch><step>B</step><octave>4</octave></pitch><duration>2</duration><tie type="stop" /><voice>1</voice><type>eighth</type><stem default-y="-52">down</stem><notations><tied type="stop" /></notations><lyric name="verse" number="1"><extend type="stop" /></lyric></note><note default-x="104"><rest /><duration>2</duration><voice>1</voice><type>eighth</type></note><note default-x="119"><pitch><step>B</step><octave>4</octave></pitch><duration>2</duration><voice>1</voice><type>eighth</type><stem default-y="-51">down</stem><beam number="1">begin</beam><lyric default-y="-91" name="verse" number="1"><syllabic>single</syllabic><text font-size="10.8">Herr,</text></lyric></note><note default-x="172"><pitch><step>B</step><octave>4</octave></pitch><duration>1</duration><voice>1</voice><type>16th</type><stem default-y="-51">down</stem><beam number="1">continue</beam><beam number="2">begin</beam><lyric default-y="-91" name="verse" number="1"><syllabic>single</syllabic><text font-size="10.8">du</text></lyric></note><note default-x="223"><pitch><step>C</step><octave>5</octave></pitch><duration>1</duration><tie type="start" /><voice>1</voice><type>16th</type><stem default-y="-51">down</stem><beam number="1">end</beam><beam number="2">end</beam><notations><tied type="start" /></notations><lyric default-y="-91" name="verse" number="1"><syllabic>single</syllabic><text font-size="10.8">hast</text><extend type="start" /></lyric></note><harmony default-y="36" font-size="10" font-weight="bold"><root><root-step>C</root-step></root><kind halign="center" text="">major</kind></harmony><note default-x="247"><pitch><step>C</step><octave>5</octave></pitch><duration>2</duration><tie type="stop" /><voice>1</voice><type>eighth</type><stem default-y="-46">down</stem><beam number="1">begin</beam><notations><tied type="stop" /></notations><lyric name="verse" number="1"><extend type="stop" /></lyric></note><note default-x="277"><pitch><step>B</step><octave>4</octave></pitch><duration>2</duration><voice>1</voice><type>eighth</type><stem default-y="-51">down</stem><beam number="1">end</beam><lyric default-y="-91" name="verse" number="1"><syllabic>single</syllabic><text font-size="10.8">am</text></lyric></note><note default-x="343"><pitch><step>A</step><octave>4</octave></pitch><duration>2</duration><voice>1</voice><type>eighth</type><stem default-y="6">up</stem><beam number="1">begin</beam><lyric default-y="-91" name="verse" number="1"><syllabic>single</syllabic><text font-size="10.8">Kreuz</text></lyric></note><note default-x="406"><pitch><step>G</step><octave>4</octave></pitch><duration>1</duration><voice>1</voice><type>16th</type><stem default-y="6">up</stem><beam number="1">continue</beam><beam number="2">begin</beam><lyric default-y="-91" name="verse" number="1"><syllabic>begin</syllabic><text font-size="10.8">be</text></lyric></note><note default-x="467"><pitch><step>A</step><octave>4</octave></pitch><duration>1</duration><tie type="start" /><voice>1</voice><type>16th</type><stem default-y="6">up</stem><beam number="1">end</beam><beam number="2">end</beam><notations><tied type="start" /></notations><lyric default-y="-91" name="verse" number="1"><syllabic>end</syllabic><text font-size="10.8">zahlt</text><extend type="start" /></lyric></note></measure><!--=======================================================--><measure number="12" width="243"><harmony default-y="36" font-size="10" font-weight="bold"><root><root-step>D</root-step></root><kind halign="center" text="">major</kind></harmony><note default-x="9"><pitch><step>A</step><octave>4</octave></pitch><duration>4</duration><tie type="stop" /><voice>1</voice><type>quarter</type><stem default-y="7">up</stem><notations><tied type="stop" /></notations><lyric name="verse" number="1"><extend type="stop" /></lyric></note><note default-x="44"><pitch><step>D</step><octave>5</octave></pitch><duration>4</duration><voice>1</voice><type>quarter</type><stem default-y="-42">down</stem><lyric default-y="-91" name="verse" number="1"><syllabic>single</syllabic><text font-size="10.8">für</text></lyric></note><harmony default-y="36" font-size="10" font-weight="bold"><root><root-step>C</root-step></root><kind halign="center" text="">major</kind></harmony><note default-x="93"><pitch><step>C</step><octave>5</octave></pitch><duration>6</duration><voice>1</voice><type>quarter</type><dot /><stem default-y="-47">down</stem><lyric default-y="-91" name="verse" number="1"><syllabic>begin</syllabic><text font-size="10.8">mei</text></lyric></note><note default-x="148"><pitch><step>B</step><octave>4</octave></pitch><duration>1</duration><voice>1</voice><type>16th</type><stem default-y="-51">down</stem><beam number="1">begin</beam><beam number="2">begin</beam><lyric default-y="-91" name="verse" number="1"><syllabic>end</syllabic><text font-size="10.8">ne</text></lyric></note><note default-x="211"><pitch><step>B</step><octave>4</octave></pitch><duration>1</duration><tie type="start" /><voice>1</voice><type>16th</type><stem default-y="-51">down</stem><beam number="1">end</beam><beam number="2">end</beam><notations><tied type="start" /></notations><lyric default-y="-91" name="verse" number="1"><syllabic>single</syllabic><text font-size="10.8">Schuld.</text><extend type="start" /></lyric></note></measure><!--=======================================================--><measure number="13" width="429"><harmony default-y="36" font-size="10" font-weight="bold"><root><root-step>G</root-step></root><kind halign="center" text="">major</kind></harmony><note default-x="13"><pitch><step>B</step><octave>4</octave></pitch><duration>2</duration><tie type="stop" /><voice>1</voice><type>eighth</type><stem default-y="-52">down</stem><notations><tied type="stop" /></notations><lyric name="verse" number="1"><extend type="stop" /></lyric></note><note default-x="35"><rest /><duration>2</duration><voice>1</voice><type>eighth</type></note><note default-x="54"><pitch><step>B</step><octave>4</octave></pitch><duration>2</duration><voice>1</voice><type>eighth</type><stem default-y="-51">down</stem><beam number="1">begin</beam><lyric default-y="-91" name="verse" number="1"><syllabic>single</syllabic><text font-size="10.8">Und</text></lyric></note><note default-x="106"><pitch><step>B</step><octave>4</octave></pitch><duration>1</duration><voice>1</voice><type>16th</type><stem default-y="-51">down</stem><beam number="1">continue</beam><beam number="2">begin</beam><lyric default-y="-91" name="verse" number="1"><syllabic>single</syllabic><text font-size="10.8">sie</text></lyric></note><note default-x="152"><pitch><step>C</step><octave>5</octave></pitch><duration>1</duration><tie type="start" /><voice>1</voice><type>16th</type><stem default-y="-51">down</stem><beam number="1">end</beam><beam number="2">end</beam><notations><tied type="start" /></notations><lyric default-y="-91" name="verse" number="1"><syllabic>begin</syllabic><text font-size="10.8">leg</text></lyric></note><harmony default-y="36" font-size="10" font-weight="bold"><root><root-step>C</root-step></root><kind halign="center" text="">major</kind></harmony><note default-x="182"><pitch><step>C</step><octave>5</octave></pitch><duration>2</duration><tie type="stop" /><voice>1</voice><type>eighth</type><stem default-y="-46">down</stem><beam number="1">begin</beam><notations><tied type="stop" /></notations></note><note default-x="213"><pitch><step>B</step><octave>4</octave></pitch><duration>2</duration><voice>1</voice><type>eighth</type><stem default-y="-51">down</stem><beam number="1">end</beam><lyric default-y="-91" name="verse" number="1"><syllabic>end</syllabic><text font-size="10.8">ten</text></lyric></note><note default-x="266"><pitch><step>A</step><octave>4</octave></pitch><duration>2</duration><voice>1</voice><type>eighth</type><stem default-y="6">up</stem><beam number="1">begin</beam><lyric default-y="-91" name="verse" number="1"><syllabic>single</syllabic><text font-size="10.8">dich</text></lyric></note><note default-x="317"><pitch><step>G</step><octave>4</octave></pitch><duration>1</duration><voice>1</voice><type>16th</type><stem default-y="6">up</stem><beam number="1">continue</beam><beam number="2">begin</beam><lyric default-y="-91" name="verse" number="1"><syllabic>single</syllabic><text font-size="10.8">ins</text></lyric></note><note default-x="376"><pitch><step>A</step><octave>4</octave></pitch><duration>1</duration><tie type="start" /><voice>1</voice><type>16th</type><stem default-y="6">up</stem><beam number="1">end</beam><beam number="2">end</beam><notations><tied type="start" /></notations><lyric default-y="-91" name="verse" number="1"><syllabic>single</syllabic><text font-size="10.8">Grab,</text><extend type="start" /></lyric></note></measure><!--=======================================================--><measure number="14" width="617"><print new-system="yes"><system-layout><system-distance>180</system-distance></system-layout></print><harmony default-y="36" font-size="10" font-weight="bold"><root><root-step>D</root-step></root><kind halign="center" text="">major</kind></harmony><note default-x="73"><pitch><step>A</step><octave>4</octave></pitch><duration>4</duration><tie type="stop" /><voice>1</voice><type>quarter</type><stem default-y="7">up</stem><notations><tied type="stop" /></notations><lyric name="verse" number="1"><extend type="stop" /></lyric></note><note default-x="130"><pitch><step>A</step><octave>4</octave></pitch><duration>2</duration><voice>1</voice><type>eighth</type><stem default-y="6">up</stem><beam number="1">begin</beam><lyric default-y="-91" name="verse" number="1"><syllabic>single</syllabic><text font-size="10.8">doch</text></lyric></note><note default-x="191"><pitch><step>A</step><octave>4</octave></pitch><duration>1</duration><voice>1</voice><type>16th</type><stem default-y="9">up</stem><beam number="1">continue</beam><beam number="2">begin</beam><lyric default-y="-91" name="verse" number="1"><syllabic>single</syllabic><text font-size="10.8">du</text></lyric></note><note default-x="255"><pitch><step>B</step><octave>4</octave></pitch><duration>1</duration><tie type="start" /><voice>1</voice><type>16th</type><stem default-y="11">up</stem><beam number="1">end</beam><beam number="2">end</beam><notations><tied type="start" /></notations><lyric default-y="-91" name="verse" number="1"><syllabic>single</syllabic><text font-size="10.8">stiegst</text><extend type="start" /></lyric></note><harmony default-y="36" font-size="10" font-weight="bold"><root><root-step>E</root-step></root><kind halign="center" text="m7">minor-seventh</kind></harmony><note default-x="313"><pitch><step>B</step><octave>4</octave></pitch><duration>2</duration><tie type="stop" /><voice>1</voice><type>eighth</type><stem default-y="11">up</stem><beam number="1">begin</beam><notations><tied type="stop" /></notations><lyric name="verse" number="1"><extend type="stop" /></lyric></note><note default-x="373"><pitch><step>A</step><octave>4</octave></pitch><duration>2</duration><voice>1</voice><type>eighth</type><stem default-y="6">up</stem><beam number="1">end</beam><lyric default-y="-91" name="verse" number="1"><syllabic>single</syllabic><text font-size="10.8">zum</text></lyric></note><note default-x="436"><pitch><step>G</step><octave>4</octave></pitch><duration>2</duration><voice>1</voice><type>eighth</type><stem default-y="1">up</stem><beam number="1">begin</beam><lyric default-y="-91" name="verse" number="1"><syllabic>begin</syllabic><text font-size="10.8">Him</text></lyric></note><note default-x="497"><pitch><step>F</step><alter>1</alter><octave>4</octave></pitch><duration>1</duration><voice>1</voice><type>16th</type><stem default-y="1">up</stem><beam number="1">continue</beam><beam number="2">begin</beam><lyric default-y="-91" name="verse" number="1"><syllabic>end</syllabic><text font-size="10.8">mel</text></lyric></note><note default-x="559"><pitch><step>G</step><octave>4</octave></pitch><duration>1</duration><tie type="start" /><voice>1</voice><type>16th</type><stem default-y="1">up</stem><beam number="1">end</beam><beam number="2">end</beam><notations><tied type="start" /></notations><lyric default-y="-91" name="verse" number="1"><syllabic>single</syllabic><text font-size="10.8">auf,</text><extend type="start" /></lyric></note></measure><!--=======================================================--><measure number="15" width="470"><harmony default-y="36" font-size="10" font-weight="bold"><root><root-step>A</root-step></root><kind halign="center" text="m7">minor-seventh</kind></harmony><note default-x="29"><pitch><step>G</step><octave>4</octave></pitch><duration>4</duration><tie type="stop" /><voice>1</voice><type>quarter</type><stem default-y="2">up</stem><notations><tied type="stop" /></notations><lyric name="verse" number="1"><extend type="stop" /></lyric></note><note default-x="80"><pitch><step>G</step><octave>4</octave></pitch><duration>2</duration><voice>1</voice><type>eighth</type><stem default-y="1">up</stem><beam number="1">begin</beam><lyric default-y="-91" name="verse" number="1"><syllabic>single</syllabic><text font-size="10.8">Herr,</text></lyric></note><note default-x="145"><pitch><step>G</step><octave>4</octave></pitch><duration>2</duration><voice>1</voice><type>eighth</type><stem default-y="1">up</stem><beam number="1">end</beam><lyric default-y="-91" name="verse" number="1"><syllabic>single</syllabic><text font-size="10.8">dein</text></lyric></note><harmony default-y="36" font-size="10" font-weight="bold"><root><root-step>D</root-step></root><kind halign="center" text="">major</kind></harmony><note default-x="203"><pitch><step>A</step><octave>4</octave></pitch><duration>2</duration><voice>1</voice><type>eighth</type><stem default-y="6">up</stem><beam number="1">begin</beam><lyric default-y="-91" name="verse" number="1"><syllabic>begin</syllabic><text font-size="10.8">Na</text></lyric></note><note default-x="258"><pitch><step>G</step><octave>4</octave></pitch><duration>1</duration><voice>1</voice><type>16th</type><stem default-y="4">up</stem><beam number="1">continue</beam><beam number="2">begin</beam><lyric default-y="-91" name="verse" number="1"><syllabic>end</syllabic><text font-size="10.8">me</text></lyric></note><note default-x="314"><pitch><step>F</step><alter>1</alter><octave>4</octave></pitch><duration>1</duration><tie type="start" /><voice>1</voice><type>16th</type><stem default-y="1">up</stem><beam number="1">end</beam><beam number="2">end</beam><notations><tied type="start" /></notations><lyric default-y="-91" name="verse" number="1"><syllabic>single</syllabic><text font-size="10.8">sei</text><extend type="start" /></lyric></note><note default-x="365"><pitch><step>F</step><alter>1</alter><octave>4</octave></pitch><duration>2</duration><tie type="stop" /><voice>1</voice><type>eighth</type><stem default-y="-3.5">up</stem><beam number="1">begin</beam><notations><tied type="stop" /></notations><lyric name="verse" number="1"><extend type="stop" /></lyric></note><note default-x="417"><pitch><step>G</step><octave>4</octave></pitch><duration>2</duration><voice>1</voice><type>eighth</type><stem default-y="1">up</stem><beam number="1">end</beam><lyric default-y="-91" name="verse" number="1"><syllabic>begin</syllabic><text font-size="10.8">er</text></lyric></note></measure><!--=======================================================--><measure number="16" width="83"><harmony default-y="36" font-size="10" font-weight="bold"><root><root-step>G</root-step></root><kind halign="center" text="">major</kind></harmony><note default-x="18"><pitch><step>G</step><octave>4</octave></pitch><duration>16</duration><voice>1</voice><type>whole</type><lyric default-y="-91" name="verse" number="1"><syllabic>end</syllabic><text font-size="10.8">höht.</text></lyric></note><barline location="right"><bar-style>light-heavy</bar-style></barline></measure></part><!--=========================================================--></score-partwise>