<?xml version="1.0" encoding="UTF-8" standalone="no"?><!DOCTYPE score-partwise PUBLIC "-//Recordare//DTD MusicXML 3.0 Partwise//EN" "http://www.musicxml.org/dtds/partwise.dtd"[]><score-partwise version="3.0"><movement-title>Keiner ist wie du</movement-title><identification><creator type="composer">Lenny LeBlanc</creator><creator type="arranger">Martin Pepper</creator><encoding><software>Finale 2014 for Windows</software><software>Dolet Light for Finale 2014</software><encoding-date>2016-11-18</encoding-date><supports attribute="new-system" element="print" type="yes" value="yes" /><supports attribute="new-page" element="print" type="yes" value="yes" /><supports element="accidental" type="yes" /><supports element="beam" type="yes" /><supports element="stem" type="yes" /></encoding><rights>CCLI-Liednummer 5275557
© Integrity's Hosanna! Music
Nutzung ausschließlich im Rahmen der SongSelect®-Nutzungsbedingungen. Alle Rechte vorbehalten. www.ccli.com
CCLI-Lizenznummer 2182334
</rights></identification><defaults><scaling><millimeters>6.5088</millimeters><tenths>40</tenths></scaling><page-layout><page-height>1717</page-height><page-width>1327</page-width><page-margins type="both"><left-margin>78</left-margin><right-margin>78</right-margin><top-margin>78</top-margin><bottom-margin>78</bottom-margin></page-margins></page-layout><system-layout><system-margins><left-margin>0</left-margin><right-margin>0</right-margin></system-margins><system-distance>190</system-distance><top-system-distance>117</top-system-distance></system-layout><appearance><line-width type="stem">1.4583</line-width><line-width type="beam">5</line-width><line-width type="staff">1.25</line-width><line-width type="light barline">1.4583</line-width><line-width type="heavy barline">5</line-width><line-width type="leger">1.875</line-width><line-width type="ending">1.4583</line-width><line-width type="wedge">1.4583</line-width><line-width type="enclosure">1.4583</line-width><line-width type="tuplet bracket">1.4583</line-width><note-size type="grace">50</note-size><note-size type="cue">50</note-size><distance type="hyphen">240</distance><distance type="beam">8</distance></appearance><music-font font-family="Maestro,engraved" font-size="18.5" /><word-font font-family="Arial" font-size="9.2" /><lyric-font font-family="Arial" font-size="10.8" name="verse" /><lyric-font font-family="Arial" font-size="10.8" name="section" /></defaults><credit page="1"><credit-type>title</credit-type><credit-words default-x="663" default-y="1649" font-size="21.6" font-weight="bold" justify="center" valign="top">Keiner ist wie du</credit-words></credit><credit page="1"><credit-words default-x="1249" default-y="1576" font-size="10.8" font-style="italic" justify="right" valign="top">Text und Musik:</credit-words></credit><credit page="1"><credit-type>composer</credit-type><credit-words default-x="1249" default-y="1552" font-size="10.8" font-weight="bold" justify="right" valign="top">Lenny LeBlanc</credit-words></credit><credit page="1"><credit-words default-x="78" default-y="1576" font-size="10.8" font-style="italic" valign="top">Deutsch:</credit-words></credit><credit page="1"><credit-type>arranger</credit-type><credit-words default-x="78" default-y="1552" font-size="10.8" font-weight="bold" valign="top">Martin Pepper</credit-words></credit><part-list><score-part id="P1"><part-name print-object="no">Vocals</part-name><score-instrument id="P1-I2"><instrument-name>Melody</instrument-name></score-instrument><midi-instrument id="P1-I2"><midi-channel>1</midi-channel><midi-program>1</midi-program><volume>80</volume><pan>0</pan></midi-instrument></score-part></part-list><!--=========================================================--><part id="P1"><measure number="1" width="412"><print><page-layout><page-height>1717</page-height><page-width>1327</page-width><page-margins><left-margin>78</left-margin><right-margin>78</right-margin><top-margin>190</top-margin><bottom-margin>163</bottom-margin></page-margins></page-layout><system-layout><system-margins><left-margin>68</left-margin><right-margin>0</right-margin></system-margins></system-layout><measure-numbering>system</measure-numbering></print><attributes><divisions>8</divisions><key><fifths>-4</fifths><mode>major</mode></key><time><beats>4</beats><beat-type>4</beat-type></time><clef><sign>G</sign><line>2</line></clef></attributes><harmony default-y="36" font-size="10" font-weight="bold"><root><root-step>A</root-step><root-alter>-1</root-alter></root><kind halign="center" text="">major</kind></harmony><direction placement="above"><direction-type><metronome default-y="59" halign="left" relative-x="-66"><beat-unit>quarter</beat-unit><per-minute>69</per-minute></metronome></direction-type><sound tempo="69" /></direction><direction placement="above"><direction-type><rehearsal default-y="69" font-weight="bold" relative-x="-5">CHORUS</rehearsal></direction-type></direction><note default-x="142"><rest /><duration>8</duration><voice>1</voice><type>quarter</type></note><note default-x="190"><pitch><step>C</step><octave>5</octave></pitch><duration>4</duration><voice>1</voice><type>eighth</type><stem default-y="-51">down</stem><beam number="1">begin</beam><lyric default-y="-91" name="verse" number="1"><syllabic>begin</syllabic><text font-size="10.8">Kei</text></lyric></note><note default-x="240"><pitch><step>A</step><alter>-1</alter><octave>4</octave></pitch><duration>4</duration><voice>1</voice><type>eighth</type><stem default-y="-56">down</stem><beam number="1">end</beam><lyric default-y="-91" name="verse" number="1"><syllabic>end</syllabic><text font-size="10.8">ner</text></lyric></note><harmony default-y="36" font-size="10" font-weight="bold"><root><root-step>E</root-step><root-alter>-1</root-alter></root><kind halign="center" text="">major</kind><bass><bass-step>G</bass-step></bass></harmony><note default-x="288"><pitch><step>E</step><alter>-1</alter><octave>4</octave></pitch><duration>8</duration><voice>1</voice><type>quarter</type><stem default-y="-8">up</stem><lyric default-y="-91" name="verse" number="1"><syllabic>single</syllabic><text font-size="10.8">ist</text></lyric></note><note default-x="348"><pitch><step>B</step><alter>-1</alter><octave>4</octave></pitch><duration>4</duration><voice>1</voice><type>eighth</type><stem default-y="11.5">up</stem><beam number="1">begin</beam><notations><slur number="1" placement="below" type="start" /></notations><lyric default-y="-91" name="verse" number="1"><syllabic>single</syllabic><text font-size="10.8">wie</text><extend type="start" /></lyric></note><note default-x="378"><pitch><step>A</step><alter>-1</alter><octave>4</octave></pitch><duration>4</duration><tie type="start" /><voice>1</voice><type>eighth</type><stem default-y="6">up</stem><beam number="1">end</beam><notations><tied type="start" /></notations></note></measure><!--=======================================================--><measure number="2" width="199"><harmony default-y="36" font-size="10" font-weight="bold"><root><root-step>D</root-step><root-alter>-1</root-alter></root><kind halign="center" text="">major</kind><bass><bass-step>F</bass-step></bass></harmony><note default-x="19"><pitch><step>A</step><alter>-1</alter><octave>4</octave></pitch><duration>4</duration><tie type="stop" /><voice>1</voice><type>eighth</type><stem default-y="7">up</stem><notations><tied type="stop" /><slur number="1" type="stop" /></notations><lyric name="verse" number="1"><extend type="stop" /></lyric></note><note default-x="62"><pitch><step>A</step><alter>-1</alter><octave>4</octave></pitch><duration>12</duration><tie type="start" /><voice>1</voice><type>quarter</type><dot /><stem default-y="7">up</stem><notations><tied type="start" /></notations><lyric default-y="-91" name="verse" number="1"><syllabic>single</syllabic><text font-size="10.8">du!</text><extend type="start" /></lyric></note><harmony default-y="36" font-size="10" font-weight="bold"><root><root-step>A</root-step><root-alter>-1</root-alter></root><kind halign="center" text="">major</kind><bass><bass-step>E</bass-step><bass-alter>-1</bass-alter></bass></harmony><note default-x="123"><pitch><step>A</step><alter>-1</alter><octave>4</octave></pitch><duration>16</duration><tie type="stop" /><voice>1</voice><type>half</type><stem default-y="7">up</stem><notations><tied type="stop" /></notations><lyric name="verse" number="1"><extend type="stop" /></lyric></note></measure><!--=======================================================--><measure number="3" width="492"><harmony default-y="36" font-size="10" font-weight="bold"><root><root-step>D</root-step><root-alter>-1</root-alter></root><kind halign="center" text="">major</kind></harmony><note default-x="16"><rest /><duration>8</duration><voice>1</voice><type>quarter</type></note><note default-x="67"><pitch><step>D</step><alter>-1</alter><octave>5</octave></pitch><duration>4</duration><voice>1</voice><type>eighth</type><stem default-y="-41">down</stem><beam number="1">begin</beam><lyric default-y="-91" name="verse" number="1"><syllabic>begin</syllabic><text font-size="10.8">Nie</text></lyric></note><note default-x="135"><pitch><step>D</step><alter>-1</alter><octave>5</octave></pitch><duration>2</duration><voice>1</voice><type>16th</type><stem default-y="-41">down</stem><beam number="1">continue</beam><beam number="2">begin</beam><lyric default-y="-91" name="verse" number="1"><syllabic>end</syllabic><text font-size="10.8">mand</text></lyric></note><note default-x="209"><pitch><step>D</step><alter>-1</alter><octave>5</octave></pitch><duration>2</duration><tie type="start" /><voice>1</voice><type>16th</type><stem default-y="-41">down</stem><beam number="1">end</beam><beam number="2">end</beam><notations><tied type="start" /></notations><lyric default-y="-91" name="verse" number="1"><syllabic>single</syllabic><text font-size="10.8">sonst</text><extend type="start" /></lyric></note><harmony default-y="36" font-size="10" font-weight="bold"><root><root-step>A</root-step><root-alter>-1</root-alter></root><kind halign="center" text="">major</kind><bass><bass-step>C</bass-step></bass></harmony><note default-x="251"><pitch><step>D</step><alter>-1</alter><octave>5</octave></pitch><duration>4</duration><tie type="stop" /><voice>1</voice><type>eighth</type><stem default-y="-41">down</stem><beam number="1">begin</beam><notations><tied type="stop" /></notations><lyric name="verse" number="1"><extend type="stop" /></lyric></note><note default-x="306"><pitch><step>C</step><octave>5</octave></pitch><duration>4</duration><voice>1</voice><type>eighth</type><stem default-y="-46">down</stem><beam number="1">end</beam><lyric default-y="-91" name="verse" number="1"><syllabic>begin</syllabic><text font-size="10.8">be</text></lyric></note><note default-x="364"><pitch><step>B</step><alter>-1</alter><octave>4</octave></pitch><duration>4</duration><voice>1</voice><type>eighth</type><stem default-y="11.5">up</stem><beam number="1">begin</beam><lyric default-y="-91" name="verse" number="1"><syllabic>end</syllabic><text font-size="10.8">rührt</text></lyric></note><note default-x="435"><pitch><step>A</step><alter>-1</alter><octave>4</octave></pitch><duration>4</duration><voice>1</voice><type>eighth</type><stem default-y="6">up</stem><beam number="1">end</beam><lyric default-y="-91" name="verse" number="1"><syllabic>single</syllabic><text font-size="10.8">mein</text></lyric></note></measure><!--=======================================================--><measure number="4" width="578"><print new-system="yes"><system-layout><system-distance>180</system-distance></system-layout></print><harmony default-y="36" font-size="10" font-weight="bold"><root><root-step>B</root-step><root-alter>-1</root-alter></root><kind halign="center" text="m7">minor-seventh</kind></harmony><note default-x="121"><pitch><step>A</step><alter>-1</alter><octave>4</octave></pitch><duration>4</duration><voice>1</voice><type>eighth</type><stem default-y="6.5">up</stem><beam number="1">begin</beam><lyric default-y="-91" name="verse" number="1"><syllabic>single</syllabic><text font-size="10.8">Herz</text></lyric></note><note default-x="184"><pitch><step>B</step><alter>-1</alter><octave>4</octave></pitch><duration>4</duration><voice>1</voice><type>eighth</type><stem default-y="11.5">up</stem><beam number="1">end</beam><lyric default-y="-91" name="verse" number="1"><syllabic>single</syllabic><text font-size="10.8">so</text></lyric></note><note default-x="248"><pitch><step>C</step><octave>5</octave></pitch><duration>4</duration><voice>1</voice><type>eighth</type><stem default-y="-46">down</stem><beam number="1">begin</beam><lyric default-y="-91" name="verse" number="1"><syllabic>single</syllabic><text font-size="10.8">wie</text></lyric></note><note default-x="311"><pitch><step>B</step><alter>-1</alter><octave>4</octave></pitch><duration>4</duration><tie type="start" /><voice>1</voice><type>eighth</type><stem default-y="-51">down</stem><beam number="1">end</beam><notations><tied type="start" /></notations><lyric default-y="-91" name="verse" number="1"><syllabic>single</syllabic><text font-size="10.8">du.</text><extend type="start" /></lyric></note><harmony default-y="36" font-size="10" font-weight="bold"><root><root-step>B</root-step><root-alter>-1</root-alter></root><kind halign="center" text="m7">minor-seventh</kind><bass><bass-step>E</bass-step><bass-alter>-1</bass-alter></bass></harmony><note default-x="373"><pitch><step>B</step><alter>-1</alter><octave>4</octave></pitch><duration>8</duration><tie type="stop" /><voice>1</voice><type>quarter</type><stem default-y="-52">down</stem><notations><tied type="stop" /></notations><lyric name="verse" number="1"><extend type="stop" /></lyric></note><harmony default-y="36" font-size="10" font-weight="bold"><root><root-step>E</root-step><root-alter>-1</root-alter></root><kind halign="center" text="">major</kind></harmony><note default-x="475"><rest /><duration>8</duration><voice>1</voice><type>quarter</type></note></measure><!--=======================================================--><measure number="5" width="592"><harmony default-y="36" font-size="10" font-weight="bold"><root><root-step>A</root-step><root-alter>-1</root-alter></root><kind halign="center" text="">major</kind></harmony><note default-x="18"><rest /><duration>8</duration><voice>1</voice><type>quarter</type></note><note default-x="117"><pitch><step>C</step><octave>5</octave></pitch><duration>4</duration><voice>1</voice><type>eighth</type><stem default-y="-46">down</stem><beam number="1">begin</beam><lyric default-y="-91" name="verse" number="1"><syllabic>single</syllabic><text font-size="10.8">Wo</text></lyric></note><note default-x="193"><pitch><step>C</step><octave>5</octave></pitch><duration>2</duration><voice>1</voice><type>16th</type><stem default-y="-46">down</stem><beam number="1">continue</beam><beam number="2">begin</beam><lyric default-y="-91" name="verse" number="1"><syllabic>single</syllabic><text font-size="10.8">auch</text></lyric></note><note default-x="248"><pitch><step>D</step><alter>-1</alter><octave>5</octave></pitch><duration>2</duration><tie type="start" /><voice>1</voice><type>16th</type><stem default-y="-46">down</stem><beam number="1">end</beam><beam number="2">end</beam><notations><tied type="start" /></notations><lyric default-y="-91" name="verse" number="1"><syllabic>begin</syllabic><text font-size="10.8">im</text></lyric></note><harmony default-y="36" font-size="10" font-weight="bold"><root><root-step>E</root-step><root-alter>-1</root-alter></root><kind halign="center" text="">major</kind><bass><bass-step>G</bass-step></bass></harmony><note default-x="295"><pitch><step>D</step><alter>-1</alter><octave>5</octave></pitch><duration>4</duration><tie type="stop" /><voice>1</voice><type>eighth</type><stem default-y="-41">down</stem><beam number="1">begin</beam><notations><tied type="stop" /></notations></note><note default-x="370"><pitch><step>C</step><octave>5</octave></pitch><duration>4</duration><voice>1</voice><type>eighth</type><stem default-y="-46">down</stem><beam number="1">end</beam><lyric default-y="-91" name="verse" number="1"><syllabic>end</syllabic><text font-size="10.8">mer</text></lyric></note><note default-x="443"><pitch><step>B</step><alter>-1</alter><octave>4</octave></pitch><duration>4</duration><voice>1</voice><type>eighth</type><stem default-y="11.5">up</stem><beam number="1">begin</beam><lyric default-y="-91" name="verse" number="1"><syllabic>single</syllabic><text font-size="10.8">ich</text></lyric></note><note default-x="519"><pitch><step>A</step><alter>-1</alter><octave>4</octave></pitch><duration>4</duration><voice>1</voice><type>eighth</type><stem default-y="6.5">up</stem><beam number="1">end</beam><lyric default-y="-91" name="verse" number="1"><syllabic>single</syllabic><text font-size="10.8">noch</text></lyric></note></measure><!--=======================================================--><measure number="6" width="523"><print new-system="yes"><system-layout><system-distance>180</system-distance></system-layout></print><harmony default-y="36" font-size="10" font-weight="bold"><root><root-step>E</root-step><root-alter>-1</root-alter></root><kind halign="center" text="m">minor</kind><bass><bass-step>G</bass-step><bass-alter>-1</bass-alter></bass></harmony><note default-x="118"><pitch><step>A</step><alter>-1</alter><octave>4</octave></pitch><duration>4</duration><voice>1</voice><type>eighth</type><stem default-y="6.5">up</stem><beam number="1">begin</beam><lyric default-y="-91" name="verse" number="1"><syllabic>begin</syllabic><text font-size="10.8">such</text></lyric></note><note default-x="188"><pitch><step>B</step><alter>-1</alter><octave>4</octave></pitch><duration>4</duration><voice>1</voice><type>eighth</type><stem default-y="11">up</stem><beam number="1">end</beam><lyric default-y="-91" name="verse" number="1"><syllabic>end</syllabic><text font-size="10.8">te,</text></lyric></note><note default-x="234"><pitch><step>C</step><octave>5</octave></pitch><duration>4</duration><voice>1</voice><type>eighth</type><stem default-y="-51">down</stem><beam number="1">begin</beam><lyric default-y="-91" name="verse" number="1"><syllabic>single</syllabic><text font-size="10.8">o</text></lyric></note><note default-x="288"><pitch><step>A</step><alter>-1</alter><octave>4</octave></pitch><duration>4</duration><tie type="start" /><voice>1</voice><type>eighth</type><stem default-y="-56">down</stem><beam number="1">end</beam><notations><tied type="start" /></notations><lyric default-y="-91" name="verse" number="1"><syllabic>single</syllabic><text font-size="10.8">Herr,</text><extend type="start" /></lyric></note><harmony default-y="36" font-size="10" font-weight="bold"><root><root-step>D</root-step><root-alter>-1</root-alter></root><kind halign="center" text="">major</kind><bass><bass-step>F</bass-step></bass></harmony><note default-x="334"><pitch><step>A</step><alter>-1</alter><octave>4</octave></pitch><duration>8</duration><tie type="stop" /><voice>1</voice><type>quarter</type><stem default-y="7">up</stem><notations><tied type="stop" /></notations><lyric name="verse" number="1"><extend type="stop" /></lyric></note><note default-x="399"><pitch><step>B</step><alter>-1</alter><octave>4</octave></pitch><duration>4</duration><voice>1</voice><type>eighth</type><stem default-y="-51">down</stem><beam number="1">begin</beam><lyric default-y="-91" name="verse" number="1"><syllabic>single</syllabic><text font-size="10.8">es</text></lyric></note><note default-x="462"><pitch><step>C</step><octave>5</octave></pitch><duration>4</duration><tie type="start" /><voice>1</voice><type>eighth</type><stem default-y="-46">down</stem><beam number="1">end</beam><notations><tied type="start" /></notations><lyric default-y="-91" name="verse" number="1"><syllabic>single</syllabic><text font-size="10.8">bleibt:</text><extend type="start" /></lyric></note></measure><!--=======================================================--><measure number="7" width="381"><harmony default-y="36" font-size="10" font-weight="bold"><root><root-step>A</root-step><root-alter>-1</root-alter></root><kind halign="center" text="">major</kind><bass><bass-step>E</bass-step><bass-alter>-1</bass-alter></bass></harmony><note default-x="20"><pitch><step>C</step><octave>5</octave></pitch><duration>4</duration><tie type="stop" /><voice>1</voice><type>eighth</type><stem default-y="-47">down</stem><notations><tied type="stop" /></notations><lyric name="verse" number="1"><extend type="stop" /></lyric></note><note default-x="74"><rest /><duration>4</duration><voice>1</voice><type>eighth</type></note><note default-x="111"><pitch><step>C</step><octave>5</octave></pitch><duration>4</duration><voice>1</voice><type>eighth</type><stem default-y="-51">down</stem><beam number="1">begin</beam><lyric default-y="-91" name="verse" number="1"><syllabic>begin</syllabic><text font-size="10.8">kei</text></lyric></note><note default-x="161"><pitch><step>A</step><alter>-1</alter><octave>4</octave></pitch><duration>4</duration><voice>1</voice><type>eighth</type><stem default-y="-56">down</stem><beam number="1">end</beam><lyric default-y="-91" name="verse" number="1"><syllabic>end</syllabic><text font-size="10.8">ner</text></lyric></note><harmony default-y="36" font-size="10" font-weight="bold"><root><root-step>D</root-step><root-alter>-1</root-alter></root><kind halign="center" text="">major</kind><bass><bass-step>E</bass-step><bass-alter>-1</bass-alter></bass></harmony><note default-x="211"><pitch><step>E</step><alter>-1</alter><octave>4</octave></pitch><duration>8</duration><voice>1</voice><type>quarter</type><stem default-y="-8">up</stem><lyric default-y="-91" name="verse" number="1"><syllabic>single</syllabic><text font-size="10.8">ist</text></lyric></note><harmony default-y="36" font-size="10" font-weight="bold"><root><root-step>E</root-step><root-alter>-1</root-alter></root><kind halign="center" text="">major</kind></harmony><note default-x="285"><pitch><step>A</step><alter>-1</alter><octave>4</octave></pitch><duration>4</duration><voice>1</voice><type>eighth</type><stem default-y="6.5">up</stem><beam number="1">begin</beam><notations><slur number="1" placement="below" type="start" /></notations><lyric default-y="-91" name="verse" number="1"><syllabic>single</syllabic><text font-size="10.8">wie</text><extend type="start" /></lyric></note><note default-x="322"><pitch><step>G</step><octave>4</octave></pitch><duration>2</duration><voice>1</voice><type>16th</type><stem default-y="6.5">up</stem><beam number="1">continue</beam><beam number="2">begin</beam></note><note default-x="349"><pitch><step>A</step><alter>-1</alter><octave>4</octave></pitch><duration>2</duration><tie type="start" /><voice>1</voice><type>16th</type><stem default-y="6.5">up</stem><beam number="1">end</beam><beam number="2">end</beam><notations><tied type="start" /></notations></note></measure><!--=======================================================--><measure number="8" width="175"><harmony default-y="36" font-size="10" font-weight="bold"><root><root-step>A</root-step><root-alter>-1</root-alter></root><kind halign="center" text="">major</kind></harmony><note default-x="17"><pitch><step>A</step><alter>-1</alter><octave>4</octave></pitch><duration>4</duration><tie type="stop" /><voice>1</voice><type>eighth</type><stem default-y="7">up</stem><notations><tied type="stop" /><slur default-x="7" default-y="-35" number="1" type="stop" /></notations><lyric name="verse" number="1"><extend type="stop" /></lyric></note><note default-x="49"><pitch><step>A</step><alter>-1</alter><octave>4</octave></pitch><duration>12</duration><tie type="start" /><voice>1</voice><type>quarter</type><dot /><stem default-y="7">up</stem><notations><tied type="start" /></notations><lyric default-y="-91" name="verse" number="1"><syllabic>single</syllabic><text font-size="10.8">du!</text><extend type="start" /></lyric></note><note default-x="115"><pitch><step>A</step><alter>-1</alter><octave>4</octave></pitch><duration>8</duration><tie type="stop" /><voice>1</voice><type>quarter</type><stem default-y="7">up</stem><notations><tied type="stop" /></notations><lyric name="verse" number="1"><extend type="stop" /></lyric></note><direction placement="above"><direction-type><words default-x="158" default-y="14" font-style="italic" justify="right">Fine</words></direction-type><sound fine="yes" /></direction><barline location="right"><bar-style>light-heavy</bar-style></barline></measure><!--=======================================================--><measure implicit="yes" number="X1" width="92"><note default-x="9"><rest /><duration>4</duration><voice>1</voice><type>eighth</type></note><note default-x="43"><pitch><step>F</step><octave>5</octave></pitch><duration>2</duration><voice>1</voice><type size="cue">16th</type><stem default-y="-31">down</stem><beam number="1">begin</beam><beam number="2">begin</beam></note><note default-x="64"><pitch><step>G</step><octave>5</octave></pitch><duration>2</duration><voice>1</voice><type size="cue">16th</type><stem default-y="-26">down</stem><beam number="1">end</beam><beam number="2">end</beam></note><barline location="right"><bar-style>light-light</bar-style></barline></measure><!--=======================================================--><measure number="9" width="359"><print new-system="yes"><system-layout><system-distance>180</system-distance></system-layout></print><harmony default-y="36" font-size="10" font-weight="bold"><root><root-step>F</root-step></root><kind halign="center" text="m">minor</kind></harmony><direction placement="above"><direction-type><rehearsal default-y="69" font-weight="bold" relative-x="-15">INSTRUMENTAL</rehearsal></direction-type></direction><note default-x="111"><pitch><step>A</step><alter>-1</alter><octave>5</octave></pitch><duration>4</duration><voice>1</voice><type size="cue">eighth</type><stem default-y="-22">down</stem></note><note default-x="147"><pitch><step>G</step><octave>5</octave></pitch><duration>8</duration><voice>1</voice><type size="cue">quarter</type><stem default-y="-27">down</stem></note><note default-x="205"><pitch><step>E</step><alter>-1</alter><octave>5</octave></pitch><duration>4</duration><voice>1</voice><type size="cue">eighth</type><stem default-y="-37">down</stem></note><harmony default-y="36" font-size="10" font-weight="bold"><root><root-step>D</root-step><root-alter>-1</root-alter></root><kind halign="center" text="2">major</kind><degree print-object="no"><degree-value>2</degree-value><degree-alter>0</degree-alter><degree-type>add</degree-type></degree></harmony><note default-x="241"><pitch><step>E</step><alter>-1</alter><octave>5</octave></pitch><duration>8</duration><voice>1</voice><type size="cue">quarter</type><stem default-y="-37">down</stem></note><note default-x="299"><pitch><step>D</step><alter>-1</alter><octave>5</octave></pitch><duration>8</duration><voice>1</voice><type size="cue">quarter</type><stem default-y="-42">down</stem></note></measure><!--=======================================================--><measure number="10" width="268"><harmony default-y="36" font-size="10" font-weight="bold"><root><root-step>A</root-step><root-alter>-1</root-alter></root><kind halign="center" text="">major</kind><bass><bass-step>E</bass-step><bass-alter>-1</bass-alter></bass></harmony><note default-x="20"><pitch><step>C</step><octave>5</octave></pitch><duration>16</duration><voice>1</voice><type size="cue">half</type><stem default-y="-47">down</stem></note><harmony default-y="36" font-size="10" font-weight="bold"><root><root-step>E</root-step><root-alter>-1</root-alter></root><kind halign="center" text="sus">suspended-fourth</kind></harmony><note default-x="124"><pitch><step>B</step><alter>-1</alter><octave>4</octave></pitch><duration>12</duration><voice>1</voice><type size="cue">quarter</type><dot /><stem default-y="-51.5">down</stem></note><harmony default-y="36" font-size="10" font-weight="bold"><root><root-step>E</root-step><root-alter>-1</root-alter></root><kind halign="center" text="">major</kind><offset>-4</offset></harmony><note default-x="220"><pitch><step>A</step><alter>-1</alter><octave>4</octave></pitch><duration>4</duration><voice>1</voice><type>eighth</type><stem default-y="7">up</stem><lyric default-y="-91" name="verse" number="1"><syllabic>begin</syllabic><text font-size="10.8">Er</text></lyric></note><backup><duration>32</duration></backup><forward><duration>16</duration><voice>2</voice></forward><forward><duration>8</duration><voice>2</voice></forward><forward><duration>8</duration><voice>2</voice></forward><barline location="right"><bar-style>light-light</bar-style></barline></measure><!--=======================================================--><measure number="11" width="544"><harmony default-y="36" font-size="10" font-weight="bold"><root><root-step>D</root-step><root-alter>-1</root-alter></root><kind halign="center" text="maj7">major-seventh</kind></harmony><direction placement="above"><direction-type><rehearsal default-y="69" font-weight="bold" relative-x="-34">VERS</rehearsal></direction-type></direction><note default-x="37"><pitch><step>A</step><alter>-1</alter><octave>4</octave></pitch><duration>4</duration><voice>1</voice><type>eighth</type><stem default-y="7">up</stem><lyric default-y="-91" name="verse" number="1"><syllabic>middle</syllabic><text font-size="10.8">bar</text></lyric></note><note default-x="103"><pitch><step>A</step><alter>-1</alter><octave>4</octave></pitch><duration>8</duration><voice>1</voice><type>quarter</type><stem default-y="7">up</stem><lyric default-y="-91" name="verse" number="1"><syllabic>end</syllabic><text font-size="10.8">men</text></lyric></note><note default-x="210"><pitch><step>A</step><alter>-1</alter><octave>4</octave></pitch><duration>4</duration><tie type="start" /><voice>1</voice><type>eighth</type><stem default-y="7">up</stem><notations><tied type="start" /></notations><lyric default-y="-91" name="verse" number="1"><syllabic>single</syllabic><text font-size="10.8">fließt</text><extend type="start" /></lyric></note><harmony default-y="36" font-size="10" font-weight="bold"><root><root-step>D</root-step><root-alter>-1</root-alter></root><kind halign="center" text="">major</kind><bass><bass-step>E</bass-step><bass-alter>-1</bass-alter></bass></harmony><note default-x="277"><pitch><step>A</step><alter>-1</alter><octave>4</octave></pitch><duration>4</duration><tie type="stop" /><voice>1</voice><type>eighth</type><stem default-y="6">up</stem><beam number="1">begin</beam><notations><tied type="stop" /></notations><lyric name="verse" number="1"><extend type="stop" /></lyric></note><note default-x="343"><pitch><step>G</step><octave>4</octave></pitch><duration>4</duration><voice>1</voice><type>eighth</type><stem default-y="1.5">up</stem><beam number="1">end</beam><lyric default-y="-91" name="verse" number="1"><syllabic>single</syllabic><text font-size="10.8">wie</text></lyric></note><note default-x="409"><pitch><step>F</step><octave>4</octave></pitch><duration>4</duration><voice>1</voice><type>eighth</type><stem default-y="-3.5">up</stem><beam number="1">begin</beam><lyric default-y="-91" name="verse" number="1"><syllabic>single</syllabic><text font-size="10.8">ein</text></lyric></note><note default-x="476"><pitch><step>E</step><alter>-1</alter><octave>4</octave></pitch><duration>4</duration><tie type="start" /><voice>1</voice><type>eighth</type><stem default-y="-9">up</stem><beam number="1">end</beam><notations><tied type="start" /></notations><lyric default-y="-91" name="verse" number="1"><syllabic>begin</syllabic><text font-size="10.8">wei</text></lyric></note></measure><!--=======================================================--><measure number="12" width="440"><print new-system="yes"><system-layout><system-distance>180</system-distance></system-layout></print><harmony default-y="36" font-size="10" font-weight="bold"><root><root-step>A</root-step><root-alter>-1</root-alter></root><kind halign="center" text="">major</kind></harmony><note default-x="101"><pitch><step>E</step><alter>-1</alter><octave>4</octave></pitch><duration>4</duration><tie type="stop" /><voice>1</voice><type>eighth</type><stem default-y="-8">up</stem><notations><tied type="stop" /></notations></note><note default-x="147"><pitch><step>E</step><alter>-1</alter><octave>4</octave></pitch><duration>8</duration><voice>1</voice><type>quarter</type><stem default-y="-8">up</stem><lyric default-y="-91" name="verse" number="1"><syllabic>end</syllabic><text font-size="10.8">ter</text></lyric></note><note default-x="220"><pitch><step>E</step><alter>-1</alter><octave>4</octave></pitch><duration>2</duration><voice>1</voice><type>16th</type><stem default-y="-8">up</stem><beam number="1">begin</beam><beam number="2">begin</beam><notations><slur number="1" placement="below" type="start" /></notations><lyric default-y="-91" name="verse" number="1"><syllabic>single</syllabic><text font-size="10.8">Strom,</text><extend type="start" /></lyric></note><note default-x="248"><pitch><step>D</step><alter>-1</alter><octave>4</octave></pitch><duration>2</duration><voice>1</voice><type>16th</type><stem default-y="-14">up</stem><beam number="1">end</beam><beam number="2">end</beam></note><harmony default-y="36" font-size="10" font-weight="bold"><root><root-step>F</root-step></root><kind halign="center" text="m7">minor-seventh</kind></harmony><note default-x="275"><pitch><step>C</step><octave>4</octave></pitch><duration>8</duration><voice>1</voice><type>quarter</type><stem default-y="-18">up</stem><notations><slur number="1" type="stop" /></notations><lyric name="verse" number="1"><extend type="stop" /></lyric></note><note default-x="348"><rest /><duration>4</duration><voice>1</voice><type>eighth</type></note><note default-x="393"><pitch><step>E</step><alter>-1</alter><octave>4</octave></pitch><duration>4</duration><voice>1</voice><type>eighth</type><stem default-y="-8">up</stem><lyric default-y="-91" name="verse" number="1"><syllabic>single</syllabic><text font-size="10.8">und</text></lyric></note></measure><!--=======================================================--><measure number="13" width="507"><harmony default-y="36" font-size="10" font-weight="bold"><root><root-step>B</root-step><root-alter>-1</root-alter></root><kind halign="center" text="m7">minor-seventh</kind></harmony><note default-x="30"><pitch><step>F</step><octave>4</octave></pitch><duration>4</duration><voice>1</voice><type>eighth</type><stem default-y="-3">up</stem><lyric default-y="-91" name="verse" number="1"><syllabic>begin</syllabic><text font-size="10.8">Hei</text></lyric></note><note default-x="92"><pitch><step>F</step><octave>4</octave></pitch><duration>8</duration><voice>1</voice><type>quarter</type><stem default-y="-3">up</stem><lyric default-y="-91" name="verse" number="1"><syllabic>end</syllabic><text font-size="10.8">lung</text></lyric></note><note default-x="189"><pitch><step>F</step><octave>4</octave></pitch><duration>4</duration><tie type="start" /><voice>1</voice><type>eighth</type><stem default-y="-3">up</stem><notations><tied type="start" /></notations><lyric default-y="-91" name="verse" number="1"><syllabic>single</syllabic><text font-size="10.8">strömt</text><extend type="start" /></lyric></note><harmony default-y="36" font-size="10" font-weight="bold"><root><root-step>E</root-step><root-alter>-1</root-alter></root><kind halign="center" text="2">major</kind><bass><bass-step>G</bass-step></bass><degree print-object="no"><degree-value>2</degree-value><degree-alter>0</degree-alter><degree-type>add</degree-type></degree></harmony><note default-x="249"><pitch><step>F</step><octave>4</octave></pitch><duration>4</duration><tie type="stop" /><voice>1</voice><type>eighth</type><stem default-y="-3.5">up</stem><beam number="1">begin</beam><notations><tied type="stop" /></notations><lyric name="verse" number="1"><extend type="stop" /></lyric></note><note default-x="312"><pitch><step>E</step><alter>-1</alter><octave>4</octave></pitch><duration>4</duration><voice>1</voice><type>eighth</type><stem default-y="-8">up</stem><beam number="1">end</beam><lyric default-y="-91" name="verse" number="1"><syllabic>single</syllabic><text font-size="10.8">aus</text></lyric></note><note default-x="372"><pitch><step>E</step><alter>-1</alter><octave>4</octave></pitch><duration>4</duration><voice>1</voice><type>eighth</type><stem default-y="-8">up</stem><beam number="1">begin</beam><lyric default-y="-91" name="verse" number="1"><syllabic>begin</syllabic><text font-size="10.8">dei</text></lyric></note><note default-x="432"><pitch><step>D</step><alter>-1</alter><octave>4</octave></pitch><duration>2</duration><voice>1</voice><type>16th</type><stem default-y="-8">up</stem><beam number="1">continue</beam><beam number="2">begin</beam><notations><slur number="1" placement="below" type="start" /></notations><lyric default-y="-91" name="verse" number="1"><syllabic>end</syllabic><text font-size="10.8">ner</text><extend type="start" /></lyric></note><note default-x="470"><pitch><step>E</step><alter>-1</alter><octave>4</octave></pitch><duration>2</duration><voice>1</voice><type>16th</type><stem default-y="-8">up</stem><beam number="1">end</beam><beam number="2">end</beam><notations><slur number="1" type="stop" /></notations><lyric name="verse" number="1"><extend type="stop" /></lyric></note></measure><!--=======================================================--><measure number="14" width="223"><harmony default-y="36" font-size="10" font-weight="bold"><root><root-step>A</root-step><root-alter>-1</root-alter></root><kind halign="center" text="">major</kind></harmony><note default-x="23"><pitch><step>E</step><alter>-1</alter><octave>4</octave></pitch><duration>16</duration><voice>1</voice><type>half</type><stem default-y="-8">up</stem><lyric default-y="-91" name="verse" number="1"><syllabic>single</syllabic><text font-size="10.8">Hand.</text></lyric></note><note default-x="112"><pitch><step>C</step><octave>5</octave></pitch><duration>8</duration><voice>1</voice><type size="cue">quarter</type><stem default-y="-47">down</stem></note><harmony default-y="36" font-size="10" font-weight="bold"><root><root-step>A</root-step><root-alter>-1</root-alter></root><kind halign="center" text="2">major</kind><bass><bass-step>C</bass-step></bass><degree print-object="no"><degree-value>2</degree-value><degree-alter>0</degree-alter><degree-type>add</degree-type></degree></harmony><note default-x="167"><pitch><step>B</step><alter>-1</alter><octave>4</octave></pitch><duration>8</duration><voice>1</voice><type size="cue">quarter</type><stem default-y="-52">down</stem></note></measure><!--=======================================================--><measure number="15" width="495"><print new-system="yes"><system-layout><system-distance>180</system-distance></system-layout></print><harmony default-y="36" font-size="10" font-weight="bold"><root><root-step>D</root-step><root-alter>-1</root-alter></root><kind halign="center" text="maj7">major-seventh</kind></harmony><note default-x="127"><pitch><step>A</step><alter>-1</alter><octave>4</octave></pitch><duration>4</duration><voice>1</voice><type>eighth</type><stem default-y="6">up</stem><beam number="1">begin</beam><lyric default-y="-91" name="verse" number="1"><syllabic>begin</syllabic><text font-size="10.8">Kin</text></lyric></note><note default-x="179"><pitch><step>A</step><alter>-1</alter><octave>4</octave></pitch><duration>4</duration><voice>1</voice><type>eighth</type><stem default-y="6">up</stem><beam number="1">end</beam><lyric default-y="-91" name="verse" number="1"><syllabic>end</syllabic><text font-size="10.8">der</text></lyric></note><note default-x="225"><pitch><step>A</step><alter>-1</alter><octave>4</octave></pitch><duration>4</duration><voice>1</voice><type>eighth</type><stem default-y="6">up</stem><beam number="1">begin</beam><lyric default-y="-91" name="verse" number="1"><syllabic>single</syllabic><text font-size="10.8">mit</text></lyric></note><note default-x="277"><pitch><step>A</step><alter>-1</alter><octave>4</octave></pitch><duration>4</duration><tie type="start" /><voice>1</voice><type>eighth</type><stem default-y="6">up</stem><beam number="1">end</beam><notations><tied type="start" /></notations><lyric default-y="-91" name="verse" number="1"><syllabic>begin</syllabic><text font-size="10.8">Wun</text></lyric></note><harmony default-y="36" font-size="10" font-weight="bold"><root><root-step>D</root-step><root-alter>-1</root-alter></root><kind halign="center" text="">major</kind><bass><bass-step>E</bass-step><bass-alter>-1</bass-alter></bass></harmony><note default-x="311"><pitch><step>A</step><alter>-1</alter><octave>4</octave></pitch><duration>4</duration><tie type="stop" /><voice>1</voice><type>eighth</type><stem default-y="6">up</stem><beam number="1">begin</beam><notations><tied type="stop" /></notations></note><note default-x="370"><pitch><step>G</step><octave>4</octave></pitch><duration>4</duration><voice>1</voice><type>eighth</type><stem default-y="1">up</stem><beam number="1">end</beam><lyric default-y="-91" name="verse" number="1"><syllabic>end</syllabic><text font-size="10.8">den</text></lyric></note><note default-x="422"><pitch><step>F</step><octave>4</octave></pitch><duration>4</duration><voice>1</voice><type>eighth</type><stem default-y="-3.5">up</stem><beam number="1">begin</beam><lyric default-y="-91" name="verse" number="1"><syllabic>single</syllabic><text font-size="10.8">sind</text></lyric></note><note default-x="464"><pitch><step>E</step><alter>-1</alter><octave>4</octave></pitch><duration>4</duration><tie type="start" /><voice>1</voice><type>eighth</type><stem default-y="-8.5">up</stem><beam number="1">end</beam><notations><tied type="start" /></notations><lyric default-y="-91" name="verse" number="1"><syllabic>begin</syllabic><text font-size="10.8">si</text></lyric></note></measure><!--=======================================================--><measure number="16" width="260"><harmony default-y="36" font-size="10" font-weight="bold"><root><root-step>A</root-step><root-alter>-1</root-alter></root><kind halign="center" text="">major</kind></harmony><note default-x="17"><pitch><step>E</step><alter>-1</alter><octave>4</octave></pitch><duration>4</duration><tie type="stop" /><voice>1</voice><type>eighth</type><stem default-y="-8.5">up</stem><beam number="1">begin</beam><notations><tied type="stop" /></notations></note><note default-x="55"><pitch><step>E</step><alter>-1</alter><octave>4</octave></pitch><duration>4</duration><voice>1</voice><type>eighth</type><stem default-y="-8.5">up</stem><beam number="1">end</beam><lyric default-y="-91" name="verse" number="1"><syllabic>end</syllabic><text font-size="10.8">cher</text></lyric></note><note default-x="112"><pitch><step>E</step><alter>-1</alter><octave>4</octave></pitch><duration>4</duration><voice>1</voice><type>eighth</type><stem default-y="-8.5">up</stem><beam number="1">begin</beam><lyric default-y="-91" name="verse" number="1"><syllabic>single</syllabic><text font-size="10.8">bei</text></lyric></note><note default-x="160"><pitch><step>E</step><alter>-1</alter><octave>4</octave></pitch><duration>2</duration><voice>1</voice><type>16th</type><stem default-y="-8.5">up</stem><beam number="1">continue</beam><beam number="2">begin</beam><notations><slur number="1" placement="below" type="start" /></notations><lyric default-y="-91" name="verse" number="1"><syllabic>single</syllabic><text font-size="10.8">dir.</text><extend type="start" /></lyric></note><note default-x="183"><pitch><step>D</step><alter>-1</alter><octave>4</octave></pitch><duration>2</duration><voice>1</voice><type>16th</type><stem default-y="-8.5">up</stem><beam number="1">end</beam><beam number="2">end</beam></note><harmony default-y="36" font-size="10" font-weight="bold"><root><root-step>F</root-step></root><kind halign="center" text="m7">minor-seventh</kind></harmony><note default-x="221"><pitch><step>C</step><octave>4</octave></pitch><duration>16</duration><voice>1</voice><type>half</type><stem default-y="-17.5">up</stem><notations><slur number="1" type="stop" /></notations><lyric name="verse" number="1"><extend type="stop" /></lyric></note></measure><!--=======================================================--><measure number="17" width="245"><harmony default-y="36" font-size="10" font-weight="bold"><root><root-step>B</root-step><root-alter>-1</root-alter></root><kind halign="center" text="m">minor</kind></harmony><note default-x="24"><rest /><duration>8</duration><voice>1</voice><type>quarter</type></note><note default-x="55"><pitch><step>F</step><octave>4</octave></pitch><duration>4</duration><voice>1</voice><type>eighth</type><stem default-y="-3.5">up</stem><beam number="1">begin</beam><lyric default-y="-91" name="verse" number="1"><syllabic>begin</syllabic><text font-size="10.8">Kei</text></lyric></note><note default-x="101"><pitch><step>E</step><alter>-1</alter><octave>4</octave></pitch><duration>4</duration><voice>1</voice><type>eighth</type><stem default-y="-8.5">up</stem><beam number="1">end</beam><lyric default-y="-91" name="verse" number="1"><syllabic>end</syllabic><text font-size="10.8">ner</text></lyric></note><harmony default-y="36" font-size="10" font-weight="bold"><root><root-step>D</root-step><root-alter>-1</root-alter></root><kind halign="center" text="">major</kind><bass><bass-step>A</bass-step><bass-alter>-1</bass-alter></bass></harmony><note default-x="145"><pitch><step>D</step><alter>-1</alter><octave>4</octave></pitch><duration>8</duration><voice>1</voice><type>quarter</type><stem default-y="-13">up</stem><lyric default-y="-91" name="verse" number="1"><syllabic>single</syllabic><text font-size="10.8">ist</text></lyric></note><note default-x="205"><pitch><step>C</step><octave>4</octave></pitch><duration>8</duration><voice>1</voice><type>quarter</type><stem default-y="-17.5">up</stem><lyric default-y="-91" name="verse" number="1"><syllabic>single</syllabic><text font-size="10.8">wie</text></lyric></note></measure><!--=======================================================--><measure number="18" width="170"><harmony default-y="36" font-size="10" font-weight="bold"><root><root-step>E</root-step><root-alter>-1</root-alter></root><kind halign="center" text="">major</kind><bass><bass-step>G</bass-step></bass></harmony><note default-x="18"><pitch><step>B</step><alter>-1</alter><octave>3</octave></pitch><duration>16</duration><voice>1</voice><type>half</type><stem default-y="-19">up</stem><lyric default-y="-91" name="verse" number="1"><syllabic>single</syllabic><text font-size="10.8">du!</text></lyric></note><harmony default-y="36" font-size="10" font-weight="bold"><root><root-step>D</root-step><root-alter>-1</root-alter></root><kind halign="center" text="2">major</kind><bass><bass-step>F</bass-step></bass><degree print-object="no"><degree-value>2</degree-value><degree-alter>0</degree-alter><degree-type>add</degree-type></degree></harmony><note default-x="79"><pitch><step>A</step><alter>-1</alter><octave>4</octave></pitch><duration>8</duration><voice>1</voice><type size="cue">quarter</type><stem default-y="7">up</stem></note><harmony default-y="36" font-size="10" font-weight="bold"><root><root-step>E</root-step><root-alter>-1</root-alter></root><kind halign="center" text="">major</kind></harmony><note default-x="132"><pitch><step>B</step><alter>-1</alter><octave>4</octave></pitch><duration>8</duration><voice>1</voice><type size="cue">quarter</type><stem default-y="-52">down</stem></note><direction placement="above"><direction-type><words default-x="163" default-y="5" font-style="italic" justify="right">D.C. al Fine</words></direction-type><sound dacapo="yes" /></direction><barline location="right"><bar-style>light-light</bar-style></barline></measure></part><!--=========================================================--></score-partwise>