<?xml version="1.0" encoding="UTF-8" standalone="no"?><!DOCTYPE score-partwise PUBLIC "-//Recordare//DTD MusicXML 3.0 Partwise//EN" "http://www.musicxml.org/dtds/3.0/partwise.dtd"[]><score-partwise version="3.0"><movement-title>Kommt atmet auf</movement-title><identification><creator type="composer">Peter Strauch</creator><encoding><software>Finale v26.3 for Windows</software><encoding-date>2022-07-01</encoding-date><supports attribute="new-system" element="print" type="yes" value="yes" /><supports attribute="new-page" element="print" type="yes" value="yes" /><supports element="accidental" type="yes" /><supports element="beam" type="yes" /><supports element="stem" type="yes" /></encoding><rights>CCLI-Liednummer 4718651
© 1992 SCM Hänssler, Holzgerlingen
Nutzung ausschließlich im Rahmen der SongSelect®-Nutzungsbedingungen. Alle Rechte vorbehalten. www.ccli.com
CCLI-Lizenznummer 2182334
</rights></identification><defaults><scaling><millimeters>6.5088</millimeters><tenths>40</tenths></scaling><page-layout><page-height>1717</page-height><page-width>1327</page-width><page-margins type="both"><left-margin>78</left-margin><right-margin>78</right-margin><top-margin>78</top-margin><bottom-margin>78</bottom-margin></page-margins></page-layout><system-layout><system-margins><left-margin>0</left-margin><right-margin>0</right-margin></system-margins><system-distance>190</system-distance><top-system-distance>117</top-system-distance></system-layout><appearance><line-width type="stem">1.4583</line-width><line-width type="beam">5</line-width><line-width type="staff">1.25</line-width><line-width type="light barline">1.4583</line-width><line-width type="heavy barline">5</line-width><line-width type="leger">1.875</line-width><line-width type="ending">1.4583</line-width><line-width type="wedge">1.4583</line-width><line-width type="enclosure">1.4583</line-width><line-width type="tuplet bracket">1.4583</line-width><note-size type="grace">50</note-size><note-size type="cue">50</note-size><distance type="hyphen">240</distance><distance type="beam">7.5</distance></appearance><music-font font-family="Maestro,engraved" font-size="18.5" /><word-font font-family="Arial" font-size="9.2" /><lyric-font font-family="Georgia" font-size="10.8" name="verse" /><lyric-font font-family="Arial" font-size="10.8" name="section" /></defaults><credit page="1"><credit-type>title</credit-type><credit-words default-x="663" default-y="1649" font-size="21.6" font-weight="bold" justify="center" valign="top">Kommt atmet auf</credit-words></credit><credit page="1"><credit-words default-x="1249" default-y="1576" font-size="10.8" font-style="italic" justify="right" valign="top">Text und Musik:</credit-words></credit><credit page="1"><credit-type>composer</credit-type><credit-words default-x="1249" default-y="1552" font-size="10.8" font-weight="bold" justify="right" valign="top">Peter Strauch</credit-words></credit><part-list><score-part id="P1"><part-name print-object="no">Vocals</part-name><score-instrument id="P1-I2"><instrument-name>Melody</instrument-name></score-instrument><midi-instrument id="P1-I2"><midi-channel>1</midi-channel><midi-program>1</midi-program><volume>80</volume><pan>0</pan></midi-instrument></score-part></part-list><!--=========================================================--><part id="P1"><measure number="1" width="333"><print><page-layout><page-height>1717</page-height><page-width>1327</page-width><page-margins><left-margin>78</left-margin><right-margin>78</right-margin><top-margin>190</top-margin><bottom-margin>163</bottom-margin></page-margins></page-layout><system-layout><system-margins><left-margin>68</left-margin><right-margin>0</right-margin></system-margins></system-layout><measure-numbering>system</measure-numbering></print><attributes><divisions>2</divisions><key><fifths>2</fifths><mode>major</mode></key><time><beats>2</beats><beat-type>2</beat-type></time><clef><sign>G</sign><line>2</line></clef></attributes><sound tempo="96" /><harmony default-y="36" font-size="10" font-weight="bold"><root><root-step>D</root-step></root><kind halign="center" text="">major</kind></harmony><direction placement="above"><direction-type><rehearsal default-y="69" font-weight="bold" relative-x="-5">CHORUS</rehearsal></direction-type></direction><note default-x="143"><pitch><step>F</step><alter>1</alter><octave>4</octave></pitch><duration>2</duration><voice>1</voice><type>quarter</type><stem default-y="-4">up</stem><lyric default-y="-91" name="verse" number="1"><syllabic>single</syllabic><text font-size="10.8">Kommt,</text></lyric></note><note default-x="211"><pitch><step>F</step><alter>1</alter><octave>4</octave></pitch><duration>4</duration><voice>1</voice><type>half</type><stem default-y="-4">up</stem><lyric default-y="-91" name="verse" number="1"><syllabic>begin</syllabic><text font-size="10.8">at</text></lyric></note><note default-x="272"><pitch><step>G</step><octave>4</octave></pitch><duration>2</duration><voice>1</voice><type>quarter</type><stem default-y="1">up</stem><lyric default-y="-91" name="verse" number="1"><syllabic>end</syllabic><text font-size="10.8">met</text></lyric></note></measure><!--=======================================================--><measure number="2" width="204"><harmony default-y="36" font-size="10" font-weight="bold"><root><root-step>A</root-step></root><kind halign="center" text="">major</kind><bass><bass-step>C</bass-step><bass-alter>1</bass-alter></bass></harmony><note default-x="17"><pitch><step>A</step><octave>4</octave></pitch><duration>4</duration><voice>1</voice><type>half</type><stem default-y="6">up</stem><lyric default-y="-91" name="verse" number="1"><syllabic>single</syllabic><text font-size="10.8">auf,</text></lyric></note><note default-x="79"><pitch><step>B</step><octave>4</octave></pitch><duration>2</duration><voice>1</voice><type>quarter</type><stem default-y="-51">down</stem><lyric default-y="-91" name="verse" number="1"><syllabic>single</syllabic><text font-size="10.8">ihr</text></lyric></note><note default-x="140"><pitch><step>C</step><alter>1</alter><octave>5</octave></pitch><duration>2</duration><voice>1</voice><type>quarter</type><stem default-y="-46">down</stem><lyric default-y="-91" name="verse" number="1"><syllabic>single</syllabic><text font-size="10.8">sollt</text></lyric></note></measure><!--=======================================================--><measure number="3" width="108"><harmony default-y="36" font-size="10" font-weight="bold"><root><root-step>B</root-step></root><kind halign="center" text="m">minor</kind></harmony><note default-x="21"><pitch><step>D</step><octave>5</octave></pitch><duration>8</duration><voice>1</voice><type>whole</type><lyric default-y="-91" name="verse" number="1"><syllabic>begin</syllabic><text font-size="10.8">le</text></lyric></note></measure><!--=======================================================--><measure number="4" width="141"><harmony default-y="36" font-size="10" font-weight="bold"><root><root-step>F</root-step><root-alter>1</root-alter></root><kind halign="center" text="m">minor</kind></harmony><note default-x="24"><pitch><step>A</step><octave>4</octave></pitch><duration>6</duration><voice>1</voice><type>half</type><dot /><stem default-y="6">up</stem><lyric default-y="-91" name="verse" number="1"><syllabic>end</syllabic><text font-size="10.8">ben.</text></lyric></note><note default-x="82"><pitch><step>A</step><octave>4</octave></pitch><duration>2</duration><voice>1</voice><type>quarter</type><stem default-y="6">up</stem><lyric default-y="-91" name="verse" number="1"><syllabic>single</syllabic><text font-size="10.8">Ihr</text></lyric></note></measure><!--=======================================================--><measure number="5" width="316"><harmony default-y="36" font-size="10" font-weight="bold"><root><root-step>G</root-step></root><kind halign="center" text="">major</kind></harmony><note default-x="25"><pitch><step>A</step><octave>4</octave></pitch><duration>2</duration><voice>1</voice><type>quarter</type><stem default-y="6">up</stem><lyric default-y="-91" name="verse" number="1"><syllabic>single</syllabic><text font-size="10.8">müsst</text></lyric></note><note default-x="99"><pitch><step>G</step><octave>4</octave></pitch><duration>2</duration><voice>1</voice><type>quarter</type><stem default-y="1">up</stem><lyric default-y="-91" name="verse" number="1"><syllabic>single</syllabic><text font-size="10.8">nicht</text></lyric></note><note default-x="172"><pitch><step>G</step><octave>4</octave></pitch><duration>2</duration><voice>1</voice><type>quarter</type><stem default-y="1">up</stem><lyric default-y="-91" name="verse" number="1"><syllabic>single</syllabic><text font-size="10.8">mehr</text></lyric></note><note default-x="244"><pitch><step>F</step><alter>1</alter><octave>4</octave></pitch><duration>2</duration><voice>1</voice><type>quarter</type><stem default-y="-4">up</stem><lyric default-y="-91" name="verse" number="1"><syllabic>begin</syllabic><text font-size="10.8">ver</text></lyric></note></measure><!--=======================================================--><measure number="6" width="286"><print new-system="yes"><system-layout><system-distance>180</system-distance></system-layout></print><harmony default-y="36" font-size="10" font-weight="bold"><root><root-step>A</root-step></root><kind halign="center" text="">major</kind></harmony><note default-x="91"><pitch><step>F</step><alter>1</alter><octave>4</octave></pitch><duration>2</duration><voice>1</voice><type>quarter</type><stem default-y="-4">up</stem><lyric default-y="-91" name="verse" number="1"><syllabic>middle</syllabic><text font-size="10.8">zwei</text></lyric></note><note default-x="156"><pitch><step>E</step><octave>4</octave></pitch><duration>4</duration><voice>1</voice><type>half</type><stem default-y="-8.5">up</stem><lyric default-y="-91" name="verse" number="1"><syllabic>end</syllabic><text font-size="10.8">feln,</text></lyric></note><note default-x="222"><pitch><step>A</step><octave>4</octave></pitch><duration>2</duration><voice>1</voice><type>quarter</type><stem default-y="6.5">up</stem><lyric default-y="-91" name="verse" number="1"><syllabic>single</syllabic><text font-size="10.8">nicht</text></lyric></note></measure><!--=======================================================--><measure number="7" width="238"><harmony default-y="36" font-size="10" font-weight="bold"><root><root-step>E</root-step></root><kind halign="center" text="m">minor</kind></harmony><note default-x="21"><pitch><step>A</step><octave>4</octave></pitch><duration>2</duration><voice>1</voice><type>quarter</type><stem default-y="6.5">up</stem><lyric default-y="-91" name="verse" number="1"><syllabic>begin</syllabic><text font-size="10.8">län</text></lyric></note><note default-x="74"><pitch><step>G</step><octave>4</octave></pitch><duration>2</duration><voice>1</voice><type>quarter</type><stem default-y="1">up</stem><lyric default-y="-91" name="verse" number="1"><syllabic>end</syllabic><text font-size="10.8">ger</text></lyric></note><note default-x="129"><pitch><step>G</step><octave>4</octave></pitch><duration>2</duration><voice>1</voice><type>quarter</type><stem default-y="1">up</stem><lyric default-y="-91" name="verse" number="1"><syllabic>begin</syllabic><text font-size="10.8">mut</text></lyric></note><note default-x="183"><pitch><step>F</step><alter>1</alter><octave>4</octave></pitch><duration>2</duration><voice>1</voice><type>quarter</type><stem default-y="-4">up</stem><lyric default-y="-91" name="verse" number="1"><syllabic>end</syllabic><text font-size="10.8">los</text></lyric></note></measure><!--=======================================================--><measure number="8" width="101"><harmony default-y="36" font-size="10" font-weight="bold"><root><root-step>A</root-step></root><kind halign="center" text="">major</kind></harmony><note default-x="18"><pitch><step>E</step><octave>4</octave></pitch><duration>8</duration><voice>1</voice><type>whole</type><lyric default-y="-91" name="verse" number="1"><syllabic>single</syllabic><text font-size="10.8">sein.</text></lyric></note></measure><!--=======================================================--><measure number="9" width="182"><harmony default-y="36" font-size="10" font-weight="bold"><root><root-step>D</root-step></root><kind halign="center" text="">major</kind></harmony><note default-x="17"><pitch><step>F</step><alter>1</alter><octave>4</octave></pitch><duration>2</duration><voice>1</voice><type>quarter</type><stem default-y="-4">up</stem><lyric default-y="-91" name="verse" number="1"><syllabic>single</syllabic><text font-size="10.8">Gott</text></lyric></note><note default-x="72"><pitch><step>F</step><alter>1</alter><octave>4</octave></pitch><duration>4</duration><voice>1</voice><type>half</type><stem default-y="-4">up</stem><lyric default-y="-91" name="verse" number="1"><syllabic>single</syllabic><text font-size="10.8">hat</text></lyric></note><note default-x="128"><pitch><step>G</step><octave>4</octave></pitch><duration>2</duration><voice>1</voice><type>quarter</type><stem default-y="1">up</stem><lyric default-y="-91" name="verse" number="1"><syllabic>single</syllabic><text font-size="10.8">uns</text></lyric></note></measure><!--=======================================================--><measure number="10" width="261"><harmony default-y="36" font-size="10" font-weight="bold"><root><root-step>A</root-step></root><kind halign="center" text="">major</kind><bass><bass-step>C</bass-step><bass-alter>1</bass-alter></bass></harmony><note default-x="17"><pitch><step>A</step><octave>4</octave></pitch><duration>2</duration><voice>1</voice><type>quarter</type><stem default-y="6.5">up</stem><lyric default-y="-91" name="verse" number="1"><syllabic>begin</syllabic><text font-size="10.8">sei</text></lyric></note><note default-x="80"><pitch><step>A</step><octave>4</octave></pitch><duration>2</duration><voice>1</voice><type>quarter</type><stem default-y="6.5">up</stem><lyric default-y="-91" name="verse" number="1"><syllabic>end</syllabic><text font-size="10.8">nen</text></lyric></note><note default-x="144"><pitch><step>B</step><octave>4</octave></pitch><duration>2</duration><voice>1</voice><type>quarter</type><stem default-y="-51">down</stem><lyric default-y="-91" name="verse" number="1"><syllabic>single</syllabic><text font-size="10.8">Sohn</text></lyric></note><note default-x="204"><pitch><step>C</step><alter>1</alter><octave>5</octave></pitch><duration>2</duration><voice>1</voice><type>quarter</type><stem default-y="-46">down</stem><lyric default-y="-91" name="verse" number="1"><syllabic>begin</syllabic><text font-size="10.8">ge</text></lyric></note></measure><!--=======================================================--><measure number="11" width="103"><harmony default-y="36" font-size="10" font-weight="bold"><root><root-step>B</root-step></root><kind halign="center" text="m">minor</kind></harmony><note default-x="21"><pitch><step>D</step><octave>5</octave></pitch><duration>8</duration><voice>1</voice><type>whole</type><lyric default-y="-91" name="verse" number="1"><syllabic>middle</syllabic><text font-size="10.8">ge</text></lyric></note></measure><!--=======================================================--><measure number="12" width="200"><print new-system="yes"><system-layout><system-distance>180</system-distance></system-layout></print><harmony default-y="36" font-size="10" font-weight="bold"><root><root-step>F</root-step><root-alter>1</root-alter></root><kind halign="center" text="m">minor</kind></harmony><note default-x="98"><pitch><step>A</step><octave>4</octave></pitch><duration>6</duration><voice>1</voice><type>half</type><dot /><stem default-y="6.5">up</stem><lyric default-y="-91" name="verse" number="1"><syllabic>end</syllabic><text font-size="10.8">ben.</text></lyric></note><note default-x="155"><pitch><step>F</step><alter>1</alter><octave>4</octave></pitch><duration>2</duration><voice>1</voice><type>quarter</type><stem default-y="-3">up</stem><lyric default-y="-91" name="verse" number="1"><syllabic>single</syllabic><text font-size="10.8">Mit</text></lyric></note></measure><!--=======================================================--><measure number="13" width="240"><harmony default-y="36" font-size="10" font-weight="bold"><root><root-step>E</root-step></root><kind halign="center" text="m">minor</kind></harmony><note default-x="20"><pitch><step>G</step><octave>4</octave></pitch><duration>2</duration><voice>1</voice><type>quarter</type><stem default-y="1.5">up</stem><lyric default-y="-91" name="verse" number="1"><syllabic>single</syllabic><text font-size="10.8">ihm</text></lyric></note><note default-x="85"><pitch><step>F</step><alter>1</alter><octave>4</octave></pitch><duration>2</duration><voice>1</voice><type>quarter</type><stem default-y="-3">up</stem><lyric default-y="-91" name="verse" number="1"><syllabic>single</syllabic><text font-size="10.8">kehrt</text></lyric></note><note default-x="148"><pitch><step>G</step><octave>4</octave></pitch><duration>2</duration><voice>1</voice><type>quarter</type><stem default-y="1.5">up</stem><lyric default-y="-91" name="verse" number="1"><syllabic>begin</syllabic><text font-size="10.8">neu</text></lyric></note><note default-x="196"><pitch><step>A</step><octave>4</octave></pitch><duration>2</duration><voice>1</voice><type>quarter</type><stem default-y="6.5">up</stem><lyric default-y="-91" name="verse" number="1"><syllabic>end</syllabic><text font-size="10.8">es</text></lyric></note></measure><!--=======================================================--><measure number="14" width="210"><harmony default-y="36" font-size="10" font-weight="bold"><root><root-step>A</root-step></root><kind halign="center" text="">major</kind></harmony><note default-x="14"><pitch><step>F</step><alter>1</alter><octave>4</octave></pitch><duration>2</duration><voice>1</voice><type>quarter</type><stem default-y="-3">up</stem><lyric default-y="-91" name="verse" number="1"><syllabic>begin</syllabic><text font-size="10.8">Le</text></lyric></note><note default-x="63"><pitch><step>E</step><octave>4</octave></pitch><duration>2</duration><voice>1</voice><type>quarter</type><stem default-y="-9">up</stem><lyric default-y="-91" name="verse" number="1"><syllabic>end</syllabic><text font-size="10.8">ben</text></lyric></note><note default-x="114"><pitch><step>D</step><octave>4</octave></pitch><duration>2</duration><voice>1</voice><type>quarter</type><stem default-y="-14">up</stem><lyric default-y="-91" name="verse" number="1"><syllabic>single</syllabic><text font-size="10.8">bei</text></lyric></note><note default-x="165"><pitch><step>C</step><alter>1</alter><octave>4</octave></pitch><duration>2</duration><voice>1</voice><type>quarter</type><stem default-y="-18.5">up</stem><lyric default-y="-91" name="verse" number="1"><syllabic>single</syllabic><text font-size="10.8">uns</text></lyric></note></measure><!--=======================================================--><measure number="15" width="94"><harmony default-y="36" font-size="10" font-weight="bold"><root><root-step>D</root-step></root><kind halign="center" text="">major</kind></harmony><note default-x="12"><pitch><step>D</step><octave>4</octave></pitch><duration>8</duration><tie type="start" /><voice>1</voice><type>whole</type><notations><tied type="start" /></notations><lyric default-y="-91" name="verse" number="1"><syllabic>single</syllabic><text font-size="10.8">ein.</text><extend type="start" /></lyric></note></measure><!--=======================================================--><measure number="16" width="106"><note default-x="10"><pitch><step>D</step><octave>4</octave></pitch><duration>4</duration><tie type="stop" /><voice>1</voice><type>half</type><stem default-y="-14">up</stem><notations><tied type="stop" /></notations><lyric name="verse" number="1"><extend type="stop" /></lyric></note><note default-x="51"><rest /><duration>4</duration><voice>1</voice><type>half</type></note><direction placement="above"><direction-type><words default-x="102" default-y="13" font-style="italic" justify="right">Fine</words></direction-type><sound fine="yes" time-only="4" /></direction><barline location="right"><bar-style>light-heavy</bar-style></barline></measure><!--=======================================================--><measure number="17" width="321"><harmony default-y="36" font-size="10" font-weight="bold"><root><root-step>D</root-step></root><kind halign="center" text="">major</kind></harmony><direction placement="above"><direction-type><rehearsal default-y="69" font-weight="bold" relative-x="-5">VERS</rehearsal></direction-type></direction><note default-x="46"><pitch><step>F</step><alter>1</alter><octave>4</octave></pitch><duration>2</duration><voice>1</voice><type>quarter</type><stem default-y="-3">up</stem><lyric default-y="-91" name="verse" number="1"><syllabic>single</syllabic><text font-size="10.8">1.</text><elision> </elision><syllabic>single</syllabic><text font-size="10.8">Ihr,</text><elision> </elision><syllabic>single</syllabic><text font-size="10.8" /><elision> </elision><syllabic>single</syllabic><text font-size="10.8" /><elision> </elision><syllabic>single</syllabic><text font-size="10.8" /><elision> </elision><syllabic>single</syllabic><text font-size="10.8" /><elision> </elision><syllabic>single</syllabic><text font-size="10.8" /><elision> </elision><syllabic>single</syllabic><text font-size="10.8" /></lyric><lyric default-y="-115" name="verse" number="2"><syllabic>single</syllabic><text font-size="10.8">2.</text><elision> </elision><syllabic>single</syllabic><text font-size="10.8">Ihr</text><elision> </elision><syllabic>single</syllabic><text font-size="10.8" /><elision> </elision><syllabic>single</syllabic><text font-size="10.8" /><elision> </elision><syllabic>single</syllabic><text font-size="10.8" /><elision> </elision><syllabic>single</syllabic><text font-size="10.8" /><elision> </elision><syllabic>single</syllabic><text font-size="10.8" /><elision> </elision><syllabic>single</syllabic><text font-size="10.8" /><elision> </elision><syllabic>single</syllabic><text font-size="10.8" /><elision> </elision><syllabic>single</syllabic><text font-size="10.8" /></lyric><lyric default-y="-140" name="verse" number="3"><syllabic>single</syllabic><text font-size="10.8">3.</text><elision> </elision><syllabic>single</syllabic><text font-size="10.8">Noch</text><elision> </elision><syllabic>single</syllabic><text font-size="10.8" /><elision> </elision><syllabic>single</syllabic><text font-size="10.8" /><elision> </elision><syllabic>single</syllabic><text font-size="10.8" /><elision> </elision><syllabic>single</syllabic><text font-size="10.8" /></lyric></note><note default-x="137"><pitch><step>F</step><alter>1</alter><octave>4</octave></pitch><duration>2</duration><voice>1</voice><type>quarter</type><stem default-y="-3">up</stem><lyric default-y="-91" name="verse" number="1"><syllabic>single</syllabic><text font-size="10.8">die</text></lyric><lyric default-y="-115" name="verse" number="2"><syllabic>single</syllabic><text font-size="10.8">seid</text></lyric><lyric default-y="-140" name="verse" number="3"><syllabic>single</syllabic><text font-size="10.8">ist</text></lyric></note><note default-x="207"><pitch><step>E</step><octave>4</octave></pitch><duration>2</duration><voice>1</voice><type>quarter</type><stem default-y="-9">up</stem><lyric default-y="-91" name="verse" number="1"><syllabic>single</syllabic><text font-size="10.8">ihr</text></lyric><lyric default-y="-115" name="verse" number="2"><syllabic>begin</syllabic><text font-size="10.8">ein</text></lyric><lyric default-y="-140" name="verse" number="3"><syllabic>single</syllabic><text font-size="10.8">nichts</text></lyric></note><note default-x="274"><pitch><step>D</step><octave>4</octave></pitch><duration>2</duration><voice>1</voice><type>quarter</type><stem default-y="-14">up</stem><lyric default-y="-91" name="verse" number="1"><syllabic>single</syllabic><text font-size="10.8">seit</text></lyric><lyric default-y="-115" name="verse" number="2"><syllabic>middle</syllabic><text font-size="10.8">ge</text></lyric><lyric default-y="-140" name="verse" number="3"><syllabic>begin</syllabic><text font-size="10.8">ver</text></lyric></note></measure><!--=======================================================--><measure number="18" width="227"><print new-system="yes"><system-layout><system-distance>180</system-distance></system-layout></print><harmony default-y="36" font-size="10" font-weight="bold"><root><root-step>B</root-step></root><kind halign="center" text="m">minor</kind></harmony><note default-x="95"><pitch><step>C</step><alter>1</alter><octave>4</octave></pitch><duration>2</duration><voice>1</voice><type>quarter</type><stem default-y="-18.5">up</stem><lyric default-y="-91" name="verse" number="1"><syllabic>begin</syllabic><text font-size="10.8">lan</text></lyric><lyric default-y="-115" name="verse" number="2"><syllabic>middle</syllabic><text font-size="10.8">la</text></lyric><lyric default-y="-140" name="verse" number="3"><syllabic>middle</syllabic><text font-size="10.8">lo</text></lyric></note><note default-x="160"><pitch><step>B</step><octave>3</octave></pitch><duration>6</duration><voice>1</voice><type>half</type><dot /><stem default-y="-20">up</stem><lyric default-y="-91" name="verse" number="1"><syllabic>end</syllabic><text font-size="10.8">gem</text></lyric><lyric default-y="-115" name="verse" number="2"><syllabic>end</syllabic><text font-size="10.8">den.</text></lyric><lyric default-y="-140" name="verse" number="3"><syllabic>end</syllabic><text font-size="10.8">ren,</text></lyric></note></measure><!--=======================================================--><measure number="19" width="309"><harmony default-y="36" font-size="10" font-weight="bold"><root><root-step>E</root-step></root><kind halign="center" text="m">minor</kind></harmony><note default-x="21"><pitch><step>D</step><octave>4</octave></pitch><duration>2</duration><voice>1</voice><type>quarter</type><stem default-y="-14">up</stem><lyric default-y="-91" name="verse" number="1"><syllabic>single</syllabic><text font-size="10.8">nach</text></lyric><lyric default-y="-115" name="verse" number="2"><syllabic>single</syllabic><text font-size="10.8">Gott</text></lyric><lyric default-y="-140" name="verse" number="3"><syllabic>single</syllabic><text font-size="10.8">noch</text></lyric></note><note default-x="93"><pitch><step>D</step><octave>4</octave></pitch><duration>2</duration><voice>1</voice><type>quarter</type><stem default-y="-14">up</stem><lyric default-y="-91" name="verse" number="1"><syllabic>single</syllabic><text font-size="10.8">dem</text></lyric><lyric default-y="-115" name="verse" number="2"><syllabic>single</syllabic><text font-size="10.8">liebt</text></lyric><lyric default-y="-140" name="verse" number="3"><syllabic>single</syllabic><text font-size="10.8">ist</text></lyric></note><harmony default-y="36" font-size="10" font-weight="bold"><root><root-step>A</root-step></root><kind halign="center" text="">major</kind></harmony><note default-x="164"><pitch><step>E</step><octave>4</octave></pitch><duration>2</duration><voice>1</voice><type>quarter</type><stem default-y="-9">up</stem><lyric default-y="-91" name="verse" number="1"><syllabic>begin</syllabic><text font-size="10.8">Le</text></lyric><lyric default-y="-115" name="verse" number="2"><syllabic>begin</syllabic><text font-size="10.8">al</text></lyric><lyric default-y="-140" name="verse" number="3"><syllabic>begin</syllabic><text font-size="10.8">Ret</text></lyric></note><note default-x="236"><pitch><step>A</step><octave>4</octave></pitch><duration>2</duration><voice>1</voice><type>quarter</type><stem default-y="6">up</stem><lyric default-y="-91" name="verse" number="1"><syllabic>end</syllabic><text font-size="10.8">ben</text></lyric><lyric default-y="-115" name="verse" number="2"><syllabic>end</syllabic><text font-size="10.8">le</text></lyric><lyric default-y="-140" name="verse" number="3"><syllabic>end</syllabic><text font-size="10.8">tung</text></lyric></note></measure><!--=======================================================--><measure number="20" width="115"><harmony default-y="36" font-size="10" font-weight="bold"><root><root-step>D</root-step></root><kind halign="center" text="">major</kind></harmony><note default-x="27"><pitch><step>F</step><alter>1</alter><octave>4</octave></pitch><duration>8</duration><voice>1</voice><type>whole</type><lyric default-y="-91" name="verse" number="1"><syllabic>single</syllabic><text font-size="10.8">jagt</text></lyric><lyric default-y="-115" name="verse" number="2"><syllabic>single</syllabic><text font-size="10.8">gleich.</text></lyric><lyric default-y="-140" name="verse" number="3"><syllabic>single</syllabic><text font-size="10.8">nah.</text></lyric></note></measure><!--=======================================================--><measure number="21" width="359"><harmony default-y="36" font-size="10" font-weight="bold"><root><root-step>G</root-step></root><kind halign="center" text="">major</kind></harmony><note default-x="21"><pitch><step>B</step><octave>4</octave></pitch><duration>2</duration><voice>1</voice><type>quarter</type><stem default-y="-51">down</stem><lyric default-y="-91" name="verse" number="1"><syllabic>single</syllabic><text font-size="10.8">und</text></lyric><lyric default-y="-115" name="verse" number="2"><syllabic>single</syllabic><text font-size="10.8">Er</text></lyric><lyric default-y="-140" name="verse" number="3"><syllabic>single</syllabic><text font-size="10.8">Noch</text></lyric></note><note default-x="105"><pitch><step>B</step><octave>4</octave></pitch><duration>2</duration><voice>1</voice><type>quarter</type><stem default-y="-51">down</stem><lyric default-y="-91" name="verse" number="1"><syllabic>begin</syllabic><text font-size="10.8">bis</text></lyric><lyric default-y="-115" name="verse" number="2"><syllabic>single</syllabic><text font-size="10.8">trennt</text></lyric><lyric default-y="-140" name="verse" number="3"><syllabic>single</syllabic><text font-size="10.8">ist</text></lyric></note><note default-x="189"><pitch><step>B</step><octave>4</octave></pitch><duration>2</duration><voice>1</voice><type>quarter</type><stem default-y="-51">down</stem><lyric default-y="-91" name="verse" number="1"><syllabic>end</syllabic><text font-size="10.8">her</text></lyric><lyric default-y="-115" name="verse" number="2"><syllabic>single</syllabic><text font-size="10.8">nicht</text></lyric><lyric default-y="-140" name="verse" number="3"><syllabic>begin</syllabic><text font-size="10.8">Got</text></lyric></note><note default-x="273"><pitch><step>B</step><octave>4</octave></pitch><duration>2</duration><voice>1</voice><type>quarter</type><stem default-y="-51">down</stem><lyric default-y="-91" name="verse" number="1"><syllabic>begin</syllabic><text font-size="10.8">ver</text></lyric><lyric default-y="-115" name="verse" number="2"><syllabic>single</syllabic><text font-size="10.8">nach</text></lyric><lyric default-y="-140" name="verse" number="3"><syllabic>end</syllabic><text font-size="10.8">tes</text></lyric></note></measure><!--=======================================================--><measure number="22" width="160"><harmony default-y="36" font-size="10" font-weight="bold"><root><root-step>F</root-step><root-alter>1</root-alter></root><kind halign="center" text="m">minor</kind></harmony><note default-x="24"><pitch><step>B</step><octave>4</octave></pitch><duration>4</duration><voice>1</voice><type>half</type><stem default-y="-51">down</stem><lyric default-y="-91" name="verse" number="1"><syllabic>middle</syllabic><text font-size="10.8">geb</text></lyric><lyric default-y="-115" name="verse" number="2"><syllabic>begin</syllabic><text font-size="10.8">Far</text></lyric><lyric default-y="-140" name="verse" number="3"><syllabic>begin</syllabic><text font-size="10.8">Lie</text></lyric></note><note default-x="91"><pitch><step>A</step><octave>4</octave></pitch><duration>4</duration><voice>1</voice><type>half</type><stem default-y="6">up</stem><lyric default-y="-91" name="verse" number="1"><syllabic>end</syllabic><text font-size="10.8">lich</text></lyric><lyric default-y="-115" name="verse" number="2"><syllabic>end</syllabic><text font-size="10.8">ben,</text></lyric><lyric default-y="-140" name="verse" number="3"><syllabic>end</syllabic><text font-size="10.8">be</text></lyric></note></measure><!--=======================================================--><measure number="23" width="357"><print new-system="yes"><system-layout><system-distance>180</system-distance></system-layout></print><harmony default-y="36" font-size="10" font-weight="bold"><root><root-step>G</root-step></root><kind halign="center" text="">major</kind></harmony><note default-x="94"><pitch><step>A</step><octave>4</octave></pitch><duration>2</duration><voice>1</voice><type>quarter</type><stem default-y="6">up</stem><lyric default-y="-91" name="verse" number="1"><syllabic>begin</syllabic><text font-size="10.8">Ant</text></lyric><lyric default-y="-115" name="verse" number="2"><syllabic>single</syllabic><text font-size="10.8">nicht</text></lyric><lyric default-y="-140" name="verse" number="3"><syllabic>single</syllabic><text font-size="10.8">für</text></lyric></note><note default-x="163"><pitch><step>G</step><octave>4</octave></pitch><duration>2</duration><voice>1</voice><type>quarter</type><stem default-y="1.5">up</stem><lyric default-y="-91" name="verse" number="1"><syllabic>middle</syllabic><text font-size="10.8">wor</text></lyric><lyric default-y="-115" name="verse" number="2"><syllabic>single</syllabic><text font-size="10.8">nach</text></lyric><lyric default-y="-140" name="verse" number="3"><syllabic>single</syllabic><text font-size="10.8">uns</text></lyric></note><harmony default-y="36" font-size="10" font-weight="bold"><root><root-step>E</root-step></root><kind halign="center" text="m">minor</kind></harmony><note default-x="229"><pitch><step>G</step><octave>4</octave></pitch><duration>2</duration><voice>1</voice><type>quarter</type><stem default-y="1.5">up</stem><lyric default-y="-91" name="verse" number="1"><syllabic>end</syllabic><text font-size="10.8">ten</text></lyric><lyric default-y="-115" name="verse" number="2"><syllabic>single</syllabic><text font-size="10.8">Arm</text></lyric><lyric default-y="-140" name="verse" number="3"><syllabic>begin</syllabic><text font-size="10.8">Men</text></lyric></note><note default-x="298"><pitch><step>F</step><alter>1</alter><octave>4</octave></pitch><duration>2</duration><voice>1</voice><type>quarter</type><stem default-y="-3.5">up</stem><lyric default-y="-91" name="verse" number="1"><syllabic>begin</syllabic><text font-size="10.8">er</text></lyric><lyric default-y="-115" name="verse" number="2"><syllabic>single</syllabic><text font-size="10.8">und</text></lyric><lyric default-y="-140" name="verse" number="3"><syllabic>end</syllabic><text font-size="10.8">schen</text></lyric></note></measure><!--=======================================================--><measure number="24" width="119"><harmony default-y="36" font-size="10" font-weight="bold"><root><root-step>A</root-step></root><kind halign="center" text="sus">suspended-fourth</kind></harmony><note default-x="31"><pitch><step>E</step><octave>4</octave></pitch><duration>8</duration><voice>1</voice><type>whole</type><lyric default-y="-91" name="verse" number="1"><syllabic>end</syllabic><text font-size="10.8">fragt,</text></lyric><lyric default-y="-115" name="verse" number="2"><syllabic>single</syllabic><text font-size="10.8">Reich.</text></lyric><lyric default-y="-140" name="verse" number="3"><syllabic>single</syllabic><text font-size="10.8">da.</text></lyric></note><backup><duration>8</duration></backup><forward><duration>4</duration><voice>2</voice></forward><harmony default-y="36" font-size="10" font-weight="bold"><root><root-step>A</root-step></root><kind halign="center" text="">major</kind></harmony><forward><duration>4</duration><voice>2</voice></forward></measure><!--=======================================================--><measure number="25" width="280"><harmony default-y="36" font-size="10" font-weight="bold"><root><root-step>D</root-step></root><kind halign="center" text="">major</kind></harmony><note default-x="21"><pitch><step>F</step><alter>1</alter><octave>4</octave></pitch><duration>2</duration><voice>1</voice><type>quarter</type><stem default-y="-3.5">up</stem><lyric default-y="-91" name="verse" number="1"><syllabic>single</syllabic><text font-size="10.8">hört</text></lyric><lyric default-y="-115" name="verse" number="2"><syllabic>single</syllabic><text font-size="10.8">Er</text></lyric><lyric default-y="-140" name="verse" number="3"><syllabic>single</syllabic><text font-size="10.8">Noch</text></lyric></note><note default-x="89"><pitch><step>F</step><alter>1</alter><octave>4</octave></pitch><duration>2</duration><voice>1</voice><type>quarter</type><stem default-y="-3.5">up</stem><lyric default-y="-91" name="verse" number="1"><syllabic>single</syllabic><text font-size="10.8">die</text></lyric><lyric default-y="-115" name="verse" number="2"><syllabic>single</syllabic><text font-size="10.8">fragt</text></lyric><lyric default-y="-140" name="verse" number="3"><syllabic>single</syllabic><text font-size="10.8">wird</text></lyric></note><harmony default-y="36" font-size="10" font-weight="bold"><root><root-step>F</root-step><root-alter>1</root-alter></root><kind halign="center" text="">major</kind></harmony><note default-x="157"><pitch><step>A</step><alter>1</alter><octave>4</octave></pitch><duration>2</duration><voice>1</voice><type>quarter</type><accidental>sharp</accidental><stem default-y="6">up</stem><lyric default-y="-91" name="verse" number="1"><syllabic>begin</syllabic><text font-size="10.8">gu</text></lyric><lyric default-y="-115" name="verse" number="2"><syllabic>single</syllabic><text font-size="10.8">nicht</text></lyric><lyric default-y="-140" name="verse" number="3"><syllabic>begin</syllabic><text font-size="10.8">Le</text></lyric></note><note default-x="225"><pitch><step>A</step><alter>1</alter><octave>4</octave></pitch><duration>2</duration><voice>1</voice><type>quarter</type><stem default-y="6">up</stem><lyric default-y="-91" name="verse" number="1"><syllabic>end</syllabic><text font-size="10.8">te</text></lyric><lyric default-y="-115" name="verse" number="2"><syllabic>single</syllabic><text font-size="10.8">nach</text></lyric><lyric default-y="-140" name="verse" number="3"><syllabic>end</syllabic><text font-size="10.8">ben</text></lyric></note></measure><!--=======================================================--><measure number="26" width="147"><harmony default-y="36" font-size="10" font-weight="bold"><root><root-step>B</root-step></root><kind halign="center" text="m">minor</kind></harmony><note default-x="21"><pitch><step>B</step><octave>4</octave></pitch><duration>2</duration><voice>1</voice><type>quarter</type><stem default-y="-51">down</stem><lyric default-y="-91" name="verse" number="1"><syllabic>begin</syllabic><text font-size="10.8">Nach</text></lyric><lyric default-y="-115" name="verse" number="2"><syllabic>begin</syllabic><text font-size="10.8">Ras</text></lyric><lyric default-y="-140" name="verse" number="3"><syllabic>begin</syllabic><text font-size="10.8">fin</text></lyric></note><note default-x="92"><pitch><step>B</step><octave>4</octave></pitch><duration>6</duration><voice>1</voice><type>half</type><dot /><stem default-y="-51">down</stem><lyric default-y="-91" name="verse" number="1"><syllabic>end</syllabic><text font-size="10.8">richt,</text></lyric><lyric default-y="-115" name="verse" number="2"><syllabic>end</syllabic><text font-size="10.8">se,</text></lyric><lyric default-y="-140" name="verse" number="3"><syllabic>end</syllabic><text font-size="10.8">den,</text></lyric></note></measure><!--=======================================================--><measure number="27" width="267"><note default-x="16"><pitch><step>D</step><octave>5</octave></pitch><duration>2</duration><voice>1</voice><type>quarter</type><stem default-y="-41">down</stem><lyric default-y="-91" name="verse" number="1"><syllabic>single</syllabic><text font-size="10.8">dass</text></lyric><lyric default-y="-115" name="verse" number="2"><syllabic>begin</syllabic><text font-size="10.8">Her</text></lyric><lyric default-y="-140" name="verse" number="3"><syllabic>single</syllabic><text font-size="10.8">wer</text></lyric></note><note default-x="84"><pitch><step>D</step><octave>5</octave></pitch><duration>2</duration><voice>1</voice><type>quarter</type><stem default-y="-41">down</stem><lyric default-y="-91" name="verse" number="1"><syllabic>single</syllabic><text font-size="10.8">euch</text></lyric><lyric default-y="-115" name="verse" number="2"><syllabic>end</syllabic><text font-size="10.8">kunft</text></lyric><lyric default-y="-140" name="verse" number="3"><syllabic>single</syllabic><text font-size="10.8">an</text></lyric></note><harmony default-y="36" font-size="10" font-weight="bold"><root><root-step>F</root-step><root-alter>1</root-alter></root><kind halign="center" text="m">minor</kind></harmony><note default-x="156"><pitch><step>C</step><alter>1</alter><octave>5</octave></pitch><duration>2</duration><voice>1</voice><type>quarter</type><stem default-y="-46">down</stem><lyric default-y="-91" name="verse" number="1"><syllabic>begin</syllabic><text font-size="10.8">Chris</text></lyric><lyric default-y="-115" name="verse" number="2"><syllabic>single</syllabic><text font-size="10.8">und</text></lyric><lyric default-y="-140" name="verse" number="3"><syllabic>begin</syllabic><text font-size="10.8">Je</text></lyric></note><note default-x="218"><pitch><step>A</step><octave>4</octave></pitch><duration>2</duration><voice>1</voice><type>quarter</type><stem default-y="6">up</stem><lyric default-y="-91" name="verse" number="1"><syllabic>end</syllabic><text font-size="10.8">tus</text></lyric><lyric default-y="-115" name="verse" number="2"><syllabic>begin</syllabic><text font-size="10.8">Ge</text></lyric><lyric default-y="-140" name="verse" number="3"><syllabic>end</syllabic><text font-size="10.8">sus</text></lyric></note></measure><!--=======================================================--><measure number="28" width="200"><print new-system="yes"><system-layout><system-distance>180</system-distance></system-layout></print><harmony default-y="36" font-size="10" font-weight="bold"><root><root-step>B</root-step></root><kind halign="center" text="m">minor</kind></harmony><note default-x="113"><pitch><step>F</step><alter>1</alter><octave>4</octave></pitch><duration>8</duration><voice>1</voice><type>whole</type><lyric default-y="-91" name="verse" number="1"><syllabic>single</syllabic><text font-size="10.8">liebt,</text></lyric><lyric default-y="-115" name="verse" number="2"><syllabic>end</syllabic><text font-size="10.8">schlecht.</text></lyric><lyric default-y="-140" name="verse" number="3"><syllabic>single</syllabic><text font-size="10.8">glaubt.</text></lyric></note></measure><!--=======================================================--><measure number="29" width="337"><harmony default-y="36" font-size="10" font-weight="bold"><root><root-step>G</root-step></root><kind halign="center" text="">major</kind></harmony><note default-x="21"><pitch><step>B</step><octave>4</octave></pitch><duration>2</duration><voice>1</voice><type>quarter</type><stem default-y="-51">down</stem><lyric default-y="-91" name="verse" number="1"><syllabic>single</syllabic><text font-size="10.8">dass</text></lyric><lyric default-y="-115" name="verse" number="2"><syllabic>begin</syllabic><text font-size="10.8">Je</text></lyric><lyric default-y="-140" name="verse" number="3"><syllabic>single</syllabic><text font-size="10.8">Noch</text></lyric></note><note default-x="100"><pitch><step>B</step><octave>4</octave></pitch><duration>2</duration><voice>1</voice><type>quarter</type><stem default-y="-51">down</stem><lyric default-y="-91" name="verse" number="1"><syllabic>single</syllabic><text font-size="10.8">er</text></lyric><lyric default-y="-115" name="verse" number="2"><syllabic>end</syllabic><text font-size="10.8">der</text></lyric><lyric default-y="-140" name="verse" number="3"><syllabic>single</syllabic><text font-size="10.8">wird</text></lyric></note><note default-x="180"><pitch><step>B</step><octave>4</octave></pitch><duration>2</duration><voice>1</voice><type>quarter</type><stem default-y="-51">down</stem><lyric default-y="-91" name="verse" number="1"><syllabic>begin</syllabic><text font-size="10.8">eu</text></lyric><lyric default-y="-115" name="verse" number="2"><syllabic>single</syllabic><text font-size="10.8">Mensch</text></lyric><lyric default-y="-140" name="verse" number="3"><syllabic>begin</syllabic><text font-size="10.8">an</text></lyric></note><note default-x="260"><pitch><step>B</step><octave>4</octave></pitch><duration>2</duration><voice>1</voice><type>quarter</type><stem default-y="-51">down</stem><lyric default-y="-91" name="verse" number="1"><syllabic>end</syllabic><text font-size="10.8">rem</text></lyric><lyric default-y="-115" name="verse" number="2"><syllabic>single</syllabic><text font-size="10.8">darf</text></lyric><lyric default-y="-140" name="verse" number="3"><syllabic>middle</syllabic><text font-size="10.8">ge</text></lyric></note></measure><!--=======================================================--><measure number="30" width="162"><harmony default-y="36" font-size="10" font-weight="bold"><root><root-step>F</root-step><root-alter>1</root-alter></root><kind halign="center" text="m">minor</kind></harmony><note default-x="24"><pitch><step>B</step><octave>4</octave></pitch><duration>4</duration><voice>1</voice><type>half</type><stem default-y="-51">down</stem><lyric default-y="-91" name="verse" number="1"><syllabic>begin</syllabic><text font-size="10.8">Le</text></lyric><lyric default-y="-115" name="verse" number="2"><syllabic>begin</syllabic><text font-size="10.8">kom</text></lyric><lyric default-y="-140" name="verse" number="3"><syllabic>middle</syllabic><text font-size="10.8">nom</text></lyric></note><note default-x="93"><pitch><step>A</step><octave>4</octave></pitch><duration>4</duration><voice>1</voice><type>half</type><stem default-y="6">up</stem><lyric default-y="-91" name="verse" number="1"><syllabic>end</syllabic><text font-size="10.8">ben</text></lyric><lyric default-y="-115" name="verse" number="2"><syllabic>end</syllabic><text font-size="10.8">men.</text></lyric><lyric default-y="-140" name="verse" number="3"><syllabic>end</syllabic><text font-size="10.8">men,</text></lyric></note></measure><!--=======================================================--><measure number="31" width="331"><harmony default-y="36" font-size="10" font-weight="bold"><root><root-step>G</root-step></root><kind halign="center" text="">major</kind></harmony><note default-x="17"><pitch><step>A</step><octave>4</octave></pitch><duration>2</duration><voice>1</voice><type>quarter</type><stem default-y="6">up</stem><lyric default-y="-91" name="verse" number="1"><syllabic>single</syllabic><text font-size="10.8">Sinn</text></lyric><lyric default-y="-115" name="verse" number="2"><syllabic>single</syllabic><text font-size="10.8">Gott</text></lyric><lyric default-y="-140" name="verse" number="3"><syllabic>single</syllabic><text font-size="10.8">wer</text></lyric></note><note default-x="96"><pitch><step>G</step><octave>4</octave></pitch><duration>2</duration><voice>1</voice><type>quarter</type><stem default-y="1">up</stem><lyric default-y="-91" name="verse" number="1"><syllabic>single</syllabic><text font-size="10.8">und</text></lyric><lyric default-y="-115" name="verse" number="2"><syllabic>single</syllabic><text font-size="10.8">spricht</text></lyric><lyric default-y="-140" name="verse" number="3"><syllabic>single</syllabic><text font-size="10.8">ihm</text></lyric></note><harmony default-y="36" font-size="10" font-weight="bold"><root><root-step>E</root-step></root><kind halign="center" text="m">minor</kind></harmony><note default-x="174"><pitch><step>G</step><octave>4</octave></pitch><duration>2</duration><voice>1</voice><type>quarter</type><stem default-y="1">up</stem><lyric default-y="-91" name="verse" number="1"><syllabic>begin</syllabic><text font-size="10.8">Hoff</text></lyric><lyric default-y="-115" name="verse" number="2"><syllabic>single</syllabic><text font-size="10.8">ihn</text></lyric><lyric default-y="-140" name="verse" number="3"><syllabic>single</syllabic><text font-size="10.8">fest</text></lyric></note><note default-x="252"><pitch><step>F</step><alter>1</alter><octave>4</octave></pitch><duration>2</duration><voice>1</voice><type>quarter</type><stem default-y="-3.5">up</stem><lyric default-y="-91" name="verse" number="1"><syllabic>end</syllabic><text font-size="10.8">nung</text></lyric><lyric default-y="-115" name="verse" number="2"><syllabic>begin</syllabic><text font-size="10.8">ge</text></lyric><lyric default-y="-140" name="verse" number="3"><syllabic>begin</syllabic><text font-size="10.8">ver</text></lyric></note></measure><!--=======================================================--><measure number="32" width="141"><harmony default-y="36" font-size="10" font-weight="bold"><root><root-step>A</root-step></root><kind halign="center" text="sus">suspended-fourth</kind></harmony><note default-x="31"><pitch><step>E</step><octave>4</octave></pitch><duration>8</duration><voice>1</voice><type>whole</type><lyric default-y="-91" name="verse" number="1"><syllabic>single</syllabic><text font-size="10.8">gibt.</text></lyric><lyric default-y="-115" name="verse" number="2"><syllabic>end</syllabic><text font-size="10.8">recht.</text></lyric><lyric default-y="-140" name="verse" number="3"><syllabic>end</syllabic><text font-size="10.8">traut.</text></lyric></note><backup><duration>8</duration></backup><forward><duration>4</duration><voice>2</voice></forward><harmony default-y="36" font-size="10" font-weight="bold"><root><root-step>A</root-step></root><kind halign="center" text="">major</kind></harmony><forward><duration>4</duration><voice>2</voice></forward><direction placement="above"><direction-type><words default-x="142" default-y="8" font-style="italic" justify="right">D.C. al Fine</words></direction-type><sound dacapo="yes" /></direction><barline location="right"><bar-style>light-light</bar-style></barline></measure></part><!--=========================================================--></score-partwise>