<?xml version="1.0" encoding="UTF-8"?><!DOCTYPE score-partwise PUBLIC "-//Recordare//DTD MusicXML 2.0 Partwise//EN" "http://www.musicxml.org/dtds/partwise.dtd"[]><score-partwise version="2.0"><movement-title>Lobe den Herrn sing ihm dein Lied</movement-title><identification><creator type="composer">Werner Arthur Hoffmann</creator><encoding><software>Finale 2011 for Windows</software><software>Dolet Light for Finale 2011</software><encoding-date>2013-03-21</encoding-date><supports attribute="new-system" element="print" type="yes" value="yes" /><supports attribute="new-page" element="print" type="yes" value="yes" /></encoding><rights>CCLI-Liednummer 4326098
© 1992 Gerth Medien
Nutzung ausschließlich im Rahmen der SongSelect®-Nutzungsbedingungen. Alle Rechte vorbehalten. www.ccli.com
CCLI-Lizenznummer 2182334
</rights></identification><defaults><scaling><millimeters>6.5088</millimeters><tenths>40</tenths></scaling><page-layout><page-height>1771</page-height><page-width>1308</page-width><page-margins type="both"><left-margin>78</left-margin><right-margin>78</right-margin><top-margin>78</top-margin><bottom-margin>78</bottom-margin></page-margins></page-layout><system-layout><system-margins><left-margin>0</left-margin><right-margin>0</right-margin></system-margins><system-distance>220</system-distance><top-system-distance>146</top-system-distance></system-layout><appearance><line-width type="stem">1.4583</line-width><line-width type="beam">5</line-width><line-width type="staff">1.25</line-width><line-width type="light barline">1.4583</line-width><line-width type="heavy barline">5</line-width><line-width type="leger">1.875</line-width><line-width type="ending">1.4583</line-width><line-width type="wedge">1.4583</line-width><line-width type="enclosure">1.4583</line-width><line-width type="tuplet bracket">1.4583</line-width><note-size type="grace">50</note-size><note-size type="cue">50</note-size></appearance><music-font font-family="Maestro" font-size="18.5" /><word-font font-family="Arial" font-size="9.2" /><lyric-font font-family="Arial" font-size="10.8" name="verse" /><lyric-font font-family="Arial" font-size="10.8" name="section" /></defaults><credit page="1"><credit-words default-x="654" default-y="1688" font-size="21.6" font-weight="bold" justify="center" valign="top">Lobe den Herrn sing ihm dein Lied</credit-words></credit><credit page="1"><credit-words default-x="1230" default-y="1620" font-size="10.8" font-style="italic" justify="right" valign="top">Text und Musik:</credit-words></credit><credit page="1"><credit-words default-x="1230" default-y="1595" font-size="10.8" font-weight="bold" justify="right" valign="top">Werner Arthur Hoffmann</credit-words></credit><credit page="2"><credit-words default-x="654" default-y="1717" font-size="10.8" justify="center" valign="top">Lobe den Herrn sing ihm dein Lied - 2</credit-words></credit><part-list><score-part id="P1"><part-name print-object="no">Melodie</part-name><score-instrument id="P1-I2"><instrument-name>Melodie</instrument-name></score-instrument><midi-instrument id="P1-I2"><midi-channel>1</midi-channel><midi-program>1</midi-program><volume>80</volume><pan>0</pan></midi-instrument></score-part></part-list><!--=========================================================--><part id="P1"><measure number="1" width="560"><print page-number="1"><page-layout><page-height>1771</page-height><page-width>1308</page-width><page-margins><left-margin>78</left-margin><right-margin>78</right-margin><top-margin>78</top-margin><bottom-margin>163</bottom-margin></page-margins></page-layout><system-layout><system-margins><left-margin>68</left-margin><right-margin>0</right-margin></system-margins><top-system-distance>256</top-system-distance></system-layout><measure-numbering>system</measure-numbering></print><attributes><divisions>4</divisions><key><fifths>4</fifths><mode>major</mode></key><time><beats>4</beats><beat-type>4</beat-type></time><clef><sign>G</sign><line>2</line></clef></attributes><sound tempo="96" /><harmony default-y="37" font-size="10" font-weight="bold"><root><root-step>E</root-step></root><kind halign="center" text="">major</kind></harmony><note default-x="142"><pitch><step>G</step><alter>1</alter><octave>4</octave></pitch><duration>2</duration><voice>1</voice><type>eighth</type><stem default-y="5">up</stem><beam number="1">begin</beam><lyric default-y="-95" name="verse" number="1"><syllabic>begin</syllabic><text font-size="10.8">Lo</text></lyric></note><note default-x="201"><pitch><step>A</step><octave>4</octave></pitch><duration>2</duration><voice>1</voice><type>eighth</type><stem default-y="10">up</stem><beam number="1">end</beam><lyric default-y="-95" name="verse" number="1"><syllabic>end</syllabic><text font-size="10.8">be</text></lyric></note><note default-x="263"><pitch><step>B</step><octave>4</octave></pitch><duration>2</duration><voice>1</voice><type>eighth</type><stem default-y="-55">down</stem><beam number="1">begin</beam><lyric default-y="-95" name="verse" number="1"><syllabic>single</syllabic><text font-size="10.8">den</text></lyric></note><note default-x="332"><pitch><step>B</step><octave>4</octave></pitch><duration>2</duration><tie type="start" /><voice>1</voice><type>eighth</type><stem default-y="-55">down</stem><beam number="1">end</beam><notations><tied type="start" /></notations><lyric default-y="-95" name="verse" number="1"><syllabic>single</syllabic><text font-size="10.8">Herrn!</text><extend /></lyric></note><note default-x="387"><pitch><step>B</step><octave>4</octave></pitch><duration>4</duration><tie type="stop" /><voice>1</voice><type>quarter</type><stem default-y="-55">down</stem><notations><tied type="stop" /></notations></note><note default-x="473"><rest /><duration>4</duration><voice>1</voice><type>quarter</type></note></measure><!--=======================================================--><measure number="2" width="524"><harmony default-y="37" font-size="10" font-weight="bold"><root><root-step>E</root-step></root><kind halign="center" text="">major</kind><bass><bass-step>G</bass-step><bass-alter>1</bass-alter></bass></harmony><note default-x="16"><pitch><step>G</step><alter>1</alter><octave>4</octave></pitch><duration>2</duration><voice>1</voice><type>eighth</type><stem default-y="5">up</stem><beam number="1">begin</beam><lyric default-y="-95" name="verse" number="1"><syllabic>single</syllabic><text font-size="10.8">Sing</text></lyric></note><note default-x="82"><pitch><step>A</step><octave>4</octave></pitch><duration>2</duration><voice>1</voice><type>eighth</type><stem default-y="10">up</stem><beam number="1">end</beam><lyric default-y="-95" name="verse" number="1"><syllabic>single</syllabic><text font-size="10.8">ihm</text></lyric></note><note default-x="149"><pitch><step>B</step><octave>4</octave></pitch><duration>2</duration><voice>1</voice><type>eighth</type><stem default-y="-55">down</stem><beam number="1">begin</beam><lyric default-y="-95" name="verse" number="1"><syllabic>single</syllabic><text font-size="10.8">dein</text></lyric></note><note default-x="215"><pitch><step>B</step><octave>4</octave></pitch><duration>2</duration><tie type="start" /><voice>1</voice><type>eighth</type><stem default-y="-55">down</stem><beam number="1">end</beam><notations><tied type="start" /></notations><lyric default-y="-95" name="verse" number="1"><syllabic>single</syllabic><text font-size="10.8">Lied!</text><extend /></lyric></note><note default-x="282"><pitch><step>B</step><octave>4</octave></pitch><duration>4</duration><tie type="stop" /><voice>1</voice><type>quarter</type><stem default-y="-55">down</stem><notations><tied type="stop" /></notations></note><note default-x="389"><rest /><duration>2</duration><voice>1</voice><type>eighth</type></note><note default-x="455"><pitch><step>B</step><octave>4</octave></pitch><duration>2</duration><voice>1</voice><type>eighth</type><stem default-y="-55">down</stem><lyric default-y="-95" name="verse" number="1"><syllabic>begin</syllabic><text font-size="10.8">Ver</text></lyric></note></measure><!--=======================================================--><measure number="3" width="557"><print new-system="yes"><system-layout><system-distance>184</system-distance></system-layout></print><harmony default-y="37" font-size="10" font-weight="bold"><root><root-step>A</root-step></root><kind halign="center" text="">major</kind></harmony><note default-x="111"><pitch><step>B</step><octave>4</octave></pitch><duration>2</duration><voice>1</voice><type>eighth</type><stem default-y="15">up</stem><beam number="1">begin</beam><lyric default-y="-95" name="verse" number="1"><syllabic>end</syllabic><text font-size="10.8">giss</text></lyric></note><note default-x="166"><pitch><step>A</step><octave>4</octave></pitch><duration>2</duration><voice>1</voice><type>eighth</type><stem default-y="10">up</stem><beam number="1">end</beam><lyric default-y="-95" name="verse" number="1"><syllabic>single</syllabic><text font-size="10.8">es</text></lyric></note><note default-x="225"><pitch><step>A</step><octave>4</octave></pitch><duration>2</duration><voice>1</voice><type>eighth</type><stem default-y="10">up</stem><beam number="1">begin</beam><lyric default-y="-95" name="verse" number="1"><syllabic>single</syllabic><text font-size="10.8">nicht,</text></lyric></note><note default-x="283"><pitch><step>G</step><alter>1</alter><octave>4</octave></pitch><duration>2</duration><voice>1</voice><type>eighth</type><stem default-y="5">up</stem><beam number="1">end</beam><lyric default-y="-95" name="verse" number="1"><syllabic>single</syllabic><text font-size="10.8">er</text></lyric></note><harmony default-y="37" font-size="10" font-weight="bold"><root><root-step>F</root-step><root-alter>1</root-alter></root><kind halign="center" text="7">dominant</kind><bass><bass-step>A</bass-step><bass-alter>1</bass-alter></bass></harmony><note default-x="334"><pitch><step>G</step><alter>1</alter><octave>4</octave></pitch><duration>2</duration><voice>1</voice><type>eighth</type><stem default-y="5">up</stem><beam number="1">begin</beam><lyric default-y="-95" name="verse" number="1"><syllabic>single</syllabic><text font-size="10.8">hat</text></lyric></note><note default-x="400"><pitch><step>F</step><alter>1</alter><octave>4</octave></pitch><duration>2</duration><voice>1</voice><type>eighth</type><stem default-y="0">up</stem><beam number="1">end</beam><lyric default-y="-95" name="verse" number="1"><syllabic>single</syllabic><text font-size="10.8">dir</text></lyric></note><note default-x="455"><pitch><step>E</step><octave>4</octave></pitch><duration>2</duration><voice>1</voice><type>eighth</type><stem default-y="0">up</stem><beam number="1">begin</beam><lyric default-y="-95" name="verse" number="1"><syllabic>single</syllabic><text font-size="10.8">viel</text></lyric></note><note default-x="508"><pitch><step>G</step><alter>1</alter><octave>4</octave></pitch><duration>2</duration><tie type="start" /><voice>1</voice><type>eighth</type><stem default-y="5">up</stem><beam number="1">end</beam><notations><tied type="start" /></notations><lyric default-y="-95" name="verse" number="1"><syllabic>begin</syllabic><text font-size="10.8">Gu</text></lyric></note></measure><!--=======================================================--><measure number="4" width="287"><harmony default-y="37" font-size="10" font-weight="bold"><root><root-step>E</root-step></root><kind halign="center" text="">major</kind><bass><bass-step>B</bass-step></bass></harmony><note default-x="14"><pitch><step>G</step><alter>1</alter><octave>4</octave></pitch><duration>2</duration><tie type="stop" /><voice>1</voice><type>eighth</type><stem default-y="5">up</stem><beam number="1">begin</beam><notations><tied type="stop" /></notations></note><note default-x="56"><pitch><step>A</step><octave>4</octave></pitch><duration>2</duration><voice>1</voice><type>eighth</type><stem default-y="10">up</stem><beam number="1">end</beam><lyric default-y="-95" name="verse" number="1"><syllabic>end</syllabic><text font-size="10.8">tes</text></lyric></note><note default-x="104"><pitch><step>G</step><alter>1</alter><octave>4</octave></pitch><duration>2</duration><voice>1</voice><type>eighth</type><stem default-y="5">up</stem><beam number="1">begin</beam><lyric default-y="-95" name="verse" number="1"><syllabic>begin</syllabic><text font-size="10.8">ge</text></lyric></note><note default-x="154"><pitch><step>F</step><alter>1</alter><octave>4</octave></pitch><duration>2</duration><tie type="start" /><voice>1</voice><type>eighth</type><stem default-y="0">up</stem><beam number="1">end</beam><notations><tied type="start" /></notations><lyric default-y="-95" name="verse" number="1"><syllabic>end</syllabic><text font-size="10.8">tan.</text><extend /></lyric></note><harmony default-y="37" font-size="10" font-weight="bold"><root><root-step>B</root-step></root><kind halign="center" text="">major</kind></harmony><note default-x="189"><pitch><step>F</step><alter>1</alter><octave>4</octave></pitch><duration>4</duration><tie type="stop" /><voice>1</voice><type>quarter</type><stem default-y="0.5">up</stem><notations><tied type="stop" /></notations></note><note default-x="237"><rest /><duration>4</duration><voice>1</voice><type>quarter</type></note></measure><!--=======================================================--><measure number="5" width="309"><harmony default-y="37" font-size="10" font-weight="bold"><root><root-step>E</root-step></root><kind halign="center" text="">major</kind></harmony><note default-x="11"><pitch><step>G</step><alter>1</alter><octave>4</octave></pitch><duration>2</duration><voice>1</voice><type>eighth</type><stem default-y="5">up</stem><beam number="1">begin</beam><lyric default-y="-95" name="verse" number="1"><syllabic>begin</syllabic><text font-size="10.8">Lo</text></lyric></note><note default-x="57"><pitch><step>A</step><octave>4</octave></pitch><duration>2</duration><voice>1</voice><type>eighth</type><stem default-y="10">up</stem><beam number="1">end</beam><lyric default-y="-95" name="verse" number="1"><syllabic>end</syllabic><text font-size="10.8">be</text></lyric></note><note default-x="109"><pitch><step>B</step><octave>4</octave></pitch><duration>2</duration><voice>1</voice><type>eighth</type><stem default-y="-55">down</stem><beam number="1">begin</beam><lyric default-y="-95" name="verse" number="1"><syllabic>single</syllabic><text font-size="10.8">den</text></lyric></note><note default-x="178"><pitch><step>B</step><octave>4</octave></pitch><duration>2</duration><tie type="start" /><voice>1</voice><type>eighth</type><stem default-y="-55">down</stem><beam number="1">end</beam><notations><tied type="start" /></notations><lyric default-y="-95" name="verse" number="1"><syllabic>single</syllabic><text font-size="10.8">Herrn!</text><extend /></lyric></note><note default-x="211"><pitch><step>B</step><octave>4</octave></pitch><duration>4</duration><tie type="stop" /><voice>1</voice><type>quarter</type><stem default-y="-55">down</stem><notations><tied type="stop" /></notations></note><note default-x="259"><rest /><duration>4</duration><voice>1</voice><type>quarter</type></note></measure><!--=======================================================--><measure number="6" width="491"><print new-system="yes"><system-layout><system-distance>184</system-distance></system-layout></print><harmony default-y="37" font-size="10" font-weight="bold"><root><root-step>E</root-step></root><kind halign="center" text="">major</kind><bass><bass-step>G</bass-step><bass-alter>1</bass-alter></bass></harmony><note default-x="113"><pitch><step>G</step><alter>1</alter><octave>4</octave></pitch><duration>2</duration><voice>1</voice><type>eighth</type><stem default-y="5">up</stem><beam number="1">begin</beam><lyric default-y="-95" name="verse" number="1"><syllabic>single</syllabic><text font-size="10.8">Sing</text></lyric></note><note default-x="176"><pitch><step>A</step><octave>4</octave></pitch><duration>2</duration><voice>1</voice><type>eighth</type><stem default-y="10">up</stem><beam number="1">end</beam><lyric default-y="-95" name="verse" number="1"><syllabic>single</syllabic><text font-size="10.8">ihm</text></lyric></note><note default-x="236"><pitch><step>B</step><octave>4</octave></pitch><duration>2</duration><voice>1</voice><type>eighth</type><stem default-y="-55">down</stem><beam number="1">begin</beam><lyric default-y="-95" name="verse" number="1"><syllabic>single</syllabic><text font-size="10.8">dein</text></lyric></note><note default-x="300"><pitch><step>B</step><octave>4</octave></pitch><duration>2</duration><tie type="start" /><voice>1</voice><type>eighth</type><stem default-y="-55">down</stem><beam number="1">end</beam><notations><tied type="start" /></notations><lyric default-y="-95" name="verse" number="1"><syllabic>single</syllabic><text font-size="10.8">Lied!</text><extend /></lyric></note><note default-x="342"><pitch><step>B</step><octave>4</octave></pitch><duration>4</duration><tie type="stop" /><voice>1</voice><type>quarter</type><stem default-y="-55">down</stem><notations><tied type="stop" /></notations></note><note default-x="404"><rest /><duration>2</duration><voice>1</voice><type>eighth</type></note><note default-x="443"><pitch><step>B</step><octave>4</octave></pitch><duration>2</duration><voice>1</voice><type>eighth</type><stem default-y="-55">down</stem><lyric default-y="-95" name="verse" number="1"><syllabic>single</syllabic><text font-size="10.8">Er</text></lyric></note></measure><!--=======================================================--><measure number="7" width="397"><harmony default-y="37" font-size="10" font-weight="bold"><root><root-step>A</root-step></root><kind halign="center" text="">major</kind></harmony><note default-x="14"><pitch><step>B</step><octave>4</octave></pitch><duration>2</duration><voice>1</voice><type>eighth</type><stem default-y="15">up</stem><beam number="1">begin</beam><lyric default-y="-95" name="verse" number="1"><syllabic>single</syllabic><text font-size="10.8">ist</text></lyric></note><note default-x="65"><pitch><step>A</step><octave>4</octave></pitch><duration>2</duration><voice>1</voice><type>eighth</type><stem default-y="10">up</stem><beam number="1">end</beam><lyric default-y="-95" name="verse" number="1"><syllabic>single</syllabic><text font-size="10.8">der</text></lyric></note><note default-x="115"><pitch><step>A</step><octave>4</octave></pitch><duration>2</duration><voice>1</voice><type>eighth</type><stem default-y="10">up</stem><beam number="1">begin</beam><lyric default-y="-95" name="verse" number="1"><syllabic>begin</syllabic><text font-size="10.8">Kö</text></lyric></note><note default-x="166"><pitch><step>G</step><alter>1</alter><octave>4</octave></pitch><duration>2</duration><voice>1</voice><type>eighth</type><stem default-y="5">up</stem><beam number="1">end</beam><lyric default-y="-95" name="verse" number="1"><syllabic>end</syllabic><text font-size="10.8">nig,</text></lyric></note><harmony default-y="37" font-size="10" font-weight="bold"><root><root-step>B</root-step></root><kind halign="center" text="7">dominant</kind></harmony><note default-x="217"><pitch><step>G</step><alter>1</alter><octave>4</octave></pitch><duration>4</duration><voice>1</voice><type>quarter</type><stem default-y="6">up</stem><lyric default-y="-95" name="verse" number="1"><syllabic>begin</syllabic><text font-size="10.8">be</text></lyric></note><note default-x="292"><pitch><step>F</step><alter>1</alter><octave>4</octave></pitch><duration>3</duration><voice>1</voice><type>eighth</type><dot /><stem default-y="0">up</stem><beam number="1">begin</beam><lyric default-y="-95" name="verse" number="1"><syllabic>end</syllabic><text font-size="10.8">te</text></lyric></note><direction placement="above"><direction-type><words default-x="362" default-y="65" font-style="italic" justify="right">Schluss zur Coda</words></direction-type><sound time-only="4" tocoda="17" /></direction><note default-x="356"><pitch><step>E</step><octave>4</octave></pitch><duration>1</duration><voice>1</voice><type>16th</type><stem default-y="-5">up</stem><beam number="1">end</beam><beam number="2">backward hook</beam><lyric default-y="-95" name="verse" number="1"><syllabic>single</syllabic><text font-size="10.8">ihn</text></lyric></note><direction placement="above"><direction-type><coda default-x="366" default-y="63" /></direction-type><sound coda="7" divisions="4" /></direction><barline location="right"><bar-style>light-light</bar-style></barline></measure><!--=======================================================--><measure number="8" width="264"><harmony default-y="37" font-size="10" font-weight="bold"><root><root-step>E</root-step></root><kind halign="center" text="">major</kind></harmony><note default-x="10"><pitch><step>E</step><octave>4</octave></pitch><duration>8</duration><voice>1</voice><type>half</type><stem default-y="-4">up</stem><lyric default-y="-95" name="verse" number="1"><syllabic>single</syllabic><text font-size="10.8">an.</text></lyric></note><note default-x="99"><rest /><duration>4</duration><voice>1</voice><type>quarter</type></note><note default-x="154"><rest /><duration>2</duration><voice>1</voice><type>eighth</type></note><note default-x="208"><pitch><step>B</step><octave>3</octave></pitch><duration>2</duration><voice>1</voice><type>eighth</type><stem default-y="-19">up</stem><lyric default-y="-95" name="verse" number="1" relative-x="-11"><syllabic>single</syllabic><text font-size="10.8">1.</text><elision> </elision><syllabic>single</syllabic><text font-size="10.8">Der</text></lyric><lyric default-y="-120" name="verse" number="2" relative-x="-11"><syllabic>single</syllabic><text font-size="10.8">2.</text><elision> </elision><syllabic>single</syllabic><text font-size="10.8">Der</text></lyric><lyric default-y="-145" name="verse" number="3" relative-x="-16"><syllabic>single</syllabic><text font-size="10.8">3.</text><elision> </elision><syllabic>single</syllabic><text font-size="10.8">So</text></lyric></note><barline location="right"><bar-style>light-light</bar-style></barline></measure><!--=======================================================--><measure number="9" width="536"><print new-system="yes"><system-layout><system-distance>226</system-distance></system-layout></print><harmony default-y="37" font-size="10" font-weight="bold"><root><root-step>A</root-step></root><kind halign="center" text="">major</kind></harmony><note default-x="118"><pitch><step>C</step><alter>1</alter><octave>4</octave></pitch><duration>4</duration><voice>1</voice><type>quarter</type><stem default-y="-14">up</stem><lyric default-y="-95" name="verse" number="1"><syllabic>single</syllabic><text font-size="10.8">dir</text></lyric><lyric default-y="-120" name="verse" number="2"><syllabic>single</syllabic><text font-size="10.8">dich</text></lyric><lyric default-y="-145" name="verse" number="3"><syllabic>single</syllabic><text font-size="10.8">hoch,</text></lyric></note><note default-x="188"><pitch><step>E</step><octave>4</octave></pitch><duration>2</duration><voice>1</voice><type>eighth</type><stem default-y="-5">up</stem><beam number="1">begin</beam><lyric default-y="-95" name="verse" number="1"><syllabic>begin</syllabic><text font-size="10.8">dei</text></lyric><lyric default-y="-120" name="verse" number="2"><syllabic>begin</syllabic><text font-size="10.8">fröh</text></lyric><lyric default-y="-145" name="verse" number="3"><syllabic>single</syllabic><text font-size="10.8">wie</text></lyric></note><note default-x="244"><pitch><step>E</step><octave>4</octave></pitch><duration>2</duration><voice>1</voice><type>eighth</type><stem default-y="-5">up</stem><beam number="1">end</beam><lyric default-y="-95" name="verse" number="1"><syllabic>end</syllabic><text font-size="10.8">ne</text></lyric><lyric default-y="-120" name="verse" number="2"><syllabic>end</syllabic><text font-size="10.8">lich</text></lyric><lyric default-y="-145" name="verse" number="3"><syllabic>single</syllabic><text font-size="10.8">der</text></lyric></note><harmony default-y="37" font-size="10" font-weight="bold"><root><root-step>B</root-step></root><kind halign="center" text="">major</kind></harmony><note default-x="302"><pitch><step>D</step><alter>1</alter><octave>4</octave></pitch><duration>2</duration><voice>1</voice><type>eighth</type><stem default-y="-10">up</stem><beam number="1">begin</beam><notations><slur line-type="dashed" number="1" placement="below" type="start" /></notations><lyric default-y="-95" name="verse" number="1"><syllabic>begin</syllabic><text font-size="10.8">Sün</text></lyric><lyric default-y="-120" name="verse" number="2"><syllabic>begin</syllabic><text font-size="10.8">sin</text></lyric><lyric default-y="-145" name="verse" number="3"><syllabic>begin</syllabic><text font-size="10.8">Him</text></lyric></note><note default-x="359"><pitch><step>E</step><octave>4</octave></pitch><duration>2</duration><voice>1</voice><type>eighth</type><stem default-y="-5">up</stem><beam number="1">end</beam><notations><slur number="1" type="stop" /></notations><lyric default-y="-95" name="verse" number="1"><syllabic>end</syllabic><text font-size="10.8">de</text></lyric><lyric default-y="-145" name="verse" number="3"><syllabic>end</syllabic><text font-size="10.8">mel</text></lyric></note><note default-x="417"><pitch><step>F</step><alter>1</alter><octave>4</octave></pitch><duration>2</duration><voice>1</voice><type>eighth</type><stem default-y="0.5">up</stem><beam number="1">begin</beam><lyric default-y="-95" name="verse" number="1"><syllabic>begin</syllabic><text font-size="10.8">ver</text></lyric><lyric default-y="-120" name="verse" number="2"><syllabic>end</syllabic><text font-size="10.8">gen</text></lyric><lyric default-y="-145" name="verse" number="3"><syllabic>single</syllabic><text font-size="10.8">sich</text></lyric></note><note default-x="482"><pitch><step>B</step><octave>3</octave></pitch><duration>2</duration><tie type="start" /><voice>1</voice><type>eighth</type><stem default-y="-5">up</stem><beam number="1">end</beam><notations><tied type="start" /></notations><lyric default-y="-95" name="verse" number="1"><syllabic>end</syllabic><text font-size="10.8">gibt</text><extend /></lyric><lyric default-y="-120" name="verse" number="2"><syllabic>single</syllabic><text font-size="10.8">lässt;</text><extend /></lyric><lyric default-y="-145" name="verse" number="3"><syllabic>single</syllabic><text font-size="10.8">hebt,</text><extend /></lyric></note></measure><!--=======================================================--><measure number="10" width="192"><harmony default-y="37" font-size="10" font-weight="bold"><root><root-step>E</root-step></root><kind halign="center" text="">major</kind></harmony><note default-x="14"><pitch><step>B</step><octave>3</octave></pitch><duration>8</duration><tie type="stop" /><voice>1</voice><type>half</type><stem default-y="-19">up</stem><notations><tied type="stop" /></notations></note><note default-x="84"><rest /><duration>6</duration><voice>1</voice><type>quarter</type><dot /></note><note default-x="140"><pitch><step>G</step><alter>1</alter><octave>4</octave></pitch><duration>2</duration><voice>1</voice><type>eighth</type><stem default-y="6">up</stem><lyric default-y="-95" name="verse" number="1"><syllabic>single</syllabic><text font-size="10.8">und</text></lyric><lyric default-y="-120" name="verse" number="2"><syllabic>single</syllabic><text font-size="10.8">du</text></lyric><lyric default-y="-145" name="verse" number="3"><syllabic>single</syllabic><text font-size="10.8">lässt</text></lyric></note></measure><!--=======================================================--><measure number="11" width="423"><harmony default-y="37" font-size="10" font-weight="bold"><root><root-step>A</root-step></root><kind halign="center" text="">major</kind></harmony><note default-x="17"><pitch><step>A</step><octave>4</octave></pitch><duration>4</duration><voice>1</voice><type>quarter</type><stem default-y="11">up</stem><lyric default-y="-95" name="verse" number="1"><syllabic>single</syllabic><text font-size="10.8">heilt</text></lyric><lyric default-y="-120" name="verse" number="2"><syllabic>single</syllabic><text font-size="10.8">wirst</text></lyric><lyric default-y="-145" name="verse" number="3"><syllabic>single</syllabic><text font-size="10.8">er</text></lyric></note><note default-x="85"><pitch><step>A</step><octave>4</octave></pitch><duration>2</duration><voice>1</voice><type>eighth</type><stem default-y="10">up</stem><beam number="1">begin</beam><lyric default-y="-95" name="verse" number="1"><syllabic>begin</syllabic><text font-size="10.8">al</text></lyric><lyric default-y="-120" name="verse" number="2"><syllabic>begin</syllabic><text font-size="10.8">wie</text></lyric><lyric default-y="-145" name="verse" number="3"><syllabic>begin</syllabic><text font-size="10.8">sei</text></lyric></note><note default-x="138"><pitch><step>A</step><octave>4</octave></pitch><duration>2</duration><voice>1</voice><type>eighth</type><stem default-y="10">up</stem><beam number="1">end</beam><lyric default-y="-95" name="verse" number="1"><syllabic>end</syllabic><text font-size="10.8">le</text></lyric><lyric default-y="-120" name="verse" number="2"><syllabic>end</syllabic><text font-size="10.8">der</text></lyric><lyric default-y="-145" name="verse" number="3"><syllabic>end</syllabic><text font-size="10.8">ne</text></lyric></note><harmony default-y="37" font-size="10" font-weight="bold"><root><root-step>B</root-step></root><kind halign="center" text="7">dominant</kind></harmony><note default-x="199"><pitch><step>A</step><octave>4</octave></pitch><duration>2</duration><voice>1</voice><type>eighth</type><stem default-y="10">up</stem><beam number="1">begin</beam><lyric default-y="-95" name="verse" number="1"><syllabic>begin</syllabic><text font-size="10.8">dei</text></lyric><lyric default-y="-120" name="verse" number="2"><syllabic>single</syllabic><text font-size="10.8">jung</text></lyric><lyric default-y="-145" name="verse" number="3"><syllabic>begin</syllabic><text font-size="10.8">Gna</text></lyric></note><note default-x="257"><pitch><step>G</step><alter>1</alter><octave>4</octave></pitch><duration>2</duration><voice>1</voice><type>eighth</type><stem default-y="5">up</stem><beam number="1">end</beam><lyric default-y="-95" name="verse" number="1"><syllabic>end</syllabic><text font-size="10.8">ne</text></lyric><lyric default-y="-120" name="verse" number="2"><syllabic>single</syllabic><text font-size="10.8">wie</text></lyric><lyric default-y="-145" name="verse" number="3"><syllabic>end</syllabic><text font-size="10.8">de</text></lyric></note><note default-x="310"><pitch><step>F</step><alter>1</alter><octave>4</octave></pitch><duration>2</duration><voice>1</voice><type>eighth</type><stem default-y="0.5">up</stem><beam number="1">begin</beam><lyric default-y="-95" name="verse" number="1"><syllabic>begin</syllabic><text font-size="10.8">Ge</text></lyric><lyric default-y="-120" name="verse" number="2"><syllabic>single</syllabic><text font-size="10.8">ein</text></lyric><lyric default-y="-145" name="verse" number="3"><syllabic>begin</syllabic><text font-size="10.8">er</text></lyric></note><note default-x="369"><pitch><step>F</step><alter>1</alter><octave>4</octave></pitch><duration>2</duration><tie type="start" /><voice>1</voice><type>eighth</type><stem default-y="0.5">up</stem><beam number="1">end</beam><notations><tied type="start" /><slur number="1" placement="below" type="start" /></notations><lyric default-y="-95" name="verse" number="1"><syllabic>middle</syllabic><text font-size="10.8">bre</text></lyric><lyric default-y="-120" name="verse" number="2"><syllabic>begin</syllabic><text font-size="10.8">Ad</text></lyric><lyric default-y="-145" name="verse" number="3"><syllabic>middle</syllabic><text font-size="10.8">strah</text></lyric></note></measure><!--=======================================================--><measure number="12" width="480"><print new-system="yes"><system-layout><system-distance>226</system-distance></system-layout></print><harmony default-y="37" font-size="10" font-weight="bold"><root><root-step>B</root-step></root><kind halign="center" text="">major</kind></harmony><note default-x="124"><pitch><step>F</step><alter>1</alter><octave>4</octave></pitch><duration>2</duration><tie type="stop" /><voice>1</voice><type>eighth</type><stem default-y="0">up</stem><beam number="1">begin</beam><notations><tied type="stop" /></notations></note><note default-x="177"><pitch><step>G</step><alter>1</alter><octave>4</octave></pitch><duration>2</duration><voice>1</voice><type>eighth</type><stem default-y="5">up</stem><beam number="1">end</beam><notations><slur number="1" type="stop" /></notations></note><harmony default-y="37" font-size="10" font-weight="bold"><root><root-step>E</root-step></root><kind halign="center" text="">major</kind></harmony><note default-x="231"><pitch><step>G</step><alter>1</alter><octave>4</octave></pitch><duration>8</duration><voice>1</voice><type>half</type><stem default-y="6">up</stem><lyric default-y="-95" name="verse" number="1"><syllabic>end</syllabic><text font-size="10.8">chen.</text></lyric><lyric default-y="-120" name="verse" number="2"><syllabic>end</syllabic><text font-size="10.8">ler.</text></lyric><lyric default-y="-145" name="verse" number="3"><syllabic>end</syllabic><text font-size="10.8">len.</text></lyric></note><note default-x="371"><rest /><duration>2</duration><voice>1</voice><type>eighth</type></note><note default-x="424"><pitch><step>B</step><octave>3</octave></pitch><duration>2</duration><voice>1</voice><type>eighth</type><stem default-y="-19">up</stem><lyric default-y="-95" name="verse" number="1"><syllabic>single</syllabic><text font-size="10.8">Der</text></lyric><lyric default-y="-120" name="verse" number="2"><syllabic>single</syllabic><text font-size="10.8">Er</text></lyric><lyric default-y="-145" name="verse" number="3"><syllabic>begin</syllabic><text font-size="10.8">Barm</text></lyric></note></measure><!--=======================================================--><measure number="13" width="673"><harmony default-y="37" font-size="10" font-weight="bold"><root><root-step>A</root-step></root><kind halign="center" text="">major</kind></harmony><note default-x="18"><pitch><step>C</step><alter>1</alter><octave>4</octave></pitch><duration>4</duration><voice>1</voice><type>quarter</type><stem default-y="-14">up</stem><lyric default-y="-95" name="verse" number="1"><syllabic>single</syllabic><text font-size="10.8">dich</text></lyric><lyric default-y="-120" name="verse" number="2"><syllabic>single</syllabic><text font-size="10.8">zeigt</text></lyric><lyric default-y="-145" name="verse" number="3"><syllabic>middle</syllabic><text font-size="10.8">her</text></lyric></note><note default-x="156"><pitch><step>E</step><octave>4</octave></pitch><duration>2</duration><voice>1</voice><type>eighth</type><stem default-y="-5">up</stem><beam number="1">begin</beam><lyric default-y="-95" name="verse" number="1"><syllabic>single</syllabic><text font-size="10.8">vom</text></lyric><lyric default-y="-120" name="verse" number="2"><syllabic>single</syllabic><text font-size="10.8">dir</text></lyric><lyric default-y="-145" name="verse" number="3"><syllabic>end</syllabic><text font-size="10.8">zig</text></lyric></note><note default-x="242"><pitch><step>E</step><octave>4</octave></pitch><duration>2</duration><voice>1</voice><type>eighth</type><stem default-y="-5">up</stem><beam number="1">end</beam><lyric default-y="-95" name="verse" number="1"><syllabic>begin</syllabic><text font-size="10.8">Ver</text></lyric><lyric default-y="-120" name="verse" number="2"><syllabic>single</syllabic><text font-size="10.8">den</text></lyric><lyric default-y="-145" name="verse" number="3"><syllabic>single</syllabic><text font-size="10.8">und</text></lyric></note><harmony default-y="37" font-size="10" font-weight="bold"><root><root-step>B</root-step></root><kind halign="center" text="">major</kind></harmony><note default-x="328"><pitch><step>D</step><alter>1</alter><octave>4</octave></pitch><duration>2</duration><voice>1</voice><type>eighth</type><stem default-y="-10">up</stem><beam number="1">begin</beam><lyric default-y="-95" name="verse" number="1"><syllabic>middle</syllabic><text font-size="10.8">der</text></lyric><lyric default-y="-120" name="verse" number="2"><syllabic>begin</syllabic><text font-size="10.8">rich</text></lyric><lyric default-y="-145" name="verse" number="3"><syllabic>begin</syllabic><text font-size="10.8">gnä</text></lyric></note><note default-x="414"><pitch><step>E</step><octave>4</octave></pitch><duration>2</duration><voice>1</voice><type>eighth</type><stem default-y="-5">up</stem><beam number="1">end</beam><lyric default-y="-95" name="verse" number="1"><syllabic>end</syllabic><text font-size="10.8">ben</text></lyric><lyric default-y="-120" name="verse" number="2"><syllabic>middle</syllabic><text font-size="10.8">ti</text></lyric><lyric default-y="-145" name="verse" number="3"><syllabic>end</syllabic><text font-size="10.8">dig</text></lyric></note><note default-x="500"><pitch><step>F</step><alter>1</alter><octave>4</octave></pitch><duration>2</duration><voice>1</voice><type>eighth</type><stem default-y="10">up</stem><beam number="1">begin</beam><lyric default-y="-95" name="verse" number="1"><syllabic>begin</syllabic><text font-size="10.8">er</text></lyric><lyric default-y="-120" name="verse" number="2"><syllabic>end</syllabic><text font-size="10.8">gen</text></lyric><lyric default-y="-145" name="verse" number="3"><syllabic>single</syllabic><text font-size="10.8">ist</text></lyric></note><note default-x="585"><pitch><step>B</step><octave>4</octave></pitch><duration>2</duration><tie type="start" /><voice>1</voice><type>eighth</type><stem default-y="15">up</stem><beam number="1">end</beam><notations><tied type="start" /></notations><lyric default-y="-95" name="verse" number="1"><syllabic>end</syllabic><text font-size="10.8">löst,</text><extend /></lyric><lyric default-y="-120" name="verse" number="2"><syllabic>single</syllabic><text font-size="10.8">Weg</text><extend /></lyric><lyric default-y="-145" name="verse" number="3"><syllabic>single</syllabic><text font-size="10.8">er</text><extend /></lyric></note></measure><!--=======================================================--><measure number="14" width="366"><print new-page="yes" page-number="2"><system-layout><top-system-distance>122</top-system-distance></system-layout></print><harmony default-y="37" font-size="10" font-weight="bold"><root><root-step>E</root-step></root><kind halign="center" text="">major</kind></harmony><note default-x="123"><pitch><step>B</step><octave>4</octave></pitch><duration>8</duration><tie type="stop" /><voice>1</voice><type>half</type><stem default-y="-55.5">down</stem><notations><tied type="stop" /></notations></note><harmony default-y="37" font-size="10" font-weight="bold"><root><root-step>A</root-step></root><kind halign="center" text="">major</kind></harmony><note default-x="230"><rest /><duration>6</duration><voice>1</voice><type>quarter</type><dot /></note><note default-x="318"><pitch><step>C</step><alter>1</alter><octave>5</octave></pitch><duration>2</duration><voice>1</voice><type>eighth</type><stem default-y="-51">down</stem><lyric default-y="-95" name="verse" number="1"><syllabic>single</syllabic><text font-size="10.8">dich</text></lyric><lyric default-y="-120" name="verse" number="2"><syllabic>single</syllabic><text font-size="10.8">und</text></lyric><lyric default-y="-145" name="verse" number="3"><syllabic>single</syllabic><text font-size="10.8">und</text></lyric></note></measure><!--=======================================================--><measure number="15" width="579"><harmony default-y="37" font-size="10" font-weight="bold"><root><root-step>E</root-step></root><kind halign="center" text="">major</kind></harmony><note default-x="27"><pitch><step>B</step><octave>4</octave></pitch><duration>4</duration><voice>1</voice><type>quarter</type><stem default-y="-55.5">down</stem><lyric default-y="-95" name="verse" number="1"><syllabic>single</syllabic><text font-size="10.8">krönt</text></lyric><lyric default-y="-120" name="verse" number="2"><syllabic>single</syllabic><text font-size="10.8">schafft</text></lyric><lyric default-y="-145" name="verse" number="3"><syllabic>single</syllabic><text font-size="10.8">ist</text></lyric></note><note default-x="144"><pitch><step>G</step><alter>1</alter><octave>4</octave></pitch><duration>2</duration><voice>1</voice><type>eighth</type><stem default-y="5">up</stem><beam number="1">begin</beam><lyric default-y="-95" name="verse" number="1"><syllabic>single</syllabic><text font-size="10.8">mit</text></lyric><lyric default-y="-120" name="verse" number="2"><syllabic>single</syllabic><text font-size="10.8">dir</text></lyric><lyric default-y="-145" name="verse" number="3"><syllabic>single</syllabic><text font-size="10.8">wie</text></lyric></note><note default-x="216"><pitch><step>G</step><alter>1</alter><octave>4</octave></pitch><duration>2</duration><voice>1</voice><type>eighth</type><stem default-y="5">up</stem><beam number="1">end</beam><lyric default-y="-95" name="verse" number="1"><syllabic>begin</syllabic><text font-size="10.8">Barm</text></lyric><lyric default-y="-120" name="verse" number="2"><syllabic>begin</syllabic><text font-size="10.8">Ge</text></lyric><lyric default-y="-145" name="verse" number="3"><syllabic>single</syllabic><text font-size="10.8">ein</text></lyric></note><harmony default-y="37" font-size="10" font-weight="bold"><root><root-step>B</root-step></root><kind halign="center" text="7">dominant</kind></harmony><note default-x="288"><pitch><step>A</step><octave>4</octave></pitch><duration>2</duration><voice>1</voice><type>eighth</type><stem default-y="10">up</stem><beam number="1">begin</beam><notations><slur number="1" placement="below" type="start" /></notations><lyric default-y="-95" name="verse" number="1"><syllabic>middle</syllabic><text font-size="10.8">her</text></lyric><lyric default-y="-120" name="verse" number="2"><syllabic>middle</syllabic><text font-size="10.8">rech</text></lyric><lyric default-y="-145" name="verse" number="3"><syllabic>begin</syllabic><text font-size="10.8">Va</text></lyric></note><note default-x="360"><pitch><step>G</step><alter>1</alter><octave>4</octave></pitch><duration>2</duration><voice>1</voice><type>eighth</type><stem default-y="5">up</stem><beam number="1">end</beam><notations><slur number="1" type="stop" /></notations><lyric default-y="-145" name="verse" number="3"><syllabic>end</syllabic><text font-size="10.8">ter</text></lyric></note><note default-x="433"><pitch><step>F</step><alter>1</alter><octave>4</octave></pitch><duration>2</duration><voice>1</voice><type>eighth</type><stem default-y="0">up</stem><beam number="1">begin</beam><lyric default-y="-95" name="verse" number="1"><syllabic>middle</syllabic><text font-size="10.8">zig</text></lyric><lyric default-y="-120" name="verse" number="2"><syllabic>middle</syllabic><text font-size="10.8">tig</text></lyric><lyric default-y="-145" name="verse" number="3"><syllabic>single</syllabic><text font-size="10.8">zu</text></lyric></note><note default-x="505"><pitch><step>E</step><octave>4</octave></pitch><duration>2</duration><tie type="start" /><voice>1</voice><type>eighth</type><stem default-y="-4.5">up</stem><beam number="1">end</beam><notations><tied type="start" /></notations><lyric default-y="-95" name="verse" number="1"><syllabic>end</syllabic><text font-size="10.8">keit.</text><extend /></lyric><lyric default-y="-120" name="verse" number="2"><syllabic>end</syllabic><text font-size="10.8">keit.</text><extend /></lyric><lyric default-y="-145" name="verse" number="3"><syllabic>single</syllabic><text font-size="10.8">dir.</text><extend /></lyric></note></measure><!--=======================================================--><measure number="16" width="208"><harmony default-y="37" font-size="10" font-weight="bold"><root><root-step>E</root-step></root><kind halign="center" text="">major</kind></harmony><note default-x="12"><pitch><step>E</step><octave>4</octave></pitch><duration>8</duration><tie type="stop" /><voice>1</voice><type>half</type><stem default-y="-4">up</stem><notations><tied type="stop" /></notations></note><direction placement="above"><direction-type><words default-x="86" default-y="13" font-style="italic">D.C. al Coda</words></direction-type><sound dacapo="yes" /></direction><note default-x="105"><rest /><duration>8</duration><voice>1</voice><type>half</type></note><barline location="right"><bar-style>light-light</bar-style></barline></measure><!--=======================================================--><measure number="17" width="348"><print new-system="yes"><system-layout><system-margins><left-margin>70</left-margin><right-margin>0</right-margin></system-margins><system-distance>251</system-distance></system-layout></print><direction placement="above"><direction-type><coda default-x="0" default-y="50" /></direction-type><sound coda="17" divisions="4" /></direction><direction placement="above"><direction-type><words default-x="28" default-y="51" font-style="italic">Coda</words></direction-type></direction><harmony default-y="37" font-size="10" font-weight="bold"><root><root-step>E</root-step></root><kind halign="center" text="">major</kind></harmony><note default-x="110"><pitch><step>E</step><octave>4</octave></pitch><duration>8</duration><voice>1</voice><type>half</type><stem default-y="-4">up</stem><lyric default-y="-95" name="verse" number="1"><syllabic>single</syllabic><text font-size="10.8">an.</text></lyric></note><note default-x="218"><rest /><duration>6</duration><voice>1</voice><type>quarter</type><dot /></note><note default-x="306"><pitch><step>B</step><octave>4</octave></pitch><duration>2</duration><voice>1</voice><type>eighth</type><stem default-y="-55.5">down</stem><lyric default-y="-95" name="verse" number="1"><syllabic>single</syllabic><text font-size="10.8">Er</text></lyric></note></measure><!--=======================================================--><measure number="18" width="484"><harmony default-y="37" font-size="10" font-weight="bold"><root><root-step>A</root-step></root><kind halign="center" text="">major</kind></harmony><note default-x="14"><pitch><step>B</step><octave>4</octave></pitch><duration>2</duration><voice>1</voice><type>eighth</type><stem default-y="15">up</stem><beam number="1">begin</beam><lyric default-y="-95" name="verse" number="1"><syllabic>single</syllabic><text font-size="10.8">ist</text></lyric></note><note default-x="76"><pitch><step>A</step><octave>4</octave></pitch><duration>2</duration><voice>1</voice><type>eighth</type><stem default-y="10">up</stem><beam number="1">end</beam><lyric default-y="-95" name="verse" number="1"><syllabic>single</syllabic><text font-size="10.8">der</text></lyric></note><note default-x="138"><pitch><step>A</step><octave>4</octave></pitch><duration>2</duration><voice>1</voice><type>eighth</type><stem default-y="10">up</stem><beam number="1">begin</beam><lyric default-y="-95" name="verse" number="1"><syllabic>begin</syllabic><text font-size="10.8">Kö</text></lyric></note><note default-x="200"><pitch><step>G</step><alter>1</alter><octave>4</octave></pitch><duration>2</duration><voice>1</voice><type>eighth</type><stem default-y="5">up</stem><beam number="1">end</beam><lyric default-y="-95" name="verse" number="1"><syllabic>end</syllabic><text font-size="10.8">nig,</text></lyric></note><harmony default-y="37" font-size="10" font-weight="bold"><root><root-step>B</root-step></root><kind halign="center" text="7">dominant</kind></harmony><note default-x="262"><pitch><step>G</step><alter>1</alter><octave>4</octave></pitch><duration>4</duration><voice>1</voice><type>quarter</type><stem default-y="6">up</stem><lyric default-y="-95" name="verse" number="1"><syllabic>begin</syllabic><text font-size="10.8">be</text></lyric></note><note default-x="362"><pitch><step>F</step><alter>1</alter><octave>4</octave></pitch><duration>3</duration><voice>1</voice><type>eighth</type><dot /><stem default-y="0">up</stem><beam number="1">begin</beam><lyric default-y="-95" name="verse" number="1"><syllabic>end</syllabic><text font-size="10.8">te</text></lyric></note><note default-x="444"><pitch><step>E</step><octave>4</octave></pitch><duration>1</duration><voice>1</voice><type>16th</type><stem default-y="-5">up</stem><beam number="1">end</beam><beam number="2">backward hook</beam><lyric default-y="-95" name="verse" number="1"><syllabic>single</syllabic><text font-size="10.8">ihn</text></lyric></note></measure><!--=======================================================--><measure number="19" width="250"><harmony default-y="37" font-size="10" font-weight="bold"><root><root-step>E</root-step></root><kind halign="center" text="">major</kind></harmony><note default-x="11"><pitch><step>E</step><octave>4</octave></pitch><duration>8</duration><voice>1</voice><type>half</type><stem default-y="-4">up</stem><lyric default-y="-95" name="verse" number="1"><syllabic>single</syllabic><text font-size="10.8">an.</text></lyric></note><note default-x="119"><rest /><duration>6</duration><voice>1</voice><type>quarter</type><dot /></note><note default-x="207"><pitch><step>B</step><octave>4</octave></pitch><duration>2</duration><voice>1</voice><type>eighth</type><stem default-y="-55.5">down</stem><lyric default-y="-95" name="verse" number="1"><syllabic>single</syllabic><text font-size="10.8">Er</text></lyric></note></measure><!--=======================================================--><measure number="20" width="868"><print new-system="yes"><system-layout><system-distance>184</system-distance></system-layout></print><harmony default-y="37" font-size="10" font-weight="bold"><root><root-step>A</root-step></root><kind halign="center" text="">major</kind></harmony><note default-x="111"><pitch><step>B</step><octave>4</octave></pitch><duration>2</duration><voice>1</voice><type>eighth</type><stem default-y="15">up</stem><beam number="1">begin</beam><lyric default-y="-95" name="verse" number="1"><syllabic>single</syllabic><text font-size="10.8">ist</text></lyric></note><note default-x="211"><pitch><step>A</step><octave>4</octave></pitch><duration>2</duration><voice>1</voice><type>eighth</type><stem default-y="10">up</stem><beam number="1">end</beam><lyric default-y="-95" name="verse" number="1"><syllabic>single</syllabic><text font-size="10.8">der</text></lyric></note><note default-x="311"><pitch><step>A</step><octave>4</octave></pitch><duration>2</duration><voice>1</voice><type>eighth</type><stem default-y="10">up</stem><beam number="1">begin</beam><lyric default-y="-95" name="verse" number="1"><syllabic>begin</syllabic><text font-size="10.8">Kö</text></lyric></note><note default-x="411"><pitch><step>G</step><alter>1</alter><octave>4</octave></pitch><duration>2</duration><voice>1</voice><type>eighth</type><stem default-y="5">up</stem><beam number="1">end</beam><lyric default-y="-95" name="verse" number="1"><syllabic>end</syllabic><text font-size="10.8">nig</text></lyric></note><harmony default-y="37" font-size="10" font-weight="bold"><root><root-step>B</root-step></root><kind halign="center" text="7">dominant</kind></harmony><note default-x="512"><pitch><step>G</step><alter>1</alter><octave>4</octave></pitch><duration>4</duration><voice>1</voice><type>quarter</type><stem default-y="6">up</stem><lyric default-y="-95" name="verse" number="1"><syllabic>begin</syllabic><text font-size="10.8">be</text></lyric></note><note default-x="673"><pitch><step>F</step><alter>1</alter><octave>4</octave></pitch><duration>3</duration><voice>1</voice><type>eighth</type><dot /><stem default-y="0">up</stem><beam number="1">begin</beam><lyric default-y="-95" name="verse" number="1"><syllabic>end</syllabic><text font-size="10.8">te</text></lyric></note><note default-x="805"><pitch><step>E</step><octave>4</octave></pitch><duration>1</duration><voice>1</voice><type>16th</type><stem default-y="-4.5">up</stem><beam number="1">end</beam><beam number="2">backward hook</beam><lyric default-y="-95" name="verse" number="1"><syllabic>single</syllabic><text font-size="10.8">ihn</text></lyric></note></measure><!--=======================================================--><measure number="21" width="284"><harmony default-y="37" font-size="10" font-weight="bold"><root><root-step>E</root-step></root><kind halign="center" text="">major</kind></harmony><note default-x="12"><pitch><step>E</step><octave>4</octave></pitch><duration>16</duration><voice>1</voice><type>whole</type><lyric default-y="-95" name="verse" number="1"><syllabic>single</syllabic><text font-size="10.8">an.</text></lyric></note><barline location="right"><bar-style>light-heavy</bar-style></barline></measure></part><!--=========================================================--></score-partwise>