<?xml version="1.0" encoding="UTF-8"?><!DOCTYPE score-partwise PUBLIC "-//Recordare//DTD MusicXML 2.0 Partwise//EN" "http://www.musicxml.org/dtds/partwise.dtd"[]><score-partwise version="2.0"><movement-title>Mag sein du kannst es nicht verstehn</movement-title><identification><creator type="composer">Peter Strauch</creator><encoding><software>Finale 2011 for Windows</software><software>Dolet Light for Finale 2011</software><encoding-date>2013-03-26</encoding-date><supports attribute="new-system" element="print" type="yes" value="yes" /><supports attribute="new-page" element="print" type="yes" value="yes" /></encoding><rights>CCLI-Liednummer 4342498
© 1981 SCM Hänssler, Holzgerlingen
Nutzung ausschließlich im Rahmen der SongSelect®-Nutzungsbedingungen. Alle Rechte vorbehalten. www.ccli.com
CCLI-Lizenznummer 2182334
</rights></identification><defaults><scaling><millimeters>6.5088</millimeters><tenths>40</tenths></scaling><page-layout><page-height>1771</page-height><page-width>1308</page-width><page-margins type="both"><left-margin>78</left-margin><right-margin>78</right-margin><top-margin>78</top-margin><bottom-margin>78</bottom-margin></page-margins></page-layout><system-layout><system-margins><left-margin>0</left-margin><right-margin>0</right-margin></system-margins><system-distance>195</system-distance><top-system-distance>122</top-system-distance></system-layout><appearance><line-width type="stem">1.4583</line-width><line-width type="beam">5</line-width><line-width type="staff">1.25</line-width><line-width type="light barline">1.4583</line-width><line-width type="heavy barline">5</line-width><line-width type="leger">1.875</line-width><line-width type="ending">1.4583</line-width><line-width type="wedge">1.4583</line-width><line-width type="enclosure">1.4583</line-width><line-width type="tuplet bracket">1.4583</line-width><note-size type="grace">50</note-size><note-size type="cue">50</note-size></appearance><music-font font-family="Maestro" font-size="18.5" /><word-font font-family="Arial" font-size="9.2" /><lyric-font font-family="Arial" font-size="10.8" name="verse" /><lyric-font font-family="Arial" font-size="10.8" name="section" /></defaults><credit page="1"><credit-words default-x="654" default-y="1688" font-size="21.6" font-weight="bold" justify="center" valign="top">Mag sein du kannst es nicht verstehn</credit-words></credit><credit page="1"><credit-words default-x="1230" default-y="1620" font-size="10.8" font-style="italic" halign="right" valign="top">Text und Musik:</credit-words></credit><credit page="1"><credit-words default-x="1230" default-y="1594" font-size="10.8" font-weight="bold" justify="right" valign="top">Peter Strauch</credit-words></credit><credit page="2"><credit-words default-x="654" default-y="1717" font-size="10.8" justify="center" valign="top">Mag sein du kannst es nicht verstehn - 2</credit-words></credit><part-list><score-part id="P1"><part-name print-object="no">Melody</part-name><score-instrument id="P1-I2"><instrument-name>Melody</instrument-name></score-instrument><midi-instrument id="P1-I2"><midi-channel>1</midi-channel><midi-program>1</midi-program><volume>80</volume><pan>0</pan></midi-instrument></score-part></part-list><!--=========================================================--><part id="P1"><measure implicit="yes" number="0" width="161"><print page-number="1"><system-layout><system-margins><left-margin>68</left-margin><right-margin>0</right-margin></system-margins><top-system-distance>244</top-system-distance></system-layout><measure-numbering>system</measure-numbering></print><attributes><divisions>2</divisions><key><fifths>1</fifths><mode>major</mode></key><time><beats>4</beats><beat-type>4</beat-type></time><clef><sign>G</sign><line>2</line></clef></attributes><sound tempo="96" /><note default-x="111"><pitch><step>D</step><octave>4</octave></pitch><duration>2</duration><voice>1</voice><type>quarter</type><stem default-y="-9">up</stem><lyric default-y="-103" name="verse" number="1"><syllabic>single</syllabic><text font-size="10.8">Mag</text></lyric></note></measure><!--=======================================================--><measure number="1" width="153"><harmony default-y="29" font-size="10" font-weight="bold"><root><root-step>G</root-step></root><kind halign="center" text="">major</kind></harmony><note default-x="18"><pitch><step>B</step><octave>4</octave></pitch><duration>6</duration><voice>1</voice><type>half</type><dot /><stem default-y="-55">down</stem><lyric default-y="-103" name="verse" number="1"><syllabic>single</syllabic><text font-size="10.8">sein,</text></lyric></note><note default-x="109"><pitch><step>B</step><octave>4</octave></pitch><duration>2</duration><voice>1</voice><type>quarter</type><stem default-y="-55">down</stem><lyric default-y="-103" name="verse" number="1"><syllabic>single</syllabic><text font-size="10.8">du</text></lyric></note></measure><!--=======================================================--><measure number="2" width="270"><harmony default-y="29" font-size="10" font-weight="bold"><root><root-step>C</root-step></root><kind halign="center" text="">major</kind></harmony><note default-x="26"><pitch><step>C</step><octave>5</octave></pitch><duration>2</duration><voice>1</voice><type>quarter</type><stem default-y="-50.5">down</stem><lyric default-y="-103" name="verse" number="1"><syllabic>single</syllabic><text font-size="10.8">kannst</text></lyric></note><harmony default-y="29" font-size="10" font-weight="bold"><root><root-step>G</root-step></root><kind halign="center" text="">major</kind></harmony><note default-x="93"><pitch><step>B</step><octave>4</octave></pitch><duration>2</duration><voice>1</voice><type>quarter</type><stem default-y="-55">down</stem><lyric default-y="-103" name="verse" number="1"><syllabic>single</syllabic><text font-size="10.8">es</text></lyric></note><note default-x="149"><pitch><step>G</step><octave>4</octave></pitch><duration>1</duration><voice>1</voice><type>eighth</type><stem default-y="6">up</stem><lyric default-y="-103" name="verse" number="1"><syllabic>single</syllabic><text font-size="10.8">nicht</text></lyric></note><note default-x="210"><pitch><step>D</step><octave>4</octave></pitch><duration>3</duration><voice>1</voice><type>quarter</type><dot /><stem default-y="-9">up</stem><lyric default-y="-103" name="verse" number="1"><syllabic>begin</syllabic><text font-size="10.8">ver</text></lyric></note></measure><!--=======================================================--><measure number="3" width="138"><harmony default-y="29" font-size="10" font-weight="bold"><root><root-step>C</root-step></root><kind halign="center" text="">major</kind></harmony><note default-x="25"><pitch><step>E</step><octave>4</octave></pitch><duration>8</duration><tie type="start" /><voice>1</voice><type>whole</type><notations><tied type="start" /></notations><lyric default-y="-103" name="verse" number="1"><syllabic>end</syllabic><text font-size="10.8">stehn,</text><extend /></lyric></note></measure><!--=======================================================--><measure number="4" width="161"><harmony default-y="29" font-size="10" font-weight="bold"><root><root-step>A</root-step></root><kind halign="center" text="m">minor</kind></harmony><note default-x="23"><pitch><step>E</step><octave>4</octave></pitch><duration>6</duration><tie type="stop" /><voice>1</voice><type>half</type><dot /><stem default-y="-4">up</stem><notations><tied type="stop" /></notations></note><note default-x="115"><pitch><step>E</step><octave>4</octave></pitch><duration>2</duration><voice>1</voice><type>quarter</type><stem default-y="-4">up</stem><lyric default-y="-103" name="verse" number="1"><syllabic>single</syllabic><text font-size="10.8">und</text></lyric></note></measure><!--=======================================================--><measure number="5" width="200"><note default-x="16"><pitch><step>A</step><octave>4</octave></pitch><duration>2</duration><voice>1</voice><type>quarter</type><stem default-y="11">up</stem><lyric default-y="-103" name="verse" number="1"><syllabic>begin</syllabic><text font-size="10.8">trotz</text></lyric></note><note default-x="83"><pitch><step>A</step><octave>4</octave></pitch><duration>4</duration><voice>1</voice><type>half</type><stem default-y="11">up</stem><lyric default-y="-103" name="verse" number="1"><syllabic>end</syllabic><text font-size="10.8">dem,</text></lyric></note><note default-x="153"><pitch><step>A</step><octave>4</octave></pitch><duration>2</duration><voice>1</voice><type>quarter</type><stem default-y="11">up</stem><lyric default-y="-103" name="verse" number="1"><syllabic>single</syllabic><text font-size="10.8">und</text></lyric></note></measure><!--=======================================================--><measure number="6" width="305"><print new-system="yes"><system-layout><system-distance>184</system-distance></system-layout></print><harmony default-y="29" font-size="10" font-weight="bold"><root><root-step>D</root-step></root><kind halign="center" text="7">dominant</kind></harmony><note default-x="81"><pitch><step>B</step><octave>4</octave></pitch><duration>2</duration><voice>1</voice><type>quarter</type><stem default-y="-55">down</stem><lyric default-y="-103" name="verse" number="1"><syllabic>begin</syllabic><text font-size="10.8">trotz</text></lyric></note><note default-x="144"><pitch><step>A</step><octave>4</octave></pitch><duration>2</duration><voice>1</voice><type>quarter</type><stem default-y="11">up</stem><lyric default-y="-103" name="verse" number="1"><syllabic>end</syllabic><text font-size="10.8">dem</text></lyric></note><note default-x="198"><pitch><step>G</step><octave>4</octave></pitch><duration>1</duration><voice>1</voice><type>eighth</type><stem default-y="6">up</stem><lyric default-y="-103" name="verse" number="1"><syllabic>single</syllabic><text font-size="10.8">ist</text></lyric></note><note default-x="241"><pitch><step>A</step><octave>4</octave></pitch><duration>3</duration><voice>1</voice><type>quarter</type><dot /><stem default-y="11">up</stem><lyric default-y="-103" name="verse" number="1"><syllabic>single</syllabic><text font-size="10.8">es</text></lyric></note></measure><!--=======================================================--><measure number="7" width="138"><harmony default-y="29" font-size="10" font-weight="bold"><root><root-step>G</root-step></root><kind halign="center" text="">major</kind></harmony><note default-x="22"><pitch><step>B</step><octave>4</octave></pitch><duration>8</duration><tie type="start" /><voice>1</voice><type>whole</type><notations><tied type="start" /></notations><lyric default-y="-103" name="verse" number="1"><syllabic>single</syllabic><text font-size="10.8">wahr.</text><extend /></lyric></note></measure><!--=======================================================--><measure number="8" width="149"><note default-x="11"><pitch><step>B</step><octave>4</octave></pitch><duration>6</duration><tie type="stop" /><voice>1</voice><type>half</type><dot /><stem default-y="-55">down</stem><notations><tied type="stop" /></notations></note><note default-x="104"><pitch><step>D</step><octave>4</octave></pitch><duration>2</duration><voice>1</voice><type>quarter</type><stem default-y="-9">up</stem><lyric default-y="-103" name="verse" number="1"><syllabic>single</syllabic><text font-size="10.8">Es</text></lyric></note></measure><!--=======================================================--><measure number="9" width="149"><note default-x="11"><pitch><step>B</step><octave>4</octave></pitch><duration>6</duration><voice>1</voice><type>half</type><dot /><stem default-y="-55">down</stem><lyric default-y="-103" name="verse" number="1"><syllabic>single</syllabic><text font-size="10.8">ist</text></lyric></note><note default-x="104"><pitch><step>B</step><octave>4</octave></pitch><duration>2</duration><voice>1</voice><type>quarter</type><stem default-y="-55">down</stem><lyric default-y="-103" name="verse" number="1"><syllabic>single</syllabic><text font-size="10.8">am</text></lyric></note></measure><!--=======================================================--><measure number="10" width="260"><harmony default-y="29" font-size="10" font-weight="bold"><root><root-step>C</root-step></root><kind halign="center" text="">major</kind></harmony><note default-x="23"><pitch><step>C</step><octave>5</octave></pitch><duration>2</duration><voice>1</voice><type>quarter</type><stem default-y="-50">down</stem><lyric default-y="-103" name="verse" number="1"><syllabic>single</syllabic><text font-size="10.8">Kreuz</text></lyric></note><harmony default-y="29" font-size="10" font-weight="bold"><root><root-step>G</root-step></root><kind halign="center" text="">major</kind></harmony><note default-x="88"><pitch><step>B</step><octave>4</octave></pitch><duration>2</duration><voice>1</voice><type>quarter</type><stem default-y="-55">down</stem><lyric default-y="-103" name="verse" number="1"><syllabic>single</syllabic><text font-size="10.8">für</text></lyric></note><note default-x="145"><pitch><step>G</step><octave>4</octave></pitch><duration>1</duration><voice>1</voice><type>eighth</type><stem default-y="6">up</stem><lyric default-y="-103" name="verse" number="1"><syllabic>single</syllabic><text font-size="10.8">dich</text></lyric></note><note default-x="197"><pitch><step>D</step><octave>4</octave></pitch><duration>3</duration><voice>1</voice><type>quarter</type><dot /><stem default-y="-9">up</stem><lyric default-y="-103" name="verse" number="1"><syllabic>begin</syllabic><text font-size="10.8">ge</text></lyric></note></measure><!--=======================================================--><measure number="11" width="151"><harmony default-y="29" font-size="10" font-weight="bold"><root><root-step>C</root-step></root><kind halign="center" text="">major</kind></harmony><note default-x="34"><pitch><step>E</step><octave>4</octave></pitch><duration>8</duration><tie type="start" /><voice>1</voice><type>whole</type><notations><tied type="start" /></notations><lyric default-y="-103" name="verse" number="1"><syllabic>end</syllabic><text font-size="10.8">schehn,</text><extend /></lyric></note></measure><!--=======================================================--><measure number="12" width="244"><print new-system="yes"><system-layout><system-distance>184</system-distance></system-layout></print><harmony default-y="29" font-size="10" font-weight="bold"><root><root-step>A</root-step></root><kind halign="center" text="m">minor</kind></harmony><note default-x="86"><pitch><step>E</step><octave>4</octave></pitch><duration>6</duration><tie type="stop" /><voice>1</voice><type>half</type><dot /><stem default-y="-4">up</stem><notations><tied type="stop" /></notations></note><note default-x="192"><pitch><step>E</step><octave>4</octave></pitch><duration>2</duration><voice>1</voice><type>quarter</type><stem default-y="-4">up</stem><lyric default-y="-103" name="verse" number="1"><syllabic>single</syllabic><text font-size="10.8">für</text></lyric></note></measure><!--=======================================================--><measure number="13" width="174"><note default-x="14"><pitch><step>A</step><octave>4</octave></pitch><duration>6</duration><voice>1</voice><type>half</type><dot /><stem default-y="11">up</stem><lyric default-y="-103" name="verse" number="1"><syllabic>single</syllabic><text font-size="10.8">dich</text></lyric></note><note default-x="122"><pitch><step>A</step><octave>4</octave></pitch><duration>2</duration><voice>1</voice><type>quarter</type><stem default-y="11">up</stem><lyric default-y="-103" name="verse" number="1"><syllabic>single</syllabic><text font-size="10.8">und</text></lyric></note></measure><!--=======================================================--><measure number="14" width="275"><harmony default-y="29" font-size="10" font-weight="bold"><root><root-step>D</root-step></root><kind halign="center" text="7">dominant</kind></harmony><note default-x="18"><pitch><step>B</step><octave>4</octave></pitch><duration>2</duration><voice>1</voice><type>quarter</type><stem default-y="-55">down</stem><lyric default-y="-103" name="verse" number="1"><syllabic>single</syllabic><text font-size="10.8">mich</text></lyric></note><note default-x="85"><pitch><step>A</step><octave>4</octave></pitch><duration>2</duration><voice>1</voice><type>quarter</type><stem default-y="11">up</stem><lyric default-y="-103" name="verse" number="1"><syllabic>single</syllabic><text font-size="10.8">auf</text></lyric></note><note default-x="149"><pitch><step>G</step><octave>4</octave></pitch><duration>1</duration><voice>1</voice><type>eighth</type><stem default-y="6">up</stem><lyric default-y="-103" name="verse" number="1"><syllabic>begin</syllabic><text font-size="10.8">Gol</text></lyric></note><note default-x="197"><pitch><step>F</step><alter>1</alter><octave>4</octave></pitch><duration>3</duration><voice>1</voice><type>quarter</type><dot /><stem default-y="1">up</stem><lyric default-y="-103" name="verse" number="1"><syllabic>middle</syllabic><text font-size="10.8">ga</text></lyric></note></measure><!--=======================================================--><measure number="15" width="144"><harmony default-y="29" font-size="10" font-weight="bold"><root><root-step>G</root-step></root><kind halign="center" text="">major</kind></harmony><note default-x="13"><pitch><step>G</step><octave>4</octave></pitch><duration>8</duration><tie type="start" /><voice>1</voice><type>whole</type><notations><tied type="start" /></notations><lyric default-y="-103" name="verse" number="1"><syllabic>end</syllabic><text font-size="10.8">tha.</text><extend /></lyric></note></measure><!--=======================================================--><measure number="16" width="316"><note default-x="10"><pitch><step>G</step><octave>4</octave></pitch><duration>2</duration><tie type="stop" /><voice>1</voice><type>quarter</type><stem default-y="6">up</stem><notations><tied type="stop" /></notations></note><note default-x="79"><pitch><step>G</step><octave>4</octave></pitch><duration>2</duration><voice>1</voice><type>quarter</type><stem default-y="6">up</stem><lyric default-y="-103" name="verse" number="1"><syllabic>single</syllabic><text font-size="10.8">1.</text><elision> </elision><syllabic>single</syllabic><text font-size="10.8">Denn</text></lyric></note><note default-x="165"><pitch><step>G</step><octave>4</octave></pitch><duration>1</duration><voice>1</voice><type>eighth</type><stem default-y="6">up</stem><lyric default-y="-103" name="verse" number="1"><syllabic>single</syllabic><text font-size="10.8">dort</text></lyric></note><note default-x="230"><pitch><step>F</step><alter>1</alter><octave>4</octave></pitch><duration>3</duration><voice>1</voice><type>quarter</type><dot /><stem default-y="1">up</stem><lyric default-y="-103" name="verse" number="1"><syllabic>single</syllabic><text font-size="10.8">starb</text></lyric></note><barline location="right"><bar-style>light-light</bar-style></barline></measure><!--=======================================================--><measure number="17" width="294"><print new-system="yes"><system-layout><system-distance>184</system-distance></system-layout></print><harmony default-y="29" font-size="10" font-weight="bold"><root><root-step>E</root-step></root><kind halign="center" text="m">minor</kind></harmony><note default-x="83"><pitch><step>E</step><octave>4</octave></pitch><duration>2</duration><voice>1</voice><type>quarter</type><stem default-y="-4">up</stem><lyric default-y="-103" name="verse" number="1"><syllabic>begin</syllabic><text font-size="10.8">Je</text></lyric></note><note default-x="133"><pitch><step>E</step><octave>4</octave></pitch><duration>2</duration><voice>1</voice><type>quarter</type><stem default-y="-4">up</stem><lyric default-y="-103" name="verse" number="1"><syllabic>end</syllabic><text font-size="10.8">sus</text></lyric></note><note default-x="183"><pitch><step>F</step><alter>1</alter><octave>4</octave></pitch><duration>1</duration><voice>1</voice><type>eighth</type><stem default-y="1">up</stem><lyric default-y="-103" name="verse" number="1"><syllabic>single</syllabic><text font-size="10.8">an</text></lyric></note><note default-x="236"><pitch><step>G</step><octave>4</octave></pitch><duration>3</duration><voice>1</voice><type>quarter</type><dot /><stem default-y="5.5">up</stem><lyric default-y="-103" name="verse" number="1"><syllabic>single</syllabic><text font-size="10.8">dem</text></lyric></note></measure><!--=======================================================--><measure number="18" width="205"><note default-x="25"><pitch><step>E</step><octave>4</octave></pitch><duration>8</duration><voice>1</voice><type>whole</type><lyric default-y="-103" name="verse" number="1"><syllabic>single</syllabic><text font-size="10.8">Kreuz,</text></lyric></note><backup><duration>8</duration></backup><note default-x="24"><rest><display-step>B</display-step><display-octave>3</display-octave></rest><duration>4</duration><voice>2</voice><type>half</type></note><note default-x="94"><pitch><step>B</step><octave>3</octave></pitch><duration>1</duration><voice>2</voice><type size="cue">eighth</type><stem default-y="-90">down</stem><lyric default-y="-128" name="verse" number="2"><syllabic>single</syllabic><text font-size="10.8" font-style="italic">an</text></lyric></note><note default-x="147"><pitch><step>D</step><octave>4</octave></pitch><duration>3</duration><voice>2</voice><type size="cue">quarter</type><dot /><stem default-y="-70">down</stem><lyric default-y="-128" name="verse" number="2"><syllabic>single</syllabic><text font-size="10.8" font-style="italic">dem</text></lyric></note></measure><!--=======================================================--><measure number="19" width="208"><harmony default-y="29" font-size="10" font-weight="bold"><root><root-step>C</root-step></root><kind halign="center" text="">major</kind></harmony><note default-x="13"><pitch><step>E</step><octave>4</octave></pitch><duration>2</duration><voice>1</voice><type>quarter</type><stem default-y="-4">up</stem><lyric default-y="-103" name="verse" number="1"><syllabic>single</syllabic><text font-size="10.8">dort</text></lyric></note><note default-x="64"><pitch><step>E</step><octave>4</octave></pitch><duration>2</duration><voice>1</voice><type>quarter</type><stem default-y="-4">up</stem><lyric default-y="-103" name="verse" number="1"><syllabic>single</syllabic><text font-size="10.8">litt</text></lyric></note><note default-x="106"><pitch><step>F</step><alter>1</alter><octave>4</octave></pitch><duration>1</duration><voice>1</voice><type>eighth</type><stem default-y="1">up</stem><lyric default-y="-103" name="verse" number="1"><syllabic>single</syllabic><text font-size="10.8">er</text></lyric></note><note default-x="150"><pitch><step>G</step><octave>4</octave></pitch><duration>3</duration><voice>1</voice><type>quarter</type><dot /><stem default-y="5.5">up</stem><lyric default-y="-103" name="verse" number="1"><syllabic>single</syllabic><text font-size="10.8">für</text></lyric></note><backup><duration>8</duration></backup><note default-x="13"><pitch><step>C</step><octave>4</octave></pitch><duration>8</duration><voice>2</voice><type size="cue">whole</type><lyric default-y="-128" name="verse" number="2" relative-x="12"><syllabic>single</syllabic><text font-size="10.8" font-style="italic">Kreuz,</text></lyric></note></measure><!--=======================================================--><measure number="20" width="209"><note default-x="14"><pitch><step>E</step><octave>4</octave></pitch><duration>8</duration><voice>1</voice><type>whole</type><lyric default-y="-103" name="verse" number="1"><syllabic>single</syllabic><text font-size="10.8">dich</text></lyric></note><backup><duration>8</duration></backup><note default-x="14"><pitch><step>C</step><octave>4</octave></pitch><duration>2</duration><voice>2</voice><type size="cue">quarter</type><stem default-y="-75">down</stem><lyric default-y="-128" name="verse" number="2"><syllabic>single</syllabic><text font-size="10.8" font-style="italic">dort</text></lyric></note><note default-x="65"><pitch><step>C</step><octave>4</octave></pitch><duration>2</duration><voice>2</voice><type size="cue">quarter</type><stem default-y="-75">down</stem><lyric default-y="-128" name="verse" number="2"><syllabic>single</syllabic><text font-size="10.8" font-style="italic">litt</text></lyric></note><note default-x="107"><pitch><step>C</step><octave>4</octave></pitch><duration>1</duration><voice>2</voice><type size="cue">eighth</type><stem default-y="-85.5">down</stem><lyric default-y="-128" name="verse" number="2"><syllabic>single</syllabic><text font-size="10.8" font-style="italic">er</text></lyric></note><note default-x="151"><pitch><step>D</step><octave>4</octave></pitch><duration>3</duration><voice>2</voice><type size="cue">quarter</type><dot /><stem default-y="-70">down</stem><lyric default-y="-128" name="verse" number="2"><syllabic>single</syllabic><text font-size="10.8" font-style="italic">für</text></lyric></note></measure><!--=======================================================--><measure number="21" width="237"><harmony default-y="29" font-size="10" font-weight="bold"><root><root-step>A</root-step></root><kind halign="center" text="">major</kind></harmony><note default-x="21"><pitch><step>E</step><octave>4</octave></pitch><duration>2</duration><voice>1</voice><type>quarter</type><stem default-y="-4">up</stem><lyric default-y="-103" name="verse" number="1"><syllabic>single</syllabic><text font-size="10.8">dort</text></lyric></note><note default-x="88"><pitch><step>E</step><octave>4</octave></pitch><duration>2</duration><voice>1</voice><type>quarter</type><stem default-y="-4">up</stem><lyric default-y="-103" name="verse" number="1"><syllabic>single</syllabic><text font-size="10.8">nahm</text></lyric></note><note default-x="146"><pitch><step>E</step><octave>4</octave></pitch><duration>2</duration><voice>1</voice><type>quarter</type><stem default-y="-4">up</stem><lyric default-y="-103" name="verse" number="1"><syllabic>single</syllabic><text font-size="10.8">er</text></lyric></note><note default-x="192"><pitch><step>E</step><octave>4</octave></pitch><duration>2</duration><voice>1</voice><type>quarter</type><stem default-y="-4">up</stem><lyric default-y="-103" name="verse" number="1"><syllabic>single</syllabic><text font-size="10.8">die</text></lyric></note><backup><duration>8</duration></backup><note default-x="21"><pitch><step>C</step><alter>1</alter><octave>4</octave></pitch><duration>8</duration><voice>2</voice><type size="cue">whole</type><accidental>sharp</accidental><lyric default-y="-128" name="verse" number="2"><syllabic>single</syllabic><text font-size="10.8" font-style="italic">dich,</text></lyric></note></measure><!--=======================================================--><measure number="22" width="306"><print new-system="yes"><system-layout><system-distance>184</system-distance></system-layout></print><note default-x="90"><pitch><step>A</step><octave>4</octave></pitch><duration>2</duration><voice>1</voice><type>quarter</type><stem default-y="11">up</stem><lyric default-y="-103" name="verse" number="1"><syllabic>single</syllabic><text font-size="10.8">Schuld</text></lyric></note><note default-x="154"><pitch><step>A</step><octave>4</octave></pitch><duration>2</duration><voice>1</voice><type>quarter</type><stem default-y="11">up</stem><lyric default-y="-103" name="verse" number="1"><syllabic>single</syllabic><text font-size="10.8">der</text></lyric></note><harmony default-y="29" font-size="10" font-weight="bold"><root><root-step>A</root-step></root><kind halign="center" text="7">dominant</kind></harmony><note default-x="210"><pitch><step>F</step><alter>1</alter><octave>4</octave></pitch><duration>1</duration><voice>1</voice><type>eighth</type><stem default-y="1">up</stem><lyric default-y="-103" name="verse" number="1"><syllabic>single</syllabic><text font-size="10.8">Welt</text></lyric></note><note default-x="264"><pitch><step>E</step><octave>4</octave></pitch><duration>3</duration><voice>1</voice><type>quarter</type><dot /><stem default-y="-4">up</stem><lyric default-y="-103" name="verse" number="1"><syllabic>single</syllabic><text font-size="10.8">auf</text></lyric></note></measure><!--=======================================================--><measure number="23" width="113"><harmony default-y="29" font-size="10" font-weight="bold"><root><root-step>D</root-step></root><kind halign="center" text="">major</kind></harmony><note default-x="17"><pitch><step>D</step><octave>4</octave></pitch><duration>8</duration><tie type="start" /><voice>1</voice><type>whole</type><notations><tied type="start" /></notations><lyric default-y="-103" name="verse" number="1"><syllabic>single</syllabic><text font-size="10.8">sich.</text><extend /></lyric></note></measure><!--=======================================================--><measure number="24" width="189"><note default-x="10"><pitch><step>D</step><octave>4</octave></pitch><duration>2</duration><tie type="stop" /><voice>1</voice><type>quarter</type><stem default-y="-9">up</stem><notations><tied type="stop" /></notations></note><note default-x="39"><pitch><step>G</step><octave>4</octave></pitch><duration>2</duration><voice>1</voice><type>quarter</type><stem default-y="6">up</stem><lyric default-y="-103" name="verse" number="1"><syllabic>single</syllabic><text font-size="10.8">Du</text></lyric></note><note default-x="89"><pitch><step>G</step><octave>4</octave></pitch><duration>1</duration><voice>1</voice><type>eighth</type><stem default-y="6">up</stem><lyric default-y="-103" name="verse" number="1"><syllabic>single</syllabic><text font-size="10.8">bist</text></lyric></note><note default-x="144"><pitch><step>F</step><alter>1</alter><octave>4</octave></pitch><duration>3</duration><voice>1</voice><type>quarter</type><dot /><stem default-y="1">up</stem><lyric default-y="-103" name="verse" number="1"><syllabic>single</syllabic><text font-size="10.8">nun</text></lyric></note></measure><!--=======================================================--><measure number="25" width="170"><harmony default-y="29" font-size="10" font-weight="bold"><root><root-step>E</root-step></root><kind halign="center" text="m">minor</kind></harmony><note default-x="21"><pitch><step>E</step><octave>4</octave></pitch><duration>4</duration><voice>1</voice><type>half</type><stem default-y="-4">up</stem><lyric default-y="-103" name="verse" number="1"><syllabic>single</syllabic><text font-size="10.8">frei,</text></lyric></note><note default-x="74"><pitch><step>F</step><alter>1</alter><octave>4</octave></pitch><duration>1</duration><voice>1</voice><type>eighth</type><stem default-y="1">up</stem><lyric default-y="-103" name="verse" number="1"><syllabic>single</syllabic><text font-size="10.8">du</text></lyric></note><note default-x="122"><pitch><step>G</step><octave>4</octave></pitch><duration>3</duration><voice>1</voice><type>quarter</type><dot /><stem default-y="6">up</stem><lyric default-y="-103" name="verse" number="1"><syllabic>single</syllabic><text font-size="10.8">bist</text></lyric></note></measure><!--=======================================================--><measure number="26" width="166"><note default-x="13"><pitch><step>E</step><octave>4</octave></pitch><duration>8</duration><voice>1</voice><type>whole</type><lyric default-y="-103" name="verse" number="1"><syllabic>single</syllabic><text font-size="10.8">frei,</text></lyric></note><backup><duration>8</duration></backup><note default-x="11"><rest><display-step>B</display-step><display-octave>3</display-octave></rest><duration>4</duration><voice>2</voice><type>half</type></note><note default-x="64"><pitch><step>B</step><octave>3</octave></pitch><duration>1</duration><voice>2</voice><type size="cue">eighth</type><stem default-y="-90">down</stem><lyric default-y="-128" name="verse" number="2"><syllabic>single</syllabic><text font-size="10.8" font-style="italic">Du</text></lyric></note><note default-x="114"><pitch><step>D</step><octave>4</octave></pitch><duration>3</duration><voice>2</voice><type size="cue">quarter</type><dot /><stem default-y="-70">down</stem><lyric default-y="-128" name="verse" number="2"><syllabic>single</syllabic><text font-size="10.8" font-style="italic">bist</text></lyric></note></measure><!--=======================================================--><measure number="27" width="209"><harmony default-y="29" font-size="10" font-weight="bold"><root><root-step>C</root-step></root><kind halign="center" text="">major</kind></harmony><note default-x="21"><pitch><step>E</step><octave>4</octave></pitch><duration>2</duration><voice>1</voice><type>quarter</type><stem default-y="-4">up</stem><lyric default-y="-103" name="verse" number="1"><syllabic>single</syllabic><text font-size="10.8">wenn</text></lyric></note><note default-x="76"><pitch><step>E</step><octave>4</octave></pitch><duration>2</duration><voice>1</voice><type>quarter</type><stem default-y="-4">up</stem><lyric default-y="-103" name="verse" number="1"><syllabic>single</syllabic><text font-size="10.8">du</text></lyric></note><note default-x="121"><pitch><step>F</step><alter>1</alter><octave>4</octave></pitch><duration>1</duration><voice>1</voice><type>eighth</type><stem default-y="1">up</stem><lyric default-y="-103" name="verse" number="1"><syllabic>single</syllabic><text font-size="10.8">auf</text></lyric></note><note default-x="169"><pitch><step>G</step><octave>4</octave></pitch><duration>3</duration><voice>1</voice><type>quarter</type><dot /><stem default-y="6">up</stem><lyric default-y="-103" name="verse" number="1"><syllabic>single</syllabic><text font-size="10.8">ihn</text></lyric></note><backup><duration>8</duration></backup><note default-x="21"><pitch><step>C</step><octave>4</octave></pitch><duration>8</duration><voice>2</voice><type size="cue">whole</type><lyric default-y="-128" name="verse" number="2"><syllabic>single</syllabic><text font-size="10.8" font-style="italic">frei,</text></lyric></note></measure><!--=======================================================--><measure number="28" width="337"><print new-system="yes"><system-layout><system-distance>184</system-distance></system-layout></print><note default-x="96"><pitch><step>E</step><octave>4</octave></pitch><duration>8</duration><voice>1</voice><type>whole</type><lyric default-y="-103" name="verse" number="1"><syllabic>single</syllabic><text font-size="10.8">schaust</text></lyric></note><backup><duration>8</duration></backup><note default-x="96"><pitch><step>C</step><octave>4</octave></pitch><duration>2</duration><voice>2</voice><type size="cue">quarter</type><stem default-y="-75.5">down</stem><lyric default-y="-128" name="verse" number="2" relative-x="8"><syllabic>single</syllabic><text font-size="10.8" font-style="italic">wenn</text></lyric></note><note default-x="163"><pitch><step>C</step><octave>4</octave></pitch><duration>2</duration><voice>2</voice><type size="cue">quarter</type><stem default-y="-75.5">down</stem><lyric default-y="-128" name="verse" number="2"><syllabic>single</syllabic><text font-size="10.8" font-style="italic">du</text></lyric></note><note default-x="218"><pitch><step>C</step><octave>4</octave></pitch><duration>1</duration><voice>2</voice><type size="cue">eighth</type><stem default-y="-85">down</stem><lyric default-y="-128" name="verse" number="2"><syllabic>single</syllabic><text font-size="10.8" font-style="italic">auf</text></lyric></note><note default-x="264"><pitch><step>D</step><octave>4</octave></pitch><duration>3</duration><voice>2</voice><type size="cue">quarter</type><dot /><stem default-y="-70">down</stem><lyric default-y="-128" name="verse" number="2"><syllabic>single</syllabic><text font-size="10.8" font-style="italic">ihn</text></lyric></note></measure><!--=======================================================--><measure number="29" width="263"><harmony default-y="29" font-size="10" font-weight="bold"><root><root-step>A</root-step></root><kind halign="center" text="">major</kind></harmony><note default-x="21"><pitch><step>E</step><octave>4</octave></pitch><duration>2</duration><voice>1</voice><type>quarter</type><stem default-y="-4">up</stem><lyric default-y="-103" name="verse" number="1"><syllabic>single</syllabic><text font-size="10.8">und</text></lyric></note><note default-x="86"><pitch><step>E</step><octave>4</octave></pitch><duration>2</duration><voice>1</voice><type>quarter</type><stem default-y="-4">up</stem><lyric default-y="-103" name="verse" number="1"><syllabic>single</syllabic><text font-size="10.8">wenn</text></lyric></note><note default-x="148"><pitch><step>E</step><octave>4</octave></pitch><duration>2</duration><voice>1</voice><type>quarter</type><stem default-y="-4">up</stem><lyric default-y="-103" name="verse" number="1"><syllabic>single</syllabic><text font-size="10.8">du</text></lyric></note><note default-x="206"><pitch><step>E</step><octave>4</octave></pitch><duration>2</duration><voice>1</voice><type>quarter</type><stem default-y="-4">up</stem><lyric default-y="-103" name="verse" number="1"><syllabic>single</syllabic><text font-size="10.8">dich</text></lyric></note><backup><duration>8</duration></backup><note default-x="21"><pitch><step>C</step><alter>1</alter><octave>4</octave></pitch><duration>8</duration><voice>2</voice><type size="cue">whole</type><accidental>sharp</accidental><lyric default-y="-128" name="verse" number="2" relative-x="15"><syllabic>single</syllabic><text font-size="10.8" font-style="italic">schaust,</text></lyric></note></measure><!--=======================================================--><measure number="30" width="239"><harmony default-y="29" font-size="10" font-weight="bold"><root><root-step>A</root-step></root><kind halign="center" text="7">dominant</kind></harmony><note default-x="19"><pitch><step>A</step><octave>4</octave></pitch><duration>2</duration><voice>1</voice><type>quarter</type><stem default-y="11">up</stem><lyric default-y="-103" name="verse" number="1"><syllabic>begin</syllabic><text font-size="10.8">Je</text></lyric></note><note default-x="73"><pitch><step>E</step><octave>4</octave></pitch><duration>2</duration><voice>1</voice><type>quarter</type><stem default-y="-4">up</stem><lyric default-y="-103" name="verse" number="1"><syllabic>end</syllabic><text font-size="10.8">sus</text></lyric></note><note default-x="127"><pitch><step>F</step><alter>1</alter><octave>4</octave></pitch><duration>1</duration><voice>1</voice><type>eighth</type><stem default-y="1">up</stem><lyric default-y="-103" name="verse" number="1"><syllabic>begin</syllabic><text font-size="10.8">an</text></lyric></note><note default-x="174"><pitch><step>G</step><octave>4</octave></pitch><duration>3</duration><voice>1</voice><type>quarter</type><dot /><stem default-y="6">up</stem><lyric default-y="-103" name="verse" number="1"><syllabic>middle</syllabic><text font-size="10.8">ver</text></lyric></note></measure><!--=======================================================--><measure number="31" width="147"><harmony default-y="29" font-size="10" font-weight="bold"><root><root-step>D</root-step></root><kind halign="center" text="">major</kind></harmony><note default-x="26"><pitch><step>A</step><octave>4</octave></pitch><duration>8</duration><tie type="start" /><voice>1</voice><type>whole</type><notations><tied type="start" /></notations><lyric default-y="-103" name="verse" number="1"><syllabic>end</syllabic><text font-size="10.8">traust.</text><extend /></lyric></note></measure><!--=======================================================--><measure number="32" width="166"><note default-x="10"><pitch><step>A</step><octave>4</octave></pitch><duration>6</duration><tie type="stop" /><voice>1</voice><type>half</type><dot /><stem default-y="11">up</stem><notations><tied type="stop" /></notations></note><note default-x="112"><pitch><step>D</step><octave>4</octave></pitch><duration>2</duration><voice>1</voice><type>quarter</type><stem default-y="-9">up</stem><lyric default-y="-103" name="verse" number="1"><syllabic>single</syllabic><text font-size="10.8">Mag</text></lyric></note><barline location="right"><bar-style>light-light</bar-style></barline></measure><!--=======================================================--><measure number="33" width="244"><print new-page="yes" page-number="2" /><direction placement="above"><direction-type><segno default-x="29" default-y="52" /></direction-type><sound divisions="2" segno="34" /></direction><harmony default-y="29" font-size="10" font-weight="bold"><root><root-step>G</root-step></root><kind halign="center" text="">major</kind></harmony><note default-x="81"><pitch><step>B</step><octave>4</octave></pitch><duration>6</duration><voice>1</voice><type>half</type><dot /><stem default-y="-55.5">down</stem><lyric default-y="-103" name="verse" number="1"><syllabic>single</syllabic><text font-size="10.8">sein,</text></lyric></note><note default-x="191"><pitch><step>B</step><octave>4</octave></pitch><duration>2</duration><voice>1</voice><type>quarter</type><stem default-y="-55.5">down</stem><lyric default-y="-103" name="verse" number="1"><syllabic>single</syllabic><text font-size="10.8">du</text></lyric></note></measure><!--=======================================================--><measure number="34" width="318"><harmony default-y="29" font-size="10" font-weight="bold"><root><root-step>C</root-step></root><kind halign="center" text="">major</kind></harmony><note default-x="26"><pitch><step>C</step><octave>5</octave></pitch><duration>2</duration><voice>1</voice><type>quarter</type><stem default-y="-51">down</stem><lyric default-y="-103" name="verse" number="1"><syllabic>single</syllabic><text font-size="10.8">kannst</text></lyric></note><harmony default-y="29" font-size="10" font-weight="bold"><root><root-step>G</root-step></root><kind halign="center" text="">major</kind></harmony><note default-x="103"><pitch><step>B</step><octave>4</octave></pitch><duration>2</duration><voice>1</voice><type>quarter</type><stem default-y="-55.5">down</stem><lyric default-y="-103" name="verse" number="1"><syllabic>single</syllabic><text font-size="10.8">es</text></lyric></note><note default-x="174"><pitch><step>G</step><octave>4</octave></pitch><duration>1</duration><voice>1</voice><type>eighth</type><stem default-y="6">up</stem><lyric default-y="-103" name="verse" number="1"><syllabic>single</syllabic><text font-size="10.8">nicht</text></lyric></note><note default-x="234"><pitch><step>D</step><octave>4</octave></pitch><duration>3</duration><voice>1</voice><type>quarter</type><dot /><stem default-y="-9">up</stem><lyric default-y="-103" name="verse" number="1"><syllabic>begin</syllabic><text font-size="10.8">ver</text></lyric></note></measure><!--=======================================================--><measure number="35" width="163"><harmony default-y="29" font-size="10" font-weight="bold"><root><root-step>C</root-step></root><kind halign="center" text="">major</kind></harmony><note default-x="24"><pitch><step>E</step><octave>4</octave></pitch><duration>8</duration><tie type="start" /><voice>1</voice><type>whole</type><notations><tied type="start" /></notations><lyric default-y="-103" name="verse" number="1"><syllabic>end</syllabic><text font-size="10.8">stehn,</text><extend /></lyric></note></measure><!--=======================================================--><measure number="36" width="190"><harmony default-y="29" font-size="10" font-weight="bold"><root><root-step>A</root-step></root><kind halign="center" text="m">minor</kind></harmony><note default-x="23"><pitch><step>E</step><octave>4</octave></pitch><duration>6</duration><tie type="stop" /><voice>1</voice><type>half</type><dot /><stem default-y="-4">up</stem><notations><tied type="stop" /></notations></note><note default-x="135"><pitch><step>E</step><octave>4</octave></pitch><duration>2</duration><voice>1</voice><type>quarter</type><stem default-y="-4">up</stem><lyric default-y="-103" name="verse" number="1"><syllabic>single</syllabic><text font-size="10.8">und</text></lyric></note></measure><!--=======================================================--><measure number="37" width="238"><note default-x="16"><pitch><step>A</step><octave>4</octave></pitch><duration>2</duration><voice>1</voice><type>quarter</type><stem default-y="11">up</stem><lyric default-y="-103" name="verse" number="1"><syllabic>begin</syllabic><text font-size="10.8">trotz</text></lyric></note><note default-x="83"><pitch><step>A</step><octave>4</octave></pitch><duration>4</duration><voice>1</voice><type>half</type><stem default-y="11">up</stem><lyric default-y="-103" name="verse" number="1"><syllabic>end</syllabic><text font-size="10.8">dem,</text></lyric></note><note default-x="177"><pitch><step>A</step><octave>4</octave></pitch><duration>2</duration><voice>1</voice><type>quarter</type><stem default-y="11">up</stem><lyric default-y="-103" name="verse" number="1"><syllabic>single</syllabic><text font-size="10.8">und</text></lyric></note></measure><!--=======================================================--><measure number="38" width="305"><print new-system="yes"><system-layout><system-distance>184</system-distance></system-layout></print><harmony default-y="29" font-size="10" font-weight="bold"><root><root-step>D</root-step></root><kind halign="center" text="7">dominant</kind></harmony><note default-x="81"><pitch><step>B</step><octave>4</octave></pitch><duration>2</duration><voice>1</voice><type>quarter</type><stem default-y="-55.5">down</stem><lyric default-y="-103" name="verse" number="1"><syllabic>begin</syllabic><text font-size="10.8">trotz</text></lyric></note><note default-x="144"><pitch><step>A</step><octave>4</octave></pitch><duration>2</duration><voice>1</voice><type>quarter</type><stem default-y="10.5">up</stem><lyric default-y="-103" name="verse" number="1"><syllabic>end</syllabic><text font-size="10.8">dem</text></lyric></note><note default-x="198"><pitch><step>G</step><octave>4</octave></pitch><duration>1</duration><voice>1</voice><type>eighth</type><stem default-y="6">up</stem><lyric default-y="-103" name="verse" number="1"><syllabic>single</syllabic><text font-size="10.8">ist</text></lyric></note><note default-x="241"><pitch><step>A</step><octave>4</octave></pitch><duration>3</duration><voice>1</voice><type>quarter</type><dot /><stem default-y="10.5">up</stem><lyric default-y="-103" name="verse" number="1"><syllabic>single</syllabic><text font-size="10.8">es</text></lyric></note></measure><!--=======================================================--><measure number="39" width="138"><harmony default-y="29" font-size="10" font-weight="bold"><root><root-step>G</root-step></root><kind halign="center" text="">major</kind></harmony><note default-x="22"><pitch><step>B</step><octave>4</octave></pitch><duration>8</duration><tie type="start" /><voice>1</voice><type>whole</type><notations><tied type="start" /></notations><lyric default-y="-103" name="verse" number="1"><syllabic>single</syllabic><text font-size="10.8">wahr.</text><extend /></lyric></note></measure><!--=======================================================--><measure number="40" width="149"><note default-x="11"><pitch><step>B</step><octave>4</octave></pitch><duration>6</duration><tie type="stop" /><voice>1</voice><type>half</type><dot /><stem default-y="-55.5">down</stem><notations><tied type="stop" /></notations></note><note default-x="104"><pitch><step>D</step><octave>4</octave></pitch><duration>2</duration><voice>1</voice><type>quarter</type><stem default-y="-9">up</stem><lyric default-y="-103" name="verse" number="1"><syllabic>single</syllabic><text font-size="10.8">Es</text></lyric></note></measure><!--=======================================================--><measure number="41" width="149"><note default-x="11"><pitch><step>B</step><octave>4</octave></pitch><duration>6</duration><voice>1</voice><type>half</type><dot /><stem default-y="-55.5">down</stem><lyric default-y="-103" name="verse" number="1"><syllabic>single</syllabic><text font-size="10.8">ist</text></lyric></note><note default-x="104"><pitch><step>B</step><octave>4</octave></pitch><duration>2</duration><voice>1</voice><type>quarter</type><stem default-y="-55.5">down</stem><lyric default-y="-103" name="verse" number="1"><syllabic>single</syllabic><text font-size="10.8">am</text></lyric></note></measure><!--=======================================================--><measure number="42" width="260"><harmony default-y="29" font-size="10" font-weight="bold"><root><root-step>C</root-step></root><kind halign="center" text="">major</kind></harmony><note default-x="23"><pitch><step>C</step><octave>5</octave></pitch><duration>2</duration><voice>1</voice><type>quarter</type><stem default-y="-51">down</stem><lyric default-y="-103" name="verse" number="1"><syllabic>single</syllabic><text font-size="10.8">Kreuz</text></lyric></note><harmony default-y="29" font-size="10" font-weight="bold"><root><root-step>G</root-step></root><kind halign="center" text="">major</kind></harmony><note default-x="88"><pitch><step>B</step><octave>4</octave></pitch><duration>2</duration><voice>1</voice><type>quarter</type><stem default-y="-55.5">down</stem><lyric default-y="-103" name="verse" number="1"><syllabic>single</syllabic><text font-size="10.8">für</text></lyric></note><note default-x="145"><pitch><step>G</step><octave>4</octave></pitch><duration>1</duration><voice>1</voice><type>eighth</type><stem default-y="6">up</stem><lyric default-y="-103" name="verse" number="1"><syllabic>single</syllabic><text font-size="10.8">dich</text></lyric></note><note default-x="197"><pitch><step>D</step><octave>4</octave></pitch><duration>3</duration><voice>1</voice><type>quarter</type><dot /><stem default-y="-9">up</stem><lyric default-y="-103" name="verse" number="1"><syllabic>begin</syllabic><text font-size="10.8">ge</text></lyric></note></measure><!--=======================================================--><measure number="43" width="151"><harmony default-y="29" font-size="10" font-weight="bold"><root><root-step>C</root-step></root><kind halign="center" text="">major</kind></harmony><note default-x="34"><pitch><step>E</step><octave>4</octave></pitch><duration>8</duration><tie type="start" /><voice>1</voice><type>whole</type><notations><tied type="start" /></notations><lyric default-y="-103" name="verse" number="1"><syllabic>end</syllabic><text font-size="10.8">schehn,</text><extend /></lyric></note></measure><!--=======================================================--><measure number="44" width="246"><print new-system="yes"><system-layout><system-distance>184</system-distance></system-layout></print><harmony default-y="29" font-size="10" font-weight="bold"><root><root-step>A</root-step></root><kind halign="center" text="m">minor</kind></harmony><note default-x="86"><pitch><step>E</step><octave>4</octave></pitch><duration>6</duration><tie type="stop" /><voice>1</voice><type>half</type><dot /><stem default-y="-4">up</stem><notations><tied type="stop" /></notations></note><note default-x="194"><pitch><step>E</step><octave>4</octave></pitch><duration>2</duration><voice>1</voice><type>quarter</type><stem default-y="-4">up</stem><lyric default-y="-103" name="verse" number="1"><syllabic>single</syllabic><text font-size="10.8">für</text></lyric></note></measure><!--=======================================================--><measure number="45" width="176"><note default-x="15"><pitch><step>A</step><octave>4</octave></pitch><duration>6</duration><voice>1</voice><type>half</type><dot /><stem default-y="11">up</stem><lyric default-y="-103" name="verse" number="1"><syllabic>single</syllabic><text font-size="10.8">dich</text></lyric></note><note default-x="123"><pitch><step>A</step><octave>4</octave></pitch><duration>2</duration><voice>1</voice><type>quarter</type><stem default-y="11">up</stem><lyric default-y="-103" name="verse" number="1"><syllabic>single</syllabic><text font-size="10.8">und</text></lyric></note></measure><!--=======================================================--><measure number="46" width="285"><harmony default-y="29" font-size="10" font-weight="bold"><root><root-step>D</root-step></root><kind halign="center" text="7">dominant</kind></harmony><note default-x="18"><pitch><step>B</step><octave>4</octave></pitch><duration>2</duration><voice>1</voice><type>quarter</type><stem default-y="-55.5">down</stem><lyric default-y="-103" name="verse" number="1"><syllabic>single</syllabic><text font-size="10.8">mich</text></lyric></note><note default-x="86"><pitch><step>A</step><octave>4</octave></pitch><duration>2</duration><voice>1</voice><type>quarter</type><stem default-y="11">up</stem><lyric default-y="-103" name="verse" number="1"><syllabic>single</syllabic><text font-size="10.8">auf</text></lyric></note><note default-x="151"><pitch><step>G</step><octave>4</octave></pitch><duration>1</duration><voice>1</voice><type>eighth</type><stem default-y="6">up</stem><lyric default-y="-103" name="verse" number="1"><syllabic>begin</syllabic><text font-size="10.8">Gol</text></lyric></note><direction placement="above"><direction-type><words default-x="247" default-y="47" font-style="italic" justify="right">Schluss zur Coda</words></direction-type><sound tocoda="66" /></direction><note default-x="199"><pitch><step>F</step><alter>1</alter><octave>4</octave></pitch><duration>3</duration><voice>1</voice><type>quarter</type><dot /><stem default-y="1">up</stem><lyric default-y="-103" name="verse" number="1"><syllabic>middle</syllabic><text font-size="10.8">ga</text></lyric></note><direction placement="above"><direction-type><coda default-x="252" default-y="45" /></direction-type><sound coda="47" divisions="2" /></direction><barline location="right"><bar-style>light-light</bar-style></barline></measure><!--=======================================================--><measure number="47" width="145"><harmony default-y="29" font-size="10" font-weight="bold"><root><root-step>G</root-step></root><kind halign="center" text="">major</kind></harmony><note default-x="12"><pitch><step>G</step><octave>4</octave></pitch><duration>8</duration><tie type="start" /><voice>1</voice><type>whole</type><notations><tied type="start" /></notations><lyric default-y="-103" name="verse" number="1"><syllabic>end</syllabic><text font-size="10.8">tha.</text><extend /></lyric></note></measure><!--=======================================================--><measure number="48" width="300"><note default-x="10"><pitch><step>G</step><octave>4</octave></pitch><duration>2</duration><tie type="stop" /><voice>1</voice><type>quarter</type><stem default-y="6">up</stem><notations><tied type="stop" /></notations></note><note default-x="82"><pitch><step>G</step><octave>4</octave></pitch><duration>2</duration><voice>1</voice><type>quarter</type><stem default-y="6">up</stem><lyric default-y="-103" name="verse" number="1"><syllabic>single</syllabic><text font-size="10.8">2.</text><elision> </elision><syllabic>single</syllabic><text font-size="10.8">Wenn</text></lyric></note><note default-x="155"><pitch><step>G</step><octave>4</octave></pitch><duration>1</duration><voice>1</voice><type>eighth</type><stem default-y="6">up</stem><lyric default-y="-103" name="verse" number="1"><syllabic>single</syllabic><text font-size="10.8">du</text></lyric></note><note default-x="201"><pitch><step>F</step><alter>1</alter><octave>4</octave></pitch><duration>3</duration><voice>1</voice><type>quarter</type><dot /><stem default-y="1">up</stem><lyric default-y="-103" name="verse" number="1"><syllabic>single</syllabic><text font-size="10.8">ihm</text></lyric></note><barline location="right"><bar-style>light-light</bar-style></barline></measure><!--=======================================================--><measure number="49" width="263"><print new-system="yes"><system-layout><system-distance>184</system-distance></system-layout></print><harmony default-y="29" font-size="10" font-weight="bold"><root><root-step>E</root-step></root><kind halign="center" text="m">minor</kind></harmony><note default-x="83"><pitch><step>E</step><octave>4</octave></pitch><duration>2</duration><voice>1</voice><type>quarter</type><stem default-y="-4">up</stem><lyric default-y="-103" name="verse" number="1"><syllabic>begin</syllabic><text font-size="10.8">dei</text></lyric></note><note default-x="126"><pitch><step>E</step><octave>4</octave></pitch><duration>2</duration><voice>1</voice><type>quarter</type><stem default-y="-4">up</stem><lyric default-y="-103" name="verse" number="1"><syllabic>end</syllabic><text font-size="10.8">ne</text></lyric></note><note default-x="176"><pitch><step>F</step><alter>1</alter><octave>4</octave></pitch><duration>1</duration><voice>1</voice><type>eighth</type><stem default-y="1">up</stem><lyric default-y="-103" name="verse" number="1"><syllabic>begin</syllabic><text font-size="10.8">Sün</text></lyric></note><note default-x="225"><pitch><step>G</step><octave>4</octave></pitch><duration>3</duration><voice>1</voice><type>quarter</type><dot /><stem default-y="6">up</stem><lyric default-y="-103" name="verse" number="1"><syllabic>end</syllabic><text font-size="10.8">de</text></lyric></note></measure><!--=======================================================--><measure number="50" width="182"><note default-x="30"><pitch><step>E</step><octave>4</octave></pitch><duration>8</duration><voice>1</voice><type>whole</type><lyric default-y="-103" name="verse" number="1"><syllabic>single</syllabic><text font-size="10.8">nennst,</text></lyric></note><backup><duration>8</duration></backup><note default-x="29"><rest><display-step>B</display-step><display-octave>3</display-octave></rest><duration>4</duration><voice>2</voice><type>half</type></note><note default-x="81"><pitch><step>B</step><octave>3</octave></pitch><duration>1</duration><voice>2</voice><type size="cue">eighth</type><stem default-y="-90">down</stem><lyric default-y="-128" name="verse" number="2"><syllabic>begin</syllabic><text font-size="10.8" font-style="italic">Sün</text></lyric></note><note default-x="133"><pitch><step>D</step><octave>4</octave></pitch><duration>3</duration><voice>2</voice><type size="cue">quarter</type><dot /><stem default-y="-70.5">down</stem><lyric default-y="-128" name="verse" number="2"><syllabic>end</syllabic><text font-size="10.8" font-style="italic">de</text></lyric></note></measure><!--=======================================================--><measure number="51" width="228"><harmony default-y="29" font-size="10" font-weight="bold"><root><root-step>C</root-step></root><kind halign="center" text="">major</kind></harmony><note default-x="13"><pitch><step>E</step><octave>4</octave></pitch><duration>2</duration><voice>1</voice><type>quarter</type><stem default-y="-4">up</stem><lyric default-y="-103" name="verse" number="1"><syllabic>single</syllabic><text font-size="10.8">und</text></lyric></note><note default-x="63"><pitch><step>E</step><octave>4</octave></pitch><duration>2</duration><voice>1</voice><type>quarter</type><stem default-y="-4">up</stem><lyric default-y="-103" name="verse" number="1"><syllabic>single</syllabic><text font-size="10.8">die</text></lyric></note><note default-x="128"><pitch><step>F</step><alter>1</alter><octave>4</octave></pitch><duration>1</duration><voice>1</voice><type>eighth</type><stem default-y="1">up</stem><lyric default-y="-103" name="verse" number="1"><syllabic>single</syllabic><text font-size="10.8">Schuld</text></lyric></note><note default-x="191"><pitch><step>G</step><octave>4</octave></pitch><duration>3</duration><voice>1</voice><type>quarter</type><dot /><stem default-y="6">up</stem><lyric default-y="-103" name="verse" number="1"><syllabic>begin</syllabic><text font-size="10.8">be</text></lyric></note><backup><duration>8</duration></backup><note default-x="13"><pitch><step>C</step><octave>4</octave></pitch><duration>8</duration><voice>2</voice><type size="cue">whole</type><lyric default-y="-128" name="verse" number="2" relative-x="14"><syllabic>single</syllabic><text font-size="10.8" font-style="italic">nennst</text></lyric></note></measure><!--=======================================================--><measure number="52" width="243"><note default-x="29"><pitch><step>E</step><octave>4</octave></pitch><duration>8</duration><voice>1</voice><type>whole</type><lyric default-y="-103" name="verse" number="1"><syllabic>end</syllabic><text font-size="10.8">kennst,</text></lyric></note><backup><duration>8</duration></backup><note default-x="29"><pitch><step>C</step><octave>4</octave></pitch><duration>2</duration><voice>2</voice><type size="cue">quarter</type><stem default-y="-75.5">down</stem><lyric default-y="-128" name="verse" number="2"><syllabic>single</syllabic><text font-size="10.8" font-style="italic">und</text></lyric></note><note default-x="78"><pitch><step>C</step><octave>4</octave></pitch><duration>2</duration><voice>2</voice><type size="cue">quarter</type><stem default-y="-75.5">down</stem><lyric default-y="-128" name="verse" number="2"><syllabic>single</syllabic><text font-size="10.8" font-style="italic">die</text></lyric></note><note default-x="144"><pitch><step>C</step><octave>4</octave></pitch><duration>1</duration><voice>2</voice><type size="cue">eighth</type><stem default-y="-85">down</stem><lyric default-y="-128" name="verse" number="2"><syllabic>single</syllabic><text font-size="10.8" font-style="italic">Schuld</text></lyric></note><note default-x="205"><pitch><step>D</step><octave>4</octave></pitch><duration>3</duration><voice>2</voice><type size="cue">quarter</type><dot /><stem default-y="-70.5">down</stem><lyric default-y="-128" name="verse" number="2"><syllabic>begin</syllabic><text font-size="10.8" font-style="italic">be</text></lyric></note></measure><!--=======================================================--><measure number="53" width="237"><harmony default-y="29" font-size="10" font-weight="bold"><root><root-step>A</root-step></root><kind halign="center" text="">major</kind></harmony><note default-x="20"><pitch><step>E</step><octave>4</octave></pitch><duration>2</duration><voice>1</voice><type>quarter</type><stem default-y="-4">up</stem><lyric default-y="-103" name="verse" number="1"><syllabic>single</syllabic><text font-size="10.8">dann</text></lyric></note><note default-x="83"><pitch><step>E</step><octave>4</octave></pitch><duration>2</duration><voice>1</voice><type>quarter</type><stem default-y="-4">up</stem><lyric default-y="-103" name="verse" number="1"><syllabic>single</syllabic><text font-size="10.8">weißt</text></lyric></note><note default-x="139"><pitch><step>E</step><octave>4</octave></pitch><duration>2</duration><voice>1</voice><type>quarter</type><stem default-y="-4">up</stem><lyric default-y="-103" name="verse" number="1"><syllabic>single</syllabic><text font-size="10.8">du,</text></lyric></note><note default-x="190"><pitch><step>E</step><octave>4</octave></pitch><duration>2</duration><voice>1</voice><type>quarter</type><stem default-y="-4">up</stem><lyric default-y="-103" name="verse" number="1"><syllabic>single</syllabic><text font-size="10.8">dass</text></lyric></note><backup><duration>8</duration></backup><note default-x="20"><pitch><step>C</step><alter>1</alter><octave>4</octave></pitch><duration>8</duration><voice>2</voice><type size="cue">whole</type><accidental>sharp</accidental><lyric default-y="-128" name="verse" number="2" relative-x="9"><syllabic>end</syllabic><text font-size="10.8" font-style="italic">kennst.</text></lyric></note></measure><!--=======================================================--><measure number="54" width="263"><print new-system="yes"><system-layout><system-distance>184</system-distance></system-layout></print><note default-x="73"><pitch><step>A</step><octave>4</octave></pitch><duration>2</duration><voice>1</voice><type>quarter</type><stem default-y="11">up</stem><lyric default-y="-103" name="verse" number="1"><syllabic>begin</syllabic><text font-size="10.8">Je</text></lyric></note><note default-x="121"><pitch><step>A</step><octave>4</octave></pitch><duration>2</duration><voice>1</voice><type>quarter</type><stem default-y="11">up</stem><lyric default-y="-103" name="verse" number="1"><syllabic>end</syllabic><text font-size="10.8">sus</text></lyric></note><harmony default-y="29" font-size="10" font-weight="bold"><root><root-step>A</root-step></root><kind halign="center" text="7">dominant</kind></harmony><note default-x="170"><pitch><step>F</step><alter>1</alter><octave>4</octave></pitch><duration>1</duration><voice>1</voice><type>eighth</type><stem default-y="1">up</stem><lyric default-y="-103" name="verse" number="1"><syllabic>single</syllabic><text font-size="10.8">dir</text></lyric></note><note default-x="219"><pitch><step>E</step><octave>4</octave></pitch><duration>3</duration><voice>1</voice><type>quarter</type><dot /><stem default-y="-4">up</stem><lyric default-y="-103" name="verse" number="1"><syllabic>begin</syllabic><text font-size="10.8">ver</text></lyric></note></measure><!--=======================================================--><measure number="55" width="118"><harmony default-y="29" font-size="10" font-weight="bold"><root><root-step>D</root-step></root><kind halign="center" text="">major</kind></harmony><note default-x="15"><pitch><step>D</step><octave>4</octave></pitch><duration>8</duration><tie type="start" /><voice>1</voice><type>whole</type><notations><tied type="start" /></notations><lyric default-y="-103" name="verse" number="1"><syllabic>end</syllabic><text font-size="10.8">gibt.</text><extend /></lyric></note></measure><!--=======================================================--><measure number="56" width="183"><note default-x="10"><pitch><step>D</step><octave>4</octave></pitch><duration>2</duration><tie type="stop" /><voice>1</voice><type>quarter</type><stem default-y="-9">up</stem><notations><tied type="stop" /></notations></note><note default-x="47"><pitch><step>G</step><octave>4</octave></pitch><duration>2</duration><voice>1</voice><type>quarter</type><stem default-y="6">up</stem><lyric default-y="-103" name="verse" number="1"><syllabic>single</syllabic><text font-size="10.8">Die</text></lyric></note><note default-x="91"><pitch><step>G</step><octave>4</octave></pitch><duration>1</duration><voice>1</voice><type>eighth</type><stem default-y="6">up</stem><lyric default-y="-103" name="verse" number="1"><syllabic>begin</syllabic><text font-size="10.8">Bi</text></lyric></note><note default-x="134"><pitch><step>F</step><alter>1</alter><octave>4</octave></pitch><duration>3</duration><voice>1</voice><type>quarter</type><dot /><stem default-y="1">up</stem><lyric default-y="-103" name="verse" number="1"><syllabic>end</syllabic><text font-size="10.8">bel</text></lyric></note></measure><!--=======================================================--><measure number="57" width="176"><harmony default-y="29" font-size="10" font-weight="bold"><root><root-step>E</root-step></root><kind halign="center" text="m">minor</kind></harmony><note default-x="20"><pitch><step>E</step><octave>4</octave></pitch><duration>4</duration><voice>1</voice><type>half</type><stem default-y="-4">up</stem><lyric default-y="-103" name="verse" number="1"><syllabic>single</syllabic><text font-size="10.8">sagt</text></lyric></note><note default-x="82"><pitch><step>F</step><alter>1</alter><octave>4</octave></pitch><duration>1</duration><voice>1</voice><type>eighth</type><stem default-y="1">up</stem><lyric default-y="-103" name="verse" number="1"><syllabic>single</syllabic><text font-size="10.8">es</text></lyric></note><note default-x="125"><pitch><step>G</step><octave>4</octave></pitch><duration>3</duration><voice>1</voice><type>quarter</type><dot /><stem default-y="6">up</stem><lyric default-y="-103" name="verse" number="1"><syllabic>single</syllabic><text font-size="10.8">dir</text></lyric></note></measure><!--=======================================================--><measure number="58" width="179"><note default-x="14"><pitch><step>E</step><octave>4</octave></pitch><duration>8</duration><voice>1</voice><type>whole</type><lyric default-y="-103" name="verse" number="1"><syllabic>single</syllabic><text font-size="10.8">klar,</text></lyric></note><backup><duration>8</duration></backup><note default-x="12"><rest><display-step>B</display-step><display-octave>3</display-octave></rest><duration>4</duration><voice>2</voice><type>half</type></note><note default-x="73"><pitch><step>B</step><octave>3</octave></pitch><duration>1</duration><voice>2</voice><type size="cue">eighth</type><stem default-y="-90">down</stem><lyric default-y="-128" name="verse" number="2"><syllabic>single</syllabic><text font-size="10.8" font-style="italic">sagt</text></lyric></note><note default-x="127"><pitch><step>D</step><octave>4</octave></pitch><duration>3</duration><voice>2</voice><type size="cue">quarter</type><dot /><stem default-y="-70.5">down</stem><lyric default-y="-128" name="verse" number="2"><syllabic>single</syllabic><text font-size="10.8" font-style="italic">es</text></lyric></note></measure><!--=======================================================--><measure number="59" width="233"><harmony default-y="29" font-size="10" font-weight="bold"><root><root-step>C</root-step></root><kind halign="center" text="">major</kind></harmony><note default-x="13"><pitch><step>E</step><octave>4</octave></pitch><duration>2</duration><voice>1</voice><type>quarter</type><stem default-y="-4">up</stem><lyric default-y="-103" name="verse" number="1"><syllabic>single</syllabic><text font-size="10.8">und</text></lyric></note><note default-x="72"><pitch><step>E</step><octave>4</octave></pitch><duration>2</duration><voice>1</voice><type>quarter</type><stem default-y="-4">up</stem><lyric default-y="-103" name="verse" number="1"><syllabic>single</syllabic><text font-size="10.8">sein</text></lyric></note><note default-x="136"><pitch><step>F</step><alter>1</alter><octave>4</octave></pitch><duration>1</duration><voice>1</voice><type>eighth</type><stem default-y="1">up</stem><lyric default-y="-103" name="verse" number="1"><syllabic>single</syllabic><text font-size="10.8">Wort</text></lyric></note><note default-x="190"><pitch><step>G</step><octave>4</octave></pitch><duration>3</duration><voice>1</voice><type>quarter</type><dot /><stem default-y="6">up</stem><lyric default-y="-103" name="verse" number="1"><syllabic>single</syllabic><text font-size="10.8">ist</text></lyric></note><backup><duration>8</duration></backup><note default-x="13"><pitch><step>C</step><octave>4</octave></pitch><duration>8</duration><voice>2</voice><type size="cue">whole</type><lyric default-y="-128" name="verse" number="2"><syllabic>single</syllabic><text font-size="10.8" font-style="italic">klar</text></lyric></note></measure><!--=======================================================--><measure number="60" width="340"><print new-system="yes"><system-layout><system-distance>184</system-distance></system-layout></print><note default-x="85"><pitch><step>E</step><octave>4</octave></pitch><duration>8</duration><voice>1</voice><type>whole</type><lyric default-y="-103" name="verse" number="1"><syllabic>single</syllabic><text font-size="10.8">wahr,</text></lyric></note><backup><duration>8</duration></backup><note default-x="85"><pitch><step>C</step><octave>4</octave></pitch><duration>2</duration><voice>2</voice><type size="cue">quarter</type><stem default-y="-75.5">down</stem><lyric default-y="-128" name="verse" number="2"><syllabic>single</syllabic><text font-size="10.8" font-style="italic">und</text></lyric></note><note default-x="148"><pitch><step>C</step><octave>4</octave></pitch><duration>2</duration><voice>2</voice><type size="cue">quarter</type><stem default-y="-75.5">down</stem><lyric default-y="-128" name="verse" number="2"><syllabic>single</syllabic><text font-size="10.8" font-style="italic">sein</text></lyric></note><note default-x="217"><pitch><step>C</step><octave>4</octave></pitch><duration>1</duration><voice>2</voice><type size="cue">eighth</type><stem default-y="-85">down</stem><lyric default-y="-128" name="verse" number="2"><syllabic>single</syllabic><text font-size="10.8" font-style="italic">Wort</text></lyric></note><note default-x="272"><pitch><step>D</step><octave>4</octave></pitch><duration>3</duration><voice>2</voice><type size="cue">quarter</type><dot /><stem default-y="-70.5">down</stem><lyric default-y="-128" name="verse" number="2"><syllabic>single</syllabic><text font-size="10.8" font-style="italic">ist</text></lyric></note></measure><!--=======================================================--><measure number="61" width="258"><harmony default-y="29" font-size="10" font-weight="bold"><root><root-step>A</root-step></root><kind halign="center" text="">major</kind></harmony><note default-x="21"><pitch><step>E</step><octave>4</octave></pitch><duration>2</duration><voice>1</voice><type>quarter</type><stem default-y="-4.5">up</stem><lyric default-y="-103" name="verse" number="1"><syllabic>single</syllabic><text font-size="10.8">so</text></lyric></note><note default-x="80"><pitch><step>E</step><octave>4</octave></pitch><duration>2</duration><voice>1</voice><type>quarter</type><stem default-y="-4.5">up</stem><lyric default-y="-103" name="verse" number="1"><syllabic>single</syllabic><text font-size="10.8">sehr</text></lyric></note><note default-x="138"><pitch><step>E</step><octave>4</octave></pitch><duration>2</duration><voice>1</voice><type>quarter</type><stem default-y="-4.5">up</stem><lyric default-y="-103" name="verse" number="1"><syllabic>single</syllabic><text font-size="10.8">hat</text></lyric></note><note default-x="197"><pitch><step>E</step><octave>4</octave></pitch><duration>2</duration><voice>1</voice><type>quarter</type><stem default-y="-4.5">up</stem><lyric default-y="-103" name="verse" number="1"><syllabic>single</syllabic><text font-size="10.8">Gott</text></lyric></note><backup><duration>8</duration></backup><note default-x="21"><pitch><step>C</step><alter>1</alter><octave>4</octave></pitch><duration>8</duration><voice>2</voice><type size="cue">whole</type><accidental>sharp</accidental><lyric default-y="-128" name="verse" number="2"><syllabic>single</syllabic><text font-size="10.8" font-style="italic">wahr</text></lyric></note></measure><!--=======================================================--><measure number="62" width="251"><harmony default-y="29" font-size="10" font-weight="bold"><root><root-step>A</root-step></root><kind halign="center" text="7">dominant</kind></harmony><note default-x="19"><pitch><step>A</step><octave>4</octave></pitch><duration>2</duration><voice>1</voice><type>quarter</type><stem default-y="11">up</stem><lyric default-y="-103" name="verse" number="1"><syllabic>begin</syllabic><text font-size="10.8">die</text></lyric></note><note default-x="71"><pitch><step>E</step><octave>4</octave></pitch><duration>2</duration><voice>1</voice><type>quarter</type><stem default-y="-4.5">up</stem><lyric default-y="-103" name="verse" number="1"><syllabic>end</syllabic><text font-size="10.8">se</text></lyric></note><note default-x="130"><pitch><step>F</step><alter>1</alter><octave>4</octave></pitch><duration>1</duration><voice>1</voice><type>eighth</type><stem default-y="1">up</stem><lyric default-y="-103" name="verse" number="1"><syllabic>single</syllabic><text font-size="10.8">Welt</text></lyric></note><note default-x="201"><pitch><step>G</step><octave>4</octave></pitch><duration>3</duration><voice>1</voice><type>quarter</type><dot /><stem default-y="6">up</stem><lyric default-y="-103" name="verse" number="1"><syllabic>begin</syllabic><text font-size="10.8">ge</text></lyric></note></measure><!--=======================================================--><measure number="63" width="137"><harmony default-y="29" font-size="10" font-weight="bold"><root><root-step>D</root-step></root><kind halign="center" text="">major</kind></harmony><note default-x="17"><pitch><step>A</step><octave>4</octave></pitch><duration>8</duration><tie type="start" /><voice>1</voice><type>whole</type><notations><tied type="start" /></notations><lyric default-y="-103" name="verse" number="1"><syllabic>end</syllabic><text font-size="10.8">liebt.</text><extend /></lyric></note></measure><!--=======================================================--><measure number="64" width="167"><note default-x="10"><pitch><step>A</step><octave>4</octave></pitch><duration>6</duration><tie type="stop" /><voice>1</voice><type>half</type><dot /><stem default-y="11">up</stem><notations><tied type="stop" /></notations></note><note default-x="113"><pitch><step>D</step><octave>4</octave></pitch><duration>2</duration><voice>1</voice><type>quarter</type><stem default-y="-9">up</stem><lyric default-y="-103" name="verse" number="1"><syllabic>single</syllabic><text font-size="10.8">Mag</text></lyric></note><direction placement="above"><direction-type><words default-x="162" default-y="18" font-style="italic" justify="right">D.S. al Coda</words></direction-type><sound dalsegno="34" /></direction><barline location="right"><bar-style>light-light</bar-style></barline></measure><!--=======================================================--><measure number="65" width="577"><print new-system="yes"><system-layout><system-margins><left-margin>70</left-margin><right-margin>0</right-margin></system-margins><system-distance>184</system-distance></system-layout></print><direction placement="above"><direction-type><coda default-x="-3" default-y="50" /></direction-type><sound coda="66" divisions="2" /></direction><direction placement="above"><direction-type><words default-x="20" default-y="50" font-style="italic">Coda</words></direction-type></direction><harmony default-y="29" font-size="10" font-weight="bold"><root><root-step>G</root-step></root><kind halign="center" text="">major</kind></harmony><note default-x="94"><pitch><step>G</step><octave>4</octave></pitch><duration>8</duration><tie type="start" /><voice>1</voice><type>whole</type><notations><tied type="start" /></notations><lyric default-y="-103" name="verse" number="1"><syllabic>single</syllabic><text font-size="10.8">tha.</text><extend /></lyric></note></measure><!--=======================================================--><measure number="66" width="505"><note default-x="10"><pitch><step>G</step><octave>4</octave></pitch><duration>2</duration><tie type="stop" /><voice>1</voice><type>quarter</type><stem default-y="6">up</stem><notations><tied type="stop" /></notations></note><note default-x="145"><rest /><duration>2</duration><voice>1</voice><type>quarter</type></note><note default-x="276"><rest /><duration>4</duration><voice>1</voice><type>half</type></note><barline location="right"><bar-style>light-heavy</bar-style></barline></measure></part><!--=========================================================--></score-partwise>