<?xml version="1.0" encoding="UTF-8" standalone="no"?><!DOCTYPE score-partwise PUBLIC "-//Recordare//DTD MusicXML 3.0 Partwise//EN" "http://www.musicxml.org/dtds/partwise.dtd"[]><score-partwise version="3.0"><movement-title>Majestät</movement-title><identification><creator type="composer">Jack Hayford</creator><creator type="arranger">Hajo Klösel</creator><encoding><software>Finale 2014 for Windows</software><software>Dolet Light for Finale 2014</software><encoding-date>2016-12-07</encoding-date><supports attribute="new-system" element="print" type="yes" value="yes" /><supports attribute="new-page" element="print" type="yes" value="yes" /><supports element="accidental" type="yes" /><supports element="beam" type="yes" /><supports element="stem" type="yes" /></encoding><rights>CCLI-Liednummer 5416701
© 1981 New Spring
Nutzung ausschließlich im Rahmen der SongSelect®-Nutzungsbedingungen. Alle Rechte vorbehalten. www.ccli.com
CCLI-Lizenznummer 2182334
</rights></identification><defaults><scaling><millimeters>6.5088</millimeters><tenths>40</tenths></scaling><page-layout><page-height>1717</page-height><page-width>1327</page-width><page-margins type="both"><left-margin>78</left-margin><right-margin>78</right-margin><top-margin>78</top-margin><bottom-margin>78</bottom-margin></page-margins></page-layout><system-layout><system-margins><left-margin>0</left-margin><right-margin>0</right-margin></system-margins><system-distance>190</system-distance><top-system-distance>117</top-system-distance></system-layout><appearance><line-width type="stem">1.4583</line-width><line-width type="beam">5</line-width><line-width type="staff">1.25</line-width><line-width type="light barline">1.4583</line-width><line-width type="heavy barline">5</line-width><line-width type="leger">1.875</line-width><line-width type="ending">1.4583</line-width><line-width type="wedge">1.4583</line-width><line-width type="enclosure">1.4583</line-width><line-width type="tuplet bracket">1.4583</line-width><note-size type="grace">50</note-size><note-size type="cue">50</note-size><distance type="hyphen">240</distance><distance type="beam">8</distance></appearance><music-font font-family="Maestro,engraved" font-size="18.5" /><word-font font-family="Arial" font-size="9.2" /><lyric-font font-family="Arial" font-size="10.8" name="verse" /><lyric-font font-family="Arial" font-size="10.8" name="section" /></defaults><credit page="1"><credit-type>title</credit-type><credit-words default-x="663" default-y="1649" font-size="21.6" font-weight="bold" justify="center" valign="top" xml:lang="de">Majestät</credit-words></credit><credit page="1"><credit-words default-x="1249" default-y="1576" font-size="10.8" font-style="italic" justify="right" valign="top">Text und Musik:</credit-words></credit><credit page="1"><credit-type>composer</credit-type><credit-words default-x="1249" default-y="1552" font-size="10.8" font-weight="bold" justify="right" valign="top">Jack Hayford</credit-words></credit><credit page="1"><credit-words default-x="78" default-y="1576" font-size="10.8" font-style="italic" valign="top">Deutsch:</credit-words></credit><credit page="1"><credit-type>arranger</credit-type><credit-words default-x="78" default-y="1552" font-size="10.8" font-weight="bold" valign="top" xml:lang="de">Hajo Klösel</credit-words></credit><credit page="2"><credit-type>title</credit-type><credit-type>page number</credit-type><credit-words default-x="663" default-y="1663" font-size="10.8" justify="center" valign="top" xml:lang="de">Majestät - 2</credit-words></credit><part-list><score-part id="P1"><part-name print-object="no">Vocals</part-name><score-instrument id="P1-I2"><instrument-name>Melody</instrument-name></score-instrument><midi-instrument id="P1-I2"><midi-channel>1</midi-channel><midi-program>1</midi-program><volume>80</volume><pan>0</pan></midi-instrument></score-part></part-list><!--=========================================================--><part id="P1"><measure number="1" width="438"><print page-number="1"><page-layout><page-height>1717</page-height><page-width>1327</page-width><page-margins><left-margin>78</left-margin><right-margin>78</right-margin><top-margin>190</top-margin><bottom-margin>163</bottom-margin></page-margins></page-layout><system-layout><system-margins><left-margin>68</left-margin><right-margin>0</right-margin></system-margins></system-layout><measure-numbering>system</measure-numbering></print><attributes><divisions>6</divisions><key><fifths>-2</fifths><mode>major</mode></key><time><beats>4</beats><beat-type>4</beat-type></time><clef><sign>G</sign><line>2</line></clef></attributes><sound tempo="96" /><harmony default-y="36" font-size="10" font-weight="bold"><root><root-step>B</root-step><root-alter>-1</root-alter></root><kind halign="center" text="">major</kind></harmony><note default-x="120"><pitch><step>B</step><alter>-1</alter><octave>4</octave></pitch><duration>9</duration><voice>1</voice><type>quarter</type><dot /><stem default-y="-52">down</stem><lyric default-y="-91" name="verse" number="1"><syllabic>begin</syllabic><text font-size="10.8">Ma</text></lyric></note><note default-x="199"><pitch><step>F</step><octave>4</octave></pitch><duration>3</duration><voice>1</voice><type>eighth</type><stem default-y="-3">up</stem><lyric default-y="-91" name="verse" number="1"><syllabic>middle</syllabic><text font-size="10.8">jes</text></lyric></note><note default-x="279"><pitch><step>F</step><octave>4</octave></pitch><duration>12</duration><tie type="start" /><voice>1</voice><type>half</type><stem default-y="-3">up</stem><notations><tied orientation="over" type="start" /></notations><lyric default-y="-91" name="verse" number="1"><syllabic>end</syllabic><text font-size="10.8">tät,</text><extend type="start" /></lyric></note><backup><duration>24</duration></backup><forward><duration>12</duration><voice>2</voice></forward><note default-x="279"><pitch><step>D</step><octave>4</octave></pitch><duration>6</duration><voice>2</voice><type size="cue">quarter</type><stem default-y="-72.5">down</stem></note><harmony default-y="36" font-size="10" font-weight="bold"><root><root-step>E</root-step><root-alter>-1</root-alter></root><kind halign="center" text="2">major</kind><bass><bass-step>B</bass-step><bass-alter>-1</bass-alter></bass><degree print-object="no"><degree-value>2</degree-value><degree-alter>0</degree-alter><degree-type>add</degree-type></degree></harmony><note default-x="358"><pitch><step>E</step><alter>-1</alter><octave>4</octave></pitch><duration>6</duration><voice>2</voice><type size="cue">quarter</type><stem default-y="-67.5">down</stem></note></measure><!--=======================================================--><measure number="2" width="337"><harmony default-y="36" font-size="10" font-weight="bold"><root><root-step>B</root-step><root-alter>-1</root-alter></root><kind halign="center" text="">major</kind></harmony><note default-x="16"><pitch><step>F</step><octave>4</octave></pitch><duration>12</duration><tie type="stop" /><voice>1</voice><type>half</type><stem default-y="-3">up</stem><notations><tied type="stop" /></notations><lyric name="verse" number="1"><extend type="stop" /></lyric></note><harmony default-y="36" font-size="10" font-weight="bold"><root><root-step>B</root-step><root-alter>-1</root-alter></root><kind halign="center" text="7">dominant</kind></harmony><note default-x="96"><pitch><step>B</step><alter>-1</alter><octave>4</octave></pitch><duration>4</duration><voice>1</voice><type>quarter</type><time-modification><actual-notes>3</actual-notes><normal-notes>2</normal-notes></time-modification><stem default-y="-52">down</stem><notations><tuplet bracket="yes" number="1" placement="above" type="start" /></notations><lyric default-y="-91" name="verse" number="1"><syllabic>begin</syllabic><text font-size="10.8">herr</text></lyric></note><harmony default-y="36" font-size="10" font-weight="bold"><root><root-step>A</root-step><root-alter>-1</root-alter></root><kind halign="center" text="2">major</kind><bass><bass-step>C</bass-step></bass><degree print-object="no"><degree-value>2</degree-value><degree-alter>0</degree-alter><degree-type>add</degree-type></degree></harmony><note default-x="176"><pitch><step>B</step><alter>-1</alter><octave>4</octave></pitch><duration>4</duration><voice>1</voice><type>quarter</type><time-modification><actual-notes>3</actual-notes><normal-notes>2</normal-notes></time-modification><stem default-y="-52">down</stem><lyric default-y="-91" name="verse" number="1"><syllabic>middle</syllabic><text font-size="10.8">li</text></lyric></note><harmony default-y="36" font-size="10" font-weight="bold"><root><root-step>B</root-step><root-alter>-1</root-alter></root><kind halign="center" text="7">dominant</kind><bass><bass-step>D</bass-step></bass></harmony><note default-x="255"><pitch><step>B</step><alter>-1</alter><octave>4</octave></pitch><duration>4</duration><voice>1</voice><type>quarter</type><time-modification><actual-notes>3</actual-notes><normal-notes>2</normal-notes></time-modification><stem default-y="-52">down</stem><notations><tuplet number="1" type="stop" /></notations><lyric default-y="-91" name="verse" number="1"><syllabic>end</syllabic><text font-size="10.8">che</text></lyric></note><backup><duration>24</duration></backup><note default-x="16"><pitch><step>D</step><octave>4</octave></pitch><duration>12</duration><voice>2</voice><type size="cue">half</type><stem default-y="-72.5">down</stem></note><forward><duration>12</duration><voice>2</voice></forward></measure><!--=======================================================--><measure number="3" width="327"><harmony default-y="36" font-size="10" font-weight="bold"><root><root-step>E</root-step><root-alter>-1</root-alter></root><kind halign="center" text="">major</kind></harmony><note default-x="15"><pitch><step>B</step><alter>-1</alter><octave>4</octave></pitch><duration>9</duration><voice>1</voice><type>quarter</type><dot /><stem default-y="-52">down</stem><lyric default-y="-91" name="verse" number="1"><syllabic>begin</syllabic><text font-size="10.8">Ma</text></lyric></note><note default-x="93"><pitch><step>G</step><octave>4</octave></pitch><duration>3</duration><voice>1</voice><type>eighth</type><stem default-y="2">up</stem><lyric default-y="-91" name="verse" number="1"><syllabic>middle</syllabic><text font-size="10.8">jes</text></lyric></note><note default-x="171"><pitch><step>G</step><octave>4</octave></pitch><duration>12</duration><tie type="start" /><voice>1</voice><type>half</type><stem default-y="2">up</stem><notations><tied orientation="over" type="start" /></notations><lyric default-y="-91" name="verse" number="1"><syllabic>end</syllabic><text font-size="10.8">tät,</text><extend type="start" /></lyric></note><backup><duration>24</duration></backup><forward><duration>12</duration><voice>2</voice></forward><note default-x="171"><pitch><step>E</step><alter>-1</alter><octave>4</octave></pitch><duration>6</duration><voice>2</voice><type size="cue">quarter</type><stem default-y="-67.5">down</stem></note><harmony default-y="36" font-size="10" font-weight="bold"><root><root-step>G</root-step></root><kind halign="center" text="m7">minor-seventh</kind><bass><bass-step>D</bass-step></bass></harmony><note default-x="248"><pitch><step>F</step><octave>4</octave></pitch><duration>6</duration><voice>2</voice><type size="cue">quarter</type><stem default-y="-63">down</stem></note></measure><!--=======================================================--><measure number="4" width="311"><print new-system="yes"><system-layout><system-distance>180</system-distance></system-layout></print><harmony default-y="36" font-size="10" font-weight="bold"><root><root-step>C</root-step></root><kind halign="center" text="m7">minor-seventh</kind></harmony><note default-x="99"><pitch><step>G</step><octave>4</octave></pitch><duration>12</duration><tie type="stop" /><voice>1</voice><type>half</type><stem default-y="2">up</stem><notations><tied type="stop" /></notations><lyric name="verse" number="1"><extend type="stop" /></lyric></note><harmony default-y="36" font-size="10" font-weight="bold"><root><root-step>E</root-step><root-alter>-1</root-alter></root><kind halign="center" text="">major</kind><bass><bass-step>F</bass-step></bass></harmony><note default-x="163"><pitch><step>B</step><alter>-1</alter><octave>4</octave></pitch><duration>6</duration><voice>1</voice><type>quarter</type><stem default-y="-52">down</stem><lyric default-y="-91" name="verse" number="1"><syllabic>single</syllabic><text font-size="10.8">dir</text></lyric></note><harmony default-y="36" font-size="10" font-weight="bold"><root><root-step>F</root-step></root><kind halign="center" text="7">dominant</kind></harmony><note default-x="243"><pitch><step>C</step><octave>5</octave></pitch><duration>6</duration><voice>1</voice><type>quarter</type><stem default-y="-46.5">down</stem><lyric default-y="-91" name="verse" number="1"><syllabic>single</syllabic><text font-size="10.8">sei</text></lyric></note><backup><duration>24</duration></backup><note default-x="99"><pitch><step>E</step><alter>-1</alter><octave>4</octave></pitch><duration>12</duration><voice>2</voice><type size="cue">half</type><stem default-y="-68">down</stem></note><forward><duration>12</duration><voice>2</voice></forward></measure><!--=======================================================--><measure number="5" width="218"><harmony default-y="36" font-size="10" font-weight="bold"><root><root-step>B</root-step><root-alter>-1</root-alter></root><kind halign="center" text="">major</kind></harmony><note default-x="15"><pitch><step>D</step><octave>5</octave></pitch><duration>6</duration><voice>1</voice><type>quarter</type><stem default-y="-42">down</stem><lyric default-y="-91" name="verse" number="1"><syllabic>begin</syllabic><text font-size="10.8">Eh</text></lyric></note><note default-x="83"><pitch><step>D</step><octave>5</octave></pitch><duration>12</duration><voice>1</voice><type>half</type><stem default-y="-42">down</stem><lyric default-y="-91" name="verse" number="1"><syllabic>end</syllabic><text font-size="10.8">re</text></lyric></note><note default-x="149"><pitch><step>F</step><octave>4</octave></pitch><duration>6</duration><voice>1</voice><type>quarter</type><stem default-y="-2.5">up</stem><lyric default-y="-91" name="verse" number="1"><syllabic>single</syllabic><text font-size="10.8">und</text></lyric></note></measure><!--=======================================================--><measure number="6" width="411"><harmony default-y="36" font-size="10" font-weight="bold"><root><root-step>G</root-step></root><kind halign="center" text="m">minor</kind></harmony><note default-x="22"><pitch><step>B</step><alter>-1</alter><octave>4</octave></pitch><duration>6</duration><voice>1</voice><type>quarter</type><stem default-y="-52">down</stem><lyric default-y="-91" name="verse" number="1"><syllabic>begin</syllabic><text font-size="10.8">Herr</text></lyric></note><harmony default-y="36" font-size="10" font-weight="bold"><root><root-step>G</root-step></root><kind halign="center" text="m">minor</kind><bass><bass-step>F</bass-step></bass></harmony><note default-x="100"><pitch><step>B</step><alter>-1</alter><octave>4</octave></pitch><duration>6</duration><voice>1</voice><type>quarter</type><stem default-y="-52">down</stem><lyric default-y="-91" name="verse" number="1"><syllabic>middle</syllabic><text font-size="10.8">lich</text></lyric></note><harmony default-y="36" font-size="10" font-weight="bold"><root><root-step>G</root-step></root><kind halign="center" text="m">minor</kind><bass><bass-step>E</bass-step></bass></harmony><note default-x="177"><pitch><step>B</step><alter>-1</alter><octave>4</octave></pitch><duration>4</duration><voice>1</voice><type>quarter</type><time-modification><actual-notes>3</actual-notes><normal-notes>2</normal-notes></time-modification><stem default-y="-52">down</stem><notations><tuplet bracket="yes" number="1" placement="above" type="start" /><slur number="1" placement="above" type="start" /></notations><lyric default-y="-91" name="verse" number="1"><syllabic>end</syllabic><text font-size="10.8">keit</text><extend type="start" /></lyric></note><note default-x="255"><pitch><step>G</step><octave>4</octave></pitch><duration>4</duration><voice>1</voice><type>quarter</type><time-modification><actual-notes>3</actual-notes><normal-notes>2</normal-notes></time-modification><stem default-y="2">up</stem><notations><slur number="1" type="stop" /></notations><lyric name="verse" number="1"><extend type="stop" /></lyric></note><note default-x="332"><pitch><step>B</step><alter>-1</alter><octave>4</octave></pitch><duration>4</duration><voice>1</voice><type>quarter</type><time-modification><actual-notes>3</actual-notes><normal-notes>2</normal-notes></time-modification><stem default-y="-52">down</stem><notations><tuplet number="1" type="stop" /></notations><lyric default-y="-91" name="verse" number="1"><syllabic>single</syllabic><text font-size="10.8">und</text></lyric></note></measure><!--=======================================================--><measure number="7" width="126"><harmony default-y="36" font-size="10" font-weight="bold"><root><root-step>F</root-step></root><kind halign="center" text="7sus">suspended-fourth</kind><degree print-object="no"><degree-value>7</degree-value><degree-alter>0</degree-alter><degree-type>add</degree-type></degree></harmony><note default-x="34"><pitch><step>C</step><octave>5</octave></pitch><duration>24</duration><tie type="start" /><voice>1</voice><type>whole</type><notations><tied type="start" /></notations><lyric default-y="-91" name="verse" number="1"><syllabic>single</syllabic><text font-size="10.8">Lob!</text><extend type="start" /></lyric></note></measure><!--=======================================================--><measure number="8" width="105"><harmony default-y="36" font-size="10" font-weight="bold"><root><root-step>F</root-step></root><kind halign="center" text="7">dominant</kind></harmony><note default-x="17"><pitch><step>C</step><octave>5</octave></pitch><duration>24</duration><tie type="stop" /><voice>1</voice><type>whole</type><notations><tied type="stop" /></notations><lyric name="verse" number="1"><extend type="stop" /></lyric></note></measure><!--=======================================================--><measure number="9" width="438"><print new-system="yes"><system-layout><system-distance>180</system-distance></system-layout></print><harmony default-y="36" font-size="10" font-weight="bold"><root><root-step>B</root-step><root-alter>-1</root-alter></root><kind halign="center" text="">major</kind></harmony><note default-x="87"><pitch><step>B</step><alter>-1</alter><octave>4</octave></pitch><duration>9</duration><voice>1</voice><type>quarter</type><dot /><stem default-y="-51.5">down</stem><lyric default-y="-91" name="verse" number="1"><syllabic>begin</syllabic><text font-size="10.8">Ma</text></lyric></note><note default-x="175"><pitch><step>F</step><octave>4</octave></pitch><duration>3</duration><voice>1</voice><type>eighth</type><stem default-y="-3">up</stem><lyric default-y="-91" name="verse" number="1"><syllabic>middle</syllabic><text font-size="10.8">jes</text></lyric></note><note default-x="262"><pitch><step>F</step><octave>4</octave></pitch><duration>12</duration><tie type="start" /><voice>1</voice><type>half</type><stem default-y="-3">up</stem><notations><tied orientation="over" type="start" /></notations><lyric default-y="-91" name="verse" number="1"><syllabic>end</syllabic><text font-size="10.8">tät,</text><extend type="start" /></lyric></note><backup><duration>24</duration></backup><forward><duration>12</duration><voice>2</voice></forward><note default-x="262"><pitch><step>D</step><octave>4</octave></pitch><duration>6</duration><voice>2</voice><type size="cue">quarter</type><stem default-y="-73">down</stem></note><harmony default-y="36" font-size="10" font-weight="bold"><root><root-step>E</root-step><root-alter>-1</root-alter></root><kind halign="center" text="2">major</kind><bass><bass-step>B</bass-step><bass-alter>-1</bass-alter></bass><degree print-object="no"><degree-value>2</degree-value><degree-alter>0</degree-alter><degree-type>add</degree-type></degree></harmony><note default-x="350"><pitch><step>E</step><alter>-1</alter><octave>4</octave></pitch><duration>6</duration><voice>2</voice><type size="cue">quarter</type><stem default-y="-67">down</stem></note></measure><!--=======================================================--><measure number="10" width="371"><harmony default-y="36" font-size="10" font-weight="bold"><root><root-step>B</root-step><root-alter>-1</root-alter></root><kind halign="center" text="">major</kind></harmony><note default-x="16"><pitch><step>F</step><octave>4</octave></pitch><duration>12</duration><tie type="stop" /><voice>1</voice><type>half</type><stem default-y="-3">up</stem><notations><tied type="stop" /></notations><lyric name="verse" number="1"><extend type="stop" /></lyric></note><harmony default-y="36" font-size="10" font-weight="bold"><root><root-step>B</root-step><root-alter>-1</root-alter></root><kind halign="center" text="7">dominant</kind></harmony><note default-x="104"><pitch><step>B</step><alter>-1</alter><octave>4</octave></pitch><duration>4</duration><voice>1</voice><type>quarter</type><time-modification><actual-notes>3</actual-notes><normal-notes>2</normal-notes></time-modification><stem default-y="-51.5">down</stem><notations><tuplet bracket="yes" number="1" placement="above" type="start" /></notations><lyric default-y="-91" name="verse" number="1"><syllabic>begin</syllabic><text font-size="10.8">herr</text></lyric></note><harmony default-y="36" font-size="10" font-weight="bold"><root><root-step>A</root-step><root-alter>-1</root-alter></root><kind halign="center" text="2">major</kind><bass><bass-step>C</bass-step></bass><degree print-object="no"><degree-value>2</degree-value><degree-alter>0</degree-alter><degree-type>add</degree-type></degree></harmony><note default-x="192"><pitch><step>B</step><alter>-1</alter><octave>4</octave></pitch><duration>4</duration><voice>1</voice><type>quarter</type><time-modification><actual-notes>3</actual-notes><normal-notes>2</normal-notes></time-modification><stem default-y="-51.5">down</stem><lyric default-y="-91" name="verse" number="1"><syllabic>middle</syllabic><text font-size="10.8">li</text></lyric></note><harmony default-y="36" font-size="10" font-weight="bold"><root><root-step>B</root-step><root-alter>-1</root-alter></root><kind halign="center" text="7">dominant</kind><bass><bass-step>D</bass-step></bass></harmony><note default-x="281"><pitch><step>B</step><alter>-1</alter><octave>4</octave></pitch><duration>4</duration><voice>1</voice><type>quarter</type><time-modification><actual-notes>3</actual-notes><normal-notes>2</normal-notes></time-modification><stem default-y="-51.5">down</stem><notations><tuplet number="1" type="stop" /></notations><lyric default-y="-91" name="verse" number="1"><syllabic>end</syllabic><text font-size="10.8">che</text></lyric></note><backup><duration>24</duration></backup><note default-x="16"><pitch><step>D</step><octave>4</octave></pitch><duration>12</duration><voice>2</voice><type size="cue">half</type><stem default-y="-73">down</stem></note><forward><duration>12</duration><voice>2</voice></forward></measure><!--=======================================================--><measure number="11" width="362"><harmony default-y="36" font-size="10" font-weight="bold"><root><root-step>E</root-step><root-alter>-1</root-alter></root><kind halign="center" text="">major</kind></harmony><note default-x="15"><pitch><step>B</step><alter>-1</alter><octave>4</octave></pitch><duration>9</duration><voice>1</voice><type>quarter</type><dot /><stem default-y="-51.5">down</stem><lyric default-y="-91" name="verse" number="1"><syllabic>begin</syllabic><text font-size="10.8">Ma</text></lyric></note><note default-x="102"><pitch><step>G</step><octave>4</octave></pitch><duration>3</duration><voice>1</voice><type>eighth</type><stem default-y="2">up</stem><lyric default-y="-91" name="verse" number="1"><syllabic>middle</syllabic><text font-size="10.8">jes</text></lyric></note><note default-x="188"><pitch><step>G</step><octave>4</octave></pitch><duration>12</duration><tie type="start" /><voice>1</voice><type>half</type><stem default-y="2">up</stem><notations><tied orientation="over" type="start" /></notations><lyric default-y="-91" name="verse" number="1"><syllabic>end</syllabic><text font-size="10.8">tät,</text><extend type="start" /></lyric></note><backup><duration>24</duration></backup><forward><duration>12</duration><voice>2</voice></forward><note default-x="188"><pitch><step>E</step><alter>-1</alter><octave>4</octave></pitch><duration>6</duration><voice>2</voice><type size="cue">quarter</type><stem default-y="-67">down</stem></note><harmony default-y="36" font-size="10" font-weight="bold"><root><root-step>G</root-step></root><kind halign="center" text="m7">minor-seventh</kind><bass><bass-step>D</bass-step></bass></harmony><note default-x="274"><pitch><step>F</step><octave>4</octave></pitch><duration>6</duration><voice>2</voice><type size="cue">quarter</type><stem default-y="-62.5">down</stem></note></measure><!--=======================================================--><measure number="12" width="745"><print new-system="yes"><system-layout><system-distance>180</system-distance></system-layout></print><harmony default-y="36" font-size="10" font-weight="bold"><root><root-step>C</root-step></root><kind halign="center" text="m7">minor-seventh</kind></harmony><note default-x="99"><pitch><step>G</step><octave>4</octave></pitch><duration>12</duration><tie type="stop" /><voice>1</voice><type>half</type><stem default-y="2">up</stem><notations><tied type="stop" /></notations><lyric name="verse" number="1"><extend type="stop" /></lyric></note><harmony default-y="36" font-size="10" font-weight="bold"><root><root-step>C</root-step></root><kind halign="center" parentheses-degrees="yes" text="m7">minor-seventh</kind><degree><degree-value>5</degree-value><degree-alter>-1</degree-alter><degree-type>alter</degree-type></degree></harmony><note default-x="260"><pitch><step>E</step><alter>-1</alter><octave>5</octave></pitch><duration>4</duration><voice>1</voice><type>quarter</type><time-modification><actual-notes>3</actual-notes><normal-notes>2</normal-notes></time-modification><stem default-y="-37">down</stem><notations><tuplet bracket="yes" number="1" placement="above" type="start" /></notations><lyric default-y="-91" name="verse" number="1"><syllabic>single</syllabic><text font-size="10.8">von</text></lyric></note><harmony default-y="36" font-size="10" font-weight="bold"><root><root-step>B</root-step><root-alter>-1</root-alter></root><kind halign="center" use-symbols="yes">augmented</kind><bass><bass-step>D</bass-step></bass></harmony><note default-x="421"><pitch><step>D</step><octave>5</octave></pitch><duration>4</duration><voice>1</voice><type>quarter</type><time-modification><actual-notes>3</actual-notes><normal-notes>2</normal-notes></time-modification><stem default-y="-42">down</stem><lyric default-y="-91" name="verse" number="1"><syllabic>single</syllabic><text font-size="10.8">dir</text></lyric></note><harmony default-y="36" font-size="10" font-weight="bold"><root><root-step>C</root-step></root><kind halign="center" parentheses-degrees="yes" text="m7">minor-seventh</kind><bass><bass-step>E</bass-step><bass-alter>-1</bass-alter></bass><degree><degree-value>5</degree-value><degree-alter>-1</degree-alter><degree-type>alter</degree-type></degree></harmony><note default-x="582"><pitch><step>C</step><octave>5</octave></pitch><duration>4</duration><voice>1</voice><type>quarter</type><time-modification><actual-notes>3</actual-notes><normal-notes>2</normal-notes></time-modification><stem default-y="-47">down</stem><notations><tuplet number="1" type="stop" /></notations><lyric default-y="-91" name="verse" number="1"><syllabic>single</syllabic><text font-size="10.8">fließt</text></lyric></note><backup><duration>24</duration></backup><note default-x="99"><pitch><step>E</step><alter>-1</alter><octave>4</octave></pitch><duration>12</duration><voice>2</voice><type size="cue">half</type><stem default-y="-67">down</stem></note><forward><duration>12</duration><voice>2</voice></forward></measure><!--=======================================================--><measure number="13" width="426"><harmony default-y="36" font-size="10" font-weight="bold"><root><root-step>B</root-step><root-alter>-1</root-alter></root><kind halign="center" text="">major</kind><bass><bass-step>F</bass-step></bass></harmony><note default-x="19"><pitch><step>D</step><octave>5</octave></pitch><duration>12</duration><voice>1</voice><type>half</type><stem default-y="-42">down</stem><lyric default-y="-91" name="verse" number="1"><syllabic>single</syllabic><text font-size="10.8">Kraft</text></lyric></note><harmony default-y="36" font-size="10" font-weight="bold"><root><root-step>B</root-step><root-alter>-1</root-alter></root><kind halign="center" text="">major</kind></harmony><note default-x="120"><pitch><step>D</step><octave>5</octave></pitch><duration>4</duration><voice>1</voice><type>quarter</type><time-modification><actual-notes>3</actual-notes><normal-notes>2</normal-notes></time-modification><stem default-y="-42">down</stem><notations><tuplet bracket="yes" number="1" placement="above" type="start" /></notations><lyric default-y="-91" name="verse" number="1"><syllabic>single</syllabic><text font-size="10.8">in</text></lyric></note><harmony default-y="36" font-size="10" font-weight="bold"><root><root-step>F</root-step></root><kind halign="center" text="">major</kind><bass><bass-step>C</bass-step></bass></harmony><note default-x="222"><pitch><step>C</step><octave>5</octave></pitch><duration>4</duration><voice>1</voice><type>quarter</type><time-modification><actual-notes>3</actual-notes><normal-notes>2</normal-notes></time-modification><stem default-y="-47">down</stem><lyric default-y="-91" name="verse" number="1"><syllabic>begin</syllabic><text font-size="10.8">gro</text></lyric></note><harmony default-y="36" font-size="10" font-weight="bold"><root><root-step>B</root-step><root-alter>-1</root-alter></root><kind halign="center" text="">major</kind><bass><bass-step>D</bass-step></bass></harmony><note default-x="323"><pitch><step>B</step><alter>-1</alter><octave>4</octave></pitch><duration>4</duration><voice>1</voice><type>quarter</type><time-modification><actual-notes>3</actual-notes><normal-notes>2</normal-notes></time-modification><stem default-y="-51.5">down</stem><notations><tuplet number="1" type="stop" /></notations><lyric default-y="-91" name="verse" number="1"><syllabic>end</syllabic><text font-size="10.8">ßer</text></lyric></note></measure><!--=======================================================--><measure number="14" width="522"><print new-system="yes"><system-layout><system-distance>180</system-distance></system-layout></print><harmony default-y="36" font-size="10" font-weight="bold"><root><root-step>C</root-step></root><kind halign="center" text="m7">minor-seventh</kind></harmony><note default-x="99"><pitch><step>C</step><octave>5</octave></pitch><duration>12</duration><voice>1</voice><type>half</type><stem default-y="-47">down</stem><lyric default-y="-91" name="verse" number="1"><syllabic>single</syllabic><text font-size="10.8">Macht</text></lyric></note><harmony default-y="36" font-size="10" font-weight="bold"><root><root-step>F</root-step></root><kind halign="center" text="7">dominant</kind></harmony><note default-x="204"><pitch><step>C</step><octave>5</octave></pitch><duration>4</duration><voice>1</voice><type>quarter</type><time-modification><actual-notes>3</actual-notes><normal-notes>2</normal-notes></time-modification><stem default-y="-47">down</stem><notations><tuplet bracket="yes" number="1" placement="above" type="start" /></notations><lyric default-y="-91" name="verse" number="1"><syllabic>single</syllabic><text font-size="10.8">zu</text></lyric></note><harmony default-y="36" font-size="10" font-weight="bold"><root><root-step>E</root-step><root-alter>-1</root-alter></root><kind halign="center" text="">major</kind><bass><bass-step>F</bass-step></bass></harmony><note default-x="310"><pitch><step>B</step><alter>-1</alter><octave>4</octave></pitch><duration>4</duration><voice>1</voice><type>quarter</type><time-modification><actual-notes>3</actual-notes><normal-notes>2</normal-notes></time-modification><stem default-y="-52">down</stem><lyric default-y="-91" name="verse" number="1"><syllabic>begin</syllabic><text font-size="10.8">dei</text></lyric></note><harmony default-y="36" font-size="10" font-weight="bold"><root><root-step>F</root-step></root><kind halign="center" text="7">dominant</kind></harmony><note default-x="415"><pitch><step>A</step><octave>4</octave></pitch><duration>4</duration><voice>1</voice><type>quarter</type><time-modification><actual-notes>3</actual-notes><normal-notes>2</normal-notes></time-modification><stem default-y="7">up</stem><notations><tuplet number="1" type="stop" /></notations><lyric default-y="-91" name="verse" number="1"><syllabic>end</syllabic><text font-size="10.8">nem</text></lyric></note></measure><!--=======================================================--><measure number="15" width="216"><harmony default-y="36" font-size="10" font-weight="bold"><root><root-step>B</root-step><root-alter>-1</root-alter></root><kind halign="center" text="">major</kind></harmony><note default-x="19"><pitch><step>B</step><alter>-1</alter><octave>4</octave></pitch><duration>24</duration><tie type="start" /><voice>1</voice><type>whole</type><notations><tied orientation="over" type="start" /></notations><lyric default-y="-91" name="verse" number="1"><syllabic>single</syllabic><text font-size="10.8">Volk.</text><extend type="start" /></lyric></note><backup><duration>24</duration></backup><note default-x="19"><pitch><step>D</step><octave>4</octave></pitch><duration>12</duration><voice>2</voice><type size="cue">half</type><stem default-y="-72">down</stem></note><harmony default-y="36" font-size="10" font-weight="bold"><root><root-step>E</root-step><root-alter>-1</root-alter></root><kind halign="center" text="">major</kind><bass><bass-step>B</bass-step><bass-alter>-1</bass-alter></bass></harmony><note default-x="117"><pitch><step>E</step><alter>-1</alter><octave>4</octave></pitch><duration>12</duration><voice>2</voice><type size="cue">half</type><stem default-y="-67.5">down</stem></note></measure><!--=======================================================--><measure number="16" width="433"><harmony default-y="36" font-size="10" font-weight="bold"><root><root-step>B</root-step><root-alter>-1</root-alter></root><kind halign="center" text="">major</kind></harmony><note default-x="15"><pitch><step>B</step><alter>-1</alter><octave>4</octave></pitch><duration>12</duration><tie type="stop" /><voice>1</voice><type>half</type><stem default-y="12">up</stem><notations><tied type="stop" /></notations><lyric name="verse" number="1"><extend type="stop" /></lyric></note><harmony default-y="36" font-size="10" font-weight="bold"><root><root-step>B</root-step><root-alter>-1</root-alter></root><kind halign="center" text="maj7">major-seventh</kind><bass><bass-step>D</bass-step></bass></harmony><note default-x="153"><pitch><step>A</step><octave>4</octave></pitch><duration>6</duration><voice>1</voice><type>quarter</type><stem default-y="7">up</stem><lyric default-y="-91" name="verse" number="1"><syllabic>single</syllabic><text font-size="10.8">Hebt</text></lyric></note><harmony default-y="36" font-size="10" font-weight="bold"><root><root-step>B</root-step><root-alter>-1</root-alter></root><kind halign="center" use-symbols="yes">diminished-seventh</kind><bass><bass-step>D</bass-step><bass-alter>-1</bass-alter></bass></harmony><note default-x="289"><pitch><step>B</step><alter>-1</alter><octave>4</octave></pitch><duration>6</duration><voice>1</voice><type>quarter</type><stem default-y="-52">down</stem><lyric default-y="-91" name="verse" number="1"><syllabic>single</syllabic><text font-size="10.8">ihn</text></lyric></note><backup><duration>24</duration></backup><note default-x="15"><pitch><step>D</step><octave>4</octave></pitch><duration>12</duration><voice>2</voice><type size="cue">half</type><stem default-y="-72">down</stem></note><forward><duration>12</duration><voice>2</voice></forward><barline location="right"><bar-style>light-light</bar-style></barline></measure><!--=======================================================--><measure number="17" width="439"><print new-system="yes"><system-layout><system-distance>180</system-distance></system-layout></print><harmony default-y="36" font-size="10" font-weight="bold"><root><root-step>C</root-step></root><kind halign="center" text="m7">minor-seventh</kind></harmony><note default-x="99"><pitch><step>C</step><octave>5</octave></pitch><duration>12</duration><voice>1</voice><type>half</type><stem default-y="-47">down</stem><lyric default-y="-91" name="verse" number="1"><syllabic>single</syllabic><text font-size="10.8">hoch,</text></lyric></note><note default-x="184"><pitch><step>E</step><alter>-1</alter><octave>4</octave></pitch><duration>4</duration><voice>1</voice><type>quarter</type><time-modification><actual-notes>3</actual-notes><normal-notes>2</normal-notes></time-modification><stem default-y="-8">up</stem><notations><tuplet bracket="yes" number="1" placement="above" type="start" /><slur number="1" placement="below" type="start" /></notations><lyric default-y="-91" name="verse" number="1"><syllabic>single</syllabic><text font-size="10.8">hebt</text><extend type="start" /></lyric></note><note default-x="268"><pitch><step>G</step><octave>4</octave></pitch><duration>4</duration><voice>1</voice><type>quarter</type><time-modification><actual-notes>3</actual-notes><normal-notes>2</normal-notes></time-modification><stem default-y="2">up</stem><notations><slur number="1" type="stop" /></notations><lyric name="verse" number="1"><extend type="stop" /></lyric></note><note default-x="353"><pitch><step>B</step><alter>-1</alter><octave>4</octave></pitch><duration>4</duration><voice>1</voice><type>quarter</type><time-modification><actual-notes>3</actual-notes><normal-notes>2</normal-notes></time-modification><stem default-y="-52">down</stem><notations><tuplet number="1" type="stop" /></notations><lyric default-y="-91" name="verse" number="1"><syllabic>single</syllabic><text font-size="10.8">ihn</text></lyric></note></measure><!--=======================================================--><measure number="18" width="404"><harmony default-y="36" font-size="10" font-weight="bold"><root><root-step>F</root-step></root><kind halign="center" text="7">dominant</kind></harmony><note default-x="21"><pitch><step>C</step><octave>5</octave></pitch><duration>9</duration><voice>1</voice><type>quarter</type><dot /><stem default-y="-47">down</stem><lyric default-y="-91" name="verse" number="1"><syllabic>single</syllabic><text font-size="10.8">hoch,</text></lyric></note><note default-x="116"><pitch><step>C</step><octave>5</octave></pitch><duration>3</duration><voice>1</voice><type>eighth</type><stem default-y="-47">down</stem><lyric default-y="-91" name="verse" number="1"><syllabic>single</syllabic><text font-size="10.8">den</text></lyric></note><harmony default-y="36" font-size="10" font-weight="bold"><root><root-step>E</root-step><root-alter>-1</root-alter></root><kind halign="center" text="">major</kind><bass><bass-step>F</bass-step></bass></harmony><note default-x="212"><pitch><step>B</step><alter>-1</alter><octave>4</octave></pitch><duration>6</duration><voice>1</voice><type>quarter</type><stem default-y="-52">down</stem><lyric default-y="-91" name="verse" number="1"><syllabic>begin</syllabic><text font-size="10.8">Na</text></lyric></note><harmony default-y="36" font-size="10" font-weight="bold"><root><root-step>F</root-step></root><kind halign="center" text="7">dominant</kind></harmony><note default-x="307"><pitch><step>C</step><octave>5</octave></pitch><duration>6</duration><voice>1</voice><type>quarter</type><stem default-y="-47">down</stem><lyric default-y="-91" name="verse" number="1"><syllabic>end</syllabic><text font-size="10.8">men</text></lyric></note></measure><!--=======================================================--><measure number="19" width="328"><harmony default-y="36" font-size="10" font-weight="bold"><root><root-step>B</root-step><root-alter>-1</root-alter></root><kind halign="center" text="">major</kind></harmony><note default-x="15"><pitch><step>D</step><octave>5</octave></pitch><duration>9</duration><voice>1</voice><type>quarter</type><dot /><stem default-y="-42">down</stem><notations><slur number="1" placement="above" type="start" /></notations><lyric default-y="-91" name="verse" number="1"><syllabic>begin</syllabic><text font-size="10.8">Je</text></lyric></note><note default-x="75"><pitch><step>C</step><octave>5</octave></pitch><duration>3</duration><voice>1</voice><type>eighth</type><stem default-y="-47">down</stem><notations><slur number="1" type="stop" /></notations></note><note default-x="171"><pitch><step>B</step><alter>-1</alter><octave>4</octave></pitch><duration>12</duration><tie type="start" /><voice>1</voice><type>half</type><stem default-y="12">up</stem><notations><tied orientation="over" type="start" /></notations><lyric default-y="-91" name="verse" number="1"><syllabic>end</syllabic><text font-size="10.8">sus.</text><extend type="start" /></lyric></note><backup><duration>24</duration></backup><forward><duration>12</duration><voice>2</voice></forward><note default-x="171"><pitch><step>D</step><octave>4</octave></pitch><duration>6</duration><voice>2</voice><type size="cue">quarter</type><stem default-y="-72">down</stem></note><harmony default-y="36" font-size="10" font-weight="bold"><root><root-step>E</root-step><root-alter>-1</root-alter></root><kind halign="center" text="">major</kind><bass><bass-step>B</bass-step><bass-alter>-1</bass-alter></bass></harmony><note default-x="248"><pitch><step>E</step><alter>-1</alter><octave>4</octave></pitch><duration>6</duration><voice>2</voice><type size="cue">quarter</type><stem default-y="-67.5">down</stem></note></measure><!--=======================================================--><measure number="20" width="568"><print new-page="yes" page-number="2" /><harmony default-y="36" font-size="10" font-weight="bold"><root><root-step>B</root-step><root-alter>-1</root-alter></root><kind halign="center" text="">major</kind></harmony><note default-x="87"><pitch><step>B</step><alter>-1</alter><octave>4</octave></pitch><duration>12</duration><tie type="stop" /><voice>1</voice><type>half</type><stem default-y="12">up</stem><notations><tied type="stop" /></notations><lyric name="verse" number="1"><extend type="stop" /></lyric></note><harmony default-y="36" font-size="10" font-weight="bold"><root><root-step>B</root-step><root-alter>-1</root-alter></root><kind halign="center" text="maj7">major-seventh</kind><bass><bass-step>D</bass-step></bass></harmony><note default-x="247"><pitch><step>A</step><octave>4</octave></pitch><duration>6</duration><voice>1</voice><type>quarter</type><stem default-y="7">up</stem><lyric default-y="-91" name="verse" number="1"><syllabic>single</syllabic><text font-size="10.8">Macht</text></lyric></note><harmony default-y="36" font-size="10" font-weight="bold"><root><root-step>B</root-step><root-alter>-1</root-alter></root><kind halign="center" use-symbols="yes">diminished-seventh</kind><bass><bass-step>D</bass-step><bass-alter>-1</bass-alter></bass></harmony><note default-x="406"><pitch><step>B</step><alter>-1</alter><octave>4</octave></pitch><duration>6</duration><voice>1</voice><type>quarter</type><stem default-y="-51.5">down</stem><lyric default-y="-91" name="verse" number="1"><syllabic>single</syllabic><text font-size="10.8">ihn</text></lyric></note><backup><duration>24</duration></backup><note default-x="87"><pitch><step>D</step><octave>4</octave></pitch><duration>12</duration><voice>2</voice><type size="cue">half</type><stem default-y="-72.5">down</stem></note><forward><duration>12</duration><voice>2</voice></forward></measure><!--=======================================================--><measure number="21" width="603"><harmony default-y="36" font-size="10" font-weight="bold"><root><root-step>C</root-step></root><kind halign="center" text="m7">minor-seventh</kind></harmony><note default-x="27"><pitch><step>C</step><octave>5</octave></pitch><duration>12</duration><voice>1</voice><type>half</type><stem default-y="-46.5">down</stem><lyric default-y="-91" name="verse" number="1"><syllabic>single</syllabic><text font-size="10.8">groß,</text></lyric></note><note default-x="171"><pitch><step>E</step><alter>-1</alter><octave>4</octave></pitch><duration>4</duration><voice>1</voice><type>quarter</type><time-modification><actual-notes>3</actual-notes><normal-notes>2</normal-notes></time-modification><stem default-y="-8">up</stem><notations><tuplet bracket="yes" number="1" placement="above" type="start" /></notations><lyric default-y="-91" name="verse" number="1"><syllabic>single</syllabic><text font-size="10.8">kommt</text></lyric></note><note default-x="314"><pitch><step>G</step><octave>4</octave></pitch><duration>4</duration><voice>1</voice><type>quarter</type><time-modification><actual-notes>3</actual-notes><normal-notes>2</normal-notes></time-modification><stem default-y="2">up</stem><lyric default-y="-91" name="verse" number="1"><syllabic>single</syllabic><text font-size="10.8">und</text></lyric></note><note default-x="458"><pitch><step>B</step><alter>-1</alter><octave>4</octave></pitch><duration>4</duration><voice>1</voice><type>quarter</type><time-modification><actual-notes>3</actual-notes><normal-notes>2</normal-notes></time-modification><stem default-y="-51.5">down</stem><notations><tuplet number="1" type="stop" /></notations><lyric default-y="-91" name="verse" number="1"><syllabic>begin</syllabic><text font-size="10.8">ver</text></lyric></note></measure><!--=======================================================--><measure number="22" width="490"><print new-system="yes"><system-layout><system-distance>180</system-distance></system-layout></print><harmony default-y="36" font-size="10" font-weight="bold"><root><root-step>F</root-step></root><kind halign="center" text="7">dominant</kind></harmony><note default-x="88"><pitch><step>C</step><octave>5</octave></pitch><duration>12</duration><voice>1</voice><type>half</type><stem default-y="-46.5">down</stem><lyric default-y="-91" name="verse" number="1"><syllabic>end</syllabic><text font-size="10.8">ehrt</text></lyric></note><note default-x="188"><pitch><step>C</step><octave>5</octave></pitch><duration>4</duration><voice>1</voice><type>quarter</type><time-modification><actual-notes>3</actual-notes><normal-notes>2</normal-notes></time-modification><stem default-y="-46.5">down</stem><notations><tuplet bracket="yes" number="1" placement="above" type="start" /></notations><lyric default-y="-91" name="verse" number="1"><syllabic>begin</syllabic><text font-size="10.8">Chris</text></lyric></note><harmony default-y="36" font-size="10" font-weight="bold"><root><root-step>E</root-step><root-alter>-1</root-alter></root><kind halign="center" text="">major</kind><bass><bass-step>F</bass-step></bass></harmony><note default-x="288"><pitch><step>B</step><alter>-1</alter><octave>4</octave></pitch><duration>4</duration><voice>1</voice><type>quarter</type><time-modification><actual-notes>3</actual-notes><normal-notes>2</normal-notes></time-modification><stem default-y="-51.5">down</stem><lyric default-y="-91" name="verse" number="1"><syllabic>end</syllabic><text font-size="10.8">tus</text></lyric></note><harmony default-y="36" font-size="10" font-weight="bold"><root><root-step>F</root-step></root><kind halign="center" text="7">dominant</kind></harmony><note default-x="388"><pitch><step>C</step><octave>5</octave></pitch><duration>4</duration><voice>1</voice><type>quarter</type><time-modification><actual-notes>3</actual-notes><normal-notes>2</normal-notes></time-modification><stem default-y="-46.5">down</stem><notations><tuplet number="1" type="stop" /></notations><lyric default-y="-91" name="verse" number="1"><syllabic>single</syllabic><text font-size="10.8">den</text></lyric></note></measure><!--=======================================================--><measure number="23" width="140"><harmony default-y="36" font-size="10" font-weight="bold"><root><root-step>D</root-step></root><kind halign="center" text="">major</kind></harmony><note default-x="24"><pitch><step>D</step><octave>5</octave></pitch><duration>24</duration><voice>1</voice><type>whole</type><lyric default-y="-91" name="verse" number="1"><syllabic>single</syllabic><text font-size="10.8">Herrn.</text></lyric></note></measure><!--=======================================================--><measure number="24" width="541"><harmony default-y="36" font-size="10" font-weight="bold"><root><root-step>C</root-step></root><kind halign="center" text="m7">minor-seventh</kind></harmony><note default-x="27"><pitch><step>E</step><alter>-1</alter><octave>4</octave></pitch><duration>4</duration><voice>1</voice><type size="cue">quarter</type><time-modification><actual-notes>3</actual-notes><normal-notes>2</normal-notes></time-modification><stem default-y="-8">up</stem><notations><tuplet bracket="yes" number="1" placement="above" type="start" /></notations></note><harmony default-y="36" font-size="10" font-weight="bold"><root><root-step>F</root-step></root><kind halign="center" text="7">dominant</kind><bass><bass-step>C</bass-step></bass></harmony><note default-x="113"><pitch><step>F</step><octave>4</octave></pitch><duration>4</duration><voice>1</voice><type size="cue">quarter</type><time-modification><actual-notes>3</actual-notes><normal-notes>2</normal-notes></time-modification><stem default-y="-3">up</stem></note><harmony default-y="36" font-size="10" font-weight="bold"><root><root-step>C</root-step></root><kind halign="center" text="m7">minor-seventh</kind></harmony><note default-x="198"><pitch><step>G</step><octave>4</octave></pitch><duration>4</duration><voice>1</voice><type size="cue">quarter</type><time-modification><actual-notes>3</actual-notes><normal-notes>2</normal-notes></time-modification><stem default-y="2">up</stem><notations><tuplet number="1" type="stop" /></notations></note><harmony default-y="36" font-size="10" font-weight="bold"><root><root-step>F</root-step></root><kind halign="center" text="7">dominant</kind></harmony><note default-x="283"><pitch><step>A</step><octave>4</octave></pitch><duration>4</duration><voice>1</voice><type size="cue">quarter</type><time-modification><actual-notes>3</actual-notes><normal-notes>2</normal-notes></time-modification><stem default-y="7">up</stem><notations><tuplet bracket="yes" number="1" placement="above" type="start" /></notations></note><harmony default-y="36" font-size="10" font-weight="bold"><root><root-step>E</root-step><root-alter>-1</root-alter></root><kind halign="center" text="">major</kind><bass><bass-step>F</bass-step></bass></harmony><note default-x="368"><pitch><step>B</step><alter>-1</alter><octave>4</octave></pitch><duration>4</duration><voice>1</voice><type size="cue">quarter</type><time-modification><actual-notes>3</actual-notes><normal-notes>2</normal-notes></time-modification><stem default-y="-51.5">down</stem></note><harmony default-y="36" font-size="10" font-weight="bold"><root><root-step>F</root-step></root><kind halign="center" text="7">dominant</kind></harmony><note default-x="454"><pitch><step>C</step><octave>5</octave></pitch><duration>4</duration><voice>1</voice><type size="cue">quarter</type><time-modification><actual-notes>3</actual-notes><normal-notes>2</normal-notes></time-modification><stem default-y="-46.5">down</stem><notations><tuplet number="1" type="stop" /></notations></note></measure><!--=======================================================--><measure number="25" width="438"><print new-system="yes"><system-layout><system-distance>180</system-distance></system-layout></print><harmony default-y="36" font-size="10" font-weight="bold"><root><root-step>B</root-step><root-alter>-1</root-alter></root><kind halign="center" text="">major</kind></harmony><note default-x="87"><pitch><step>B</step><alter>-1</alter><octave>4</octave></pitch><duration>9</duration><voice>1</voice><type>quarter</type><dot /><stem default-y="-52">down</stem><lyric default-y="-91" name="verse" number="1"><syllabic>begin</syllabic><text font-size="10.8">Ma</text></lyric></note><note default-x="175"><pitch><step>F</step><octave>4</octave></pitch><duration>3</duration><voice>1</voice><type>eighth</type><stem default-y="-3">up</stem><lyric default-y="-91" name="verse" number="1"><syllabic>middle</syllabic><text font-size="10.8">jes</text></lyric></note><note default-x="262"><pitch><step>F</step><octave>4</octave></pitch><duration>12</duration><tie type="start" /><voice>1</voice><type>half</type><stem default-y="-3">up</stem><notations><tied orientation="over" type="start" /></notations><lyric default-y="-91" name="verse" number="1"><syllabic>end</syllabic><text font-size="10.8">tät,</text><extend type="start" /></lyric></note><backup><duration>24</duration></backup><forward><duration>12</duration><voice>2</voice></forward><note default-x="262"><pitch><step>D</step><octave>4</octave></pitch><duration>6</duration><voice>2</voice><type size="cue">quarter</type><stem default-y="-72">down</stem></note><harmony default-y="36" font-size="10" font-weight="bold"><root><root-step>E</root-step><root-alter>-1</root-alter></root><kind halign="center" text="2">major</kind><bass><bass-step>B</bass-step><bass-alter>-1</bass-alter></bass><degree print-object="no"><degree-value>2</degree-value><degree-alter>0</degree-alter><degree-type>add</degree-type></degree></harmony><note default-x="350"><pitch><step>E</step><alter>-1</alter><octave>4</octave></pitch><duration>6</duration><voice>2</voice><type size="cue">quarter</type><stem default-y="-67">down</stem></note></measure><!--=======================================================--><measure number="26" width="371"><harmony default-y="36" font-size="10" font-weight="bold"><root><root-step>B</root-step><root-alter>-1</root-alter></root><kind halign="center" text="">major</kind></harmony><note default-x="16"><pitch><step>F</step><octave>4</octave></pitch><duration>12</duration><tie type="stop" /><voice>1</voice><type>half</type><stem default-y="-3">up</stem><notations><tied type="stop" /></notations><lyric name="verse" number="1"><extend type="stop" /></lyric></note><harmony default-y="36" font-size="10" font-weight="bold"><root><root-step>B</root-step><root-alter>-1</root-alter></root><kind halign="center" text="7">dominant</kind></harmony><note default-x="104"><pitch><step>B</step><alter>-1</alter><octave>4</octave></pitch><duration>4</duration><voice>1</voice><type>quarter</type><time-modification><actual-notes>3</actual-notes><normal-notes>2</normal-notes></time-modification><stem default-y="-52">down</stem><notations><tuplet bracket="yes" number="1" placement="above" type="start" /></notations><lyric default-y="-91" name="verse" number="1"><syllabic>begin</syllabic><text font-size="10.8">herr</text></lyric></note><harmony default-y="36" font-size="10" font-weight="bold"><root><root-step>A</root-step><root-alter>-1</root-alter></root><kind halign="center" text="2">major</kind><bass><bass-step>C</bass-step></bass><degree print-object="no"><degree-value>2</degree-value><degree-alter>0</degree-alter><degree-type>add</degree-type></degree></harmony><note default-x="192"><pitch><step>B</step><alter>-1</alter><octave>4</octave></pitch><duration>4</duration><voice>1</voice><type>quarter</type><time-modification><actual-notes>3</actual-notes><normal-notes>2</normal-notes></time-modification><stem default-y="-52">down</stem><lyric default-y="-91" name="verse" number="1"><syllabic>middle</syllabic><text font-size="10.8">li</text></lyric></note><harmony default-y="36" font-size="10" font-weight="bold"><root><root-step>B</root-step><root-alter>-1</root-alter></root><kind halign="center" text="7">dominant</kind><bass><bass-step>D</bass-step></bass></harmony><note default-x="281"><pitch><step>B</step><alter>-1</alter><octave>4</octave></pitch><duration>4</duration><voice>1</voice><type>quarter</type><time-modification><actual-notes>3</actual-notes><normal-notes>2</normal-notes></time-modification><stem default-y="-52">down</stem><notations><tuplet number="1" type="stop" /></notations><lyric default-y="-91" name="verse" number="1"><syllabic>end</syllabic><text font-size="10.8">che</text></lyric></note><backup><duration>24</duration></backup><note default-x="16"><pitch><step>D</step><octave>4</octave></pitch><duration>12</duration><voice>2</voice><type size="cue">half</type><stem default-y="-72">down</stem></note><forward><duration>12</duration><voice>2</voice></forward></measure><!--=======================================================--><measure number="27" width="362"><harmony default-y="36" font-size="10" font-weight="bold"><root><root-step>E</root-step><root-alter>-1</root-alter></root><kind halign="center" text="">major</kind></harmony><note default-x="15"><pitch><step>B</step><alter>-1</alter><octave>4</octave></pitch><duration>9</duration><voice>1</voice><type>quarter</type><dot /><stem default-y="-52">down</stem><lyric default-y="-91" name="verse" number="1"><syllabic>begin</syllabic><text font-size="10.8">Ma</text></lyric></note><note default-x="102"><pitch><step>G</step><octave>4</octave></pitch><duration>3</duration><voice>1</voice><type>eighth</type><stem default-y="2">up</stem><lyric default-y="-91" name="verse" number="1"><syllabic>middle</syllabic><text font-size="10.8">jes</text></lyric></note><note default-x="188"><pitch><step>G</step><octave>4</octave></pitch><duration>12</duration><tie type="start" /><voice>1</voice><type>half</type><stem default-y="2">up</stem><notations><tied orientation="over" type="start" /></notations><lyric default-y="-91" name="verse" number="1"><syllabic>end</syllabic><text font-size="10.8">tät,</text><extend type="start" /></lyric></note><backup><duration>24</duration></backup><forward><duration>12</duration><voice>2</voice></forward><note default-x="188"><pitch><step>E</step><alter>-1</alter><octave>4</octave></pitch><duration>6</duration><voice>2</voice><type size="cue">quarter</type><stem default-y="-67">down</stem></note><harmony default-y="36" font-size="10" font-weight="bold"><root><root-step>G</root-step></root><kind halign="center" text="m7">minor-seventh</kind><bass><bass-step>D</bass-step></bass></harmony><note default-x="274"><pitch><step>F</step><octave>4</octave></pitch><duration>6</duration><voice>2</voice><type size="cue">quarter</type><stem default-y="-62.5">down</stem></note></measure><!--=======================================================--><measure number="28" width="656"><print new-system="yes"><system-layout><system-distance>180</system-distance></system-layout></print><harmony default-y="36" font-size="10" font-weight="bold"><root><root-step>C</root-step></root><kind halign="center" text="m7">minor-seventh</kind></harmony><note default-x="99"><pitch><step>G</step><octave>4</octave></pitch><duration>12</duration><tie type="stop" /><voice>1</voice><type>half</type><stem default-y="2">up</stem><notations><tied type="stop" /></notations><lyric name="verse" number="1"><extend type="stop" /></lyric></note><harmony default-y="36" font-size="10" font-weight="bold"><root><root-step>C</root-step></root><kind halign="center" parentheses-degrees="yes" text="m7">minor-seventh</kind><degree><degree-value>5</degree-value><degree-alter>-1</degree-alter><degree-type>alter</degree-type></degree></harmony><note default-x="237"><pitch><step>E</step><alter>-1</alter><octave>5</octave></pitch><duration>4</duration><voice>1</voice><type>quarter</type><time-modification><actual-notes>3</actual-notes><normal-notes>2</normal-notes></time-modification><stem default-y="-36.5">down</stem><notations><tuplet bracket="yes" number="1" placement="above" type="start" /></notations><lyric default-y="-91" name="verse" number="1"><syllabic>begin</syllabic><text font-size="10.8">Je</text></lyric></note><harmony default-y="36" font-size="10" font-weight="bold"><root><root-step>B</root-step><root-alter>-1</root-alter></root><kind halign="center" use-symbols="yes">augmented</kind><bass><bass-step>D</bass-step></bass></harmony><note default-x="377"><pitch><step>D</step><octave>5</octave></pitch><duration>4</duration><voice>1</voice><type>quarter</type><time-modification><actual-notes>3</actual-notes><normal-notes>2</normal-notes></time-modification><stem default-y="-42">down</stem><lyric default-y="-91" name="verse" number="1"><syllabic>end</syllabic><text font-size="10.8">sus,</text></lyric></note><harmony default-y="36" font-size="10" font-weight="bold"><root><root-step>C</root-step></root><kind halign="center" parentheses-degrees="yes" text="m7">minor-seventh</kind><bass><bass-step>E</bass-step><bass-alter>-1</bass-alter></bass><degree><degree-value>5</degree-value><degree-alter>-1</degree-alter><degree-type>alter</degree-type></degree></harmony><note default-x="515"><pitch><step>C</step><octave>5</octave></pitch><duration>4</duration><voice>1</voice><type>quarter</type><time-modification><actual-notes>3</actual-notes><normal-notes>2</normal-notes></time-modification><stem default-y="-47">down</stem><notations><tuplet number="1" type="stop" /></notations><lyric default-y="-91" name="verse" number="1"><syllabic>single</syllabic><text font-size="10.8">du</text></lyric></note><backup><duration>24</duration></backup><note default-x="99"><pitch><step>E</step><alter>-1</alter><octave>4</octave></pitch><duration>12</duration><voice>2</voice><type size="cue">half</type><stem default-y="-67.5">down</stem></note><forward><duration>12</duration><voice>2</voice></forward></measure><!--=======================================================--><measure number="29" width="515"><harmony default-y="36" font-size="10" font-weight="bold"><root><root-step>B</root-step><root-alter>-1</root-alter></root><kind halign="center" text="">major</kind><bass><bass-step>F</bass-step></bass></harmony><note default-x="32"><pitch><step>D</step><octave>5</octave></pitch><duration>12</duration><voice>1</voice><type>half</type><stem default-y="-42">down</stem><lyric default-y="-91" name="verse" number="1"><syllabic>single</syllabic><text font-size="10.8">starbst,</text></lyric></note><harmony default-y="36" font-size="10" font-weight="bold"><root><root-step>B</root-step><root-alter>-1</root-alter></root><kind halign="center" text="">major</kind></harmony><note default-x="152"><pitch><step>D</step><octave>5</octave></pitch><duration>4</duration><voice>1</voice><type>quarter</type><time-modification><actual-notes>3</actual-notes><normal-notes>2</normal-notes></time-modification><stem default-y="-42">down</stem><notations><tuplet bracket="yes" number="1" placement="above" type="start" /></notations><lyric default-y="-91" name="verse" number="1"><syllabic>single</syllabic><text font-size="10.8">bliebst</text></lyric></note><harmony default-y="36" font-size="10" font-weight="bold"><root><root-step>F</root-step></root><kind halign="center" text="">major</kind><bass><bass-step>C</bass-step></bass></harmony><note default-x="272"><pitch><step>C</step><octave>5</octave></pitch><duration>4</duration><voice>1</voice><type>quarter</type><time-modification><actual-notes>3</actual-notes><normal-notes>2</normal-notes></time-modification><stem default-y="-47">down</stem><lyric default-y="-91" name="verse" number="1"><syllabic>single</syllabic><text font-size="10.8">nicht</text></lyric></note><harmony default-y="36" font-size="10" font-weight="bold"><root><root-step>B</root-step><root-alter>-1</root-alter></root><kind halign="center" text="">major</kind><bass><bass-step>D</bass-step></bass></harmony><note default-x="393"><pitch><step>B</step><alter>-1</alter><octave>4</octave></pitch><duration>4</duration><voice>1</voice><type>quarter</type><time-modification><actual-notes>3</actual-notes><normal-notes>2</normal-notes></time-modification><stem default-y="-52">down</stem><notations><tuplet number="1" type="stop" /></notations><lyric default-y="-91" name="verse" number="1"><syllabic>single</syllabic><text font-size="10.8">im</text></lyric></note></measure><!--=======================================================--><measure number="30" width="677"><print new-system="yes"><system-layout><system-distance>180</system-distance></system-layout></print><harmony default-y="36" font-size="10" font-weight="bold"><root><root-step>C</root-step></root><kind halign="center" text="m7">minor-seventh</kind></harmony><note default-x="99"><pitch><step>C</step><octave>5</octave></pitch><duration>12</duration><voice>1</voice><type>half</type><stem default-y="-47">down</stem><lyric default-y="-91" name="verse" number="1"><syllabic>single</syllabic><text font-size="10.8">Grab,</text></lyric></note><harmony default-y="36" font-size="10" font-weight="bold"><root><root-step>F</root-step></root><kind halign="center" text="7">dominant</kind></harmony><note default-x="243"><pitch><step>C</step><octave>5</octave></pitch><duration>4</duration><voice>1</voice><type>quarter</type><time-modification><actual-notes>3</actual-notes><normal-notes>2</normal-notes></time-modification><stem default-y="-47">down</stem><notations><tuplet bracket="yes" number="1" placement="above" type="start" /></notations><lyric default-y="-91" name="verse" number="1"><syllabic>begin</syllabic><text font-size="10.8">Hal</text></lyric></note><harmony default-y="36" font-size="10" font-weight="bold"><root><root-step>E</root-step><root-alter>-1</root-alter></root><kind halign="center" text="">major</kind><bass><bass-step>F</bass-step></bass></harmony><note default-x="387"><pitch><step>B</step><alter>-1</alter><octave>4</octave></pitch><duration>4</duration><voice>1</voice><type>quarter</type><time-modification><actual-notes>3</actual-notes><normal-notes>2</normal-notes></time-modification><stem default-y="-52">down</stem><lyric default-y="-91" name="verse" number="1"><syllabic>middle</syllabic><text font-size="10.8">le</text></lyric></note><harmony default-y="36" font-size="10" font-weight="bold"><root><root-step>F</root-step></root><kind halign="center" text="7">dominant</kind></harmony><note default-x="531"><pitch><step>A</step><octave>4</octave></pitch><duration>4</duration><voice>1</voice><type>quarter</type><time-modification><actual-notes>3</actual-notes><normal-notes>2</normal-notes></time-modification><stem default-y="7">up</stem><notations><tuplet number="1" type="stop" /></notations><lyric default-y="-91" name="verse" number="1"><syllabic>middle</syllabic><text font-size="10.8">lu</text></lyric></note></measure><!--=======================================================--><measure number="31" width="302"><harmony default-y="36" font-size="10" font-weight="bold"><root><root-step>B</root-step><root-alter>-1</root-alter></root><kind halign="center" text="">major</kind></harmony><note default-x="16"><pitch><step>B</step><alter>-1</alter><octave>4</octave></pitch><duration>24</duration><tie type="start" /><voice>1</voice><type>whole</type><notations><tied orientation="over" type="start" /></notations><lyric default-y="-91" name="verse" number="1"><syllabic>end</syllabic><text font-size="10.8">ja!</text><extend type="start" /></lyric></note><backup><duration>24</duration></backup><note default-x="16"><pitch><step>D</step><octave>4</octave></pitch><duration>12</duration><voice>2</voice><type size="cue">half</type><stem default-y="-72">down</stem></note><harmony default-y="36" font-size="10" font-weight="bold"><root><root-step>E</root-step><root-alter>-1</root-alter></root><kind halign="center" text="">major</kind><bass><bass-step>B</bass-step><bass-alter>-1</bass-alter></bass></harmony><note default-x="158"><pitch><step>E</step><alter>-1</alter><octave>4</octave></pitch><duration>12</duration><voice>2</voice><type size="cue">half</type><stem default-y="-67.5">down</stem></note></measure><!--=======================================================--><measure number="32" width="192"><harmony default-y="36" font-size="10" font-weight="bold"><root><root-step>B</root-step><root-alter>-1</root-alter></root><kind halign="center" text="">major</kind></harmony><note default-x="16"><pitch><step>B</step><alter>-1</alter><octave>4</octave></pitch><duration>24</duration><tie type="stop" /><voice>1</voice><type>whole</type><notations><tied type="stop" /></notations><lyric name="verse" number="1"><extend type="stop" /></lyric></note><backup><duration>24</duration></backup><note default-x="16"><pitch><step>D</step><octave>4</octave></pitch><duration>24</duration><voice>2</voice><type size="cue">whole</type></note><barline location="right"><bar-style>light-heavy</bar-style></barline></measure></part><!--=========================================================--></score-partwise>