<?xml version="1.0" encoding="UTF-8" standalone="no"?><!DOCTYPE score-partwise PUBLIC "-//Recordare//DTD MusicXML 3.0 Partwise//EN" "http://www.musicxml.org/dtds/partwise.dtd"[]><score-partwise version="3.0"><movement-title>Meine Zeit steht in deinen Händen</movement-title><identification><creator type="composer">Peter Strauch</creator><encoding><software>Finale 2014 for Windows</software><software>Dolet Light for Finale 2014</software><encoding-date>2016-11-30</encoding-date><supports attribute="new-system" element="print" type="yes" value="yes" /><supports attribute="new-page" element="print" type="yes" value="yes" /><supports element="accidental" type="yes" /><supports element="beam" type="yes" /><supports element="stem" type="yes" /></encoding><rights>CCLI-Liednummer 4292737
© 1981 SCM Hänssler, Holzgerlingen
Nutzung ausschließlich im Rahmen der SongSelect®-Nutzungsbedingungen. Alle Rechte vorbehalten. www.ccli.com
CCLI-Lizenznummer 2182334
</rights></identification><defaults><scaling><millimeters>6.5088</millimeters><tenths>40</tenths></scaling><page-layout><page-height>1717</page-height><page-width>1327</page-width><page-margins type="both"><left-margin>78</left-margin><right-margin>78</right-margin><top-margin>78</top-margin><bottom-margin>78</bottom-margin></page-margins></page-layout><system-layout><system-margins><left-margin>0</left-margin><right-margin>0</right-margin></system-margins><system-distance>190</system-distance><top-system-distance>117</top-system-distance></system-layout><appearance><line-width type="stem">1.4583</line-width><line-width type="beam">5</line-width><line-width type="staff">1.25</line-width><line-width type="light barline">1.4583</line-width><line-width type="heavy barline">5</line-width><line-width type="leger">1.875</line-width><line-width type="ending">1.4583</line-width><line-width type="wedge">1.4583</line-width><line-width type="enclosure">1.4583</line-width><line-width type="tuplet bracket">1.4583</line-width><note-size type="grace">50</note-size><note-size type="cue">50</note-size><distance type="hyphen">240</distance><distance type="beam">8</distance></appearance><music-font font-family="Maestro,engraved" font-size="18.5" /><word-font font-family="Arial" font-size="9.2" /><lyric-font font-family="Arial" font-size="10.8" name="verse" /><lyric-font font-family="Arial" font-size="10.8" name="section" /></defaults><credit page="1"><credit-type>title</credit-type><credit-words default-x="663" default-y="1649" font-size="21.6" font-weight="bold" justify="center" valign="top" xml:lang="de">Meine Zeit steht in deinen Händen</credit-words></credit><credit page="1"><credit-words default-x="1249" default-y="1576" font-size="10.8" font-style="italic" justify="right" valign="top">Text und Musik:</credit-words></credit><credit page="1"><credit-type>composer</credit-type><credit-words default-x="1249" default-y="1552" font-size="10.8" font-weight="bold" justify="right" valign="top">Peter Strauch</credit-words></credit><credit page="2"><credit-type>title</credit-type><credit-type>page number</credit-type><credit-words default-x="663" default-y="1663" font-size="10.8" justify="center" valign="top" xml:lang="de">Meine Zeit steht in deinen Händen - 2</credit-words></credit><part-list><score-part id="P1"><part-name print-object="no">Vocals</part-name><score-instrument id="P1-I2"><instrument-name>Melody</instrument-name></score-instrument><midi-instrument id="P1-I2"><midi-channel>1</midi-channel><midi-program>1</midi-program><volume>80</volume><pan>0</pan></midi-instrument></score-part></part-list><!--=========================================================--><part id="P1"><measure number="1" width="192"><print page-number="1"><page-layout><page-height>1717</page-height><page-width>1327</page-width><page-margins><left-margin>78</left-margin><right-margin>78</right-margin><top-margin>190</top-margin><bottom-margin>163</bottom-margin></page-margins></page-layout><system-layout><system-margins><left-margin>68</left-margin><right-margin>0</right-margin></system-margins></system-layout><measure-numbering>system</measure-numbering></print><attributes><divisions>2</divisions><key><fifths>0</fifths><mode>major</mode></key><time><beats>4</beats><beat-type>4</beat-type></time><clef><sign>G</sign><line>2</line></clef></attributes><sound tempo="96" /><harmony default-y="36" font-size="10" font-weight="bold"><root><root-step>C</root-step></root><kind halign="center" text="">major</kind></harmony><direction placement="above"><direction-type><rehearsal default-y="69" font-weight="bold" relative-x="-5">CHORUS</rehearsal></direction-type></direction><note default-x="82"><pitch><step>E</step><octave>4</octave></pitch><duration>6</duration><voice>1</voice><type>half</type><dot /><stem default-y="-8">up</stem><lyric default-y="-91" name="verse" number="1"><syllabic>begin</syllabic><text font-size="10.8">Mei</text></lyric></note><harmony default-y="36" font-size="10" font-weight="bold"><root><root-step>C</root-step></root><kind halign="center" text="">major</kind><bass><bass-step>B</bass-step></bass></harmony><note default-x="137"><pitch><step>E</step><octave>4</octave></pitch><duration>2</duration><voice>1</voice><type>quarter</type><stem default-y="-8">up</stem><lyric default-y="-91" name="verse" number="1"><syllabic>end</syllabic><text font-size="10.8">ne</text></lyric></note></measure><!--=======================================================--><measure number="2" width="225"><harmony default-y="36" font-size="10" font-weight="bold"><root><root-step>A</root-step></root><kind halign="center" text="m">minor</kind></harmony><note default-x="23"><pitch><step>E</step><octave>4</octave></pitch><duration>2</duration><voice>1</voice><type>quarter</type><stem default-y="-8">up</stem><notations><slur number="1" placement="below" type="start" /></notations><lyric default-y="-91" name="verse" number="1"><syllabic>single</syllabic><text font-size="10.8">Zeit</text><extend type="start" /></lyric></note><note default-x="73"><pitch><step>D</step><octave>4</octave></pitch><duration>1</duration><voice>1</voice><type>eighth</type><stem default-y="-13.5">up</stem><beam number="1">begin</beam></note><note default-x="123"><pitch><step>C</step><octave>4</octave></pitch><duration>1</duration><tie type="start" /><voice>1</voice><type>eighth</type><stem default-y="-19">up</stem><beam number="1">end</beam><notations><tied type="start" /></notations></note><note default-x="173"><pitch><step>C</step><octave>4</octave></pitch><duration>4</duration><tie type="stop" /><voice>1</voice><type>half</type><stem default-y="-18">up</stem><notations><tied type="stop" /><slur number="1" type="stop" /></notations><lyric name="verse" number="1"><extend type="stop" /></lyric></note></measure><!--=======================================================--><measure number="3" width="252"><harmony default-y="36" font-size="10" font-weight="bold"><root><root-step>E</root-step></root><kind halign="center" text="m">minor</kind></harmony><note default-x="21"><pitch><step>G</step><octave>4</octave></pitch><duration>2</duration><voice>1</voice><type>quarter</type><stem default-y="2">up</stem><lyric default-y="-91" name="verse" number="1"><syllabic>single</syllabic><text font-size="10.8">steht</text></lyric></note><note default-x="78"><pitch><step>G</step><octave>4</octave></pitch><duration>2</duration><voice>1</voice><type>quarter</type><stem default-y="2">up</stem><lyric default-y="-91" name="verse" number="1"><syllabic>single</syllabic><text font-size="10.8">in</text></lyric></note><note default-x="136"><pitch><step>G</step><octave>4</octave></pitch><duration>2</duration><voice>1</voice><type>quarter</type><stem default-y="2">up</stem><lyric default-y="-91" name="verse" number="1"><syllabic>begin</syllabic><text font-size="10.8">dei</text></lyric></note><note default-x="193"><pitch><step>A</step><octave>4</octave></pitch><duration>2</duration><voice>1</voice><type>quarter</type><stem default-y="7">up</stem><lyric default-y="-91" name="verse" number="1"><syllabic>end</syllabic><text font-size="10.8">nen</text></lyric></note></measure><!--=======================================================--><measure number="4" width="225"><harmony default-y="36" font-size="10" font-weight="bold"><root><root-step>A</root-step></root><kind halign="center" text="m">minor</kind></harmony><note default-x="23"><pitch><step>E</step><octave>4</octave></pitch><duration>2</duration><voice>1</voice><type>quarter</type><stem default-y="-8">up</stem><notations><slur number="1" placement="below" type="start" /></notations><lyric default-y="-91" name="verse" number="1"><syllabic>begin</syllabic><text font-size="10.8">Hän</text></lyric></note><note default-x="73"><pitch><step>D</step><octave>4</octave></pitch><duration>1</duration><voice>1</voice><type>eighth</type><stem default-y="-13.5">up</stem><beam number="1">begin</beam><notations><slur number="1" type="stop" /></notations></note><note default-x="123"><pitch><step>C</step><octave>4</octave></pitch><duration>1</duration><tie type="start" /><voice>1</voice><type>eighth</type><stem default-y="-19">up</stem><beam number="1">end</beam><notations><tied type="start" /></notations><lyric default-y="-91" name="verse" number="1"><syllabic>end</syllabic><text font-size="10.8">den.</text><extend type="start" /></lyric></note><note default-x="173"><pitch><step>C</step><octave>4</octave></pitch><duration>4</duration><tie type="stop" /><voice>1</voice><type>half</type><stem default-y="-18">up</stem><notations><tied type="stop" /></notations><lyric name="verse" number="1"><extend type="stop" /></lyric></note></measure><!--=======================================================--><measure number="5" width="209"><harmony default-y="36" font-size="10" font-weight="bold"><root><root-step>F</root-step></root><kind halign="center" text="">major</kind></harmony><note default-x="14"><pitch><step>F</step><octave>4</octave></pitch><duration>4</duration><voice>1</voice><type>half</type><stem default-y="-3">up</stem><lyric default-y="-91" name="verse" number="1"><syllabic>single</syllabic><text font-size="10.8">Nun</text></lyric></note><harmony default-y="36" font-size="10" font-weight="bold"><root><root-step>C</root-step></root><kind halign="center" text="">major</kind></harmony><note default-x="78"><pitch><step>G</step><octave>4</octave></pitch><duration>2</duration><voice>1</voice><type>quarter</type><stem default-y="2">up</stem><lyric default-y="-91" name="verse" number="1"><syllabic>single</syllabic><text font-size="10.8">kann</text></lyric></note><harmony default-y="36" font-size="10" font-weight="bold"><root><root-step>F</root-step></root><kind halign="center" text="">major</kind></harmony><note default-x="143"><pitch><step>A</step><octave>4</octave></pitch><duration>2</duration><voice>1</voice><type>quarter</type><stem default-y="7">up</stem><lyric default-y="-91" name="verse" number="1"><syllabic>single</syllabic><text font-size="10.8">ich</text></lyric></note></measure><!--=======================================================--><measure number="6" width="211"><print new-system="yes"><system-layout><system-distance>180</system-distance></system-layout></print><harmony default-y="36" font-size="10" font-weight="bold"><root><root-step>C</root-step></root><kind halign="center" text="">major</kind></harmony><note default-x="50"><pitch><step>G</step><octave>4</octave></pitch><duration>2</duration><voice>1</voice><type>quarter</type><stem default-y="2">up</stem><lyric default-y="-91" name="verse" number="1"><syllabic>begin</syllabic><text font-size="10.8">ru</text></lyric></note><note default-x="99"><pitch><step>F</step><octave>4</octave></pitch><duration>2</duration><voice>1</voice><type>quarter</type><stem default-y="-2.5">up</stem><lyric default-y="-91" name="verse" number="1"><syllabic>end</syllabic><text font-size="10.8">hig</text></lyric></note><harmony default-y="36" font-size="10" font-weight="bold"><root><root-step>A</root-step></root><kind halign="center" text="m">minor</kind></harmony><note default-x="157"><pitch><step>E</step><octave>4</octave></pitch><duration>4</duration><voice>1</voice><type>half</type><stem default-y="-8">up</stem><lyric default-y="-91" name="verse" number="1"><syllabic>single</syllabic><text font-size="10.8">sein,</text></lyric></note></measure><!--=======================================================--><measure number="7" width="221"><harmony default-y="36" font-size="10" font-weight="bold"><root><root-step>D</root-step></root><kind halign="center" text="m">minor</kind></harmony><note default-x="21"><pitch><step>F</step><octave>4</octave></pitch><duration>2</duration><voice>1</voice><type>quarter</type><stem default-y="-2.5">up</stem><lyric default-y="-91" name="verse" number="1"><syllabic>begin</syllabic><text font-size="10.8">ru</text></lyric></note><note default-x="68"><pitch><step>E</step><octave>4</octave></pitch><duration>2</duration><voice>1</voice><type>quarter</type><stem default-y="-8">up</stem><lyric default-y="-91" name="verse" number="1"><syllabic>end</syllabic><text font-size="10.8">hig</text></lyric></note><harmony default-y="36" font-size="10" font-weight="bold"><root><root-step>D</root-step></root><kind halign="center" text="">major</kind></harmony><note default-x="123"><pitch><step>D</step><octave>4</octave></pitch><duration>2</duration><voice>1</voice><type>quarter</type><stem default-y="-13">up</stem><lyric default-y="-91" name="verse" number="1"><syllabic>single</syllabic><text font-size="10.8">sein</text></lyric></note><note default-x="173"><pitch><step>C</step><octave>4</octave></pitch><duration>2</duration><voice>1</voice><type>quarter</type><stem default-y="-18">up</stem><lyric default-y="-91" name="verse" number="1"><syllabic>single</syllabic><text font-size="10.8">in</text></lyric></note></measure><!--=======================================================--><measure number="8" width="76"><harmony default-y="36" font-size="10" font-weight="bold"><root><root-step>G</root-step></root><kind halign="center" text="">major</kind></harmony><note default-x="14"><pitch><step>B</step><octave>3</octave></pitch><duration>8</duration><voice>1</voice><type>whole</type><lyric default-y="-91" name="verse" number="1"><syllabic>single</syllabic><text font-size="10.8">dir.</text></lyric></note></measure><!--=======================================================--><measure number="9" width="182"><harmony default-y="36" font-size="10" font-weight="bold"><root><root-step>C</root-step></root><kind halign="center" text="">major</kind></harmony><note default-x="12"><pitch><step>E</step><octave>4</octave></pitch><duration>4</duration><voice>1</voice><type>half</type><stem default-y="-8">up</stem><lyric default-y="-91" name="verse" number="1"><syllabic>single</syllabic><text font-size="10.8">Du</text></lyric></note><note default-x="70"><pitch><step>E</step><octave>4</octave></pitch><duration>2</duration><voice>1</voice><type>quarter</type><stem default-y="-8">up</stem><lyric default-y="-91" name="verse" number="1"><syllabic>single</syllabic><text font-size="10.8">gibst</text></lyric></note><harmony default-y="36" font-size="10" font-weight="bold"><root><root-step>C</root-step></root><kind halign="center" text="">major</kind><bass><bass-step>B</bass-step></bass></harmony><note default-x="129"><pitch><step>E</step><octave>4</octave></pitch><duration>2</duration><voice>1</voice><type>quarter</type><stem default-y="-8">up</stem><lyric default-y="-91" name="verse" number="1"><syllabic>begin</syllabic><text font-size="10.8">Ge</text></lyric></note></measure><!--=======================================================--><measure number="10" width="236"><harmony default-y="36" font-size="10" font-weight="bold"><root><root-step>A</root-step></root><kind halign="center" text="m">minor</kind></harmony><note default-x="22"><pitch><step>E</step><octave>4</octave></pitch><duration>2</duration><voice>1</voice><type>quarter</type><stem default-y="-8">up</stem><lyric default-y="-91" name="verse" number="1"><syllabic>middle</syllabic><text font-size="10.8">bor</text></lyric></note><note default-x="79"><pitch><step>D</step><octave>4</octave></pitch><duration>1</duration><voice>1</voice><type>eighth</type><stem default-y="-13.5">up</stem><beam number="1">begin</beam><lyric default-y="-91" name="verse" number="1"><syllabic>middle</syllabic><text font-size="10.8">gen</text></lyric></note><note default-x="138"><pitch><step>C</step><octave>4</octave></pitch><duration>1</duration><tie type="start" /><voice>1</voice><type>eighth</type><stem default-y="-18">up</stem><beam number="1">end</beam><notations><tied type="start" /></notations><lyric default-y="-91" name="verse" number="1"><syllabic>end</syllabic><text font-size="10.8">heit,</text><extend type="start" /></lyric></note><note default-x="187"><pitch><step>C</step><octave>4</octave></pitch><duration>4</duration><tie type="stop" /><voice>1</voice><type>half</type><stem default-y="-18">up</stem><notations><tied type="stop" /></notations><lyric name="verse" number="1"><extend type="stop" /></lyric></note></measure><!--=======================================================--><measure number="11" width="245"><harmony default-y="36" font-size="10" font-weight="bold"><root><root-step>E</root-step></root><kind halign="center" text="m">minor</kind></harmony><note default-x="20"><pitch><step>G</step><octave>4</octave></pitch><duration>2</duration><voice>1</voice><type>quarter</type><stem default-y="2">up</stem><lyric default-y="-91" name="verse" number="1"><syllabic>single</syllabic><text font-size="10.8">du</text></lyric></note><note default-x="84"><pitch><step>G</step><octave>4</octave></pitch><duration>2</duration><voice>1</voice><type>quarter</type><stem default-y="2">up</stem><lyric default-y="-91" name="verse" number="1"><syllabic>single</syllabic><text font-size="10.8">kannst</text></lyric></note><note default-x="146"><pitch><step>G</step><octave>4</octave></pitch><duration>2</duration><voice>1</voice><type>quarter</type><stem default-y="2">up</stem><lyric default-y="-91" name="verse" number="1"><syllabic>begin</syllabic><text font-size="10.8">al</text></lyric></note><note default-x="195"><pitch><step>A</step><octave>4</octave></pitch><duration>2</duration><voice>1</voice><type>quarter</type><stem default-y="7">up</stem><lyric default-y="-91" name="verse" number="1"><syllabic>end</syllabic><text font-size="10.8">les</text></lyric></note></measure><!--=======================================================--><measure number="12" width="242"><print new-system="yes"><system-layout><system-distance>180</system-distance></system-layout></print><harmony default-y="36" font-size="10" font-weight="bold"><root><root-step>A</root-step></root><kind halign="center" text="m">minor</kind></harmony><note default-x="60"><pitch><step>E</step><octave>4</octave></pitch><duration>2</duration><voice>1</voice><type>quarter</type><stem default-y="-8">up</stem><notations><slur number="1" placement="below" type="start" /></notations><lyric default-y="-91" name="verse" number="1"><syllabic>begin</syllabic><text font-size="10.8">wen</text></lyric></note><note default-x="106"><pitch><step>D</step><octave>4</octave></pitch><duration>1</duration><voice>1</voice><type>eighth</type><stem default-y="-14">up</stem><beam number="1">begin</beam><notations><slur number="1" type="stop" /></notations></note><note default-x="151"><pitch><step>C</step><octave>4</octave></pitch><duration>1</duration><tie type="start" /><voice>1</voice><type>eighth</type><stem default-y="-18.5">up</stem><beam number="1">end</beam><notations><tied type="start" /></notations><lyric default-y="-91" name="verse" number="1"><syllabic>end</syllabic><text font-size="10.8">den.</text><extend type="start" /></lyric></note><note default-x="196"><pitch><step>C</step><octave>4</octave></pitch><duration>4</duration><tie type="stop" /><voice>1</voice><type>half</type><stem default-y="-18">up</stem><notations><tied type="stop" /></notations><lyric name="verse" number="1"><extend type="stop" /></lyric></note></measure><!--=======================================================--><measure number="13" width="169"><harmony default-y="36" font-size="10" font-weight="bold"><root><root-step>F</root-step></root><kind halign="center" text="">major</kind></harmony><note default-x="11"><pitch><step>F</step><octave>4</octave></pitch><duration>4</duration><voice>1</voice><type>half</type><stem default-y="-3">up</stem><lyric default-y="-91" name="verse" number="1"><syllabic>single</syllabic><text font-size="10.8">Gib</text></lyric></note><note default-x="63"><pitch><step>G</step><octave>4</octave></pitch><duration>2</duration><voice>1</voice><type>quarter</type><stem default-y="2">up</stem><lyric default-y="-91" name="verse" number="1"><syllabic>single</syllabic><text font-size="10.8">mir</text></lyric></note><note default-x="115"><pitch><step>A</step><octave>4</octave></pitch><duration>2</duration><voice>1</voice><type>quarter</type><stem default-y="7">up</stem><lyric default-y="-91" name="verse" number="1"><syllabic>single</syllabic><text font-size="10.8">ein</text></lyric></note></measure><!--=======================================================--><measure number="14" width="223"><harmony default-y="36" font-size="10" font-weight="bold"><root><root-step>C</root-step></root><kind halign="center" text="">major</kind></harmony><note default-x="13"><pitch><step>G</step><octave>4</octave></pitch><duration>2</duration><voice>1</voice><type>quarter</type><stem default-y="2">up</stem><lyric default-y="-91" name="verse" number="1"><syllabic>begin</syllabic><text font-size="10.8">fes</text></lyric></note><note default-x="66"><pitch><step>F</step><octave>4</octave></pitch><duration>1</duration><voice>1</voice><type>eighth</type><stem default-y="-3">up</stem><beam number="1">begin</beam><lyric default-y="-91" name="verse" number="1"><syllabic>end</syllabic><text font-size="10.8">tes</text></lyric></note><harmony default-y="36" font-size="10" font-weight="bold"><root><root-step>A</root-step></root><kind halign="center" text="m">minor</kind></harmony><note default-x="126"><pitch><step>E</step><octave>4</octave></pitch><duration>1</duration><tie type="start" /><voice>1</voice><type>eighth</type><stem default-y="-9">up</stem><beam number="1">end</beam><notations><tied type="start" /></notations><lyric default-y="-91" name="verse" number="1"><syllabic>single</syllabic><text font-size="10.8">Herz,</text><extend type="start" /></lyric></note><note default-x="174"><pitch><step>E</step><octave>4</octave></pitch><duration>4</duration><tie type="stop" /><voice>1</voice><type>half</type><stem default-y="-8">up</stem><notations><tied type="stop" /></notations><lyric name="verse" number="1"><extend type="stop" /></lyric></note></measure><!--=======================================================--><measure number="15" width="245"><harmony default-y="36" font-size="10" font-weight="bold"><root><root-step>D</root-step></root><kind halign="center" text="m7">minor-seventh</kind></harmony><note default-x="27"><pitch><step>F</step><octave>4</octave></pitch><duration>2</duration><voice>1</voice><type>quarter</type><stem default-y="-3">up</stem><lyric default-y="-91" name="verse" number="1"><syllabic>single</syllabic><text font-size="10.8">mach</text></lyric></note><note default-x="85"><pitch><step>F</step><octave>4</octave></pitch><duration>2</duration><voice>1</voice><type>quarter</type><stem default-y="-3">up</stem><lyric default-y="-91" name="verse" number="1"><syllabic>single</syllabic><text font-size="10.8">es</text></lyric></note><harmony default-y="36" font-size="10" font-weight="bold"><root><root-step>C</root-step></root><kind halign="center" text="">major</kind><bass><bass-step>G</bass-step></bass></harmony><note default-x="139"><pitch><step>E</step><octave>4</octave></pitch><duration>2</duration><voice>1</voice><type>quarter</type><stem default-y="-8">up</stem><lyric default-y="-91" name="verse" number="1"><syllabic>single</syllabic><text font-size="10.8">fest</text></lyric></note><harmony default-y="36" font-size="10" font-weight="bold"><root><root-step>G</root-step></root><kind halign="center" text="7">dominant</kind></harmony><note default-x="193"><pitch><step>D</step><octave>4</octave></pitch><duration>2</duration><voice>1</voice><type>quarter</type><stem default-y="-13">up</stem><lyric default-y="-91" name="verse" number="1"><syllabic>single</syllabic><text font-size="10.8">in</text></lyric></note></measure><!--=======================================================--><measure number="16" width="115"><harmony default-y="36" font-size="10" font-weight="bold"><root><root-step>C</root-step></root><kind halign="center" text="">major</kind></harmony><note default-x="13"><pitch><step>C</step><octave>4</octave></pitch><duration>6</duration><voice>1</voice><type>half</type><dot /><stem default-y="-18">up</stem><lyric default-y="-91" name="verse" number="1"><syllabic>single</syllabic><text font-size="10.8">dir.</text></lyric></note><note default-x="59"><rest /><duration>2</duration><voice>1</voice><type>quarter</type></note><direction placement="above"><direction-type><words default-x="108" default-y="13" font-style="italic" justify="right">Fine</words></direction-type><sound fine="yes" time-only="4" /></direction><barline location="right"><bar-style>light-heavy</bar-style></barline></measure><!--=======================================================--><measure number="17" width="177"><harmony default-y="36" font-size="10" font-weight="bold"><root><root-step>A</root-step></root><kind halign="center" text="m">minor</kind></harmony><direction placement="above"><direction-type><rehearsal default-y="69" font-weight="bold" relative-x="-18">VERS</rehearsal></direction-type></direction><note default-x="32"><pitch><step>E</step><octave>4</octave></pitch><duration>4</duration><voice>1</voice><type>half</type><stem default-y="-8">up</stem><lyric default-y="-91" name="verse" number="1"><syllabic>single</syllabic><text font-size="10.8">1.</text><elision> </elision><syllabic>single</syllabic><text font-size="10.8">Sor</text><elision> </elision><syllabic>single</syllabic><text font-size="10.8" /><elision> </elision><syllabic>begin</syllabic><text font-size="10.8" /></lyric><lyric default-y="-115" name="verse" number="2" relative-x="4"><syllabic>single</syllabic><text font-size="10.8">2.</text><elision> </elision><syllabic>single</syllabic><text font-size="10.8">Hast</text><elision> </elision><syllabic>single</syllabic><text font-size="10.8" /></lyric><lyric default-y="-140" name="verse" number="3" relative-x="-6"><syllabic>single</syllabic><text font-size="10.8">3.</text><elision> </elision><syllabic>single</syllabic><text font-size="10.8">Es</text><elision> </elision><syllabic>single</syllabic><text font-size="10.8" /></lyric></note><note default-x="117"><pitch><step>E</step><octave>4</octave></pitch><duration>4</duration><voice>1</voice><type>half</type><stem default-y="-8">up</stem><lyric default-y="-91" name="verse" number="1"><syllabic>end</syllabic><text font-size="10.8">gen</text></lyric><lyric default-y="-115" name="verse" number="2"><syllabic>single</syllabic><text font-size="10.8">und</text></lyric><lyric default-y="-140" name="verse" number="3"><syllabic>single</syllabic><text font-size="10.8">gibt</text></lyric></note></measure><!--=======================================================--><measure number="18" width="215"><print new-system="yes"><system-layout><system-distance>180</system-distance></system-layout></print><harmony default-y="36" font-size="10" font-weight="bold"><root><root-step>F</root-step></root><kind halign="center" text="">major</kind></harmony><note default-x="50"><pitch><step>A</step><octave>4</octave></pitch><duration>4</duration><voice>1</voice><type>half</type><stem default-y="7">up</stem><lyric default-y="-91" name="verse" number="1"><syllabic>begin</syllabic><text font-size="10.8">quä</text></lyric><lyric default-y="-115" name="verse" number="2"><syllabic>begin</syllabic><text font-size="10.8">Ei</text></lyric><lyric default-y="-140" name="verse" number="3"><syllabic>begin</syllabic><text font-size="10.8">Ta</text></lyric></note><note default-x="104"><pitch><step>A</step><octave>4</octave></pitch><duration>2</duration><voice>1</voice><type>quarter</type><stem default-y="7">up</stem><lyric default-y="-91" name="verse" number="1"><syllabic>end</syllabic><text font-size="10.8">len</text></lyric><lyric default-y="-115" name="verse" number="2"><syllabic>end</syllabic><text font-size="10.8">le,</text><extend type="start" /></lyric><lyric default-y="-140" name="verse" number="3"><syllabic>end</syllabic><text font-size="10.8">ge,</text></lyric></note><note default-x="159"><pitch><step>A</step><octave>4</octave></pitch><duration>2</duration><voice>1</voice><type>quarter</type><stem default-y="7">up</stem><lyric default-y="-91" name="verse" number="1"><syllabic>single</syllabic><text font-size="10.8">und</text></lyric><lyric default-y="-140" name="verse" number="3"><syllabic>single</syllabic><text font-size="10.8">die</text></lyric><lyric name="verse" number="2"><extend type="stop" /></lyric></note></measure><!--=======================================================--><measure number="19" width="297"><harmony default-y="36" font-size="10" font-weight="bold"><root><root-step>G</root-step></root><kind halign="center" text="">major</kind></harmony><note default-x="20"><pitch><step>G</step><octave>4</octave></pitch><duration>2</duration><voice>1</voice><type>quarter</type><stem default-y="2">up</stem><lyric default-y="-91" name="verse" number="1"><syllabic>begin</syllabic><text font-size="10.8">wer</text></lyric><lyric default-y="-115" name="verse" number="2"><syllabic>begin</syllabic><text font-size="10.8">Zeit</text></lyric><lyric default-y="-140" name="verse" number="3"><syllabic>begin</syllabic><text font-size="10.8">schei</text></lyric></note><note default-x="84"><pitch><step>D</step><octave>4</octave></pitch><duration>2</duration><voice>1</voice><type>quarter</type><stem default-y="-12.5">up</stem><lyric default-y="-91" name="verse" number="1"><syllabic>end</syllabic><text font-size="10.8">den</text></lyric><lyric default-y="-115" name="verse" number="2"><syllabic>end</syllabic><text font-size="10.8">not</text></lyric><lyric default-y="-140" name="verse" number="3"><syllabic>end</syllabic><text font-size="10.8">nen</text></lyric></note><note default-x="143"><pitch><step>E</step><octave>4</octave></pitch><duration>1</duration><voice>1</voice><type>eighth</type><stem default-y="-9">up</stem><beam number="1">begin</beam><lyric default-y="-91" name="verse" number="1"><syllabic>single</syllabic><text font-size="10.8">mir</text></lyric><lyric default-y="-115" name="verse" number="2"><syllabic>single</syllabic><text font-size="10.8">und</text></lyric><lyric default-y="-140" name="verse" number="3"><syllabic>begin</syllabic><text font-size="10.8">oh</text></lyric></note><note default-x="197"><pitch><step>F</step><octave>4</octave></pitch><duration>1</duration><tie type="start" /><voice>1</voice><type>eighth</type><stem default-y="-3.5">up</stem><beam number="1">end</beam><notations><tied type="start" /></notations><lyric default-y="-91" name="verse" number="1"><syllabic>single</syllabic><text font-size="10.8">zu</text><extend type="start" /></lyric><lyric default-y="-115" name="verse" number="2"><syllabic>begin</syllabic><text font-size="10.8">Be</text></lyric><lyric default-y="-140" name="verse" number="3"><syllabic>end</syllabic><text font-size="10.8">ne</text><extend type="start" /></lyric></note><note default-x="246"><pitch><step>F</step><octave>4</octave></pitch><duration>2</duration><tie type="stop" /><voice>1</voice><type>quarter</type><stem default-y="-3">up</stem><notations><tied type="stop" /></notations><lyric name="verse" number="1"><extend type="stop" /></lyric><lyric name="verse" number="3"><extend type="stop" /></lyric></note></measure><!--=======================================================--><measure number="20" width="79"><harmony default-y="36" font-size="10" font-weight="bold"><root><root-step>C</root-step></root><kind halign="center" text="">major</kind></harmony><note default-x="20"><pitch><step>E</step><octave>4</octave></pitch><duration>8</duration><voice>1</voice><type>whole</type><lyric default-y="-91" name="verse" number="1"><syllabic>single</syllabic><text font-size="10.8">groß.</text></lyric><lyric default-y="-115" name="verse" number="2"><syllabic>end</syllabic><text font-size="10.8">trieb</text></lyric><lyric default-y="-140" name="verse" number="3"><syllabic>single</syllabic><text font-size="10.8">Sinn.</text></lyric></note></measure><!--=======================================================--><measure number="21" width="274"><harmony default-y="36" font-size="10" font-weight="bold"><root><root-step>D</root-step></root><kind halign="center" text="m7">minor-seventh</kind></harmony><note default-x="27"><pitch><step>F</step><octave>4</octave></pitch><duration>2</duration><voice>1</voice><type>quarter</type><stem default-y="-3">up</stem><lyric default-y="-91" name="verse" number="1"><syllabic>begin</syllabic><text font-size="10.8">Mut</text></lyric><lyric default-y="-115" name="verse" number="2"><syllabic>begin</syllabic><text font-size="10.8">neh</text></lyric><lyric default-y="-140" name="verse" number="3"><syllabic>begin</syllabic><text font-size="10.8">Hilf</text></lyric></note><note default-x="90"><pitch><step>F</step><octave>4</octave></pitch><duration>2</duration><voice>1</voice><type>quarter</type><stem default-y="-3">up</stem><lyric default-y="-91" name="verse" number="1"><syllabic>end</syllabic><text font-size="10.8">los</text></lyric><lyric default-y="-115" name="verse" number="2"><syllabic>end</syllabic><text font-size="10.8">men</text></lyric><lyric default-y="-140" name="verse" number="3"><syllabic>end</syllabic><text font-size="10.8">los</text></lyric></note><note default-x="154"><pitch><step>F</step><octave>4</octave></pitch><duration>2</duration><voice>1</voice><type>quarter</type><stem default-y="-3">up</stem><lyric default-y="-91" name="verse" number="1"><syllabic>single</syllabic><text font-size="10.8">frag</text></lyric><lyric default-y="-115" name="verse" number="2"><syllabic>single</syllabic><text font-size="10.8">mich</text></lyric><lyric default-y="-140" name="verse" number="3"><syllabic>single</syllabic><text font-size="10.8">seh</text></lyric></note><note default-x="216"><pitch><step>F</step><octave>4</octave></pitch><duration>2</duration><voice>1</voice><type>quarter</type><stem default-y="-3">up</stem><lyric default-y="-91" name="verse" number="1"><syllabic>single</syllabic><text font-size="10.8">ich:</text></lyric><lyric default-y="-115" name="verse" number="2"><syllabic>begin</syllabic><text font-size="10.8">ge</text></lyric><lyric default-y="-140" name="verse" number="3"><syllabic>single</syllabic><text font-size="10.8">ich,</text></lyric></note></measure><!--=======================================================--><measure number="22" width="307"><harmony default-y="36" font-size="10" font-weight="bold"><root><root-step>G</root-step></root><kind halign="center" text="">major</kind></harmony><note default-x="16"><pitch><step>G</step><octave>4</octave></pitch><duration>2</duration><voice>1</voice><type>quarter</type><stem default-y="2">up</stem><lyric default-y="-91" name="verse" number="1"><syllabic>single</syllabic><text font-size="10.8">Was</text></lyric><lyric default-y="-115" name="verse" number="2"><syllabic>middle</syllabic><text font-size="10.8">fan</text></lyric><lyric default-y="-140" name="verse" number="3"><syllabic>single</syllabic><text font-size="10.8">wie</text></lyric></note><harmony default-y="36" font-size="10" font-weight="bold"><root><root-step>C</root-step></root><kind halign="center" text="">major</kind><bass><bass-step>G</bass-step></bass></harmony><note default-x="80"><pitch><step>G</step><octave>4</octave></pitch><duration>2</duration><voice>1</voice><type>quarter</type><stem default-y="2">up</stem><lyric default-y="-91" name="verse" number="1"><syllabic>single</syllabic><text font-size="10.8">wird</text></lyric><lyric default-y="-115" name="verse" number="2"><syllabic>end</syllabic><text font-size="10.8">gen,</text></lyric><lyric default-y="-140" name="verse" number="3"><syllabic>single</syllabic><text font-size="10.8">die</text></lyric></note><harmony default-y="36" font-size="10" font-weight="bold"><root><root-step>G</root-step></root><kind halign="center" text="">major</kind></harmony><note default-x="142"><pitch><step>G</step><octave>4</octave></pitch><duration>1</duration><voice>1</voice><type>eighth</type><stem default-y="1.5">up</stem><beam number="1">begin</beam><lyric default-y="-91" name="verse" number="1"><syllabic>begin</syllabic><text font-size="10.8">mor</text></lyric><lyric default-y="-115" name="verse" number="2"><syllabic>begin</syllabic><text font-size="10.8">ja</text></lyric><lyric default-y="-140" name="verse" number="3"><syllabic>single</syllabic><text font-size="10.8">Zeit</text></lyric></note><note default-x="203"><pitch><step>D</step><octave>4</octave></pitch><duration>1</duration><tie type="start" /><voice>1</voice><type>eighth</type><stem default-y="-3.5">up</stem><beam number="1">end</beam><notations><tied type="start" /></notations><lyric default-y="-91" name="verse" number="1"><syllabic>end</syllabic><text font-size="10.8">gen</text><extend type="start" /></lyric><lyric default-y="-115" name="verse" number="2"><syllabic>end</syllabic><text font-size="10.8">gen</text><extend type="start" /></lyric><lyric default-y="-140" name="verse" number="3"><syllabic>begin</syllabic><text font-size="10.8">ver</text></lyric></note><note default-x="254"><pitch><step>D</step><octave>4</octave></pitch><duration>2</duration><tie type="stop" /><voice>1</voice><type>quarter</type><stem default-y="-12.5">up</stem><notations><tied type="stop" /></notations><lyric name="verse" number="1"><extend type="stop" /></lyric><lyric name="verse" number="2"><extend type="stop" /></lyric></note></measure><!--=======================================================--><measure number="23" width="136"><print new-system="yes"><system-layout><system-distance>221</system-distance></system-layout></print><harmony default-y="36" font-size="10" font-weight="bold"><root><root-step>C</root-step></root><kind halign="center" text="">major</kind></harmony><note default-x="59"><pitch><step>E</step><octave>4</octave></pitch><duration>8</duration><tie type="start" /><voice>1</voice><type>whole</type><notations><tied type="start" /></notations><lyric default-y="-91" name="verse" number="1"><syllabic>single</syllabic><text font-size="10.8">sein?</text><extend type="start" /></lyric><lyric default-y="-115" name="verse" number="2"><syllabic>single</syllabic><text font-size="10.8">mich.</text><extend type="start" /></lyric><lyric default-y="-140" name="verse" number="3"><syllabic>end</syllabic><text font-size="10.8">rinnt.</text><extend type="start" /></lyric></note></measure><!--=======================================================--><measure number="24" width="236"><note default-x="10"><pitch><step>E</step><octave>4</octave></pitch><duration>2</duration><tie type="stop" /><voice>1</voice><type>quarter</type><stem default-y="-8">up</stem><notations><tied type="stop" /></notations><lyric name="verse" number="1"><extend type="stop" /></lyric><lyric name="verse" number="2"><extend type="stop" /></lyric><lyric name="verse" number="3"><extend type="stop" /></lyric></note><harmony default-y="36" font-size="10" font-weight="bold"><root><root-step>G</root-step></root><kind halign="center" text="">major</kind></harmony><forward><duration>2</duration><voice>1</voice></forward><harmony default-y="36" font-size="10" font-weight="bold"><root><root-step>A</root-step></root><kind halign="center" text="m7">minor-seventh</kind></harmony><forward><duration>4</duration><voice>1</voice></forward><backup><duration>8</duration></backup><forward><duration>2</duration><voice>2</voice></forward><note default-x="66"><pitch><step>G</step><octave>3</octave></pitch><duration>2</duration><voice>2</voice><type size="cue">quarter</type><stem default-y="-19">up</stem></note><note default-x="123"><pitch><step>A</step><octave>3</octave></pitch><duration>2</duration><voice>2</voice><type size="cue">quarter</type><stem default-y="-19">up</stem></note><harmony default-y="36" font-size="10" font-weight="bold"><root><root-step>G</root-step></root><kind halign="center" text="">major</kind><bass><bass-step>B</bass-step></bass></harmony><note default-x="178"><pitch><step>B</step><octave>3</octave></pitch><duration>2</duration><voice>2</voice><type size="cue">quarter</type><stem default-y="-19">up</stem></note></measure><!--=======================================================--><measure number="25" width="181"><harmony default-y="36" font-size="10" font-weight="bold"><root><root-step>A</root-step></root><kind halign="center" text="m">minor</kind></harmony><note default-x="23"><pitch><step>E</step><octave>4</octave></pitch><duration>4</duration><voice>1</voice><type>half</type><stem default-y="-8">up</stem><lyric default-y="-91" name="verse" number="1"><syllabic>single</syllabic><text font-size="10.8">Doch</text></lyric><lyric default-y="-115" name="verse" number="2"><syllabic>single</syllabic><text font-size="10.8">Herr,</text></lyric><lyric default-y="-140" name="verse" number="3"><syllabic>begin</syllabic><text font-size="10.8">Stun</text></lyric></note><note default-x="101"><pitch><step>E</step><octave>4</octave></pitch><duration>4</duration><voice>1</voice><type>half</type><stem default-y="-8">up</stem><lyric default-y="-91" name="verse" number="1"><syllabic>single</syllabic><text font-size="10.8">du</text></lyric><lyric default-y="-115" name="verse" number="2"><syllabic>single</syllabic><text font-size="10.8">ich</text></lyric><lyric default-y="-140" name="verse" number="3"><syllabic>end</syllabic><text font-size="10.8">den,</text></lyric></note></measure><!--=======================================================--><measure number="26" width="191"><harmony default-y="36" font-size="10" font-weight="bold"><root><root-step>F</root-step></root><kind halign="center" text="">major</kind></harmony><note default-x="19"><pitch><step>A</step><octave>4</octave></pitch><duration>4</duration><voice>1</voice><type>half</type><stem default-y="7">up</stem><lyric default-y="-91" name="verse" number="1"><syllabic>single</syllabic><text font-size="10.8">liebst</text></lyric><lyric default-y="-115" name="verse" number="2"><syllabic>begin</syllabic><text font-size="10.8">ru</text></lyric><lyric default-y="-140" name="verse" number="3"><syllabic>begin</syllabic><text font-size="10.8">Ta</text></lyric></note><note default-x="104"><pitch><step>A</step><octave>4</octave></pitch><duration>4</duration><voice>1</voice><type>half</type><stem default-y="7">up</stem><lyric default-y="-91" name="verse" number="1"><syllabic>single</syllabic><text font-size="10.8">mich,</text></lyric><lyric default-y="-115" name="verse" number="2"><syllabic>end</syllabic><text font-size="10.8">fe:</text></lyric><lyric default-y="-140" name="verse" number="3"><syllabic>end</syllabic><text font-size="10.8">ge,</text></lyric></note></measure><!--=======================================================--><measure number="27" width="427"><harmony default-y="36" font-size="10" font-weight="bold"><root><root-step>E</root-step></root><kind halign="center" text="">major</kind></harmony><note default-x="25"><pitch><step>B</step><octave>4</octave></pitch><duration>2</duration><voice>1</voice><type>quarter</type><stem default-y="-51.5">down</stem><lyric default-y="-91" name="verse" number="1"><syllabic>single</syllabic><text font-size="10.8">du</text></lyric><lyric default-y="-115" name="verse" number="2"><syllabic>single</syllabic><text font-size="10.8">Komm</text></lyric><lyric default-y="-140" name="verse" number="3"><syllabic>begin</syllabic><text font-size="10.8">Jah</text></lyric></note><note default-x="106"><pitch><step>B</step><octave>4</octave></pitch><duration>2</duration><voice>1</voice><type>quarter</type><stem default-y="-51.5">down</stem><lyric default-y="-91" name="verse" number="1"><syllabic>single</syllabic><text font-size="10.8">lässt</text></lyric><lyric default-y="-115" name="verse" number="2"><syllabic>single</syllabic><text font-size="10.8">und</text></lyric><lyric default-y="-140" name="verse" number="3"><syllabic>end</syllabic><text font-size="10.8">re</text></lyric></note><note default-x="186"><pitch><step>A</step><octave>4</octave></pitch><duration>1</duration><voice>1</voice><type>eighth</type><stem default-y="6.5">up</stem><beam number="1">begin</beam><lyric default-y="-91" name="verse" number="1"><syllabic>single</syllabic><text font-size="10.8">mich</text></lyric><lyric default-y="-115" name="verse" number="2"><syllabic>single</syllabic><text font-size="10.8">mach</text></lyric><lyric default-y="-140" name="verse" number="3"><syllabic>begin</syllabic><text font-size="10.8">ge</text></lyric></note><note default-x="265"><pitch><step>B</step><octave>4</octave></pitch><duration>1</duration><tie type="start" /><voice>1</voice><type>eighth</type><stem default-y="11.5">up</stem><beam number="1">end</beam><notations><tied type="start" /></notations><lyric default-y="-91" name="verse" number="1"><syllabic>single</syllabic><text font-size="10.8">nicht</text><extend type="start" /></lyric><lyric default-y="-115" name="verse" number="2"><syllabic>single</syllabic><text font-size="10.8">mich</text><extend type="start" /></lyric><lyric default-y="-140" name="verse" number="3"><syllabic>end</syllabic><text font-size="10.8">hen</text><extend type="start" /></lyric></note><note default-x="346"><pitch><step>B</step><octave>4</octave></pitch><duration>2</duration><tie type="stop" /><voice>1</voice><type>quarter</type><stem default-y="-51.5">down</stem><notations><tied type="stop" /></notations><lyric name="verse" number="1"><extend type="stop" /></lyric><lyric name="verse" number="2"><extend type="stop" /></lyric><lyric name="verse" number="3"><extend type="stop" /></lyric></note></measure><!--=======================================================--><measure number="28" width="141"><print new-page="yes" page-number="2" /><harmony default-y="36" font-size="10" font-weight="bold"><root><root-step>A</root-step></root><kind halign="center" text="m">minor</kind></harmony><note default-x="60"><pitch><step>C</step><octave>5</octave></pitch><duration>8</duration><voice>1</voice><type>whole</type><lyric default-y="-91" name="verse" number="1"><syllabic>single</syllabic><text font-size="10.8">los.</text></lyric><lyric default-y="-115" name="verse" number="2"><syllabic>single</syllabic><text font-size="10.8">frei!</text></lyric><lyric default-y="-140" name="verse" number="3"><syllabic>single</syllabic><text font-size="10.8">hin,</text></lyric></note></measure><!--=======================================================--><measure number="29" width="324"><harmony default-y="36" font-size="10" font-weight="bold"><root><root-step>D</root-step></root><kind halign="center" text="7">dominant</kind></harmony><note default-x="18"><pitch><step>C</step><octave>5</octave></pitch><duration>2</duration><tie type="start" /><voice>1</voice><type>quarter</type><stem default-y="-46.5">down</stem><notations><tied type="start" /></notations><lyric default-y="-91" name="verse" number="1"><syllabic>begin</syllabic><text font-size="10.8">Va</text></lyric><lyric default-y="-115" name="verse" number="2"><syllabic>begin</syllabic><text font-size="10.8">Füh</text></lyric><lyric default-y="-140" name="verse" number="3"><syllabic>single</syllabic><text font-size="10.8">und</text></lyric></note><note default-x="93"><pitch><step>C</step><octave>5</octave></pitch><duration>2</duration><tie type="stop" /><voice>1</voice><type>quarter</type><stem default-y="-46.5">down</stem><notations><tied type="stop" /></notations><lyric default-y="-140" name="verse" number="3"><syllabic>single</syllabic><text font-size="10.8">ich</text></lyric></note><note default-x="170"><pitch><step>C</step><octave>5</octave></pitch><duration>2</duration><tie type="start" /><voice>1</voice><type>quarter</type><stem default-y="-46.5">down</stem><notations><tied type="start" /></notations><lyric default-y="-91" name="verse" number="1"><syllabic>end</syllabic><text font-size="10.8">ter,</text><extend type="start" /></lyric><lyric default-y="-115" name="verse" number="2"><syllabic>end</syllabic><text font-size="10.8">re</text><extend type="start" /></lyric><lyric default-y="-140" name="verse" number="3"><syllabic>single</syllabic><text font-size="10.8">frag,</text></lyric></note><note default-x="246"><pitch><step>C</step><octave>5</octave></pitch><duration>2</duration><tie type="stop" /><voice>1</voice><type>quarter</type><stem default-y="-46.5">down</stem><notations><tied type="stop" /></notations><lyric default-y="-140" name="verse" number="3"><syllabic>single</syllabic><text font-size="10.8">wo</text></lyric><lyric name="verse" number="1"><extend type="stop" /></lyric><lyric name="verse" number="2"><extend type="stop" /></lyric></note></measure><!--=======================================================--><measure number="30" width="387"><harmony default-y="36" font-size="10" font-weight="bold"><root><root-step>G</root-step></root><kind halign="center" text="">major</kind><bass><bass-step>D</bass-step></bass></harmony><note default-x="16"><pitch><step>B</step><octave>4</octave></pitch><duration>2</duration><voice>1</voice><type>quarter</type><stem default-y="-51.5">down</stem><lyric default-y="-91" name="verse" number="1"><syllabic>single</syllabic><text font-size="10.8">du</text></lyric><lyric default-y="-115" name="verse" number="2"><syllabic>single</syllabic><text font-size="10.8">du</text></lyric><lyric default-y="-140" name="verse" number="3"><syllabic>single</syllabic><text font-size="10.8">sie</text></lyric></note><note default-x="109"><pitch><step>B</step><octave>4</octave></pitch><duration>2</duration><voice>1</voice><type>quarter</type><stem default-y="-51.5">down</stem><lyric default-y="-91" name="verse" number="1"><syllabic>single</syllabic><text font-size="10.8">wirst</text></lyric><lyric default-y="-115" name="verse" number="2"><syllabic>single</syllabic><text font-size="10.8">mich</text></lyric><lyric default-y="-140" name="verse" number="3"><syllabic>begin</syllabic><text font-size="10.8">ge</text></lyric></note><harmony default-y="36" font-size="10" font-weight="bold"><root><root-step>D</root-step></root><kind halign="center" text="7">dominant</kind></harmony><note default-x="201"><pitch><step>A</step><octave>4</octave></pitch><duration>1</duration><voice>1</voice><type>eighth</type><stem default-y="7">up</stem><lyric default-y="-91" name="verse" number="1"><syllabic>single</syllabic><text font-size="10.8">bei</text></lyric><lyric default-y="-115" name="verse" number="2"><syllabic>single</syllabic><text font-size="10.8">Schritt</text></lyric><lyric default-y="-140" name="verse" number="3"><syllabic>middle</syllabic><text font-size="10.8">blie</text></lyric></note><note default-x="293"><pitch><step>A</step><octave>4</octave></pitch><duration>3</duration><voice>1</voice><type>quarter</type><dot /><stem default-y="7">up</stem><lyric default-y="-91" name="verse" number="1"><syllabic>single</syllabic><text font-size="10.8">mir</text></lyric><lyric default-y="-115" name="verse" number="2"><syllabic>single</syllabic><text font-size="10.8">für</text></lyric><lyric default-y="-140" name="verse" number="3"><syllabic>end</syllabic><text font-size="10.8">ben</text></lyric></note></measure><!--=======================================================--><measure number="31" width="164"><harmony default-y="36" font-size="10" font-weight="bold"><root><root-step>G</root-step></root><kind halign="center" text="">major</kind></harmony><note default-x="29"><pitch><step>G</step><octave>4</octave></pitch><duration>8</duration><tie type="start" /><voice>1</voice><type>whole</type><notations><tied type="start" /></notations><lyric default-y="-91" name="verse" number="1"><syllabic>single</syllabic><text font-size="10.8">sein.</text><extend type="start" /></lyric><lyric default-y="-115" name="verse" number="2"><syllabic>single</syllabic><text font-size="10.8">Schritt!</text><extend type="start" /></lyric><lyric default-y="-140" name="verse" number="3"><syllabic>single</syllabic><text font-size="10.8">sind.</text><extend type="start" /></lyric></note><backup><duration>8</duration></backup><forward><duration>4</duration><voice>2</voice></forward><harmony default-y="36" font-size="10" font-weight="bold"><root><root-step>C</root-step></root><kind halign="center" text="">major</kind><bass><bass-step>G</bass-step></bass></harmony><forward><duration>4</duration><voice>2</voice></forward></measure><!--=======================================================--><measure number="32" width="155"><harmony default-y="36" font-size="10" font-weight="bold"><root><root-step>G</root-step></root><kind halign="center" text="7">dominant</kind></harmony><note default-x="19"><pitch><step>G</step><octave>4</octave></pitch><duration>6</duration><tie type="stop" /><voice>1</voice><type>half</type><dot /><stem default-y="2">up</stem><notations><tied type="stop" /></notations><lyric name="verse" number="1"><extend type="stop" /></lyric><lyric name="verse" number="2"><extend type="stop" /></lyric><lyric name="verse" number="3"><extend type="stop" /></lyric></note><note default-x="84"><rest /><duration>2</duration><voice>1</voice><type>quarter</type></note><direction placement="above"><direction-type><words default-x="157" default-y="14" font-style="italic" justify="right">D.C. al Fine</words></direction-type></direction><barline location="right"><bar-style>light-light</bar-style></barline></measure></part><!--=========================================================--></score-partwise>