<?xml version="1.0" encoding="UTF-8" standalone="no"?><!DOCTYPE score-partwise PUBLIC "-//Recordare//DTD MusicXML 3.0 Partwise//EN" "http://www.musicxml.org/dtds/partwise.dtd"[]><score-partwise version="3.0"><movement-title>Morgenstern</movement-title><identification><creator type="composer">Albert Frey</creator><encoding><software>Finale 2014 for Windows</software><software>Dolet Light for Finale 2014</software><encoding-date>2018-02-05</encoding-date><supports attribute="new-system" element="print" type="yes" value="yes" /><supports attribute="new-page" element="print" type="yes" value="yes" /><supports element="accidental" type="yes" /><supports element="beam" type="yes" /><supports element="stem" type="yes" /></encoding><rights>CCLI-Liednummer 4904898
© 2005 FREYKLANG
Nutzung ausschließlich im Rahmen der SongSelect®-Nutzungsbedingungen. Alle Rechte vorbehalten. www.ccli.com
CCLI-Lizenznummer 2182334
</rights></identification><defaults><scaling><millimeters>6.5088</millimeters><tenths>40</tenths></scaling><page-layout><page-height>1717</page-height><page-width>1327</page-width><page-margins type="both"><left-margin>78</left-margin><right-margin>78</right-margin><top-margin>78</top-margin><bottom-margin>78</bottom-margin></page-margins></page-layout><system-layout><system-margins><left-margin>0</left-margin><right-margin>0</right-margin></system-margins><system-distance>190</system-distance><top-system-distance>117</top-system-distance></system-layout><appearance><line-width type="stem">1.4583</line-width><line-width type="beam">5</line-width><line-width type="staff">1.25</line-width><line-width type="light barline">1.4583</line-width><line-width type="heavy barline">5</line-width><line-width type="leger">1.875</line-width><line-width type="ending">1.4583</line-width><line-width type="wedge">1.4583</line-width><line-width type="enclosure">1.4583</line-width><line-width type="tuplet bracket">1.4583</line-width><note-size type="grace">50</note-size><note-size type="cue">50</note-size><distance type="hyphen">240</distance><distance type="beam">8</distance></appearance><music-font font-family="Maestro,engraved" font-size="18.5" /><word-font font-family="Arial" font-size="9.2" /><lyric-font font-family="Arial" font-size="10.8" name="verse" /><lyric-font font-family="Arial" font-size="10.8" name="section" /></defaults><credit page="1"><credit-type>title</credit-type><credit-words default-x="663" default-y="1649" font-size="21.6" font-weight="bold" justify="center" valign="top">Morgenstern</credit-words></credit><credit page="1"><credit-words default-x="1249" default-y="1576" font-size="10.8" font-style="italic" justify="right" valign="top">Text und Musik:</credit-words></credit><credit page="1"><credit-type>composer</credit-type><credit-words default-x="1249" default-y="1552" font-size="10.8" font-weight="bold" justify="right" valign="top">Albert Frey</credit-words></credit><credit page="2"><credit-type>title</credit-type><credit-type>page number</credit-type><credit-words default-x="663" default-y="1663" font-size="10.8" justify="center" valign="top">Morgenstern - 2</credit-words></credit><part-list><score-part id="P1"><part-name print-object="no">Vocals</part-name><score-instrument id="P1-I2"><instrument-name>Melody</instrument-name></score-instrument><midi-instrument id="P1-I2"><midi-channel>1</midi-channel><midi-program>1</midi-program><volume>80</volume><pan>0</pan></midi-instrument></score-part></part-list><!--=========================================================--><part id="P1"><measure implicit="yes" number="0" width="610"><print page-number="1"><page-layout><page-height>1717</page-height><page-width>1327</page-width><page-margins><left-margin>78</left-margin><right-margin>78</right-margin><top-margin>190</top-margin><bottom-margin>163</bottom-margin></page-margins></page-layout><system-layout><system-margins><left-margin>68</left-margin><right-margin>0</right-margin></system-margins></system-layout><measure-numbering>system</measure-numbering></print><attributes><divisions>4</divisions><key><fifths>2</fifths><mode>minor</mode></key><time><beats>4</beats><beat-type>4</beat-type></time><clef><sign>G</sign><line>2</line></clef></attributes><sound tempo="96" /><note default-x="118"><rest /><duration>2</duration><voice>1</voice><type>eighth</type><lyric default-y="-91" name="verse" number="1"><syllabic>single</syllabic><text font-size="10.8">1.</text></lyric><lyric default-y="-115" name="verse" number="2"><syllabic>single</syllabic><text font-size="10.8">2.</text></lyric></note><note default-x="227"><pitch><step>B</step><octave>3</octave></pitch><duration>1</duration><voice>1</voice><type>16th</type><stem default-y="-19">up</stem><beam number="1">begin</beam><beam number="2">begin</beam><lyric default-y="-91" name="verse" number="1"><syllabic>begin</syllabic><text font-size="10.8">Mei</text></lyric><lyric default-y="-115" name="verse" number="2"><syllabic>begin</syllabic><text font-size="10.8">Die</text></lyric></note><note default-x="293"><pitch><step>D</step><octave>4</octave></pitch><duration>1</duration><voice>1</voice><type>16th</type><stem default-y="-13.5">up</stem><beam number="1">end</beam><beam number="2">end</beam><lyric default-y="-91" name="verse" number="1"><syllabic>end</syllabic><text font-size="10.8">ne</text></lyric><lyric default-y="-115" name="verse" number="2"><syllabic>end</syllabic><text font-size="10.8">sen</text></lyric></note><note default-x="360"><pitch><step>F</step><alter>1</alter><octave>4</octave></pitch><duration>2</duration><voice>1</voice><type>eighth</type><stem default-y="-4">up</stem><beam number="1">begin</beam><lyric default-y="-91" name="verse" number="1"><syllabic>begin</syllabic><text font-size="10.8">See</text></lyric><lyric default-y="-115" name="verse" number="2"><syllabic>single</syllabic><text font-size="10.8">Tag</text></lyric></note><note default-x="469"><pitch><step>E</step><octave>4</octave></pitch><duration>1</duration><voice>1</voice><type>16th</type><stem default-y="-7">up</stem><beam number="1">continue</beam><beam number="2">begin</beam><notations><slur number="1" placement="below" type="start" /></notations><lyric default-y="-91" name="verse" number="1"><syllabic>end</syllabic><text font-size="10.8">le</text><extend type="start" /></lyric><lyric default-y="-115" name="verse" number="2"><syllabic>single</syllabic><text font-size="10.8">will</text></lyric></note><note default-x="535"><pitch><step>D</step><octave>4</octave></pitch><duration>1</duration><voice>1</voice><type>16th</type><stem default-y="-8.5">up</stem><beam number="1">end</beam><beam number="2">end</beam><notations><slur number="1" type="stop" /></notations><lyric default-y="-115" name="verse" number="2"><syllabic>single</syllabic><text font-size="10.8">ich</text></lyric><lyric name="verse" number="1"><extend type="stop" /></lyric></note><barline location="right"><bar-style>light-light</bar-style></barline></measure><!--=======================================================--><measure number="1" width="492"><harmony default-y="36" font-size="10" font-weight="bold"><root><root-step>B</root-step></root><kind halign="center" text="m">minor</kind></harmony><direction placement="above"><direction-type><rehearsal default-y="69" font-weight="bold" relative-x="-15">VERS</rehearsal></direction-type></direction><note default-x="20"><pitch><step>E</step><octave>4</octave></pitch><duration>1</duration><voice>1</voice><type>16th</type><stem default-y="-8.5">up</stem><beam number="1">begin</beam><beam number="2">begin</beam><notations><slur number="1" placement="below" type="start" /></notations><lyric default-y="-91" name="verse" number="1"><syllabic>begin</syllabic><text font-size="10.8">sin</text></lyric><lyric default-y="-115" name="verse" number="2"><syllabic>begin</syllabic><text font-size="10.8">fei</text></lyric></note><note default-x="58"><pitch><step>D</step><octave>4</octave></pitch><duration>1</duration><voice>1</voice><type>16th</type><stem default-y="-11">up</stem><beam number="1">continue</beam><beam number="2">end</beam><notations><slur number="1" type="stop" /></notations></note><note default-x="97"><pitch><step>B</step><octave>3</octave></pitch><duration>2</duration><tie type="start" /><voice>1</voice><type>eighth</type><stem default-y="-13.5">up</stem><beam number="1">end</beam><notations><tied type="start" /></notations><lyric default-y="-91" name="verse" number="1"><syllabic>end</syllabic><text font-size="10.8">ge,</text><extend type="start" /></lyric><lyric default-y="-115" name="verse" number="2"><syllabic>end</syllabic><text font-size="10.8">ern,</text><extend type="start" /></lyric></note><note default-x="160"><pitch><step>B</step><octave>3</octave></pitch><duration>4</duration><tie type="stop" /><voice>1</voice><type>quarter</type><stem default-y="-19">up</stem><notations><tied type="stop" /></notations><lyric name="verse" number="1"><extend type="stop" /></lyric><lyric name="verse" number="2"><extend type="stop" /></lyric></note><harmony default-y="36" font-size="10" font-weight="bold"><root><root-step>G</root-step></root><kind halign="center" text="">major</kind></harmony><note default-x="263"><rest /><duration>4</duration><voice>1</voice><type>quarter</type></note><note default-x="364"><pitch><step>B</step><octave>3</octave></pitch><duration>2</duration><voice>1</voice><type>eighth</type><stem default-y="-20">up</stem><beam number="1">begin</beam><lyric default-y="-91" name="verse" number="1"><syllabic>single</syllabic><text font-size="10.8">denn</text></lyric><lyric default-y="-115" name="verse" number="2"><syllabic>single</syllabic><text font-size="10.8">er</text></lyric></note><note default-x="427"><pitch><step>B</step><octave>3</octave></pitch><duration>2</duration><voice>1</voice><type>eighth</type><stem default-y="-20">up</stem><beam number="1">end</beam><lyric default-y="-91" name="verse" number="1"><syllabic>single</syllabic><text font-size="10.8">die</text></lyric><lyric default-y="-115" name="verse" number="2"><syllabic>single</syllabic><text font-size="10.8">hat</text></lyric></note></measure><!--=======================================================--><measure number="2" width="787"><print new-system="yes"><system-layout><system-distance>180</system-distance></system-layout></print><harmony default-y="36" font-size="10" font-weight="bold"><root><root-step>A</root-step></root><kind halign="center" text="">major</kind></harmony><note default-x="97"><pitch><step>A</step><octave>3</octave></pitch><duration>2</duration><voice>1</voice><type>eighth</type><stem default-y="-20">up</stem><beam number="1">begin</beam><lyric default-y="-91" name="verse" number="1"><syllabic>single</syllabic><text font-size="10.8">Nacht</text></lyric><lyric default-y="-115" name="verse" number="2"><syllabic>begin</syllabic><text font-size="10.8">al</text></lyric></note><note default-x="179"><pitch><step>A</step><octave>3</octave></pitch><duration>2</duration><voice>1</voice><type>eighth</type><stem default-y="-20">up</stem><beam number="1">end</beam><lyric default-y="-91" name="verse" number="1"><syllabic>single</syllabic><text font-size="10.8">ist</text></lyric><lyric default-y="-115" name="verse" number="2"><syllabic>end</syllabic><text font-size="10.8">les</text></lyric></note><note default-x="254"><pitch><step>B</step><octave>3</octave></pitch><duration>2</duration><voice>1</voice><type>eighth</type><stem default-y="-20">up</stem><beam number="1">begin</beam><lyric default-y="-91" name="verse" number="1"><syllabic>begin</syllabic><text font-size="10.8">vor</text></lyric><lyric default-y="-115" name="verse" number="2"><syllabic>begin</syllabic><text font-size="10.8">ge</text></lyric></note><harmony default-y="36" font-size="10" font-weight="bold"><root><root-step>B</root-step></root><kind halign="center" text="m">minor</kind></harmony><note default-x="331"><pitch><step>B</step><octave>3</octave></pitch><duration>2</duration><tie type="start" /><voice>1</voice><type>eighth</type><stem default-y="-20">up</stem><beam number="1">end</beam><notations><tied type="start" /></notations><lyric default-y="-91" name="verse" number="1"><syllabic>end</syllabic><text font-size="10.8">bei.</text><extend type="start" /></lyric><lyric default-y="-115" name="verse" number="2"><syllabic>end</syllabic><text font-size="10.8">tan,</text><extend type="start" /></lyric></note><note default-x="401"><pitch><step>B</step><octave>3</octave></pitch><duration>2</duration><tie type="stop" /><voice>1</voice><type>eighth</type><stem default-y="-18">up</stem><beam number="1">begin</beam><notations><tied type="stop" /></notations><lyric name="verse" number="1"><extend type="stop" /></lyric><lyric name="verse" number="2"><extend type="stop" /></lyric></note><note default-x="473"><pitch><step>B</step><octave>3</octave></pitch><duration>1</duration><voice>1</voice><type>16th</type><stem default-y="-16">up</stem><beam number="1">continue</beam><beam number="2">begin</beam><lyric default-y="-91" name="verse" number="1"><syllabic>single</syllabic><text font-size="10.8">Mach</text></lyric><lyric default-y="-115" name="verse" number="2"><syllabic>single</syllabic><text font-size="10.8">um</text></lyric></note><note default-x="540"><pitch><step>D</step><octave>4</octave></pitch><duration>1</duration><voice>1</voice><type>16th</type><stem default-y="-13.5">up</stem><beam number="1">end</beam><beam number="2">end</beam><lyric default-y="-91" name="verse" number="1"><syllabic>single</syllabic><text font-size="10.8">dich</text></lyric><lyric default-y="-115" name="verse" number="2"><syllabic>single</syllabic><text font-size="10.8">die</text></lyric></note><note default-x="605"><pitch><step>F</step><alter>1</alter><octave>4</octave></pitch><duration>2</duration><voice>1</voice><type>eighth</type><stem default-y="-4">up</stem><beam number="1">begin</beam><lyric default-y="-91" name="verse" number="1"><syllabic>single</syllabic><text font-size="10.8">auf</text></lyric><lyric default-y="-115" name="verse" number="2"><syllabic>single</syllabic><text font-size="10.8">Welt</text></lyric></note><note default-x="686"><pitch><step>E</step><octave>4</octave></pitch><duration>1</duration><voice>1</voice><type>16th</type><stem default-y="-6.5">up</stem><beam number="1">continue</beam><beam number="2">begin</beam><notations><slur number="1" placement="below" type="start" /></notations><lyric default-y="-91" name="verse" number="1"><syllabic>single</syllabic><text font-size="10.8">und</text><extend type="start" /></lyric><lyric default-y="-115" name="verse" number="2"><syllabic>single</syllabic><text font-size="10.8">zu</text></lyric></note><note default-x="737"><pitch><step>D</step><octave>4</octave></pitch><duration>1</duration><voice>1</voice><type>16th</type><stem default-y="-8.5">up</stem><beam number="1">end</beam><beam number="2">end</beam><notations><slur number="1" type="stop" /></notations><lyric default-y="-115" name="verse" number="2"><syllabic>begin</syllabic><text font-size="10.8">er</text></lyric><lyric name="verse" number="1"><extend type="stop" /></lyric></note></measure><!--=======================================================--><measure number="3" width="383"><note default-x="12"><pitch><step>E</step><octave>4</octave></pitch><duration>1</duration><voice>1</voice><type>16th</type><stem default-y="-8.5">up</stem><beam number="1">begin</beam><beam number="2">begin</beam><notations><slur number="1" placement="below" type="start" /></notations><lyric default-y="-91" name="verse" number="1"><syllabic>begin</syllabic><text font-size="10.8">brin</text></lyric><lyric default-y="-115" name="verse" number="2"><syllabic>middle</syllabic><text font-size="10.8">neu</text></lyric></note><note default-x="42"><pitch><step>D</step><octave>4</octave></pitch><duration>1</duration><voice>1</voice><type>16th</type><stem default-y="-11">up</stem><beam number="1">continue</beam><beam number="2">end</beam><notations><slur number="1" type="stop" /></notations></note><note default-x="77"><pitch><step>B</step><octave>3</octave></pitch><duration>2</duration><tie type="start" /><voice>1</voice><type>eighth</type><stem default-y="-13.5">up</stem><beam number="1">end</beam><notations><tied type="start" /></notations><lyric default-y="-91" name="verse" number="1"><syllabic>end</syllabic><text font-size="10.8">ge</text><extend type="start" /></lyric><lyric default-y="-115" name="verse" number="2"><syllabic>end</syllabic><text font-size="10.8">ern,</text><extend type="start" /></lyric></note><note default-x="126"><pitch><step>B</step><octave>3</octave></pitch><duration>4</duration><tie type="stop" /><voice>1</voice><type>quarter</type><stem default-y="-19">up</stem><notations><tied type="stop" /></notations><lyric name="verse" number="1"><extend type="stop" /></lyric><lyric name="verse" number="2"><extend type="stop" /></lyric></note><harmony default-y="36" font-size="10" font-weight="bold"><root><root-step>G</root-step></root><kind halign="center" text="">major</kind></harmony><note default-x="200"><rest /><duration>4</duration><voice>1</voice><type>quarter</type></note><note default-x="274"><pitch><step>B</step><octave>3</octave></pitch><duration>2</duration><voice>1</voice><type>eighth</type><stem default-y="-20">up</stem><beam number="1">begin</beam><lyric default-y="-91" name="verse" number="1"><syllabic>begin</syllabic><text font-size="10.8">dei</text></lyric><lyric default-y="-115" name="verse" number="2"><syllabic>begin</syllabic><text font-size="10.8">Je</text></lyric></note><note default-x="329"><pitch><step>B</step><octave>3</octave></pitch><duration>2</duration><voice>1</voice><type>eighth</type><stem default-y="-20">up</stem><beam number="1">end</beam><lyric default-y="-91" name="verse" number="1"><syllabic>end</syllabic><text font-size="10.8">nem</text></lyric><lyric default-y="-115" name="verse" number="2"><syllabic>end</syllabic><text font-size="10.8">sus</text></lyric></note></measure><!--=======================================================--><measure number="4" width="770"><print new-system="yes"><system-layout><system-distance>180</system-distance></system-layout></print><harmony default-y="36" font-size="10" font-weight="bold"><root><root-step>A</root-step></root><kind halign="center" text="">major</kind></harmony><note default-x="98"><pitch><step>A</step><octave>3</octave></pitch><duration>2</duration><voice>1</voice><type>eighth</type><stem default-y="-19.5">up</stem><beam number="1">begin</beam><lyric default-y="-91" name="verse" number="1"><syllabic>single</syllabic><text font-size="10.8">Gott</text></lyric><lyric default-y="-115" name="verse" number="2"><syllabic>single</syllabic><text font-size="10.8">selbst</text></lyric></note><note default-x="184"><pitch><step>A</step><octave>3</octave></pitch><duration>2</duration><voice>1</voice><type>eighth</type><stem default-y="-19.5">up</stem><beam number="1">end</beam><lyric default-y="-91" name="verse" number="1"><syllabic>single</syllabic><text font-size="10.8">Lob</text></lyric><lyric default-y="-115" name="verse" number="2"><syllabic>single</syllabic><text font-size="10.8">geht</text></lyric></note><note default-x="264"><pitch><step>B</step><octave>3</octave></pitch><duration>2</duration><voice>1</voice><type>eighth</type><stem default-y="-19.5">up</stem><beam number="1">begin</beam><lyric default-y="-91" name="verse" number="1"><syllabic>single</syllabic><text font-size="10.8">und</text></lyric><lyric default-y="-115" name="verse" number="2"><syllabic>begin</syllabic><text font-size="10.8">vo</text></lyric></note><harmony default-y="36" font-size="10" font-weight="bold"><root><root-step>B</root-step></root><kind halign="center" text="m">minor</kind></harmony><note default-x="347"><pitch><step>B</step><octave>3</octave></pitch><duration>2</duration><tie type="start" /><voice>1</voice><type>eighth</type><stem default-y="-19.5">up</stem><beam number="1">end</beam><notations><tied type="start" /></notations><lyric default-y="-91" name="verse" number="1"><syllabic>single</syllabic><text font-size="10.8">Preis.</text><extend type="start" /></lyric><lyric default-y="-115" name="verse" number="2"><syllabic>end</syllabic><text font-size="10.8">ran.</text><extend type="start" /></lyric></note><note default-x="415"><pitch><step>B</step><octave>3</octave></pitch><duration>2</duration><tie type="stop" /><voice>1</voice><type>eighth</type><stem default-y="-18.5">up</stem><beam number="1">begin</beam><notations><tied type="stop" /></notations><lyric name="verse" number="1"><extend type="stop" /></lyric><lyric name="verse" number="2"><extend type="stop" /></lyric></note><note default-x="477"><pitch><step>B</step><octave>3</octave></pitch><duration>1</duration><voice>1</voice><type>16th</type><stem default-y="-16">up</stem><beam number="1">continue</beam><beam number="2">begin</beam><lyric default-y="-91" name="verse" number="1"><syllabic>begin</syllabic><text font-size="10.8">Al</text></lyric><lyric default-y="-115" name="verse" number="2"><syllabic>single</syllabic><text font-size="10.8">Er</text></lyric></note><note default-x="532"><pitch><step>D</step><octave>4</octave></pitch><duration>1</duration><voice>1</voice><type>16th</type><stem default-y="-14">up</stem><beam number="1">end</beam><beam number="2">end</beam><lyric default-y="-91" name="verse" number="1"><syllabic>end</syllabic><text font-size="10.8">le</text></lyric><lyric default-y="-115" name="verse" number="2"><syllabic>single</syllabic><text font-size="10.8">hat</text></lyric></note><note default-x="598"><pitch><step>F</step><alter>1</alter><octave>4</octave></pitch><duration>2</duration><voice>1</voice><type>eighth</type><stem default-y="-3">up</stem><beam number="1">begin</beam><lyric default-y="-91" name="verse" number="1"><syllabic>begin</syllabic><text font-size="10.8">Schöp</text></lyric><lyric default-y="-115" name="verse" number="2"><syllabic>begin</syllabic><text font-size="10.8">ü</text></lyric></note><note default-x="687"><pitch><step>E</step><octave>4</octave></pitch><duration>1</duration><voice>1</voice><type>16th</type><stem default-y="-7">up</stem><beam number="1">continue</beam><beam number="2">begin</beam><notations><slur number="1" placement="below" type="start" /></notations><lyric default-y="-91" name="verse" number="1"><syllabic>end</syllabic><text font-size="10.8">fung</text><extend type="start" /></lyric><lyric default-y="-115" name="verse" number="2"><syllabic>middle</syllabic><text font-size="10.8">ber</text></lyric></note><note default-x="728"><pitch><step>D</step><octave>4</octave></pitch><duration>1</duration><voice>1</voice><type>16th</type><stem default-y="-9">up</stem><beam number="1">end</beam><beam number="2">end</beam><notations><slur number="1" type="stop" /></notations><lyric name="verse" number="1"><extend type="stop" /></lyric></note></measure><!--=======================================================--><measure number="5" width="401"><note default-x="15"><pitch><step>E</step><octave>4</octave></pitch><duration>1</duration><voice>1</voice><type>16th</type><stem default-y="-9">up</stem><beam number="1">begin</beam><beam number="2">begin</beam><notations><slur number="1" placement="below" type="start" /></notations><lyric default-y="-91" name="verse" number="1"><syllabic>begin</syllabic><text font-size="10.8">jub</text></lyric><lyric default-y="-115" name="verse" number="2"><syllabic>middle</syllabic><text font-size="10.8">wun</text></lyric></note><note default-x="47"><pitch><step>D</step><octave>4</octave></pitch><duration>1</duration><voice>1</voice><type>16th</type><stem default-y="-11">up</stem><beam number="1">continue</beam><beam number="2">end</beam><notations><slur number="1" type="stop" /></notations></note><note default-x="85"><pitch><step>B</step><octave>3</octave></pitch><duration>2</duration><tie type="start" /><voice>1</voice><type>eighth</type><stem default-y="-14">up</stem><beam number="1">end</beam><notations><tied type="start" /></notations><lyric default-y="-91" name="verse" number="1"><syllabic>end</syllabic><text font-size="10.8">le,</text><extend type="start" /></lyric><lyric default-y="-115" name="verse" number="2"><syllabic>end</syllabic><text font-size="10.8">den,</text><extend type="start" /></lyric></note><note default-x="135"><pitch><step>B</step><octave>3</octave></pitch><duration>4</duration><tie type="stop" /><voice>1</voice><type>quarter</type><stem default-y="-19">up</stem><notations><tied type="stop" /></notations><lyric name="verse" number="1"><extend type="stop" /></lyric><lyric name="verse" number="2"><extend type="stop" /></lyric></note><harmony default-y="36" font-size="10" font-weight="bold"><root><root-step>G</root-step></root><kind halign="center" text="">major</kind></harmony><note default-x="209"><rest /><duration>4</duration><voice>1</voice><type>quarter</type></note><note default-x="283"><pitch><step>B</step><octave>3</octave></pitch><duration>2</duration><voice>1</voice><type>eighth</type><stem default-y="-19.5">up</stem><beam number="1">begin</beam><lyric default-y="-91" name="verse" number="1"><syllabic>single</syllabic><text font-size="10.8">wenn</text></lyric><lyric default-y="-115" name="verse" number="2"><syllabic>begin</syllabic><text font-size="10.8">al</text></lyric></note><note default-x="345"><pitch><step>B</step><octave>3</octave></pitch><duration>2</duration><voice>1</voice><type>eighth</type><stem default-y="-19.5">up</stem><beam number="1">end</beam><lyric default-y="-91" name="verse" number="1"><syllabic>single</syllabic><text font-size="10.8">der</text></lyric><lyric default-y="-115" name="verse" number="2"><syllabic>end</syllabic><text font-size="10.8">le</text></lyric></note></measure><!--=======================================================--><measure number="6" width="791"><print new-system="yes"><system-layout><system-distance>180</system-distance></system-layout></print><harmony default-y="36" font-size="10" font-weight="bold"><root><root-step>A</root-step></root><kind halign="center" text="">major</kind></harmony><note default-x="95"><pitch><step>A</step><octave>3</octave></pitch><duration>2</duration><voice>1</voice><type>eighth</type><stem default-y="-20">up</stem><beam number="1">begin</beam><lyric default-y="-91" name="verse" number="1"><syllabic>single</syllabic><text font-size="10.8">Tag</text></lyric><lyric default-y="-115" name="verse" number="2"><syllabic>begin</syllabic><text font-size="10.8">Mäch</text></lyric></note><note default-x="177"><pitch><step>A</step><octave>3</octave></pitch><duration>2</duration><voice>1</voice><type>eighth</type><stem default-y="-20">up</stem><beam number="1">end</beam><lyric default-y="-91" name="verse" number="1"><syllabic>single</syllabic><text font-size="10.8">nun</text></lyric><lyric default-y="-115" name="verse" number="2"><syllabic>end</syllabic><text font-size="10.8">te</text></lyric></note><note default-x="255"><pitch><step>B</step><octave>3</octave></pitch><duration>2</duration><voice>1</voice><type>eighth</type><stem default-y="-20">up</stem><beam number="1">begin</beam><lyric default-y="-91" name="verse" number="1"><syllabic>begin</syllabic><text font-size="10.8">an</text></lyric><lyric default-y="-115" name="verse" number="2"><syllabic>single</syllabic><text font-size="10.8">der</text></lyric></note><harmony default-y="36" font-size="10" font-weight="bold"><root><root-step>B</root-step></root><kind halign="center" text="m">minor</kind></harmony><note default-x="340"><pitch><step>B</step><octave>3</octave></pitch><duration>2</duration><tie type="start" /><voice>1</voice><type>eighth</type><stem default-y="-20">up</stem><beam number="1">end</beam><notations><tied type="start" /></notations><lyric default-y="-91" name="verse" number="1"><syllabic>end</syllabic><text font-size="10.8">bricht.</text><extend type="start" /></lyric><lyric default-y="-115" name="verse" number="2"><syllabic>single</syllabic><text font-size="10.8">Nacht.</text><extend type="start" /></lyric></note><note default-x="412"><pitch><step>B</step><octave>3</octave></pitch><duration>2</duration><tie type="stop" /><voice>1</voice><type>eighth</type><stem default-y="-18.5">up</stem><beam number="1">begin</beam><notations><tied type="stop" /></notations><lyric name="verse" number="1"><extend type="stop" /></lyric><lyric name="verse" number="2"><extend type="stop" /></lyric></note><note default-x="481"><pitch><step>B</step><octave>3</octave></pitch><duration>1</duration><voice>1</voice><type>16th</type><stem default-y="-16">up</stem><beam number="1">continue</beam><beam number="2">begin</beam><lyric default-y="-91" name="verse" number="1"><syllabic>begin</syllabic><text font-size="10.8">Got</text></lyric><lyric default-y="-115" name="verse" number="2"><syllabic>single</syllabic><text font-size="10.8">Er</text></lyric></note><note default-x="539"><pitch><step>D</step><octave>4</octave></pitch><duration>1</duration><voice>1</voice><type>16th</type><stem default-y="-14">up</stem><beam number="1">end</beam><beam number="2">end</beam><lyric default-y="-91" name="verse" number="1"><syllabic>end</syllabic><text font-size="10.8">tes</text></lyric><lyric default-y="-115" name="verse" number="2"><syllabic>single</syllabic><text font-size="10.8">hat</text></lyric></note><note default-x="601"><pitch><step>F</step><alter>1</alter><octave>4</octave></pitch><duration>2</duration><voice>1</voice><type>eighth</type><stem default-y="-3.5">up</stem><beam number="1">begin</beam><lyric default-y="-91" name="verse" number="1"><syllabic>begin</syllabic><text font-size="10.8">Töch</text></lyric><lyric default-y="-115" name="verse" number="2"><syllabic>single</syllabic><text font-size="10.8">mich</text></lyric></note><note default-x="680"><pitch><step>E</step><octave>4</octave></pitch><duration>1</duration><voice>1</voice><type>16th</type><stem default-y="-7">up</stem><beam number="1">continue</beam><beam number="2">begin</beam><lyric default-y="-91" name="verse" number="1"><syllabic>end</syllabic><text font-size="10.8">ter</text></lyric><lyric default-y="-115" name="verse" number="2"><syllabic>begin</syllabic><text font-size="10.8">ge</text></lyric></note><note default-x="737"><pitch><step>D</step><octave>4</octave></pitch><duration>1</duration><voice>1</voice><type>16th</type><stem default-y="-9">up</stem><beam number="1">end</beam><beam number="2">end</beam><lyric default-y="-91" name="verse" number="1"><syllabic>single</syllabic><text font-size="10.8">und</text></lyric></note></measure><!--=======================================================--><measure number="7" width="380"><note default-x="14"><pitch><step>E</step><octave>4</octave></pitch><duration>1</duration><voice>1</voice><type>16th</type><stem default-y="-9">up</stem><beam number="1">begin</beam><beam number="2">begin</beam><notations><slur number="1" placement="below" type="start" /></notations><lyric default-y="-91" name="verse" number="1"><syllabic>begin</syllabic><text font-size="10.8">Söh</text></lyric><lyric default-y="-115" name="verse" number="2"><syllabic>middle</syllabic><text font-size="10.8">fun</text></lyric></note><note default-x="44"><pitch><step>D</step><octave>4</octave></pitch><duration>1</duration><voice>1</voice><type>16th</type><stem default-y="-11">up</stem><beam number="1">continue</beam><beam number="2">end</beam><notations><slur number="1" type="stop" /></notations></note><note default-x="79"><pitch><step>B</step><octave>3</octave></pitch><duration>2</duration><tie type="start" /><voice>1</voice><type>eighth</type><stem default-y="-14">up</stem><beam number="1">end</beam><notations><tied type="start" /></notations><lyric default-y="-91" name="verse" number="1"><syllabic>end</syllabic><text font-size="10.8">ne</text><extend type="start" /></lyric><lyric default-y="-115" name="verse" number="2"><syllabic>end</syllabic><text font-size="10.8">den</text><extend type="start" /></lyric></note><note default-x="128"><pitch><step>B</step><octave>3</octave></pitch><duration>4</duration><tie type="stop" /><voice>1</voice><type>quarter</type><stem default-y="-19">up</stem><notations><tied type="stop" /></notations><lyric name="verse" number="1"><extend type="stop" /></lyric><lyric name="verse" number="2"><extend type="stop" /></lyric></note><harmony default-y="36" font-size="10" font-weight="bold"><root><root-step>G</root-step></root><kind halign="center" text="">major</kind></harmony><note default-x="198"><rest /><duration>4</duration><voice>1</voice><type>quarter</type></note><note default-x="267"><pitch><step>B</step><octave>3</octave></pitch><duration>2</duration><voice>1</voice><type>eighth</type><stem default-y="-20">up</stem><beam number="1">begin</beam><lyric default-y="-91" name="verse" number="1"><syllabic>begin</syllabic><text font-size="10.8">strah</text></lyric><lyric default-y="-115" name="verse" number="2"><syllabic>single</syllabic><text font-size="10.8">und</text></lyric></note><note default-x="326"><pitch><step>B</step><octave>3</octave></pitch><duration>2</duration><voice>1</voice><type>eighth</type><stem default-y="-20">up</stem><beam number="1">end</beam><lyric default-y="-91" name="verse" number="1"><syllabic>end</syllabic><text font-size="10.8">len</text></lyric><lyric default-y="-115" name="verse" number="2"><syllabic>single</syllabic><text font-size="10.8">mir</text></lyric></note></measure><!--=======================================================--><measure number="8" width="704"><print new-system="yes"><system-layout><system-distance>180</system-distance></system-layout></print><harmony default-y="36" font-size="10" font-weight="bold"><root><root-step>A</root-step></root><kind halign="center" text="">major</kind></harmony><note default-x="88"><pitch><step>A</step><octave>3</octave></pitch><duration>2</duration><voice>1</voice><type>eighth</type><stem default-y="-20">up</stem><beam number="1">begin</beam><lyric default-y="-91" name="verse" number="1"><syllabic>single</syllabic><text font-size="10.8">in</text></lyric><lyric default-y="-115" name="verse" number="2"><syllabic>begin</syllabic><text font-size="10.8">Le</text></lyric></note><note default-x="164"><pitch><step>A</step><octave>3</octave></pitch><duration>2</duration><voice>1</voice><type>eighth</type><stem default-y="-20">up</stem><beam number="1">end</beam><lyric default-y="-91" name="verse" number="1"><syllabic>begin</syllabic><text font-size="10.8">sei</text></lyric><lyric default-y="-115" name="verse" number="2"><syllabic>end</syllabic><text font-size="10.8">ben</text></lyric></note><note default-x="240"><pitch><step>B</step><octave>3</octave></pitch><duration>2</duration><voice>1</voice><type>eighth</type><stem default-y="-20">up</stem><beam number="1">begin</beam><lyric default-y="-91" name="verse" number="1"><syllabic>end</syllabic><text font-size="10.8">nem</text></lyric><lyric default-y="-115" name="verse" number="2"><syllabic>begin</syllabic><text font-size="10.8">ge</text></lyric></note><harmony default-y="36" font-size="10" font-weight="bold"><root><root-step>B</root-step></root><kind halign="center" text="m">minor</kind></harmony><note default-x="316"><pitch><step>B</step><octave>3</octave></pitch><duration>2</duration><voice>1</voice><type>eighth</type><stem default-y="-20">up</stem><beam number="1">end</beam><lyric default-y="-91" name="verse" number="1"><syllabic>single</syllabic><text font-size="10.8">Licht.</text></lyric><lyric default-y="-115" name="verse" number="2"><syllabic>end</syllabic><text font-size="10.8">bracht.</text></lyric></note><note default-x="392"><rest /><duration>2</duration><voice>1</voice><type>eighth</type></note><note default-x="468"><pitch><step>B</step><octave>3</octave></pitch><duration>2</duration><voice>1</voice><type>eighth</type><stem default-y="-19">up</stem><lyric default-y="-91" name="verse" number="1"><syllabic>single</syllabic><text font-size="10.8">Der</text></lyric></note><note default-x="544"><pitch><step>D</step><octave>4</octave></pitch><duration>2</duration><voice>1</voice><type>eighth</type><stem default-y="-8">up</stem><beam number="1">begin</beam><lyric default-y="-91" name="verse" number="1"><syllabic>begin</syllabic><text font-size="10.8">wah</text></lyric></note><harmony default-y="36" font-size="10" font-weight="bold"><root><root-step>B</root-step></root><kind halign="center" text="m">minor</kind><bass><bass-step>A</bass-step></bass></harmony><note default-x="620"><pitch><step>F</step><alter>1</alter><octave>4</octave></pitch><duration>2</duration><voice>1</voice><type>eighth</type><stem default-y="-3.5">up</stem><beam number="1">end</beam><lyric default-y="-91" name="verse" number="1"><syllabic>end</syllabic><text font-size="10.8">re</text></lyric></note><barline location="right"><bar-style>light-light</bar-style></barline></measure><!--=======================================================--><measure number="9" width="467"><harmony default-y="36" font-size="10" font-weight="bold"><root><root-step>G</root-step></root><kind halign="center" text="">major</kind></harmony><direction placement="above"><direction-type><rehearsal default-y="69" font-weight="bold" relative-x="-5">CHORUS</rehearsal></direction-type></direction><note default-x="12"><rest /><duration>2</duration><voice>1</voice><type>eighth</type></note><note default-x="68"><pitch><step>B</step><octave>4</octave></pitch><duration>2</duration><voice>1</voice><type>eighth</type><stem default-y="-52">down</stem><lyric default-y="-91" name="verse" number="1"><syllabic>begin</syllabic><text font-size="10.8">Mor</text></lyric></note><note default-x="132"><pitch><step>A</step><octave>4</octave></pitch><duration>2</duration><voice>1</voice><type>eighth</type><stem default-y="6">up</stem><beam number="1">begin</beam><lyric default-y="-91" name="verse" number="1"><syllabic>middle</syllabic><text font-size="10.8">gen</text></lyric></note><harmony default-y="36" font-size="10" font-weight="bold"><root><root-step>D</root-step></root><kind halign="center" text="">major</kind></harmony><note default-x="198"><pitch><step>A</step><octave>4</octave></pitch><duration>2</duration><tie type="start" /><voice>1</voice><type>eighth</type><stem default-y="6">up</stem><beam number="1">end</beam><notations><tied type="start" /></notations><lyric default-y="-91" name="verse" number="1"><syllabic>end</syllabic><text font-size="10.8">stern,</text><extend type="start" /></lyric></note><note default-x="255"><pitch><step>A</step><octave>4</octave></pitch><duration>4</duration><tie type="stop" /><voice>1</voice><type>quarter</type><stem default-y="7">up</stem><notations><tied type="stop" /></notations><lyric name="verse" number="1"><extend type="stop" /></lyric></note><note default-x="346"><pitch><step>D</step><octave>4</octave></pitch><duration>2</duration><voice>1</voice><type>eighth</type><stem default-y="-14">up</stem><beam number="1">begin</beam><lyric default-y="-91" name="verse" number="1"><syllabic>single</syllabic><text font-size="10.8">er</text></lyric></note><note default-x="406"><pitch><step>E</step><octave>4</octave></pitch><duration>2</duration><voice>1</voice><type>eighth</type><stem default-y="-8">up</stem><beam number="1">end</beam><lyric default-y="-91" name="verse" number="1"><syllabic>single</syllabic><text font-size="10.8">ist</text></lyric></note></measure><!--=======================================================--><measure number="10" width="561"><print new-system="yes"><system-layout><system-distance>180</system-distance></system-layout></print><harmony default-y="36" font-size="10" font-weight="bold"><root><root-step>A</root-step></root><kind halign="center" text="">major</kind></harmony><note default-x="88"><rest /><duration>2</duration><voice>1</voice><type>eighth</type></note><note default-x="153"><pitch><step>F</step><alter>1</alter><octave>4</octave></pitch><duration>2</duration><voice>1</voice><type>eighth</type><stem default-y="-3">up</stem><lyric default-y="-91" name="verse" number="1"><syllabic>begin</syllabic><text font-size="10.8">auf</text></lyric></note><note default-x="218"><pitch><step>E</step><octave>4</octave></pitch><duration>2</duration><voice>1</voice><type>eighth</type><stem default-y="-8.5">up</stem><beam number="1">begin</beam><lyric default-y="-91" name="verse" number="1"><syllabic>middle</syllabic><text font-size="10.8">ge</text></lyric></note><harmony default-y="36" font-size="10" font-weight="bold"><root><root-step>B</root-step></root><kind halign="center" text="m">minor</kind></harmony><note default-x="284"><pitch><step>D</step><octave>4</octave></pitch><duration>2</duration><voice>1</voice><type>eighth</type><stem default-y="-14">up</stem><beam number="1">end</beam><lyric default-y="-91" name="verse" number="1"><syllabic>middle</syllabic><text font-size="10.8">gan</text></lyric></note><note default-x="350"><pitch><step>B</step><octave>3</octave></pitch><duration>4</duration><voice>1</voice><type>quarter</type><stem default-y="-19">up</stem><lyric default-y="-91" name="verse" number="1"><syllabic>end</syllabic><text font-size="10.8">gen,</text></lyric></note><note default-x="455"><rest /><duration>4</duration><voice>1</voice><type>quarter</type></note></measure><!--=======================================================--><measure number="11" width="609"><harmony default-y="36" font-size="10" font-weight="bold"><root><root-step>G</root-step></root><kind halign="center" text="">major</kind></harmony><note default-x="13"><rest /><duration>2</duration><voice>1</voice><type>eighth</type></note><note default-x="87"><pitch><step>B</step><octave>4</octave></pitch><duration>2</duration><voice>1</voice><type>eighth</type><stem default-y="-52">down</stem><lyric default-y="-91" name="verse" number="1"><syllabic>single</syllabic><text font-size="10.8">der</text></lyric></note><note default-x="162"><pitch><step>A</step><octave>4</octave></pitch><duration>2</duration><voice>1</voice><type>eighth</type><stem default-y="6">up</stem><beam number="1">begin</beam><lyric default-y="-91" name="verse" number="1"><syllabic>begin</syllabic><text font-size="10.8">Er</text></lyric></note><harmony default-y="36" font-size="10" font-weight="bold"><root><root-step>F</root-step><root-alter>1</root-alter></root><kind halign="center" text="m">minor</kind></harmony><note default-x="236"><pitch><step>A</step><octave>4</octave></pitch><duration>2</duration><tie type="start" /><voice>1</voice><type>eighth</type><stem default-y="6">up</stem><beam number="1">end</beam><notations><tied type="start" /></notations><lyric default-y="-91" name="verse" number="1"><syllabic>middle</syllabic><text font-size="10.8">lö</text></lyric></note><note default-x="311"><pitch><step>A</step><octave>4</octave></pitch><duration>2</duration><tie type="stop" /><voice>1</voice><type>eighth</type><stem default-y="6">up</stem><beam number="1">begin</beam><notations><tied type="stop" /></notations></note><note default-x="384"><pitch><step>F</step><alter>1</alter><octave>4</octave></pitch><duration>2</duration><voice>1</voice><type>eighth</type><stem default-y="1">up</stem><beam number="1">end</beam><lyric default-y="-91" name="verse" number="1"><syllabic>end</syllabic><text font-size="10.8">ser</text></lyric></note><note default-x="459"><pitch><step>A</step><octave>4</octave></pitch><duration>2</duration><voice>1</voice><type>eighth</type><stem default-y="6">up</stem><beam number="1">begin</beam><lyric default-y="-91" name="verse" number="1"><syllabic>single</syllabic><text font-size="10.8">ist</text></lyric></note><note default-x="533"><pitch><step>B</step><octave>4</octave></pitch><duration>2</duration><tie type="start" /><voice>1</voice><type>eighth</type><stem default-y="11">up</stem><beam number="1">end</beam><notations><tied type="start" /></notations><lyric default-y="-91" name="verse" number="1"><syllabic>single</syllabic><text font-size="10.8">hier.</text><extend type="start" /></lyric></note></measure><!--=======================================================--><measure number="12" width="423"><print new-page="yes" page-number="2" /><harmony default-y="36" font-size="10" font-weight="bold"><root><root-step>E</root-step></root><kind halign="center" text="">major</kind></harmony><note default-x="85"><pitch><step>B</step><octave>4</octave></pitch><duration>8</duration><tie type="stop" /><voice>1</voice><type>half</type><stem default-y="-51.5">down</stem><notations><tied type="stop" /></notations><lyric name="verse" number="1"><extend type="stop" /></lyric></note><note default-x="190"><rest /><duration>2</duration><voice>1</voice><type>eighth</type></note><note default-x="230"><pitch><step>B</step><octave>3</octave></pitch><duration>2</duration><voice>1</voice><type>eighth</type><stem default-y="-19">up</stem><lyric default-y="-91" name="verse" number="1"><syllabic>single</syllabic><text font-size="10.8">Ich</text></lyric></note><harmony default-y="36" font-size="10" font-weight="bold"><root><root-step>B</root-step></root><kind halign="center" text="m">minor</kind></harmony><note default-x="294"><pitch><step>D</step><octave>4</octave></pitch><duration>2</duration><voice>1</voice><type>eighth</type><stem default-y="-8.5">up</stem><beam number="1">begin</beam><lyric default-y="-91" name="verse" number="1"><syllabic>single</syllabic><text font-size="10.8">weiß,</text></lyric></note><harmony default-y="36" font-size="10" font-weight="bold"><root><root-step>B</root-step></root><kind halign="center" text="m">minor</kind><bass><bass-step>A</bass-step></bass></harmony><note default-x="364"><pitch><step>F</step><alter>1</alter><octave>4</octave></pitch><duration>2</duration><voice>1</voice><type>eighth</type><stem default-y="-4">up</stem><beam number="1">end</beam><lyric default-y="-91" name="verse" number="1"><syllabic>single</syllabic><text font-size="10.8">dass</text></lyric></note></measure><!--=======================================================--><measure number="13" width="360"><harmony default-y="36" font-size="10" font-weight="bold"><root><root-step>G</root-step></root><kind halign="center" text="">major</kind></harmony><note default-x="13"><rest /><duration>2</duration><voice>1</voice><type>eighth</type></note><note default-x="52"><pitch><step>B</step><octave>4</octave></pitch><duration>2</duration><voice>1</voice><type>eighth</type><stem default-y="-51.5">down</stem><lyric default-y="-91" name="verse" number="1"><syllabic>begin</syllabic><text font-size="10.8">Je</text></lyric></note><note default-x="104"><pitch><step>A</step><octave>4</octave></pitch><duration>2</duration><voice>1</voice><type>eighth</type><stem default-y="6.5">up</stem><beam number="1">begin</beam><lyric default-y="-91" name="verse" number="1"><syllabic>end</syllabic><text font-size="10.8">sus</text></lyric></note><harmony default-y="36" font-size="10" font-weight="bold"><root><root-step>D</root-step></root><kind halign="center" text="">major</kind></harmony><note default-x="162"><pitch><step>A</step><octave>4</octave></pitch><duration>2</duration><tie type="start" /><voice>1</voice><type>eighth</type><stem default-y="6.5">up</stem><beam number="1">end</beam><notations><tied type="start" /></notations><lyric default-y="-91" name="verse" number="1"><syllabic>single</syllabic><text font-size="10.8">lebt,</text><extend type="start" /></lyric></note><note default-x="203"><pitch><step>A</step><octave>4</octave></pitch><duration>4</duration><tie type="stop" /><voice>1</voice><type>quarter</type><stem default-y="7">up</stem><notations><tied type="stop" /></notations><lyric name="verse" number="1"><extend type="stop" /></lyric></note><note default-x="265"><pitch><step>D</step><octave>4</octave></pitch><duration>2</duration><voice>1</voice><type>eighth</type><stem default-y="-13.5">up</stem><beam number="1">begin</beam><lyric default-y="-91" name="verse" number="1"><syllabic>single</syllabic><text font-size="10.8">er</text></lyric></note><note default-x="313"><pitch><step>E</step><octave>4</octave></pitch><duration>2</duration><voice>1</voice><type>eighth</type><stem default-y="-8.5">up</stem><beam number="1">end</beam><lyric default-y="-91" name="verse" number="1"><syllabic>single</syllabic><text font-size="10.8">ist</text></lyric></note></measure><!--=======================================================--><measure number="14" width="387"><harmony default-y="36" font-size="10" font-weight="bold"><root><root-step>F</root-step><root-alter>1</root-alter></root><kind halign="center" text="">major</kind><bass><bass-step>A</bass-step><bass-alter>1</bass-alter></bass></harmony><note default-x="18"><rest /><duration>2</duration><voice>1</voice><type>eighth</type></note><note default-x="76"><pitch><step>F</step><alter>1</alter><octave>4</octave></pitch><duration>2</duration><voice>1</voice><type>eighth</type><stem default-y="-3">up</stem><lyric default-y="-91" name="verse" number="1"><syllabic>begin</syllabic><text font-size="10.8">auf</text></lyric></note><note default-x="129"><pitch><step>E</step><octave>4</octave></pitch><duration>2</duration><voice>1</voice><type>eighth</type><stem default-y="-8.5">up</stem><beam number="1">begin</beam><lyric default-y="-91" name="verse" number="1"><syllabic>middle</syllabic><text font-size="10.8">er</text></lyric></note><harmony default-y="36" font-size="10" font-weight="bold"><root><root-step>B</root-step></root><kind halign="center" text="m">minor</kind></harmony><note default-x="186"><pitch><step>D</step><octave>4</octave></pitch><duration>2</duration><voice>1</voice><type>eighth</type><stem default-y="-13.5">up</stem><beam number="1">end</beam><lyric default-y="-91" name="verse" number="1"><syllabic>middle</syllabic><text font-size="10.8">stan</text></lyric></note><note default-x="248"><pitch><step>B</step><octave>3</octave></pitch><duration>4</duration><voice>1</voice><type>quarter</type><stem default-y="-19">up</stem><lyric default-y="-91" name="verse" number="1"><syllabic>end</syllabic><text font-size="10.8">den,</text></lyric></note><note default-x="317"><rest /><duration>4</duration><voice>1</voice><type>quarter</type></note></measure><!--=======================================================--><measure number="15" width="563"><print new-system="yes"><system-layout><system-distance>180</system-distance></system-layout></print><harmony default-y="36" font-size="10" font-weight="bold"><root><root-step>G</root-step></root><kind halign="center" text="">major</kind></harmony><note default-x="87"><rest /><duration>2</duration><voice>1</voice><type>eighth</type></note><note default-x="147"><pitch><step>B</step><octave>4</octave></pitch><duration>2</duration><voice>1</voice><type>eighth</type><stem default-y="-51.5">down</stem><lyric default-y="-91" name="verse" number="1"><syllabic>single</syllabic><text font-size="10.8">und</text></lyric></note><note default-x="205"><pitch><step>A</step><octave>4</octave></pitch><duration>2</duration><voice>1</voice><type>eighth</type><stem default-y="6.5">up</stem><beam number="1">begin</beam><lyric default-y="-91" name="verse" number="1"><syllabic>single</syllabic><text font-size="10.8">er</text></lyric></note><harmony default-y="36" font-size="10" font-weight="bold"><root><root-step>F</root-step><root-alter>1</root-alter></root><kind halign="center" text="m">minor</kind></harmony><note default-x="265"><pitch><step>A</step><octave>4</octave></pitch><duration>2</duration><tie type="start" /><voice>1</voice><type>eighth</type><stem default-y="6.5">up</stem><beam number="1">end</beam><notations><tied type="start" /></notations><lyric default-y="-91" name="verse" number="1"><syllabic>single</syllabic><text font-size="10.8">lebt</text><extend type="start" /></lyric></note><note default-x="325"><pitch><step>A</step><octave>4</octave></pitch><duration>2</duration><tie type="stop" /><voice>1</voice><type>eighth</type><stem default-y="6.5">up</stem><beam number="1">begin</beam><notations><tied type="stop" /></notations><lyric name="verse" number="1"><extend type="stop" /></lyric></note><note default-x="383"><pitch><step>F</step><alter>1</alter><octave>4</octave></pitch><duration>2</duration><voice>1</voice><type>eighth</type><stem default-y="2">up</stem><beam number="1">end</beam><lyric default-y="-91" name="verse" number="1"><syllabic>single</syllabic><text font-size="10.8">auch</text></lyric></note><note default-x="443"><pitch><step>A</step><octave>4</octave></pitch><duration>2</duration><voice>1</voice><type>eighth</type><stem default-y="6.5">up</stem><beam number="1">begin</beam><lyric default-y="-91" name="verse" number="1"><syllabic>single</syllabic><text font-size="10.8">in</text></lyric></note><harmony default-y="36" font-size="10" font-weight="bold"><root><root-step>E</root-step></root><kind halign="center" text="">major</kind></harmony><note default-x="502"><pitch><step>B</step><octave>4</octave></pitch><duration>2</duration><tie type="start" /><voice>1</voice><type>eighth</type><stem default-y="11.5">up</stem><beam number="1">end</beam><notations><tied type="start" /></notations><lyric default-y="-91" name="verse" number="1"><syllabic>single</syllabic><text font-size="10.8">mir,</text><extend type="start" /></lyric></note></measure><!--=======================================================--><measure number="16" width="390"><note default-x="11"><pitch><step>B</step><octave>4</octave></pitch><duration>8</duration><tie type="stop" /><voice>1</voice><type>half</type><stem default-y="-51.5">down</stem><notations><tied type="stop" /></notations><lyric name="verse" number="1"><extend type="stop" /></lyric></note><note default-x="144"><pitch><step>F</step><alter>1</alter><octave>4</octave></pitch><duration>2</duration><voice>1</voice><type>eighth</type><stem default-y="-4">up</stem><beam number="1">begin</beam><lyric default-y="-91" name="verse" number="1"><syllabic>single</syllabic><text font-size="10.8">lebt</text></lyric></note><note default-x="206"><pitch><step>E</step><octave>4</octave></pitch><duration>2</duration><voice>1</voice><type>eighth</type><stem default-y="-9">up</stem><beam number="1">end</beam><lyric default-y="-91" name="verse" number="1"><syllabic>single</syllabic><text font-size="10.8">auch</text></lyric></note><note default-x="265"><pitch><step>D</step><octave>4</octave></pitch><duration>2</duration><voice>1</voice><type>eighth</type><stem default-y="-9">up</stem><beam number="1">begin</beam><lyric default-y="-91" name="verse" number="1"><syllabic>single</syllabic><text font-size="10.8">in</text></lyric></note><note default-x="322"><pitch><step>E</step><octave>4</octave></pitch><duration>1</duration><voice>1</voice><type>16th</type><stem default-y="-9">up</stem><beam number="1">continue</beam><beam number="2">begin</beam><notations><slur number="1" placement="below" type="start" /></notations><lyric default-y="-91" name="verse" number="1"><syllabic>single</syllabic><text font-size="10.8">mir.</text><extend type="start" /></lyric></note><note default-x="355"><pitch><step>D</step><octave>4</octave></pitch><duration>1</duration><voice>1</voice><type>16th</type><stem default-y="-9">up</stem><beam number="1">end</beam><beam number="2">end</beam></note></measure><!--=======================================================--><measure number="17" width="218"><harmony default-y="36" font-size="10" font-weight="bold"><root><root-step>B</root-step></root><kind halign="center" text="m">minor</kind></harmony><note default-x="21"><pitch><step>B</step><octave>3</octave></pitch><duration>8</duration><voice>1</voice><type>half</type><stem default-y="-19">up</stem><notations><slur number="1" type="stop" /></notations><lyric name="verse" number="1"><extend type="stop" /></lyric></note><note default-x="112"><rest /><duration>8</duration><voice>1</voice><type>half</type></note><barline location="right"><bar-style>light-heavy</bar-style></barline></measure></part><!--=========================================================--></score-partwise>