<?xml version="1.0" encoding="UTF-8"?><!DOCTYPE score-partwise PUBLIC "-//Recordare//DTD MusicXML 1.1 Partwise//EN" "http://www.musicxml.org/dtds/partwise.dtd"[]><score-partwise version="1.1"><movement-title>O Gott dir sei Ehre der Großes getan</movement-title><identification><creator type="composer">Fanny Jane Crosby und
William Howard Doane</creator><creator type="lyricist">Lotte Sauer</creator><encoding><software>Finale for Windows</software><software>Dolet 4.5 for Finale</software><encoding-date>2010-10-05</encoding-date></encoding><rights>CCLI-Liednummer 4336507
© Words: 1973 SCM Hänssler, Holzgerlingen | Music: Public Domain
Nutzung ausschließlich im Rahmen der SongSelect®-Nutzungsbedingungen. Alle Rechte vorbehalten. www.ccli.com
CCLI-Lizenznummer 2182334
</rights></identification><defaults><scaling><millimeters>6.5088</millimeters><tenths>40</tenths></scaling><page-layout><page-height>1771</page-height><page-width>1308</page-width><page-margins type="both"><left-margin>78</left-margin><right-margin>78</right-margin><top-margin>78</top-margin><bottom-margin>78</bottom-margin></page-margins></page-layout><system-layout><system-margins><left-margin>68</left-margin><right-margin>0</right-margin></system-margins><system-distance>376</system-distance><top-system-distance>244</top-system-distance></system-layout><music-font font-family="Maestro" font-size="18.5" /><word-font font-family="Arial" font-size="9.2" /><lyric-font font-family="Arial" font-size="10.8" name="verse" /><lyric-font font-family="Arial" font-size="10.8" name="section" /></defaults><credit page="1"><credit-type>title</credit-type><credit-words default-x="654" default-y="1688" font-size="21.6" font-weight="bold" justify="center" valign="top">O Gott dir sei Ehre</credit-words></credit><credit page="1"><credit-words default-x="1230" default-y="1620" font-size="10.8" font-style="italic" justify="right" valign="top">Text und Musik:</credit-words></credit><credit page="1"><credit-type>composer</credit-type><credit-words font-size="10.8" valign="top" justify="right" font-weight="bold" default-y="1552" default-x="1249">
Fanny Jane Crosby und
William Howard Doane</credit-words></credit><credit page="1"><credit-words default-x="78" default-y="1620" font-size="10.8" font-style="italic" valign="top">Deutsch:</credit-words></credit><credit page="1"><credit-type>arranger</credit-type><credit-words xml:lang="de" font-size="10.8" valign="top" font-weight="bold" default-y="1552" default-x="78">
Lotte Sauer</credit-words></credit><part-list><score-part id="P1"><part-name print-object="no">Melodie</part-name><score-instrument id="P1-I2"><instrument-name>Melodie</instrument-name></score-instrument><midi-instrument id="P1-I2"><midi-channel>1</midi-channel><midi-program>1</midi-program></midi-instrument></score-part></part-list><!--=========================================================--><part id="P1"><measure implicit="yes" number="0" width="254"><print page-number="1"><page-layout><page-height>1771</page-height><page-width>1308</page-width><page-margins><left-margin>78</left-margin><right-margin>78</right-margin><top-margin>78</top-margin><bottom-margin>163</bottom-margin></page-margins></page-layout></print><attributes><divisions>4</divisions><key><fifths>-4</fifths><mode>major</mode></key><time><beats>3</beats><beat-type>4</beat-type></time><clef><sign>G</sign><line>2</line></clef></attributes><sound tempo="96" /><note default-x="169"><pitch><step>E</step><alter>-1</alter><octave>4</octave></pitch><duration>4</duration><voice>1</voice><type>quarter</type><stem default-y="-4">up</stem><lyric default-y="-95" name="verse" number="1" relative-x="-12"><syllabic>single</syllabic><text font-size="10.8">1.</text><elision /><syllabic>single</syllabic><text font-size="10.8">O</text></lyric><lyric default-y="-120" name="verse" number="2" relative-x="-12"><syllabic>single</syllabic><text font-size="10.8">(2.</text><elision /><syllabic>single</syllabic><text font-size="10.8">O)</text></lyric><lyric default-y="-145" name="verse" number="3"><syllabic>single</syllabic><text font-size="10.8">(3.</text><elision /><syllabic>single</syllabic><text font-size="10.8">Wie)</text></lyric></note><barline location="right"><bar-style>light-light</bar-style></barline></measure><!--=======================================================--><measure number="1" width="220"><print new-system="no" /><barline location="left"><bar-style>heavy-light</bar-style><repeat direction="forward" /></barline><harmony default-y="37" font-size="10" font-weight="bold"><root><root-step>A</root-step><root-alter>-1</root-alter></root><kind text="">major</kind></harmony><note default-x="40"><pitch><step>E</step><alter>-1</alter><octave>4</octave></pitch><duration>8</duration><voice>1</voice><type>half</type><stem default-y="-4">up</stem><lyric default-y="-95" name="verse" number="1"><syllabic>single</syllabic><text font-size="10.8">Gott,</text></lyric><lyric default-y="-120" name="verse" number="2"><syllabic>begin</syllabic><text font-size="10.8">gro</text></lyric><lyric default-y="-145" name="verse" number="3"><syllabic>single</syllabic><text font-size="10.8">groß</text></lyric></note><harmony default-y="37" font-size="10" font-weight="bold"><root><root-step>E</root-step><root-alter>-1</root-alter></root><kind text="7">dominant</kind></harmony><note default-x="122"><pitch><step>F</step><octave>4</octave></pitch><duration>2</duration><voice>1</voice><type>eighth</type><stem default-y="0">up</stem><beam number="1">begin</beam><lyric default-y="-95" name="verse" number="1"><syllabic>single</syllabic><text font-size="10.8">dir</text></lyric><lyric default-y="-120" name="verse" number="2"><syllabic>end</syllabic><text font-size="10.8">ße</text></lyric><lyric default-y="-145" name="verse" number="3"><syllabic>single</syllabic><text font-size="10.8">ist</text></lyric></note><note default-x="172"><pitch><step>G</step><octave>4</octave></pitch><duration>2</duration><voice>1</voice><type>eighth</type><stem default-y="5">up</stem><beam number="1">end</beam><lyric default-y="-95" name="verse" number="1"><syllabic>single</syllabic><text font-size="10.8">sei</text></lyric><lyric default-y="-120" name="verse" number="2"><syllabic>begin</syllabic><text font-size="10.8">Er</text></lyric><lyric default-y="-145" name="verse" number="3"><syllabic>single</syllabic><text font-size="10.8">sein</text></lyric></note></measure><!--=======================================================--><measure number="2" width="208"><print new-system="no" /><harmony default-y="37" font-size="10" font-weight="bold"><root><root-step>A</root-step><root-alter>-1</root-alter></root><kind text="">major</kind></harmony><note default-x="18"><pitch><step>A</step><alter>-1</alter><octave>4</octave></pitch><duration>4</duration><voice>1</voice><type>quarter</type><stem default-y="11">up</stem><lyric default-y="-95" name="verse" number="1"><syllabic>begin</syllabic><text font-size="10.8">Eh</text></lyric><lyric default-y="-120" name="verse" number="2"><syllabic>middle</syllabic><text font-size="10.8">lö</text></lyric><lyric default-y="-145" name="verse" number="3"><syllabic>begin</syllabic><text font-size="10.8">Lie</text></lyric></note><note default-x="80"><pitch><step>E</step><alter>-1</alter><octave>4</octave></pitch><duration>4</duration><voice>1</voice><type>quarter</type><stem default-y="-4">up</stem><lyric default-y="-95" name="verse" number="1"><syllabic>end</syllabic><text font-size="10.8">re,</text></lyric><lyric default-y="-120" name="verse" number="2"><syllabic>end</syllabic><text font-size="10.8">sung,</text></lyric><lyric default-y="-145" name="verse" number="3"><syllabic>end</syllabic><text font-size="10.8">ben,</text></lyric></note><note default-x="143"><pitch><step>A</step><alter>-1</alter><octave>4</octave></pitch><duration>4</duration><voice>1</voice><type>quarter</type><stem default-y="11">up</stem><lyric default-y="-95" name="verse" number="1"><syllabic>single</syllabic><text font-size="10.8">der</text></lyric><lyric default-y="-120" name="verse" number="2"><syllabic>begin</syllabic><text font-size="10.8">er</text></lyric><lyric default-y="-145" name="verse" number="3"><syllabic>single</syllabic><text font-size="10.8">wie</text></lyric></note></measure><!--=======================================================--><measure number="3" width="239"><print new-system="no" /><harmony default-y="37" font-size="10" font-weight="bold"><root><root-step>E</root-step><root-alter>-1</root-alter></root><kind text="">major</kind></harmony><note default-x="28"><pitch><step>B</step><alter>-1</alter><octave>4</octave></pitch><duration>4</duration><voice>1</voice><type>quarter</type><stem default-y="-55">down</stem><lyric default-y="-95" name="verse" number="1"><syllabic>begin</syllabic><text font-size="10.8">Gro</text></lyric><lyric default-y="-120" name="verse" number="2"><syllabic>end</syllabic><text font-size="10.8">kauft</text></lyric><lyric default-y="-145" name="verse" number="3"><syllabic>single</syllabic><text font-size="10.8">groß</text></lyric></note><note default-x="98"><pitch><step>E</step><alter>-1</alter><octave>4</octave></pitch><duration>4</duration><voice>1</voice><type>quarter</type><stem default-y="-4">up</stem><lyric default-y="-95" name="verse" number="1"><syllabic>end</syllabic><text font-size="10.8">ßes</text></lyric><lyric default-y="-120" name="verse" number="2"><syllabic>single</syllabic><text font-size="10.8">durch</text></lyric><lyric default-y="-145" name="verse" number="3"><syllabic>single</syllabic><text font-size="10.8">ist</text></lyric></note><note default-x="168"><pitch><step>B</step><alter>-1</alter><octave>4</octave></pitch><duration>4</duration><voice>1</voice><type>quarter</type><stem default-y="-55">down</stem><lyric default-y="-95" name="verse" number="1"><syllabic>begin</syllabic><text font-size="10.8">ge</text></lyric><lyric default-y="-120" name="verse" number="2"><syllabic>single</syllabic><text font-size="10.8">sein</text></lyric><lyric default-y="-145" name="verse" number="3"><syllabic>single</syllabic><text font-size="10.8">sein</text></lyric></note></measure><!--=======================================================--><measure number="4" width="163"><print new-system="no" /><harmony default-y="37" font-size="10" font-weight="bold"><root><root-step>A</root-step><root-alter>-1</root-alter></root><kind text="">major</kind></harmony><note default-x="26"><pitch><step>C</step><octave>5</octave></pitch><duration>8</duration><voice>1</voice><type>half</type><stem default-y="-50.5">down</stem><lyric default-y="-95" name="verse" number="1"><syllabic>end</syllabic><text font-size="10.8">tan!</text></lyric><lyric default-y="-120" name="verse" number="2"><syllabic>single</syllabic><text font-size="10.8">Blut!</text></lyric><lyric default-y="-145" name="verse" number="3"><syllabic>single</syllabic><text font-size="10.8">Tun!</text></lyric></note><note default-x="110"><pitch><step>C</step><octave>5</octave></pitch><duration>4</duration><voice>1</voice><type>quarter</type><stem default-y="-50.5">down</stem><lyric default-y="-95" name="verse" number="1"><syllabic>single</syllabic><text font-size="10.8">Du</text></lyric><lyric default-y="-120" name="verse" number="2"><syllabic>single</syllabic><text font-size="10.8">Dem</text></lyric><lyric default-y="-145" name="verse" number="3"><syllabic>single</syllabic><text font-size="10.8">Wie</text></lyric></note></measure><!--=======================================================--><measure number="5" width="346"><print new-system="yes"><system-layout><system-margins><left-margin>0</left-margin><right-margin>0</right-margin></system-margins><system-distance>234</system-distance></system-layout></print><harmony default-y="37" font-size="10" font-weight="bold"><root><root-step>D</root-step><root-alter>-1</root-alter></root><kind text="">major</kind></harmony><note default-x="118"><pitch><step>D</step><alter>-1</alter><octave>5</octave></pitch><duration>4</duration><voice>1</voice><type>quarter</type><stem default-y="-45.5">down</stem><lyric default-y="-95" name="verse" number="1"><syllabic>begin</syllabic><text font-size="10.8">lieb</text></lyric><lyric default-y="-120" name="verse" number="2"><syllabic>begin</syllabic><text font-size="10.8">Sün</text></lyric><lyric default-y="-145" name="verse" number="3"><syllabic>single</syllabic><text font-size="10.8">groß</text></lyric></note><note default-x="193"><pitch><step>F</step><octave>4</octave></pitch><duration>4</duration><voice>1</voice><type>quarter</type><stem default-y="1">up</stem><lyric default-y="-95" name="verse" number="1"><syllabic>end</syllabic><text font-size="10.8">test</text></lyric><lyric default-y="-120" name="verse" number="2"><syllabic>end</syllabic><text font-size="10.8">der,</text></lyric><lyric default-y="-145" name="verse" number="3"><syllabic>begin</syllabic><text font-size="10.8">uns</text></lyric></note><note default-x="269"><pitch><step>D</step><alter>-1</alter><octave>5</octave></pitch><duration>4</duration><voice>1</voice><type>quarter</type><stem default-y="-45.5">down</stem><lyric default-y="-95" name="verse" number="1"><syllabic>single</syllabic><text font-size="10.8">die</text></lyric><lyric default-y="-120" name="verse" number="2"><syllabic>single</syllabic><text font-size="10.8">der</text></lyric><lyric default-y="-145" name="verse" number="3"><syllabic>end</syllabic><text font-size="10.8">re</text></lyric></note></measure><!--=======================================================--><measure number="6" width="338"><print new-system="no" /><harmony default-y="37" font-size="10" font-weight="bold"><root><root-step>A</root-step><root-alter>-1</root-alter></root><kind text="">major</kind></harmony><note default-x="38"><pitch><step>C</step><octave>5</octave></pitch><duration>4</duration><voice>1</voice><type>quarter</type><stem default-y="-50.5">down</stem><lyric default-y="-95" name="verse" number="1"><syllabic>single</syllabic><text font-size="10.8">Welt,</text></lyric><lyric default-y="-120" name="verse" number="2"><syllabic>single</syllabic><text font-size="10.8">glaubt,</text></lyric><lyric default-y="-145" name="verse" number="3"><syllabic>begin</syllabic><text font-size="10.8">Freu</text></lyric></note><note default-x="138"><pitch><step>A</step><alter>-1</alter><octave>4</octave></pitch><duration>4</duration><voice>1</voice><type>quarter</type><stem default-y="11">up</stem><lyric default-y="-95" name="verse" number="1"><syllabic>single</syllabic><text font-size="10.8">nahmst</text></lyric><lyric default-y="-120" name="verse" number="2"><syllabic>single</syllabic><text font-size="10.8">kommt</text></lyric><lyric default-y="-145" name="verse" number="3"><syllabic>end</syllabic><text font-size="10.8">de,</text></lyric></note><note default-x="237"><pitch><step>C</step><octave>5</octave></pitch><duration>4</duration><voice>1</voice><type>quarter</type><stem default-y="-50.5">down</stem><lyric default-y="-95" name="verse" number="1"><syllabic>single</syllabic><text font-size="10.8">der</text></lyric><lyric default-y="-120" name="verse" number="2"><syllabic>single</syllabic><text font-size="10.8">sie</text></lyric><lyric default-y="-145" name="verse" number="3"><syllabic>single</syllabic><text font-size="10.8">in</text></lyric></note></measure><!--=======================================================--><measure number="7" width="255"><print new-system="no" /><harmony default-y="37" font-size="10" font-weight="bold"><root><root-step>B</root-step><root-alter>-1</root-alter></root><kind text="">major</kind></harmony><note default-x="23"><pitch><step>C</step><octave>5</octave></pitch><duration>4</duration><voice>1</voice><type>quarter</type><stem default-y="-50.5">down</stem><lyric default-y="-95" name="verse" number="1"><syllabic>begin</syllabic><text font-size="10.8">Sün</text></lyric><lyric default-y="-120" name="verse" number="2"><syllabic>begin</syllabic><text font-size="10.8">heu</text></lyric><lyric default-y="-145" name="verse" number="3"><syllabic>begin</syllabic><text font-size="10.8">Je</text></lyric></note><note default-x="100"><pitch><step>B</step><alter>-1</alter><octave>4</octave></pitch><duration>4</duration><voice>1</voice><type>quarter</type><stem default-y="-55">down</stem><lyric default-y="-95" name="verse" number="1"><syllabic>end</syllabic><text font-size="10.8">der</text></lyric><lyric default-y="-120" name="verse" number="2"><syllabic>end</syllabic><text font-size="10.8">te</text></lyric><lyric default-y="-145" name="verse" number="3"><syllabic>end</syllabic><text font-size="10.8">sus</text></lyric></note><note default-x="177"><pitch><step>F</step><octave>4</octave></pitch><duration>4</duration><voice>1</voice><type>quarter</type><stem default-y="1">up</stem><lyric default-y="-95" name="verse" number="1"><syllabic>single</syllabic><text font-size="10.8">dich</text></lyric><lyric default-y="-120" name="verse" number="2"><syllabic>begin</syllabic><text font-size="10.8">zu</text></lyric><lyric default-y="-145" name="verse" number="3"><syllabic>single</syllabic><text font-size="10.8">zu</text></lyric></note></measure><!--=======================================================--><measure number="8" width="213"><print new-system="no" /><harmony default-y="37" font-size="10" font-weight="bold"><root><root-step>E</root-step><root-alter>-1</root-alter></root><kind text="">major</kind></harmony><note default-x="29"><pitch><step>B</step><alter>-1</alter><octave>4</octave></pitch><duration>8</duration><voice>1</voice><type>half</type><stem default-y="-55">down</stem><lyric default-y="-95" name="verse" number="1"><syllabic>single</syllabic><text font-size="10.8">an!</text></lyric><lyric default-y="-120" name="verse" number="2"><syllabic>end</syllabic><text font-size="10.8">gut.</text></lyric><lyric default-y="-145" name="verse" number="3"><syllabic>single</syllabic><text font-size="10.8">ruhn!</text></lyric></note><note default-x="142"><pitch><step>E</step><alter>-1</alter><octave>4</octave></pitch><duration>4</duration><voice>1</voice><type>quarter</type><stem default-y="-4">up</stem><lyric default-y="-95" name="verse" number="1"><syllabic>single</syllabic><text font-size="10.8">Dein</text></lyric><lyric default-y="-120" name="verse" number="2"><syllabic>single</syllabic><text font-size="10.8">Die</text></lyric><lyric default-y="-145" name="verse" number="3"><syllabic>single</syllabic><text font-size="10.8">Doch</text></lyric></note></measure><!--=======================================================--><measure number="9" width="372"><print new-system="yes"><system-layout><system-margins><left-margin>0</left-margin><right-margin>0</right-margin></system-margins><system-distance>234</system-distance></system-layout></print><harmony default-y="37" font-size="10" font-weight="bold"><root><root-step>A</root-step><root-alter>-1</root-alter></root><kind text="">major</kind></harmony><note default-x="121"><pitch><step>E</step><alter>-1</alter><octave>4</octave></pitch><duration>8</duration><voice>1</voice><type>half</type><stem default-y="-4">up</stem><lyric default-y="-95" name="verse" number="1"><syllabic>single</syllabic><text font-size="10.8">Sohn</text></lyric><lyric default-y="-120" name="verse" number="2"><syllabic>begin</syllabic><text font-size="10.8">vol</text></lyric><lyric default-y="-145" name="verse" number="3"><syllabic>begin</syllabic><text font-size="10.8">grö</text></lyric></note><harmony default-y="37" font-size="10" font-weight="bold"><root><root-step>E</root-step><root-alter>-1</root-alter></root><kind text="">major</kind></harmony><note default-x="262"><pitch><step>F</step><octave>4</octave></pitch><duration>2</duration><voice>1</voice><type>eighth</type><stem default-y="0">up</stem><beam number="1">begin</beam><lyric default-y="-95" name="verse" number="1"><syllabic>single</syllabic><text font-size="10.8">hat</text></lyric><lyric default-y="-120" name="verse" number="2"><syllabic>end</syllabic><text font-size="10.8">le</text></lyric><lyric default-y="-145" name="verse" number="3"><syllabic>end</syllabic><text font-size="10.8">ßer</text></lyric></note><note default-x="316"><pitch><step>G</step><octave>4</octave></pitch><duration>2</duration><voice>1</voice><type>eighth</type><stem default-y="5">up</stem><beam number="1">end</beam><lyric default-y="-95" name="verse" number="1"><syllabic>single</syllabic><text font-size="10.8">sein</text></lyric><lyric default-y="-120" name="verse" number="2"><syllabic>begin</syllabic><text font-size="10.8">Ver</text></lyric><lyric default-y="-145" name="verse" number="3"><syllabic>single</syllabic><text font-size="10.8">und</text></lyric></note></measure><!--=======================================================--><measure number="10" width="266"><print new-system="no" /><harmony default-y="37" font-size="10" font-weight="bold"><root><root-step>A</root-step><root-alter>-1</root-alter></root><kind text="">major</kind></harmony><note default-x="17"><pitch><step>A</step><alter>-1</alter><octave>4</octave></pitch><duration>4</duration><voice>1</voice><type>quarter</type><stem default-y="11">up</stem><lyric default-y="-95" name="verse" number="1"><syllabic>begin</syllabic><text font-size="10.8">Le</text></lyric><lyric default-y="-120" name="verse" number="2"><syllabic>middle</syllabic><text font-size="10.8">ge</text></lyric><lyric default-y="-145" name="verse" number="3"><syllabic>begin</syllabic><text font-size="10.8">rei</text></lyric></note><note default-x="99"><pitch><step>E</step><alter>-1</alter><octave>4</octave></pitch><duration>4</duration><voice>1</voice><type>quarter</type><stem default-y="-4">up</stem><lyric default-y="-95" name="verse" number="1"><syllabic>end</syllabic><text font-size="10.8">ben</text></lyric><lyric default-y="-120" name="verse" number="2"><syllabic>end</syllabic><text font-size="10.8">bung</text></lyric><lyric default-y="-145" name="verse" number="3"><syllabic>end</syllabic><text font-size="10.8">ner</text></lyric></note><note default-x="182"><pitch><step>A</step><alter>-1</alter><octave>4</octave></pitch><duration>4</duration><voice>1</voice><type>quarter</type><stem default-y="11">up</stem><lyric default-y="-95" name="verse" number="1"><syllabic>single</syllabic><text font-size="10.8">zum</text></lyric><lyric default-y="-120" name="verse" number="2"><syllabic>single</syllabic><text font-size="10.8">wird</text></lyric><lyric default-y="-145" name="verse" number="3"><syllabic>single</syllabic><text font-size="10.8">und</text></lyric></note></measure><!--=======================================================--><measure number="11" width="278"><print new-system="no" /><harmony default-y="37" font-size="10" font-weight="bold"><root><root-step>E</root-step><root-alter>-1</root-alter></root><kind text="">major</kind></harmony><note default-x="18"><pitch><step>B</step><alter>-1</alter><octave>4</octave></pitch><duration>4</duration><voice>1</voice><type>quarter</type><stem default-y="-55.5">down</stem><lyric default-y="-95" name="verse" number="1"><syllabic>begin</syllabic><text font-size="10.8">Op</text></lyric><lyric default-y="-120" name="verse" number="2"><syllabic>begin</syllabic><text font-size="10.8">je</text></lyric><lyric default-y="-145" name="verse" number="3"><syllabic>begin</syllabic><text font-size="10.8">hö</text></lyric></note><note default-x="104"><pitch><step>E</step><alter>-1</alter><octave>4</octave></pitch><duration>4</duration><voice>1</voice><type>quarter</type><stem default-y="-4">up</stem><lyric default-y="-95" name="verse" number="1"><syllabic>end</syllabic><text font-size="10.8">fer</text></lyric><lyric default-y="-120" name="verse" number="2"><syllabic>end</syllabic><text font-size="10.8">dem</text></lyric><lyric default-y="-145" name="verse" number="3"><syllabic>end</syllabic><text font-size="10.8">her</text></lyric></note><note default-x="191"><pitch><step>B</step><alter>-1</alter><octave>4</octave></pitch><duration>4</duration><voice>1</voice><type>quarter</type><stem default-y="-55.5">down</stem><lyric default-y="-95" name="verse" number="1"><syllabic>begin</syllabic><text font-size="10.8">ge</text></lyric><lyric default-y="-120" name="verse" number="2"><syllabic>begin</syllabic><text font-size="10.8">zu</text></lyric><lyric default-y="-145" name="verse" number="3"><syllabic>single</syllabic><text font-size="10.8">wirds</text></lyric></note></measure><!--=======================================================--><measure number="12" width="237"><print new-system="no" /><harmony default-y="37" font-size="10" font-weight="bold"><root><root-step>A</root-step><root-alter>-1</root-alter></root><kind text="">major</kind></harmony><note default-x="34"><pitch><step>C</step><octave>5</octave></pitch><duration>8</duration><voice>1</voice><type>half</type><stem default-y="-50.5">down</stem><lyric default-y="-95" name="verse" number="1"><syllabic>end</syllabic><text font-size="10.8">weiht.</text></lyric><lyric default-y="-120" name="verse" number="2"><syllabic>end</syllabic><text font-size="10.8">teil,</text></lyric><lyric default-y="-145" name="verse" number="3"><syllabic>single</syllabic><text font-size="10.8">sein,</text></lyric></note><harmony default-y="37" font-size="10" font-weight="bold"><root><root-step>A</root-step><root-alter>-1</root-alter></root><kind text="7">dominant</kind></harmony><note default-x="158"><pitch><step>C</step><octave>5</octave></pitch><duration>4</duration><voice>1</voice><type>quarter</type><stem default-y="-50.5">down</stem><lyric default-y="-95" name="verse" number="1"><syllabic>single</syllabic><text font-size="10.8">Der</text></lyric><lyric default-y="-120" name="verse" number="2"><syllabic>single</syllabic><text font-size="10.8">der</text></lyric><lyric default-y="-145" name="verse" number="3"><syllabic>single</syllabic><text font-size="10.8">wenn</text></lyric></note></measure><!--=======================================================--><measure number="13" width="357"><print new-system="yes"><system-layout><system-margins><left-margin>0</left-margin><right-margin>0</right-margin></system-margins><system-distance>234</system-distance></system-layout></print><harmony default-y="37" font-size="10" font-weight="bold"><root><root-step>D</root-step><root-alter>-1</root-alter></root><kind text="">major</kind></harmony><note default-x="114"><pitch><step>E</step><alter>-1</alter><octave>5</octave></pitch><duration>4</duration><voice>1</voice><type>quarter</type><stem default-y="-40.5">down</stem><lyric default-y="-95" name="verse" number="1"><syllabic>begin</syllabic><text font-size="10.8">Him</text></lyric><lyric default-y="-120" name="verse" number="2"><syllabic>begin</syllabic><text font-size="10.8">Je</text></lyric><lyric default-y="-145" name="verse" number="3"><syllabic>begin</syllabic><text font-size="10.8">ju</text></lyric></note><note default-x="195"><pitch><step>D</step><alter>-1</alter><octave>5</octave></pitch><duration>4</duration><voice>1</voice><type>quarter</type><stem default-y="-45">down</stem><lyric default-y="-95" name="verse" number="1"><syllabic>end</syllabic><text font-size="10.8">mel</text></lyric><lyric default-y="-120" name="verse" number="2"><syllabic>end</syllabic><text font-size="10.8">sus</text></lyric><lyric default-y="-145" name="verse" number="3"><syllabic>end</syllabic><text font-size="10.8">belnd</text></lyric></note><note default-x="275"><pitch><step>B</step><alter>-1</alter><octave>4</octave></pitch><duration>4</duration><voice>1</voice><type>quarter</type><stem default-y="-55.5">down</stem><lyric default-y="-95" name="verse" number="1"><syllabic>single</syllabic><text font-size="10.8">steht</text></lyric><lyric default-y="-120" name="verse" number="2"><syllabic>begin</syllabic><text font-size="10.8">er</text></lyric><lyric default-y="-145" name="verse" number="3"><syllabic>single</syllabic><text font-size="10.8">und</text></lyric></note></measure><!--=======================================================--><measure number="14" width="255"><print new-system="no" /><harmony default-y="37" font-size="10" font-weight="bold"><root><root-step>A</root-step><root-alter>-1</root-alter></root><kind text="">major</kind></harmony><note default-x="34"><pitch><step>A</step><alter>-1</alter><octave>4</octave></pitch><duration>4</duration><voice>1</voice><type>quarter</type><stem default-y="10.5">up</stem><lyric default-y="-95" name="verse" number="1"><syllabic>begin</syllabic><text font-size="10.8">of</text></lyric><lyric default-y="-120" name="verse" number="2"><syllabic>middle</syllabic><text font-size="10.8">fas</text></lyric><lyric default-y="-145" name="verse" number="3"><syllabic>begin</syllabic><text font-size="10.8">schau</text></lyric></note><note default-x="107"><pitch><step>G</step><octave>4</octave></pitch><duration>4</duration><voice>1</voice><type>quarter</type><stem default-y="6">up</stem><lyric default-y="-95" name="verse" number="1"><syllabic>end</syllabic><text font-size="10.8">fen</text></lyric><lyric default-y="-120" name="verse" number="2"><syllabic>end</syllabic><text font-size="10.8">set,</text></lyric><lyric default-y="-145" name="verse" number="3"><syllabic>end</syllabic><text font-size="10.8">end</text></lyric></note><note default-x="180"><pitch><step>A</step><alter>-1</alter><octave>4</octave></pitch><duration>4</duration><voice>1</voice><type>quarter</type><stem default-y="10.5">up</stem><lyric default-y="-95" name="verse" number="1"><syllabic>single</syllabic><text font-size="10.8">zur</text></lyric><lyric default-y="-120" name="verse" number="2"><syllabic>single</syllabic><text font-size="10.8">das</text></lyric><lyric default-y="-145" name="verse" number="3"><syllabic>single</syllabic><text font-size="10.8">wir</text></lyric></note></measure><!--=======================================================--><measure number="15" width="248"><print new-system="no" /><note default-x="22"><pitch><step>C</step><octave>5</octave></pitch><duration>4</duration><voice>1</voice><type>quarter</type><stem default-y="-51">down</stem><lyric default-y="-95" name="verse" number="1"><syllabic>begin</syllabic><text font-size="10.8">e</text></lyric><lyric default-y="-120" name="verse" number="2"><syllabic>begin</syllabic><text font-size="10.8">gött</text></lyric><lyric default-y="-145" name="verse" number="3"><syllabic>begin</syllabic><text font-size="10.8">dro</text></lyric></note><note default-x="97"><pitch><step>C</step><octave>5</octave></pitch><duration>4</duration><voice>1</voice><type>quarter</type><stem default-y="-51">down</stem><lyric default-y="-95" name="verse" number="1"><syllabic>middle</syllabic><text font-size="10.8">wi</text></lyric><lyric default-y="-120" name="verse" number="2"><syllabic>middle</syllabic><text font-size="10.8">li</text></lyric><lyric default-y="-145" name="verse" number="3"><syllabic>end</syllabic><text font-size="10.8">ben</text></lyric></note><harmony default-y="37" font-size="10" font-weight="bold"><root><root-step>E</root-step><root-alter>-1</root-alter></root><kind text="">major</kind></harmony><note default-x="172"><pitch><step>B</step><alter>-1</alter><octave>4</octave></pitch><duration>4</duration><voice>1</voice><type>quarter</type><stem default-y="-55.5">down</stem><lyric default-y="-95" name="verse" number="1"><syllabic>end</syllabic><text font-size="10.8">gen</text></lyric><lyric default-y="-120" name="verse" number="2"><syllabic>end</syllabic><text font-size="10.8">che</text></lyric><lyric default-y="-145" name="verse" number="3"><syllabic>single</syllabic><text font-size="10.8">ziehn</text></lyric></note></measure><!--=======================================================--><measure number="16" width="293"><print new-system="no" /><harmony default-y="37" font-size="10" font-weight="bold"><root><root-step>A</root-step><root-alter>-1</root-alter></root><kind text="">major</kind></harmony><note default-x="36"><pitch><step>A</step><alter>-1</alter><octave>4</octave></pitch><duration>8</duration><voice>1</voice><type>half</type><stem default-y="10.5">up</stem><lyric default-y="-95" name="verse" number="1"><syllabic>single</syllabic><text font-size="10.8">Freud.</text></lyric><lyric default-y="-120" name="verse" number="2"><syllabic>single</syllabic><text font-size="10.8">Heil.</text></lyric><lyric default-y="-145" name="verse" number="3"><syllabic>single</syllabic><text font-size="10.8">ein.</text></lyric></note><note default-x="179"><pitch><step>C</step><octave>5</octave></pitch><duration>3</duration><voice>1</voice><type>eighth</type><dot /><stem default-y="-49.5">down</stem><beam number="1">begin</beam><lyric default-y="-95" name="verse" number="1"><syllabic>single</syllabic><text font-size="10.8">Preist</text></lyric></note><note default-x="252"><pitch><step>D</step><alter>-1</alter><octave>5</octave></pitch><duration>1</duration><voice>1</voice><type>16th</type><stem default-y="-45">down</stem><beam number="1">end</beam><beam number="2">backward hook</beam><lyric default-y="-95" name="verse" number="1"><syllabic>single</syllabic><text font-size="10.8">den</text></lyric></note><barline location="right"><bar-style>light-light</bar-style></barline></measure><!--=======================================================--><measure number="17" width="389"><print new-system="yes"><system-layout><system-margins><left-margin>0</left-margin><right-margin>0</right-margin></system-margins><system-distance>234</system-distance></system-layout></print><note default-x="126"><pitch><step>E</step><alter>-1</alter><octave>5</octave></pitch><duration>8</duration><voice>1</voice><type>half</type><stem default-y="-40.5">down</stem><lyric default-y="-95" name="verse" number="1"><syllabic>single</syllabic><text font-size="10.8">Herrn!</text></lyric></note><note default-x="276"><pitch><step>C</step><octave>5</octave></pitch><duration>3</duration><voice>1</voice><type>eighth</type><dot /><stem default-y="-50">down</stem><beam number="1">begin</beam><lyric default-y="-95" name="verse" number="1"><syllabic>single</syllabic><text font-size="10.8">Preist</text></lyric></note><note default-x="352"><pitch><step>D</step><alter>-1</alter><octave>5</octave></pitch><duration>1</duration><voice>1</voice><type>16th</type><stem default-y="-45">down</stem><beam number="1">end</beam><beam number="2">backward hook</beam><lyric default-y="-95" name="verse" number="1"><syllabic>single</syllabic><text font-size="10.8">den</text></lyric></note></measure><!--=======================================================--><measure number="18" width="240"><print new-system="no" /><note default-x="34"><pitch><step>E</step><alter>-1</alter><octave>5</octave></pitch><duration>8</duration><voice>1</voice><type>half</type><stem default-y="-40.5">down</stem><lyric default-y="-95" name="verse" number="1"><syllabic>single</syllabic><text font-size="10.8">Herrn!</text></lyric></note><note default-x="139"><pitch><step>E</step><alter>-1</alter><octave>5</octave></pitch><duration>3</duration><voice>1</voice><type>eighth</type><dot /><stem default-y="-45">down</stem><beam number="1">begin</beam><lyric default-y="-95" name="verse" number="1"><syllabic>begin</syllabic><text font-size="10.8">Er</text></lyric></note><note default-x="199"><pitch><step>C</step><octave>5</octave></pitch><duration>1</duration><voice>1</voice><type>16th</type><stem default-y="-50">down</stem><beam number="1">end</beam><beam number="2">backward hook</beam><lyric default-y="-95" name="verse" number="1"><syllabic>end</syllabic><text font-size="10.8">de,</text></lyric></note></measure><!--=======================================================--><measure number="19" width="216"><print new-system="no" /><note default-x="19"><pitch><step>A</step><alter>-1</alter><octave>4</octave></pitch><duration>4</duration><voice>1</voice><type>quarter</type><stem default-y="11">up</stem><lyric default-y="-95" name="verse" number="1"><syllabic>single</syllabic><text font-size="10.8">hör</text></lyric></note><harmony default-y="37" font-size="10" font-weight="bold"><root><root-step>E</root-step><root-alter>-1</root-alter></root><kind text="">major</kind></harmony><note default-x="84"><pitch><step>B</step><alter>-1</alter><octave>4</octave></pitch><duration>4</duration><voice>1</voice><type>quarter</type><stem default-y="-56">down</stem><lyric default-y="-95" name="verse" number="1"><syllabic>begin</syllabic><text font-size="10.8">die</text></lyric></note><harmony default-y="37" font-size="10" font-weight="bold"><root><root-step>A</root-step><root-alter>-1</root-alter></root><kind text="">major</kind></harmony><note default-x="150"><pitch><step>C</step><octave>5</octave></pitch><duration>4</duration><voice>1</voice><type>quarter</type><stem default-y="-50">down</stem><lyric default-y="-95" name="verse" number="1"><syllabic>end</syllabic><text font-size="10.8">sen</text></lyric></note></measure><!--=======================================================--><measure number="20" width="307"><print new-system="no" /><harmony default-y="37" font-size="10" font-weight="bold"><root><root-step>E</root-step><root-alter>-1</root-alter></root><kind text="">major</kind></harmony><note default-x="38"><pitch><step>B</step><alter>-1</alter><octave>4</octave></pitch><duration>8</duration><voice>1</voice><type>half</type><stem default-y="-56">down</stem><lyric default-y="-95" name="verse" number="1"><syllabic>single</syllabic><text font-size="10.8">Schall!</text></lyric></note><note default-x="191"><pitch><step>B</step><alter>-1</alter><octave>4</octave></pitch><duration>3</duration><voice>1</voice><type>eighth</type><dot /><stem default-y="-54.5">down</stem><beam number="1">begin</beam><lyric default-y="-95" name="verse" number="1"><syllabic>single</syllabic><text font-size="10.8">Preist</text></lyric></note><note default-x="269"><pitch><step>C</step><octave>5</octave></pitch><duration>1</duration><voice>1</voice><type>16th</type><stem default-y="-50">down</stem><beam number="1">end</beam><beam number="2">backward hook</beam><lyric default-y="-95" name="verse" number="1"><syllabic>single</syllabic><text font-size="10.8">den</text></lyric></note></measure><!--=======================================================--><measure number="21" width="352"><print new-page="yes" page-number="2"><system-layout><system-margins><left-margin>0</left-margin><right-margin>0</right-margin></system-margins><top-system-distance>122</top-system-distance></system-layout></print><harmony default-y="37" font-size="10" font-weight="bold"><root><root-step>E</root-step><root-alter>-1</root-alter></root><kind text="7">dominant</kind></harmony><note default-x="126"><pitch><step>D</step><alter>-1</alter><octave>5</octave></pitch><duration>8</duration><voice>1</voice><type>half</type><stem default-y="-45">down</stem><lyric default-y="-95" name="verse" number="1"><syllabic>single</syllabic><text font-size="10.8">Herrn!</text></lyric></note><note default-x="254"><pitch><step>B</step><alter>-1</alter><octave>4</octave></pitch><duration>3</duration><voice>1</voice><type>eighth</type><dot /><stem default-y="-54.5">down</stem><beam number="1">begin</beam><lyric default-y="-95" name="verse" number="1"><syllabic>single</syllabic><text font-size="10.8">Preist</text></lyric></note><note default-x="320"><pitch><step>C</step><octave>5</octave></pitch><duration>1</duration><voice>1</voice><type>16th</type><stem default-y="-49.5">down</stem><beam number="1">end</beam><beam number="2">backward hook</beam><lyric default-y="-95" name="verse" number="1"><syllabic>single</syllabic><text font-size="10.8">den</text></lyric></note></measure><!--=======================================================--><measure number="22" width="232"><print new-system="no" /><note default-x="34"><pitch><step>D</step><alter>-1</alter><octave>5</octave></pitch><duration>8</duration><voice>1</voice><type>half</type><stem default-y="-45">down</stem><lyric default-y="-95" name="verse" number="1"><syllabic>single</syllabic><text font-size="10.8">Herrn!</text></lyric></note><note default-x="132"><pitch><step>D</step><alter>-1</alter><octave>5</octave></pitch><duration>2</duration><voice>1</voice><type>eighth</type><stem default-y="-49.5">down</stem><beam number="1">begin</beam><lyric default-y="-95" name="verse" number="1"><syllabic>begin</syllabic><text font-size="10.8">Völ</text></lyric></note><note default-x="184"><pitch><step>B</step><alter>-1</alter><octave>4</octave></pitch><duration>2</duration><voice>1</voice><type>eighth</type><stem default-y="-54.5">down</stem><beam number="1">end</beam><lyric default-y="-95" name="verse" number="1"><syllabic>end</syllabic><text font-size="10.8">ker,</text></lyric></note></measure><!--=======================================================--><measure number="23" width="201"><print new-system="no" /><harmony default-y="37" font-size="10" font-weight="bold"><root><root-step>A</root-step><root-alter>-1</root-alter></root><kind text="">major</kind></harmony><note default-x="24"><pitch><step>E</step><alter>-1</alter><octave>5</octave></pitch><duration>4</duration><voice>1</voice><type>quarter</type><stem default-y="-40.5">down</stem><lyric default-y="-95" name="verse" number="1"><syllabic>begin</syllabic><text font-size="10.8">freu</text></lyric></note><note default-x="82"><pitch><step>E</step><alter>-1</alter><octave>5</octave></pitch><duration>4</duration><voice>1</voice><type>quarter</type><stem default-y="-40.5">down</stem><lyric default-y="-95" name="verse" number="1"><syllabic>end</syllabic><text font-size="10.8">et</text></lyric></note><harmony default-y="37" font-size="10" font-weight="bold"><root><root-step>E</root-step><root-alter>-1</root-alter></root><kind text="7">dominant</kind></harmony><note default-x="141"><pitch><step>D</step><alter>-1</alter><octave>5</octave></pitch><duration>4</duration><voice>1</voice><type>quarter</type><stem default-y="-45">down</stem><lyric default-y="-95" name="verse" number="1"><syllabic>single</syllabic><text font-size="10.8">euch</text></lyric></note></measure><!--=======================================================--><measure number="24" width="131"><print new-system="no" /><harmony default-y="37" font-size="10" font-weight="bold"><root><root-step>A</root-step><root-alter>-1</root-alter></root><kind text="">major</kind></harmony><note default-x="18"><pitch><step>C</step><octave>5</octave></pitch><duration>8</duration><voice>1</voice><type>half</type><stem default-y="-51">down</stem><lyric default-y="-95" name="verse" number="1"><syllabic>single</syllabic><text font-size="10.8">all!</text></lyric></note><note default-x="86"><pitch><step>E</step><alter>-1</alter><octave>4</octave></pitch><duration>4</duration><voice>1</voice><type>quarter</type><stem default-y="-4">up</stem><lyric default-y="-95" name="verse" number="1"><syllabic>single</syllabic><text font-size="10.8">O</text></lyric></note></measure><!--=======================================================--><measure number="25" width="237"><print new-system="no" /><note default-x="37"><pitch><step>E</step><alter>-1</alter><octave>4</octave></pitch><duration>8</duration><voice>1</voice><type>half</type><stem default-y="-4">up</stem><lyric default-y="-95" name="verse" number="1"><syllabic>single</syllabic><text font-size="10.8">kommt</text></lyric></note><harmony default-y="37" font-size="10" font-weight="bold"><root><root-step>E</root-step><root-alter>-1</root-alter></root><kind text="">major</kind></harmony><note default-x="137"><pitch><step>F</step><octave>4</octave></pitch><duration>2</duration><voice>1</voice><type>eighth</type><stem default-y="0">up</stem><beam number="1">begin</beam><lyric default-y="-95" name="verse" number="1"><syllabic>single</syllabic><text font-size="10.8">zu</text></lyric></note><note default-x="187"><pitch><step>G</step><octave>4</octave></pitch><duration>2</duration><voice>1</voice><type>eighth</type><stem default-y="5">up</stem><beam number="1">end</beam><lyric default-y="-95" name="verse" number="1"><syllabic>single</syllabic><text font-size="10.8">dem</text></lyric></note></measure><!--=======================================================--><measure number="26" width="291"><print new-system="yes"><system-layout><system-margins><left-margin>0</left-margin><right-margin>0</right-margin></system-margins><system-distance>184</system-distance></system-layout></print><harmony default-y="37" font-size="10" font-weight="bold"><root><root-step>A</root-step><root-alter>-1</root-alter></root><kind text="">major</kind></harmony><note default-x="109"><pitch><step>A</step><alter>-1</alter><octave>4</octave></pitch><duration>4</duration><voice>1</voice><type>quarter</type><stem default-y="10.5">up</stem><lyric default-y="-95" name="verse" number="1"><syllabic>begin</syllabic><text font-size="10.8">Va</text></lyric></note><note default-x="169"><pitch><step>E</step><alter>-1</alter><octave>4</octave></pitch><duration>4</duration><voice>1</voice><type>quarter</type><stem default-y="-4">up</stem><lyric default-y="-95" name="verse" number="1"><syllabic>end</syllabic><text font-size="10.8">ter!</text></lyric></note><note default-x="229"><pitch><step>A</step><alter>-1</alter><octave>4</octave></pitch><duration>4</duration><voice>1</voice><type>quarter</type><stem default-y="10.5">up</stem><lyric default-y="-95" name="verse" number="1"><syllabic>single</syllabic><text font-size="10.8">In</text></lyric></note></measure><!--=======================================================--><measure number="27" width="211"><print new-system="no" /><harmony default-y="37" font-size="10" font-weight="bold"><root><root-step>E</root-step><root-alter>-1</root-alter></root><kind text="">major</kind></harmony><note default-x="16"><pitch><step>B</step><alter>-1</alter><octave>4</octave></pitch><duration>4</duration><voice>1</voice><type>quarter</type><stem default-y="-55.5">down</stem><lyric default-y="-95" name="verse" number="1"><syllabic>begin</syllabic><text font-size="10.8">Je</text></lyric></note><note default-x="80"><pitch><step>E</step><alter>-1</alter><octave>4</octave></pitch><duration>4</duration><voice>1</voice><type>quarter</type><stem default-y="-4">up</stem><lyric default-y="-95" name="verse" number="1"><syllabic>end</syllabic><text font-size="10.8">sus</text></lyric></note><note default-x="145"><pitch><step>B</step><alter>-1</alter><octave>4</octave></pitch><duration>4</duration><voice>1</voice><type>quarter</type><stem default-y="-55.5">down</stem><lyric default-y="-95" name="verse" number="1"><syllabic>single</syllabic><text font-size="10.8">wir</text></lyric></note></measure><!--=======================================================--><measure number="28" width="203"><print new-system="no" /><harmony default-y="37" font-size="10" font-weight="bold"><root><root-step>A</root-step><root-alter>-1</root-alter></root><kind text="">major</kind></harmony><note default-x="34"><pitch><step>C</step><octave>5</octave></pitch><duration>8</duration><voice>1</voice><type>half</type><stem default-y="-51">down</stem><lyric default-y="-95" name="verse" number="1"><syllabic>single</syllabic><text font-size="10.8">nah’n,</text></lyric></note><harmony default-y="37" font-size="10" font-weight="bold"><root><root-step>A</root-step><root-alter>-1</root-alter></root><kind text="7">dominant</kind></harmony><note default-x="137"><pitch><step>C</step><octave>5</octave></pitch><duration>4</duration><voice>1</voice><type>quarter</type><stem default-y="-51">down</stem><lyric default-y="-95" name="verse" number="1"><syllabic>single</syllabic><text font-size="10.8">und</text></lyric></note></measure><!--=======================================================--><measure number="29" width="240"><print new-system="no" /><harmony default-y="37" font-size="10" font-weight="bold"><root><root-step>D</root-step><root-alter>-1</root-alter></root><kind text="">major</kind></harmony><note default-x="26"><pitch><step>E</step><alter>-1</alter><octave>5</octave></pitch><duration>4</duration><voice>1</voice><type>quarter</type><stem default-y="-40">down</stem><lyric default-y="-95" name="verse" number="1"><syllabic>single</syllabic><text font-size="10.8">gebt</text></lyric></note><note default-x="97"><pitch><step>D</step><alter>-1</alter><octave>5</octave></pitch><duration>4</duration><voice>1</voice><type>quarter</type><stem default-y="-45">down</stem><lyric default-y="-95" name="verse" number="1"><syllabic>single</syllabic><text font-size="10.8">ihm</text></lyric></note><note default-x="167"><pitch><step>B</step><alter>-1</alter><octave>4</octave></pitch><duration>4</duration><voice>1</voice><type>quarter</type><stem default-y="-55.5">down</stem><lyric default-y="-95" name="verse" number="1"><syllabic>single</syllabic><text font-size="10.8">die</text></lyric></note></measure><!--=======================================================--><measure number="30" width="208"><print new-system="no" /><harmony default-y="37" font-size="10" font-weight="bold"><root><root-step>A</root-step><root-alter>-1</root-alter></root><kind text="">major</kind></harmony><note default-x="17"><pitch><step>A</step><alter>-1</alter><octave>4</octave></pitch><duration>4</duration><voice>1</voice><type>quarter</type><stem default-y="10.5">up</stem><lyric default-y="-95" name="verse" number="1"><syllabic>begin</syllabic><text font-size="10.8">Eh</text></lyric></note><harmony default-y="37" font-size="10" font-weight="bold"><root><root-step>E</root-step><root-alter>-1</root-alter></root><kind text="">major</kind></harmony><note default-x="80"><pitch><step>G</step><octave>4</octave></pitch><duration>4</duration><voice>1</voice><type>quarter</type><stem default-y="6">up</stem><lyric default-y="-95" name="verse" number="1"><syllabic>end</syllabic><text font-size="10.8">re,</text></lyric></note><harmony default-y="37" font-size="10" font-weight="bold"><root><root-step>A</root-step><root-alter>-1</root-alter></root><kind text="">major</kind></harmony><note default-x="144"><pitch><step>A</step><alter>-1</alter><octave>4</octave></pitch><duration>4</duration><voice>1</voice><type>quarter</type><stem default-y="10.5">up</stem><lyric default-y="-95" name="verse" number="1"><syllabic>single</syllabic><text font-size="10.8">der</text></lyric></note></measure><!--=======================================================--><measure number="31" width="490"><print new-system="yes"><system-layout><system-margins><left-margin>0</left-margin><right-margin>0</right-margin></system-margins><system-distance>184</system-distance></system-layout></print><note default-x="113"><pitch><step>C</step><octave>5</octave></pitch><duration>4</duration><voice>1</voice><type>quarter</type><stem default-y="-50.5">down</stem><lyric default-y="-95" name="verse" number="1"><syllabic>begin</syllabic><text font-size="10.8">Gro</text></lyric></note><note default-x="238"><pitch><step>C</step><octave>5</octave></pitch><duration>4</duration><voice>1</voice><type>quarter</type><stem default-y="-50.5">down</stem><lyric default-y="-95" name="verse" number="1"><syllabic>end</syllabic><text font-size="10.8">ßes</text></lyric></note><harmony default-y="37" font-size="10" font-weight="bold"><root><root-step>E</root-step><root-alter>-1</root-alter></root><kind text="">major</kind></harmony><note default-x="363"><pitch><step>B</step><alter>-1</alter><octave>4</octave></pitch><duration>4</duration><voice>1</voice><type>quarter</type><stem default-y="-55.5">down</stem><lyric default-y="-95" name="verse" number="1"><syllabic>begin</syllabic><text font-size="10.8">ge</text></lyric></note></measure><!--=======================================================--><measure number="32" width="382"><print new-system="no" /><barline location="left"><ending default-y="76" end-length="76" font-size="6.2" number="1, 2" type="start" /></barline><harmony default-y="37" font-size="10" font-weight="bold"><root><root-step>A</root-step><root-alter>-1</root-alter></root><kind text="">major</kind></harmony><note default-x="23"><pitch><step>A</step><alter>-1</alter><octave>4</octave></pitch><duration>8</duration><voice>1</voice><type>half</type><stem default-y="11">up</stem><lyric default-y="-95" name="verse" number="1"><syllabic>end</syllabic><text font-size="10.8">tan.</text></lyric></note><note default-x="230"><pitch><step>E</step><alter>-1</alter><octave>4</octave></pitch><duration>4</duration><voice>1</voice><type>quarter</type><stem default-y="-4">up</stem><lyric default-y="-95" name="verse" number="1" relative-x="-11"><syllabic>single</syllabic><text font-size="10.8">2.</text><elision /><syllabic>single</syllabic><text font-size="10.8">O</text></lyric><lyric default-y="-120" name="verse" number="2"><syllabic>single</syllabic><text font-size="10.8">3.</text><elision /><syllabic>single</syllabic><text font-size="10.8">Wie</text></lyric></note><barline location="right"><bar-style>light-heavy</bar-style><ending number="1, 2" type="stop" /><repeat direction="backward" /></barline></measure><!--=======================================================--><measure number="33" width="281"><print new-system="no" /><barline location="left"><ending default-y="76" end-length="76" font-size="6.2" number="3" type="start" /></barline><harmony default-y="37" font-size="10" font-weight="bold"><root><root-step>A</root-step><root-alter>-1</root-alter></root><kind text="">major</kind></harmony><note default-x="21"><pitch><step>A</step><alter>-1</alter><octave>4</octave></pitch><duration>8</duration><voice>1</voice><type>half</type><stem default-y="11">up</stem><lyric default-y="-95" name="verse" number="1"><syllabic>single</syllabic><text font-size="10.8">tan.</text></lyric></note><note default-x="176"><rest /><duration>4</duration><voice>1</voice><type>quarter</type></note><barline location="right"><bar-style>light-heavy</bar-style><ending number="3" type="discontinue" /></barline></measure></part><!--=========================================================--></score-partwise>