<?xml version="1.0" encoding="UTF-8"?><!DOCTYPE score-partwise PUBLIC "-//Recordare//DTD MusicXML 1.1 Partwise//EN" "http://www.musicxml.org/dtds/partwise.dtd"[]><score-partwise version="1.1"><movement-title>Schuldlos schuldig</movement-title><identification><creator type="composer">Johannes Nitsch</creator><creator type="lyricist">Jürgen Werth</creator><encoding><software>Finale 2011 for Windows</software><software>Dolet Light for Finale 2011</software><encoding-date>2011-08-11</encoding-date></encoding><rights>CCLI-Liednummer 5114278
© 1996 Auf den Punkt, Siegen
Nutzung ausschließlich im Rahmen der SongSelect®-Nutzungsbedingungen. Alle Rechte vorbehalten. www.ccli.com
CCLI-Lizenznummer 2182334
</rights></identification><defaults><scaling><millimeters>6.5088</millimeters><tenths>40</tenths></scaling><page-layout><page-height>1771</page-height><page-width>1308</page-width><page-margins type="both"><left-margin>78</left-margin><right-margin>78</right-margin><top-margin>78</top-margin><bottom-margin>78</bottom-margin></page-margins></page-layout><system-layout><system-margins><left-margin>68</left-margin><right-margin>0</right-margin></system-margins><system-distance>402</system-distance><top-system-distance>280</top-system-distance></system-layout><music-font font-family="Maestro" font-size="18.5" /><word-font font-family="Arial" font-size="9.2" /><lyric-font font-family="Arial" font-size="10.8" name="verse" /><lyric-font font-family="Arial" font-size="10.8" name="section" /></defaults><credit page="1"><credit-type>title</credit-type><credit-words default-x="654" default-y="1688" font-size="21.6" font-weight="bold" justify="center" valign="top">Schuldlos schuldig</credit-words></credit><credit page="1"><credit-words default-x="1230" default-y="1620" font-size="10.8" font-style="italic" justify="right" valign="top">Musik:</credit-words></credit><credit page="1"><credit-words default-x="1230" default-y="1595" font-size="10.8" font-weight="bold" justify="right" valign="top">Johannes Nitsch</credit-words></credit><credit page="1"><credit-words default-x="78" default-y="1620" font-size="10.8" font-style="italic" valign="top">Text:</credit-words></credit><credit page="1"><credit-words default-x="78" default-y="1595" font-size="10.8" font-weight="bold" valign="top">Jürgen Werth</credit-words></credit><part-list><score-part id="P1"><part-name print-object="no">Melodie</part-name><score-instrument id="P1-I2"><instrument-name>Melodie</instrument-name></score-instrument><midi-instrument id="P1-I2"><midi-channel>1</midi-channel><midi-program>1</midi-program></midi-instrument></score-part></part-list><!--=========================================================--><part id="P1"><measure implicit="yes" number="0" width="260"><print page-number="1"><page-layout><page-height>1771</page-height><page-width>1308</page-width><page-margins><left-margin>78</left-margin><right-margin>78</right-margin><top-margin>78</top-margin><bottom-margin>163</bottom-margin></page-margins></page-layout></print><attributes><divisions>4</divisions><key><fifths>2</fifths><mode>minor</mode></key><time><beats>4</beats><beat-type>4</beat-type></time><clef><sign>G</sign><line>2</line></clef></attributes><sound tempo="96" /><note default-x="141"><pitch><step>F</step><alter>1</alter><octave>4</octave></pitch><duration>2</duration><voice>1</voice><type>eighth</type><stem default-y="1">up</stem><lyric default-y="-95" name="verse" number="1" relative-x="-6"><syllabic>single</syllabic><text font-size="10.8">1.</text><elision /><syllabic>single</syllabic><text font-size="10.8">Es</text></lyric><lyric default-y="-120" name="verse" number="2" relative-x="-5"><syllabic>single</syllabic><text font-size="10.8">(2.</text><elision /><syllabic>single</syllabic><text font-size="10.8">Du)</text></lyric><lyric default-y="-145" name="verse" number="3" relative-x="-6"><syllabic>single</syllabic><text font-size="10.8">(3.</text><elision /><syllabic>single</syllabic><text font-size="10.8">Es)</text></lyric></note></measure><!--=======================================================--><measure number="1" width="824"><barline location="left"><bar-style>heavy-light</bar-style><repeat direction="forward" /></barline><harmony default-y="37" font-size="10" font-weight="bold"><root><root-step>B</root-step></root><kind text="m">minor</kind></harmony><note default-x="42"><pitch><step>F</step><alter>1</alter><octave>4</octave></pitch><duration>2</duration><voice>1</voice><type>eighth</type><stem default-y="0">up</stem><beam number="1">begin</beam><lyric default-y="-95" name="verse" number="1"><syllabic>single</syllabic><text font-size="10.8">war</text></lyric><lyric default-y="-120" name="verse" number="2"><syllabic>single</syllabic><text font-size="10.8">stirbst</text></lyric><lyric default-y="-145" name="verse" number="3"><syllabic>single</syllabic><text font-size="10.8">war</text></lyric></note><note default-x="141"><pitch><step>F</step><alter>1</alter><octave>4</octave></pitch><duration>2</duration><voice>1</voice><type>eighth</type><stem default-y="0">up</stem><beam number="1">end</beam><lyric default-y="-95" name="verse" number="1"><syllabic>single</syllabic><text font-size="10.8">noch</text></lyric><lyric default-y="-120" name="verse" number="2"><syllabic>single</syllabic><text font-size="10.8">an</text></lyric><lyric default-y="-145" name="verse" number="3"><syllabic>single</syllabic><text font-size="10.8">noch</text></lyric></note><note default-x="239"><pitch><step>F</step><alter>1</alter><octave>4</octave></pitch><duration>2</duration><voice>1</voice><type>eighth</type><stem default-y="0">up</stem><beam number="1">begin</beam><lyric default-y="-95" name="verse" number="1"><syllabic>single</syllabic><text font-size="10.8">nie</text></lyric><lyric default-y="-120" name="verse" number="2"><syllabic>begin</syllabic><text font-size="10.8">sat</text></lyric><lyric default-y="-145" name="verse" number="3"><syllabic>single</syllabic><text font-size="10.8">nie</text></lyric></note><note default-x="338"><pitch><step>G</step><octave>4</octave></pitch><duration>2</duration><voice>1</voice><type>eighth</type><stem default-y="5">up</stem><beam number="1">end</beam><lyric default-y="-95" name="verse" number="1"><syllabic>single</syllabic><text font-size="10.8">so</text></lyric><lyric default-y="-120" name="verse" number="2"><syllabic>end</syllabic><text font-size="10.8">ter</text></lyric><lyric default-y="-145" name="verse" number="3"><syllabic>single</syllabic><text font-size="10.8">so</text></lyric></note><harmony default-y="37" font-size="10" font-weight="bold"><root><root-step>E</root-step></root><kind text="m">minor</kind><bass><bass-step>B</bass-step></bass></harmony><note default-x="436"><pitch><step>F</step><alter>1</alter><octave>4</octave></pitch><duration>2</duration><voice>1</voice><type>eighth</type><stem default-y="0">up</stem><beam number="1">begin</beam><lyric default-y="-95" name="verse" number="1"><syllabic>begin</syllabic><text font-size="10.8">dun</text></lyric><lyric default-y="-120" name="verse" number="2"><syllabic>begin</syllabic><text font-size="10.8">Ü</text></lyric><lyric default-y="-145" name="verse" number="3"><syllabic>begin</syllabic><text font-size="10.8">dun</text></lyric></note><note default-x="534"><pitch><step>E</step><octave>4</octave></pitch><duration>2</duration><voice>1</voice><type>eighth</type><stem default-y="-4.5">up</stem><beam number="1">end</beam><lyric default-y="-95" name="verse" number="1"><syllabic>end</syllabic><text font-size="10.8">kel,</text></lyric><lyric default-y="-120" name="verse" number="2"><syllabic>middle</syllabic><text font-size="10.8">ber</text></lyric><lyric default-y="-145" name="verse" number="3"><syllabic>end</syllabic><text font-size="10.8">kel,</text></lyric></note><note default-x="632"><pitch><step>D</step><octave>4</octave></pitch><duration>3</duration><voice>1</voice><type>eighth</type><dot /><stem default-y="-10">up</stem><beam number="1">begin</beam><lyric default-y="-95" name="verse" number="1"><syllabic>single</syllabic><text font-size="10.8">nie</text></lyric><lyric default-y="-120" name="verse" number="2"><syllabic>middle</syllabic><text font-size="10.8">heb</text></lyric><lyric default-y="-145" name="verse" number="3"><syllabic>single</syllabic><text font-size="10.8">nie</text></lyric></note><note default-x="762"><pitch><step>E</step><octave>4</octave></pitch><duration>1</duration><voice>1</voice><type>16th</type><stem default-y="-4.5">up</stem><beam number="1">end</beam><beam number="2">backward hook</beam><lyric default-y="-95" name="verse" number="1"><syllabic>single</syllabic><text font-size="10.8">so</text></lyric><lyric default-y="-120" name="verse" number="2"><syllabic>middle</syllabic><text font-size="10.8">lich</text></lyric><lyric default-y="-145" name="verse" number="3"><syllabic>single</syllabic><text font-size="10.8">so</text></lyric></note></measure><!--=======================================================--><measure number="2" width="743"><print new-system="yes"><system-layout><system-margins><left-margin>0</left-margin><right-margin>0</right-margin></system-margins><system-distance>226</system-distance></system-layout></print><harmony default-y="37" font-size="10" font-weight="bold"><root><root-step>B</root-step></root><kind text="m">minor</kind></harmony><note default-x="95"><pitch><step>F</step><alter>1</alter><octave>4</octave></pitch><duration>4</duration><voice>1</voice><type>quarter</type><stem default-y="1">up</stem><lyric default-y="-95" name="verse" number="1"><syllabic>single</syllabic><text font-size="10.8">kalt:</text></lyric><lyric default-y="-120" name="verse" number="2"><syllabic>end</syllabic><text font-size="10.8">keit,</text></lyric><lyric default-y="-145" name="verse" number="3"><syllabic>single</syllabic><text font-size="10.8">kalt.</text></lyric></note><note default-x="232"><rest /><duration>2</duration><voice>1</voice><type>eighth</type></note><note default-x="317"><pitch><step>B</step><octave>3</octave></pitch><duration>2</duration><voice>1</voice><type>eighth</type><stem default-y="-19">up</stem><lyric default-y="-95" name="verse" number="1"><syllabic>single</syllabic><text font-size="10.8">Ein</text></lyric><lyric default-y="-120" name="verse" number="2"><syllabic>single</syllabic><text font-size="10.8">an</text></lyric><lyric default-y="-145" name="verse" number="3"><syllabic>single</syllabic><text font-size="10.8">Doch</text></lyric></note><note default-x="402"><pitch><step>B</step><octave>3</octave></pitch><duration>2</duration><voice>1</voice><type>eighth</type><stem default-y="-19.5">up</stem><beam number="1">begin</beam><lyric default-y="-95" name="verse" number="1"><syllabic>single</syllabic><text font-size="10.8">Kreuz</text></lyric><lyric default-y="-120" name="verse" number="2"><syllabic>begin</syllabic><text font-size="10.8">tau</text></lyric><lyric default-y="-145" name="verse" number="3"><syllabic>single</syllabic><text font-size="10.8">so</text></lyric></note><note default-x="487"><pitch><step>B</step><octave>3</octave></pitch><duration>2</duration><voice>1</voice><type>eighth</type><stem default-y="-19.5">up</stem><beam number="1">end</beam><lyric default-y="-95" name="verse" number="1"><syllabic>single</syllabic><text font-size="10.8">auf</text></lyric><lyric default-y="-120" name="verse" number="2"><syllabic>end</syllabic><text font-size="10.8">send</text></lyric><lyric default-y="-145" name="verse" number="3"><syllabic>single</syllabic><text font-size="10.8">bricht</text></lyric></note><note default-x="571"><pitch><step>D</step><octave>4</octave></pitch><duration>2</duration><voice>1</voice><type>eighth</type><stem default-y="-5">up</stem><beam number="1">begin</beam><lyric default-y="-95" name="verse" number="1"><syllabic>begin</syllabic><text font-size="10.8">ei</text></lyric><lyric default-y="-120" name="verse" number="2"><syllabic>begin</syllabic><text font-size="10.8">scha</text></lyric><lyric default-y="-145" name="verse" number="3"><syllabic>begin</syllabic><text font-size="10.8">Got</text></lyric></note><note default-x="656"><pitch><step>F</step><alter>1</alter><octave>4</octave></pitch><duration>2</duration><voice>1</voice><type>eighth</type><stem default-y="0">up</stem><beam number="1">end</beam><lyric default-y="-95" name="verse" number="1"><syllabic>end</syllabic><text font-size="10.8">nem</text></lyric><lyric default-y="-120" name="verse" number="2"><syllabic>end</syllabic><text font-size="10.8">len</text></lyric><lyric default-y="-145" name="verse" number="3"><syllabic>end</syllabic><text font-size="10.8">tes</text></lyric></note></measure><!--=======================================================--><measure number="3" width="410"><harmony default-y="37" font-size="10" font-weight="bold"><root><root-step>E</root-step></root><kind text="m">minor</kind></harmony><note default-x="21"><pitch><step>E</step><octave>4</octave></pitch><duration>4</duration><voice>1</voice><type>quarter</type><stem default-y="-4">up</stem><lyric default-y="-95" name="verse" number="1"><syllabic>begin</syllabic><text font-size="10.8">Hü</text></lyric><lyric default-y="-120" name="verse" number="2"><syllabic>begin</syllabic><text font-size="10.8">Träu</text></lyric><lyric default-y="-145" name="verse" number="3"><syllabic>begin</syllabic><text font-size="10.8">Gna</text></lyric></note><note default-x="112"><pitch><step>D</step><octave>4</octave></pitch><duration>4</duration><voice>1</voice><type>quarter</type><stem default-y="-9">up</stem><lyric default-y="-95" name="verse" number="1"><syllabic>end</syllabic><text font-size="10.8">gel,</text></lyric><lyric default-y="-120" name="verse" number="2"><syllabic>end</syllabic><text font-size="10.8">men</text></lyric><lyric default-y="-145" name="verse" number="3"><syllabic>end</syllabic><text font-size="10.8">de</text></lyric></note><note default-x="204"><rest /><duration>4</duration><voice>1</voice><type>quarter</type></note><note default-x="295"><pitch><step>D</step><octave>4</octave></pitch><duration>2</duration><voice>1</voice><type>eighth</type><stem default-y="-10">up</stem><beam number="1">begin</beam><lyric default-y="-95" name="verse" number="1"><syllabic>begin</syllabic><text font-size="10.8">star</text></lyric><lyric default-y="-120" name="verse" number="2"><syllabic>begin</syllabic><text font-size="10.8">ei</text></lyric><lyric default-y="-145" name="verse" number="3"><syllabic>single</syllabic><text font-size="10.8">heiß</text></lyric></note><note default-x="352"><pitch><step>E</step><octave>4</octave></pitch><duration>2</duration><voice>1</voice><type>eighth</type><stem default-y="-5">up</stem><beam number="1">end</beam><lyric default-y="-95" name="verse" number="1"><syllabic>end</syllabic><text font-size="10.8">res</text></lyric><lyric default-y="-120" name="verse" number="2"><syllabic>end</syllabic><text font-size="10.8">ner</text></lyric><lyric default-y="-145" name="verse" number="3"><syllabic>single</syllabic><text font-size="10.8">in</text></lyric></note></measure><!--=======================================================--><measure number="4" width="544"><print new-system="yes"><system-layout><system-margins><left-margin>0</left-margin><right-margin>0</right-margin></system-margins><system-distance>226</system-distance></system-layout></print><harmony default-y="37" font-size="10" font-weight="bold"><root><root-step>G</root-step></root><kind text="">major</kind></harmony><note default-x="104"><pitch><step>D</step><octave>4</octave></pitch><duration>2</duration><voice>1</voice><type>eighth</type><stem default-y="-10">up</stem><beam number="1">begin</beam><lyric default-y="-95" name="verse" number="1"><syllabic>begin</syllabic><text font-size="10.8">Schwei</text></lyric><lyric default-y="-120" name="verse" number="2"><syllabic>begin</syllabic><text font-size="10.8">selbst</text></lyric><lyric default-y="-145" name="verse" number="3"><syllabic>begin</syllabic><text font-size="10.8">uns</text></lyric></note><note default-x="182"><pitch><step>B</step><octave>3</octave></pitch><duration>2</duration><voice>1</voice><type>eighth</type><stem default-y="-15">up</stem><beam number="1">end</beam><lyric default-y="-95" name="verse" number="1"><syllabic>end</syllabic><text font-size="10.8">gen,</text></lyric><lyric default-y="-120" name="verse" number="2"><syllabic>middle</syllabic><text font-size="10.8">ge</text></lyric><lyric default-y="-145" name="verse" number="3"><syllabic>end</syllabic><text font-size="10.8">re</text></lyric></note><note default-x="251"><pitch><step>D</step><octave>4</octave></pitch><duration>2</duration><voice>1</voice><type>eighth</type><stem default-y="-5">up</stem><beam number="1">begin</beam><lyric default-y="-95" name="verse" number="1"><syllabic>single</syllabic><text font-size="10.8">Hohn</text></lyric><lyric default-y="-120" name="verse" number="2"><syllabic>middle</syllabic><text font-size="10.8">rech</text></lyric><lyric default-y="-145" name="verse" number="3"><syllabic>begin</syllabic><text font-size="10.8">küh</text></lyric></note><note default-x="319"><pitch><step>F</step><alter>1</alter><octave>4</octave></pitch><duration>2</duration><voice>1</voice><type>eighth</type><stem default-y="0">up</stem><beam number="1">end</beam><lyric default-y="-95" name="verse" number="1"><syllabic>single</syllabic><text font-size="10.8">und</text></lyric><lyric default-y="-120" name="verse" number="2"><syllabic>end</syllabic><text font-size="10.8">ten</text></lyric><lyric default-y="-145" name="verse" number="3"><syllabic>end</syllabic><text font-size="10.8">le</text></lyric></note><harmony default-y="37" font-size="10" font-weight="bold"><root><root-step>B</root-step></root><kind text="m">minor</kind></harmony><note default-x="389"><pitch><step>F</step><alter>1</alter><octave>4</octave></pitch><duration>4</duration><voice>1</voice><type>quarter</type><stem default-y="1">up</stem><lyric default-y="-95" name="verse" number="1"><syllabic>single</syllabic><text font-size="10.8">Spott.</text></lyric><lyric default-y="-120" name="verse" number="2"><syllabic>single</syllabic><text font-size="10.8">Welt.</text></lyric><lyric default-y="-145" name="verse" number="3"><syllabic>single</syllabic><text font-size="10.8">Welt.</text></lyric></note><note default-x="450"><rest /><duration>2</duration><voice>1</voice><type>eighth</type></note><direction placement="below"><direction-type><other-direction default-y="-137" font-size="13.8">eighth rest</other-direction></direction-type></direction><note default-x="492"><pitch><step>F</step><alter>1</alter><octave>4</octave></pitch><duration>2</duration><voice>1</voice><type>eighth</type><stem default-y="1">up</stem><lyric default-y="-95" name="verse" number="1"><syllabic>single</syllabic><text font-size="10.8">Die</text></lyric><lyric default-y="-120" name="verse" number="2"><syllabic>single</syllabic><text font-size="10.8">Du</text></lyric></note></measure><!--=======================================================--><measure number="5" width="608"><note default-x="24"><pitch><step>F</step><alter>1</alter><octave>4</octave></pitch><duration>2</duration><voice>1</voice><type>eighth</type><stem default-y="0">up</stem><beam number="1">begin</beam><lyric default-y="-95" name="verse" number="1"><syllabic>begin</syllabic><text font-size="10.8">Lie</text></lyric><lyric default-y="-120" name="verse" number="2"><syllabic>single</syllabic><text font-size="10.8">stirbst</text></lyric><lyric default-y="-145" name="verse" number="3"><syllabic>begin</syllabic><text font-size="10.8">Lie</text></lyric></note><note default-x="96"><pitch><step>F</step><alter>1</alter><octave>4</octave></pitch><duration>1</duration><tie type="start" /><voice>1</voice><type>16th</type><stem default-y="0">up</stem><beam number="1">continue</beam><beam number="2">begin</beam><notations><tied type="start" /></notations><lyric default-y="-95" name="verse" number="1"><syllabic>end</syllabic><text font-size="10.8">be</text><extend /></lyric><lyric default-y="-120" name="verse" number="2"><syllabic>single</syllabic><text font-size="10.8">an</text><extend /></lyric><lyric default-y="-145" name="verse" number="3"><syllabic>end</syllabic><text font-size="10.8">be</text></lyric></note><note default-x="140"><pitch><step>F</step><alter>1</alter><octave>4</octave></pitch><duration>1</duration><tie type="stop" /><voice>1</voice><type>16th</type><stem default-y="0">up</stem><beam number="1">end</beam><beam number="2">end</beam><notations><tied type="stop" /></notations><lyric default-y="-145" name="verse" number="3"><syllabic>begin</syllabic><text font-size="10.8">be</text></lyric></note><note default-x="200"><pitch><step>F</step><alter>1</alter><octave>4</octave></pitch><duration>2</duration><voice>1</voice><type>eighth</type><stem default-y="0">up</stem><beam number="1">begin</beam><lyric default-y="-95" name="verse" number="1"><syllabic>single</syllabic><text font-size="10.8">stirbt</text></lyric><lyric default-y="-120" name="verse" number="2"><syllabic>begin</syllabic><text font-size="10.8">stol</text></lyric><lyric default-y="-145" name="verse" number="3"><syllabic>end</syllabic><text font-size="10.8">siegt</text></lyric></note><note default-x="261"><pitch><step>G</step><octave>4</octave></pitch><duration>2</duration><voice>1</voice><type>eighth</type><stem default-y="5">up</stem><beam number="1">end</beam><lyric default-y="-95" name="verse" number="1"><syllabic>single</syllabic><text font-size="10.8">an</text></lyric><lyric default-y="-120" name="verse" number="2"><syllabic>end</syllabic><text font-size="10.8">zer</text></lyric><lyric default-y="-145" name="verse" number="3"><syllabic>begin</syllabic><text font-size="10.8">ge</text></lyric></note><harmony default-y="37" font-size="10" font-weight="bold"><root><root-step>E</root-step></root><kind text="m">minor</kind><bass><bass-step>B</bass-step></bass></harmony><note default-x="336"><pitch><step>F</step><alter>1</alter><octave>4</octave></pitch><duration>2</duration><voice>1</voice><type>eighth</type><stem default-y="0">up</stem><beam number="1">begin</beam><lyric default-y="-95" name="verse" number="1"><syllabic>begin</syllabic><text font-size="10.8">Gleich</text></lyric><lyric default-y="-120" name="verse" number="2"><syllabic>begin</syllabic><text font-size="10.8">Gott</text></lyric><lyric default-y="-145" name="verse" number="3"><syllabic>middle</syllabic><text font-size="10.8">wal</text></lyric></note><note default-x="428"><pitch><step>E</step><octave>4</octave></pitch><duration>2</duration><voice>1</voice><type>eighth</type><stem default-y="-5">up</stem><beam number="1">end</beam><lyric default-y="-95" name="verse" number="1"><syllabic>end</syllabic><text font-size="10.8">mut</text></lyric><lyric default-y="-120" name="verse" number="2"><syllabic>middle</syllabic><text font-size="10.8">ver</text></lyric><lyric default-y="-145" name="verse" number="3"><syllabic>end</syllabic><text font-size="10.8">tig</text></lyric></note><note default-x="485"><pitch><step>D</step><octave>4</octave></pitch><duration>3</duration><voice>1</voice><type>eighth</type><dot /><stem default-y="-10">up</stem><beam number="1">begin</beam><lyric default-y="-95" name="verse" number="1"><syllabic>single</syllabic><text font-size="10.8">und</text></lyric><lyric default-y="-120" name="verse" number="2"><syllabic>middle</syllabic><text font-size="10.8">ges</text></lyric><lyric default-y="-145" name="verse" number="3"><syllabic>single</syllabic><text font-size="10.8">die</text></lyric></note><note default-x="563"><pitch><step>E</step><octave>4</octave></pitch><duration>1</duration><voice>1</voice><type>16th</type><stem default-y="-5">up</stem><beam number="1">end</beam><beam number="2">backward hook</beam><lyric default-y="-95" name="verse" number="1"><syllabic>begin</syllabic><text font-size="10.8">Ge</text></lyric><lyric default-y="-120" name="verse" number="2"><syllabic>middle</syllabic><text font-size="10.8">sen</text></lyric><lyric default-y="-145" name="verse" number="3"><syllabic>begin</syllabic><text font-size="10.8">Ge</text></lyric></note></measure><!--=======================================================--><measure number="6" width="684"><print new-system="yes"><system-layout><system-margins><left-margin>0</left-margin><right-margin>0</right-margin></system-margins><system-distance>226</system-distance></system-layout></print><harmony default-y="37" font-size="10" font-weight="bold"><root><root-step>B</root-step></root><kind text="m">minor</kind></harmony><note default-x="95"><pitch><step>F</step><alter>1</alter><octave>4</octave></pitch><duration>6</duration><voice>1</voice><type>quarter</type><dot /><stem default-y="1">up</stem><lyric default-y="-95" name="verse" number="1"><syllabic>end</syllabic><text font-size="10.8">walt</text></lyric><lyric default-y="-120" name="verse" number="2"><syllabic>end</syllabic><text font-size="10.8">heit,</text></lyric><lyric default-y="-145" name="verse" number="3"><syllabic>end</syllabic><text font-size="10.8">walt.</text></lyric></note><note default-x="272"><pitch><step>B</step><octave>3</octave></pitch><duration>2</duration><voice>1</voice><type>eighth</type><stem default-y="-19">up</stem><lyric default-y="-95" name="verse" number="1"><syllabic>single</syllabic><text font-size="10.8">und</text></lyric><lyric default-y="-120" name="verse" number="2"><syllabic>single</syllabic><text font-size="10.8">an</text></lyric><lyric default-y="-145" name="verse" number="3"><syllabic>single</syllabic><text font-size="10.8">Wir</text></lyric></note><note default-x="353"><pitch><step>B</step><octave>3</octave></pitch><duration>2</duration><voice>1</voice><type>eighth</type><stem default-y="-19.5">up</stem><beam number="1">begin</beam><lyric default-y="-95" name="verse" number="1"><syllabic>begin</syllabic><text font-size="10.8">flüs</text></lyric><lyric default-y="-120" name="verse" number="2"><syllabic>begin</syllabic><text font-size="10.8">selbst</text></lyric><lyric default-y="-145" name="verse" number="3"><syllabic>begin</syllabic><text font-size="10.8">fei</text></lyric></note><note default-x="436"><pitch><step>B</step><octave>3</octave></pitch><duration>2</duration><voice>1</voice><type>eighth</type><stem default-y="-19.5">up</stem><beam number="1">end</beam><lyric default-y="-95" name="verse" number="1"><syllabic>end</syllabic><text font-size="10.8">tert</text></lyric><lyric default-y="-120" name="verse" number="2"><syllabic>middle</syllabic><text font-size="10.8">er</text></lyric><lyric default-y="-145" name="verse" number="3"><syllabic>end</syllabic><text font-size="10.8">ern</text></lyric></note><note default-x="518"><pitch><step>D</step><octave>4</octave></pitch><duration>2</duration><voice>1</voice><type>eighth</type><stem default-y="-5">up</stem><beam number="1">begin</beam><lyric default-y="-95" name="verse" number="1"><syllabic>begin</syllabic><text font-size="10.8">lei</text></lyric><lyric default-y="-120" name="verse" number="2"><syllabic>middle</syllabic><text font-size="10.8">dach</text></lyric><lyric default-y="-145" name="verse" number="3"><syllabic>single</syllabic><text font-size="10.8">die</text></lyric></note><note default-x="600"><pitch><step>F</step><alter>1</alter><octave>4</octave></pitch><duration>2</duration><voice>1</voice><type>eighth</type><stem default-y="0">up</stem><beam number="1">end</beam><lyric default-y="-95" name="verse" number="1"><syllabic>end</syllabic><text font-size="10.8">se</text></lyric><lyric default-y="-120" name="verse" number="2"><syllabic>end</syllabic><text font-size="10.8">ten</text></lyric><lyric default-y="-145" name="verse" number="3"><syllabic>begin</syllabic><text font-size="10.8">Ver</text></lyric></note></measure><!--=======================================================--><measure number="7" width="469"><harmony default-y="37" font-size="10" font-weight="bold"><root><root-step>E</root-step></root><kind text="m">minor</kind></harmony><note default-x="20"><pitch><step>E</step><octave>4</octave></pitch><duration>4</duration><voice>1</voice><type>quarter</type><stem default-y="-4">up</stem><lyric default-y="-95" name="verse" number="1"><syllabic>begin</syllabic><text font-size="10.8">Wor</text></lyric><lyric default-y="-120" name="verse" number="2"><syllabic>begin</syllabic><text font-size="10.8">Zie</text></lyric><lyric default-y="-145" name="verse" number="3"><syllabic>middle</syllabic><text font-size="10.8">söh</text></lyric></note><note default-x="126"><pitch><step>D</step><octave>4</octave></pitch><duration>4</duration><voice>1</voice><type>quarter</type><stem default-y="-9">up</stem><lyric default-y="-95" name="verse" number="1"><syllabic>end</syllabic><text font-size="10.8">te:</text></lyric><lyric default-y="-120" name="verse" number="2"><syllabic>end</syllabic><text font-size="10.8">len,</text></lyric><lyric default-y="-145" name="verse" number="3"><syllabic>end</syllabic><text font-size="10.8">nung</text></lyric></note><note default-x="230"><rest /><duration>4</duration><voice>1</voice><type>quarter</type></note><note default-x="334"><pitch><step>D</step><octave>4</octave></pitch><duration>2</duration><voice>1</voice><type>eighth</type><stem default-y="-10">up</stem><beam number="1">begin</beam><lyric default-y="-95" name="verse" number="1"><syllabic>begin</syllabic><text font-size="10.8">Wa</text></lyric><lyric default-y="-120" name="verse" number="2"><syllabic>begin</syllabic><text font-size="10.8">fal</text></lyric><lyric default-y="-145" name="verse" number="3"><syllabic>begin</syllabic><text font-size="10.8">zwi</text></lyric></note><note default-x="401"><pitch><step>E</step><octave>4</octave></pitch><duration>2</duration><voice>1</voice><type>eighth</type><stem default-y="-5">up</stem><beam number="1">end</beam><lyric default-y="-95" name="verse" number="1"><syllabic>end</syllabic><text font-size="10.8">rum</text></lyric><lyric default-y="-120" name="verse" number="2"><syllabic>end</syllabic><text font-size="10.8">schen</text></lyric><lyric default-y="-145" name="verse" number="3"><syllabic>end</syllabic><text font-size="10.8">schen</text></lyric></note></measure><!--=======================================================--><measure number="8" width="1152"><print new-system="yes"><system-layout><system-margins><left-margin>0</left-margin><right-margin>0</right-margin></system-margins><system-distance>226</system-distance></system-layout></print><harmony default-y="37" font-size="10" font-weight="bold"><root><root-step>G</root-step></root><kind text="">major</kind></harmony><note default-x="89"><pitch><step>D</step><octave>4</octave></pitch><duration>2</duration><voice>1</voice><type>eighth</type><stem default-y="-10">up</stem><beam number="1">begin</beam><lyric default-y="-95" name="verse" number="1"><syllabic>single</syllabic><text font-size="10.8">bist</text></lyric><lyric default-y="-120" name="verse" number="2"><syllabic>begin</syllabic><text font-size="10.8">We</text></lyric><lyric default-y="-145" name="verse" number="3"><syllabic>single</syllabic><text font-size="10.8">Gott</text></lyric></note><note default-x="228"><pitch><step>B</step><octave>3</octave></pitch><duration>2</duration><voice>1</voice><type>eighth</type><stem default-y="-15">up</stem><beam number="1">end</beam><lyric default-y="-95" name="verse" number="1"><syllabic>single</syllabic><text font-size="10.8">du</text></lyric><lyric default-y="-120" name="verse" number="2"><syllabic>end</syllabic><text font-size="10.8">gen,</text></lyric><lyric default-y="-145" name="verse" number="3"><syllabic>single</syllabic><text font-size="10.8">und</text></lyric></note><note default-x="366"><pitch><step>D</step><octave>4</octave></pitch><duration>2</duration><voice>1</voice><type>eighth</type><stem default-y="-5">up</stem><beam number="1">begin</beam><lyric default-y="-95" name="verse" number="1"><syllabic>single</syllabic><text font-size="10.8">fort,</text></lyric><lyric default-y="-120" name="verse" number="2"><syllabic>begin</syllabic><text font-size="10.8">un</text></lyric><lyric default-y="-145" name="verse" number="3"><syllabic>begin</syllabic><text font-size="10.8">sei</text></lyric></note><note default-x="506"><pitch><step>F</step><alter>1</alter><octave>4</octave></pitch><duration>2</duration><voice>1</voice><type>eighth</type><stem default-y="0">up</stem><beam number="1">end</beam><lyric default-y="-95" name="verse" number="1"><syllabic>single</syllabic><text font-size="10.8">mein</text></lyric><lyric default-y="-120" name="verse" number="2"><syllabic>middle</syllabic><text font-size="10.8">ge</text></lyric><lyric default-y="-145" name="verse" number="3"><syllabic>end</syllabic><text font-size="10.8">ner</text></lyric></note><harmony default-y="37" font-size="10" font-weight="bold"><root><root-step>B</root-step></root><kind text="m">minor</kind></harmony><note default-x="644"><pitch><step>F</step><alter>1</alter><octave>4</octave></pitch><duration>4</duration><voice>1</voice><type>quarter</type><stem default-y="1">up</stem><lyric default-y="-95" name="verse" number="1"><syllabic>single</syllabic><text font-size="10.8">Gott?</text></lyric><lyric default-y="-120" name="verse" number="2"><syllabic>end</syllabic><text font-size="10.8">zählt.</text></lyric><lyric default-y="-145" name="verse" number="3"><syllabic>single</syllabic><text font-size="10.8">Welt.</text></lyric></note><note default-x="868"><pitch><step>F</step><alter>1</alter><octave>4</octave></pitch><duration>2</duration><voice>1</voice><type>eighth</type><stem default-y="5">up</stem><beam number="1">begin</beam><lyric default-y="-95" name="verse" number="1"><syllabic>begin</syllabic><text font-size="10.8">Schuld</text></lyric></note><note default-x="1007"><pitch><step>A</step><octave>4</octave></pitch><duration>2</duration><voice>1</voice><type>eighth</type><stem default-y="10">up</stem><beam number="1">end</beam><lyric default-y="-95" name="verse" number="1"><syllabic>end</syllabic><text font-size="10.8">los</text></lyric></note><barline location="right"><bar-style>light-light</bar-style></barline></measure><!--=======================================================--><measure number="9" width="436"><print new-page="yes" page-number="2"><system-layout><system-margins><left-margin>0</left-margin><right-margin>0</right-margin></system-margins><top-system-distance>122</top-system-distance></system-layout></print><harmony default-y="37" font-size="10" font-weight="bold"><root><root-step>G</root-step></root><kind text="">major</kind></harmony><note default-x="94"><pitch><step>A</step><octave>4</octave></pitch><duration>4</duration><voice>1</voice><type>quarter</type><stem default-y="11">up</stem><lyric default-y="-95" name="verse" number="1"><syllabic>begin</syllabic><text font-size="10.8">schul</text></lyric></note><note default-x="176"><pitch><step>B</step><octave>4</octave></pitch><duration>4</duration><voice>1</voice><type>quarter</type><stem default-y="-55.5">down</stem><lyric default-y="-95" name="verse" number="1"><syllabic>end</syllabic><text font-size="10.8">dig</text></lyric></note><note default-x="253"><rest /><duration>4</duration><voice>1</voice><type>quarter</type></note><note default-x="330"><pitch><step>A</step><octave>4</octave></pitch><duration>2</duration><voice>1</voice><type>eighth</type><stem default-y="10">up</stem><beam number="1">begin</beam><lyric default-y="-95" name="verse" number="1"><syllabic>single</syllabic><text font-size="10.8">und</text></lyric></note><note default-x="383"><pitch><step>G</step><octave>4</octave></pitch><duration>2</duration><voice>1</voice><type>eighth</type><stem default-y="5">up</stem><beam number="1">end</beam><lyric default-y="-95" name="verse" number="1"><syllabic>begin</syllabic><text font-size="10.8">ver</text></lyric></note></measure><!--=======================================================--><measure number="10" width="362"><harmony default-y="37" font-size="10" font-weight="bold"><root><root-step>B</root-step></root><kind text="m">minor</kind></harmony><note default-x="21"><pitch><step>G</step><octave>4</octave></pitch><duration>4</duration><voice>1</voice><type>quarter</type><stem default-y="6">up</stem><lyric default-y="-95" name="verse" number="1"><syllabic>middle</syllabic><text font-size="10.8">ra</text></lyric></note><note default-x="95"><pitch><step>F</step><alter>1</alter><octave>4</octave></pitch><duration>4</duration><voice>1</voice><type>quarter</type><stem default-y="1">up</stem><lyric default-y="-95" name="verse" number="1"><syllabic>end</syllabic><text font-size="10.8">ten</text></lyric></note><note default-x="167"><rest /><duration>4</duration><voice>1</voice><type>quarter</type></note><note default-x="242"><pitch><step>F</step><alter>1</alter><octave>4</octave></pitch><duration>2</duration><voice>1</voice><type>eighth</type><stem default-y="5">up</stem><beam number="1">begin</beam><lyric default-y="-95" name="verse" number="1"><syllabic>single</syllabic><text font-size="10.8">hängst</text></lyric></note><note default-x="309"><pitch><step>A</step><octave>4</octave></pitch><duration>2</duration><voice>1</voice><type>eighth</type><stem default-y="10">up</stem><beam number="1">end</beam><lyric default-y="-95" name="verse" number="1"><syllabic>single</syllabic><text font-size="10.8">du</text></lyric></note></measure><!--=======================================================--><measure number="11" width="354"><harmony default-y="37" font-size="10" font-weight="bold"><root><root-step>G</root-step></root><kind text="">major</kind></harmony><note default-x="13"><pitch><step>A</step><octave>4</octave></pitch><duration>4</duration><voice>1</voice><type>quarter</type><stem default-y="11">up</stem><lyric default-y="-95" name="verse" number="1"><syllabic>begin</syllabic><text font-size="10.8">zwi</text></lyric></note><note default-x="99"><pitch><step>B</step><octave>4</octave></pitch><duration>4</duration><voice>1</voice><type>quarter</type><stem default-y="-55.5">down</stem><lyric default-y="-95" name="verse" number="1"><syllabic>end</syllabic><text font-size="10.8">schen</text></lyric></note><harmony default-y="37" font-size="10" font-weight="bold"><root><root-step>A</root-step></root><kind text="">major</kind></harmony><note default-x="185"><pitch><step>A</step><octave>4</octave></pitch><duration>6</duration><voice>1</voice><type>quarter</type><dot /><stem default-y="11">up</stem><lyric default-y="-95" name="verse" number="1"><syllabic>single</syllabic><text font-size="10.8">Gott</text></lyric></note><note default-x="299"><pitch><step>E</step><octave>4</octave></pitch><duration>2</duration><voice>1</voice><type>eighth</type><stem default-y="-4">up</stem><lyric default-y="-95" name="verse" number="1"><syllabic>single</syllabic><text font-size="10.8">und</text></lyric></note></measure><!--=======================================================--><measure number="12" width="385"><print new-system="yes"><system-layout><system-margins><left-margin>0</left-margin><right-margin>0</right-margin></system-margins><system-distance>184</system-distance></system-layout></print><harmony default-y="37" font-size="10" font-weight="bold"><root><root-step>D</root-step></root><kind text="">major</kind></harmony><note default-x="94"><pitch><step>F</step><alter>1</alter><octave>4</octave></pitch><duration>8</duration><voice>1</voice><type>half</type><stem default-y="1">up</stem><lyric default-y="-95" name="verse" number="1"><syllabic>single</syllabic><text font-size="10.8">Welt.</text></lyric></note><note default-x="216"><rest /><duration>4</duration><voice>1</voice><type>quarter</type></note><note default-x="291"><pitch><step>F</step><alter>1</alter><octave>4</octave></pitch><duration>2</duration><voice>1</voice><type>eighth</type><stem default-y="5">up</stem><beam number="1">begin</beam><lyric default-y="-95" name="verse" number="1"><syllabic>single</syllabic><text font-size="10.8">Bist</text></lyric></note><note default-x="337"><pitch><step>A</step><octave>4</octave></pitch><duration>2</duration><voice>1</voice><type>eighth</type><stem default-y="10">up</stem><beam number="1">end</beam><lyric default-y="-95" name="verse" number="1"><syllabic>single</syllabic><text font-size="10.8">in</text></lyric></note></measure><!--=======================================================--><measure number="13" width="340"><harmony default-y="37" font-size="10" font-weight="bold"><root><root-step>G</root-step></root><kind text="">major</kind></harmony><note default-x="13"><pitch><step>A</step><octave>4</octave></pitch><duration>4</duration><voice>1</voice><type>quarter</type><stem default-y="10.5">up</stem><lyric default-y="-95" name="verse" number="1"><syllabic>begin</syllabic><text font-size="10.8">un</text></lyric></note><note default-x="95"><pitch><step>B</step><octave>4</octave></pitch><duration>4</duration><voice>1</voice><type>quarter</type><stem default-y="-55.5">down</stem><lyric default-y="-95" name="verse" number="1"><syllabic>end</syllabic><text font-size="10.8">sern</text></lyric></note><harmony default-y="37" font-size="10" font-weight="bold"><root><root-step>A</root-step></root><kind text="">major</kind></harmony><note default-x="178"><pitch><step>A</step><octave>4</octave></pitch><duration>6</duration><voice>1</voice><type>quarter</type><dot /><stem default-y="10.5">up</stem><lyric default-y="-95" name="verse" number="1"><syllabic>single</syllabic><text font-size="10.8">Krieg</text></lyric></note><note default-x="288"><pitch><step>G</step><octave>4</octave></pitch><duration>2</duration><voice>1</voice><type>eighth</type><stem default-y="6">up</stem><lyric default-y="-95" name="verse" number="1"><syllabic>begin</syllabic><text font-size="10.8">ge</text></lyric></note></measure><!--=======================================================--><measure number="14" width="427"><harmony default-y="37" font-size="10" font-weight="bold"><root><root-step>B</root-step></root><kind text="m">minor</kind></harmony><note default-x="21"><pitch><step>G</step><octave>4</octave></pitch><duration>4</duration><voice>1</voice><type>quarter</type><stem default-y="6">up</stem><lyric default-y="-95" name="verse" number="1"><syllabic>middle</syllabic><text font-size="10.8">ra</text></lyric></note><note default-x="109"><pitch><step>F</step><alter>1</alter><octave>4</octave></pitch><duration>4</duration><voice>1</voice><type>quarter</type><stem default-y="1">up</stem><lyric default-y="-95" name="verse" number="1"><syllabic>end</syllabic><text font-size="10.8">ten</text></lyric></note><note default-x="196"><rest /><duration>4</duration><voice>1</voice><type>quarter</type></note><note default-x="282"><pitch><step>D</step><octave>4</octave></pitch><duration>2</duration><voice>1</voice><type>eighth</type><stem default-y="-4.5">up</stem><beam number="1">begin</beam><lyric default-y="-95" name="verse" number="1"><syllabic>single</syllabic><text font-size="10.8">und</text></lyric></note><note default-x="356"><pitch><step>F</step><alter>1</alter><octave>4</octave></pitch><duration>2</duration><voice>1</voice><type>eighth</type><stem default-y="0">up</stem><beam number="1">end</beam><lyric default-y="-95" name="verse" number="1"><syllabic>single</syllabic><text font-size="10.8">machst</text></lyric></note></measure><!--=======================================================--><measure number="15" width="407"><print new-system="yes"><system-layout><system-margins><left-margin>0</left-margin><right-margin>0</right-margin></system-margins><system-distance>184</system-distance></system-layout></print><harmony default-y="37" font-size="10" font-weight="bold"><root><root-step>E</root-step></root><kind text="m">minor</kind></harmony><note default-x="95"><pitch><step>F</step><alter>1</alter><octave>4</octave></pitch><duration>4</duration><voice>1</voice><type>quarter</type><stem default-y="1">up</stem><lyric default-y="-95" name="verse" number="1"><syllabic>begin</syllabic><text font-size="10.8">Frie</text></lyric></note><note default-x="163"><pitch><step>E</step><octave>4</octave></pitch><duration>4</duration><voice>1</voice><type>quarter</type><stem default-y="-4">up</stem><lyric default-y="-95" name="verse" number="1"><syllabic>end</syllabic><text font-size="10.8">den,</text></lyric></note><note default-x="216"><rest /><duration>4</duration><voice>1</voice><type>quarter</type></note><note default-x="267"><pitch><step>E</step><octave>4</octave></pitch><duration>2</duration><voice>1</voice><type>eighth</type><stem default-y="-5">up</stem><beam number="1">begin</beam><lyric default-y="-95" name="verse" number="1"><syllabic>single</syllabic><text font-size="10.8">und</text></lyric></note><note default-x="341"><pitch><step>F</step><alter>1</alter><octave>4</octave></pitch><duration>2</duration><voice>1</voice><type>eighth</type><stem default-y="0">up</stem><beam number="1">end</beam><lyric default-y="-95" name="verse" number="1"><syllabic>single</syllabic><text font-size="10.8">machst</text></lyric></note></measure><!--=======================================================--><measure number="16" width="302"><harmony default-y="37" font-size="10" font-weight="bold"><root><root-step>G</root-step></root><kind text="">major</kind></harmony><note default-x="13"><pitch><step>D</step><octave>4</octave></pitch><duration>4</duration><voice>1</voice><type>quarter</type><stem default-y="-9">up</stem><lyric default-y="-95" name="verse" number="1"><syllabic>begin</syllabic><text font-size="10.8">Frie</text></lyric></note><note default-x="77"><pitch><step>B</step><octave>3</octave></pitch><duration>4</duration><voice>1</voice><type>quarter</type><stem default-y="-19">up</stem><lyric default-y="-95" name="verse" number="1"><syllabic>end</syllabic><text font-size="10.8">den,</text></lyric></note><note default-x="142"><rest /><duration>2</duration><voice>1</voice><type>eighth</type></note><note default-x="181"><pitch><step>B</step><octave>3</octave></pitch><duration>2</duration><voice>1</voice><type>eighth</type><stem default-y="-19">up</stem><lyric default-y="-95" name="verse" number="1"><syllabic>single</syllabic><text font-size="10.8">der</text></lyric></note><note default-x="221"><pitch><step>D</step><octave>4</octave></pitch><duration>2</duration><voice>1</voice><type>eighth</type><stem default-y="-5">up</stem><beam number="1">begin</beam><lyric default-y="-95" name="verse" number="1"><syllabic>begin</syllabic><text font-size="10.8">e</text></lyric></note><note default-x="261"><pitch><step>F</step><alter>1</alter><octave>4</octave></pitch><duration>2</duration><voice>1</voice><type>eighth</type><stem default-y="0">up</stem><beam number="1">end</beam><lyric default-y="-95" name="verse" number="1"><syllabic>end</syllabic><text font-size="10.8">wig</text></lyric></note></measure><!--=======================================================--><measure number="17" width="260"><barline location="left"><ending default-y="78" end-length="78" font-size="6.2" number="1, 2" type="start" /></barline><harmony default-y="37" font-size="10" font-weight="bold"><root><root-step>B</root-step></root><kind text="m">minor</kind></harmony><note default-x="36"><pitch><step>F</step><alter>1</alter><octave>4</octave></pitch><duration>12</duration><voice>1</voice><type>half</type><dot /><stem default-y="1">up</stem><lyric default-y="-95" name="verse" number="1"><syllabic>single</syllabic><text font-size="10.8">hält.</text></lyric></note><note default-x="146"><rest /><duration>2</duration><voice>1</voice><type>eighth</type></note><note default-x="192"><pitch><step>F</step><alter>1</alter><octave>4</octave></pitch><duration>2</duration><voice>1</voice><type>eighth</type><stem default-y="1">up</stem><lyric default-y="-95" name="verse" number="1" relative-x="-6"><syllabic>single</syllabic><text font-size="10.8">2.</text><elision /><syllabic>single</syllabic><text font-size="10.8">Du</text></lyric><lyric default-y="-120" name="verse" number="2" relative-x="-7"><syllabic>single</syllabic><text font-size="10.8">3.</text><elision /><syllabic>single</syllabic><text font-size="10.8">Es</text></lyric></note><barline location="right"><bar-style>light-heavy</bar-style><ending number="1, 2" type="stop" /><repeat direction="backward" /></barline></measure><!--=======================================================--><measure number="18" width="183"><barline location="left"><ending default-y="78" end-length="78" font-size="6.2" number="3" type="start" /></barline><harmony default-y="37" font-size="10" font-weight="bold"><root><root-step>B</root-step></root><kind text="m">minor</kind></harmony><note default-x="34"><pitch><step>F</step><alter>1</alter><octave>4</octave></pitch><duration>12</duration><voice>1</voice><type>half</type><dot /><stem default-y="1">up</stem><lyric default-y="-95" name="verse" number="1"><syllabic>single</syllabic><text font-size="10.8">hält.</text></lyric></note><note default-x="129"><rest /><duration>4</duration><voice>1</voice><type>quarter</type></note><barline location="right"><bar-style>light-heavy</bar-style><ending number="3" type="discontinue" /></barline></measure></part><!--=========================================================--></score-partwise>