<?xml version="1.0" encoding="UTF-8"?><!DOCTYPE score-partwise PUBLIC "-//Recordare//DTD MusicXML 2.0 Partwise//EN" "http://www.musicxml.org/dtds/partwise.dtd"[]><score-partwise version="2.0"><movement-title>Sie banden Jesu Hände</movement-title><identification><creator type="composer">Ray Overholt</creator><creator type="arranger">Manfred Paul und Jack Stenekes</creator><encoding><software>Finale 2011 for Windows</software><software>Dolet Light for Finale 2011</software><encoding-date>2013-03-05</encoding-date><supports attribute="new-system" element="print" type="yes" value="yes" /><supports attribute="new-page" element="print" type="yes" value="yes" /></encoding><rights>CCLI-Liednummer 5973426
© 1959. Renewed 1987 Lillenas Publishing Company
Nutzung ausschließlich im Rahmen der SongSelect®-Nutzungsbedingungen. Alle Rechte vorbehalten. www.ccli.com
CCLI-Lizenznummer 2182334
</rights></identification><defaults><scaling><millimeters>6.5088</millimeters><tenths>40</tenths></scaling><page-layout><page-height>1771</page-height><page-width>1308</page-width><page-margins type="both"><left-margin>78</left-margin><right-margin>78</right-margin><top-margin>78</top-margin><bottom-margin>78</bottom-margin></page-margins></page-layout><system-layout><system-margins><left-margin>0</left-margin><right-margin>0</right-margin></system-margins><system-distance>232</system-distance><top-system-distance>159</top-system-distance></system-layout><appearance><line-width type="stem">1.4583</line-width><line-width type="beam">5</line-width><line-width type="staff">1.25</line-width><line-width type="light barline">1.4583</line-width><line-width type="heavy barline">5</line-width><line-width type="leger">1.875</line-width><line-width type="ending">1.4583</line-width><line-width type="wedge">1.4583</line-width><line-width type="enclosure">1.4583</line-width><line-width type="tuplet bracket">1.4583</line-width><note-size type="grace">50</note-size><note-size type="cue">50</note-size></appearance><music-font font-family="Maestro" font-size="18.5" /><word-font font-family="Arial" font-size="9.2" /><lyric-font font-family="Arial" font-size="10.8" name="verse" /><lyric-font font-family="Arial" font-size="10.8" name="section" /></defaults><credit page="1"><credit-words default-x="654" default-y="1688" font-size="21.6" font-weight="bold" justify="center" valign="top" xml:lang="de">Sie banden Jesu Hände</credit-words></credit><credit page="1"><credit-words default-x="1230" default-y="1620" font-size="10.8" font-style="italic" justify="right" valign="top">Text und Musik:</credit-words></credit><credit page="1"><credit-words default-x="1230" default-y="1595" font-size="10.8" font-weight="bold" justify="right" valign="top">Ray Overholt</credit-words></credit><credit page="1"><credit-words default-x="78" default-y="1620" font-size="10.8" font-style="italic" valign="top">Deutsch:</credit-words></credit><credit page="1"><credit-words default-x="78" default-y="1595" font-size="10.8" font-weight="bold" valign="top">Manfred Paul und Jack Stenekes</credit-words></credit><credit page="2"><credit-words default-x="654" default-y="1717" font-size="10.8" justify="center" valign="top" xml:lang="de">Sie banden Jesu Hände - 2</credit-words></credit><part-list><score-part id="P1"><part-name print-object="no">Melodie</part-name><score-instrument id="P1-I2"><instrument-name>Melodie</instrument-name></score-instrument><midi-instrument id="P1-I2"><midi-channel>1</midi-channel><midi-program>1</midi-program><volume>80</volume><pan>0</pan></midi-instrument></score-part></part-list><!--=========================================================--><part id="P1"><measure implicit="yes" number="0" width="322"><print page-number="1"><page-layout><page-height>1771</page-height><page-width>1308</page-width><page-margins><left-margin>78</left-margin><right-margin>78</right-margin><top-margin>78</top-margin><bottom-margin>163</bottom-margin></page-margins></page-layout><system-layout><system-margins><left-margin>68</left-margin><right-margin>0</right-margin></system-margins><top-system-distance>256</top-system-distance></system-layout><measure-numbering>system</measure-numbering></print><attributes><divisions>8</divisions><key><fifths>-3</fifths><mode>major</mode></key><time><beats>4</beats><beat-type>4</beat-type></time><clef><sign>G</sign><line>2</line></clef></attributes><sound tempo="96" /><harmony default-y="37" font-size="10" font-weight="bold"><root><root-step>E</root-step><root-alter>-1</root-alter></root><kind halign="center" text="">major</kind></harmony><note default-x="138"><pitch><step>E</step><alter>-1</alter><octave>4</octave></pitch><duration>4</duration><voice>1</voice><type>eighth</type><stem default-y="-5">up</stem><beam number="1">begin</beam><notations><slur number="1" placement="below" type="start" /></notations><lyric default-y="-95" name="verse" number="1" relative-x="-7"><syllabic>single</syllabic><text font-size="10.8">1.</text><elision> </elision><syllabic>single</syllabic><text font-size="10.8">Sie</text><extend /></lyric><lyric default-y="-120" name="verse" number="2" relative-x="-5"><syllabic>single</syllabic><text font-size="10.8">2.</text><elision> </elision><syllabic>single</syllabic><text font-size="10.8">Sie</text><extend /></lyric><lyric default-y="-145" name="verse" number="3" relative-x="-6"><syllabic>single</syllabic><text font-size="10.8">3.</text><elision> </elision><syllabic>single</syllabic><text font-size="10.8">Sie</text><extend /></lyric><lyric default-y="-169" name="verse" number="4" relative-x="-12"><syllabic>single</syllabic><text font-size="10.8">4.</text><elision> </elision><syllabic>single</syllabic><text font-size="10.8">In</text></lyric></note><harmony default-y="37" font-size="10" font-weight="bold"><root><root-step>E</root-step><root-alter>-1</root-alter></root><kind halign="center" text="sus">suspended-fourth</kind></harmony><note default-x="226"><pitch><step>F</step><octave>4</octave></pitch><duration>4</duration><voice>1</voice><type>eighth</type><stem default-y="0">up</stem><beam number="1">end</beam><notations><slur number="1" type="stop" /></notations><lyric default-y="-169" name="verse" number="4"><syllabic>single</syllabic><text font-size="10.8">der</text></lyric></note><barline location="right"><bar-style>light-light</bar-style></barline></measure><!--=======================================================--><measure number="1" width="762"><harmony default-y="37" font-size="10" font-weight="bold"><root><root-step>E</root-step><root-alter>-1</root-alter></root><kind halign="center" text="">major</kind></harmony><note default-x="14"><pitch><step>G</step><octave>4</octave></pitch><duration>4</duration><voice>1</voice><type>eighth</type><stem default-y="5">up</stem><beam number="1">begin</beam><lyric default-y="-95" name="verse" number="1"><syllabic>begin</syllabic><text font-size="10.8">ban</text></lyric><lyric default-y="-120" name="verse" number="2"><syllabic>begin</syllabic><text font-size="10.8">krön</text></lyric><lyric default-y="-145" name="verse" number="3"><syllabic>begin</syllabic><text font-size="10.8">nah</text></lyric><lyric default-y="-169" name="verse" number="4"><syllabic>begin</syllabic><text font-size="10.8">Mit</text></lyric></note><note default-x="107"><pitch><step>G</step><octave>4</octave></pitch><duration>4</duration><voice>1</voice><type>eighth</type><stem default-y="5">up</stem><beam number="1">end</beam><lyric default-y="-95" name="verse" number="1"><syllabic>end</syllabic><text font-size="10.8">den</text></lyric><lyric default-y="-120" name="verse" number="2"><syllabic>end</syllabic><text font-size="10.8">ten</text></lyric><lyric default-y="-145" name="verse" number="3"><syllabic>end</syllabic><text font-size="10.8">men</text></lyric><lyric default-y="-169" name="verse" number="4"><syllabic>end</syllabic><text font-size="10.8">te</text></lyric></note><note default-x="201"><pitch><step>G</step><octave>4</octave></pitch><duration>4</duration><voice>1</voice><type>eighth</type><stem default-y="5">up</stem><beam number="1">begin</beam><lyric default-y="-95" name="verse" number="1"><syllabic>begin</syllabic><text font-size="10.8">Je</text></lyric><lyric default-y="-120" name="verse" number="2"><syllabic>single</syllabic><text font-size="10.8">ihn</text></lyric><lyric default-y="-145" name="verse" number="3"><syllabic>begin</syllabic><text font-size="10.8">Je</text></lyric><lyric default-y="-169" name="verse" number="4"><syllabic>single</syllabic><text font-size="10.8">von</text></lyric></note><note default-x="294"><pitch><step>G</step><octave>4</octave></pitch><duration>4</duration><voice>1</voice><type>eighth</type><stem default-y="5">up</stem><beam number="1">end</beam><lyric default-y="-95" name="verse" number="1"><syllabic>end</syllabic><text font-size="10.8">su</text></lyric><lyric default-y="-120" name="verse" number="2"><syllabic>single</syllabic><text font-size="10.8">mit</text></lyric><lyric default-y="-145" name="verse" number="3"><syllabic>end</syllabic><text font-size="10.8">sus</text></lyric><lyric default-y="-169" name="verse" number="4"><syllabic>begin</syllabic><text font-size="10.8">Ver</text></lyric></note><note default-x="387"><pitch><step>B</step><alter>-1</alter><octave>4</octave></pitch><duration>4</duration><voice>1</voice><type>eighth</type><stem default-y="-55">down</stem><beam number="1">begin</beam><lyric default-y="-95" name="verse" number="1"><syllabic>begin</syllabic><text font-size="10.8">Hän</text></lyric><lyric default-y="-120" name="verse" number="2"><syllabic>begin</syllabic><text font-size="10.8">Dor</text></lyric><lyric default-y="-145" name="verse" number="3"><syllabic>begin</syllabic><text font-size="10.8">Chris</text></lyric><lyric default-y="-169" name="verse" number="4"><syllabic>middle</syllabic><text font-size="10.8">bre</text></lyric></note><note default-x="480"><pitch><step>B</step><alter>-1</alter><octave>4</octave></pitch><duration>4</duration><tie type="start" /><voice>1</voice><type>eighth</type><stem default-y="-55">down</stem><beam number="1">end</beam><notations><tied type="start" /></notations><lyric default-y="-95" name="verse" number="1"><syllabic>end</syllabic><text font-size="10.8">de</text><extend /></lyric><lyric default-y="-120" name="verse" number="2"><syllabic>end</syllabic><text font-size="10.8">nen</text><extend /></lyric><lyric default-y="-145" name="verse" number="3"><syllabic>end</syllabic><text font-size="10.8">tus,</text><extend /></lyric><lyric default-y="-169" name="verse" number="4"><syllabic>end</syllabic><text font-size="10.8">chern,</text><extend /></lyric></note><note default-x="574"><pitch><step>B</step><alter>-1</alter><octave>4</octave></pitch><duration>4</duration><tie type="stop" /><voice>1</voice><type>eighth</type><stem default-y="15">up</stem><beam number="1">begin</beam><notations><tied type="stop" /></notations></note><note default-x="667"><pitch><step>G</step><octave>4</octave></pitch><duration>4</duration><voice>1</voice><type>eighth</type><stem default-y="10">up</stem><beam number="1">end</beam><lyric default-y="-95" name="verse" number="1"><syllabic>single</syllabic><text font-size="10.8">aus</text></lyric><lyric default-y="-120" name="verse" number="2"><syllabic>single</syllabic><text font-size="10.8">und</text></lyric><lyric default-y="-145" name="verse" number="3"><syllabic>single</syllabic><text font-size="10.8">der</text></lyric><lyric default-y="-169" name="verse" number="4"><syllabic>single</syllabic><text font-size="10.8">hing</text></lyric></note></measure><!--=======================================================--><measure number="2" width="503"><print new-system="yes"><system-layout><system-distance>221</system-distance></system-layout></print><harmony default-y="37" font-size="10" font-weight="bold"><root><root-step>B</root-step><root-alter>-1</root-alter></root><kind halign="center" text="7">dominant</kind></harmony><note default-x="103"><pitch><step>F</step><octave>4</octave></pitch><duration>4</duration><voice>1</voice><type>eighth</type><stem default-y="0">up</stem><beam number="1">begin</beam><lyric default-y="-95" name="verse" number="1"><syllabic>single</syllabic><text font-size="10.8">Haß</text></lyric><lyric default-y="-120" name="verse" number="2"><syllabic>begin</syllabic><text font-size="10.8">lach</text></lyric><lyric default-y="-145" name="verse" number="3"><syllabic>begin</syllabic><text font-size="10.8">sünd</text></lyric><lyric default-y="-169" name="verse" number="4"><syllabic>begin</syllabic><text font-size="10.8">Got</text></lyric></note><note default-x="166"><pitch><step>F</step><octave>4</octave></pitch><duration>4</duration><voice>1</voice><type>eighth</type><stem default-y="0">up</stem><beam number="1">end</beam><lyric default-y="-95" name="verse" number="1"><syllabic>single</syllabic><text font-size="10.8">und</text></lyric><lyric default-y="-120" name="verse" number="2"><syllabic>end</syllabic><text font-size="10.8">ten</text></lyric><lyric default-y="-145" name="verse" number="3"><syllabic>end</syllabic><text font-size="10.8">los</text></lyric><lyric default-y="-169" name="verse" number="4"><syllabic>end</syllabic><text font-size="10.8">tes</text></lyric></note><harmony default-y="37" font-size="10" font-weight="bold"><root><root-step>G</root-step></root><kind halign="center" text="m">minor</kind></harmony><note default-x="230"><pitch><step>G</step><octave>4</octave></pitch><duration>4</duration><voice>1</voice><type>eighth</type><stem default-y="5">up</stem><beam number="1">begin</beam><lyric default-y="-95" name="verse" number="1"><syllabic>begin</syllabic><text font-size="10.8">blin</text></lyric><lyric default-y="-120" name="verse" number="2"><syllabic>begin</syllabic><text font-size="10.8">ü</text></lyric><lyric default-y="-145" name="verse" number="3"><syllabic>single</syllabic><text font-size="10.8">war</text></lyric><lyric default-y="-169" name="verse" number="4"><syllabic>single</syllabic><text font-size="10.8">Sohn</text></lyric></note><harmony default-y="37" font-size="10" font-weight="bold"><root><root-step>B</root-step><root-alter>-1</root-alter></root><kind halign="center" text="7">dominant</kind><bass><bass-step>F</bass-step></bass></harmony><note default-x="293"><pitch><step>A</step><alter>-1</alter><octave>4</octave></pitch><duration>4</duration><voice>1</voice><type>eighth</type><stem default-y="10">up</stem><beam number="1">end</beam><lyric default-y="-95" name="verse" number="1"><syllabic>end</syllabic><text font-size="10.8">der</text></lyric><lyric default-y="-120" name="verse" number="2"><syllabic>end</syllabic><text font-size="10.8">ber</text></lyric><lyric default-y="-145" name="verse" number="3"><syllabic>single</syllabic><text font-size="10.8">und</text></lyric><lyric default-y="-169" name="verse" number="4"><syllabic>single</syllabic><text font-size="10.8">am</text></lyric></note><harmony default-y="37" font-size="10" font-weight="bold"><root><root-step>E</root-step><root-alter>-1</root-alter></root><kind halign="center" text="">major</kind></harmony><note default-x="367"><pitch><step>G</step><octave>4</octave></pitch><duration>12</duration><voice>1</voice><type>quarter</type><dot /><stem default-y="6">up</stem><lyric default-y="-95" name="verse" number="1"><syllabic>single</syllabic><text font-size="10.8">Wut.</text></lyric><lyric default-y="-120" name="verse" number="2"><syllabic>single</syllabic><text font-size="10.8">ihn.</text></lyric><lyric default-y="-145" name="verse" number="3"><syllabic>single</syllabic><text font-size="10.8">rein.</text></lyric><lyric default-y="-169" name="verse" number="4"><syllabic>single</syllabic><text font-size="10.8">Kreuz.</text></lyric></note><note default-x="451"><pitch><step>E</step><alter>-1</alter><octave>4</octave></pitch><duration>4</duration><voice>1</voice><type>eighth</type><stem default-y="-4">up</stem><lyric default-y="-95" name="verse" number="1"><syllabic>single</syllabic><text font-size="10.8">Sie</text></lyric><lyric default-y="-120" name="verse" number="2"><syllabic>single</syllabic><text font-size="10.8">Sie</text></lyric><lyric default-y="-145" name="verse" number="3"><syllabic>single</syllabic><text font-size="10.8">Sie</text></lyric><lyric default-y="-169" name="verse" number="4"><syllabic>begin</syllabic><text font-size="10.8">Frei</text></lyric></note></measure><!--=======================================================--><measure number="3" width="436"><harmony default-y="37" font-size="10" font-weight="bold"><root><root-step>A</root-step><root-alter>-1</root-alter></root><kind halign="center" text="">major</kind></harmony><note default-x="20"><pitch><step>C</step><octave>5</octave></pitch><duration>4</duration><voice>1</voice><type>eighth</type><stem default-y="-49.5">down</stem><beam number="1">begin</beam><lyric default-y="-95" name="verse" number="1"><syllabic>begin</syllabic><text font-size="10.8">schlu</text></lyric><lyric default-y="-120" name="verse" number="2"><syllabic>begin</syllabic><text font-size="10.8">rie</text></lyric><lyric default-y="-145" name="verse" number="3"><syllabic>begin</syllabic><text font-size="10.8">ha</text></lyric><lyric default-y="-169" name="verse" number="4"><syllabic>middle</syllabic><text font-size="10.8">wil</text></lyric></note><note default-x="87"><pitch><step>C</step><octave>5</octave></pitch><duration>4</duration><voice>1</voice><type>eighth</type><stem default-y="-49.5">down</stem><beam number="1">end</beam><lyric default-y="-95" name="verse" number="1"><syllabic>end</syllabic><text font-size="10.8">gen</text></lyric><lyric default-y="-120" name="verse" number="2"><syllabic>end</syllabic><text font-size="10.8">fen:</text></lyric><lyric default-y="-145" name="verse" number="3"><syllabic>end</syllabic><text font-size="10.8">ben</text></lyric><lyric default-y="-169" name="verse" number="4"><syllabic>end</syllabic><text font-size="10.8">lig</text></lyric></note><note default-x="161"><pitch><step>C</step><octave>5</octave></pitch><duration>4</duration><voice>1</voice><type>eighth</type><stem default-y="-49.5">down</stem><beam number="1">begin</beam><lyric default-y="-95" name="verse" number="1"><syllabic>single</syllabic><text font-size="10.8">und</text></lyric><lyric default-y="-120" name="verse" number="2"><syllabic>single</syllabic><text font-size="10.8">“Schau</text></lyric><lyric default-y="-145" name="verse" number="3"><syllabic>single</syllabic><text font-size="10.8">ihn</text></lyric><lyric default-y="-169" name="verse" number="4"><syllabic>single</syllabic><text font-size="10.8">trug</text></lyric></note><note default-x="235"><pitch><step>C</step><octave>5</octave></pitch><duration>4</duration><voice>1</voice><type>eighth</type><stem default-y="-49.5">down</stem><beam number="1">end</beam><lyric default-y="-95" name="verse" number="1"><syllabic>begin</syllabic><text font-size="10.8">be</text></lyric><lyric default-y="-120" name="verse" number="2"><syllabic>single</syllabic><text font-size="10.8">den</text></lyric><lyric default-y="-145" name="verse" number="3"><syllabic>single</syllabic><text font-size="10.8">ans</text></lyric><lyric default-y="-169" name="verse" number="4"><syllabic>single</syllabic><text font-size="10.8">er</text></lyric></note><note default-x="304"><pitch><step>E</step><alter>-1</alter><octave>5</octave></pitch><duration>12</duration><voice>1</voice><type>quarter</type><dot /><stem default-y="-40">down</stem><lyric default-y="-95" name="verse" number="1"><syllabic>middle</syllabic><text font-size="10.8">spuck</text></lyric><lyric default-y="-120" name="verse" number="2"><syllabic>begin</syllabic><text font-size="10.8">Kö</text></lyric><lyric default-y="-145" name="verse" number="3"><syllabic>single</syllabic><text font-size="10.8">Kreuz</text></lyric><lyric default-y="-169" name="verse" number="4"><syllabic>begin</syllabic><text font-size="10.8">uns</text></lyric></note><note default-x="388"><pitch><step>E</step><alter>-1</alter><octave>5</octave></pitch><duration>4</duration><voice>1</voice><type>eighth</type><stem default-y="-40">down</stem><lyric default-y="-95" name="verse" number="1"><syllabic>end</syllabic><text font-size="10.8">ten</text></lyric><lyric default-y="-120" name="verse" number="2"><syllabic>end</syllabic><text font-size="10.8">nig</text></lyric><lyric default-y="-145" name="verse" number="3"><syllabic>begin</syllabic><text font-size="10.8">ge</text></lyric><lyric default-y="-169" name="verse" number="4"><syllabic>end</syllabic><text font-size="10.8">re</text></lyric></note></measure><!--=======================================================--><measure number="4" width="213"><harmony default-y="37" font-size="10" font-weight="bold"><root><root-step>E</root-step><root-alter>-1</root-alter></root><kind halign="center" text="">major</kind></harmony><note default-x="32"><pitch><step>B</step><alter>-1</alter><octave>4</octave></pitch><duration>24</duration><voice>1</voice><type>half</type><dot /><stem default-y="-55.5">down</stem><lyric default-y="-95" name="verse" number="1"><syllabic>single</syllabic><text font-size="10.8">ihn.</text></lyric><lyric default-y="-120" name="verse" number="2"><syllabic>single</syllabic><text font-size="10.8">an!”</text></lyric><lyric default-y="-145" name="verse" number="3"><syllabic>end</syllabic><text font-size="10.8">bracht.</text></lyric><lyric default-y="-169" name="verse" number="4"><syllabic>single</syllabic><text font-size="10.8">Schuld.</text></lyric></note><note default-x="132"><rest /><duration>4</duration><voice>1</voice><type>eighth</type></note><note default-x="167"><pitch><step>E</step><alter>-1</alter><octave>4</octave></pitch><duration>4</duration><voice>1</voice><type>eighth</type><stem default-y="-4">up</stem><lyric default-y="-95" name="verse" number="1"><syllabic>single</syllabic><text font-size="10.8">Sie</text></lyric><lyric default-y="-120" name="verse" number="2"><syllabic>begin</syllabic><text font-size="10.8">Ver</text></lyric><lyric default-y="-145" name="verse" number="3"><syllabic>single</syllabic><text font-size="10.8">Auf</text></lyric><lyric default-y="-169" name="verse" number="4"><syllabic>single</syllabic><text font-size="10.8">"Es</text></lyric></note></measure><!--=======================================================--><measure number="5" width="624"><print new-system="yes"><system-layout><system-distance>221</system-distance></system-layout></print><note default-x="99"><pitch><step>G</step><octave>4</octave></pitch><duration>4</duration><voice>1</voice><type>eighth</type><stem default-y="5">up</stem><beam number="1">begin</beam><lyric default-y="-95" name="verse" number="1"><syllabic>begin</syllabic><text font-size="10.8">schri</text></lyric><lyric default-y="-120" name="verse" number="2"><syllabic>middle</syllabic><text font-size="10.8">spot</text></lyric><lyric default-y="-145" name="verse" number="3"><syllabic>single</syllabic><text font-size="10.8">ihm</text></lyric><lyric default-y="-169" name="verse" number="4"><syllabic>single</syllabic><text font-size="10.8">ist</text></lyric></note><note default-x="167"><pitch><step>G</step><octave>4</octave></pitch><duration>4</duration><voice>1</voice><type>eighth</type><stem default-y="5">up</stem><beam number="1">end</beam><lyric default-y="-95" name="verse" number="1"><syllabic>end</syllabic><text font-size="10.8">en</text></lyric><lyric default-y="-120" name="verse" number="2"><syllabic>end</syllabic><text font-size="10.8">tet</text></lyric><lyric default-y="-145" name="verse" number="3"><syllabic>single</syllabic><text font-size="10.8">lag</text></lyric><lyric default-y="-169" name="verse" number="4"><syllabic>begin</syllabic><text font-size="10.8">voll</text></lyric></note><note default-x="242"><pitch><step>G</step><octave>4</octave></pitch><duration>4</duration><voice>1</voice><type>eighth</type><stem default-y="5">up</stem><beam number="1">begin</beam><lyric default-y="-95" name="verse" number="1"><syllabic>single</syllabic><text font-size="10.8">voll</text></lyric><lyric default-y="-120" name="verse" number="2"><syllabic>single</syllabic><text font-size="10.8">und</text></lyric><lyric default-y="-145" name="verse" number="3"><syllabic>begin</syllabic><text font-size="10.8">al</text></lyric><lyric default-y="-169" name="verse" number="4"><syllabic>end</syllabic><text font-size="10.8">bracht!"</text></lyric></note><note default-x="319"><pitch><step>G</step><octave>4</octave></pitch><duration>4</duration><voice>1</voice><type>eighth</type><stem default-y="5">up</stem><beam number="1">end</beam><lyric default-y="-95" name="verse" number="1"><syllabic>begin</syllabic><text font-size="10.8">Ver</text></lyric><lyric default-y="-120" name="verse" number="2"><syllabic>begin</syllabic><text font-size="10.8">ver</text></lyric><lyric default-y="-145" name="verse" number="3"><syllabic>end</syllabic><text font-size="10.8">le</text></lyric><lyric default-y="-169" name="verse" number="4"><syllabic>single</syllabic><text font-size="10.8">rief</text></lyric></note><note default-x="385"><pitch><step>B</step><alter>-1</alter><octave>4</octave></pitch><duration>4</duration><voice>1</voice><type>eighth</type><stem default-y="-55">down</stem><beam number="1">begin</beam><lyric default-y="-95" name="verse" number="1"><syllabic>middle</syllabic><text font-size="10.8">ach</text></lyric><lyric default-y="-120" name="verse" number="2"><syllabic>middle</syllabic><text font-size="10.8">las</text></lyric><lyric default-y="-145" name="verse" number="3"><syllabic>begin</syllabic><text font-size="10.8">Sün</text></lyric><lyric default-y="-169" name="verse" number="4"><syllabic>begin</syllabic><text font-size="10.8">Je</text></lyric></note><note default-x="454"><pitch><step>B</step><alter>-1</alter><octave>4</octave></pitch><duration>4</duration><tie type="start" /><voice>1</voice><type>eighth</type><stem default-y="-55">down</stem><beam number="1">end</beam><notations><tied type="start" /></notations><lyric default-y="-95" name="verse" number="1"><syllabic>end</syllabic><text font-size="10.8">tung</text><extend /></lyric><lyric default-y="-120" name="verse" number="2"><syllabic>end</syllabic><text font-size="10.8">sen</text><extend /></lyric><lyric default-y="-145" name="verse" number="3"><syllabic>end</syllabic><text font-size="10.8">de,</text><extend /></lyric><lyric default-y="-169" name="verse" number="4"><syllabic>end</syllabic><text font-size="10.8">sus</text><extend /></lyric></note><note default-x="498"><pitch><step>B</step><alter>-1</alter><octave>4</octave></pitch><duration>4</duration><tie type="stop" /><voice>1</voice><type>eighth</type><stem default-y="15">up</stem><beam number="1">begin</beam><notations><tied type="stop" /></notations></note><note default-x="567"><pitch><step>G</step><octave>4</octave></pitch><duration>4</duration><voice>1</voice><type>eighth</type><stem default-y="10">up</stem><beam number="1">end</beam><lyric default-y="-95" name="verse" number="1"><syllabic>single</syllabic><text font-size="10.8">und</text></lyric><lyric default-y="-120" name="verse" number="2"><syllabic>single</syllabic><text font-size="10.8">ging</text></lyric><lyric default-y="-145" name="verse" number="3"><syllabic>single</syllabic><text font-size="10.8">er</text></lyric><lyric default-y="-169" name="verse" number="4"><syllabic>single</syllabic><text font-size="10.8">und</text></lyric></note></measure><!--=======================================================--><measure number="6" width="529"><harmony default-y="37" font-size="10" font-weight="bold"><root><root-step>B</root-step><root-alter>-1</root-alter></root><kind halign="center" text="">major</kind></harmony><note default-x="16"><pitch><step>F</step><octave>4</octave></pitch><duration>4</duration><voice>1</voice><type>eighth</type><stem default-y="0">up</stem><beam number="1">begin</beam><lyric default-y="-95" name="verse" number="1"><syllabic>begin</syllabic><text font-size="10.8">for</text></lyric><lyric default-y="-120" name="verse" number="2"><syllabic>single</syllabic><text font-size="10.8">er</text></lyric><lyric default-y="-145" name="verse" number="3"><syllabic>single</syllabic><text font-size="10.8">litt</text></lyric><lyric default-y="-169" name="verse" number="4"><syllabic>single</syllabic><text font-size="10.8">gab</text></lyric></note><note default-x="86"><pitch><step>F</step><octave>4</octave></pitch><duration>4</duration><voice>1</voice><type>eighth</type><stem default-y="0">up</stem><beam number="1">end</beam><lyric default-y="-95" name="verse" number="1"><syllabic>middle</syllabic><text font-size="10.8">der</text></lyric><lyric default-y="-120" name="verse" number="2"><syllabic>single</syllabic><text font-size="10.8">den</text></lyric><lyric default-y="-145" name="verse" number="3"><syllabic>single</syllabic><text font-size="10.8">viel</text></lyric><lyric default-y="-169" name="verse" number="4"><syllabic>single</syllabic><text font-size="10.8">sein</text></lyric></note><harmony default-y="37" font-size="10" font-weight="bold"><root><root-step>E</root-step><root-alter>-1</root-alter></root><kind halign="center" text="">major</kind><bass><bass-step>B</bass-step><bass-alter>-1</bass-alter></bass></harmony><note default-x="170"><pitch><step>G</step><octave>4</octave></pitch><duration>4</duration><voice>1</voice><type>eighth</type><stem default-y="5">up</stem><beam number="1">begin</beam><lyric default-y="-95" name="verse" number="1"><syllabic>end</syllabic><text font-size="10.8">ten</text></lyric><lyric default-y="-120" name="verse" number="2"><syllabic>begin</syllabic><text font-size="10.8">schwe</text></lyric><lyric default-y="-145" name="verse" number="3"><syllabic>single</syllabic><text font-size="10.8">Schmerz</text></lyric><lyric default-y="-169" name="verse" number="4"><syllabic>begin</syllabic><text font-size="10.8">Le</text></lyric></note><harmony default-y="37" font-size="10" font-weight="bold"><root><root-step>B</root-step><root-alter>-1</root-alter></root><kind halign="center" text="">major</kind></harmony><note default-x="256"><pitch><step>A</step><alter>-1</alter><octave>4</octave></pitch><duration>4</duration><voice>1</voice><type>eighth</type><stem default-y="10">up</stem><beam number="1">end</beam><lyric default-y="-95" name="verse" number="1"><syllabic>single</syllabic><text font-size="10.8">sein</text></lyric><lyric default-y="-120" name="verse" number="2"><syllabic>end</syllabic><text font-size="10.8">ren</text></lyric><lyric default-y="-145" name="verse" number="3"><syllabic>single</syllabic><text font-size="10.8">und</text></lyric><lyric default-y="-169" name="verse" number="4"><syllabic>end</syllabic><text font-size="10.8">ben</text></lyric></note><harmony default-y="37" font-size="10" font-weight="bold"><root><root-step>E</root-step><root-alter>-1</root-alter></root><kind halign="center" text="">major</kind></harmony><note default-x="331"><pitch><step>G</step><octave>4</octave></pitch><duration>12</duration><voice>1</voice><type>quarter</type><dot /><stem default-y="6">up</stem><lyric default-y="-95" name="verse" number="1"><syllabic>single</syllabic><text font-size="10.8">Blut:</text></lyric><lyric default-y="-120" name="verse" number="2"><syllabic>single</syllabic><text font-size="10.8">Weg.</text></lyric><lyric default-y="-145" name="verse" number="3"><syllabic>single</syllabic><text font-size="10.8">Pein,</text></lyric><lyric default-y="-169" name="verse" number="4"><syllabic>single</syllabic><text font-size="10.8">hin,</text></lyric></note><note default-x="455"><pitch><step>E</step><alter>-1</alter><octave>4</octave></pitch><duration>4</duration><voice>1</voice><type>eighth</type><stem default-y="-4">up</stem><lyric default-y="-95" name="verse" number="1"><syllabic>single</syllabic><text font-size="10.8">Nehmt</text></lyric><lyric default-y="-120" name="verse" number="2"><syllabic>single</syllabic><text font-size="10.8">Das</text></lyric><lyric default-y="-145" name="verse" number="3"><syllabic>single</syllabic><text font-size="10.8">weil</text></lyric><lyric default-y="-169" name="verse" number="4"><syllabic>single</syllabic><text font-size="10.8">hat</text></lyric></note></measure><!--=======================================================--><measure number="7" width="708"><print new-system="yes"><system-layout><system-distance>221</system-distance></system-layout></print><harmony default-y="37" font-size="10" font-weight="bold"><root><root-step>F</root-step></root><kind halign="center" text="m">minor</kind><bass><bass-step>A</bass-step><bass-alter>-1</bass-alter></bass></harmony><note default-x="104"><pitch><step>F</step><octave>4</octave></pitch><duration>4</duration><voice>1</voice><type>eighth</type><stem default-y="0">up</stem><beam number="1">begin</beam><lyric default-y="-95" name="verse" number="1"><syllabic>begin</syllabic><text font-size="10.8">die</text></lyric><lyric default-y="-120" name="verse" number="2"><syllabic>single</syllabic><text font-size="10.8">war</text></lyric><lyric default-y="-145" name="verse" number="3"><syllabic>single</syllabic><text font-size="10.8">er</text></lyric><lyric default-y="-169" name="verse" number="4"><syllabic>single</syllabic><text font-size="10.8">den</text></lyric></note><note default-x="189"><pitch><step>F</step><octave>4</octave></pitch><duration>4</duration><voice>1</voice><type>eighth</type><stem default-y="0">up</stem><beam number="1">end</beam><lyric default-y="-95" name="verse" number="1"><syllabic>end</syllabic><text font-size="10.8">sen</text></lyric><lyric default-y="-120" name="verse" number="2"><syllabic>single</syllabic><text font-size="10.8">für</text></lyric><lyric default-y="-145" name="verse" number="3"><syllabic>single</syllabic><text font-size="10.8">an</text></lyric><lyric default-y="-169" name="verse" number="4"><syllabic>begin</syllabic><text font-size="10.8">Er</text></lyric></note><note default-x="273"><pitch><step>F</step><octave>4</octave></pitch><duration>4</duration><voice>1</voice><type>eighth</type><stem default-y="0">up</stem><beam number="1">begin</beam><lyric default-y="-95" name="verse" number="1"><syllabic>begin</syllabic><text font-size="10.8">Je</text></lyric><lyric default-y="-120" name="verse" number="2"><syllabic>single</syllabic><text font-size="10.8">ihn</text></lyric><lyric default-y="-145" name="verse" number="3"><syllabic>begin</syllabic><text font-size="10.8">un</text></lyric><lyric default-y="-169" name="verse" number="4"><syllabic>middle</syllabic><text font-size="10.8">lö</text></lyric></note><note default-x="357"><pitch><step>F</step><octave>4</octave></pitch><duration>4</duration><voice>1</voice><type>eighth</type><stem default-y="0">up</stem><beam number="1">end</beam><lyric default-y="-95" name="verse" number="1"><syllabic>end</syllabic><text font-size="10.8">sus,</text></lyric><lyric default-y="-120" name="verse" number="2"><syllabic>single</syllabic><text font-size="10.8">des</text></lyric><lyric default-y="-145" name="verse" number="3"><syllabic>end</syllabic><text font-size="10.8">ser</text></lyric><lyric default-y="-169" name="verse" number="4"><syllabic>middle</syllabic><text font-size="10.8">sungs</text></lyric></note><harmony default-y="37" font-size="10" font-weight="bold"><root><root-step>G</root-step></root><kind halign="center" text="m">minor</kind><bass><bass-step>B</bass-step><bass-alter>-1</bass-alter></bass></harmony><note default-x="441"><pitch><step>G</step><octave>4</octave></pitch><duration>12</duration><voice>1</voice><type>quarter</type><dot /><stem default-y="6">up</stem><lyric default-y="-95" name="verse" number="1"><syllabic>begin</syllabic><text font-size="10.8">kreu</text></lyric><lyric default-y="-120" name="verse" number="2"><syllabic>begin</syllabic><text font-size="10.8">Va</text></lyric><lyric default-y="-145" name="verse" number="3"><syllabic>single</syllabic><text font-size="10.8">Heil</text></lyric><lyric default-y="-169" name="verse" number="4"><syllabic>end</syllabic><text font-size="10.8">plan</text></lyric></note><harmony default-y="37" font-size="10" font-weight="bold"><root><root-step>B</root-step><root-alter>-1</root-alter></root><kind halign="center" text="7">dominant</kind></harmony><note default-x="622"><pitch><step>F</step><octave>4</octave></pitch><duration>4</duration><voice>1</voice><type>eighth</type><stem default-y="1">up</stem><lyric default-y="-95" name="verse" number="1"><syllabic>end</syllabic><text font-size="10.8">zigt</text></lyric><lyric default-y="-120" name="verse" number="2"><syllabic>end</syllabic><text font-size="10.8">ters</text></lyric><lyric default-y="-145" name="verse" number="3"><syllabic>begin</syllabic><text font-size="10.8">ge</text></lyric><lyric default-y="-169" name="verse" number="4"><syllabic>begin</syllabic><text font-size="10.8">er</text></lyric></note></measure><!--=======================================================--><measure number="8" width="445"><harmony default-y="37" font-size="10" font-weight="bold"><root><root-step>E</root-step><root-alter>-1</root-alter></root><kind halign="center" text="">major</kind></harmony><note default-x="25"><pitch><step>E</step><alter>-1</alter><octave>4</octave></pitch><duration>16</duration><tie type="start" /><voice>1</voice><type>half</type><stem default-y="-4">up</stem><notations><tied type="start" /></notations><lyric default-y="-95" name="verse" number="1"><syllabic>single</syllabic><text font-size="10.8">ihn!</text><extend /></lyric><lyric default-y="-120" name="verse" number="2"><syllabic>single</syllabic><text font-size="10.8">Plan.</text><extend /></lyric><lyric default-y="-145" name="verse" number="3"><syllabic>end</syllabic><text font-size="10.8">dacht.</text><extend /></lyric><lyric default-y="-169" name="verse" number="4"><syllabic>end</syllabic><text font-size="10.8">füllt.</text><extend /></lyric></note><note default-x="188"><pitch><step>E</step><alter>-1</alter><octave>4</octave></pitch><duration>4</duration><tie type="stop" /><voice>1</voice><type>eighth</type><stem default-y="25">up</stem><beam number="1">begin</beam><notations><tied type="stop" /></notations></note><note default-x="251"><pitch><step>E</step><alter>-1</alter><octave>5</octave></pitch><duration>4</duration><voice>1</voice><type>eighth</type><stem default-y="30">up</stem><beam number="1">end</beam><lyric default-y="-95" name="verse" number="1"><syllabic>single</syllabic><text font-size="10.8">Er</text></lyric><lyric default-y="-120" name="verse" number="2"><syllabic>single</syllabic><text font-size="10.8">Er</text></lyric><lyric default-y="-145" name="verse" number="3"><syllabic>single</syllabic><text font-size="10.8">Er</text></lyric><lyric default-y="-169" name="verse" number="4"><syllabic>single</syllabic><text font-size="10.8">Er</text></lyric></note><harmony default-y="37" font-size="10" font-weight="bold"><root><root-step>F</root-step></root><kind halign="center" text="m7">minor-seventh</kind></harmony><note default-x="313"><pitch><step>E</step><alter>-1</alter><octave>5</octave></pitch><duration>4</duration><voice>1</voice><type>eighth</type><stem default-y="-40">down</stem><beam number="1">begin</beam><lyric default-y="-95" name="verse" number="1"><syllabic>begin</syllabic><text font-size="10.8">konn</text></lyric><lyric default-y="-120" name="verse" number="2"><syllabic>begin</syllabic><text font-size="10.8">konn</text></lyric><lyric default-y="-145" name="verse" number="3"><syllabic>begin</syllabic><text font-size="10.8">konn</text></lyric><lyric default-y="-169" name="verse" number="4"><syllabic>begin</syllabic><text font-size="10.8">konn</text></lyric></note><harmony default-y="37" font-size="10" font-weight="bold"><root><root-step>E</root-step><root-alter>-1</root-alter></root><kind halign="center" text="7">dominant</kind><bass><bass-step>G</bass-step></bass></harmony><note default-x="376"><pitch><step>E</step><alter>-1</alter><octave>5</octave></pitch><duration>4</duration><voice>1</voice><type>eighth</type><stem default-y="-40">down</stem><beam number="1">end</beam><lyric default-y="-95" name="verse" number="1"><syllabic>end</syllabic><text font-size="10.8">te</text></lyric><lyric default-y="-120" name="verse" number="2"><syllabic>end</syllabic><text font-size="10.8">te</text></lyric><lyric default-y="-145" name="verse" number="3"><syllabic>end</syllabic><text font-size="10.8">te</text></lyric><lyric default-y="-169" name="verse" number="4"><syllabic>end</syllabic><text font-size="10.8">te</text></lyric></note><barline location="right"><bar-style>light-light</bar-style></barline></measure><!--=======================================================--><measure number="9" width="775"><print new-system="yes"><system-layout><system-distance>221</system-distance></system-layout></print><harmony default-y="37" font-size="10" font-weight="bold"><root><root-step>A</root-step><root-alter>-1</root-alter></root><kind halign="center" text="">major</kind></harmony><note default-x="99"><pitch><step>E</step><alter>-1</alter><octave>5</octave></pitch><duration>16</duration><tie type="start" /><voice>1</voice><type>half</type><stem default-y="21">up</stem><notations><tied orientation="over" type="start" /></notations><lyric default-y="-95" name="verse" number="1"><syllabic>begin</syllabic><text font-size="10.8">tau</text></lyric></note><harmony default-y="37" font-size="10" font-weight="bold"><root><root-step>E</root-step><root-alter>-1</root-alter></root><kind halign="center" text="maj7">major-seventh</kind><bass><bass-step>A</bass-step><bass-alter>-1</bass-alter></bass><offset>-8</offset></harmony><harmony default-y="37" font-size="10" font-weight="bold"><root><root-step>A</root-step><root-alter>-1</root-alter></root><kind halign="center" text="">major</kind></harmony><note default-x="423"><pitch><step>E</step><alter>-1</alter><octave>5</octave></pitch><duration>4</duration><tie type="stop" /><voice>1</voice><type>eighth</type><stem default-y="-39.5">down</stem><beam number="1">begin</beam><notations><tied type="stop" /></notations></note><note default-x="512"><pitch><step>E</step><alter>-1</alter><octave>5</octave></pitch><duration>4</duration><voice>1</voice><type>eighth</type><stem default-y="-39.5">down</stem><beam number="1">end</beam><lyric default-y="-95" name="verse" number="1"><syllabic>end</syllabic><text font-size="10.8">send</text></lyric></note><harmony default-y="37" font-size="10" font-weight="bold"><root><root-step>A</root-step><root-alter>-1</root-alter></root><kind halign="center" text="">major</kind><bass><bass-step>C</bass-step></bass></harmony><note default-x="602"><pitch><step>E</step><alter>-1</alter><octave>5</octave></pitch><duration>4</duration><voice>1</voice><type>eighth</type><stem default-y="-39.5">down</stem><beam number="1">begin</beam><lyric default-y="-95" name="verse" number="1"><syllabic>begin</syllabic><text font-size="10.8">En</text></lyric></note><harmony default-y="37" font-size="10" font-weight="bold"><root><root-step>A</root-step><root-alter>-1</root-alter></root><kind halign="center" text="">major</kind></harmony><note default-x="691"><pitch><step>E</step><alter>-1</alter><octave>5</octave></pitch><duration>4</duration><voice>1</voice><type>eighth</type><stem default-y="-39.5">down</stem><beam number="1">end</beam><lyric default-y="-95" name="verse" number="1"><syllabic>end</syllabic><text font-size="10.8">gel</text></lyric></note><backup><duration>32</duration></backup><note default-x="99"><pitch><step>A</step><alter>-1</alter><octave>4</octave></pitch><duration>8</duration><voice>2</voice><type size="cue">quarter</type><stem default-y="-50">down</stem></note><note default-x="302"><pitch><step>B</step><alter>-1</alter><octave>4</octave></pitch><duration>8</duration><voice>2</voice><type size="cue">quarter</type><stem default-y="-55">down</stem></note><forward><duration>16</duration><voice>2</voice></forward></measure><!--=======================================================--><measure number="10" width="377"><harmony default-y="37" font-size="10" font-weight="bold"><root><root-step>E</root-step><root-alter>-1</root-alter></root><kind halign="center" text="">major</kind></harmony><note default-x="15"><pitch><step>E</step><alter>-1</alter><octave>5</octave></pitch><duration>8</duration><voice>1</voice><type>quarter</type><stem default-y="-40.5">down</stem><lyric default-y="-95" name="verse" number="1"><syllabic>begin</syllabic><text font-size="10.8">ru</text></lyric></note><note default-x="101"><pitch><step>B</step><alter>-1</alter><octave>4</octave></pitch><duration>12</duration><voice>1</voice><type>quarter</type><dot /><stem default-y="-55">down</stem><lyric default-y="-95" name="verse" number="1"><syllabic>end</syllabic><text font-size="10.8">fen,</text></lyric></note><note default-x="215"><pitch><step>B</step><alter>-1</alter><octave>4</octave></pitch><duration>4</duration><voice>1</voice><type>eighth</type><stem default-y="-55">down</stem><lyric default-y="-95" name="verse" number="1"><syllabic>single</syllabic><text font-size="10.8">die</text></lyric></note><note default-x="269"><pitch><step>B</step><alter>-1</alter><octave>4</octave></pitch><duration>4</duration><voice>1</voice><type>eighth</type><stem default-y="-55">down</stem><beam number="1">begin</beam><lyric default-y="-95" name="verse" number="1"><syllabic>single</syllabic><text font-size="10.8">ihn</text></lyric></note><note default-x="322"><pitch><step>C</step><octave>5</octave></pitch><duration>4</duration><voice>1</voice><type>eighth</type><stem default-y="-50">down</stem><beam number="1">end</beam><lyric default-y="-95" name="verse" number="1"><syllabic>begin</syllabic><text font-size="10.8">be</text></lyric></note></measure><!--=======================================================--><measure number="11" width="610"><print new-page="yes" page-number="2"><system-layout><top-system-distance>122</top-system-distance></system-layout></print><harmony default-y="37" font-size="10" font-weight="bold"><root><root-step>B</root-step><root-alter>-1</root-alter></root><kind halign="center" text="7">dominant</kind><bass><bass-step>F</bass-step></bass></harmony><note default-x="106"><pitch><step>B</step><alter>-1</alter><octave>4</octave></pitch><duration>16</duration><tie type="start" /><voice>1</voice><type>half</type><stem default-y="16">up</stem><notations><tied orientation="over" type="start" /></notations><lyric default-y="-95" name="verse" number="1"><syllabic>end</syllabic><text font-size="10.8">frein</text><extend /></lyric></note><harmony default-y="37" font-size="10" font-weight="bold"><root><root-step>B</root-step><root-alter>-1</root-alter></root><kind halign="center" text="7">dominant</kind><offset>-8</offset></harmony><note default-x="341"><pitch><step>B</step><alter>-1</alter><octave>4</octave></pitch><duration>4</duration><tie type="stop" /><voice>1</voice><type>eighth</type><stem default-y="-54.5">down</stem><beam number="1">begin</beam><notations><tied type="stop" /></notations></note><harmony default-y="37" font-size="10" font-weight="bold"><root><root-step>B</root-step><root-alter>-1</root-alter></root><kind halign="center" text="">major</kind></harmony><note default-x="397"><pitch><step>B</step><alter>-1</alter><octave>4</octave></pitch><duration>4</duration><voice>1</voice><type>eighth</type><stem default-y="-54.5">down</stem><beam number="1">end</beam><lyric default-y="-95" name="verse" number="1"><syllabic>single</syllabic><text font-size="10.8">im</text></lyric></note><harmony default-y="37" font-size="10" font-weight="bold"><root><root-step>G</root-step></root><kind halign="center" text="m">minor</kind><bass><bass-step>B</bass-step><bass-alter>-1</bass-alter></bass></harmony><note default-x="462"><pitch><step>B</step><alter>-1</alter><octave>4</octave></pitch><duration>4</duration><voice>1</voice><type>eighth</type><stem default-y="-54.5">down</stem><beam number="1">begin</beam><lyric default-y="-95" name="verse" number="1"><syllabic>begin</syllabic><text font-size="10.8">Au</text></lyric></note><harmony default-y="37" font-size="10" font-weight="bold"><root><root-step>B</root-step><root-alter>-1</root-alter></root><kind halign="center" text="9">dominant-ninth</kind></harmony><note default-x="544"><pitch><step>C</step><octave>5</octave></pitch><duration>4</duration><voice>1</voice><type>eighth</type><stem default-y="-49.5">down</stem><beam number="1">end</beam><lyric default-y="-95" name="verse" number="1"><syllabic>middle</syllabic><text font-size="10.8">gen</text></lyric></note><backup><duration>32</duration></backup><note default-x="106"><pitch><step>F</step><octave>4</octave></pitch><duration>8</duration><voice>2</voice><type size="cue">quarter</type><stem default-y="-60.5">down</stem></note><note default-x="254"><pitch><step>D</step><octave>4</octave></pitch><duration>8</duration><voice>2</voice><type size="cue">quarter</type><stem default-y="-70">down</stem></note><forward><duration>16</duration><voice>2</voice></forward></measure><!--=======================================================--><measure number="12" width="543"><harmony default-y="37" font-size="10" font-weight="bold"><root><root-step>E</root-step><root-alter>-1</root-alter></root><kind halign="center" text="">major</kind></harmony><note default-x="19"><pitch><step>B</step><alter>-1</alter><octave>4</octave></pitch><duration>16</duration><tie type="start" /><voice>1</voice><type>half</type><stem default-y="16">up</stem><notations><tied orientation="over" type="start" /></notations><lyric default-y="-95" name="verse" number="1"><syllabic>end</syllabic><text font-size="10.8">blick.</text><extend /></lyric></note><harmony default-y="37" font-size="10" font-weight="bold"><root><root-step>B</root-step><root-alter>-1</root-alter></root><kind halign="center" text="7">dominant</kind><bass><bass-step>F</bass-step></bass><offset>-8</offset></harmony><harmony default-y="37" font-size="10" font-weight="bold"><root><root-step>E</root-step><root-alter>-1</root-alter></root><kind halign="center" text="">major</kind></harmony><note default-x="266"><pitch><step>B</step><alter>-1</alter><octave>4</octave></pitch><duration>4</duration><tie type="stop" /><voice>1</voice><type>eighth</type><stem default-y="-54.5">down</stem><beam number="1">begin</beam><notations><tied type="stop" /></notations></note><note default-x="327"><pitch><step>E</step><alter>-1</alter><octave>5</octave></pitch><duration>4</duration><voice>1</voice><type>eighth</type><stem default-y="-49.5">down</stem><beam number="1">end</beam><lyric default-y="-95" name="verse" number="1"><syllabic>single</syllabic><text font-size="10.8">Er</text></lyric></note><harmony default-y="37" font-size="10" font-weight="bold"><root><root-step>F</root-step></root><kind halign="center" text="m7">minor-seventh</kind></harmony><note default-x="400"><pitch><step>E</step><alter>-1</alter><octave>5</octave></pitch><duration>4</duration><voice>1</voice><type>eighth</type><stem default-y="-40">down</stem><beam number="1">begin</beam><lyric default-y="-95" name="verse" number="1"><syllabic>begin</syllabic><text font-size="10.8">konn</text></lyric></note><harmony default-y="37" font-size="10" font-weight="bold"><root><root-step>E</root-step><root-alter>-1</root-alter></root><kind halign="center" text="7">dominant</kind><bass><bass-step>G</bass-step></bass></harmony><note default-x="471"><pitch><step>E</step><alter>-1</alter><octave>5</octave></pitch><duration>4</duration><voice>1</voice><type>eighth</type><stem default-y="-40">down</stem><beam number="1">end</beam><lyric default-y="-95" name="verse" number="1"><syllabic>end</syllabic><text font-size="10.8">te</text></lyric></note><backup><duration>32</duration></backup><note default-x="19"><pitch><step>G</step><octave>4</octave></pitch><duration>8</duration><voice>2</voice><type size="cue">quarter</type><stem default-y="-55.5">down</stem></note><note default-x="177"><pitch><step>A</step><alter>-1</alter><octave>4</octave></pitch><duration>8</duration><voice>2</voice><type size="cue">quarter</type><stem default-y="-51">down</stem></note><forward><duration>16</duration><voice>2</voice></forward></measure><!--=======================================================--><measure number="13" width="1152"><print new-system="yes"><system-layout><system-distance>184</system-distance></system-layout></print><harmony default-y="37" font-size="10" font-weight="bold"><root><root-step>A</root-step><root-alter>-1</root-alter></root><kind halign="center" text="">major</kind></harmony><note default-x="99"><pitch><step>E</step><alter>-1</alter><octave>5</octave></pitch><duration>16</duration><tie type="start" /><voice>1</voice><type>half</type><stem default-y="21">up</stem><notations><tied orientation="over" type="start" /></notations><lyric default-y="-95" name="verse" number="1"><syllabic>begin</syllabic><text font-size="10.8">tau</text></lyric></note><harmony default-y="37" font-size="10" font-weight="bold"><root><root-step>E</root-step><root-alter>-1</root-alter></root><kind halign="center" text="maj7">major-seventh</kind><bass><bass-step>A</bass-step><bass-alter>-1</bass-alter></bass><offset>-8</offset></harmony><harmony default-y="37" font-size="10" font-weight="bold"><root><root-step>A</root-step><root-alter>-1</root-alter></root><kind halign="center" text="">major</kind></harmony><note default-x="608"><pitch><step>E</step><alter>-1</alter><octave>5</octave></pitch><duration>4</duration><tie type="stop" /><voice>1</voice><type>eighth</type><stem default-y="-40">down</stem><beam number="1">begin</beam><notations><tied type="stop" /></notations></note><harmony default-y="37" font-size="10" font-weight="bold"><root><root-step>A</root-step><root-alter>-1</root-alter></root><kind halign="center" text="">major</kind><bass><bass-step>C</bass-step></bass></harmony><note default-x="745"><pitch><step>E</step><alter>-1</alter><octave>5</octave></pitch><duration>4</duration><voice>1</voice><type>eighth</type><stem default-y="-40">down</stem><beam number="1">end</beam><lyric default-y="-95" name="verse" number="1"><syllabic>end</syllabic><text font-size="10.8">send</text></lyric></note><note default-x="883"><pitch><step>E</step><alter>-1</alter><octave>5</octave></pitch><duration>4</duration><voice>1</voice><type>eighth</type><stem default-y="-40">down</stem><beam number="1">begin</beam><lyric default-y="-95" name="verse" number="1"><syllabic>begin</syllabic><text font-size="10.8">En</text></lyric></note><harmony default-y="37" font-size="10" font-weight="bold"><root><root-step>A</root-step><root-alter>-1</root-alter></root><kind halign="center" text="">major</kind></harmony><note default-x="1018"><pitch><step>E</step><alter>-1</alter><octave>5</octave></pitch><duration>4</duration><voice>1</voice><type>eighth</type><stem default-y="-40">down</stem><beam number="1">end</beam><lyric default-y="-95" name="verse" number="1"><syllabic>end</syllabic><text font-size="10.8">gel</text></lyric></note><backup><duration>32</duration></backup><note default-x="99"><pitch><step>A</step><alter>-1</alter><octave>4</octave></pitch><duration>8</duration><voice>2</voice><type size="cue">quarter</type><stem default-y="-51">down</stem></note><note default-x="403"><pitch><step>B</step><alter>-1</alter><octave>4</octave></pitch><duration>8</duration><voice>2</voice><type size="cue">quarter</type><stem default-y="-55.5">down</stem></note><forward><duration>16</duration><voice>2</voice></forward></measure><!--=======================================================--><measure number="14" width="494"><print new-system="yes"><system-layout><system-distance>184</system-distance></system-layout></print><harmony default-y="37" font-size="10" font-weight="bold"><root><root-step>E</root-step><root-alter>-1</root-alter></root><kind halign="center" text="">major</kind></harmony><note default-x="97"><pitch><step>E</step><alter>-1</alter><octave>5</octave></pitch><duration>8</duration><voice>1</voice><type>quarter</type><stem default-y="-40">down</stem><lyric default-y="-95" name="verse" number="1"><syllabic>begin</syllabic><text font-size="10.8">ru</text></lyric></note><note default-x="172"><pitch><step>B</step><alter>-1</alter><octave>4</octave></pitch><duration>12</duration><voice>1</voice><type>quarter</type><dot /><stem default-y="-55.5">down</stem><lyric default-y="-95" name="verse" number="1"><syllabic>end</syllabic><text font-size="10.8">fen,</text></lyric></note><note default-x="270"><pitch><step>E</step><alter>-1</alter><octave>4</octave></pitch><duration>2</duration><voice>1</voice><type>16th</type><stem default-y="-5">up</stem><beam number="1">begin</beam><beam number="2">begin</beam><lyric default-y="-95" name="verse" number="1"><syllabic>single</syllabic><text font-size="10.8">doch</text></lyric></note><note default-x="324"><pitch><step>E</step><alter>-1</alter><octave>4</octave></pitch><duration>2</duration><voice>1</voice><type>16th</type><stem default-y="-5">up</stem><beam number="1">end</beam><beam number="2">end</beam><lyric default-y="-95" name="verse" number="1"><syllabic>single</syllabic><text font-size="10.8">er</text></lyric></note><note default-x="380"><pitch><step>E</step><alter>-1</alter><octave>4</octave></pitch><duration>4</duration><voice>1</voice><type>eighth</type><stem default-y="0">up</stem><beam number="1">begin</beam><lyric default-y="-95" name="verse" number="1"><syllabic>single</syllabic><text font-size="10.8">starb</text></lyric></note><note default-x="443"><pitch><step>G</step><octave>4</octave></pitch><duration>4</duration><voice>1</voice><type>eighth</type><stem default-y="5">up</stem><beam number="1">end</beam><lyric default-y="-95" name="verse" number="1"><syllabic>begin</syllabic><text font-size="10.8">al</text></lyric></note></measure><!--=======================================================--><measure number="15" width="515"><note default-x="11"><pitch><step>B</step><alter>-1</alter><octave>4</octave></pitch><duration>16</duration><tie type="start" /><voice>1</voice><type>half</type><stem default-y="16">up</stem><notations><tied orientation="over" type="start" /></notations><lyric default-y="-95" name="verse" number="1"><syllabic>end</syllabic><text font-size="10.8">lein</text><extend /></lyric></note><harmony default-y="37" font-size="10" font-weight="bold"><root><root-step>B</root-step><root-alter>-1</root-alter></root><kind halign="center" text="">major</kind><bass><bass-step>F</bass-step></bass><offset>-8</offset></harmony><harmony default-y="37" font-size="10" font-weight="bold"><root><root-step>E</root-step><root-alter>-1</root-alter></root><kind halign="center" text="">major</kind><bass><bass-step>G</bass-step></bass></harmony><note default-x="240"><pitch><step>B</step><alter>-1</alter><octave>4</octave></pitch><duration>4</duration><tie type="stop" /><voice>1</voice><type>eighth</type><stem default-y="15">up</stem><beam number="1">begin</beam><notations><tied type="stop" /></notations></note><harmony default-y="37" font-size="10" font-weight="bold"><root><root-step>B</root-step><root-alter>-1</root-alter></root><kind halign="center" text="">major</kind></harmony><note default-x="308"><pitch><step>D</step><octave>4</octave></pitch><duration>4</duration><voice>1</voice><type>eighth</type><stem default-y="10">up</stem><beam number="1">end</beam><lyric default-y="-95" name="verse" number="1"><syllabic>single</syllabic><text font-size="10.8">für</text></lyric></note><note default-x="378"><pitch><step>D</step><octave>4</octave></pitch><duration>4</duration><voice>1</voice><type>eighth</type><stem default-y="-5">up</stem><beam number="1">begin</beam><lyric default-y="-95" name="verse" number="1"><syllabic>single</syllabic><text font-size="10.8">dich</text></lyric></note><harmony default-y="37" font-size="10" font-weight="bold"><root><root-step>B</root-step><root-alter>-1</root-alter></root><kind halign="center" text="7">dominant</kind></harmony><note default-x="450"><pitch><step>F</step><octave>4</octave></pitch><duration>4</duration><voice>1</voice><type>eighth</type><stem default-y="0">up</stem><beam number="1">end</beam><lyric default-y="-95" name="verse" number="1"><syllabic>single</syllabic><text font-size="10.8">und</text></lyric></note><backup><duration>32</duration></backup><note default-x="11"><pitch><step>E</step><alter>-1</alter><octave>4</octave></pitch><duration>8</duration><voice>2</voice><type size="cue">quarter</type><stem default-y="-65">down</stem></note><note default-x="151"><pitch><step>D</step><octave>4</octave></pitch><duration>8</duration><voice>2</voice><type size="cue">quarter</type><stem default-y="-70">down</stem></note><forward><duration>16</duration><voice>2</voice></forward></measure><!--=======================================================--><measure number="16" width="143"><harmony default-y="37" font-size="10" font-weight="bold"><root><root-step>E</root-step><root-alter>-1</root-alter></root><kind halign="center" text="">major</kind></harmony><note default-x="20"><pitch><step>E</step><alter>-1</alter><octave>4</octave></pitch><duration>24</duration><voice>1</voice><type>half</type><dot /><stem default-y="-4">up</stem><lyric default-y="-95" name="verse" number="1"><syllabic>single</syllabic><text font-size="10.8">mich.</text></lyric></note><barline location="right"><bar-style>light-heavy</bar-style></barline></measure></part><!--=========================================================--></score-partwise>