<?xml version="1.0" encoding="UTF-8"?><!DOCTYPE score-partwise PUBLIC "-//Recordare//DTD MusicXML 2.0 Partwise//EN" "http://www.musicxml.org/dtds/partwise.dtd"[]><score-partwise version="2.0"><movement-title>Siehst du das Lamm</movement-title><identification><creator type="composer">Albert Frey</creator><encoding><software>Finale 2011 for Windows</software><software>Dolet Light for Finale 2011</software><encoding-date>2013-04-16</encoding-date><supports attribute="new-system" element="print" type="yes" value="yes" /><supports attribute="new-page" element="print" type="yes" value="yes" /></encoding><rights>CCLI-Liednummer 4684534
© 2002 FREYKLANG
Nutzung ausschließlich im Rahmen der SongSelect®-Nutzungsbedingungen. Alle Rechte vorbehalten. www.ccli.com
CCLI-Lizenznummer 2182334
</rights></identification><defaults><scaling><millimeters>6.5088</millimeters><tenths>40</tenths></scaling><page-layout><page-height>1771</page-height><page-width>1308</page-width><page-margins type="both"><left-margin>78</left-margin><right-margin>78</right-margin><top-margin>78</top-margin><bottom-margin>78</bottom-margin></page-margins></page-layout><system-layout><system-margins><left-margin>0</left-margin><right-margin>0</right-margin></system-margins><system-distance>293</system-distance><top-system-distance>122</top-system-distance></system-layout><appearance><line-width type="stem">1.4583</line-width><line-width type="beam">5</line-width><line-width type="staff">1.25</line-width><line-width type="light barline">1.4583</line-width><line-width type="heavy barline">5</line-width><line-width type="leger">1.875</line-width><line-width type="ending">1.4583</line-width><line-width type="wedge">1.4583</line-width><line-width type="enclosure">1.4583</line-width><line-width type="tuplet bracket">1.4583</line-width><note-size type="grace">50</note-size><note-size type="cue">50</note-size></appearance><music-font font-family="Maestro" font-size="18.5" /><word-font font-family="Arial" font-size="9.2" /><lyric-font font-family="Arial" font-size="10.8" name="verse" /><lyric-font font-family="Arial" font-size="10.8" name="section" /></defaults><credit page="1"><credit-words default-x="654" default-y="1688" font-size="21.6" font-weight="bold" justify="center" valign="top">Siehst du das Lamm</credit-words></credit><credit page="1"><credit-words default-x="1230" default-y="1620" font-size="10.8" font-style="italic" justify="right" valign="top">Text und Musik:</credit-words><credit-words font-size="10.8" font-style="normal" font-weight="bold">
Albert Frey</credit-words></credit><credit page="2"><credit-words default-x="654" default-y="1717" font-size="10.8" justify="center" valign="top">Siehst du das Lamm - 2</credit-words></credit><part-list><score-part id="P1"><part-name print-object="no">Melody</part-name><score-instrument id="P1-I2"><instrument-name>Melody</instrument-name></score-instrument><midi-instrument id="P1-I2"><midi-channel>1</midi-channel><midi-program>1</midi-program><volume>80</volume><pan>0</pan></midi-instrument></score-part></part-list><!--=========================================================--><part id="P1"><measure implicit="yes" number="0" width="346"><print page-number="1"><system-layout><system-margins><left-margin>68</left-margin><right-margin>0</right-margin></system-margins><top-system-distance>244</top-system-distance></system-layout><measure-numbering>system</measure-numbering></print><attributes><divisions>2</divisions><key><fifths>0</fifths><mode>major</mode></key><time><beats>3</beats><beat-type>2</beat-type></time><clef><sign>G</sign><line>2</line></clef></attributes><sound tempo="96" /><note default-x="110"><pitch><step>C</step><octave>4</octave></pitch><duration>2</duration><voice>1</voice><type>quarter</type><stem default-y="-14">up</stem><lyric default-y="-95" name="verse" number="1"><syllabic>single</syllabic><text font-size="10.8">1.</text><elision> </elision><syllabic>single</syllabic><text font-size="10.8">Siehst</text></lyric><lyric default-y="-120" name="verse" number="2"><syllabic>single</syllabic><text font-size="10.8">(2.</text><elision> </elision><syllabic>single</syllabic><text font-size="10.8">Siehst</text></lyric><lyric default-y="-145" name="verse" number="3"><syllabic>single</syllabic><text font-size="10.8">(3.</text><elision> </elision><syllabic>single</syllabic><text font-size="10.8">Siehst</text></lyric><lyric default-y="-169" name="verse" number="4"><syllabic>single</syllabic><text font-size="10.8">(4.</text><elision> </elision><syllabic>single</syllabic><text font-size="10.8">Siehst</text></lyric><lyric default-y="-194" name="verse" number="5"><syllabic>single</syllabic><text font-size="10.8">(5.</text><elision> </elision><syllabic>single</syllabic><text font-size="10.8">Siehst</text></lyric></note><note default-x="188"><pitch><step>C</step><octave>4</octave></pitch><duration>2</duration><voice>1</voice><type>quarter</type><stem default-y="-14">up</stem><lyric default-y="-95" name="verse" number="1"><syllabic>single</syllabic><text font-size="10.8">du</text></lyric><lyric default-y="-120" name="verse" number="2"><syllabic>single</syllabic><text font-size="10.8">du</text></lyric><lyric default-y="-145" name="verse" number="3"><syllabic>single</syllabic><text font-size="10.8">du</text></lyric><lyric default-y="-169" name="verse" number="4"><syllabic>single</syllabic><text font-size="10.8">du</text></lyric><lyric default-y="-194" name="verse" number="5"><syllabic>single</syllabic><text font-size="10.8">du</text></lyric></note><note default-x="267"><pitch><step>D</step><octave>4</octave></pitch><duration>2</duration><voice>1</voice><type>quarter</type><stem default-y="-9">up</stem><lyric default-y="-95" name="verse" number="1"><syllabic>single</syllabic><text font-size="10.8">das</text></lyric><lyric default-y="-120" name="verse" number="2"><syllabic>single</syllabic><text font-size="10.8">das)</text></lyric><lyric default-y="-145" name="verse" number="3"><syllabic>single</syllabic><text font-size="10.8">das)</text></lyric><lyric default-y="-169" name="verse" number="4"><syllabic>single</syllabic><text font-size="10.8">das)</text></lyric><lyric default-y="-194" name="verse" number="5"><syllabic>single</syllabic><text font-size="10.8">das)</text></lyric></note></measure><!--=======================================================--><measure number="1" width="373"><barline location="left"><bar-style>heavy-light</bar-style><repeat direction="forward" /></barline><direction placement="above"><direction-type><segno default-x="11" default-y="53" /></direction-type><sound divisions="2" segno="2" /></direction><harmony default-y="29" font-size="10" font-weight="bold"><root><root-step>C</root-step></root><kind halign="center" text="">major</kind></harmony><note default-x="46"><pitch><step>E</step><octave>4</octave></pitch><duration>6</duration><voice>1</voice><type>half</type><dot /><stem default-y="-4">up</stem><lyric default-y="-95" name="verse" number="1"><syllabic>single</syllabic><text font-size="10.8">Lamm</text></lyric><lyric default-y="-120" name="verse" number="2"><syllabic>single</syllabic><text font-size="10.8">Lamm,</text></lyric><lyric default-y="-145" name="verse" number="3"><syllabic>single</syllabic><text font-size="10.8">Lamm</text></lyric><lyric default-y="-169" name="verse" number="4"><syllabic>single</syllabic><text font-size="10.8">Lamm</text></lyric><lyric default-y="-194" name="verse" number="5"><syllabic>single</syllabic><text font-size="10.8">Lamm</text></lyric></note><note default-x="179"><pitch><step>C</step><octave>4</octave></pitch><duration>2</duration><voice>1</voice><type>quarter</type><stem default-y="-14">up</stem><lyric default-y="-95" name="verse" number="1"><syllabic>single</syllabic><text font-size="10.8">in</text></lyric><lyric default-y="-120" name="verse" number="2"><syllabic>single</syllabic><text font-size="10.8">dort</text></lyric><lyric default-y="-145" name="verse" number="3"><syllabic>single</syllabic><text font-size="10.8">dort</text></lyric><lyric default-y="-169" name="verse" number="4"><syllabic>single</syllabic><text font-size="10.8">dort</text></lyric><lyric default-y="-194" name="verse" number="5"><syllabic>single</syllabic><text font-size="10.8">auf</text></lyric></note><harmony default-y="29" font-size="10" font-weight="bold"><root><root-step>D</root-step></root><kind halign="center" text="m">minor</kind><bass><bass-step>C</bass-step></bass></harmony><note default-x="243"><pitch><step>D</step><octave>4</octave></pitch><duration>2</duration><voice>1</voice><type>quarter</type><stem default-y="-9">up</stem><lyric default-y="-95" name="verse" number="1"><syllabic>begin</syllabic><text font-size="10.8">je</text></lyric><lyric default-y="-120" name="verse" number="2"><syllabic>single</syllabic><text font-size="10.8">am</text></lyric><lyric default-y="-145" name="verse" number="3"><syllabic>single</syllabic><text font-size="10.8">an</text></lyric><lyric default-y="-169" name="verse" number="4"><syllabic>single</syllabic><text font-size="10.8">auf</text></lyric><lyric default-y="-194" name="verse" number="5"><syllabic>begin</syllabic><text font-size="10.8">sei</text></lyric></note><note default-x="309"><pitch><step>C</step><octave>4</octave></pitch><duration>2</duration><voice>1</voice><type>quarter</type><stem default-y="-14">up</stem><lyric default-y="-95" name="verse" number="1"><syllabic>end</syllabic><text font-size="10.8">ner</text></lyric><lyric default-y="-120" name="verse" number="2"><syllabic>begin</syllabic><text font-size="10.8">Al</text></lyric><lyric default-y="-145" name="verse" number="3"><syllabic>single</syllabic><text font-size="10.8">dem</text></lyric><lyric default-y="-169" name="verse" number="4"><syllabic>single</syllabic><text font-size="10.8">dem</text></lyric><lyric default-y="-194" name="verse" number="5"><syllabic>end</syllabic><text font-size="10.8">nem</text></lyric></note></measure><!--=======================================================--><measure number="2" width="364"><harmony default-y="29" font-size="10" font-weight="bold"><root><root-step>C</root-step></root><kind halign="center" text="">major</kind></harmony><note default-x="30"><pitch><step>C</step><octave>4</octave></pitch><duration>6</duration><voice>1</voice><type>half</type><dot /><stem default-y="-14">up</stem><lyric default-y="-95" name="verse" number="1"><syllabic>single</syllabic><text font-size="10.8">Nacht?</text></lyric><lyric default-y="-120" name="verse" number="2"><syllabic>end</syllabic><text font-size="10.8">tar?</text></lyric><lyric default-y="-145" name="verse" number="3"><syllabic>single</syllabic><text font-size="10.8">Kreuz?</text></lyric><lyric default-y="-169" name="verse" number="4"><syllabic>single</syllabic><text font-size="10.8">Thron?</text></lyric><lyric default-y="-194" name="verse" number="5"><syllabic>single</syllabic><text font-size="10.8">Arm?</text></lyric></note><note default-x="168"><pitch><step>C</step><octave>4</octave></pitch><duration>2</duration><voice>1</voice><type>quarter</type><stem default-y="-14">up</stem><lyric default-y="-95" name="verse" number="1"><syllabic>single</syllabic><text font-size="10.8">Sein</text></lyric><lyric default-y="-120" name="verse" number="2"><syllabic>single</syllabic><text font-size="10.8">Des</text></lyric><lyric default-y="-145" name="verse" number="3"><syllabic>begin</syllabic><text font-size="10.8">Be</text></lyric><lyric default-y="-169" name="verse" number="4"><syllabic>single</syllabic><text font-size="10.8">Der</text></lyric><lyric default-y="-194" name="verse" number="5"><syllabic>single</syllabic><text font-size="10.8">Der</text></lyric></note><harmony default-y="29" font-size="10" font-weight="bold"><root><root-step>A</root-step></root><kind halign="center" text="m">minor</kind></harmony><note default-x="233"><pitch><step>C</step><octave>4</octave></pitch><duration>2</duration><voice>1</voice><type>quarter</type><stem default-y="-14">up</stem><lyric default-y="-95" name="verse" number="1"><syllabic>single</syllabic><text font-size="10.8">Blut</text></lyric><lyric default-y="-120" name="verse" number="2"><syllabic>begin</syllabic><text font-size="10.8">Vol</text></lyric><lyric default-y="-145" name="verse" number="3"><syllabic>end</syllabic><text font-size="10.8">zahlt</text></lyric><lyric default-y="-169" name="verse" number="4"><syllabic>begin</syllabic><text font-size="10.8">Va</text></lyric><lyric default-y="-194" name="verse" number="5"><syllabic>begin</syllabic><text font-size="10.8">gu</text></lyric></note><note default-x="298"><pitch><step>E</step><octave>4</octave></pitch><duration>2</duration><voice>1</voice><type>quarter</type><stem default-y="-4">up</stem><lyric default-y="-95" name="verse" number="1"><syllabic>single</syllabic><text font-size="10.8">an</text></lyric><lyric default-y="-120" name="verse" number="2"><syllabic>end</syllabic><text font-size="10.8">kes</text></lyric><lyric default-y="-145" name="verse" number="3"><syllabic>single</syllabic><text font-size="10.8">den</text></lyric><lyric default-y="-169" name="verse" number="4"><syllabic>end</syllabic><text font-size="10.8">ter</text></lyric><lyric default-y="-194" name="verse" number="5"><syllabic>end</syllabic><text font-size="10.8">te</text></lyric></note></measure><!--=======================================================--><measure number="3" width="395"><print new-system="yes"><system-layout><system-margins><left-margin>68</left-margin><right-margin>0</right-margin></system-margins><system-distance>268</system-distance></system-layout></print><harmony default-y="29" font-size="10" font-weight="bold"><root><root-step>E</root-step></root><kind halign="center" text="m">minor</kind></harmony><note default-x="66"><pitch><step>G</step><octave>4</octave></pitch><duration>6</duration><voice>1</voice><type>half</type><dot /><stem default-y="6">up</stem><lyric default-y="-95" name="verse" number="1"><syllabic>begin</syllabic><text font-size="10.8">Tü</text></lyric><lyric default-y="-120" name="verse" number="2"><syllabic>single</syllabic><text font-size="10.8">Schuld</text></lyric><lyric default-y="-145" name="verse" number="3"><syllabic>begin</syllabic><text font-size="10.8">höchs</text></lyric><lyric default-y="-169" name="verse" number="4"><syllabic>single</syllabic><text font-size="10.8">gibt</text></lyric><lyric default-y="-194" name="verse" number="5"><syllabic>begin</syllabic><text font-size="10.8">Hir</text></lyric></note><note default-x="190"><pitch><step>G</step><octave>4</octave></pitch><duration>2</duration><voice>1</voice><type>quarter</type><stem default-y="6">up</stem><lyric default-y="-95" name="verse" number="1"><syllabic>end</syllabic><text font-size="10.8">ren</text></lyric><lyric default-y="-120" name="verse" number="2"><syllabic>single</syllabic><text font-size="10.8">von</text></lyric><lyric default-y="-145" name="verse" number="3"><syllabic>end</syllabic><text font-size="10.8">ten</text></lyric><lyric default-y="-169" name="verse" number="4"><syllabic>single</syllabic><text font-size="10.8">die</text></lyric><lyric default-y="-194" name="verse" number="5"><syllabic>end</syllabic><text font-size="10.8">te</text></lyric></note><harmony default-y="29" font-size="10" font-weight="bold"><root><root-step>A</root-step></root><kind halign="center" text="m">minor</kind></harmony><note default-x="260"><pitch><step>A</step><octave>4</octave></pitch><duration>2</duration><voice>1</voice><type>quarter</type><stem default-y="11">up</stem><lyric default-y="-95" name="verse" number="1"><syllabic>begin</syllabic><text font-size="10.8">an</text></lyric><lyric default-y="-120" name="verse" number="2"><syllabic>begin</syllabic><text font-size="10.8">ei</text></lyric><lyric default-y="-145" name="verse" number="3"><syllabic>begin</syllabic><text font-size="10.8">Lie</text></lyric><lyric default-y="-169" name="verse" number="4"><syllabic>single</syllabic><text font-size="10.8">Macht</text></lyric><lyric default-y="-194" name="verse" number="5"><syllabic>single</syllabic><text font-size="10.8">hält</text></lyric></note><note default-x="333"><pitch><step>G</step><octave>4</octave></pitch><duration>2</duration><voice>1</voice><type>quarter</type><stem default-y="6">up</stem><lyric default-y="-95" name="verse" number="1"><syllabic>middle</syllabic><text font-size="10.8">ge</text></lyric><lyric default-y="-120" name="verse" number="2"><syllabic>end</syllabic><text font-size="10.8">nem</text></lyric><lyric default-y="-145" name="verse" number="3"><syllabic>middle</syllabic><text font-size="10.8">bes</text></lyric><lyric default-y="-169" name="verse" number="4"><syllabic>single</syllabic><text font-size="10.8">dem</text></lyric><lyric default-y="-194" name="verse" number="5"><syllabic>single</syllabic><text font-size="10.8">es</text></lyric></note></measure><!--=======================================================--><measure number="4" width="361"><harmony default-y="29" font-size="10" font-weight="bold"><root><root-step>D</root-step></root><kind halign="center" text="m">minor</kind></harmony><note default-x="28"><pitch><step>D</step><octave>4</octave></pitch><duration>4</duration><tie type="start" /><voice>1</voice><type>half</type><stem default-y="-9">up</stem><notations><tied type="start" /></notations><lyric default-y="-95" name="verse" number="1"><syllabic>end</syllabic><text font-size="10.8">bracht.</text><extend /></lyric><lyric default-y="-120" name="verse" number="2"><syllabic>single</syllabic><text font-size="10.8">Jahr</text><extend /></lyric><lyric default-y="-145" name="verse" number="3"><syllabic>end</syllabic><text font-size="10.8">preis.</text><extend /></lyric><lyric default-y="-169" name="verse" number="4"><syllabic>single</syllabic><text font-size="10.8">Sohn,</text><extend /></lyric><lyric default-y="-194" name="verse" number="5"><syllabic>single</syllabic><text font-size="10.8">warm.</text><extend /></lyric></note><harmony default-y="29" font-size="10" font-weight="bold"><root><root-step>G</root-step></root><kind halign="center" text="">major</kind></harmony><note default-x="118"><pitch><step>D</step><octave>4</octave></pitch><duration>2</duration><tie type="stop" /><voice>1</voice><type>quarter</type><stem default-y="-9">up</stem><notations><tied type="stop" /></notations></note><note default-x="173"><pitch><step>C</step><octave>4</octave></pitch><duration>2</duration><voice>1</voice><type>quarter</type><stem default-y="-14">up</stem><lyric default-y="-95" name="verse" number="1"><syllabic>single</syllabic><text font-size="10.8">Es</text></lyric><lyric default-y="-120" name="verse" number="2"><syllabic>single</syllabic><text font-size="10.8">liegt</text></lyric><lyric default-y="-145" name="verse" number="3"><syllabic>single</syllabic><text font-size="10.8">Es</text></lyric><lyric default-y="-169" name="verse" number="4"><syllabic>single</syllabic><text font-size="10.8">denn</text></lyric><lyric default-y="-194" name="verse" number="5"><syllabic>single</syllabic><text font-size="10.8">Er</text></lyric></note><harmony default-y="29" font-size="10" font-weight="bold"><root><root-step>G</root-step></root><kind halign="center" text="">major</kind><bass><bass-step>F</bass-step></bass></harmony><note default-x="241"><pitch><step>E</step><octave>4</octave></pitch><duration>2</duration><voice>1</voice><type>quarter</type><stem default-y="-4">up</stem><lyric default-y="-95" name="verse" number="1"><syllabic>begin</syllabic><text font-size="10.8">ret</text></lyric><lyric default-y="-120" name="verse" number="2"><syllabic>single</syllabic><text font-size="10.8">nun</text></lyric><lyric default-y="-145" name="verse" number="3"><syllabic>single</syllabic><text font-size="10.8">trägt</text></lyric><lyric default-y="-169" name="verse" number="4"><syllabic>begin</syllabic><text font-size="10.8">wür</text></lyric><lyric default-y="-194" name="verse" number="5"><syllabic>single</syllabic><text font-size="10.8">ließ</text></lyric></note><note default-x="304"><pitch><step>G</step><octave>4</octave></pitch><duration>2</duration><voice>1</voice><type>quarter</type><stem default-y="6">up</stem><lyric default-y="-95" name="verse" number="1"><syllabic>end</syllabic><text font-size="10.8">tet</text></lyric><lyric default-y="-120" name="verse" number="2"><syllabic>single</syllabic><text font-size="10.8">auf</text></lyric><lyric default-y="-145" name="verse" number="3"><syllabic>single</syllabic><text font-size="10.8">die</text></lyric><lyric default-y="-169" name="verse" number="4"><syllabic>end</syllabic><text font-size="10.8">dig</text></lyric><lyric default-y="-194" name="verse" number="5"><syllabic>single</syllabic><text font-size="10.8">die</text></lyric></note></measure><!--=======================================================--><measure number="5" width="328"><harmony default-y="29" font-size="10" font-weight="bold"><root><root-step>C</root-step></root><kind halign="center" text="">major</kind><bass><bass-step>E</bass-step></bass></harmony><note default-x="20"><pitch><step>C</step><octave>5</octave></pitch><duration>6</duration><voice>1</voice><type>half</type><dot /><stem default-y="-50">down</stem><lyric default-y="-95" name="verse" number="1"><syllabic>single</syllabic><text font-size="10.8">vor</text></lyric><lyric default-y="-120" name="verse" number="2"><syllabic>single</syllabic><text font-size="10.8">ihm,</text></lyric><lyric default-y="-145" name="verse" number="3"><syllabic>single</syllabic><text font-size="10.8">Last</text></lyric><lyric default-y="-169" name="verse" number="4"><syllabic>single</syllabic><text font-size="10.8">ist</text></lyric><lyric default-y="-194" name="verse" number="5"><syllabic>begin</syllabic><text font-size="10.8">Neun</text></lyric></note><note default-x="142"><pitch><step>C</step><octave>5</octave></pitch><duration>2</duration><voice>1</voice><type>quarter</type><stem default-y="-50">down</stem><lyric default-y="-95" name="verse" number="1"><syllabic>single</syllabic><text font-size="10.8">des</text></lyric><lyric default-y="-120" name="verse" number="2"><syllabic>single</syllabic><text font-size="10.8">es</text></lyric><lyric default-y="-145" name="verse" number="3"><syllabic>single</syllabic><text font-size="10.8">der</text></lyric><lyric default-y="-169" name="verse" number="4"><syllabic>begin</syllabic><text font-size="10.8">al</text></lyric><lyric default-y="-194" name="verse" number="5"><syllabic>middle</syllabic><text font-size="10.8">und</text></lyric></note><harmony default-y="29" font-size="10" font-weight="bold"><root><root-step>E</root-step></root><kind halign="center" use-symbols="yes">augmented</kind></harmony><note default-x="205"><pitch><step>C</step><octave>5</octave></pitch><duration>2</duration><voice>1</voice><type>quarter</type><stem default-y="-50">down</stem><lyric default-y="-95" name="verse" number="1"><syllabic>begin</syllabic><text font-size="10.8">To</text></lyric><lyric default-y="-120" name="verse" number="2"><syllabic>single</syllabic><text font-size="10.8">kauft</text></lyric><lyric default-y="-145" name="verse" number="3"><syllabic>begin</syllabic><text font-size="10.8">gan</text></lyric><lyric default-y="-169" name="verse" number="4"><syllabic>end</syllabic><text font-size="10.8">lein</text></lyric><lyric default-y="-194" name="verse" number="5"><syllabic>middle</syllabic><text font-size="10.8">neun</text></lyric></note><note default-x="269"><pitch><step>B</step><octave>4</octave></pitch><duration>2</duration><voice>1</voice><type>quarter</type><stem default-y="-55">down</stem><lyric default-y="-95" name="verse" number="1"><syllabic>end</syllabic><text font-size="10.8">des</text></lyric><lyric default-y="-120" name="verse" number="2"><syllabic>single</syllabic><text font-size="10.8">sie</text></lyric><lyric default-y="-145" name="verse" number="3"><syllabic>end</syllabic><text font-size="10.8">zen</text></lyric><lyric default-y="-169" name="verse" number="4"><syllabic>single</syllabic><text font-size="10.8">nur</text></lyric><lyric default-y="-194" name="verse" number="5"><syllabic>end</syllabic><text font-size="10.8">zig</text></lyric></note></measure><!--=======================================================--><measure number="6" width="424"><print new-system="yes"><system-layout><system-margins><left-margin>68</left-margin><right-margin>0</right-margin></system-margins><system-distance>268</system-distance></system-layout></print><harmony default-y="29" font-size="10" font-weight="bold"><root><root-step>F</root-step></root><kind halign="center" text="">major</kind></harmony><note default-x="63"><pitch><step>A</step><octave>4</octave></pitch><duration>6</duration><voice>1</voice><type>half</type><dot /><stem default-y="11">up</stem><lyric default-y="-95" name="verse" number="1"><syllabic>single</syllabic><text font-size="10.8">Hand.</text></lyric><lyric default-y="-120" name="verse" number="2"><syllabic>single</syllabic><text font-size="10.8">los,</text></lyric><lyric default-y="-145" name="verse" number="3"><syllabic>single</syllabic><text font-size="10.8">Welt,</text></lyric><lyric default-y="-169" name="verse" number="4"><syllabic>single</syllabic><text font-size="10.8">er.</text></lyric><lyric default-y="-194" name="verse" number="5"><syllabic>single</syllabic><text font-size="10.8">stehn.</text></lyric></note><note default-x="209"><pitch><step>C</step><octave>4</octave></pitch><duration>2</duration><voice>1</voice><type>quarter</type><stem default-y="-14">up</stem><lyric default-y="-95" name="verse" number="1"><syllabic>single</syllabic><text font-size="10.8">Das</text></lyric><lyric default-y="-120" name="verse" number="2"><syllabic>single</syllabic><text font-size="10.8">das</text></lyric><lyric default-y="-145" name="verse" number="3"><syllabic>single</syllabic><text font-size="10.8">von</text></lyric><lyric default-y="-169" name="verse" number="4"><syllabic>single</syllabic><text font-size="10.8">Die</text></lyric><lyric default-y="-194" name="verse" number="5"><syllabic>single</syllabic><text font-size="10.8">Es</text></lyric></note><harmony default-y="29" font-size="10" font-weight="bold"><root><root-step>D</root-step></root><kind halign="center" text="7">dominant</kind><bass><bass-step>F</bass-step><bass-alter>1</bass-alter></bass></harmony><note default-x="281"><pitch><step>C</step><octave>4</octave></pitch><duration>2</duration><voice>1</voice><type>quarter</type><stem default-y="-14">up</stem><lyric default-y="-95" name="verse" number="1"><syllabic>single</syllabic><text font-size="10.8">Volk</text></lyric><lyric default-y="-120" name="verse" number="2"><syllabic>begin</syllabic><text font-size="10.8">Op</text></lyric><lyric default-y="-145" name="verse" number="3"><syllabic>single</syllabic><text font-size="10.8">Leid</text></lyric><lyric default-y="-169" name="verse" number="4"><syllabic>begin</syllabic><text font-size="10.8">Völ</text></lyric><lyric default-y="-194" name="verse" number="5"><syllabic>single</syllabic><text font-size="10.8">soll</text></lyric></note><note default-x="353"><pitch><step>D</step><octave>4</octave></pitch><duration>2</duration><voice>1</voice><type>quarter</type><stem default-y="-9">up</stem><lyric default-y="-95" name="verse" number="1"><syllabic>single</syllabic><text font-size="10.8">kann</text></lyric><lyric default-y="-120" name="verse" number="2"><syllabic>middle</syllabic><text font-size="10.8">fer</text></lyric><lyric default-y="-145" name="verse" number="3"><syllabic>single</syllabic><text font-size="10.8">und</text></lyric><lyric default-y="-169" name="verse" number="4"><syllabic>end</syllabic><text font-size="10.8">ker</text></lyric><lyric default-y="-194" name="verse" number="5"><syllabic>single</syllabic><text font-size="10.8">ihm</text></lyric></note></measure><!--=======================================================--><measure number="7" width="370"><harmony default-y="29" font-size="10" font-weight="bold"><root><root-step>C</root-step></root><kind halign="center" text="">major</kind><bass><bass-step>G</bass-step></bass></harmony><note default-x="33"><pitch><step>E</step><octave>4</octave></pitch><duration>6</duration><voice>1</voice><type>half</type><dot /><stem default-y="-4">up</stem><lyric default-y="-95" name="verse" number="1"><syllabic>single</syllabic><text font-size="10.8">ziehn</text></lyric><lyric default-y="-120" name="verse" number="2"><syllabic>end</syllabic><text font-size="10.8">lamm,</text></lyric><lyric default-y="-145" name="verse" number="3"><syllabic>begin</syllabic><text font-size="10.8">Schmer</text></lyric><lyric default-y="-169" name="verse" number="4"><syllabic>begin</syllabic><text font-size="10.8">sin</text></lyric><lyric default-y="-194" name="verse" number="5"><syllabic>single</syllabic><text font-size="10.8">keins</text></lyric></note><note default-x="173"><pitch><step>C</step><octave>4</octave></pitch><duration>2</duration><voice>1</voice><type>quarter</type><stem default-y="-14">up</stem><lyric default-y="-95" name="verse" number="1"><syllabic>single</syllabic><text font-size="10.8">in</text></lyric><lyric default-y="-120" name="verse" number="2"><syllabic>single</syllabic><text font-size="10.8">so</text></lyric><lyric default-y="-145" name="verse" number="3"><syllabic>end</syllabic><text font-size="10.8">zen</text></lyric><lyric default-y="-169" name="verse" number="4"><syllabic>end</syllabic><text font-size="10.8">gen</text></lyric><lyric default-y="-194" name="verse" number="5"><syllabic>begin</syllabic><text font-size="10.8">ver</text></lyric></note><harmony default-y="29" font-size="10" font-weight="bold"><root><root-step>G</root-step></root><kind halign="center" text="7sus">suspended-fourth</kind><degree print-object="no"><degree-value>7</degree-value><degree-alter>0</degree-alter><degree-type>add</degree-type></degree></harmony><note default-x="238"><pitch><step>D</step><octave>4</octave></pitch><duration>2</duration><voice>1</voice><type>quarter</type><stem default-y="-9">up</stem><lyric default-y="-95" name="verse" number="1"><syllabic>begin</syllabic><text font-size="10.8">neu</text></lyric><lyric default-y="-120" name="verse" number="2"><syllabic>begin</syllabic><text font-size="10.8">ma</text></lyric><lyric default-y="-145" name="verse" number="3"><syllabic>single</syllabic><text font-size="10.8">ganz</text></lyric><lyric default-y="-169" name="verse" number="4"><syllabic>begin</syllabic><text font-size="10.8">„Hei</text></lyric><lyric default-y="-194" name="verse" number="5"><syllabic>middle</syllabic><text font-size="10.8">lo</text></lyric></note><note default-x="303"><pitch><step>C</step><octave>4</octave></pitch><duration>2</duration><voice>1</voice><type>quarter</type><stem default-y="-14">up</stem><lyric default-y="-95" name="verse" number="1"><syllabic>end</syllabic><text font-size="10.8">es</text></lyric><lyric default-y="-120" name="verse" number="2"><syllabic>middle</syllabic><text font-size="10.8">kel</text></lyric><lyric default-y="-145" name="verse" number="3"><syllabic>begin</syllabic><text font-size="10.8">ent</text></lyric><lyric default-y="-169" name="verse" number="4"><syllabic>end</syllabic><text font-size="10.8">lig,</text></lyric><lyric default-y="-194" name="verse" number="5"><syllabic>end</syllabic><text font-size="10.8">ren</text></lyric></note></measure><!--=======================================================--><measure number="8" width="290"><harmony default-y="29" font-size="10" font-weight="bold"><root><root-step>C</root-step></root><kind halign="center" text="">major</kind></harmony><note default-x="22"><pitch><step>C</step><octave>4</octave></pitch><duration>6</duration><voice>1</voice><type>half</type><dot /><stem default-y="-14">up</stem><lyric default-y="-95" name="verse" number="1"><syllabic>single</syllabic><text font-size="10.8">Land.</text></lyric><lyric default-y="-120" name="verse" number="2"><syllabic>end</syllabic><text font-size="10.8">los.</text></lyric><lyric default-y="-145" name="verse" number="3"><syllabic>end</syllabic><text font-size="10.8">stellt.</text></lyric><lyric default-y="-169" name="verse" number="4"><syllabic>single</syllabic><text font-size="10.8">Herr.“</text></lyric><lyric default-y="-194" name="verse" number="5"><syllabic>single</syllabic><text font-size="10.8">gehn.</text></lyric></note><note default-x="140"><rest /><duration>2</duration><voice>1</voice><type>quarter</type></note><harmony default-y="29" font-size="10" font-weight="bold"><root><root-step>F</root-step></root><kind halign="center" text="">major</kind></harmony><note default-x="193"><rest /><duration>4</duration><voice>1</voice><type>half</type></note><direction placement="above"><direction-type><words default-x="284" default-y="12" font-style="italic" justify="right">Fine</words></direction-type><sound fine="yes" time-only="5" /></direction><barline location="right"><bar-style>light-light</bar-style></barline></measure><!--=======================================================--><measure number="9" width="321"><print new-system="yes"><system-layout><system-distance>268</system-distance></system-layout></print><harmony default-y="29" font-size="10" font-weight="bold"><root><root-step>C</root-step></root><kind halign="center" text="">major</kind><bass><bass-step>G</bass-step></bass></harmony><note default-x="61"><rest /><duration>4</duration><voice>1</voice><type>half</type></note><note default-x="146"><rest /><duration>4</duration><voice>1</voice><type>half</type></note><harmony default-y="29" font-size="10" font-weight="bold"><root><root-step>G</root-step></root><kind halign="center" text="7sus">suspended-fourth</kind><degree print-object="no"><degree-value>7</degree-value><degree-alter>0</degree-alter><degree-type>add</degree-type></degree></harmony><note default-x="232"><rest /><duration>4</duration><voice>1</voice><type>half</type></note></measure><!--=======================================================--><measure number="10" width="446"><barline location="left"><ending default-y="71" end-length="71" font-size="6.2" number="1, 2, 3, 4" type="start" /></barline><harmony default-y="29" font-size="10" font-weight="bold"><root><root-step>C</root-step></root><kind halign="center" text="">major</kind></harmony><note default-x="11"><rest /><duration>4</duration><voice>1</voice><type>half</type></note><note default-x="130"><rest /><duration>2</duration><voice>1</voice><type>quarter</type></note><note default-x="201"><pitch><step>C</step><octave>4</octave></pitch><duration>2</duration><voice>1</voice><type>quarter</type><stem default-y="-14">up</stem><lyric default-y="-95" name="verse" number="1"><syllabic>single</syllabic><text font-size="10.8">2.</text><elision> </elision><syllabic>single</syllabic><text font-size="10.8">Siehst</text></lyric><lyric default-y="-120" name="verse" number="2"><syllabic>single</syllabic><text font-size="10.8">3.</text><elision> </elision><syllabic>single</syllabic><text font-size="10.8">Siehst</text></lyric><lyric default-y="-145" name="verse" number="3"><syllabic>single</syllabic><text font-size="10.8">4.</text><elision> </elision><syllabic>single</syllabic><text font-size="10.8">Siehst</text></lyric></note><note default-x="279"><pitch><step>C</step><octave>4</octave></pitch><duration>2</duration><voice>1</voice><type>quarter</type><stem default-y="-14">up</stem><lyric default-y="-95" name="verse" number="1"><syllabic>single</syllabic><text font-size="10.8">du</text></lyric><lyric default-y="-120" name="verse" number="2"><syllabic>single</syllabic><text font-size="10.8">du</text></lyric><lyric default-y="-145" name="verse" number="3"><syllabic>single</syllabic><text font-size="10.8">du</text></lyric></note><note default-x="352"><pitch><step>D</step><octave>4</octave></pitch><duration>2</duration><voice>1</voice><type>quarter</type><stem default-y="-9">up</stem><lyric default-y="-95" name="verse" number="1"><syllabic>single</syllabic><text font-size="10.8">das</text></lyric><lyric default-y="-120" name="verse" number="2"><syllabic>single</syllabic><text font-size="10.8">das</text></lyric><lyric default-y="-145" name="verse" number="3"><syllabic>single</syllabic><text font-size="10.8">das</text></lyric></note><barline location="right"><bar-style>light-heavy</bar-style><ending number="1, 2, 3, 4" type="stop" /><repeat direction="backward" /></barline></measure><!--=======================================================--><measure number="11" width="385"><barline location="left"><ending default-y="71" end-length="71" font-size="6.2" number="5" type="start" /></barline><harmony default-y="29" font-size="10" font-weight="bold"><root><root-step>C</root-step></root><kind halign="center" text="">major</kind></harmony><note default-x="9"><rest /><duration>4</duration><voice>1</voice><type>half</type></note><note default-x="117"><rest /><duration>2</duration><voice>1</voice><type>quarter</type></note><note default-x="183"><pitch><step>C</step><octave>4</octave></pitch><duration>2</duration><voice>1</voice><type>quarter</type><stem default-y="-14">up</stem><lyric default-y="-95" name="verse" number="1"><syllabic>single</syllabic><text font-size="10.8">Wir</text></lyric></note><harmony default-y="29" font-size="10" font-weight="bold"><root><root-step>G</root-step></root><kind halign="center" text="">major</kind><bass><bass-step>F</bass-step></bass></harmony><note default-x="248"><pitch><step>E</step><octave>4</octave></pitch><duration>2</duration><voice>1</voice><type>quarter</type><stem default-y="-4">up</stem><lyric default-y="-95" name="verse" number="1"><syllabic>begin</syllabic><text font-size="10.8">be</text></lyric></note><note default-x="314"><pitch><step>G</step><octave>4</octave></pitch><duration>2</duration><voice>1</voice><type>quarter</type><stem default-y="6">up</stem><lyric default-y="-95" name="verse" number="1"><syllabic>end</syllabic><text font-size="10.8">ten</text></lyric></note><barline location="right"><bar-style>light-light</bar-style><ending number="5" type="discontinue" /></barline></measure><!--=======================================================--><measure number="12" width="389"><print new-system="yes"><system-layout><system-distance>184</system-distance></system-layout></print><harmony default-y="29" font-size="10" font-weight="bold"><root><root-step>C</root-step></root><kind halign="center" text="">major</kind><bass><bass-step>E</bass-step></bass></harmony><note default-x="53"><pitch><step>C</step><octave>5</octave></pitch><duration>6</duration><voice>1</voice><type>half</type><dot /><stem default-y="-51">down</stem><lyric default-y="-95" name="verse" number="1"><syllabic>single</syllabic><text font-size="10.8">an,</text></lyric></note><note default-x="193"><pitch><step>C</step><octave>5</octave></pitch><duration>2</duration><voice>1</voice><type>quarter</type><stem default-y="-51">down</stem><lyric default-y="-95" name="verse" number="1"><syllabic>single</syllabic><text font-size="10.8">wir</text></lyric></note><harmony default-y="29" font-size="10" font-weight="bold"><root><root-step>E</root-step></root><kind halign="center" use-symbols="yes">augmented</kind></harmony><note default-x="257"><pitch><step>C</step><octave>5</octave></pitch><duration>2</duration><voice>1</voice><type>quarter</type><stem default-y="-51">down</stem><lyric default-y="-95" name="verse" number="1"><syllabic>begin</syllabic><text font-size="10.8">be</text></lyric></note><note default-x="323"><pitch><step>B</step><octave>4</octave></pitch><duration>2</duration><voice>1</voice><type>quarter</type><stem default-y="-55.5">down</stem><lyric default-y="-95" name="verse" number="1"><syllabic>end</syllabic><text font-size="10.8">ten</text></lyric></note></measure><!--=======================================================--><measure number="13" width="370"><harmony default-y="29" font-size="10" font-weight="bold"><root><root-step>F</root-step></root><kind halign="center" text="">major</kind></harmony><note default-x="11"><pitch><step>A</step><octave>4</octave></pitch><duration>6</duration><voice>1</voice><type>half</type><dot /><stem default-y="10.5">up</stem><lyric default-y="-95" name="verse" number="1"><syllabic>single</syllabic><text font-size="10.8">an,</text></lyric></note><note default-x="160"><pitch><step>C</step><octave>4</octave></pitch><duration>2</duration><voice>1</voice><type>quarter</type><stem default-y="-14">up</stem><lyric default-y="-95" name="verse" number="1"><syllabic>single</syllabic><text font-size="10.8">wir</text></lyric></note><harmony default-y="29" font-size="10" font-weight="bold"><root><root-step>D</root-step></root><kind halign="center" text="7">dominant</kind><bass><bass-step>F</bass-step><bass-alter>1</bass-alter></bass></harmony><note default-x="229"><pitch><step>C</step><octave>4</octave></pitch><duration>2</duration><voice>1</voice><type>quarter</type><stem default-y="-14">up</stem><lyric default-y="-95" name="verse" number="1"><syllabic>begin</syllabic><text font-size="10.8">be</text></lyric></note><note default-x="299"><pitch><step>D</step><octave>4</octave></pitch><duration>2</duration><voice>1</voice><type>quarter</type><stem default-y="-9">up</stem><lyric default-y="-95" name="verse" number="1"><syllabic>end</syllabic><text font-size="10.8">ten</text></lyric></note></measure><!--=======================================================--><measure number="14" width="393"><harmony default-y="29" font-size="10" font-weight="bold"><root><root-step>C</root-step></root><kind halign="center" text="">major</kind><bass><bass-step>G</bass-step></bass></harmony><note default-x="15"><pitch><step>E</step><octave>4</octave></pitch><duration>6</duration><voice>1</voice><type>half</type><dot /><stem default-y="-4">up</stem><lyric default-y="-95" name="verse" number="1"><syllabic>single</syllabic><text font-size="10.8">an</text></lyric></note><note default-x="172"><pitch><step>C</step><octave>4</octave></pitch><duration>2</duration><voice>1</voice><type>quarter</type><stem default-y="-14">up</stem><lyric default-y="-95" name="verse" number="1"><syllabic>single</syllabic><text font-size="10.8">das</text></lyric></note><harmony default-y="29" font-size="10" font-weight="bold"><root><root-step>E</root-step></root><kind halign="center" text="7">dominant</kind><bass><bass-step>G</bass-step><bass-alter>1</bass-alter></bass></harmony><note default-x="245"><pitch><step>D</step><octave>4</octave></pitch><duration>2</duration><voice>1</voice><type>quarter</type><stem default-y="-9">up</stem><lyric default-y="-95" name="verse" number="1"><syllabic>begin</syllabic><text font-size="10.8">Got</text></lyric></note><note default-x="318"><pitch><step>C</step><octave>4</octave></pitch><duration>2</duration><voice>1</voice><type>quarter</type><stem default-y="-14">up</stem><lyric default-y="-95" name="verse" number="1"><syllabic>middle</syllabic><text font-size="10.8">tes</text></lyric></note></measure><!--=======================================================--><measure number="15" width="415"><print new-page="yes" page-number="2" /><harmony default-y="29" font-size="10" font-weight="bold"><root><root-step>A</root-step></root><kind halign="center" text="m">minor</kind></harmony><note default-x="62"><pitch><step>C</step><octave>4</octave></pitch><duration>6</duration><voice>1</voice><type>half</type><dot /><stem default-y="-14">up</stem><lyric default-y="-95" name="verse" number="1"><syllabic>end</syllabic><text font-size="10.8">lamm.</text></lyric></note><note default-x="208"><pitch><step>C</step><octave>4</octave></pitch><duration>2</duration><voice>1</voice><type>quarter</type><stem default-y="-14">up</stem><lyric default-y="-95" name="verse" number="1"><syllabic>single</syllabic><text font-size="10.8">Wir</text></lyric></note><harmony default-y="29" font-size="10" font-weight="bold"><root><root-step>G</root-step></root><kind halign="center" text="">major</kind><bass><bass-step>F</bass-step></bass></harmony><note default-x="277"><pitch><step>E</step><octave>4</octave></pitch><duration>2</duration><voice>1</voice><type>quarter</type><stem default-y="-4">up</stem><lyric default-y="-95" name="verse" number="1"><syllabic>begin</syllabic><text font-size="10.8">be</text></lyric></note><note default-x="345"><pitch><step>G</step><octave>4</octave></pitch><duration>2</duration><voice>1</voice><type>quarter</type><stem default-y="6">up</stem><lyric default-y="-95" name="verse" number="1"><syllabic>end</syllabic><text font-size="10.8">ten</text></lyric></note></measure><!--=======================================================--><measure number="16" width="359"><harmony default-y="29" font-size="10" font-weight="bold"><root><root-step>C</root-step></root><kind halign="center" text="">major</kind><bass><bass-step>E</bass-step></bass></harmony><note default-x="16"><pitch><step>C</step><octave>5</octave></pitch><duration>6</duration><voice>1</voice><type>half</type><dot /><stem default-y="-51">down</stem><lyric default-y="-95" name="verse" number="1"><syllabic>single</syllabic><text font-size="10.8">an,</text></lyric></note><note default-x="158"><pitch><step>C</step><octave>5</octave></pitch><duration>2</duration><voice>1</voice><type>quarter</type><stem default-y="-51">down</stem><lyric default-y="-95" name="verse" number="1"><syllabic>single</syllabic><text font-size="10.8">wir</text></lyric></note><harmony default-y="29" font-size="10" font-weight="bold"><root><root-step>E</root-step></root><kind halign="center" use-symbols="yes">augmented</kind></harmony><note default-x="224"><pitch><step>C</step><octave>5</octave></pitch><duration>2</duration><voice>1</voice><type>quarter</type><stem default-y="-51">down</stem><lyric default-y="-95" name="verse" number="1"><syllabic>begin</syllabic><text font-size="10.8">be</text></lyric></note><note default-x="291"><pitch><step>B</step><octave>4</octave></pitch><duration>2</duration><voice>1</voice><type>quarter</type><stem default-y="-55.5">down</stem><lyric default-y="-95" name="verse" number="1"><syllabic>end</syllabic><text font-size="10.8">ten</text></lyric></note></measure><!--=======================================================--><measure number="17" width="378"><harmony default-y="29" font-size="10" font-weight="bold"><root><root-step>F</root-step></root><kind halign="center" text="">major</kind></harmony><note default-x="11"><pitch><step>A</step><octave>4</octave></pitch><duration>6</duration><voice>1</voice><type>half</type><dot /><stem default-y="11">up</stem><lyric default-y="-95" name="verse" number="1"><syllabic>single</syllabic><text font-size="10.8">an,</text></lyric></note><note default-x="163"><pitch><step>C</step><octave>4</octave></pitch><duration>2</duration><voice>1</voice><type>quarter</type><stem default-y="-14">up</stem><lyric default-y="-95" name="verse" number="1"><syllabic>single</syllabic><text font-size="10.8">wir</text></lyric></note><harmony default-y="29" font-size="10" font-weight="bold"><root><root-step>D</root-step></root><kind halign="center" text="7">dominant</kind><bass><bass-step>F</bass-step><bass-alter>1</bass-alter></bass></harmony><note default-x="235"><pitch><step>C</step><octave>4</octave></pitch><duration>2</duration><voice>1</voice><type>quarter</type><stem default-y="-14">up</stem><lyric default-y="-95" name="verse" number="1"><syllabic>begin</syllabic><text font-size="10.8">be</text></lyric></note><note default-x="306"><pitch><step>D</step><octave>4</octave></pitch><duration>2</duration><voice>1</voice><type>quarter</type><stem default-y="-9">up</stem><lyric default-y="-95" name="verse" number="1"><syllabic>end</syllabic><text font-size="10.8">ten</text></lyric></note></measure><!--=======================================================--><measure number="18" width="407"><print new-system="yes"><system-layout><system-distance>184</system-distance></system-layout></print><harmony default-y="29" font-size="10" font-weight="bold"><root><root-step>C</root-step></root><kind halign="center" text="">major</kind><bass><bass-step>G</bass-step></bass></harmony><note default-x="53"><pitch><step>E</step><octave>4</octave></pitch><duration>6</duration><voice>1</voice><type>half</type><dot /><stem default-y="-4">up</stem><lyric default-y="-95" name="verse" number="1"><syllabic>single</syllabic><text font-size="10.8">an</text></lyric></note><note default-x="200"><pitch><step>C</step><octave>4</octave></pitch><duration>2</duration><voice>1</voice><type>quarter</type><stem default-y="-14">up</stem><lyric default-y="-95" name="verse" number="1"><syllabic>single</syllabic><text font-size="10.8">das</text></lyric></note><harmony default-y="29" font-size="10" font-weight="bold"><root><root-step>G</root-step></root><kind halign="center" text="7sus">suspended-fourth</kind><degree print-object="no"><degree-value>7</degree-value><degree-alter>0</degree-alter><degree-type>add</degree-type></degree></harmony><note default-x="269"><pitch><step>D</step><octave>4</octave></pitch><duration>2</duration><voice>1</voice><type>quarter</type><stem default-y="-9">up</stem><lyric default-y="-95" name="verse" number="1"><syllabic>begin</syllabic><text font-size="10.8">Got</text></lyric></note><note default-x="337"><pitch><step>C</step><octave>4</octave></pitch><duration>2</duration><voice>1</voice><type>quarter</type><stem default-y="-14">up</stem><lyric default-y="-95" name="verse" number="1"><syllabic>middle</syllabic><text font-size="10.8">tes</text></lyric></note></measure><!--=======================================================--><measure number="19" width="319"><harmony default-y="29" font-size="10" font-weight="bold"><root><root-step>C</root-step></root><kind halign="center" text="">major</kind></harmony><note default-x="24"><pitch><step>C</step><octave>4</octave></pitch><duration>6</duration><voice>1</voice><type>half</type><dot /><stem default-y="-14">up</stem><lyric default-y="-95" name="verse" number="1"><syllabic>end</syllabic><text font-size="10.8">lamm.</text></lyric></note><note default-x="156"><rest /><duration>2</duration><voice>1</voice><type>quarter</type></note><note default-x="216"><rest /><duration>4</duration><voice>1</voice><type>half</type></note></measure><!--=======================================================--><measure number="20" width="426"><note default-x="10"><rest /><duration>4</duration><voice>1</voice><type>half</type></note><note default-x="127"><rest /><duration>2</duration><voice>1</voice><type>quarter</type></note><note default-x="198"><pitch><step>C</step><octave>4</octave></pitch><duration>2</duration><voice>1</voice><type>quarter</type><stem default-y="-14">up</stem><lyric default-y="-95" name="verse" number="1"><syllabic>single</syllabic><text font-size="10.8">5.</text><elision> </elision><syllabic>single</syllabic><text font-size="10.8">Siehst</text></lyric></note><note default-x="275"><pitch><step>C</step><octave>4</octave></pitch><duration>2</duration><voice>1</voice><type>quarter</type><stem default-y="-14">up</stem><lyric default-y="-95" name="verse" number="1"><syllabic>single</syllabic><text font-size="10.8">du</text></lyric></note><note default-x="347"><pitch><step>D</step><octave>4</octave></pitch><duration>2</duration><voice>1</voice><type>quarter</type><stem default-y="-9">up</stem><lyric default-y="-95" name="verse" number="1"><syllabic>single</syllabic><text font-size="10.8">das</text></lyric></note><direction placement="above"><direction-type><words default-x="406" default-y="10" font-style="italic" justify="right">D.S. al Fine</words></direction-type><sound dalsegno="2" /></direction><barline location="right"><bar-style>light-light</bar-style></barline></measure></part><!--=========================================================--></score-partwise>