<?xml version="1.0" encoding="UTF-8" standalone="no"?><!DOCTYPE score-partwise PUBLIC "-//Recordare//DTD MusicXML 3.0 Partwise//EN" "http://www.musicxml.org/dtds/partwise.dtd"[]><score-partwise version="3.0"><movement-title>Starker Turm Auge im Sturm</movement-title><identification><creator type="composer">Martin Pepper</creator><encoding><software>Finale 2014 for Windows</software><software>Dolet Light for Finale 2014</software><encoding-date>2016-11-17</encoding-date><supports attribute="new-system" element="print" type="yes" value="yes" /><supports attribute="new-page" element="print" type="yes" value="yes" /><supports element="accidental" type="yes" /><supports element="beam" type="yes" /><supports element="stem" type="yes" /></encoding><rights>CCLI-Liednummer 5225497
© 1997 mc-peppersongs
Nutzung ausschließlich im Rahmen der SongSelect®-Nutzungsbedingungen. Alle Rechte vorbehalten. www.ccli.com
CCLI-Lizenznummer 2182334
</rights></identification><defaults><scaling><millimeters>6.5088</millimeters><tenths>40</tenths></scaling><page-layout><page-height>1717</page-height><page-width>1327</page-width><page-margins type="both"><left-margin>78</left-margin><right-margin>78</right-margin><top-margin>78</top-margin><bottom-margin>78</bottom-margin></page-margins></page-layout><system-layout><system-margins><left-margin>0</left-margin><right-margin>0</right-margin></system-margins><system-distance>190</system-distance><top-system-distance>117</top-system-distance></system-layout><appearance><line-width type="stem">1.4583</line-width><line-width type="beam">5</line-width><line-width type="staff">1.25</line-width><line-width type="light barline">1.4583</line-width><line-width type="heavy barline">5</line-width><line-width type="leger">1.875</line-width><line-width type="ending">1.4583</line-width><line-width type="wedge">1.4583</line-width><line-width type="enclosure">1.4583</line-width><line-width type="tuplet bracket">1.4583</line-width><note-size type="grace">50</note-size><note-size type="cue">50</note-size><distance type="hyphen">240</distance><distance type="beam">8</distance></appearance><music-font font-family="Maestro,engraved" font-size="18.5" /><word-font font-family="Arial" font-size="9.2" /><lyric-font font-family="Arial" font-size="10.8" name="verse" /><lyric-font font-family="Arial" font-size="10.8" name="section" /></defaults><credit page="1"><credit-type>title</credit-type><credit-words default-x="663" default-y="1649" font-size="21.6" font-weight="bold" justify="center" valign="top">Starker Turm Auge im Sturm</credit-words></credit><credit page="1"><credit-words default-x="1249" default-y="1576" font-size="10.8" font-style="italic" justify="right" valign="top">Text und Musik:</credit-words></credit><credit page="1"><credit-type>composer</credit-type><credit-words default-x="1249" default-y="1552" font-size="10.8" font-weight="bold" justify="right" valign="top">Martin Pepper</credit-words></credit><credit page="2"><credit-type>title</credit-type><credit-type>page number</credit-type><credit-words default-x="663" default-y="1663" font-size="10.8" justify="center" valign="top">Starker Turm Auge im Sturm - 2</credit-words></credit><part-list><score-part id="P1"><part-name print-object="no">Vocals</part-name><score-instrument id="P1-I2"><instrument-name>Melody</instrument-name></score-instrument><midi-instrument id="P1-I2"><midi-channel>1</midi-channel><midi-program>1</midi-program><volume>80</volume><pan>0</pan></midi-instrument></score-part></part-list><!--=========================================================--><part id="P1"><measure number="1" width="360"><print page-number="1"><page-layout><page-height>1717</page-height><page-width>1327</page-width><page-margins><left-margin>78</left-margin><right-margin>78</right-margin><top-margin>190</top-margin><bottom-margin>163</bottom-margin></page-margins></page-layout><system-layout><system-margins><left-margin>68</left-margin><right-margin>0</right-margin></system-margins></system-layout><measure-numbering>system</measure-numbering></print><attributes><divisions>2</divisions><key><fifths>-1</fifths><mode>major</mode></key><time><beats>4</beats><beat-type>4</beat-type></time><clef><sign>G</sign><line>2</line></clef></attributes><sound tempo="96" /><harmony default-y="36" font-size="10" font-weight="bold"><root><root-step>F</root-step></root><kind halign="center" text="">major</kind></harmony><direction placement="above"><direction-type><rehearsal default-y="69" font-weight="bold" relative-x="-34">VERS</rehearsal></direction-type></direction><note default-x="143"><pitch><step>A</step><octave>4</octave></pitch><duration>6</duration><voice>1</voice><type>half</type><dot /><stem default-y="7">up</stem><lyric default-y="-91" name="verse" number="1"><syllabic>single</syllabic><text font-size="10.8">1.</text><elision> </elision><syllabic>single</syllabic><text font-size="10.8">Herr,</text><elision> </elision><syllabic>single</syllabic><text font-size="10.8" /><elision> </elision><syllabic>single</syllabic><text font-size="10.8" /><elision> </elision><syllabic>single</syllabic><text font-size="10.8" /><elision> </elision><syllabic>single</syllabic><text font-size="10.8" /></lyric><lyric default-y="-115" name="verse" number="2"><syllabic>single</syllabic><text font-size="10.8">2.</text><elision> </elision><syllabic>single</syllabic><text font-size="10.8">Herr,</text><elision> </elision><syllabic>single</syllabic><text font-size="10.8" /><elision> </elision><syllabic>single</syllabic><text font-size="10.8" /><elision> </elision><syllabic>single</syllabic><text font-size="10.8" /><elision> </elision><syllabic>single</syllabic><text font-size="10.8" /></lyric></note><note default-x="280"><rest /><duration>1</duration><voice>1</voice><type>eighth</type></note><note default-x="319"><pitch><step>F</step><octave>4</octave></pitch><duration>1</duration><voice>1</voice><type>eighth</type><stem default-y="-3">up</stem><lyric default-y="-91" name="verse" number="1"><syllabic>single</syllabic><text font-size="10.8">ich</text></lyric><lyric default-y="-115" name="verse" number="2"><syllabic>single</syllabic><text font-size="10.8">ich</text></lyric></note></measure><!--=======================================================--><measure number="2" width="383"><harmony default-y="36" font-size="10" font-weight="bold"><root><root-step>C</root-step></root><kind halign="center" text="">major</kind><bass><bass-step>E</bass-step></bass></harmony><note default-x="16"><pitch><step>G</step><octave>4</octave></pitch><duration>2</duration><voice>1</voice><type>quarter</type><stem default-y="2">up</stem><lyric default-y="-91" name="verse" number="1"><syllabic>begin</syllabic><text font-size="10.8">su</text></lyric><lyric default-y="-115" name="verse" number="2"><syllabic>begin</syllabic><text font-size="10.8">su</text></lyric></note><note default-x="95"><pitch><step>F</step><octave>4</octave></pitch><duration>1</duration><voice>1</voice><type>eighth</type><stem default-y="-4">up</stem><beam number="1">begin</beam><lyric default-y="-91" name="verse" number="1"><syllabic>end</syllabic><text font-size="10.8">che</text></lyric><lyric default-y="-115" name="verse" number="2"><syllabic>end</syllabic><text font-size="10.8">che</text></lyric></note><note default-x="149"><pitch><step>G</step><octave>4</octave></pitch><duration>1</duration><tie type="start" /><voice>1</voice><type>eighth</type><stem default-y="1">up</stem><beam number="1">end</beam><notations><tied type="start" /></notations><lyric default-y="-91" name="verse" number="1"><syllabic>begin</syllabic><text font-size="10.8">Dei</text></lyric><lyric default-y="-115" name="verse" number="2"><syllabic>begin</syllabic><text font-size="10.8">Dei</text></lyric></note><note default-x="198"><pitch><step>G</step><octave>4</octave></pitch><duration>1</duration><tie type="stop" /><voice>1</voice><type>eighth</type><stem default-y="2">up</stem><notations><tied type="stop" /></notations></note><note default-x="249"><pitch><step>A</step><octave>4</octave></pitch><duration>2</duration><voice>1</voice><type>quarter</type><stem default-y="7">up</stem><lyric default-y="-91" name="verse" number="1"><syllabic>end</syllabic><text font-size="10.8">ne</text></lyric><lyric default-y="-115" name="verse" number="2"><syllabic>end</syllabic><text font-size="10.8">nen</text></lyric></note><note default-x="330"><pitch><step>F</step><octave>4</octave></pitch><duration>1</duration><tie type="start" /><voice>1</voice><type>eighth</type><stem default-y="-3">up</stem><notations><tied type="start" /></notations><lyric default-y="-91" name="verse" number="1"><syllabic>begin</syllabic><text font-size="10.8">Ru</text></lyric><lyric default-y="-115" name="verse" number="2"><syllabic>begin</syllabic><text font-size="10.8">Frie</text></lyric></note></measure><!--=======================================================--><measure number="3" width="205"><harmony default-y="36" font-size="10" font-weight="bold"><root><root-step>D</root-step></root><kind halign="center" text="m7">minor-seventh</kind></harmony><note default-x="27"><pitch><step>F</step><octave>4</octave></pitch><duration>2</duration><tie type="stop" /><voice>1</voice><type>quarter</type><stem default-y="-3">up</stem><notations><tied type="stop" /></notations></note><note default-x="83"><pitch><step>D</step><octave>4</octave></pitch><duration>6</duration><voice>1</voice><type>half</type><dot /><stem default-y="-13">up</stem><lyric default-y="-91" name="verse" number="1"><syllabic>end</syllabic><text font-size="10.8">he</text></lyric><lyric default-y="-115" name="verse" number="2"><syllabic>end</syllabic><text font-size="10.8">den,</text></lyric></note></measure><!--=======================================================--><measure number="4" width="155"><note default-x="68"><rest /><duration>8</duration><voice>1</voice><type>whole</type></note></measure><!--=======================================================--><measure number="5" width="365"><print new-system="yes"><system-layout><system-distance>180</system-distance></system-layout></print><harmony default-y="36" font-size="10" font-weight="bold"><root><root-step>F</root-step></root><kind halign="center" text="">major</kind></harmony><note default-x="78"><pitch><step>A</step><octave>4</octave></pitch><duration>4</duration><voice>1</voice><type>half</type><stem default-y="7">up</stem><lyric default-y="-91" name="verse" number="1"><syllabic>single</syllabic><text font-size="10.8">fern</text></lyric><lyric default-y="-115" name="verse" number="2"><syllabic>single</syllabic><text font-size="10.8">das,</text></lyric></note><note default-x="182"><pitch><step>A</step><octave>4</octave></pitch><duration>2</duration><voice>1</voice><type>quarter</type><stem default-y="7">up</stem><lyric default-y="-91" name="verse" number="1"><syllabic>single</syllabic><text font-size="10.8">vom</text></lyric><lyric default-y="-115" name="verse" number="2"><syllabic>single</syllabic><text font-size="10.8">was</text></lyric></note><note default-x="253"><pitch><step>F</step><octave>4</octave></pitch><duration>1</duration><voice>1</voice><type>eighth</type><stem default-y="-4">up</stem><beam number="1">begin</beam><lyric default-y="-91" name="verse" number="1"><syllabic>begin</syllabic><text font-size="10.8">Ge</text></lyric><lyric default-y="-115" name="verse" number="2"><syllabic>single</syllabic><text font-size="10.8">die</text></lyric></note><note default-x="311"><pitch><step>G</step><octave>4</octave></pitch><duration>1</duration><tie type="start" /><voice>1</voice><type>eighth</type><stem default-y="1">up</stem><beam number="1">end</beam><notations><tied type="start" /></notations><lyric default-y="-91" name="verse" number="1"><syllabic>middle</syllabic><text font-size="10.8">tö</text></lyric><lyric default-y="-115" name="verse" number="2"><syllabic>single</syllabic><text font-size="10.8">Welt</text><extend type="start" /></lyric></note></measure><!--=======================================================--><measure number="6" width="377"><harmony default-y="36" font-size="10" font-weight="bold"><root><root-step>C</root-step></root><kind halign="center" text="">major</kind><bass><bass-step>E</bass-step></bass></harmony><note default-x="15"><pitch><step>G</step><octave>4</octave></pitch><duration>2</duration><tie type="stop" /><voice>1</voice><type>quarter</type><stem default-y="2">up</stem><notations><tied type="stop" /></notations><lyric name="verse" number="2"><extend type="stop" /></lyric></note><note default-x="82"><pitch><step>F</step><octave>4</octave></pitch><duration>1</duration><voice>1</voice><type>eighth</type><stem default-y="-4">up</stem><beam number="1">begin</beam><lyric default-y="-91" name="verse" number="1"><syllabic>end</syllabic><text font-size="10.8">se</text></lyric><lyric default-y="-115" name="verse" number="2"><syllabic>single</syllabic><text font-size="10.8">nicht</text></lyric></note><note default-x="143"><pitch><step>G</step><octave>4</octave></pitch><duration>1</duration><tie type="start" /><voice>1</voice><type>eighth</type><stem default-y="1">up</stem><beam number="1">end</beam><notations><tied type="start" /></notations><lyric default-y="-91" name="verse" number="1"><syllabic>begin</syllabic><text font-size="10.8">die</text></lyric><lyric default-y="-115" name="verse" number="2"><syllabic>begin</syllabic><text font-size="10.8">ge</text></lyric></note><note default-x="187"><pitch><step>G</step><octave>4</octave></pitch><duration>2</duration><tie type="stop" /><voice>1</voice><type>quarter</type><stem default-y="2">up</stem><notations><tied type="stop" /></notations></note><note default-x="253"><pitch><step>A</step><octave>4</octave></pitch><duration>1</duration><voice>1</voice><type>eighth</type><stem default-y="6.5">up</stem><beam number="1">begin</beam><lyric default-y="-91" name="verse" number="1"><syllabic>end</syllabic><text font-size="10.8">ser</text></lyric><lyric default-y="-115" name="verse" number="2"><syllabic>end</syllabic><text font-size="10.8">ben</text></lyric></note><note default-x="318"><pitch><step>G</step><octave>4</octave></pitch><duration>1</duration><tie type="start" /><voice>1</voice><type>eighth</type><stem default-y="1">up</stem><beam number="1">end</beam><notations><tied type="start" /><slur number="1" placement="below" type="start" /></notations><lyric default-y="-91" name="verse" number="1"><syllabic>single</syllabic><text font-size="10.8">Welt!</text><extend type="start" /></lyric><lyric default-y="-115" name="verse" number="2"><syllabic>single</syllabic><text font-size="10.8">kann,</text><extend type="start" /></lyric></note></measure><!--=======================================================--><measure number="7" width="195"><harmony default-y="36" font-size="10" font-weight="bold"><root><root-step>D</root-step></root><kind halign="center" text="m7">minor-seventh</kind></harmony><note default-x="27"><pitch><step>G</step><octave>4</octave></pitch><duration>2</duration><tie type="stop" /><voice>1</voice><type>quarter</type><stem default-y="2">up</stem><notations><tied type="stop" /></notations></note><note default-x="80"><pitch><step>F</step><octave>4</octave></pitch><duration>6</duration><voice>1</voice><type>half</type><dot /><stem default-y="-2.5">up</stem><notations><slur number="1" type="stop" /></notations><lyric name="verse" number="1"><extend type="stop" /></lyric><lyric name="verse" number="2"><extend type="stop" /></lyric></note></measure><!--=======================================================--><measure number="8" width="234"><note default-x="10"><rest /><duration>4</duration><voice>1</voice><type>half</type></note><note default-x="102"><rest /><duration>2</duration><voice>1</voice><type>quarter</type></note><note default-x="157"><rest /><duration>1</duration><voice>1</voice><type>eighth</type></note><note default-x="191"><pitch><step>C</step><octave>4</octave></pitch><duration>1</duration><voice>1</voice><type>eighth</type><stem default-y="-18">up</stem><lyric default-y="-91" name="verse" number="1"><syllabic>single</syllabic><text font-size="10.8">Ich</text></lyric><lyric default-y="-115" name="verse" number="2"><syllabic>single</syllabic><text font-size="10.8">in</text></lyric></note></measure><!--=======================================================--><measure number="9" width="379"><print new-system="yes"><system-layout><system-distance>180</system-distance></system-layout></print><harmony default-y="36" font-size="10" font-weight="bold"><root><root-step>F</root-step></root><kind halign="center" text="">major</kind></harmony><note default-x="73"><pitch><step>A</step><octave>4</octave></pitch><duration>2</duration><voice>1</voice><type>quarter</type><stem default-y="7">up</stem><lyric default-y="-91" name="verse" number="1"><syllabic>single</syllabic><text font-size="10.8">hör</text></lyric><lyric default-y="-115" name="verse" number="2"><syllabic>begin</syllabic><text font-size="10.8">Har</text></lyric></note><note default-x="147"><pitch><step>A</step><octave>4</octave></pitch><duration>1</duration><voice>1</voice><type>eighth</type><stem default-y="6.5">up</stem><beam number="1">begin</beam><lyric default-y="-91" name="verse" number="1"><syllabic>single</syllabic><text font-size="10.8">jetzt</text></lyric><lyric default-y="-115" name="verse" number="2"><syllabic>middle</syllabic><text font-size="10.8">mo</text></lyric></note><note default-x="204"><pitch><step>A</step><octave>4</octave></pitch><duration>1</duration><tie type="start" /><voice>1</voice><type>eighth</type><stem default-y="6.5">up</stem><beam number="1">end</beam><notations><tied type="start" /></notations><lyric default-y="-91" name="verse" number="1"><syllabic>single</syllabic><text font-size="10.8">auf</text><extend type="start" /></lyric><lyric default-y="-115" name="verse" number="2"><syllabic>end</syllabic><text font-size="10.8">nie</text><extend type="start" /></lyric></note><note default-x="245"><pitch><step>A</step><octave>4</octave></pitch><duration>3</duration><tie type="stop" /><voice>1</voice><type>quarter</type><dot /><stem default-y="7">up</stem><notations><tied type="stop" /></notations><lyric name="verse" number="1"><extend type="stop" /></lyric><lyric name="verse" number="2"><extend type="stop" /></lyric></note><note default-x="328"><pitch><step>F</step><octave>4</octave></pitch><duration>1</duration><voice>1</voice><type>eighth</type><stem default-y="-3">up</stem><lyric default-y="-91" name="verse" number="1"><syllabic>single</syllabic><text font-size="10.8">mit</text></lyric><lyric default-y="-115" name="verse" number="2"><syllabic>single</syllabic><text font-size="10.8">und</text></lyric></note></measure><!--=======================================================--><measure number="10" width="353"><harmony default-y="36" font-size="10" font-weight="bold"><root><root-step>C</root-step></root><kind halign="center" text="">major</kind><bass><bass-step>E</bass-step></bass></harmony><note default-x="15"><pitch><step>G</step><octave>4</octave></pitch><duration>2</duration><voice>1</voice><type>quarter</type><stem default-y="2">up</stem><lyric default-y="-91" name="verse" number="1"><syllabic>begin</syllabic><text font-size="10.8">al</text></lyric><lyric default-y="-115" name="verse" number="2"><syllabic>single</syllabic><text font-size="10.8">tief</text></lyric></note><note default-x="88"><pitch><step>F</step><octave>4</octave></pitch><duration>1</duration><voice>1</voice><type>eighth</type><stem default-y="-3">up</stem><beam number="1">begin</beam><lyric default-y="-91" name="verse" number="1"><syllabic>end</syllabic><text font-size="10.8">lem,</text></lyric><lyric default-y="-115" name="verse" number="2"><syllabic>begin</syllabic><text font-size="10.8">ver</text></lyric></note><note default-x="155"><pitch><step>G</step><octave>4</octave></pitch><duration>1</duration><tie type="start" /><voice>1</voice><type>eighth</type><stem default-y="1.5">up</stem><beam number="1">end</beam><notations><tied type="start" /></notations><lyric default-y="-91" name="verse" number="1"><syllabic>single</syllabic><text font-size="10.8">was</text><extend type="start" /></lyric><lyric default-y="-115" name="verse" number="2"><syllabic>end</syllabic><text font-size="10.8">söhnt</text><extend type="start" /></lyric></note><note default-x="197"><pitch><step>G</step><octave>4</octave></pitch><duration>2</duration><tie type="stop" /><voice>1</voice><type>quarter</type><stem default-y="2">up</stem><notations><tied type="stop" /></notations><lyric name="verse" number="1"><extend type="stop" /></lyric><lyric name="verse" number="2"><extend type="stop" /></lyric></note><note default-x="258"><pitch><step>A</step><octave>4</octave></pitch><duration>1</duration><voice>1</voice><type>eighth</type><stem default-y="6.5">up</stem><beam number="1">begin</beam><lyric default-y="-91" name="verse" number="1"><syllabic>single</syllabic><text font-size="10.8">ich</text></lyric><lyric default-y="-115" name="verse" number="2"><syllabic>single</syllabic><text font-size="10.8">zu</text></lyric></note><note default-x="308"><pitch><step>F</step><octave>4</octave></pitch><duration>1</duration><tie type="start" /><voice>1</voice><type>eighth</type><stem default-y="1.5">up</stem><beam number="1">end</beam><notations><tied type="start" /></notations><lyric default-y="-91" name="verse" number="1"><syllabic>begin</syllabic><text font-size="10.8">tu</text></lyric><lyric default-y="-115" name="verse" number="2"><syllabic>begin</syllabic><text font-size="10.8">le</text></lyric></note></measure><!--=======================================================--><measure number="11" width="194"><harmony default-y="36" font-size="10" font-weight="bold"><root><root-step>D</root-step></root><kind halign="center" text="m7">minor-seventh</kind></harmony><note default-x="27"><pitch><step>F</step><octave>4</octave></pitch><duration>2</duration><tie type="stop" /><voice>1</voice><type>quarter</type><stem default-y="-3">up</stem><notations><tied type="stop" /></notations></note><note default-x="79"><pitch><step>D</step><octave>4</octave></pitch><duration>6</duration><voice>1</voice><type>half</type><dot /><stem default-y="-13">up</stem><lyric default-y="-91" name="verse" number="1"><syllabic>end</syllabic><text font-size="10.8">e</text></lyric><lyric default-y="-115" name="verse" number="2"><syllabic>end</syllabic><text font-size="10.8">ben,</text></lyric></note></measure><!--=======================================================--><measure number="12" width="244"><note default-x="11"><rest /><duration>4</duration><voice>1</voice><type>half</type></note><note default-x="102"><rest /><duration>2</duration><voice>1</voice><type>quarter</type></note><note default-x="157"><rest /><duration>1</duration><voice>1</voice><type>eighth</type></note><note default-x="192"><pitch><step>C</step><octave>4</octave></pitch><duration>1</duration><voice>1</voice><type>eighth</type><stem default-y="-18">up</stem><lyric default-y="-91" name="verse" number="1"><syllabic>single</syllabic><text font-size="10.8">und</text></lyric><lyric default-y="-115" name="verse" number="2"><syllabic>single</syllabic><text font-size="10.8">denn</text></lyric></note></measure><!--=======================================================--><measure number="13" width="420"><print new-system="yes"><system-layout><system-distance>180</system-distance></system-layout></print><harmony default-y="36" font-size="10" font-weight="bold"><root><root-step>F</root-step></root><kind halign="center" text="">major</kind></harmony><note default-x="74"><pitch><step>A</step><octave>4</octave></pitch><duration>2</duration><voice>1</voice><type>quarter</type><stem default-y="7">up</stem><lyric default-y="-91" name="verse" number="1"><syllabic>single</syllabic><text font-size="10.8">tu’</text></lyric><lyric default-y="-115" name="verse" number="2"><syllabic>single</syllabic><text font-size="10.8">das</text></lyric></note><note default-x="149"><pitch><step>A</step><octave>4</octave></pitch><duration>1</duration><voice>1</voice><type>eighth</type><stem default-y="6">up</stem><beam number="1">begin</beam><lyric default-y="-91" name="verse" number="1"><syllabic>single</syllabic><text font-size="10.8">das</text></lyric><lyric default-y="-115" name="verse" number="2"><syllabic>single</syllabic><text font-size="10.8">fängt</text></lyric></note><note default-x="213"><pitch><step>A</step><octave>4</octave></pitch><duration>1</duration><tie type="start" /><voice>1</voice><type>eighth</type><stem default-y="6">up</stem><beam number="1">end</beam><notations><tied type="start" /></notations><lyric default-y="-91" name="verse" number="1"><syllabic>begin</syllabic><text font-size="10.8">ei</text></lyric><lyric default-y="-115" name="verse" number="2"><syllabic>single</syllabic><text font-size="10.8">erst</text><extend type="start" /></lyric></note><note default-x="253"><pitch><step>A</step><octave>4</octave></pitch><duration>2</duration><tie type="stop" /><voice>1</voice><type>quarter</type><stem default-y="7">up</stem><notations><tied type="stop" /></notations><lyric name="verse" number="2"><extend type="stop" /></lyric></note><note default-x="313"><pitch><step>F</step><octave>4</octave></pitch><duration>1</duration><voice>1</voice><type>eighth</type><stem default-y="-3.5">up</stem><beam number="1">begin</beam><lyric default-y="-91" name="verse" number="1"><syllabic>end</syllabic><text font-size="10.8">ne,</text></lyric><lyric default-y="-115" name="verse" number="2"><syllabic>single</syllabic><text font-size="10.8">in</text></lyric></note><note default-x="369"><pitch><step>G</step><octave>4</octave></pitch><duration>1</duration><tie type="start" /><voice>1</voice><type>eighth</type><stem default-y="1.5">up</stem><beam number="1">end</beam><notations><tied type="start" /></notations><lyric default-y="-91" name="verse" number="1"><syllabic>single</syllabic><text font-size="10.8">das</text><extend type="start" /></lyric><lyric default-y="-115" name="verse" number="2"><syllabic>begin</syllabic><text font-size="10.8">Dei</text></lyric></note></measure><!--=======================================================--><measure number="14" width="346"><harmony default-y="36" font-size="10" font-weight="bold"><root><root-step>C</root-step></root><kind halign="center" text="">major</kind><bass><bass-step>E</bass-step></bass></harmony><note default-x="15"><pitch><step>G</step><octave>4</octave></pitch><duration>2</duration><tie type="stop" /><voice>1</voice><type>quarter</type><stem default-y="2">up</stem><notations><tied type="stop" /></notations><lyric name="verse" number="1"><extend type="stop" /></lyric></note><note default-x="73"><pitch><step>F</step><octave>4</octave></pitch><duration>1</duration><voice>1</voice><type>eighth</type><stem default-y="-3.5">up</stem><beam number="1">begin</beam><lyric default-y="-91" name="verse" number="1"><syllabic>single</syllabic><text font-size="10.8">im</text></lyric><lyric default-y="-115" name="verse" number="2"><syllabic>end</syllabic><text font-size="10.8">ner</text></lyric></note><note default-x="127"><pitch><step>G</step><octave>4</octave></pitch><duration>1</duration><tie type="start" /><voice>1</voice><type>eighth</type><stem default-y="1.5">up</stem><beam number="1">end</beam><notations><tied type="start" /></notations><lyric default-y="-91" name="verse" number="1"><syllabic>begin</syllabic><text font-size="10.8">Le</text></lyric><lyric default-y="-115" name="verse" number="2"><syllabic>begin</syllabic><text font-size="10.8">Nä</text></lyric></note><note default-x="166"><pitch><step>G</step><octave>4</octave></pitch><duration>2</duration><tie type="stop" /><voice>1</voice><type>quarter</type><stem default-y="2">up</stem><notations><tied type="stop" /></notations></note><note default-x="224"><pitch><step>A</step><octave>4</octave></pitch><duration>1</duration><voice>1</voice><type>eighth</type><stem default-y="6">up</stem><beam number="1">begin</beam><lyric default-y="-91" name="verse" number="1"><syllabic>end</syllabic><text font-size="10.8">ben</text></lyric><lyric default-y="-115" name="verse" number="2"><syllabic>end</syllabic><text font-size="10.8">he</text></lyric></note><note default-x="289"><pitch><step>G</step><octave>4</octave></pitch><duration>1</duration><tie type="start" /><voice>1</voice><type>eighth</type><stem default-y="1.5">up</stem><beam number="1">end</beam><notations><tied type="start" /><slur number="1" placement="below" type="start" /></notations><lyric default-y="-91" name="verse" number="1"><syllabic>single</syllabic><text font-size="10.8">zählt.</text><extend type="start" /></lyric><lyric default-y="-115" name="verse" number="2"><syllabic>single</syllabic><text font-size="10.8">an!</text><extend type="start" /></lyric></note></measure><!--=======================================================--><measure number="15" width="184"><harmony default-y="36" font-size="10" font-weight="bold"><root><root-step>D</root-step></root><kind halign="center" text="m7">minor-seventh</kind></harmony><note default-x="27"><pitch><step>G</step><octave>4</octave></pitch><duration>2</duration><tie type="stop" /><voice>1</voice><type>quarter</type><stem default-y="2">up</stem><notations><tied type="stop" /></notations></note><note default-x="77"><pitch><step>F</step><octave>4</octave></pitch><duration>6</duration><voice>1</voice><type>half</type><dot /><stem default-y="-3">up</stem><notations><slur number="1" type="stop" /></notations><lyric name="verse" number="1"><extend type="stop" /></lyric><lyric name="verse" number="2"><extend type="stop" /></lyric></note></measure><!--=======================================================--><measure number="16" width="221"><note default-x="11"><rest /><duration>4</duration><voice>1</voice><type>half</type></note><note default-x="96"><rest /><duration>2</duration><voice>1</voice><type>quarter</type></note><note default-x="147"><rest /><duration>1</duration><voice>1</voice><type>eighth</type></note><note default-x="179"><pitch><step>F</step><octave>4</octave></pitch><duration>1</duration><voice>1</voice><type>eighth</type><stem default-y="-3">up</stem><lyric default-y="-91" name="verse" number="1"><syllabic>single</syllabic><text font-size="10.8">Ich</text></lyric><lyric default-y="-115" name="verse" number="2"><syllabic>single</syllabic><text font-size="10.8">Ich</text></lyric></note></measure><!--=======================================================--><measure number="17" width="411"><print new-system="yes"><system-layout><system-distance>180</system-distance></system-layout></print><harmony default-y="36" font-size="10" font-weight="bold"><root><root-step>G</root-step></root><kind halign="center" text="m7">minor-seventh</kind></harmony><note default-x="90"><pitch><step>B</step><alter>-1</alter><octave>4</octave></pitch><duration>2</duration><voice>1</voice><type>quarter</type><stem default-y="-52">down</stem><lyric default-y="-91" name="verse" number="1"><syllabic>single</syllabic><text font-size="10.8">geh’</text></lyric><lyric default-y="-115" name="verse" number="2"><syllabic>begin</syllabic><text font-size="10.8">lö</text></lyric></note><note default-x="154"><pitch><step>B</step><alter>-1</alter><octave>4</octave></pitch><duration>1</duration><voice>1</voice><type>eighth</type><stem default-y="-51">down</stem><beam number="1">begin</beam><lyric default-y="-91" name="verse" number="1"><syllabic>single</syllabic><text font-size="10.8">im</text></lyric><lyric default-y="-115" name="verse" number="2"><syllabic>end</syllabic><text font-size="10.8">se</text></lyric></note><note default-x="212"><pitch><step>B</step><alter>-1</alter><octave>4</octave></pitch><duration>1</duration><tie type="start" /><voice>1</voice><type>eighth</type><stem default-y="-51">down</stem><beam number="1">end</beam><notations><tied type="start" /></notations><lyric default-y="-91" name="verse" number="1"><syllabic>single</syllabic><text font-size="10.8">Geist</text><extend type="start" /></lyric><lyric default-y="-115" name="verse" number="2"><syllabic>single</syllabic><text font-size="10.8">mich</text><extend type="start" /></lyric></note><note default-x="250"><pitch><step>B</step><alter>-1</alter><octave>4</octave></pitch><duration>2</duration><tie type="stop" /><voice>1</voice><type>quarter</type><stem default-y="-52">down</stem><notations><tied type="stop" /></notations><lyric name="verse" number="1"><extend type="stop" /></lyric><lyric name="verse" number="2"><extend type="stop" /></lyric></note><note default-x="306"><pitch><step>B</step><alter>-1</alter><octave>4</octave></pitch><duration>1</duration><voice>1</voice><type>eighth</type><stem default-y="-51">down</stem><beam number="1">begin</beam><lyric default-y="-91" name="verse" number="1"><syllabic>single</syllabic><text font-size="10.8">jetzt</text></lyric><lyric default-y="-115" name="verse" number="2"><syllabic>single</syllabic><text font-size="10.8">von</text></lyric></note><note default-x="363"><pitch><step>B</step><alter>-1</alter><octave>4</octave></pitch><duration>1</duration><tie type="start" /><voice>1</voice><type>eighth</type><stem default-y="-51">down</stem><beam number="1">end</beam><notations><tied type="start" /></notations><lyric default-y="-91" name="verse" number="1"><syllabic>single</syllabic><text font-size="10.8">vor</text><extend type="start" /></lyric><lyric default-y="-115" name="verse" number="2"><syllabic>begin</syllabic><text font-size="10.8">al</text></lyric></note></measure><!--=======================================================--><measure number="18" width="341"><harmony default-y="36" font-size="10" font-weight="bold"><root><root-step>G</root-step></root><kind halign="center" text="m">minor</kind><bass><bass-step>F</bass-step></bass></harmony><note default-x="25"><pitch><step>B</step><alter>-1</alter><octave>4</octave></pitch><duration>2</duration><tie type="stop" /><voice>1</voice><type>quarter</type><stem default-y="-52">down</stem><notations><tied type="stop" /></notations><lyric name="verse" number="1"><extend type="stop" /></lyric></note><note default-x="86"><pitch><step>A</step><octave>4</octave></pitch><duration>1</duration><voice>1</voice><type>eighth</type><stem default-y="6">up</stem><beam number="1">begin</beam><lyric default-y="-91" name="verse" number="1"><syllabic>single</syllabic><text font-size="10.8">Dir</text></lyric><lyric default-y="-115" name="verse" number="2"><syllabic>end</syllabic><text font-size="10.8">len</text></lyric></note><note default-x="139"><pitch><step>G</step><octave>4</octave></pitch><duration>1</duration><tie type="start" /><voice>1</voice><type>eighth</type><stem default-y="1.5">up</stem><beam number="1">end</beam><notations><tied type="start" /></notations><lyric default-y="-91" name="verse" number="1"><syllabic>single</syllabic><text font-size="10.8">auf</text><extend type="start" /></lyric><lyric default-y="-115" name="verse" number="2"><syllabic>begin</syllabic><text font-size="10.8">Am</text></lyric></note><note default-x="177"><pitch><step>G</step><octave>4</octave></pitch><duration>2</duration><tie type="stop" /><voice>1</voice><type>quarter</type><stem default-y="2">up</stem><notations><tied type="stop" /></notations><lyric name="verse" number="1"><extend type="stop" /></lyric></note><note default-x="232"><pitch><step>F</step><octave>4</octave></pitch><duration>1</duration><voice>1</voice><type>eighth</type><stem default-y="-3.5">up</stem><beam number="1">begin</beam><lyric default-y="-91" name="verse" number="1"><syllabic>single</syllabic><text font-size="10.8">die</text></lyric><lyric default-y="-115" name="verse" number="2"><syllabic>middle</syllabic><text font-size="10.8">bi</text></lyric></note><note default-x="288"><pitch><step>G</step><octave>4</octave></pitch><duration>1</duration><tie type="start" /><voice>1</voice><type>eighth</type><stem default-y="1.5">up</stem><beam number="1">end</beam><notations><tied type="start" /><slur number="1" placement="below" type="start" /></notations><lyric default-y="-91" name="verse" number="1"><syllabic>single</syllabic><text font-size="10.8">Knie</text><extend type="start" /></lyric><lyric default-y="-115" name="verse" number="2"><syllabic>middle</syllabic><text font-size="10.8">tio</text></lyric></note></measure><!--=======================================================--><measure number="19" width="202"><harmony default-y="36" font-size="10" font-weight="bold"><root><root-step>C</root-step></root><kind halign="center" text="">major</kind><bass><bass-step>E</bass-step></bass></harmony><note default-x="15"><pitch><step>G</step><octave>4</octave></pitch><duration>1</duration><tie type="stop" /><voice>1</voice><type>eighth</type><stem default-y="2">up</stem><notations><tied type="stop" /></notations></note><note default-x="56"><pitch><step>G</step><octave>4</octave></pitch><duration>3</duration><tie type="start" /><voice>1</voice><type>quarter</type><dot /><stem default-y="2">up</stem><notations><tied type="start" /></notations><lyric default-y="-115" name="verse" number="2"><syllabic>end</syllabic><text font-size="10.8">nen</text><extend type="start" /></lyric></note><note default-x="121"><pitch><step>G</step><octave>4</octave></pitch><duration>4</duration><tie type="stop" /><voice>1</voice><type>half</type><stem default-y="2">up</stem><notations><tied type="stop" /><slur number="1" type="stop" /></notations><lyric name="verse" number="1"><extend type="stop" /></lyric><lyric name="verse" number="2"><extend type="stop" /></lyric></note></measure><!--=======================================================--><measure number="20" width="217"><note default-x="10"><rest /><duration>4</duration><voice>1</voice><type>half</type></note><note default-x="92"><rest /><duration>2</duration><voice>1</voice><type>quarter</type></note><note default-x="141"><rest /><duration>1</duration><voice>1</voice><type>eighth</type></note><note default-x="171"><pitch><step>A</step><octave>4</octave></pitch><duration>1</duration><voice>1</voice><type>eighth</type><stem default-y="7">up</stem><lyric default-y="-91" name="verse" number="1"><syllabic>single</syllabic><text font-size="10.8">und</text></lyric><lyric default-y="-115" name="verse" number="2"><syllabic>single</syllabic><text font-size="10.8">und</text></lyric></note></measure><!--=======================================================--><measure number="21" width="422"><print new-system="yes"><system-layout><system-distance>180</system-distance></system-layout></print><harmony default-y="36" font-size="10" font-weight="bold"><root><root-step>G</root-step></root><kind halign="center" text="m7">minor-seventh</kind></harmony><note default-x="90"><pitch><step>B</step><alter>-1</alter><octave>4</octave></pitch><duration>2</duration><voice>1</voice><type>quarter</type><stem default-y="-52">down</stem><lyric default-y="-91" name="verse" number="1"><syllabic>begin</syllabic><text font-size="10.8">hö</text></lyric><lyric default-y="-115" name="verse" number="2"><syllabic>single</syllabic><text font-size="10.8">werd’</text></lyric></note><note default-x="160"><pitch><step>B</step><alter>-1</alter><octave>4</octave></pitch><duration>1</duration><voice>1</voice><type>eighth</type><stem default-y="-51">down</stem><beam number="1">begin</beam><lyric default-y="-91" name="verse" number="1"><syllabic>end</syllabic><text font-size="10.8">re</text></lyric><lyric default-y="-115" name="verse" number="2"><syllabic>single</syllabic><text font-size="10.8">so</text></lyric></note><note default-x="211"><pitch><step>B</step><alter>-1</alter><octave>4</octave></pitch><duration>1</duration><tie type="start" /><voice>1</voice><type>eighth</type><stem default-y="-51">down</stem><beam number="1">end</beam><notations><tied type="start" /></notations><lyric default-y="-91" name="verse" number="1"><syllabic>single</syllabic><text font-size="10.8">auf</text><extend type="start" /></lyric><lyric default-y="-115" name="verse" number="2"><syllabic>single</syllabic><text font-size="10.8">still</text><extend type="start" /></lyric></note><note default-x="251"><pitch><step>B</step><alter>-1</alter><octave>4</octave></pitch><duration>2</duration><tie type="stop" /><voice>1</voice><type>quarter</type><stem default-y="-52">down</stem><notations><tied type="stop" /></notations><lyric name="verse" number="1"><extend type="stop" /></lyric><lyric name="verse" number="2"><extend type="stop" /></lyric></note><note default-x="311"><pitch><step>B</step><alter>-1</alter><octave>4</octave></pitch><duration>1</duration><voice>1</voice><type>eighth</type><stem default-y="-51">down</stem><beam number="1">begin</beam><lyric default-y="-91" name="verse" number="1"><syllabic>single</syllabic><text font-size="10.8">die</text></lyric><lyric default-y="-115" name="verse" number="2"><syllabic>single</syllabic><text font-size="10.8">wie</text></lyric></note><note default-x="369"><pitch><step>B</step><alter>-1</alter><octave>4</octave></pitch><duration>1</duration><tie type="start" /><voice>1</voice><type>eighth</type><stem default-y="-51">down</stem><beam number="1">end</beam><notations><tied type="start" /></notations><lyric default-y="-91" name="verse" number="1"><syllabic>begin</syllabic><text font-size="10.8">Stim</text></lyric><lyric default-y="-115" name="verse" number="2"><syllabic>single</syllabic><text font-size="10.8">ein</text></lyric></note></measure><!--=======================================================--><measure number="22" width="368"><harmony default-y="36" font-size="10" font-weight="bold"><root><root-step>G</root-step></root><kind halign="center" text="m">minor</kind><bass><bass-step>F</bass-step></bass></harmony><note default-x="25"><pitch><step>B</step><alter>-1</alter><octave>4</octave></pitch><duration>2</duration><tie type="stop" /><voice>1</voice><type>quarter</type><stem default-y="-52">down</stem><notations><tied type="stop" /></notations><lyric default-y="-115" name="verse" number="2"><syllabic>single</syllabic><text font-size="10.8">grad</text></lyric></note><note default-x="92"><pitch><step>A</step><octave>4</octave></pitch><duration>1</duration><voice>1</voice><type>eighth</type><stem default-y="6">up</stem><beam number="1">begin</beam><lyric default-y="-91" name="verse" number="1"><syllabic>end</syllabic><text font-size="10.8">me</text></lyric><lyric default-y="-115" name="verse" number="2"><syllabic>begin</syllabic><text font-size="10.8">ge</text></lyric></note><note default-x="148"><pitch><step>G</step><octave>4</octave></pitch><duration>1</duration><tie type="start" /><voice>1</voice><type>eighth</type><stem default-y="1">up</stem><beam number="1">end</beam><notations><tied type="start" /></notations><lyric default-y="-91" name="verse" number="1"><syllabic>begin</syllabic><text font-size="10.8">mei</text></lyric><lyric default-y="-115" name="verse" number="2"><syllabic>middle</syllabic><text font-size="10.8">still</text></lyric></note><note default-x="187"><pitch><step>G</step><octave>4</octave></pitch><duration>1</duration><tie type="stop" /><voice>1</voice><type>eighth</type><stem default-y="1">up</stem><beam number="1">begin</beam><notations><tied type="stop" /></notations></note><note default-x="229"><pitch><step>F</step><octave>4</octave></pitch><duration>1</duration><voice>1</voice><type>eighth</type><stem default-y="-3.5">up</stem><beam number="1">end</beam><lyric default-y="-91" name="verse" number="1"><syllabic>end</syllabic><text font-size="10.8">nes</text></lyric><lyric default-y="-115" name="verse" number="2"><syllabic>end</syllabic><text font-size="10.8">tes</text></lyric></note><note default-x="297"><pitch><step>G</step><octave>4</octave></pitch><duration>2</duration><tie type="start" /><voice>1</voice><type>quarter</type><stem default-y="2">up</stem><notations><tied type="start" /></notations><lyric default-y="-91" name="verse" number="1"><syllabic>single</syllabic><text font-size="10.8">Herrn.</text><extend type="start" /></lyric><lyric default-y="-115" name="verse" number="2"><syllabic>single</syllabic><text font-size="10.8">Kind!</text><extend type="start" /></lyric></note></measure><!--=======================================================--><measure number="23" width="150"><harmony default-y="36" font-size="10" font-weight="bold"><root><root-step>E</root-step><root-alter>-1</root-alter></root><kind halign="center" text="9">dominant-ninth</kind></harmony><note default-x="21"><pitch><step>G</step><octave>4</octave></pitch><duration>8</duration><tie type="stop" /><voice>1</voice><type>whole</type><notations><tied type="stop" /></notations><lyric name="verse" number="1"><extend type="stop" /></lyric><lyric name="verse" number="2"><extend type="stop" /></lyric></note></measure><!--=======================================================--><measure number="24" width="231"><note default-x="10"><rest /><duration>4</duration><voice>1</voice><type>half</type></note><note default-x="95"><rest /><duration>2</duration><voice>1</voice><type>quarter</type></note><note default-x="145"><rest /><duration>1</duration><voice>1</voice><type>eighth</type></note><note default-x="177"><pitch><step>C</step><octave>4</octave></pitch><duration>1</duration><voice>1</voice><type size="cue">eighth</type><stem default-y="-17.5">up</stem><lyric default-y="-115" name="verse" number="2"><syllabic>single</syllabic><text font-size="10.8">Denn</text></lyric></note></measure><!--=======================================================--><measure number="25" width="388"><print new-page="yes" page-number="2" /><harmony default-y="36" font-size="10" font-weight="bold"><root><root-step>F</root-step></root><kind halign="center" text="">major</kind></harmony><note default-x="74"><pitch><step>A</step><octave>4</octave></pitch><duration>2</duration><voice>1</voice><type>quarter</type><stem default-y="7">up</stem><lyric default-y="-91" name="verse" number="1"><syllabic>begin</syllabic><text font-size="10.8">Füh</text></lyric><lyric default-y="-115" name="verse" number="2"><syllabic>single</syllabic><text font-size="10.8">Du</text></lyric></note><note default-x="146"><pitch><step>A</step><octave>4</octave></pitch><duration>1</duration><voice>1</voice><type>eighth</type><stem default-y="6.5">up</stem><beam number="1">begin</beam><lyric default-y="-91" name="verse" number="1"><syllabic>end</syllabic><text font-size="10.8">re</text></lyric><lyric default-y="-115" name="verse" number="2"><syllabic>single</syllabic><text font-size="10.8">hast</text></lyric></note><note default-x="213"><pitch><step>A</step><octave>4</octave></pitch><duration>1</duration><tie type="start" /><voice>1</voice><type>eighth</type><stem default-y="6.5">up</stem><beam number="1">end</beam><notations><tied type="start" /></notations><lyric default-y="-91" name="verse" number="1"><syllabic>single</syllabic><text font-size="10.8">Du</text><extend type="start" /></lyric><lyric default-y="-115" name="verse" number="2"><syllabic>single</syllabic><text font-size="10.8">mehr</text><extend type="start" /></lyric></note><note default-x="253"><pitch><step>A</step><octave>4</octave></pitch><duration>3</duration><tie type="stop" /><voice>1</voice><type>quarter</type><dot /><stem default-y="7">up</stem><notations><tied type="stop" /></notations><lyric name="verse" number="1"><extend type="stop" /></lyric><lyric name="verse" number="2"><extend type="stop" /></lyric></note><note default-x="332"><pitch><step>F</step><octave>4</octave></pitch><duration>1</duration><voice>1</voice><type>eighth</type><stem default-y="-3">up</stem><lyric default-y="-91" name="verse" number="1"><syllabic>single</syllabic><text font-size="10.8">mein</text></lyric><lyric default-y="-115" name="verse" number="2"><syllabic>single</syllabic><text font-size="10.8">für</text></lyric></note></measure><!--=======================================================--><measure number="26" width="358"><harmony default-y="36" font-size="10" font-weight="bold"><root><root-step>C</root-step></root><kind halign="center" text="">major</kind><bass><bass-step>E</bass-step></bass></harmony><note default-x="17"><pitch><step>G</step><octave>4</octave></pitch><duration>2</duration><voice>1</voice><type>quarter</type><stem default-y="2">up</stem><lyric default-y="-91" name="verse" number="1"><syllabic>begin</syllabic><text font-size="10.8">In</text></lyric><lyric default-y="-115" name="verse" number="2"><syllabic>single</syllabic><text font-size="10.8">mich</text></lyric></note><note default-x="93"><pitch><step>F</step><octave>4</octave></pitch><duration>1</duration><voice>1</voice><type>eighth</type><stem default-y="-4">up</stem><beam number="1">begin</beam><lyric default-y="-91" name="verse" number="1"><syllabic>middle</syllabic><text font-size="10.8">ners</text></lyric><lyric default-y="-115" name="verse" number="2"><syllabic>single</syllabic><text font-size="10.8">als</text></lyric></note><note default-x="150"><pitch><step>G</step><octave>4</octave></pitch><duration>1</duration><tie type="start" /><voice>1</voice><type>eighth</type><stem default-y="1">up</stem><beam number="1">end</beam><notations><tied type="start" /></notations><lyric default-y="-91" name="verse" number="1"><syllabic>end</syllabic><text font-size="10.8">tes</text><extend type="start" /></lyric><lyric default-y="-115" name="verse" number="2"><syllabic>begin</syllabic><text font-size="10.8">Il</text></lyric></note><note default-x="192"><pitch><step>G</step><octave>4</octave></pitch><duration>2</duration><tie type="stop" /><voice>1</voice><type>quarter</type><stem default-y="2">up</stem><notations><tied type="stop" /></notations><lyric name="verse" number="1"><extend type="stop" /></lyric></note><note default-x="256"><pitch><step>A</step><octave>4</octave></pitch><duration>1</duration><voice>1</voice><type>eighth</type><stem default-y="6.5">up</stem><beam number="1">begin</beam><lyric default-y="-91" name="verse" number="1"><syllabic>single</syllabic><text font-size="10.8">zur</text></lyric><lyric default-y="-115" name="verse" number="2"><syllabic>middle</syllabic><text font-size="10.8">lu</text></lyric></note><note default-x="309"><pitch><step>F</step><octave>4</octave></pitch><duration>1</duration><tie type="start" /><voice>1</voice><type>eighth</type><stem default-y="1">up</stem><beam number="1">end</beam><notations><tied type="start" /></notations><lyric default-y="-91" name="verse" number="1"><syllabic>begin</syllabic><text font-size="10.8">Ru</text></lyric><lyric default-y="-115" name="verse" number="2"><syllabic>middle</syllabic><text font-size="10.8">sio</text></lyric></note></measure><!--=======================================================--><measure number="27" width="189"><harmony default-y="36" font-size="10" font-weight="bold"><root><root-step>D</root-step></root><kind halign="center" text="m7">minor-seventh</kind></harmony><note default-x="27"><pitch><step>F</step><octave>4</octave></pitch><duration>2</duration><tie type="stop" /><voice>1</voice><type>quarter</type><stem default-y="-3">up</stem><notations><tied type="stop" /></notations></note><note default-x="78"><pitch><step>D</step><octave>4</octave></pitch><duration>6</duration><voice>1</voice><type>half</type><dot /><stem default-y="-13">up</stem><lyric default-y="-91" name="verse" number="1"><syllabic>end</syllabic><text font-size="10.8">he</text></lyric><lyric default-y="-115" name="verse" number="2"><syllabic>end</syllabic><text font-size="10.8">nen,</text></lyric></note></measure><!--=======================================================--><measure number="28" width="236"><note default-x="10"><rest /><duration>4</duration><voice>1</voice><type>half</type></note><note default-x="99"><rest /><duration>2</duration><voice>1</voice><type>quarter</type></note><note default-x="152"><rest /><duration>1</duration><voice>1</voice><type>eighth</type></note><note default-x="185"><pitch><step>C</step><octave>4</octave></pitch><duration>1</duration><voice>1</voice><type>eighth</type><stem default-y="-18">up</stem><lyric default-y="-91" name="verse" number="1"><syllabic>single</syllabic><text font-size="10.8">und</text></lyric><lyric default-y="-115" name="verse" number="2"><syllabic>single</syllabic><text font-size="10.8">Dein</text></lyric></note></measure><!--=======================================================--><measure number="29" width="433"><print new-system="yes"><system-layout><system-distance>180</system-distance></system-layout></print><harmony default-y="36" font-size="10" font-weight="bold"><root><root-step>G</root-step></root><kind halign="center" text="m7">minor-seventh</kind></harmony><note default-x="95"><pitch><step>D</step><octave>4</octave></pitch><duration>2</duration><voice>1</voice><type>quarter</type><stem default-y="-13">up</stem><lyric default-y="-91" name="verse" number="1"><syllabic>single</syllabic><text font-size="10.8">lass</text></lyric><lyric default-y="-115" name="verse" number="2"><syllabic>single</syllabic><text font-size="10.8">Rat</text></lyric></note><note default-x="165"><pitch><step>F</step><octave>4</octave></pitch><duration>1</duration><voice>1</voice><type>eighth</type><stem default-y="-4">up</stem><beam number="1">begin</beam><lyric default-y="-91" name="verse" number="1"><syllabic>single</syllabic><text font-size="10.8">Dein</text></lyric><lyric default-y="-115" name="verse" number="2"><syllabic>single</syllabic><text font-size="10.8">für</text></lyric></note><note default-x="230"><pitch><step>F</step><octave>4</octave></pitch><duration>1</duration><tie type="start" /><voice>1</voice><type>eighth</type><stem default-y="-4">up</stem><beam number="1">end</beam><notations><tied type="start" /></notations><lyric default-y="-91" name="verse" number="1"><syllabic>begin</syllabic><text font-size="10.8">Feu</text></lyric><lyric default-y="-115" name="verse" number="2"><syllabic>single</syllabic><text font-size="10.8">mich</text><extend type="start" /></lyric></note><note default-x="265"><pitch><step>F</step><octave>4</octave></pitch><duration>2</duration><tie type="stop" /><voice>1</voice><type>quarter</type><stem default-y="-3">up</stem><notations><tied type="stop" /></notations><lyric name="verse" number="2"><extend type="stop" /></lyric></note><note default-x="318"><pitch><step>F</step><octave>4</octave></pitch><duration>1</duration><voice>1</voice><type>eighth</type><stem default-y="-4">up</stem><beam number="1">begin</beam><lyric default-y="-91" name="verse" number="1"><syllabic>end</syllabic><text font-size="10.8">er</text></lyric><lyric default-y="-115" name="verse" number="2"><syllabic>begin</syllabic><text font-size="10.8">ver</text></lyric></note><note default-x="382"><pitch><step>G</step><octave>4</octave></pitch><duration>1</duration><tie type="start" /><voice>1</voice><type>eighth</type><stem default-y="2">up</stem><beam number="1">end</beam><notations><tied type="start" /></notations><lyric default-y="-91" name="verse" number="1"><syllabic>begin</syllabic><text font-size="10.8">mei</text></lyric><lyric default-y="-115" name="verse" number="2"><syllabic>end</syllabic><text font-size="10.8">weht</text><extend type="start" /></lyric></note></measure><!--=======================================================--><measure number="30" width="358"><harmony default-y="36" font-size="10" font-weight="bold"><root><root-step>B</root-step><root-alter>-1</root-alter></root><kind halign="center" text="">major</kind><bass><bass-step>C</bass-step></bass></harmony><note default-x="19"><pitch><step>G</step><octave>4</octave></pitch><duration>2</duration><tie type="stop" /><voice>1</voice><type>quarter</type><stem default-y="2">up</stem><notations><tied type="stop" /></notations><lyric name="verse" number="2"><extend type="stop" /></lyric></note><note default-x="73"><pitch><step>A</step><octave>4</octave></pitch><duration>1</duration><voice>1</voice><type>eighth</type><stem default-y="6.5">up</stem><beam number="1">begin</beam><lyric default-y="-91" name="verse" number="1"><syllabic>end</syllabic><text font-size="10.8">ne</text></lyric><lyric default-y="-115" name="verse" number="2"><syllabic>single</syllabic><text font-size="10.8">nicht</text></lyric></note><note default-x="140"><pitch><step>G</step><octave>4</octave></pitch><duration>1</duration><tie type="start" /><voice>1</voice><type>eighth</type><stem default-y="2">up</stem><beam number="1">end</beam><notations><tied type="start" /></notations><lyric default-y="-91" name="verse" number="1"><syllabic>single</syllabic><text font-size="10.8">Hast</text><extend type="start" /></lyric><lyric default-y="-115" name="verse" number="2"><syllabic>single</syllabic><text font-size="10.8">mit</text><extend type="start" /></lyric></note><note default-x="175"><pitch><step>G</step><octave>4</octave></pitch><duration>2</duration><tie type="stop" /><voice>1</voice><type>quarter</type><stem default-y="2">up</stem><notations><tied type="stop" /></notations><lyric name="verse" number="1"><extend type="stop" /></lyric><lyric name="verse" number="2"><extend type="stop" /></lyric></note><note default-x="226"><pitch><step>F</step><octave>4</octave></pitch><duration>1</duration><voice>1</voice><type>eighth</type><stem default-y="-4">up</stem><beam number="1">begin</beam><lyric default-y="-91" name="verse" number="1"><syllabic>begin</syllabic><text font-size="10.8">ver</text></lyric><lyric default-y="-115" name="verse" number="2"><syllabic>single</syllabic><text font-size="10.8">dem</text></lyric></note><note default-x="298"><pitch><step>F</step><octave>4</octave></pitch><duration>1</duration><tie type="start" /><voice>1</voice><type>eighth</type><stem default-y="-4">up</stem><beam number="1">end</beam><notations><tied type="start" /></notations><lyric default-y="-91" name="verse" number="1"><syllabic>end</syllabic><text font-size="10.8">zehrn!</text><extend type="start" /></lyric><lyric default-y="-115" name="verse" number="2"><syllabic>single</syllabic><text font-size="10.8">Wind!</text><extend type="start" /></lyric></note></measure><!--=======================================================--><measure number="31" width="130"><harmony default-y="36" font-size="10" font-weight="bold"><root><root-step>F</root-step></root><kind halign="center" text="">major</kind></harmony><note default-x="11"><pitch><step>F</step><octave>4</octave></pitch><duration>8</duration><tie type="stop" /><voice>1</voice><type>whole</type><notations><tied type="stop" /></notations><lyric name="verse" number="1"><extend type="stop" /></lyric><lyric name="verse" number="2"><extend type="stop" /></lyric></note></measure><!--=======================================================--><measure number="32" width="248"><note default-x="10"><rest /><duration>4</duration><voice>1</voice><type>half</type></note><note default-x="91"><pitch><step>A</step><octave>4</octave></pitch><duration>1</duration><voice>1</voice><type>eighth</type><stem default-y="6.5">up</stem><beam number="1">begin</beam><lyric default-y="-91" name="verse" number="1"><syllabic>single</syllabic><text font-size="10.8">Du</text></lyric></note><note default-x="141"><pitch><step>B</step><alter>-1</alter><octave>4</octave></pitch><duration>1</duration><voice>1</voice><type>eighth</type><stem default-y="11.5">up</stem><beam number="1">end</beam><lyric default-y="-91" name="verse" number="1"><syllabic>single</syllabic><text font-size="10.8">bist</text></lyric></note><note default-x="194"><pitch><step>C</step><octave>5</octave></pitch><duration>2</duration><voice>1</voice><type>quarter</type><stem default-y="-46.5">down</stem><lyric default-y="-91" name="verse" number="1"><syllabic>single</syllabic><text font-size="10.8">ein</text></lyric></note><barline location="right"><bar-style>light-light</bar-style></barline></measure><!--=======================================================--><measure number="33" width="213"><print new-system="yes"><system-layout><system-distance>180</system-distance></system-layout></print><barline location="left"><bar-style>heavy-light</bar-style><repeat direction="forward" winged="none" /></barline><harmony default-y="36" font-size="10" font-weight="bold"><root><root-step>F</root-step></root><kind halign="center" text="">major</kind></harmony><direction placement="above"><direction-type><rehearsal default-y="67" font-weight="bold" relative-x="-24">CHORUS</rehearsal></direction-type></direction><note default-x="95"><pitch><step>C</step><octave>5</octave></pitch><duration>8</duration><tie type="start" /><voice>1</voice><type>whole</type><notations><tied type="start" /></notations><lyric default-y="-91" name="verse" number="1"><syllabic>begin</syllabic><text font-size="10.8">star</text></lyric></note></measure><!--=======================================================--><measure number="34" width="212"><note default-x="11"><pitch><step>C</step><octave>5</octave></pitch><duration>4</duration><tie type="stop" /><voice>1</voice><type>half</type><stem default-y="-47">down</stem><notations><tied type="stop" /></notations></note><note default-x="88"><pitch><step>D</step><octave>5</octave></pitch><duration>2</duration><voice>1</voice><type>quarter</type><stem default-y="-42">down</stem><lyric default-y="-91" name="verse" number="1"><syllabic>end</syllabic><text font-size="10.8">ker</text></lyric></note><note default-x="153"><pitch><step>C</step><octave>5</octave></pitch><duration>2</duration><tie type="start" /><voice>1</voice><type>quarter</type><stem default-y="-47">down</stem><notations><tied type="start" /></notations><lyric default-y="-91" name="verse" number="1"><syllabic>single</syllabic><text font-size="10.8">Turm,</text><extend type="start" /></lyric></note></measure><!--=======================================================--><measure number="35" width="134"><harmony default-y="36" font-size="10" font-weight="bold"><root><root-step>C</root-step></root><kind halign="center" text="">major</kind><bass><bass-step>E</bass-step></bass></harmony><note default-x="16"><pitch><step>C</step><octave>5</octave></pitch><duration>8</duration><tie type="stop" /><voice>1</voice><type>whole</type><notations><tied type="stop" /></notations><lyric name="verse" number="1"><extend type="stop" /></lyric></note></measure><!--=======================================================--><measure number="36" width="243"><note default-x="10"><rest /><duration>4</duration><voice>1</voice><type>half</type></note><note default-x="88"><pitch><step>A</step><octave>4</octave></pitch><duration>1</duration><voice>1</voice><type>eighth</type><stem default-y="6">up</stem><beam number="1">begin</beam><lyric default-y="-91" name="verse" number="1"><syllabic>single</syllabic><text font-size="10.8">du</text></lyric></note><note default-x="137"><pitch><step>B</step><alter>-1</alter><octave>4</octave></pitch><duration>1</duration><voice>1</voice><type>eighth</type><stem default-y="11">up</stem><beam number="1">end</beam><lyric default-y="-91" name="verse" number="1"><syllabic>single</syllabic><text font-size="10.8">bist</text></lyric></note><note default-x="192"><pitch><step>C</step><octave>5</octave></pitch><duration>2</duration><voice>1</voice><type>quarter</type><stem default-y="-47">down</stem><lyric default-y="-91" name="verse" number="1"><syllabic>single</syllabic><text font-size="10.8">das</text></lyric></note></measure><!--=======================================================--><measure number="37" width="137"><harmony default-y="36" font-size="10" font-weight="bold"><root><root-step>B</root-step><root-alter>-1</root-alter></root><kind halign="center" text="">major</kind><bass><bass-step>D</bass-step></bass></harmony><note default-x="18"><pitch><step>C</step><octave>5</octave></pitch><duration>8</duration><tie type="start" /><voice>1</voice><type>whole</type><notations><tied type="start" /></notations><lyric default-y="-91" name="verse" number="1"><syllabic>begin</syllabic><text font-size="10.8">Au</text></lyric></note></measure><!--=======================================================--><measure number="38" width="233"><note default-x="11"><pitch><step>C</step><octave>5</octave></pitch><duration>2</duration><tie type="stop" /><voice>1</voice><type>quarter</type><stem default-y="-47">down</stem><notations><tied type="stop" /></notations></note><note default-x="59"><pitch><step>C</step><octave>5</octave></pitch><duration>2</duration><voice>1</voice><type>quarter</type><stem default-y="-47">down</stem><lyric default-y="-91" name="verse" number="1"><syllabic>end</syllabic><text font-size="10.8">ge</text></lyric></note><note default-x="108"><pitch><step>D</step><octave>5</octave></pitch><duration>2</duration><voice>1</voice><type>quarter</type><stem default-y="-42">down</stem><lyric default-y="-91" name="verse" number="1"><syllabic>single</syllabic><text font-size="10.8">im</text></lyric></note><note default-x="172"><pitch><step>C</step><octave>5</octave></pitch><duration>2</duration><tie type="start" /><voice>1</voice><type>quarter</type><stem default-y="-47">down</stem><notations><tied type="start" /></notations><lyric default-y="-91" name="verse" number="1"><syllabic>single</syllabic><text font-size="10.8">Sturm.</text><extend type="start" /></lyric></note></measure><!--=======================================================--><measure number="39" width="207"><print new-system="yes"><system-layout><system-distance>180</system-distance></system-layout></print><harmony default-y="36" font-size="10" font-weight="bold"><root><root-step>F</root-step></root><kind halign="center" text="">major</kind><bass><bass-step>C</bass-step></bass></harmony><note default-x="76"><pitch><step>C</step><octave>5</octave></pitch><duration>8</duration><tie type="stop" /><voice>1</voice><type>whole</type><notations><tied type="stop" /></notations><lyric name="verse" number="1"><extend type="stop" /></lyric></note></measure><!--=======================================================--><measure number="40" width="331"><harmony default-y="36" font-size="10" font-weight="bold"><root><root-step>F</root-step></root><kind halign="center" text="">major</kind><bass><bass-step>A</bass-step></bass></harmony><note default-x="14"><rest /><duration>2</duration><voice>1</voice><type>quarter</type></note><note default-x="71"><rest /><duration>1</duration><voice>1</voice><type>eighth</type></note><note default-x="107"><pitch><step>A</step><octave>4</octave></pitch><duration>1</duration><voice>1</voice><type>eighth</type><stem default-y="7">up</stem><lyric default-y="-91" name="verse" number="1"><syllabic>single</syllabic><text font-size="10.8">Du</text></lyric></note><note default-x="179"><pitch><step>C</step><octave>5</octave></pitch><duration>2</duration><voice>1</voice><type>quarter</type><stem default-y="-47">down</stem><lyric default-y="-91" name="verse" number="1"><syllabic>single</syllabic><text font-size="10.8">sprichst</text></lyric></note><note default-x="268"><pitch><step>B</step><alter>-1</alter><octave>4</octave></pitch><duration>2</duration><voice>1</voice><type>quarter</type><stem default-y="-52">down</stem><lyric default-y="-91" name="verse" number="1"><syllabic>single</syllabic><text font-size="10.8">zum</text></lyric></note></measure><!--=======================================================--><measure number="41" width="379"><harmony default-y="36" font-size="10" font-weight="bold"><root><root-step>B</root-step><root-alter>-1</root-alter></root><kind halign="center" text="maj9">major-ninth</kind></harmony><note default-x="38"><pitch><step>A</step><octave>4</octave></pitch><duration>2</duration><voice>1</voice><type>quarter</type><stem default-y="7">up</stem><lyric default-y="-91" name="verse" number="1"><syllabic>begin</syllabic><text font-size="10.8">auf</text></lyric></note><note default-x="108"><pitch><step>F</step><octave>4</octave></pitch><duration>1</duration><voice>1</voice><type>eighth</type><stem default-y="-3.5">up</stem><beam number="1">begin</beam><lyric default-y="-91" name="verse" number="1"><syllabic>middle</syllabic><text font-size="10.8">ge</text></lyric></note><note default-x="165"><pitch><step>F</step><octave>4</octave></pitch><duration>1</duration><tie type="start" /><voice>1</voice><type>eighth</type><stem default-y="-3.5">up</stem><beam number="1">end</beam><notations><tied type="start" /></notations><lyric default-y="-91" name="verse" number="1"><syllabic>middle</syllabic><text font-size="10.8">wühl</text></lyric></note><note default-x="206"><pitch><step>F</step><octave>4</octave></pitch><duration>1</duration><tie type="stop" /><voice>1</voice><type>eighth</type><stem default-y="-3.5">up</stem><beam number="1">begin</beam><notations><tied type="stop" /></notations></note><note default-x="249"><pitch><step>D</step><octave>4</octave></pitch><duration>1</duration><voice>1</voice><type>eighth</type><stem default-y="-8">up</stem><beam number="1">end</beam><lyric default-y="-91" name="verse" number="1"><syllabic>end</syllabic><text font-size="10.8">ten</text></lyric></note><note default-x="308"><pitch><step>F</step><octave>4</octave></pitch><duration>2</duration><tie type="start" /><voice>1</voice><type>quarter</type><stem default-y="-3">up</stem><notations><tied type="start" /></notations><lyric default-y="-91" name="verse" number="1"><syllabic>single</syllabic><text font-size="10.8">Meer</text><extend type="start" /></lyric></note></measure><!--=======================================================--><measure number="42" width="254"><note default-x="10"><pitch><step>F</step><octave>4</octave></pitch><duration>4</duration><tie type="stop" /><voice>1</voice><type>half</type><stem default-y="-3">up</stem><notations><tied type="stop" /></notations><lyric name="verse" number="1"><extend type="stop" /></lyric></note><note default-x="100"><rest /><duration>2</duration><voice>1</voice><type>quarter</type></note><note default-x="154"><pitch><step>F</step><octave>4</octave></pitch><duration>1</duration><voice>1</voice><type>eighth</type><stem default-y="-3.5">up</stem><beam number="1">begin</beam><lyric default-y="-91" name="verse" number="1"><syllabic>begin</syllabic><text font-size="10.8">mei</text></lyric></note><note default-x="206"><pitch><step>G</step><octave>4</octave></pitch><duration>1</duration><voice>1</voice><type>eighth</type><stem default-y="1.5">up</stem><beam number="1">end</beam><lyric default-y="-91" name="verse" number="1"><syllabic>end</syllabic><text font-size="10.8">ner</text></lyric></note></measure><!--=======================================================--><measure number="43" width="366"><print new-system="yes"><system-layout><system-distance>180</system-distance></system-layout></print><harmony default-y="36" font-size="10" font-weight="bold"><root><root-step>F</root-step></root><kind halign="center" text="9">dominant-ninth</kind><bass><bass-step>A</bass-step></bass></harmony><note default-x="81"><pitch><step>A</step><octave>4</octave></pitch><duration>2</duration><voice>1</voice><type>quarter</type><stem default-y="7">up</stem><lyric default-y="-91" name="verse" number="1"><syllabic>begin</syllabic><text font-size="10.8">See</text></lyric></note><note default-x="137"><pitch><step>B</step><alter>-1</alter><octave>4</octave></pitch><duration>1</duration><voice>1</voice><type>eighth</type><stem default-y="11">up</stem><beam number="1">begin</beam><lyric default-y="-91" name="verse" number="1"><syllabic>end</syllabic><text font-size="10.8">le</text></lyric></note><note default-x="176"><pitch><step>A</step><octave>4</octave></pitch><duration>1</duration><tie type="start" /><voice>1</voice><type>eighth</type><stem default-y="6">up</stem><beam number="1">end</beam><notations><tied type="start" /></notations><lyric default-y="-91" name="verse" number="1"><syllabic>single</syllabic><text font-size="10.8">in</text><extend type="start" /></lyric></note><note default-x="210"><pitch><step>A</step><octave>4</octave></pitch><duration>1</duration><tie type="stop" /><voice>1</voice><type>eighth</type><stem default-y="6">up</stem><beam number="1">begin</beam><notations><tied type="stop" /></notations><lyric name="verse" number="1"><extend type="stop" /></lyric></note><note default-x="248"><pitch><step>G</step><octave>4</octave></pitch><duration>1</duration><voice>1</voice><type>eighth</type><stem default-y="1">up</stem><beam number="1">end</beam><lyric default-y="-91" name="verse" number="1"><syllabic>single</syllabic><text font-size="10.8">mir,</text></lyric></note><note default-x="308"><pitch><step>G</step><octave>4</octave></pitch><duration>2</duration><voice>1</voice><type>quarter</type><stem default-y="2">up</stem><notations><slur number="1" placement="below" type="start" /></notations><lyric default-y="-91" name="verse" number="1"><syllabic>single</syllabic><text font-size="10.8">Herr,</text><extend type="start" /></lyric></note></measure><!--=======================================================--><measure number="44" width="257"><note default-x="10"><pitch><step>F</step><octave>4</octave></pitch><duration>2</duration><voice>1</voice><type>quarter</type><stem default-y="-3">up</stem><notations><slur number="1" type="stop" /></notations><lyric name="verse" number="1"><extend type="stop" /></lyric></note><note default-x="60"><rest /><duration>2</duration><voice>1</voice><type>quarter</type></note><note default-x="108"><pitch><step>F</step><octave>4</octave></pitch><duration>1</duration><voice>1</voice><type>eighth</type><stem default-y="-3.5">up</stem><beam number="1">begin</beam><lyric default-y="-91" name="verse" number="1"><syllabic>begin</syllabic><text font-size="10.8">Frie</text></lyric></note><note default-x="159"><pitch><step>G</step><octave>4</octave></pitch><duration>1</duration><voice>1</voice><type>eighth</type><stem default-y="1">up</stem><beam number="1">end</beam><lyric default-y="-91" name="verse" number="1"><syllabic>end</syllabic><text font-size="10.8">de</text></lyric></note><note default-x="206"><pitch><step>A</step><octave>4</octave></pitch><duration>2</duration><voice>1</voice><type>quarter</type><stem default-y="7">up</stem><lyric default-y="-91" name="verse" number="1"><syllabic>single</syllabic><text font-size="10.8">mit</text></lyric></note></measure><!--=======================================================--><measure number="45" width="152"><harmony default-y="36" font-size="10" font-weight="bold"><root><root-step>G</root-step></root><kind halign="center" text="m9">minor-ninth</kind></harmony><note default-x="28"><pitch><step>G</step><octave>4</octave></pitch><duration>8</duration><voice>1</voice><type>whole</type><lyric default-y="-91" name="verse" number="1"><syllabic>single</syllabic><text font-size="10.8">Dir,</text></lyric></note></measure><!--=======================================================--><measure number="46" width="241"><barline location="left"><ending default-y="71" end-length="71" font-size="6.2" number="1" type="start" /></barline><note default-x="10"><rest /><duration>4</duration><voice>1</voice><type>half</type></note><note default-x="92"><pitch><step>F</step><octave>4</octave></pitch><duration>1</duration><voice>1</voice><type>eighth</type><stem default-y="-3.5">up</stem><beam number="1">begin</beam><lyric default-y="-91" name="verse" number="1"><syllabic>begin</syllabic><text font-size="10.8">Frie</text></lyric></note><note default-x="143"><pitch><step>G</step><octave>4</octave></pitch><duration>1</duration><voice>1</voice><type>eighth</type><stem default-y="1">up</stem><beam number="1">end</beam><lyric default-y="-91" name="verse" number="1"><syllabic>end</syllabic><text font-size="10.8">de</text></lyric></note><note default-x="191"><pitch><step>A</step><octave>4</octave></pitch><duration>2</duration><voice>1</voice><type>quarter</type><stem default-y="7">up</stem><lyric default-y="-91" name="verse" number="1"><syllabic>single</syllabic><text font-size="10.8">mit</text></lyric></note></measure><!--=======================================================--><measure number="47" width="155"><harmony default-y="36" font-size="10" font-weight="bold"><root><root-step>C</root-step></root><kind halign="center" text="sus">suspended-fourth</kind></harmony><note default-x="30"><pitch><step>G</step><octave>4</octave></pitch><duration>8</duration><voice>1</voice><type>whole</type><lyric default-y="-91" name="verse" number="1"><syllabic>single</syllabic><text font-size="10.8">Dir!</text></lyric></note></measure><!--=======================================================--><measure number="48" width="352"><print new-system="yes"><system-layout><system-distance>180</system-distance></system-layout></print><harmony default-y="36" font-size="10" font-weight="bold"><root><root-step>C</root-step></root><kind halign="center" text="">major</kind></harmony><note default-x="73"><rest /><duration>4</duration><voice>1</voice><type>half</type></note><note default-x="169"><pitch><step>A</step><octave>4</octave></pitch><duration>1</duration><voice>1</voice><type>eighth</type><stem default-y="6">up</stem><beam number="1">begin</beam><lyric default-y="-91" name="verse" number="1"><syllabic>single</syllabic><text font-size="10.8">Du</text></lyric></note><note default-x="220"><pitch><step>B</step><alter>-1</alter><octave>4</octave></pitch><duration>1</duration><voice>1</voice><type>eighth</type><stem default-y="11.5">up</stem><beam number="1">end</beam><lyric default-y="-91" name="verse" number="1"><syllabic>single</syllabic><text font-size="10.8">bist</text></lyric></note><note default-x="272"><pitch><step>C</step><octave>5</octave></pitch><duration>2</duration><voice>1</voice><type>quarter</type><stem default-y="-47">down</stem><lyric default-y="-91" name="verse" number="1"><syllabic>single</syllabic><text font-size="10.8">ein</text></lyric></note><barline location="right"><bar-style>light-heavy</bar-style><ending number="1" type="stop" /><repeat direction="backward" winged="none" /></barline></measure><!--=======================================================--><measure number="49" width="298"><barline location="left"><ending default-y="71" end-length="71" font-size="6.2" number="2" type="start" /></barline><harmony default-y="36" font-size="10" font-weight="bold"><root><root-step>B</root-step><root-alter>-1</root-alter></root><kind halign="center" text="2">major</kind><bass><bass-step>C</bass-step></bass><degree print-object="no"><degree-value>2</degree-value><degree-alter>0</degree-alter><degree-type>add</degree-type></degree></harmony><note default-x="33"><rest /><duration>4</duration><voice>1</voice><type>half</type></note><note default-x="131"><pitch><step>F</step><octave>4</octave></pitch><duration>1</duration><voice>1</voice><type>eighth</type><stem default-y="-3.5">up</stem><beam number="1">begin</beam><lyric default-y="-91" name="verse" number="1"><syllabic>begin</syllabic><text font-size="10.8">Frie</text></lyric></note><note default-x="183"><pitch><step>G</step><octave>4</octave></pitch><duration>1</duration><voice>1</voice><type>eighth</type><stem default-y="1">up</stem><beam number="1">end</beam><lyric default-y="-91" name="verse" number="1"><syllabic>end</syllabic><text font-size="10.8">de</text></lyric></note><note default-x="231"><pitch><step>A</step><octave>4</octave></pitch><duration>2</duration><voice>1</voice><type>quarter</type><stem default-y="7">up</stem><lyric default-y="-91" name="verse" number="1"><syllabic>single</syllabic><text font-size="10.8">mit</text></lyric></note><barline location="right"><bar-style>light-light</bar-style><ending number="2" type="discontinue" /></barline></measure><!--=======================================================--><measure number="50" width="144"><harmony default-y="36" font-size="10" font-weight="bold"><root><root-step>F</root-step></root><kind halign="center" text="">major</kind></harmony><direction placement="above"><direction-type><rehearsal default-y="69" font-weight="bold" relative-x="-5">INSTRUMENTAL</rehearsal></direction-type></direction><note default-x="9"><pitch><step>F</step><octave>4</octave></pitch><duration>8</duration><voice>1</voice><type>whole</type><lyric default-y="-91" name="verse" number="1"><syllabic>single</syllabic><text font-size="10.8">Dir.</text></lyric></note></measure><!--=======================================================--><measure number="51" width="182"><harmony default-y="36" font-size="10" font-weight="bold"><root><root-step>C</root-step></root><kind halign="center" text="">major</kind><bass><bass-step>E</bass-step></bass></harmony><note default-x="82"><rest /><duration>8</duration><voice>1</voice><type>whole</type></note><backup><duration>8</duration></backup><forward><duration>4</duration><voice>2</voice></forward><forward><duration>4</duration><voice>2</voice></forward></measure><!--=======================================================--><measure number="52" width="196"><harmony default-y="36" font-size="10" font-weight="bold"><root><root-step>D</root-step></root><kind halign="center" text="m7">minor-seventh</kind></harmony><note default-x="89"><rest /><duration>8</duration><voice>1</voice><type>whole</type></note><backup><duration>8</duration></backup><forward><duration>4</duration><voice>2</voice></forward><forward><duration>4</duration><voice>2</voice></forward></measure><!--=======================================================--><measure number="53" width="252"><print new-system="yes"><system-layout><system-distance>180</system-distance></system-layout></print><note><rest measure="yes" /><duration>8</duration><voice>1</voice></note></measure><!--=======================================================--><measure number="54" width="233"><harmony default-y="36" font-size="10" font-weight="bold"><root><root-step>F</root-step></root><kind halign="center" text="">major</kind></harmony><note default-x="108"><rest /><duration>8</duration><voice>1</voice><type>whole</type></note><backup><duration>8</duration></backup><forward><duration>4</duration><voice>2</voice></forward><forward><duration>4</duration><voice>2</voice></forward></measure><!--=======================================================--><measure number="55" width="239"><harmony default-y="36" font-size="10" font-weight="bold"><root><root-step>C</root-step></root><kind halign="center" text="">major</kind><bass><bass-step>E</bass-step></bass></harmony><note default-x="111"><rest /><duration>8</duration><voice>1</voice><type>whole</type></note><backup><duration>8</duration></backup><forward><duration>4</duration><voice>2</voice></forward><forward><duration>4</duration><voice>2</voice></forward></measure><!--=======================================================--><measure number="56" width="256"><harmony default-y="36" font-size="10" font-weight="bold"><root><root-step>D</root-step></root><kind halign="center" text="m7">minor-seventh</kind></harmony><note default-x="119"><rest /><duration>8</duration><voice>1</voice><type>whole</type></note><backup><duration>8</duration></backup><forward><duration>4</duration><voice>2</voice></forward><forward><duration>4</duration><voice>2</voice></forward></measure><!--=======================================================--><measure number="57" width="191"><note><rest measure="yes" /><duration>8</duration><voice>1</voice></note><barline location="right"><bar-style>light-heavy</bar-style></barline></measure></part><!--=========================================================--></score-partwise>