<?xml version="1.0" encoding="UTF-8"?><!DOCTYPE score-partwise PUBLIC "-//Recordare//DTD MusicXML 2.0 Partwise//EN" "http://www.musicxml.org/dtds/partwise.dtd"[]><score-partwise version="2.0"><movement-title>Staunen</movement-title><identification><creator type="composer">Hella Heizmann</creator><encoding><software>Finale 2011 for Windows</software><software>Dolet Light for Finale 2011</software><encoding-date>2012-12-18</encoding-date><supports attribute="new-system" element="print" type="yes" value="yes" /><supports attribute="new-page" element="print" type="yes" value="yes" /></encoding><rights>CCLI-Liednummer 4907620
© 1993 Gerth Medien
Nutzung ausschließlich im Rahmen der SongSelect®-Nutzungsbedingungen. Alle Rechte vorbehalten. www.ccli.com
CCLI-Lizenznummer 2182334
</rights></identification><defaults><scaling><millimeters>6.5088</millimeters><tenths>40</tenths></scaling><page-layout><page-height>1771</page-height><page-width>1308</page-width><page-margins type="both"><left-margin>78</left-margin><right-margin>78</right-margin><top-margin>78</top-margin><bottom-margin>78</bottom-margin></page-margins></page-layout><system-layout><system-margins><left-margin>68</left-margin><right-margin>0</right-margin></system-margins><system-distance>376</system-distance><top-system-distance>244</top-system-distance></system-layout><appearance><line-width type="stem">1.4583</line-width><line-width type="beam">5</line-width><line-width type="staff">1.25</line-width><line-width type="light barline">1.4583</line-width><line-width type="heavy barline">5</line-width><line-width type="leger">1.875</line-width><line-width type="ending">1.4583</line-width><line-width type="wedge">1.4583</line-width><line-width type="enclosure">1.4583</line-width><line-width type="tuplet bracket">1.4583</line-width><note-size type="grace">50</note-size><note-size type="cue">50</note-size></appearance><music-font font-family="Maestro" font-size="18.5" /><word-font font-family="Arial" font-size="9.2" /><lyric-font font-family="Arial" font-size="10.8" name="verse" /><lyric-font font-family="Arial" font-size="10.8" name="section" /></defaults><credit page="1"><credit-words default-x="654" default-y="1688" font-size="21.6" font-weight="bold" justify="center" valign="top">Staunen</credit-words></credit><credit page="1"><credit-words default-x="1230" default-y="1620" font-size="10.8" font-style="italic" justify="right" valign="top">Text und Musik:</credit-words><credit-words font-size="10.8" font-style="normal" font-weight="bold">
Hella Heizmann</credit-words></credit><credit page="2"><credit-words default-x="654" default-y="1717" font-size="10.8" justify="center" valign="top">Staunen - 2</credit-words></credit><part-list><score-part id="P1"><part-name print-object="no">Melodie</part-name><score-instrument id="P1-I2"><instrument-name>Melodie</instrument-name></score-instrument><midi-instrument id="P1-I2"><midi-channel>1</midi-channel><midi-program>1</midi-program><volume>80</volume><pan>0</pan></midi-instrument></score-part></part-list><!--=========================================================--><part id="P1"><measure number="1" width="383"><print page-number="1"><page-layout><page-height>1771</page-height><page-width>1308</page-width><page-margins><left-margin>78</left-margin><right-margin>78</right-margin><top-margin>78</top-margin><bottom-margin>163</bottom-margin></page-margins></page-layout><measure-numbering>system</measure-numbering></print><attributes><divisions>2</divisions><key><fifths>3</fifths><mode>major</mode></key><time><beats>4</beats><beat-type>4</beat-type></time><clef><sign>G</sign><line>2</line></clef></attributes><sound tempo="96" /><harmony default-y="37" font-size="10" font-weight="bold"><root><root-step>A</root-step></root><kind halign="center" text="">major</kind></harmony><note default-x="145"><pitch><step>C</step><alter>1</alter><octave>4</octave></pitch><duration>2</duration><voice>1</voice><type>quarter</type><stem default-y="-14">up</stem><lyric default-y="-95" name="verse" number="1"><syllabic>single</syllabic><text font-size="10.8">1.</text><elision> </elision><syllabic>begin</syllabic><text font-size="10.8">Wie</text></lyric><lyric default-y="-120" name="verse" number="2"><syllabic>single</syllabic><text font-size="10.8">2.</text><elision> </elision><syllabic>begin</syllabic><text font-size="10.8">Wie</text></lyric><lyric default-y="-145" name="verse" number="3"><syllabic>single</syllabic><text font-size="10.8">3.</text><elision> </elision><syllabic>single</syllabic><text font-size="10.8">Wie</text></lyric></note><note default-x="214"><pitch><step>E</step><octave>4</octave></pitch><duration>2</duration><voice>1</voice><type>quarter</type><stem default-y="-4">up</stem><lyric default-y="-95" name="verse" number="1"><syllabic>end</syllabic><text font-size="10.8">viel</text></lyric><lyric default-y="-120" name="verse" number="2"><syllabic>end</syllabic><text font-size="10.8">viel</text></lyric><lyric default-y="-145" name="verse" number="3"><syllabic>single</syllabic><text font-size="10.8">oft</text></lyric></note><note default-x="275"><pitch><step>E</step><octave>4</octave></pitch><duration>2</duration><voice>1</voice><type>quarter</type><stem default-y="-4">up</stem><lyric default-y="-95" name="verse" number="1"><syllabic>begin</syllabic><text font-size="10.8">schö</text></lyric><lyric default-y="-120" name="verse" number="2"><syllabic>begin</syllabic><text font-size="10.8">En</text></lyric><lyric default-y="-145" name="verse" number="3"><syllabic>begin</syllabic><text font-size="10.8">ha</text></lyric></note><note default-x="335"><pitch><step>C</step><alter>1</alter><octave>4</octave></pitch><duration>2</duration><voice>1</voice><type>quarter</type><stem default-y="-14">up</stem><lyric default-y="-95" name="verse" number="1"><syllabic>end</syllabic><text font-size="10.8">ne</text></lyric><lyric default-y="-120" name="verse" number="2"><syllabic>end</syllabic><text font-size="10.8">gel</text></lyric><lyric default-y="-145" name="verse" number="3"><syllabic>end</syllabic><text font-size="10.8">be</text></lyric></note></measure><!--=======================================================--><measure number="2" width="251"><harmony default-y="37" font-size="10" font-weight="bold"><root><root-step>E</root-step></root><kind halign="center" text="">major</kind></harmony><note default-x="17"><pitch><step>B</step><octave>3</octave></pitch><duration>2</duration><voice>1</voice><type>quarter</type><stem default-y="-19">up</stem><lyric default-y="-95" name="verse" number="1"><syllabic>begin</syllabic><text font-size="10.8">Stun</text></lyric><lyric default-y="-120" name="verse" number="2"><syllabic>begin</syllabic><text font-size="10.8">wur</text></lyric><lyric default-y="-145" name="verse" number="3"><syllabic>single</syllabic><text font-size="10.8">ich</text></lyric></note><note default-x="78"><pitch><step>E</step><octave>4</octave></pitch><duration>2</duration><voice>1</voice><type>quarter</type><stem default-y="-4">up</stem><lyric default-y="-95" name="verse" number="1"><syllabic>end</syllabic><text font-size="10.8">den</text></lyric><lyric default-y="-120" name="verse" number="2"><syllabic>end</syllabic><text font-size="10.8">den</text></lyric><lyric default-y="-145" name="verse" number="3"><syllabic>begin</syllabic><text font-size="10.8">ge</text></lyric></note><note default-x="140"><pitch><step>E</step><octave>4</octave></pitch><duration>2</duration><voice>1</voice><type>quarter</type><stem default-y="-4">up</stem><lyric default-y="-95" name="verse" number="1"><syllabic>single</syllabic><text font-size="10.8">hat</text></lyric><lyric default-y="-120" name="verse" number="2"><syllabic>single</syllabic><text font-size="10.8">wohl</text></lyric><lyric default-y="-145" name="verse" number="3"><syllabic>middle</syllabic><text font-size="10.8">zwei</text></lyric></note><note default-x="201"><pitch><step>B</step><octave>3</octave></pitch><duration>2</duration><voice>1</voice><type>quarter</type><stem default-y="-19">up</stem><lyric default-y="-95" name="verse" number="1"><syllabic>single</syllabic><text font-size="10.8">mir</text></lyric><lyric default-y="-120" name="verse" number="2"><syllabic>single</syllabic><text font-size="10.8">für</text></lyric><lyric default-y="-145" name="verse" number="3"><syllabic>end</syllabic><text font-size="10.8">felt,</text></lyric></note></measure><!--=======================================================--><measure number="3" width="274"><harmony default-y="37" font-size="10" font-weight="bold"><root><root-step>F</root-step><root-alter>1</root-alter></root><kind halign="center" text="m">minor</kind></harmony><note default-x="24"><pitch><step>C</step><alter>1</alter><octave>4</octave></pitch><duration>2</duration><voice>1</voice><type>quarter</type><stem default-y="-14">up</stem><lyric default-y="-95" name="verse" number="1"><syllabic>single</syllabic><text font-size="10.8">Gott</text></lyric><lyric default-y="-120" name="verse" number="2"><syllabic>single</syllabic><text font-size="10.8">mich</text></lyric><lyric default-y="-145" name="verse" number="3"><syllabic>single</syllabic><text font-size="10.8">wie</text></lyric></note><note default-x="98"><pitch><step>F</step><alter>1</alter><octave>4</octave></pitch><duration>2</duration><voice>1</voice><type>quarter</type><stem default-y="1">up</stem><lyric default-y="-95" name="verse" number="1"><syllabic>single</syllabic><text font-size="10.8">bis</text></lyric><lyric default-y="-120" name="verse" number="2"><syllabic>single</syllabic><text font-size="10.8">schon</text></lyric><lyric default-y="-145" name="verse" number="3"><syllabic>single</syllabic><text font-size="10.8">oft</text></lyric></note><note default-x="170"><pitch><step>F</step><alter>1</alter><octave>4</octave></pitch><duration>2</duration><voice>1</voice><type>quarter</type><stem default-y="1">up</stem><lyric default-y="-95" name="verse" number="1"><syllabic>single</syllabic><text font-size="10.8">jetzt</text></lyric><lyric default-y="-120" name="verse" number="2"><syllabic>begin</syllabic><text font-size="10.8">los</text></lyric><lyric default-y="-145" name="verse" number="3"><syllabic>begin</syllabic><text font-size="10.8">hin</text></lyric></note><note default-x="226"><pitch><step>C</step><alter>1</alter><octave>4</octave></pitch><duration>2</duration><voice>1</voice><type>quarter</type><stem default-y="-14">up</stem><lyric default-y="-95" name="verse" number="1"><syllabic>begin</syllabic><text font-size="10.8">ge</text></lyric><lyric default-y="-120" name="verse" number="2"><syllabic>middle</syllabic><text font-size="10.8">ge</text></lyric><lyric default-y="-145" name="verse" number="3"><syllabic>middle</syllabic><text font-size="10.8">ter</text></lyric></note></measure><!--=======================================================--><measure number="4" width="177"><harmony default-y="37" font-size="10" font-weight="bold"><root><root-step>E</root-step></root><kind halign="center" text="">major</kind></harmony><note default-x="36"><pitch><step>E</step><octave>4</octave></pitch><duration>4</duration><voice>1</voice><type>half</type><stem default-y="-4">up</stem><lyric default-y="-95" name="verse" number="1"><syllabic>end</syllabic><text font-size="10.8">schenkt,</text></lyric><lyric default-y="-120" name="verse" number="2"><syllabic>end</syllabic><text font-size="10.8">schickt,</text></lyric><lyric default-y="-145" name="verse" number="3"><syllabic>end</syllabic><text font-size="10.8">fragt,</text></lyric></note><note default-x="104"><rest /><duration>4</duration><voice>1</voice><type>half</type></note></measure><!--=======================================================--><measure number="5" width="351"><print new-system="yes"><system-layout><system-margins><left-margin>0</left-margin><right-margin>0</right-margin></system-margins><system-distance>234</system-distance></system-layout></print><harmony default-y="37" font-size="10" font-weight="bold"><root><root-step>D</root-step></root><kind halign="center" text="">major</kind></harmony><note default-x="98"><pitch><step>E</step><octave>4</octave></pitch><duration>2</duration><voice>1</voice><type>quarter</type><stem default-y="-4">up</stem><lyric default-y="-95" name="verse" number="1"><syllabic>begin</syllabic><text font-size="10.8">wie</text></lyric><lyric default-y="-120" name="verse" number="2"><syllabic>begin</syllabic><text font-size="10.8">wie</text></lyric><lyric default-y="-145" name="verse" number="3"><syllabic>single</syllabic><text font-size="10.8">wie</text></lyric></note><note default-x="159"><pitch><step>D</step><octave>4</octave></pitch><duration>2</duration><voice>1</voice><type>quarter</type><stem default-y="-9">up</stem><lyric default-y="-95" name="verse" number="1"><syllabic>end</syllabic><text font-size="10.8">viel</text></lyric><lyric default-y="-120" name="verse" number="2"><syllabic>end</syllabic><text font-size="10.8">viel</text></lyric><lyric default-y="-145" name="verse" number="3"><syllabic>single</syllabic><text font-size="10.8">oft</text></lyric></note><note default-x="225"><pitch><step>D</step><octave>4</octave></pitch><duration>2</duration><voice>1</voice><type>quarter</type><stem default-y="-9">up</stem><lyric default-y="-95" name="verse" number="1"><syllabic>begin</syllabic><text font-size="10.8">gu</text></lyric><lyric default-y="-120" name="verse" number="2"><syllabic>single</syllabic><text font-size="10.8">Druck</text></lyric><lyric default-y="-145" name="verse" number="3"><syllabic>single</syllabic><text font-size="10.8">fast</text></lyric></note><note default-x="294"><pitch><step>D</step><octave>4</octave></pitch><duration>2</duration><voice>1</voice><type>quarter</type><stem default-y="-9">up</stem><lyric default-y="-95" name="verse" number="1"><syllabic>end</syllabic><text font-size="10.8">te</text></lyric><lyric default-y="-120" name="verse" number="2"><syllabic>single</syllabic><text font-size="10.8">hat</text></lyric><lyric default-y="-145" name="verse" number="3"><syllabic>single</syllabic><text font-size="10.8">den</text></lyric></note></measure><!--=======================================================--><measure number="6" width="251"><harmony default-y="37" font-size="10" font-weight="bold"><root><root-step>A</root-step></root><kind halign="center" text="">major</kind></harmony><note default-x="17"><pitch><step>C</step><alter>1</alter><octave>4</octave></pitch><duration>2</duration><voice>1</voice><type>quarter</type><stem default-y="-14">up</stem><lyric default-y="-95" name="verse" number="1"><syllabic>begin</syllabic><text font-size="10.8">Jah</text></lyric><lyric default-y="-120" name="verse" number="2"><syllabic>single</syllabic><text font-size="10.8">Gott</text></lyric><lyric default-y="-145" name="verse" number="3"><syllabic>begin</syllabic><text font-size="10.8">Glau</text></lyric></note><note default-x="79"><pitch><step>C</step><alter>1</alter><octave>4</octave></pitch><duration>2</duration><voice>1</voice><type>quarter</type><stem default-y="-14">up</stem><lyric default-y="-95" name="verse" number="1"><syllabic>end</syllabic><text font-size="10.8">re,</text></lyric><lyric default-y="-120" name="verse" number="2"><syllabic>single</syllabic><text font-size="10.8">von</text></lyric><lyric default-y="-145" name="verse" number="3"><syllabic>end</syllabic><text font-size="10.8">ben</text></lyric></note><note default-x="138"><pitch><step>D</step><octave>4</octave></pitch><duration>2</duration><voice>1</voice><type>quarter</type><stem default-y="-9">up</stem><lyric default-y="-95" name="verse" number="1"><syllabic>begin</syllabic><text font-size="10.8">wie</text></lyric><lyric default-y="-120" name="verse" number="2"><syllabic>single</syllabic><text font-size="10.8">mir</text></lyric><lyric default-y="-145" name="verse" number="3"><syllabic>begin</syllabic><text font-size="10.8">auf</text></lyric></note><note default-x="196"><pitch><step>C</step><alter>1</alter><octave>4</octave></pitch><duration>2</duration><voice>1</voice><type>quarter</type><stem default-y="-14">up</stem><lyric default-y="-95" name="verse" number="1"><syllabic>end</syllabic><text font-size="10.8">viel</text></lyric><lyric default-y="-120" name="verse" number="2"><syllabic>begin</syllabic><text font-size="10.8">ge</text></lyric><lyric default-y="-145" name="verse" number="3"><syllabic>middle</syllabic><text font-size="10.8">ge</text></lyric></note></measure><!--=======================================================--><measure number="7" width="166"><harmony default-y="37" font-size="10" font-weight="bold"><root><root-step>A</root-step></root><kind halign="center" text="">major</kind><bass><bass-step>E</bass-step></bass></harmony><note default-x="17"><pitch><step>C</step><alter>1</alter><octave>4</octave></pitch><duration>4</duration><voice>1</voice><type>half</type><stem default-y="-14">up</stem><lyric default-y="-95" name="verse" number="1"><syllabic>begin</syllabic><text font-size="10.8">Lie</text></lyric><lyric default-y="-120" name="verse" number="2"><syllabic>middle</syllabic><text font-size="10.8">nom</text></lyric><lyric default-y="-145" name="verse" number="3"><syllabic>middle</syllabic><text font-size="10.8">ge</text></lyric></note><harmony default-y="37" font-size="10" font-weight="bold"><root><root-step>E</root-step></root><kind halign="center" text="">major</kind></harmony><note default-x="91"><pitch><step>B</step><octave>3</octave></pitch><duration>4</duration><voice>1</voice><type>half</type><stem default-y="-19">up</stem><lyric default-y="-95" name="verse" number="1"><syllabic>end</syllabic><text font-size="10.8">be.</text></lyric><lyric default-y="-120" name="verse" number="2"><syllabic>end</syllabic><text font-size="10.8">men.</text></lyric><lyric default-y="-145" name="verse" number="3"><syllabic>end</syllabic><text font-size="10.8">ben.</text></lyric></note></measure><!--=======================================================--><measure number="8" width="112"><note default-x="47"><rest /><duration>8</duration><voice>1</voice><type>whole</type></note></measure><!--=======================================================--><measure number="9" width="272"><harmony default-y="37" font-size="10" font-weight="bold"><root><root-step>A</root-step></root><kind halign="center" text="">major</kind></harmony><note default-x="14"><pitch><step>C</step><alter>1</alter><octave>4</octave></pitch><duration>2</duration><voice>1</voice><type>quarter</type><stem default-y="-14">up</stem><lyric default-y="-95" name="verse" number="1"><syllabic>begin</syllabic><text font-size="10.8">Wie</text></lyric><lyric default-y="-120" name="verse" number="2"><syllabic>begin</syllabic><text font-size="10.8">Wie</text></lyric><lyric default-y="-145" name="verse" number="3"><syllabic>single</syllabic><text font-size="10.8">Wie</text></lyric></note><note default-x="77"><pitch><step>E</step><octave>4</octave></pitch><duration>2</duration><voice>1</voice><type>quarter</type><stem default-y="-4">up</stem><lyric default-y="-95" name="verse" number="1"><syllabic>end</syllabic><text font-size="10.8">viel</text></lyric><lyric default-y="-120" name="verse" number="2"><syllabic>end</syllabic><text font-size="10.8">viel</text></lyric><lyric default-y="-145" name="verse" number="3"><syllabic>single</syllabic><text font-size="10.8">oft</text></lyric></note><note default-x="142"><pitch><step>E</step><octave>4</octave></pitch><duration>2</duration><voice>1</voice><type>quarter</type><stem default-y="-4">up</stem><lyric default-y="-95" name="verse" number="1"><syllabic>begin</syllabic><text font-size="10.8">Hil</text></lyric><lyric default-y="-120" name="verse" number="2"><syllabic>single</syllabic><text font-size="10.8">Trost</text></lyric><lyric default-y="-145" name="verse" number="3"><syllabic>begin</syllabic><text font-size="10.8">wur</text></lyric></note><note default-x="211"><pitch><step>C</step><alter>1</alter><octave>4</octave></pitch><duration>2</duration><voice>1</voice><type>quarter</type><stem default-y="-14">up</stem><lyric default-y="-95" name="verse" number="1"><syllabic>end</syllabic><text font-size="10.8">fe</text></lyric><lyric default-y="-120" name="verse" number="2"><syllabic>single</syllabic><text font-size="10.8">fand</text></lyric><lyric default-y="-145" name="verse" number="3"><syllabic>end</syllabic><text font-size="10.8">de</text></lyric></note></measure><!--=======================================================--><measure number="10" width="375"><print new-system="yes"><system-layout><system-margins><left-margin>0</left-margin><right-margin>0</right-margin></system-margins><system-distance>234</system-distance></system-layout></print><harmony default-y="37" font-size="10" font-weight="bold"><root><root-step>E</root-step></root><kind halign="center" text="">major</kind></harmony><note default-x="104"><pitch><step>B</step><octave>3</octave></pitch><duration>2</duration><voice>1</voice><type>quarter</type><stem default-y="-19">up</stem><lyric default-y="-95" name="verse" number="1"><syllabic>begin</syllabic><text font-size="10.8">konn</text></lyric><lyric default-y="-120" name="verse" number="2"><syllabic>single</syllabic><text font-size="10.8">ich</text></lyric><lyric default-y="-145" name="verse" number="3"><syllabic>single</syllabic><text font-size="10.8">ich</text></lyric></note><note default-x="168"><pitch><step>E</step><octave>4</octave></pitch><duration>2</duration><voice>1</voice><type>quarter</type><stem default-y="-4">up</stem><lyric default-y="-95" name="verse" number="1"><syllabic>end</syllabic><text font-size="10.8">te</text></lyric><lyric default-y="-120" name="verse" number="2"><syllabic>single</syllabic><text font-size="10.8">bei</text></lyric><lyric default-y="-145" name="verse" number="3"><syllabic>begin</syllabic><text font-size="10.8">be</text></lyric></note><note default-x="241"><pitch><step>E</step><octave>4</octave></pitch><duration>2</duration><voice>1</voice><type>quarter</type><stem default-y="-4">up</stem><lyric default-y="-95" name="verse" number="1"><syllabic>single</syllabic><text font-size="10.8">ich</text></lyric><lyric default-y="-120" name="verse" number="2"><syllabic>single</syllabic><text font-size="10.8">ihm</text></lyric><lyric default-y="-145" name="verse" number="3"><syllabic>end</syllabic><text font-size="10.8">schämt</text></lyric></note><note default-x="316"><pitch><step>B</step><octave>3</octave></pitch><duration>2</duration><voice>1</voice><type>quarter</type><stem default-y="-19">up</stem><lyric default-y="-95" name="verse" number="1"><syllabic>single</syllabic><text font-size="10.8">in</text></lyric><lyric default-y="-120" name="verse" number="2"><syllabic>single</syllabic><text font-size="10.8">in</text></lyric><lyric default-y="-145" name="verse" number="3"><syllabic>single</syllabic><text font-size="10.8">und</text></lyric></note></measure><!--=======================================================--><measure number="11" width="288"><harmony default-y="37" font-size="10" font-weight="bold"><root><root-step>F</root-step><root-alter>1</root-alter></root><kind halign="center" text="m">minor</kind></harmony><note default-x="24"><pitch><step>C</step><alter>1</alter><octave>4</octave></pitch><duration>2</duration><voice>1</voice><type>quarter</type><stem default-y="-14">up</stem><lyric default-y="-95" name="verse" number="1"><syllabic>begin</syllabic><text font-size="10.8">klei</text></lyric><lyric default-y="-120" name="verse" number="2"><syllabic>begin</syllabic><text font-size="10.8">Zei</text></lyric><lyric default-y="-145" name="verse" number="3"><syllabic>single</syllabic><text font-size="10.8">wie</text></lyric></note><note default-x="87"><pitch><step>F</step><alter>1</alter><octave>4</octave></pitch><duration>2</duration><voice>1</voice><type>quarter</type><stem default-y="1">up</stem><lyric default-y="-95" name="verse" number="1"><syllabic>end</syllabic><text font-size="10.8">nen</text></lyric><lyric default-y="-120" name="verse" number="2"><syllabic>end</syllabic><text font-size="10.8">ten</text></lyric><lyric default-y="-145" name="verse" number="3"><syllabic>single</syllabic><text font-size="10.8">oft</text></lyric></note><note default-x="158"><pitch><step>F</step><alter>1</alter><octave>4</octave></pitch><duration>2</duration><voice>1</voice><type>quarter</type><stem default-y="1">up</stem><lyric default-y="-95" name="verse" number="1"><syllabic>begin</syllabic><text font-size="10.8">Din</text></lyric><lyric default-y="-120" name="verse" number="2"><syllabic>begin</syllabic><text font-size="10.8">schwe</text></lyric><lyric default-y="-145" name="verse" number="3"><syllabic>begin</syllabic><text font-size="10.8">ü</text></lyric></note><note default-x="229"><pitch><step>C</step><alter>1</alter><octave>4</octave></pitch><duration>2</duration><voice>1</voice><type>quarter</type><stem default-y="-14">up</stem><lyric default-y="-95" name="verse" number="1"><syllabic>end</syllabic><text font-size="10.8">gen</text></lyric><lyric default-y="-120" name="verse" number="2"><syllabic>end</syllabic><text font-size="10.8">rer</text></lyric><lyric default-y="-145" name="verse" number="3"><syllabic>middle</syllabic><text font-size="10.8">ber</text></lyric></note></measure><!--=======================================================--><measure number="12" width="177"><harmony default-y="37" font-size="10" font-weight="bold"><root><root-step>E</root-step></root><kind halign="center" text="">major</kind></harmony><note default-x="27"><pitch><step>E</step><octave>4</octave></pitch><duration>4</duration><voice>1</voice><type>half</type><stem default-y="-4">up</stem><lyric default-y="-95" name="verse" number="1"><syllabic>single</syllabic><text font-size="10.8">sehn,</text></lyric><lyric default-y="-120" name="verse" number="2"><syllabic>single</syllabic><text font-size="10.8">Not.</text></lyric><lyric default-y="-145" name="verse" number="3"><syllabic>end</syllabic><text font-size="10.8">rascht.</text></lyric></note><note default-x="100"><rest /><duration>4</duration><voice>1</voice><type>half</type></note></measure><!--=======================================================--><measure number="13" width="312"><harmony default-y="37" font-size="10" font-weight="bold"><root><root-step>D</root-step></root><kind halign="center" text="">major</kind></harmony><note default-x="20"><pitch><step>E</step><octave>4</octave></pitch><duration>2</duration><voice>1</voice><type>quarter</type><stem default-y="-4">up</stem><lyric default-y="-95" name="verse" number="1"><syllabic>begin</syllabic><text font-size="10.8">wüss</text></lyric><lyric default-y="-120" name="verse" number="2"><syllabic>begin</syllabic><text font-size="10.8">Wie</text></lyric><lyric default-y="-145" name="verse" number="3"><syllabic>single</syllabic><text font-size="10.8">Gott</text></lyric></note><note default-x="91"><pitch><step>D</step><octave>4</octave></pitch><duration>2</duration><voice>1</voice><type>quarter</type><stem default-y="-9">up</stem><lyric default-y="-95" name="verse" number="1"><syllabic>end</syllabic><text font-size="10.8">te</text></lyric><lyric default-y="-120" name="verse" number="2"><syllabic>end</syllabic><text font-size="10.8">viel</text></lyric><lyric default-y="-145" name="verse" number="3"><syllabic>single</syllabic><text font-size="10.8">ist</text></lyric></note><note default-x="161"><pitch><step>D</step><octave>4</octave></pitch><duration>2</duration><voice>1</voice><type>quarter</type><stem default-y="-9">up</stem><lyric default-y="-95" name="verse" number="1"><syllabic>single</syllabic><text font-size="10.8">nicht,</text></lyric><lyric default-y="-120" name="verse" number="2"><syllabic>begin</syllabic><text font-size="10.8">Zu</text></lyric><lyric default-y="-145" name="verse" number="3"><syllabic>single</syllabic><text font-size="10.8">gut</text></lyric></note><note default-x="241"><pitch><step>D</step><octave>4</octave></pitch><duration>2</duration><voice>1</voice><type>quarter</type><stem default-y="-9">up</stem><lyric default-y="-95" name="verse" number="1"><syllabic>single</syllabic><text font-size="10.8">wo</text></lyric><lyric default-y="-120" name="verse" number="2"><syllabic>end</syllabic><text font-size="10.8">spruch</text></lyric><lyric default-y="-145" name="verse" number="3"><syllabic>single</syllabic><text font-size="10.8">und</text></lyric></note></measure><!--=======================================================--><measure number="14" width="448"><print new-system="yes"><system-layout><system-margins><left-margin>0</left-margin><right-margin>0</right-margin></system-margins><system-distance>234</system-distance></system-layout></print><harmony default-y="37" font-size="10" font-weight="bold"><root><root-step>A</root-step></root><kind halign="center" text="">major</kind></harmony><note default-x="100"><pitch><step>C</step><alter>1</alter><octave>4</octave></pitch><duration>2</duration><voice>1</voice><type>quarter</type><stem default-y="-14">up</stem><lyric default-y="-95" name="verse" number="1"><syllabic>single</syllabic><text font-size="10.8">ich</text></lyric><lyric default-y="-120" name="verse" number="2"><syllabic>begin</syllabic><text font-size="10.8">ha</text></lyric><lyric default-y="-145" name="verse" number="3"><syllabic>single</syllabic><text font-size="10.8">ihm</text></lyric></note><note default-x="186"><pitch><step>C</step><alter>1</alter><octave>4</octave></pitch><duration>2</duration><voice>1</voice><type>quarter</type><stem default-y="-14">up</stem><lyric default-y="-95" name="verse" number="1"><syllabic>begin</syllabic><text font-size="10.8">al</text></lyric><lyric default-y="-120" name="verse" number="2"><syllabic>end</syllabic><text font-size="10.8">be</text></lyric><lyric default-y="-145" name="verse" number="3"><syllabic>begin</syllabic><text font-size="10.8">ge</text></lyric></note><note default-x="273"><pitch><step>D</step><octave>4</octave></pitch><duration>2</duration><voice>1</voice><type>quarter</type><stem default-y="-9">up</stem><lyric default-y="-95" name="verse" number="1"><syllabic>middle</syllabic><text font-size="10.8">lein</text></lyric><lyric default-y="-120" name="verse" number="2"><syllabic>single</syllabic><text font-size="10.8">ich</text></lyric><lyric default-y="-145" name="verse" number="3"><syllabic>end</syllabic><text font-size="10.8">hört</text></lyric></note><note default-x="360"><pitch><step>C</step><alter>1</alter><octave>4</octave></pitch><duration>2</duration><voice>1</voice><type>quarter</type><stem default-y="-14">up</stem><lyric default-y="-95" name="verse" number="1"><syllabic>end</syllabic><text font-size="10.8">ne</text></lyric><lyric default-y="-120" name="verse" number="2"><syllabic>begin</syllabic><text font-size="10.8">be</text></lyric><lyric default-y="-145" name="verse" number="3"><syllabic>single</syllabic><text font-size="10.8">mein</text></lyric></note></measure><!--=======================================================--><measure number="15" width="242"><harmony default-y="37" font-size="10" font-weight="bold"><root><root-step>A</root-step></root><kind halign="center" text="">major</kind><bass><bass-step>E</bass-step></bass></harmony><note default-x="17"><pitch><step>C</step><alter>1</alter><octave>4</octave></pitch><duration>4</duration><voice>1</voice><type>half</type><stem default-y="-14">up</stem><lyric default-y="-95" name="verse" number="1"><syllabic>begin</syllabic><text font-size="10.8">blie</text></lyric><lyric default-y="-120" name="verse" number="2"><syllabic>middle</syllabic><text font-size="10.8">kom</text></lyric><lyric default-y="-145" name="verse" number="3"><syllabic>begin</syllabic><text font-size="10.8">Le</text></lyric></note><harmony default-y="37" font-size="10" font-weight="bold"><root><root-step>E</root-step></root><kind halign="center" text="">major</kind></harmony><note default-x="129"><pitch><step>B</step><octave>3</octave></pitch><duration>4</duration><voice>1</voice><type>half</type><stem default-y="-19">up</stem><lyric default-y="-95" name="verse" number="1"><syllabic>end</syllabic><text font-size="10.8">be.</text></lyric><lyric default-y="-120" name="verse" number="2"><syllabic>end</syllabic><text font-size="10.8">men.</text></lyric><lyric default-y="-145" name="verse" number="3"><syllabic>end</syllabic><text font-size="10.8">ben.</text></lyric></note></measure><!--=======================================================--><measure number="16" width="463"><note default-x="10"><rest /><duration>3</duration><voice>1</voice><type>quarter</type><dot /></note><note default-x="152"><pitch><step>B</step><octave>3</octave></pitch><duration>1</duration><voice>1</voice><type>eighth</type><stem default-y="-19">up</stem><lyric default-y="-95" name="verse" number="1"><syllabic>single</syllabic><text font-size="10.8">Da</text></lyric></note><note default-x="218"><pitch><step>B</step><octave>3</octave></pitch><duration>1</duration><voice>1</voice><type>eighth</type><stem default-y="-20">up</stem><beam number="1">begin</beam><lyric default-y="-95" name="verse" number="1"><syllabic>single</syllabic><text font-size="10.8">kann</text></lyric></note><note default-x="284"><pitch><step>C</step><alter>1</alter><octave>4</octave></pitch><duration>1</duration><voice>1</voice><type>eighth</type><stem default-y="-15">up</stem><beam number="1">end</beam><lyric default-y="-95" name="verse" number="1"><syllabic>single</syllabic><text font-size="10.8">man</text></lyric></note><note default-x="350"><pitch><step>D</step><octave>4</octave></pitch><duration>2</duration><voice>1</voice><type>quarter</type><stem default-y="-9">up</stem><lyric default-y="-95" name="verse" number="1"><syllabic>single</syllabic><text font-size="10.8">nur</text></lyric></note><barline location="right"><bar-style>light-light</bar-style></barline></measure><!--=======================================================--><measure number="17" width="359"><print new-system="yes"><system-layout><system-margins><left-margin>0</left-margin><right-margin>0</right-margin></system-margins><system-distance>234</system-distance></system-layout></print><harmony default-y="37" font-size="10" font-weight="bold"><root><root-step>A</root-step></root><kind halign="center" text="">major</kind></harmony><note default-x="101"><pitch><step>D</step><octave>4</octave></pitch><duration>2</duration><voice>1</voice><type>quarter</type><stem default-y="-9">up</stem><lyric default-y="-95" name="verse" number="1"><syllabic>begin</syllabic><text font-size="10.8">stau</text></lyric></note><note default-x="161"><pitch><step>C</step><alter>1</alter><octave>4</octave></pitch><duration>2</duration><voice>1</voice><type>quarter</type><stem default-y="-14">up</stem><lyric default-y="-95" name="verse" number="1"><syllabic>end</syllabic><text font-size="10.8">nen</text></lyric></note><note default-x="206"><pitch><step>C</step><alter>1</alter><octave>4</octave></pitch><duration>2</duration><voice>1</voice><type>quarter</type><stem default-y="-14">up</stem><lyric default-y="-95" name="verse" number="1"><syllabic>begin</syllabic><text font-size="10.8">ü</text></lyric></note><note default-x="250"><pitch><step>B</step><octave>3</octave></pitch><duration>1</duration><voice>1</voice><type>eighth</type><stem default-y="-20">up</stem><beam number="1">begin</beam><lyric default-y="-95" name="verse" number="1"><syllabic>end</syllabic><text font-size="10.8">ber</text></lyric></note><note default-x="309"><pitch><step>C</step><alter>1</alter><octave>4</octave></pitch><duration>1</duration><tie type="start" /><voice>1</voice><type>eighth</type><stem default-y="-15">up</stem><beam number="1">end</beam><notations><tied type="start" /></notations><lyric default-y="-95" name="verse" number="1"><syllabic>single</syllabic><text font-size="10.8">Gott</text><extend /></lyric></note></measure><!--=======================================================--><measure number="18" width="265"><note default-x="14"><pitch><step>C</step><alter>1</alter><octave>4</octave></pitch><duration>2</duration><tie type="stop" /><voice>1</voice><type>quarter</type><stem default-y="-14">up</stem><notations><tied type="stop" /></notations></note><note default-x="57"><rest /><duration>1</duration><voice>1</voice><type>eighth</type></note><note default-x="85"><pitch><step>C</step><alter>1</alter><octave>4</octave></pitch><duration>1</duration><voice>1</voice><type>eighth</type><stem default-y="-14">up</stem><lyric default-y="-95" name="verse" number="1"><syllabic>single</syllabic><text font-size="10.8">und</text></lyric></note><note default-x="128"><pitch><step>C</step><alter>1</alter><octave>4</octave></pitch><duration>1</duration><voice>1</voice><type>eighth</type><stem default-y="-15">up</stem><beam number="1">begin</beam><lyric default-y="-95" name="verse" number="1"><syllabic>begin</syllabic><text font-size="10.8">ü</text></lyric></note><note default-x="169"><pitch><step>D</step><octave>4</octave></pitch><duration>1</duration><voice>1</voice><type>eighth</type><stem default-y="-9.5">up</stem><beam number="1">end</beam><lyric default-y="-95" name="verse" number="1"><syllabic>end</syllabic><text font-size="10.8">ber</text></lyric></note><note default-x="220"><pitch><step>E</step><octave>4</octave></pitch><duration>2</duration><voice>1</voice><type>quarter</type><stem default-y="-4">up</stem><lyric default-y="-95" name="verse" number="1"><syllabic>single</syllabic><text font-size="10.8">die</text></lyric></note></measure><!--=======================================================--><measure number="19" width="271"><harmony default-y="37" font-size="10" font-weight="bold"><root><root-step>D</root-step></root><kind halign="center" text="">major</kind></harmony><note default-x="18"><pitch><step>E</step><octave>4</octave></pitch><duration>2</duration><voice>1</voice><type>quarter</type><stem default-y="-4">up</stem><lyric default-y="-95" name="verse" number="1"><syllabic>begin</syllabic><text font-size="10.8">Wun</text></lyric></note><note default-x="80"><pitch><step>D</step><octave>4</octave></pitch><duration>2</duration><voice>1</voice><type>quarter</type><stem default-y="-9">up</stem><lyric default-y="-95" name="verse" number="1"><syllabic>end</syllabic><text font-size="10.8">der,</text></lyric></note><note default-x="135"><pitch><step>D</step><octave>4</octave></pitch><duration>2</duration><voice>1</voice><type>quarter</type><stem default-y="-9">up</stem><lyric default-y="-95" name="verse" number="1"><syllabic>single</syllabic><text font-size="10.8">die</text></lyric></note><note default-x="182"><pitch><step>C</step><alter>1</alter><octave>4</octave></pitch><duration>1</duration><voice>1</voice><type>eighth</type><stem default-y="-15">up</stem><beam number="1">begin</beam><lyric default-y="-95" name="verse" number="1"><syllabic>single</syllabic><text font-size="10.8">er</text></lyric></note><note default-x="229"><pitch><step>D</step><octave>4</octave></pitch><duration>1</duration><tie type="start" /><voice>1</voice><type>eighth</type><stem default-y="-9.5">up</stem><beam number="1">end</beam><notations><tied type="start" /></notations><lyric default-y="-95" name="verse" number="1"><syllabic>single</syllabic><text font-size="10.8">tut,</text><extend /></lyric></note></measure><!--=======================================================--><measure number="20" width="257"><note default-x="10"><pitch><step>D</step><octave>4</octave></pitch><duration>2</duration><tie type="stop" /><voice>1</voice><type>quarter</type><stem default-y="-9">up</stem><notations><tied type="stop" /></notations></note><note default-x="55"><rest /><duration>2</duration><voice>1</voice><type>quarter</type></note><note default-x="98"><pitch><step>D</step><octave>4</octave></pitch><duration>1</duration><voice>1</voice><type>eighth</type><stem default-y="-9.5">up</stem><beam number="1">begin</beam><lyric default-y="-95" name="verse" number="1"><syllabic>begin</syllabic><text font-size="10.8">ein</text></lyric></note><note default-x="154"><pitch><step>E</step><octave>4</octave></pitch><duration>1</duration><voice>1</voice><type>eighth</type><stem default-y="-5">up</stem><beam number="1">end</beam><lyric default-y="-95" name="verse" number="1"><syllabic>end</syllabic><text font-size="10.8">fach</text></lyric></note><note default-x="209"><pitch><step>F</step><alter>1</alter><octave>4</octave></pitch><duration>2</duration><voice>1</voice><type>quarter</type><stem default-y="1">up</stem><lyric default-y="-95" name="verse" number="1"><syllabic>single</syllabic><text font-size="10.8">nur</text></lyric></note></measure><!--=======================================================--><measure number="21" width="294"><print new-page="yes" page-number="2"><system-layout><system-margins><left-margin>0</left-margin><right-margin>0</right-margin></system-margins><top-system-distance>122</top-system-distance></system-layout></print><harmony default-y="37" font-size="10" font-weight="bold"><root><root-step>E</root-step></root><kind halign="center" text="">major</kind></harmony><note default-x="101"><pitch><step>F</step><alter>1</alter><octave>4</octave></pitch><duration>3</duration><voice>1</voice><type>quarter</type><dot /><stem default-y="1">up</stem><lyric default-y="-95" name="verse" number="1"><syllabic>begin</syllabic><text font-size="10.8">stau</text></lyric></note><note default-x="165"><pitch><step>E</step><octave>4</octave></pitch><duration>1</duration><tie type="start" /><voice>1</voice><type>eighth</type><stem default-y="-4">up</stem><notations><tied type="start" /></notations><lyric default-y="-95" name="verse" number="1"><syllabic>end</syllabic><text font-size="10.8">nen.</text><extend /></lyric></note><note default-x="204"><pitch><step>E</step><octave>4</octave></pitch><duration>2</duration><tie type="stop" /><voice>1</voice><type>quarter</type><stem default-y="-4">up</stem><notations><tied type="stop" /></notations></note><note default-x="248"><rest /><duration>2</duration><voice>1</voice><type>quarter</type></note></measure><!--=======================================================--><measure number="22" width="302"><note default-x="10"><rest /><duration>3</duration><voice>1</voice><type>quarter</type><dot /></note><note default-x="73"><pitch><step>E</step><octave>4</octave></pitch><duration>1</duration><voice>1</voice><type>eighth</type><stem default-y="-4">up</stem><lyric default-y="-95" name="verse" number="1"><syllabic>single</syllabic><text font-size="10.8">Da</text></lyric></note><note default-x="131"><pitch><step>E</step><octave>4</octave></pitch><duration>1</duration><voice>1</voice><type>eighth</type><stem default-y="-4.5">up</stem><beam number="1">begin</beam><lyric default-y="-95" name="verse" number="1"><syllabic>single</syllabic><text font-size="10.8">kann</text></lyric></note><note default-x="195"><pitch><step>F</step><alter>1</alter><octave>4</octave></pitch><duration>1</duration><voice>1</voice><type>eighth</type><stem default-y="0">up</stem><beam number="1">end</beam><lyric default-y="-95" name="verse" number="1"><syllabic>single</syllabic><text font-size="10.8">man</text></lyric></note><note default-x="251"><pitch><step>G</step><alter>1</alter><octave>4</octave></pitch><duration>2</duration><voice>1</voice><type>quarter</type><stem default-y="6">up</stem><lyric default-y="-95" name="verse" number="1"><syllabic>single</syllabic><text font-size="10.8">nur</text></lyric></note></measure><!--=======================================================--><measure number="23" width="288"><harmony default-y="37" font-size="10" font-weight="bold"><root><root-step>F</root-step><root-alter>1</root-alter></root><kind halign="center" text="m">minor</kind></harmony><note default-x="24"><pitch><step>G</step><alter>1</alter><octave>4</octave></pitch><duration>2</duration><voice>1</voice><type>quarter</type><stem default-y="6">up</stem><lyric default-y="-95" name="verse" number="1"><syllabic>begin</syllabic><text font-size="10.8">stau</text></lyric></note><note default-x="85"><pitch><step>A</step><octave>4</octave></pitch><duration>2</duration><voice>1</voice><type>quarter</type><stem default-y="11">up</stem><lyric default-y="-95" name="verse" number="1"><syllabic>end</syllabic><text font-size="10.8">nen</text></lyric></note><note default-x="133"><pitch><step>A</step><octave>4</octave></pitch><duration>2</duration><voice>1</voice><type>quarter</type><stem default-y="11">up</stem><lyric default-y="-95" name="verse" number="1"><syllabic>begin</syllabic><text font-size="10.8">ü</text></lyric></note><note default-x="179"><pitch><step>G</step><alter>1</alter><octave>4</octave></pitch><duration>1</duration><voice>1</voice><type>eighth</type><stem default-y="5">up</stem><beam number="1">begin</beam><lyric default-y="-95" name="verse" number="1"><syllabic>end</syllabic><text font-size="10.8">ber</text></lyric></note><note default-x="237"><pitch><step>A</step><octave>4</octave></pitch><duration>1</duration><tie type="start" /><voice>1</voice><type>eighth</type><stem default-y="10">up</stem><beam number="1">end</beam><notations><tied type="start" /></notations><lyric default-y="-95" name="verse" number="1"><syllabic>single</syllabic><text font-size="10.8">Gott</text><extend /></lyric></note></measure><!--=======================================================--><measure number="24" width="268"><note default-x="10"><pitch><step>A</step><octave>4</octave></pitch><duration>2</duration><tie type="stop" /><voice>1</voice><type>quarter</type><stem default-y="11">up</stem><notations><tied type="stop" /></notations></note><note default-x="56"><rest /><duration>1</duration><voice>1</voice><type>eighth</type></note><note default-x="84"><pitch><step>A</step><octave>4</octave></pitch><duration>1</duration><voice>1</voice><type>eighth</type><stem default-y="11">up</stem><lyric default-y="-95" name="verse" number="1"><syllabic>single</syllabic><text font-size="10.8">und</text></lyric></note><note default-x="128"><pitch><step>A</step><octave>4</octave></pitch><duration>1</duration><voice>1</voice><type>eighth</type><stem default-y="10">up</stem><beam number="1">begin</beam><lyric default-y="-95" name="verse" number="1"><syllabic>begin</syllabic><text font-size="10.8">ü</text></lyric></note><note default-x="169"><pitch><step>G</step><alter>1</alter><octave>4</octave></pitch><duration>1</duration><voice>1</voice><type>eighth</type><stem default-y="5">up</stem><beam number="1">end</beam><lyric default-y="-95" name="verse" number="1"><syllabic>end</syllabic><text font-size="10.8">ber</text></lyric></note><note default-x="221"><pitch><step>A</step><octave>4</octave></pitch><duration>2</duration><voice>1</voice><type>quarter</type><stem default-y="11">up</stem><lyric default-y="-95" name="verse" number="1"><syllabic>single</syllabic><text font-size="10.8">die</text></lyric></note></measure><!--=======================================================--><measure number="25" width="492"><print new-system="yes"><system-layout><system-margins><left-margin>0</left-margin><right-margin>0</right-margin></system-margins><system-distance>184</system-distance></system-layout></print><harmony default-y="37" font-size="10" font-weight="bold"><root><root-step>B</root-step></root><kind halign="center" text="m">minor</kind></harmony><note default-x="107"><pitch><step>B</step><octave>4</octave></pitch><duration>2</duration><voice>1</voice><type>quarter</type><stem default-y="-55.5">down</stem><lyric default-y="-95" name="verse" number="1"><syllabic>begin</syllabic><text font-size="10.8">Wun</text></lyric></note><note default-x="197"><pitch><step>B</step><octave>4</octave></pitch><duration>2</duration><voice>1</voice><type>quarter</type><stem default-y="-55.5">down</stem><lyric default-y="-95" name="verse" number="1"><syllabic>end</syllabic><text font-size="10.8">der,</text></lyric></note><note default-x="288"><pitch><step>B</step><octave>4</octave></pitch><duration>2</duration><voice>1</voice><type>quarter</type><stem default-y="-55.5">down</stem><lyric default-y="-95" name="verse" number="1"><syllabic>single</syllabic><text font-size="10.8">die</text></lyric></note><note default-x="378"><pitch><step>A</step><octave>4</octave></pitch><duration>1</duration><voice>1</voice><type>eighth</type><stem default-y="10">up</stem><beam number="1">begin</beam><lyric default-y="-95" name="verse" number="1"><syllabic>single</syllabic><text font-size="10.8">er</text></lyric></note><note default-x="435"><pitch><step>B</step><octave>4</octave></pitch><duration>1</duration><tie type="start" /><voice>1</voice><type>eighth</type><stem default-y="15">up</stem><beam number="1">end</beam><notations><tied type="start" /></notations><lyric default-y="-95" name="verse" number="1"><syllabic>single</syllabic><text font-size="10.8">tut,</text><extend /></lyric></note></measure><!--=======================================================--><measure number="26" width="357"><harmony default-y="37" font-size="10" font-weight="bold"><root><root-step>E</root-step></root><kind halign="center" text="">major</kind></harmony><note default-x="12"><pitch><step>B</step><octave>4</octave></pitch><duration>4</duration><tie type="stop" /><voice>1</voice><type>half</type><stem default-y="-55.5">down</stem><notations><tied type="stop" /></notations></note><note default-x="155"><pitch><step>B</step><octave>4</octave></pitch><duration>1</duration><voice>1</voice><type>eighth</type><stem default-y="15">up</stem><beam number="1">begin</beam><lyric default-y="-95" name="verse" number="1"><syllabic>begin</syllabic><text font-size="10.8">ein</text></lyric></note><note default-x="211"><pitch><step>A</step><octave>4</octave></pitch><duration>1</duration><voice>1</voice><type>eighth</type><stem default-y="10">up</stem><beam number="1">end</beam><lyric default-y="-95" name="verse" number="1"><syllabic>end</syllabic><text font-size="10.8">fach</text></lyric></note><note default-x="266"><pitch><step>G</step><alter>1</alter><octave>4</octave></pitch><duration>2</duration><voice>1</voice><type>quarter</type><stem default-y="6">up</stem><lyric default-y="-95" name="verse" number="1"><syllabic>single</syllabic><text font-size="10.8">nur</text></lyric></note></measure><!--=======================================================--><measure number="27" width="303"><note default-x="15"><pitch><step>G</step><alter>1</alter><octave>4</octave></pitch><duration>3</duration><voice>1</voice><type>quarter</type><dot /><stem default-y="6">up</stem><lyric default-y="-95" name="verse" number="1"><syllabic>begin</syllabic><text font-size="10.8">stau</text></lyric></note><harmony default-y="37" font-size="10" font-weight="bold"><root><root-step>A</root-step></root><kind halign="center" text="">major</kind></harmony><note default-x="108"><pitch><step>A</step><octave>4</octave></pitch><duration>1</duration><tie type="start" /><voice>1</voice><type>eighth</type><stem default-y="10.5">up</stem><notations><tied type="start" /></notations><lyric default-y="-95" name="verse" number="1"><syllabic>end</syllabic><text font-size="10.8">nen.</text><extend /></lyric></note><note default-x="152"><pitch><step>A</step><octave>4</octave></pitch><duration>2</duration><tie type="stop" /><voice>1</voice><type>quarter</type><stem default-y="10.5">up</stem><notations><tied type="stop" /></notations></note><note default-x="223"><rest /><duration>2</duration><voice>1</voice><type>quarter</type></note><barline location="right"><bar-style>light-heavy</bar-style></barline></measure></part><!--=========================================================--></score-partwise>