<?xml version="1.0" encoding="UTF-8" standalone="no"?><!DOCTYPE score-partwise PUBLIC "-//Recordare//DTD MusicXML 3.0 Partwise//EN" "http://www.musicxml.org/dtds/partwise.dtd"[]><score-partwise version="3.0"><movement-title>Unser Vater</movement-title><identification><creator type="composer">Christoph Zehendner und
Hans Werner Scharnowski</creator><encoding><software>Finale 2014 for Windows</software><software>Dolet Light for Finale 2014</software><encoding-date>2016-11-18</encoding-date><supports attribute="new-system" element="print" type="yes" value="yes" /><supports attribute="new-page" element="print" type="yes" value="yes" /><supports element="accidental" type="yes" /><supports element="beam" type="yes" /><supports element="stem" type="yes" /></encoding><rights>CCLI-Liednummer 4334523
© Auf den Punkt, Siegen | Hit'n Run Publishing
Nutzung ausschließlich im Rahmen der SongSelect®-Nutzungsbedingungen. Alle Rechte vorbehalten. www.ccli.com
CCLI-Lizenznummer 2182334
</rights></identification><defaults><scaling><millimeters>6.5088</millimeters><tenths>40</tenths></scaling><page-layout><page-height>1717</page-height><page-width>1327</page-width><page-margins type="both"><left-margin>78</left-margin><right-margin>78</right-margin><top-margin>78</top-margin><bottom-margin>78</bottom-margin></page-margins></page-layout><system-layout><system-margins><left-margin>0</left-margin><right-margin>0</right-margin></system-margins><system-distance>190</system-distance><top-system-distance>117</top-system-distance></system-layout><appearance><line-width type="stem">1.4583</line-width><line-width type="beam">5</line-width><line-width type="staff">1.25</line-width><line-width type="light barline">1.4583</line-width><line-width type="heavy barline">5</line-width><line-width type="leger">1.875</line-width><line-width type="ending">1.4583</line-width><line-width type="wedge">1.4583</line-width><line-width type="enclosure">1.4583</line-width><line-width type="tuplet bracket">1.4583</line-width><note-size type="grace">50</note-size><note-size type="cue">50</note-size><distance type="hyphen">240</distance><distance type="beam">8</distance></appearance><music-font font-family="Maestro,engraved" font-size="18.5" /><word-font font-family="Arial" font-size="9.2" /><lyric-font font-family="Arial" font-size="10.8" name="verse" /><lyric-font font-family="Arial" font-size="10.8" name="section" /></defaults><credit page="1"><credit-type>title</credit-type><credit-words default-x="663" default-y="1649" font-size="21.6" font-weight="bold" justify="center" valign="top">Unser Vater</credit-words></credit><credit page="1"><credit-words default-x="1249" default-y="1576" font-size="10.8" font-style="italic" justify="right" valign="top">Text und Musik:</credit-words></credit><credit page="1"><credit-type>composer</credit-type><credit-words default-x="1249" default-y="1552" font-size="10.8" font-weight="bold" justify="right" valign="top" xml:space="preserve">Christoph Zehendner und
Hans Werner Scharnowski</credit-words></credit><part-list><score-part id="P1"><part-name print-object="no">Vocals</part-name><score-instrument id="P1-I2"><instrument-name>Melody</instrument-name></score-instrument><midi-instrument id="P1-I2"><midi-channel>1</midi-channel><midi-program>1</midi-program><volume>80</volume><pan>0</pan></midi-instrument></score-part></part-list><!--=========================================================--><part id="P1"><measure implicit="yes" number="0" width="321"><print><page-layout><page-height>1717</page-height><page-width>1327</page-width><page-margins><left-margin>78</left-margin><right-margin>78</right-margin><top-margin>190</top-margin><bottom-margin>163</bottom-margin></page-margins></page-layout><system-layout><system-margins><left-margin>68</left-margin><right-margin>0</right-margin></system-margins></system-layout><measure-numbering>system</measure-numbering></print><attributes><divisions>2</divisions><key><fifths>4</fifths><mode>major</mode></key><time><beats>3</beats><beat-type>4</beat-type></time><clef><sign>G</sign><line>2</line></clef></attributes><sound tempo="96" /><note default-x="169"><pitch><step>E</step><octave>4</octave></pitch><duration>1</duration><voice>1</voice><type>eighth</type><stem default-y="-8.5">up</stem><beam number="1">begin</beam><lyric default-y="-91" name="verse" number="1"><syllabic>single</syllabic><text font-size="10.8">1.</text><elision> </elision><syllabic>single</syllabic><text font-size="10.8">Bist</text><elision> </elision><syllabic>single</syllabic><text font-size="10.8" /><elision> </elision><syllabic>single</syllabic><text font-size="10.8" /></lyric><lyric default-y="-115" name="verse" number="2" relative-x="-6"><syllabic>single</syllabic><text font-size="10.8">2.</text><elision> </elision><syllabic>single</syllabic><text font-size="10.8">Dei</text><elision> </elision><syllabic>single</syllabic><text font-size="10.8" /><elision> </elision><syllabic>begin</syllabic><text font-size="10.8" /></lyric><lyric default-y="-140" name="verse" number="3" relative-x="-5"><syllabic>single</syllabic><text font-size="10.8">3.</text><elision> </elision><syllabic>single</syllabic><text font-size="10.8">Gib</text><elision> </elision><syllabic>single</syllabic><text font-size="10.8" /><elision> </elision><syllabic>single</syllabic><text font-size="10.8" /></lyric><lyric default-y="-165" name="verse" number="4"><syllabic>single</syllabic><text font-size="10.8">4.</text><elision> </elision><syllabic>single</syllabic><text font-size="10.8">Leh</text><elision> </elision><syllabic>single</syllabic><text font-size="10.8" /><elision> </elision><syllabic>single</syllabic><text font-size="10.8" /><elision> </elision><syllabic>begin</syllabic><text font-size="10.8" /></lyric><lyric default-y="-190" name="verse" number="5"><syllabic>single</syllabic><text font-size="10.8">5.</text><elision> </elision><syllabic>single</syllabic><text font-size="10.8">Nimm</text></lyric><lyric default-y="-215" name="verse" number="6"><syllabic>single</syllabic><text font-size="10.8">6.</text><elision> </elision><syllabic>single</syllabic><text font-size="10.8">Dei</text><elision> </elision><syllabic>single</syllabic><text font-size="10.8" /><elision> </elision><syllabic>single</syllabic><text font-size="10.8" /><elision> </elision><syllabic>begin</syllabic><text font-size="10.8" /></lyric></note><note default-x="241"><pitch><step>F</step><alter>1</alter><octave>4</octave></pitch><duration>1</duration><voice>1</voice><type>eighth</type><stem default-y="-4">up</stem><beam number="1">end</beam><lyric default-y="-91" name="verse" number="1"><syllabic>single</syllabic><text font-size="10.8">zu</text></lyric><lyric default-y="-115" name="verse" number="2"><syllabic>end</syllabic><text font-size="10.8">ne</text></lyric><lyric default-y="-140" name="verse" number="3"><syllabic>single</syllabic><text font-size="10.8">uns</text></lyric><lyric default-y="-165" name="verse" number="4"><syllabic>end</syllabic><text font-size="10.8" /><elision> </elision><syllabic>single</syllabic><text font-size="10.8">re</text></lyric><lyric default-y="-190" name="verse" number="5"><syllabic>begin</syllabic><text font-size="10.8">Ge</text></lyric><lyric default-y="-215" name="verse" number="6"><syllabic>end</syllabic><text font-size="10.8" /><elision> </elision><syllabic>single</syllabic><text font-size="10.8">ne</text></lyric></note><barline location="right"><bar-style>light-light</bar-style></barline></measure><!--=======================================================--><measure number="1" width="247"><harmony default-y="36" font-size="10" font-weight="bold"><root><root-step>E</root-step></root><kind halign="center" text="">major</kind></harmony><direction placement="above"><direction-type><rehearsal default-y="69" font-weight="bold" relative-x="-14">VERS</rehearsal></direction-type></direction><note default-x="23"><pitch><step>G</step><alter>1</alter><octave>4</octave></pitch><duration>2</duration><voice>1</voice><type>quarter</type><stem default-y="2">up</stem><lyric default-y="-91" name="verse" number="1"><syllabic>single</syllabic><text font-size="10.8">uns</text></lyric><lyric default-y="-115" name="verse" number="2"><syllabic>begin</syllabic><text font-size="10.8">Herr</text></lyric><lyric default-y="-140" name="verse" number="3"><syllabic>single</syllabic><text font-size="10.8">das,</text></lyric><lyric default-y="-165" name="verse" number="4"><syllabic>single</syllabic><text font-size="10.8">uns,</text></lyric><lyric default-y="-190" name="verse" number="5"><syllabic>middle</syllabic><text font-size="10.8">dan</text></lyric><lyric default-y="-215" name="verse" number="6"><syllabic>single</syllabic><text font-size="10.8">Macht</text></lyric></note><note default-x="104"><pitch><step>G</step><alter>1</alter><octave>4</octave></pitch><duration>2</duration><voice>1</voice><type>quarter</type><stem default-y="2">up</stem><lyric default-y="-91" name="verse" number="1"><syllabic>single</syllabic><text font-size="10.8">wie</text></lyric><lyric default-y="-115" name="verse" number="2"><syllabic>end</syllabic><text font-size="10.8">schaft</text></lyric><lyric default-y="-140" name="verse" number="3"><syllabic>single</syllabic><text font-size="10.8">was</text></lyric><lyric default-y="-165" name="verse" number="4"><syllabic>single</syllabic><text font-size="10.8">zu</text></lyric><lyric default-y="-190" name="verse" number="5"><syllabic>end</syllabic><text font-size="10.8">ken</text></lyric><lyric default-y="-215" name="verse" number="6"><syllabic>single</syllabic><text font-size="10.8">hat</text></lyric></note><note default-x="181"><pitch><step>G</step><alter>1</alter><octave>4</octave></pitch><duration>2</duration><voice>1</voice><type>quarter</type><stem default-y="2">up</stem><lyric default-y="-91" name="verse" number="1"><syllabic>single</syllabic><text font-size="10.8">ein</text></lyric><lyric default-y="-115" name="verse" number="2"><syllabic>single</syllabic><text font-size="10.8">soll</text></lyric><lyric default-y="-140" name="verse" number="3"><syllabic>single</syllabic><text font-size="10.8">wir</text></lyric><lyric default-y="-165" name="verse" number="4"><syllabic>begin</syllabic><text font-size="10.8">ver</text></lyric><lyric default-y="-190" name="verse" number="5"><syllabic>single</syllabic><text font-size="10.8">des</text></lyric><lyric default-y="-215" name="verse" number="6"><syllabic>single</syllabic><text font-size="10.8">kein</text></lyric></note></measure><!--=======================================================--><measure number="2" width="309"><harmony default-y="36" font-size="10" font-weight="bold"><root><root-step>F</root-step><root-alter>1</root-alter></root><kind halign="center" text="m">minor</kind><bass><bass-step>E</bass-step></bass></harmony><note default-x="27"><pitch><step>F</step><alter>1</alter><octave>4</octave></pitch><duration>2</duration><voice>1</voice><type>quarter</type><stem default-y="-3">up</stem><lyric default-y="-91" name="verse" number="1"><syllabic>begin</syllabic><text font-size="10.8">Va</text></lyric><lyric default-y="-115" name="verse" number="2"><syllabic>begin</syllabic><text font-size="10.8">kom</text></lyric><lyric default-y="-140" name="verse" number="3"><syllabic>begin</syllabic><text font-size="10.8">brau</text></lyric><lyric default-y="-165" name="verse" number="4"><syllabic>middle</syllabic><text font-size="10.8">ge</text></lyric><lyric default-y="-190" name="verse" number="5"><syllabic>begin</syllabic><text font-size="10.8">Zwei</text></lyric><lyric default-y="-215" name="verse" number="6"><syllabic>begin</syllabic><text font-size="10.8">En</text></lyric></note><harmony default-y="36" font-size="10" font-weight="bold"><root><root-step>E</root-step></root><kind halign="center" text="">major</kind></harmony><note default-x="99"><pitch><step>E</step><octave>4</octave></pitch><duration>2</duration><voice>1</voice><type>quarter</type><stem default-y="-8">up</stem><lyric default-y="-91" name="verse" number="1"><syllabic>end</syllabic><text font-size="10.8">ter,</text></lyric><lyric default-y="-115" name="verse" number="2"><syllabic>end</syllabic><text font-size="10.8">men.</text></lyric><lyric default-y="-140" name="verse" number="3"><syllabic>end</syllabic><text font-size="10.8">chen,</text></lyric><lyric default-y="-165" name="verse" number="4"><syllabic>end</syllabic><text font-size="10.8">ben,</text></lyric><lyric default-y="-190" name="verse" number="5"><syllabic>end</syllabic><text font-size="10.8">fels</text></lyric><lyric default-y="-215" name="verse" number="6"><syllabic>end</syllabic><text font-size="10.8">de,</text></lyric></note><note default-x="171"><pitch><step>G</step><alter>1</alter><octave>4</octave></pitch><duration>1</duration><voice>1</voice><type>eighth</type><stem default-y="6">up</stem><beam number="1">begin</beam><lyric default-y="-91" name="verse" number="1"><syllabic>single</syllabic><text font-size="10.8">der</text></lyric><lyric default-y="-115" name="verse" number="2"><syllabic>single</syllabic><text font-size="10.8">Das,</text></lyric><lyric default-y="-140" name="verse" number="3"><syllabic>single</syllabic><text font-size="10.8">gib</text></lyric><lyric default-y="-165" name="verse" number="4"><syllabic>single</syllabic><text font-size="10.8">so</text></lyric><lyric default-y="-190" name="verse" number="5"><syllabic>single</syllabic><text font-size="10.8">und</text></lyric><lyric default-y="-215" name="verse" number="6"><syllabic>single</syllabic><text font-size="10.8">wir</text></lyric></note><note default-x="241"><pitch><step>B</step><octave>4</octave></pitch><duration>1</duration><voice>1</voice><type>eighth</type><stem default-y="11.5">up</stem><beam number="1">end</beam><lyric default-y="-91" name="verse" number="1"><syllabic>single</syllabic><text font-size="10.8">sein</text></lyric><lyric default-y="-115" name="verse" number="2"><syllabic>single</syllabic><text font-size="10.8">was</text></lyric><lyric default-y="-140" name="verse" number="3"><syllabic>single</syllabic><text font-size="10.8">uns</text></lyric><lyric default-y="-165" name="verse" number="4"><syllabic>single</syllabic><text font-size="10.8">wie</text></lyric><lyric default-y="-190" name="verse" number="5"><syllabic>single</syllabic><text font-size="10.8">der</text></lyric><lyric default-y="-215" name="verse" number="6"><syllabic>begin</syllabic><text font-size="10.8">ver</text></lyric></note></measure><!--=======================================================--><measure number="3" width="225"><harmony default-y="36" font-size="10" font-weight="bold"><root><root-step>A</root-step></root><kind halign="center" text="">major</kind></harmony><note default-x="16"><pitch><step>C</step><alter>1</alter><octave>5</octave></pitch><duration>2</duration><voice>1</voice><type>quarter</type><stem default-y="-46.5">down</stem><lyric default-y="-91" name="verse" number="1"><syllabic>single</syllabic><text font-size="10.8">Kind</text></lyric><lyric default-y="-115" name="verse" number="2"><syllabic>single</syllabic><text font-size="10.8">Du</text></lyric><lyric default-y="-140" name="verse" number="3"><syllabic>single</syllabic><text font-size="10.8">heut</text></lyric><lyric default-y="-165" name="verse" number="4"><syllabic>single</syllabic><text font-size="10.8">Du</text></lyric><lyric default-y="-190" name="verse" number="5"><syllabic>begin</syllabic><text font-size="10.8">An</text></lyric><lyric default-y="-215" name="verse" number="6"><syllabic>middle</syllabic><text font-size="10.8">trau</text></lyric></note><note default-x="86"><pitch><step>C</step><alter>1</alter><octave>5</octave></pitch><duration>2</duration><voice>1</voice><type>quarter</type><stem default-y="-46.5">down</stem><lyric default-y="-91" name="verse" number="1"><syllabic>single</syllabic><text font-size="10.8">nie</text></lyric><lyric default-y="-115" name="verse" number="2"><syllabic>single</syllabic><text font-size="10.8">willst,</text></lyric><lyric default-y="-140" name="verse" number="3"><syllabic>begin</syllabic><text font-size="10.8">un</text></lyric><lyric default-y="-165" name="verse" number="4"><syllabic>single</syllabic><text font-size="10.8">uns</text></lyric><lyric default-y="-190" name="verse" number="5"><syllabic>middle</syllabic><text font-size="10.8">fech</text></lyric><lyric default-y="-215" name="verse" number="6"><syllabic>end</syllabic><text font-size="10.8">en</text></lyric></note><note default-x="157"><pitch><step>B</step><octave>4</octave></pitch><duration>2</duration><voice>1</voice><type>quarter</type><stem default-y="-52">down</stem><lyric default-y="-91" name="verse" number="1"><syllabic>begin</syllabic><text font-size="10.8">ver</text></lyric><lyric default-y="-115" name="verse" number="2"><syllabic>begin</syllabic><text font-size="10.8">ge</text></lyric><lyric default-y="-140" name="verse" number="3"><syllabic>end</syllabic><text font-size="10.8">ser</text></lyric><lyric default-y="-165" name="verse" number="4"><syllabic>begin</syllabic><text font-size="10.8">ver</text></lyric><lyric default-y="-190" name="verse" number="5"><syllabic>end</syllabic><text font-size="10.8">tung</text></lyric><lyric default-y="-215" name="verse" number="6"><syllabic>begin</syllabic><text font-size="10.8">da</text></lyric></note></measure><!--=======================================================--><measure number="4" width="339"><print new-system="yes"><system-layout><system-distance>263</system-distance></system-layout></print><harmony default-y="36" font-size="10" font-weight="bold"><root><root-step>E</root-step></root><kind halign="center" text="">major</kind></harmony><note default-x="131"><pitch><step>B</step><octave>4</octave></pitch><duration>2</duration><voice>1</voice><type>quarter</type><stem default-y="-52">down</stem><lyric default-y="-91" name="verse" number="1"><syllabic>end</syllabic><text font-size="10.8">gisst.</text></lyric><lyric default-y="-115" name="verse" number="2"><syllabic>end</syllabic><text font-size="10.8">schehn.</text></lyric><lyric default-y="-140" name="verse" number="3"><syllabic>single</syllabic><text font-size="10.8">Brot.</text></lyric><lyric default-y="-165" name="verse" number="4"><syllabic>end</syllabic><text font-size="10.8">gibst.</text></lyric><lyric default-y="-190" name="verse" number="5"><syllabic>single</syllabic><text font-size="10.8">fort.</text></lyric><lyric default-y="-215" name="verse" number="6"><syllabic>end</syllabic><text font-size="10.8">rauf.</text></lyric></note><note default-x="177"><rest /><duration>2</duration><voice>1</voice><type>quarter</type></note><note default-x="219"><pitch><step>E</step><octave>4</octave></pitch><duration>1</duration><voice>1</voice><type>eighth</type><stem default-y="-8.5">up</stem><beam number="1">begin</beam><lyric default-y="-91" name="verse" number="1"><syllabic>single</syllabic><text font-size="10.8">Der</text></lyric><lyric default-y="-115" name="verse" number="2"><syllabic>single</syllabic><text font-size="10.8">Auf</text></lyric><lyric default-y="-140" name="verse" number="3"><syllabic>single</syllabic><text font-size="10.8">Und</text></lyric><lyric default-y="-165" name="verse" number="4"><syllabic>single</syllabic><text font-size="10.8">Lass</text></lyric><lyric default-y="-190" name="verse" number="5"><syllabic>single</syllabic><text font-size="10.8">Mach</text></lyric><lyric default-y="-215" name="verse" number="6"><syllabic>single</syllabic><text font-size="10.8">Bist</text></lyric></note><note default-x="288"><pitch><step>F</step><alter>1</alter><octave>4</octave></pitch><duration>1</duration><voice>1</voice><type>eighth</type><stem default-y="-4">up</stem><beam number="1">end</beam><lyric default-y="-91" name="verse" number="1"><syllabic>single</syllabic><text font-size="10.8">trotz</text></lyric><lyric default-y="-115" name="verse" number="2"><syllabic>single</syllabic><text font-size="10.8">der</text></lyric><lyric default-y="-140" name="verse" number="3"><syllabic>begin</syllabic><text font-size="10.8">ver</text></lyric><lyric default-y="-165" name="verse" number="4"><syllabic>single</syllabic><text font-size="10.8">uns</text></lyric><lyric default-y="-190" name="verse" number="5"><syllabic>single</syllabic><text font-size="10.8">uns</text></lyric><lyric default-y="-215" name="verse" number="6"><syllabic>single</syllabic><text font-size="10.8">ein</text></lyric></note></measure><!--=======================================================--><measure number="5" width="183"><note default-x="14"><pitch><step>G</step><alter>1</alter><octave>4</octave></pitch><duration>2</duration><voice>1</voice><type>quarter</type><stem default-y="2">up</stem><lyric default-y="-91" name="verse" number="1"><syllabic>single</syllabic><text font-size="10.8">all</text></lyric><lyric default-y="-115" name="verse" number="2"><syllabic>begin</syllabic><text font-size="10.8">Er</text></lyric><lyric default-y="-140" name="verse" number="3"><syllabic>end</syllabic><text font-size="10.8">gib</text></lyric><lyric default-y="-165" name="verse" number="4"><syllabic>single</syllabic><text font-size="10.8">treu</text></lyric><lyric default-y="-190" name="verse" number="5"><syllabic>single</syllabic><text font-size="10.8">frei</text></lyric><lyric default-y="-215" name="verse" number="6"><syllabic>begin</syllabic><text font-size="10.8">herr</text></lyric></note><note default-x="73"><pitch><step>G</step><alter>1</alter><octave>4</octave></pitch><duration>2</duration><voice>1</voice><type>quarter</type><stem default-y="2">up</stem><lyric default-y="-91" name="verse" number="1"><syllabic>begin</syllabic><text font-size="10.8">sei</text></lyric><lyric default-y="-115" name="verse" number="2"><syllabic>end</syllabic><text font-size="10.8">de,</text></lyric><lyric default-y="-140" name="verse" number="3"><syllabic>single</syllabic><text font-size="10.8">uns</text></lyric><lyric default-y="-165" name="verse" number="4"><syllabic>single</syllabic><text font-size="10.8">zu</text></lyric><lyric default-y="-190" name="verse" number="5"><syllabic>single</syllabic><text font-size="10.8">von</text></lyric><lyric default-y="-215" name="verse" number="6"><syllabic>middle</syllabic><text font-size="10.8">lich</text></lyric></note><note default-x="132"><pitch><step>G</step><alter>1</alter><octave>4</octave></pitch><duration>2</duration><voice>1</voice><type>quarter</type><stem default-y="2">up</stem><lyric default-y="-91" name="verse" number="1"><syllabic>end</syllabic><text font-size="10.8">ner</text></lyric><lyric default-y="-115" name="verse" number="2"><syllabic>single</syllabic><text font-size="10.8">im</text></lyric><lyric default-y="-140" name="verse" number="3"><syllabic>single</syllabic><text font-size="10.8">den</text></lyric><lyric default-y="-165" name="verse" number="4"><syllabic>single</syllabic><text font-size="10.8">Dir</text></lyric><lyric default-y="-190" name="verse" number="5"><syllabic>single</syllabic><text font-size="10.8">dem</text></lyric><lyric default-y="-215" name="verse" number="6"><syllabic>end</syllabic><text font-size="10.8">er</text></lyric></note></measure><!--=======================================================--><measure number="6" width="296"><harmony default-y="36" font-size="10" font-weight="bold"><root><root-step>C</root-step><root-alter>1</root-alter></root><kind halign="center" text="m">minor</kind></harmony><note default-x="25"><pitch><step>F</step><alter>1</alter><octave>4</octave></pitch><duration>2</duration><voice>1</voice><type>quarter</type><stem default-y="-3">up</stem><lyric default-y="-91" name="verse" number="1"><syllabic>begin</syllabic><text font-size="10.8">Grö</text></lyric><lyric default-y="-115" name="verse" number="2"><syllabic>begin</syllabic><text font-size="10.8">Him</text></lyric><lyric default-y="-140" name="verse" number="3"><syllabic>begin</syllabic><text font-size="10.8">Auf</text></lyric><lyric default-y="-165" name="verse" number="4"><syllabic>begin</syllabic><text font-size="10.8">ste</text></lyric><lyric default-y="-190" name="verse" number="5"><syllabic>begin</syllabic><text font-size="10.8">Bö</text></lyric><lyric default-y="-215" name="verse" number="6"><syllabic>begin</syllabic><text font-size="10.8">Herr</text></lyric></note><note default-x="96"><pitch><step>E</step><octave>4</octave></pitch><duration>2</duration><voice>1</voice><type>quarter</type><stem default-y="-8">up</stem><lyric default-y="-91" name="verse" number="1"><syllabic>end</syllabic><text font-size="10.8">ße</text></lyric><lyric default-y="-115" name="verse" number="2"><syllabic>end</syllabic><text font-size="10.8">mel,</text></lyric><lyric default-y="-140" name="verse" number="3"><syllabic>end</syllabic><text font-size="10.8">stand</text></lyric><lyric default-y="-165" name="verse" number="4"><syllabic>end</syllabic><text font-size="10.8">hen,</text></lyric><lyric default-y="-190" name="verse" number="5"><syllabic>end</syllabic><text font-size="10.8">sen,</text></lyric><lyric default-y="-215" name="verse" number="6"><syllabic>end</syllabic><text font-size="10.8">scher</text></lyric></note><note default-x="173"><pitch><step>B</step><octave>3</octave></pitch><duration>1</duration><voice>1</voice><type>eighth</type><stem default-y="-20">up</stem><beam number="1">begin</beam><lyric default-y="-91" name="verse" number="1"><syllabic>begin</syllabic><text font-size="10.8">im</text></lyric><lyric default-y="-115" name="verse" number="2"><syllabic>begin</syllabic><text font-size="10.8">sol</text></lyric><lyric default-y="-140" name="verse" number="3"><syllabic>begin</syllabic><text font-size="10.8">ge</text></lyric><lyric default-y="-165" name="verse" number="4"><syllabic>single</syllabic><text font-size="10.8">so</text></lyric><lyric default-y="-190" name="verse" number="5"><syllabic>single</syllabic><text font-size="10.8">durch</text></lyric><lyric default-y="-215" name="verse" number="6"><syllabic>single</syllabic><text font-size="10.8">und</text></lyric></note><note default-x="244"><pitch><step>B</step><octave>3</octave></pitch><duration>1</duration><voice>1</voice><type>eighth</type><stem default-y="-20">up</stem><beam number="1">end</beam><lyric default-y="-91" name="verse" number="1"><syllabic>end</syllabic><text font-size="10.8">mer</text></lyric><lyric default-y="-115" name="verse" number="2"><syllabic>end</syllabic><text font-size="10.8">len</text></lyric><lyric default-y="-140" name="verse" number="3"><syllabic>end</syllabic><text font-size="10.8">gen</text></lyric><lyric default-y="-165" name="verse" number="4"><syllabic>single</syllabic><text font-size="10.8">wie</text></lyric><lyric default-y="-190" name="verse" number="5"><syllabic>single</syllabic><text font-size="10.8">Dein</text></lyric><lyric default-y="-215" name="verse" number="6"><syllabic>single</syllabic><text font-size="10.8">Dein</text></lyric></note></measure><!--=======================================================--><measure number="7" width="266"><harmony default-y="36" font-size="10" font-weight="bold"><root><root-step>A</root-step></root><kind halign="center" text="">major</kind></harmony><note default-x="22"><pitch><step>C</step><alter>1</alter><octave>4</octave></pitch><duration>1</duration><tie type="start" /><voice>1</voice><type>eighth</type><stem default-y="-18">up</stem><beam number="1">begin</beam><notations><tied type="start" /></notations><lyric default-y="-91" name="verse" number="1"><syllabic>begin</syllabic><text font-size="10.8">an</text></lyric><lyric default-y="-115" name="verse" number="2"><syllabic>begin</syllabic><text font-size="10.8">al</text></lyric><lyric default-y="-140" name="verse" number="3"><syllabic>single</syllabic><text font-size="10.8">Dich</text></lyric><lyric default-y="-165" name="verse" number="4"><syllabic>single</syllabic><text font-size="10.8">Du</text><extend type="start" /></lyric><lyric default-y="-190" name="verse" number="5"><syllabic>begin</syllabic><text font-size="10.8">mäch</text></lyric><lyric default-y="-215" name="verse" number="6"><syllabic>single</syllabic><text font-size="10.8">Reich</text><extend type="start" /></lyric></note><note default-x="82"><pitch><step>C</step><alter>1</alter><octave>4</octave></pitch><duration>1</duration><tie type="stop" /><voice>1</voice><type>eighth</type><stem default-y="-18">up</stem><beam number="1">end</beam><notations><tied type="stop" /></notations><lyric default-y="-140" name="verse" number="3"><syllabic>single</syllabic><text font-size="10.8">und</text></lyric><lyric name="verse" number="4"><extend type="stop" /></lyric><lyric name="verse" number="6"><extend type="stop" /></lyric></note><note default-x="144"><pitch><step>E</step><octave>4</octave></pitch><duration>2</duration><voice>1</voice><type>quarter</type><stem default-y="-8">up</stem><lyric default-y="-91" name="verse" number="1"><syllabic>middle</syllabic><text font-size="10.8">sprech</text></lyric><lyric default-y="-115" name="verse" number="2"><syllabic>end</syllabic><text font-size="10.8">le</text></lyric><lyric default-y="-140" name="verse" number="3"><syllabic>single</syllabic><text font-size="10.8">Dein</text></lyric><lyric default-y="-165" name="verse" number="4"><syllabic>begin</syllabic><text font-size="10.8">im</text></lyric><lyric default-y="-190" name="verse" number="5"><syllabic>middle</syllabic><text font-size="10.8">ti</text></lyric><lyric default-y="-215" name="verse" number="6"><syllabic>single</syllabic><text font-size="10.8">hört</text></lyric></note><note default-x="216"><pitch><step>F</step><alter>1</alter><octave>4</octave></pitch><duration>2</duration><voice>1</voice><type>quarter</type><stem default-y="-3">up</stem><lyric default-y="-91" name="verse" number="1"><syllabic>end</syllabic><text font-size="10.8">bar</text></lyric><lyric default-y="-115" name="verse" number="2"><syllabic>single</syllabic><text font-size="10.8">es</text></lyric><lyric default-y="-140" name="verse" number="3"><syllabic>begin</syllabic><text font-size="10.8">Ge</text></lyric><lyric default-y="-165" name="verse" number="4"><syllabic>end</syllabic><text font-size="10.8">mer</text></lyric><lyric default-y="-190" name="verse" number="5"><syllabic>end</syllabic><text font-size="10.8">ges</text></lyric><lyric default-y="-215" name="verse" number="6"><syllabic>single</syllabic><text font-size="10.8">nie</text></lyric></note></measure><!--=======================================================--><measure number="8" width="86"><harmony default-y="36" font-size="10" font-weight="bold"><root><root-step>E</root-step></root><kind halign="center" text="">major</kind></harmony><note default-x="23"><pitch><step>E</step><octave>4</octave></pitch><duration>6</duration><voice>1</voice><type>half</type><dot /><stem default-y="-8">up</stem><lyric default-y="-91" name="verse" number="1"><syllabic>single</syllabic><text font-size="10.8">ist.</text></lyric><lyric default-y="-115" name="verse" number="2"><syllabic>single</syllabic><text font-size="10.8">sehn.</text></lyric><lyric default-y="-140" name="verse" number="3"><syllabic>end</syllabic><text font-size="10.8">bot.</text></lyric><lyric default-y="-165" name="verse" number="4"><syllabic>single</syllabic><text font-size="10.8">liebst.</text></lyric><lyric default-y="-190" name="verse" number="5"><syllabic>single</syllabic><text font-size="10.8">Wort.</text></lyric><lyric default-y="-215" name="verse" number="6"><syllabic>single</syllabic><text font-size="10.8">auf.</text></lyric></note><barline location="right"><bar-style>light-light</bar-style></barline></measure><!--=======================================================--><measure number="9" width="238"><print new-system="yes"><system-layout><system-distance>292</system-distance></system-layout></print><harmony default-y="36" font-size="10" font-weight="bold"><root><root-step>E</root-step></root><kind halign="center" text="">major</kind></harmony><direction placement="above"><direction-type><rehearsal default-y="69" font-weight="bold" relative-x="-5">CHORUS</rehearsal></direction-type></direction><note default-x="108"><pitch><step>G</step><alter>1</alter><octave>4</octave></pitch><duration>6</duration><voice>1</voice><type>half</type><dot /><stem default-y="2">up</stem><lyric default-y="-91" name="verse" number="1"><syllabic>begin</syllabic><text font-size="10.8">Va</text></lyric></note></measure><!--=======================================================--><measure number="10" width="321"><harmony default-y="36" font-size="10" font-weight="bold"><root><root-step>B</root-step></root><kind halign="center" text="">major</kind><bass><bass-step>E</bass-step></bass></harmony><note default-x="15"><pitch><step>F</step><alter>1</alter><octave>4</octave></pitch><duration>2</duration><voice>1</voice><type>quarter</type><stem default-y="-3">up</stem><lyric default-y="-91" name="verse" number="1"><syllabic>end</syllabic><text font-size="10.8">ter,</text></lyric></note><note default-x="117"><pitch><step>G</step><alter>1</alter><octave>4</octave></pitch><duration>2</duration><voice>1</voice><type>quarter</type><stem default-y="2">up</stem><lyric default-y="-91" name="verse" number="1"><syllabic>begin</syllabic><text font-size="10.8">un</text></lyric></note><harmony default-y="36" font-size="10" font-weight="bold"><root><root-step>E</root-step></root><kind halign="center" text="">major</kind><bass><bass-step>G</bass-step><bass-alter>1</bass-alter></bass></harmony><note default-x="218"><pitch><step>B</step><octave>4</octave></pitch><duration>2</duration><voice>1</voice><type>quarter</type><stem default-y="-52">down</stem><lyric default-y="-91" name="verse" number="1"><syllabic>end</syllabic><text font-size="10.8">ser</text></lyric></note></measure><!--=======================================================--><measure number="11" width="141"><harmony default-y="36" font-size="10" font-weight="bold"><root><root-step>A</root-step></root><kind halign="center" text="">major</kind></harmony><note default-x="14"><pitch><step>E</step><octave>4</octave></pitch><duration>6</duration><voice>1</voice><type>half</type><dot /><stem default-y="-8">up</stem><lyric default-y="-91" name="verse" number="1"><syllabic>begin</syllabic><text font-size="10.8">Va</text></lyric></note></measure><!--=======================================================--><measure number="12" width="274"><harmony default-y="36" font-size="10" font-weight="bold"><root><root-step>E</root-step></root><kind halign="center" text="">major</kind></harmony><note default-x="12"><pitch><step>E</step><octave>4</octave></pitch><duration>4</duration><voice>1</voice><type>half</type><stem default-y="-8">up</stem><lyric default-y="-91" name="verse" number="1"><syllabic>end</syllabic><text font-size="10.8">ter,</text></lyric></note><note default-x="98"><pitch><step>F</step><alter>1</alter><octave>4</octave></pitch><duration>1</duration><voice>1</voice><type>eighth</type><stem default-y="-3.5">up</stem><beam number="1">begin</beam><lyric default-y="-91" name="verse" number="1"><syllabic>begin</syllabic><text font-size="10.8">al</text></lyric></note><note default-x="186"><pitch><step>G</step><alter>1</alter><octave>4</octave></pitch><duration>1</duration><voice>1</voice><type>eighth</type><stem default-y="1.5">up</stem><beam number="1">end</beam><lyric default-y="-91" name="verse" number="1"><syllabic>end</syllabic><text font-size="10.8">le</text></lyric></note></measure><!--=======================================================--><measure number="13" width="196"><harmony default-y="36" font-size="10" font-weight="bold"><root><root-step>A</root-step></root><kind halign="center" text="">major</kind></harmony><note default-x="14"><pitch><step>A</step><octave>4</octave></pitch><duration>4</duration><voice>1</voice><type>half</type><stem default-y="7">up</stem><lyric default-y="-91" name="verse" number="1"><syllabic>begin</syllabic><text font-size="10.8">Eh</text></lyric></note><note default-x="104"><pitch><step>A</step><octave>4</octave></pitch><duration>2</duration><voice>1</voice><type>quarter</type><stem default-y="7">up</stem><lyric default-y="-91" name="verse" number="1"><syllabic>end</syllabic><text font-size="10.8">re</text></lyric></note></measure><!--=======================================================--><measure number="14" width="358"><print new-system="yes"><system-layout><system-distance>180</system-distance></system-layout></print><harmony default-y="36" font-size="10" font-weight="bold"><root><root-step>E</root-step></root><kind halign="center" text="">major</kind></harmony><note default-x="108"><pitch><step>G</step><alter>1</alter><octave>4</octave></pitch><duration>2</duration><voice>1</voice><type>quarter</type><stem default-y="2">up</stem><notations><slur number="1" placement="below" type="start" /></notations><lyric default-y="-91" name="verse" number="1"><syllabic>begin</syllabic><text font-size="10.8">Dei</text></lyric></note><note default-x="191"><pitch><step>F</step><alter>1</alter><octave>4</octave></pitch><duration>2</duration><voice>1</voice><type>quarter</type><stem default-y="-3">up</stem><notations><slur number="1" type="stop" /></notations></note><note default-x="274"><pitch><step>E</step><octave>4</octave></pitch><duration>2</duration><voice>1</voice><type>quarter</type><stem default-y="-8">up</stem><lyric default-y="-91" name="verse" number="1"><syllabic>end</syllabic><text font-size="10.8">nem</text></lyric></note></measure><!--=======================================================--><measure number="15" width="129"><harmony default-y="36" font-size="10" font-weight="bold"><root><root-step>E</root-step></root><kind halign="center" text="">major</kind><bass><bass-step>B</bass-step></bass></harmony><note default-x="14"><pitch><step>G</step><alter>1</alter><octave>4</octave></pitch><duration>6</duration><voice>1</voice><type>half</type><dot /><stem default-y="2">up</stem><lyric default-y="-91" name="verse" number="1"><syllabic>begin</syllabic><text font-size="10.8">Na</text></lyric></note></measure><!--=======================================================--><measure number="16" width="129"><harmony default-y="36" font-size="10" font-weight="bold"><root><root-step>B</root-step></root><kind halign="center" text="">major</kind></harmony><note default-x="18"><pitch><step>F</step><alter>1</alter><octave>4</octave></pitch><duration>6</duration><voice>1</voice><type>half</type><dot /><stem default-y="-3">up</stem><lyric default-y="-91" name="verse" number="1"><syllabic>end</syllabic><text font-size="10.8">men.</text></lyric></note></measure><!--=======================================================--><measure number="17" width="129"><harmony default-y="36" font-size="10" font-weight="bold"><root><root-step>E</root-step></root><kind halign="center" text="">major</kind></harmony><note default-x="11"><pitch><step>G</step><alter>1</alter><octave>4</octave></pitch><duration>6</duration><voice>1</voice><type>half</type><dot /><stem default-y="2">up</stem><lyric default-y="-91" name="verse" number="1"><syllabic>begin</syllabic><text font-size="10.8">Va</text></lyric></note></measure><!--=======================================================--><measure number="18" width="294"><harmony default-y="36" font-size="10" font-weight="bold"><root><root-step>B</root-step></root><kind halign="center" text="">major</kind><bass><bass-step>E</bass-step></bass></harmony><note default-x="15"><pitch><step>F</step><alter>1</alter><octave>4</octave></pitch><duration>2</duration><voice>1</voice><type>quarter</type><stem default-y="-3">up</stem><lyric default-y="-91" name="verse" number="1"><syllabic>end</syllabic><text font-size="10.8">ter,</text></lyric></note><note default-x="108"><pitch><step>G</step><alter>1</alter><octave>4</octave></pitch><duration>2</duration><voice>1</voice><type>quarter</type><stem default-y="2">up</stem><lyric default-y="-91" name="verse" number="1"><syllabic>begin</syllabic><text font-size="10.8">un</text></lyric></note><harmony default-y="36" font-size="10" font-weight="bold"><root><root-step>E</root-step></root><kind halign="center" text="">major</kind><bass><bass-step>G</bass-step><bass-alter>1</bass-alter></bass></harmony><note default-x="200"><pitch><step>B</step><octave>4</octave></pitch><duration>2</duration><voice>1</voice><type>quarter</type><stem default-y="-52">down</stem><lyric default-y="-91" name="verse" number="1"><syllabic>end</syllabic><text font-size="10.8">ser</text></lyric></note></measure><!--=======================================================--><measure number="19" width="131"><harmony default-y="36" font-size="10" font-weight="bold"><root><root-step>A</root-step></root><kind halign="center" text="">major</kind></harmony><note default-x="14"><pitch><step>E</step><octave>4</octave></pitch><duration>6</duration><voice>1</voice><type>half</type><dot /><stem default-y="-8">up</stem><lyric default-y="-91" name="verse" number="1"><syllabic>begin</syllabic><text font-size="10.8">Va</text></lyric></note></measure><!--=======================================================--><measure number="20" width="342"><print new-system="yes"><system-layout><system-distance>180</system-distance></system-layout></print><harmony default-y="36" font-size="10" font-weight="bold"><root><root-step>E</root-step></root><kind halign="center" text="">major</kind></harmony><note default-x="108"><pitch><step>E</step><octave>4</octave></pitch><duration>4</duration><voice>1</voice><type>half</type><stem default-y="-8">up</stem><lyric default-y="-91" name="verse" number="1"><syllabic>end</syllabic><text font-size="10.8">ter,</text></lyric></note><note default-x="186"><pitch><step>F</step><alter>1</alter><octave>4</octave></pitch><duration>1</duration><voice>1</voice><type>eighth</type><stem default-y="-3.5">up</stem><beam number="1">begin</beam><lyric default-y="-91" name="verse" number="1"><syllabic>single</syllabic><text font-size="10.8">bis</text></lyric></note><note default-x="263"><pitch><step>G</step><alter>1</alter><octave>4</octave></pitch><duration>1</duration><voice>1</voice><type>eighth</type><stem default-y="1">up</stem><beam number="1">end</beam><lyric default-y="-91" name="verse" number="1"><syllabic>single</syllabic><text font-size="10.8">ans</text></lyric></note></measure><!--=======================================================--><measure number="21" width="238"><harmony default-y="36" font-size="10" font-weight="bold"><root><root-step>A</root-step></root><kind halign="center" text="">major</kind></harmony><note default-x="14"><pitch><step>A</step><octave>4</octave></pitch><duration>2</duration><voice>1</voice><type>quarter</type><stem default-y="7">up</stem><lyric default-y="-91" name="verse" number="1"><syllabic>begin</syllabic><text font-size="10.8">En</text></lyric></note><note default-x="88"><pitch><step>A</step><octave>4</octave></pitch><duration>2</duration><voice>1</voice><type>quarter</type><stem default-y="7">up</stem><lyric default-y="-91" name="verse" number="1"><syllabic>end</syllabic><text font-size="10.8">de</text></lyric></note><note default-x="162"><pitch><step>A</step><octave>4</octave></pitch><duration>2</duration><voice>1</voice><type>quarter</type><stem default-y="7">up</stem><lyric default-y="-91" name="verse" number="1"><syllabic>single</syllabic><text font-size="10.8">der</text></lyric></note></measure><!--=======================================================--><measure number="22" width="224"><harmony default-y="36" font-size="10" font-weight="bold"><root><root-step>E</root-step></root><kind halign="center" text="">major</kind><bass><bass-step>B</bass-step></bass></harmony><note default-x="14"><pitch><step>G</step><alter>1</alter><octave>4</octave></pitch><duration>2</duration><voice>1</voice><type>quarter</type><stem default-y="2">up</stem><notations><slur number="1" placement="below" type="start" /></notations><lyric default-y="-91" name="verse" number="1"><syllabic>begin</syllabic><text font-size="10.8">Zei</text></lyric></note><note default-x="84"><pitch><step>F</step><alter>1</alter><octave>4</octave></pitch><duration>2</duration><voice>1</voice><type>quarter</type><stem default-y="-3">up</stem><notations><slur number="1" type="stop" /></notations></note><note default-x="153"><pitch><step>E</step><octave>4</octave></pitch><duration>2</duration><voice>1</voice><type>quarter</type><stem default-y="-8">up</stem><lyric default-y="-91" name="verse" number="1"><syllabic>end</syllabic><text font-size="10.8">ten.</text></lyric></note></measure><!--=======================================================--><measure number="23" width="206"><harmony default-y="36" font-size="10" font-weight="bold"><root><root-step>F</root-step><root-alter>1</root-alter></root><kind halign="center" text="m">minor</kind><bass><bass-step>B</bass-step></bass></harmony><note default-x="27"><pitch><step>F</step><alter>1</alter><octave>4</octave></pitch><duration>2</duration><tie type="start" /><voice>1</voice><type>quarter</type><stem default-y="-3">up</stem><notations><tied type="start" /></notations><lyric default-y="-91" name="verse" number="1"><syllabic>begin</syllabic><text font-size="10.8">A</text></lyric></note><harmony default-y="36" font-size="10" font-weight="bold"><root><root-step>B</root-step></root><kind halign="center" text="">major</kind></harmony><note default-x="115"><pitch><step>F</step><alter>1</alter><octave>4</octave></pitch><duration>4</duration><tie type="stop" /><voice>1</voice><type>half</type><stem default-y="-3">up</stem><notations><tied type="stop" /></notations></note></measure><!--=======================================================--><measure number="24" width="162"><harmony default-y="36" font-size="10" font-weight="bold"><root><root-step>E</root-step></root><kind halign="center" text="">major</kind></harmony><note default-x="17"><pitch><step>E</step><octave>4</octave></pitch><duration>4</duration><voice>1</voice><type>half</type><stem default-y="-8">up</stem><lyric default-y="-91" name="verse" number="1"><syllabic>end</syllabic><text font-size="10.8">men.</text></lyric></note><forward><duration>2</duration><voice>1</voice></forward><barline location="right"><bar-style>light-heavy</bar-style></barline></measure></part><!--=========================================================--></score-partwise>