<?xml version="1.0" encoding="UTF-8"?><!DOCTYPE score-partwise PUBLIC "-//Recordare//DTD MusicXML 1.1 Partwise//EN" "http://www.musicxml.org/dtds/partwise.dtd"[]><score-partwise version="1.1"><movement-title>Vom Himmel her</movement-title><identification><creator type="composer">Graham Kendrick</creator><creator type="lyricist">Hartmut Sünderwald</creator><encoding><software>Finale 2008 for Windows</software><software>Dolet 4.4 for Finale</software><encoding-date>2009-03-20</encoding-date></encoding><rights>CCLI-Liednummer 5227220
© 1983 Thankyou Music
Nutzung ausschließlich im Rahmen der SongSelect®-Nutzungsbedingungen. Alle Rechte vorbehalten. www.ccli.com
CCLI-Lizenznummer 2182334
</rights></identification><defaults><scaling><millimeters>6.5088</millimeters><tenths>40</tenths></scaling><page-layout><page-height>1771</page-height><page-width>1308</page-width><page-margins type="both"><left-margin>78</left-margin><right-margin>78</right-margin><top-margin>78</top-margin><bottom-margin>78</bottom-margin></page-margins></page-layout><system-layout><system-margins><left-margin>0</left-margin><right-margin>0</right-margin></system-margins><system-distance>244</system-distance><top-system-distance>122</top-system-distance></system-layout><music-font font-family="Maestro" font-size="18.5" /><word-font font-family="Arial" font-size="9.2" /><lyric-font font-family="Arial" font-size="10.8" name="verse" /><lyric-font font-family="Arial" font-size="10.8" name="section" /></defaults><credit page="1">
<credit-type>title</credit-type><credit-words default-x="654" default-y="1663" font-size="21.6" font-weight="bold" justify="center" valign="top">Vom Himmel her</credit-words></credit><credit page="1"><credit-words default-x="1230" default-y="1595" font-size="10.8" font-style="italic" justify="right" valign="top">Text und Musik:</credit-words></credit><credit page="1"><credit-type>composer</credit-type><credit-words font-size="10.8" valign="top" justify="right" font-weight="bold" default-y="1552" default-x="1249">Graham Kendrick</credit-words></credit><credit page="1"><credit-words default-x="78" default-y="1595" font-size="10.8" font-style="italic" valign="top">Deutsch:</credit-words></credit><credit page="1"><credit-type>arranger</credit-type><credit-words font-size="10.8" valign="top" font-weight="bold" default-y="1552" default-x="78">Hartmut Sünderwald</credit-words></credit><part-list><score-part id="P1"><part-name print-object="no">Melody</part-name><score-instrument id="P1-I2"><instrument-name>Melody</instrument-name></score-instrument><midi-instrument id="P1-I2"><midi-channel>1</midi-channel><midi-program>1</midi-program></midi-instrument></score-part></part-list><!--=========================================================--><part id="P1"><measure number="1" width="534"><print><system-layout><system-margins><left-margin>68</left-margin><right-margin>0</right-margin></system-margins><top-system-distance>256</top-system-distance></system-layout></print><attributes><divisions>4</divisions><key><fifths>-3</fifths><mode>major</mode></key><time><beats>4</beats><beat-type>4</beat-type></time><clef><sign>G</sign><line>2</line></clef></attributes><direction placement="above"><direction-type><metronome default-y="44" font-family="Maestro" font-size="18.4" relative-x="-101"><beat-unit>quarter</beat-unit><per-minute>65</per-minute></metronome></direction-type><sound tempo="65" /></direction><note default-x="123"><rest /><duration>2</duration><voice>1</voice><type>eighth</type></note><harmony default-y="29" font-size="10" font-weight="bold"><root><root-step>C</root-step></root><kind text="m">minor</kind></harmony><note default-x="175"><pitch><step>G</step><octave>4</octave></pitch><duration>2</duration><voice>1</voice><type>eighth</type><stem default-y="6">up</stem><lyric default-y="-95" name="verse" number="1"><syllabic>single</syllabic><text font-size="10.8">1.</text><elision /><syllabic>single</syllabic><text font-size="10.8">Vom</text></lyric><lyric default-y="-120" name="verse" number="2" relative-x="-13"><syllabic>single</syllabic><text font-size="10.8">2.</text><elision /><syllabic>single</syllabic><text font-size="10.8">Im</text></lyric><lyric default-y="-145" name="verse" number="3" relative-x="-5"><syllabic>single</syllabic><text font-size="10.8">3.</text><elision /><syllabic>single</syllabic><text font-size="10.8">Das</text></lyric><lyric default-y="-169" name="verse" number="4"><syllabic>single</syllabic><text font-size="10.8">4.</text><elision /><syllabic>single</syllabic><text font-size="10.8">Herr,</text></lyric></note><note default-x="244"><pitch><step>G</step><octave>4</octave></pitch><duration>2</duration><voice>1</voice><type>eighth</type><stem default-y="5">up</stem><beam number="1">begin</beam><lyric default-y="-95" name="verse" number="1"><syllabic>begin</syllabic><text font-size="10.8">Him</text></lyric><lyric default-y="-120" name="verse" number="2"><syllabic>begin</syllabic><text font-size="10.8">Gar</text></lyric><lyric default-y="-145" name="verse" number="3"><syllabic>begin</syllabic><text font-size="10.8">Op</text></lyric><lyric default-y="-169" name="verse" number="4"><syllabic>begin</syllabic><text font-size="10.8">leh</text></lyric></note><note default-x="298"><pitch><step>A</step><alter>-1</alter><octave>4</octave></pitch><duration>2</duration><voice>1</voice><type>eighth</type><stem default-y="10">up</stem><beam number="1">end</beam><lyric default-y="-95" name="verse" number="1"><syllabic>end</syllabic><text font-size="10.8">mel</text></lyric><lyric default-y="-120" name="verse" number="2"><syllabic>end</syllabic><text font-size="10.8">ten</text></lyric><lyric default-y="-145" name="verse" number="3"><syllabic>middle</syllabic><text font-size="10.8">fer</text></lyric><lyric default-y="-169" name="verse" number="4"><syllabic>end</syllabic><text font-size="10.8">re</text></lyric></note><harmony default-y="29" font-size="10" font-weight="bold"><root><root-step>G</root-step></root><kind text="">major</kind><bass><bass-step>B</bass-step></bass></harmony><note default-x="358"><pitch><step>G</step><octave>4</octave></pitch><duration>4</duration><voice>1</voice><type>quarter</type><stem default-y="6">up</stem><lyric default-y="-95" name="verse" number="1"><syllabic>single</syllabic><text font-size="10.8">her</text></lyric><lyric default-y="-120" name="verse" number="2"><syllabic>single</syllabic><text font-size="10.8">hast</text></lyric><lyric default-y="-145" name="verse" number="3"><syllabic>end</syllabic><text font-size="10.8">lamm</text></lyric><lyric default-y="-169" name="verse" number="4"><syllabic>single</syllabic><text font-size="10.8">uns</text></lyric></note><note default-x="434"><pitch><step>F</step><octave>4</octave></pitch><duration>2</duration><voice>1</voice><type>eighth</type><stem default-y="0">up</stem><beam number="1">begin</beam><lyric default-y="-95" name="verse" number="1"><syllabic>single</syllabic><text font-size="10.8">kam</text></lyric><lyric default-y="-120" name="verse" number="2"><syllabic>single</syllabic><text font-size="10.8">du</text></lyric><lyric default-y="-145" name="verse" number="3"><syllabic>single</syllabic><text font-size="10.8">warst</text></lyric><lyric default-y="-169" name="verse" number="4"><syllabic>begin</syllabic><text font-size="10.8">Die</text></lyric></note><note default-x="491"><pitch><step>E</step><alter>-1</alter><octave>4</octave></pitch><duration>2</duration><voice>1</voice><type>eighth</type><stem default-y="-5">up</stem><beam number="1">end</beam><lyric default-y="-95" name="verse" number="1"><syllabic>single</syllabic><text font-size="10.8">ein</text></lyric><lyric default-y="-120" name="verse" number="2"><syllabic>begin</syllabic><text font-size="10.8">ge</text></lyric><lyric default-y="-145" name="verse" number="3"><syllabic>single</syllabic><text font-size="10.8">du,</text></lyric><lyric default-y="-169" name="verse" number="4"><syllabic>end</syllabic><text font-size="10.8">ner</text></lyric></note></measure><!--=======================================================--><measure number="2" width="143"><harmony default-y="29" font-size="10" font-weight="bold"><root><root-step>A</root-step><root-alter>-1</root-alter></root><kind text="maj7">major-seventh</kind></harmony><note default-x="40"><pitch><step>C</step><octave>4</octave></pitch><duration>16</duration><voice>1</voice><type>whole</type><lyric default-y="-95" name="verse" number="1"><syllabic>single</syllabic><text font-size="10.8">Kind</text></lyric><lyric default-y="-120" name="verse" number="2"><syllabic>end</syllabic><text font-size="10.8">weint;</text></lyric><lyric default-y="-145" name="verse" number="3"><syllabic>single</syllabic><text font-size="10.8">Herr;</text></lyric><lyric default-y="-169" name="verse" number="4"><syllabic>single</syllabic><text font-size="10.8">sein;</text></lyric></note></measure><!--=======================================================--><measure number="3" width="407"><harmony default-y="29" font-size="10" font-weight="bold"><root><root-step>B</root-step><root-alter>-1</root-alter></root><kind text="">major</kind><bass><bass-step>A</bass-step><bass-alter>-1</bass-alter></bass></harmony><note default-x="31"><rest /><duration>2</duration><voice>1</voice><type>eighth</type></note><note default-x="81"><pitch><step>F</step><octave>4</octave></pitch><duration>2</duration><voice>1</voice><type>eighth</type><stem default-y="1">up</stem><lyric default-y="-95" name="verse" number="1"><syllabic>single</syllabic><text font-size="10.8">in</text></lyric><lyric default-y="-120" name="verse" number="2"><syllabic>single</syllabic><text font-size="10.8">die</text></lyric><lyric default-y="-145" name="verse" number="3"><syllabic>single</syllabic><text font-size="10.8">die</text></lyric><lyric default-y="-169" name="verse" number="4"><syllabic>single</syllabic><text font-size="10.8">sei</text></lyric></note><note default-x="132"><pitch><step>G</step><octave>4</octave></pitch><duration>2</duration><voice>1</voice><type>eighth</type><stem default-y="5">up</stem><beam number="1">begin</beam><lyric default-y="-95" name="verse" number="1"><syllabic>begin</syllabic><text font-size="10.8">uns</text></lyric><lyric default-y="-120" name="verse" number="2"><syllabic>begin</syllabic><text font-size="10.8">Sün</text></lyric><lyric default-y="-145" name="verse" number="3"><syllabic>begin</syllabic><text font-size="10.8">Nä</text></lyric><lyric default-y="-169" name="verse" number="4"><syllabic>single</syllabic><text font-size="10.8">du</text></lyric></note><note default-x="186"><pitch><step>A</step><alter>-1</alter><octave>4</octave></pitch><duration>2</duration><voice>1</voice><type>eighth</type><stem default-y="10">up</stem><beam number="1">end</beam><lyric default-y="-95" name="verse" number="1"><syllabic>end</syllabic><text font-size="10.8">re</text></lyric><lyric default-y="-120" name="verse" number="2"><syllabic>middle</syllabic><text font-size="10.8">den</text></lyric><lyric default-y="-145" name="verse" number="3"><syllabic>middle</syllabic><text font-size="10.8">gel</text></lyric><lyric default-y="-169" name="verse" number="4"><syllabic>single</syllabic><text font-size="10.8">im</text></lyric></note><harmony default-y="29" font-size="10" font-weight="bold"><root><root-step>E</root-step><root-alter>-1</root-alter></root><kind text="">major</kind><bass><bass-step>G</bass-step></bass></harmony><note default-x="250"><pitch><step>B</step><alter>-1</alter><octave>4</octave></pitch><duration>6</duration><voice>1</voice><type>quarter</type><dot /><stem default-y="-55">down</stem><lyric default-y="-95" name="verse" number="1"><syllabic>single</syllabic><text font-size="10.8">Welt,</text></lyric><lyric default-y="-120" name="verse" number="2"><syllabic>end</syllabic><text font-size="10.8">schuld</text></lyric><lyric default-y="-145" name="verse" number="3"><syllabic>middle</syllabic><text font-size="10.8">mal</text></lyric><lyric default-y="-169" name="verse" number="4"><syllabic>begin</syllabic><text font-size="10.8">Her</text></lyric></note><note default-x="346"><pitch><step>E</step><alter>-1</alter><octave>4</octave></pitch><duration>2</duration><voice>1</voice><type>eighth</type><stem default-y="-4">up</stem><lyric default-y="-95" name="verse" number="1"><syllabic>single</syllabic><text font-size="10.8">in</text></lyric><lyric default-y="-120" name="verse" number="2"><syllabic>single</syllabic><text font-size="10.8">nahmst</text></lyric><lyric default-y="-145" name="verse" number="3"><syllabic>end</syllabic><text font-size="10.8">e</text></lyric><lyric default-y="-169" name="verse" number="4"><syllabic>end</syllabic><text font-size="10.8">zen</text></lyric></note></measure><!--=======================================================--><measure number="4" width="393"><print new-system="yes"><system-layout><system-distance>226</system-distance></system-layout></print><harmony default-y="29" font-size="10" font-weight="bold"><root><root-step>A</root-step><root-alter>-1</root-alter></root><kind text="">major</kind><bass><bass-step>C</bass-step></bass></harmony><note default-x="110"><pitch><step>A</step><alter>-1</alter><octave>4</octave></pitch><duration>4</duration><voice>1</voice><type>quarter</type><stem default-y="10.5">up</stem><lyric default-y="-95" name="verse" number="1"><syllabic>begin</syllabic><text font-size="10.8">Nied</text></lyric><lyric default-y="-120" name="verse" number="2"><syllabic>single</syllabic><text font-size="10.8">du</text></lyric><lyric default-y="-145" name="verse" number="3"><syllabic>single</syllabic><text font-size="10.8">der</text></lyric><lyric default-y="-169" name="verse" number="4"><syllabic>single</syllabic><text font-size="10.8">auf</text></lyric></note><harmony default-y="29" font-size="10" font-weight="bold"><root><root-step>E</root-step><root-alter>-1</root-alter></root><kind text="">major</kind><bass><bass-step>B</bass-step><bass-alter>-1</bass-alter></bass></harmony><note default-x="188"><pitch><step>G</step><octave>4</octave></pitch><duration>4</duration><voice>1</voice><type>quarter</type><stem default-y="6">up</stem><lyric default-y="-95" name="verse" number="1"><syllabic>middle</syllabic><text font-size="10.8">rig</text></lyric><lyric default-y="-120" name="verse" number="2"><syllabic>single</syllabic><text font-size="10.8">mir</text></lyric><lyric default-y="-145" name="verse" number="3"><syllabic>begin</syllabic><text font-size="10.8">Be</text></lyric><lyric default-y="-169" name="verse" number="4"><syllabic>single</syllabic><text font-size="10.8">dem</text></lyric></note><harmony default-y="29" font-size="10" font-weight="bold"><root><root-step>B</root-step><root-alter>-1</root-alter></root><kind text="">major</kind></harmony><note default-x="266"><pitch><step>F</step><octave>4</octave></pitch><duration>8</duration><voice>1</voice><type>half</type><stem default-y="1">up</stem><lyric default-y="-95" name="verse" number="1"><syllabic>end</syllabic><text font-size="10.8">keit.</text></lyric><lyric default-y="-120" name="verse" number="2"><syllabic>single</syllabic><text font-size="10.8">ab.</text></lyric><lyric default-y="-145" name="verse" number="3"><syllabic>end</syllabic><text font-size="10.8">weis.</text></lyric><lyric default-y="-169" name="verse" number="4"><syllabic>single</syllabic><text font-size="10.8">Thron.</text></lyric></note></measure><!--=======================================================--><measure number="5" width="565"><note default-x="10"><rest /><duration>2</duration><voice>1</voice><type>eighth</type></note><harmony default-y="29" font-size="10" font-weight="bold"><root><root-step>C</root-step></root><kind text="m">minor</kind></harmony><note default-x="83"><pitch><step>G</step><octave>4</octave></pitch><duration>2</duration><voice>1</voice><type>eighth</type><stem default-y="6">up</stem><lyric default-y="-95" name="verse" number="1"><syllabic>single</syllabic><text font-size="10.8">Gott</text></lyric><lyric default-y="-120" name="verse" number="2"><syllabic>single</syllabic><text font-size="10.8">Dein</text></lyric><lyric default-y="-145" name="verse" number="3"><syllabic>begin</syllabic><text font-size="10.8">Hän</text></lyric><lyric default-y="-169" name="verse" number="4"><syllabic>single</syllabic><text font-size="10.8">Zeig</text></lyric></note><note default-x="156"><pitch><step>G</step><octave>4</octave></pitch><duration>2</duration><voice>1</voice><type>eighth</type><stem default-y="5">up</stem><beam number="1">begin</beam><lyric default-y="-95" name="verse" number="1"><syllabic>begin</syllabic><text font-size="10.8">sel</text></lyric><lyric default-y="-120" name="verse" number="2"><syllabic>single</syllabic><text font-size="10.8">Herz</text></lyric><lyric default-y="-145" name="verse" number="3"><syllabic>end</syllabic><text font-size="10.8">de,</text></lyric><lyric default-y="-169" name="verse" number="4"><syllabic>single</syllabic><text font-size="10.8">uns</text></lyric></note><note default-x="228"><pitch><step>A</step><alter>-1</alter><octave>4</octave></pitch><duration>2</duration><voice>1</voice><type>eighth</type><stem default-y="10">up</stem><beam number="1">end</beam><lyric default-y="-95" name="verse" number="1"><syllabic>end</syllabic><text font-size="10.8">ber,</text></lyric><lyric default-y="-120" name="verse" number="2"><syllabic>begin</syllabic><text font-size="10.8">zer</text></lyric><lyric default-y="-145" name="verse" number="3"><syllabic>single</syllabic><text font-size="10.8">die</text></lyric><lyric default-y="-169" name="verse" number="4"><syllabic>single</syllabic><text font-size="10.8">die</text></lyric></note><harmony default-y="29" font-size="10" font-weight="bold"><root><root-step>G</root-step></root><kind text="">major</kind><bass><bass-step>B</bass-step></bass></harmony><note default-x="301"><pitch><step>G</step><octave>4</octave></pitch><duration>4</duration><voice>1</voice><type>quarter</type><stem default-y="6">up</stem><lyric default-y="-95" name="verse" number="1"><syllabic>single</syllabic><text font-size="10.8">hier</text></lyric><lyric default-y="-120" name="verse" number="2"><syllabic>end</syllabic><text font-size="10.8">brach</text></lyric><lyric default-y="-145" name="verse" number="3"><syllabic>single</syllabic><text font-size="10.8">sonst</text></lyric><lyric default-y="-169" name="verse" number="4"><syllabic>single</syllabic><text font-size="10.8">Not</text></lyric></note><note default-x="419"><pitch><step>F</step><octave>4</octave></pitch><duration>2</duration><voice>1</voice><type>eighth</type><stem default-y="0">up</stem><beam number="1">begin</beam><lyric default-y="-95" name="verse" number="1"><syllabic>begin</syllabic><text font-size="10.8">Die</text></lyric><lyric default-y="-120" name="verse" number="2"><syllabic>single</syllabic><text font-size="10.8">in</text></lyric><lyric default-y="-145" name="verse" number="3"><syllabic>begin</syllabic><text font-size="10.8">all</text></lyric><lyric default-y="-169" name="verse" number="4"><syllabic>single</syllabic><text font-size="10.8">um</text></lyric></note><note default-x="491"><pitch><step>E</step><alter>-1</alter><octave>4</octave></pitch><duration>2</duration><voice>1</voice><type>eighth</type><stem default-y="-4.5">up</stem><beam number="1">end</beam><lyric default-y="-95" name="verse" number="1"><syllabic>end</syllabic><text font-size="10.8">ner</text></lyric><lyric default-y="-120" name="verse" number="2"><syllabic>single</syllabic><text font-size="10.8">dem</text></lyric><lyric default-y="-145" name="verse" number="3"><syllabic>middle</syllabic><text font-size="10.8">machts</text></lyric><lyric default-y="-169" name="verse" number="4"><syllabic>single</syllabic><text font-size="10.8">uns</text></lyric></note></measure><!--=======================================================--><measure number="6" width="194"><harmony default-y="29" font-size="10" font-weight="bold"><root><root-step>A</root-step><root-alter>-1</root-alter></root><kind text="maj7">major-seventh</kind></harmony><note default-x="40"><pitch><step>C</step><octave>4</octave></pitch><duration>16</duration><voice>1</voice><type>whole</type><lyric default-y="-95" name="verse" number="1"><syllabic>single</syllabic><text font-size="10.8">nur,</text></lyric><lyric default-y="-120" name="verse" number="2"><syllabic>single</syllabic><text font-size="10.8">Leid;</text></lyric><lyric default-y="-145" name="verse" number="3"><syllabic>end</syllabic><text font-size="10.8">voll,</text></lyric><lyric default-y="-169" name="verse" number="4"><syllabic>single</syllabic><text font-size="10.8">her,</text></lyric></note></measure><!--=======================================================--><measure number="7" width="568"><print new-system="yes"><system-layout><system-distance>226</system-distance></system-layout></print><harmony default-y="29" font-size="10" font-weight="bold"><root><root-step>B</root-step><root-alter>-1</root-alter></root><kind text="">major</kind><bass><bass-step>A</bass-step><bass-alter>-1</bass-alter></bass></harmony><note default-x="112"><rest /><duration>2</duration><voice>1</voice><type>eighth</type></note><note default-x="176"><pitch><step>F</step><octave>4</octave></pitch><duration>2</duration><voice>1</voice><type>eighth</type><stem default-y="1">up</stem><lyric default-y="-95" name="verse" number="1"><syllabic>single</syllabic><text font-size="10.8">gabst</text></lyric><lyric default-y="-120" name="verse" number="2"><syllabic>single</syllabic><text font-size="10.8">doch</text></lyric><lyric default-y="-145" name="verse" number="3"><syllabic>begin</syllabic><text font-size="10.8">grau</text></lyric><lyric default-y="-169" name="verse" number="4"><syllabic>single</syllabic><text font-size="10.8">dass</text></lyric></note><note default-x="240"><pitch><step>G</step><octave>4</octave></pitch><duration>2</duration><voice>1</voice><type>eighth</type><stem default-y="5">up</stem><beam number="1">begin</beam><lyric default-y="-95" name="verse" number="1"><syllabic>single</syllabic><text font-size="10.8">du</text></lyric><lyric default-y="-120" name="verse" number="2"><syllabic>begin</syllabic><text font-size="10.8">Got</text></lyric><lyric default-y="-145" name="verse" number="3"><syllabic>end</syllabic><text font-size="10.8">sam</text></lyric><lyric default-y="-169" name="verse" number="4"><syllabic>single</syllabic><text font-size="10.8">wir,</text></lyric></note><note default-x="304"><pitch><step>A</step><alter>-1</alter><octave>4</octave></pitch><duration>2</duration><voice>1</voice><type>eighth</type><stem default-y="10">up</stem><beam number="1">end</beam><lyric default-y="-95" name="verse" number="1"><syllabic>single</syllabic><text font-size="10.8">dein</text></lyric><lyric default-y="-120" name="verse" number="2"><syllabic>end</syllabic><text font-size="10.8">tes</text></lyric><lyric default-y="-145" name="verse" number="3"><syllabic>single</syllabic><text font-size="10.8">sind</text></lyric><lyric default-y="-169" name="verse" number="4"><syllabic>single</syllabic><text font-size="10.8">Herr</text></lyric></note><harmony default-y="29" font-size="10" font-weight="bold"><root><root-step>E</root-step><root-alter>-1</root-alter></root><kind text="">major</kind><bass><bass-step>G</bass-step></bass></harmony><note default-x="367"><pitch><step>B</step><alter>-1</alter><octave>4</octave></pitch><duration>6</duration><voice>1</voice><type>quarter</type><dot /><stem default-y="-55">down</stem><lyric default-y="-95" name="verse" number="1"><syllabic>begin</syllabic><text font-size="10.8">Le</text></lyric><lyric default-y="-120" name="verse" number="2"><syllabic>begin</syllabic><text font-size="10.8">Will</text></lyric><lyric default-y="-145" name="verse" number="3"><syllabic>single</syllabic><text font-size="10.8">sie</text></lyric><lyric default-y="-169" name="verse" number="4"><syllabic>begin</syllabic><text font-size="10.8">Je</text></lyric></note><note default-x="502"><pitch><step>E</step><alter>-1</alter><octave>4</octave></pitch><duration>2</duration><voice>1</voice><type>eighth</type><stem default-y="-4">up</stem><lyric default-y="-95" name="verse" number="1"><syllabic>end</syllabic><text font-size="10.8">ben</text></lyric><lyric default-y="-120" name="verse" number="2"><syllabic>end</syllabic><text font-size="10.8">e</text></lyric><lyric default-y="-145" name="verse" number="3"><syllabic>single</syllabic><text font-size="10.8">am</text></lyric><lyric default-y="-169" name="verse" number="4"><syllabic>end</syllabic><text font-size="10.8">sus,</text></lyric></note></measure><!--=======================================================--><measure number="8" width="239"><print new-system="no" /><attributes><time><beats>2</beats><beat-type>4</beat-type></time></attributes><harmony default-y="29" font-size="10" font-weight="bold"><root><root-step>A</root-step><root-alter>-1</root-alter></root><kind text="">major</kind><bass><bass-step>C</bass-step></bass></harmony><note default-x="64"><pitch><step>A</step><alter>-1</alter><octave>4</octave></pitch><duration>4</duration><voice>1</voice><type>quarter</type><stem default-y="11">up</stem><lyric default-y="-95" name="verse" number="1"><syllabic>single</syllabic><text font-size="10.8">für</text></lyric><lyric default-y="-120" name="verse" number="2"><syllabic>single</syllabic><text font-size="10.8">war</text></lyric><lyric default-y="-145" name="verse" number="3"><syllabic>single</syllabic><text font-size="10.8">Kreuz</text></lyric><lyric default-y="-169" name="verse" number="4"><syllabic>begin</syllabic><text font-size="10.8">die</text></lyric></note><harmony default-y="29" font-size="10" font-weight="bold"><root><root-step>E</root-step><root-alter>-1</root-alter></root><kind text="">major</kind><bass><bass-step>B</bass-step><bass-alter>-1</bass-alter></bass></harmony><note default-x="151"><pitch><step>G</step><octave>4</octave></pitch><duration>4</duration><voice>1</voice><type>quarter</type><stem default-y="6">up</stem><lyric default-y="-95" name="verse" number="1"><syllabic>single</syllabic><text font-size="10.8">uns</text></lyric><lyric default-y="-120" name="verse" number="2"><syllabic>single</syllabic><text font-size="10.8">dein</text></lyric><lyric default-y="-145" name="verse" number="3"><syllabic>begin</syllabic><text font-size="10.8">durch</text></lyric><lyric default-y="-169" name="verse" number="4"><syllabic>end</syllabic><text font-size="10.8">nen</text></lyric></note></measure><!--=======================================================--><measure number="9" width="345"><print new-system="no" /><attributes><time><beats>4</beats><beat-type>4</beat-type></time></attributes><harmony default-y="29" font-size="10" font-weight="bold"><root><root-step>B</root-step><root-alter>-1</root-alter></root><kind text="">major</kind></harmony><note default-x="64"><pitch><step>F</step><octave>4</octave></pitch><duration>8</duration><voice>1</voice><type>half</type><stem default-y="1">up</stem><lyric default-y="-95" name="verse" number="1"><syllabic>single</syllabic><text font-size="10.8">hin.</text></lyric><lyric default-y="-120" name="verse" number="2"><syllabic>single</syllabic><text font-size="10.8">Teil.</text></lyric><lyric default-y="-145" name="verse" number="3"><syllabic>end</syllabic><text font-size="10.8">bohrt.</text></lyric><lyric default-y="-169" name="verse" number="4"><syllabic>single</syllabic><text font-size="10.8">dir.</text></lyric></note><note default-x="172"><rest /><duration>2</duration><voice>1</voice><type>eighth</type></note><note default-x="214"><pitch><step>B</step><alter>-1</alter><octave>4</octave></pitch><duration>2</duration><voice>1</voice><type>eighth</type><stem default-y="-55">down</stem><lyric default-y="-95" name="verse" number="1"><syllabic>single</syllabic><text font-size="10.8">Du</text></lyric><lyric default-y="-120" name="verse" number="2"><syllabic>single</syllabic><text font-size="10.8">Du</text></lyric><lyric default-y="-145" name="verse" number="3"><syllabic>single</syllabic><text font-size="10.8">Du</text></lyric><lyric default-y="-169" name="verse" number="4"><syllabic>single</syllabic><text font-size="10.8">Du</text></lyric></note><note default-x="255"><pitch><step>B</step><alter>-1</alter><octave>4</octave></pitch><duration>2</duration><voice>1</voice><type>eighth</type><stem default-y="15">up</stem><beam number="1">begin</beam><lyric default-y="-95" name="verse" number="1"><syllabic>begin</syllabic><text font-size="10.8">un</text></lyric><lyric default-y="-120" name="verse" number="2"><syllabic>begin</syllabic><text font-size="10.8">un</text></lyric><lyric default-y="-145" name="verse" number="3"><syllabic>begin</syllabic><text font-size="10.8">un</text></lyric><lyric default-y="-169" name="verse" number="4"><syllabic>begin</syllabic><text font-size="10.8">un</text></lyric></note><note default-x="297"><pitch><step>A</step><alter>-1</alter><octave>4</octave></pitch><duration>2</duration><voice>1</voice><type>eighth</type><stem default-y="10">up</stem><beam number="1">end</beam><lyric default-y="-95" name="verse" number="1"><syllabic>end</syllabic><text font-size="10.8">ser</text></lyric><lyric default-y="-120" name="verse" number="2"><syllabic>end</syllabic><text font-size="10.8">ser</text></lyric><lyric default-y="-145" name="verse" number="3"><syllabic>end</syllabic><text font-size="10.8">ser</text></lyric><lyric default-y="-169" name="verse" number="4"><syllabic>end</syllabic><text font-size="10.8">ser</text></lyric></note><barline location="right"><bar-style>light-light</bar-style></barline></measure><!--=======================================================--><measure number="10" width="342"><print new-system="yes"><system-layout><system-distance>226</system-distance></system-layout></print><harmony default-y="29" font-size="10" font-weight="bold"><root><root-step>E</root-step><root-alter>-1</root-alter></root><kind text="">major</kind></harmony><note default-x="109"><pitch><step>G</step><octave>4</octave></pitch><duration>8</duration><tie type="start" /><voice>1</voice><type>half</type><stem default-y="6">up</stem><notations><tied type="start" /></notations><lyric default-y="-95" name="verse" number="1"><syllabic>single</syllabic><text font-size="10.8">Gott,</text><extend /></lyric></note><harmony default-y="29" font-size="10" font-weight="bold"><root><root-step>B</root-step><root-alter>-1</root-alter></root><kind text="">major</kind></harmony><note default-x="184"><pitch><step>G</step><octave>4</octave></pitch><duration>2</duration><tie type="stop" /><voice>1</voice><type>eighth</type><stem default-y="5">up</stem><beam number="1">begin</beam><notations><tied type="stop" /></notations></note><note default-x="216"><pitch><step>G</step><octave>4</octave></pitch><duration>2</duration><voice>1</voice><type>eighth</type><stem default-y="5">up</stem><beam number="1">end</beam><lyric default-y="-95" name="verse" number="1"><syllabic>single</syllabic><text font-size="10.8">du</text></lyric></note><note default-x="258"><pitch><step>G</step><octave>4</octave></pitch><duration>2</duration><voice>1</voice><type>eighth</type><stem default-y="5">up</stem><beam number="1">begin</beam><lyric default-y="-95" name="verse" number="1"><syllabic>single</syllabic><text font-size="10.8">bist</text></lyric></note><note default-x="304"><pitch><step>F</step><octave>4</octave></pitch><duration>2</duration><voice>1</voice><type>eighth</type><stem default-y="0">up</stem><beam number="1">end</beam><lyric default-y="-95" name="verse" number="1"><syllabic>single</syllabic><text font-size="10.8">der</text></lyric></note></measure><!--=======================================================--><measure number="11" width="346"><print new-system="no" /><harmony default-y="29" font-size="10" font-weight="bold"><root><root-step>C</root-step></root><kind text="m">minor</kind></harmony><note default-x="28"><pitch><step>E</step><alter>-1</alter><octave>4</octave></pitch><duration>8</duration><tie type="start" /><voice>1</voice><type>half</type><stem default-y="-4">up</stem><notations><tied type="start" /></notations><lyric default-y="-95" name="verse" number="1"><syllabic>single</syllabic><text font-size="10.8">Herr,</text><extend /></lyric></note><harmony default-y="29" font-size="10" font-weight="bold"><root><root-step>C</root-step></root><kind text="m">minor</kind><bass><bass-step>B</bass-step><bass-alter>-1</bass-alter></bass></harmony><note default-x="128"><pitch><step>E</step><alter>-1</alter><octave>4</octave></pitch><duration>2</duration><tie type="stop" /><voice>1</voice><type>eighth</type><stem default-y="-4.5">up</stem><beam number="1">begin</beam><notations><tied type="stop" /></notations></note><note default-x="189"><pitch><step>E</step><alter>-1</alter><octave>4</octave></pitch><duration>2</duration><voice>1</voice><type>eighth</type><stem default-y="-4.5">up</stem><beam number="1">end</beam><lyric default-y="-95" name="verse" number="1"><syllabic>single</syllabic><text font-size="10.8">doch</text></lyric></note><note default-x="253"><pitch><step>F</step><octave>4</octave></pitch><duration>2</duration><voice>1</voice><type>eighth</type><stem default-y="0">up</stem><beam number="1">begin</beam><lyric default-y="-95" name="verse" number="1"><syllabic>single</syllabic><text font-size="10.8">warst</text></lyric></note><note default-x="307"><pitch><step>G</step><octave>4</octave></pitch><duration>2</duration><voice>1</voice><type>eighth</type><stem default-y="5">up</stem><beam number="1">end</beam><lyric default-y="-95" name="verse" number="1"><syllabic>single</syllabic><text font-size="10.8">du</text></lyric></note></measure><!--=======================================================--><measure number="12" width="202"><print new-system="no" /><harmony default-y="29" font-size="10" font-weight="bold"><root><root-step>A</root-step><root-alter>-1</root-alter></root><kind text="">major</kind></harmony><note default-x="19"><pitch><step>A</step><alter>-1</alter><octave>4</octave></pitch><duration>6</duration><voice>1</voice><type>quarter</type><dot /><stem default-y="10.5">up</stem><lyric default-y="-95" name="verse" number="1"><syllabic>single</syllabic><text font-size="10.8">nur</text></lyric></note><note default-x="71"><pitch><step>G</step><octave>4</octave></pitch><duration>2</duration><voice>1</voice><type>eighth</type><stem default-y="6">up</stem><lyric default-y="-95" name="verse" number="1"><syllabic>single</syllabic><text font-size="10.8">als</text></lyric></note><harmony default-y="29" font-size="10" font-weight="bold"><root><root-step>B</root-step><root-alter>-1</root-alter></root><kind text="">major</kind></harmony><note default-x="113"><pitch><step>F</step><octave>4</octave></pitch><duration>4</duration><voice>1</voice><type>quarter</type><stem default-y="1">up</stem><lyric default-y="-95" name="verse" number="1"><syllabic>begin</syllabic><text font-size="10.8">Die</text></lyric></note><note default-x="162"><pitch><step>E</step><alter>-1</alter><octave>4</octave></pitch><duration>4</duration><voice>1</voice><type>quarter</type><stem default-y="-4">up</stem><lyric default-y="-95" name="verse" number="1"><syllabic>end</syllabic><text font-size="10.8">ner</text></lyric></note></measure><!--=======================================================--><measure number="13" width="262"><print new-system="no" /><harmony default-y="29" font-size="10" font-weight="bold"><root><root-step>E</root-step><root-alter>-1</root-alter></root><kind text="">major</kind></harmony><note default-x="25"><pitch><step>G</step><octave>4</octave></pitch><duration>8</duration><tie type="start" /><voice>1</voice><type>half</type><stem default-y="6">up</stem><notations><tied type="start" /></notations><lyric default-y="-95" name="verse" number="1"><syllabic>single</syllabic><text font-size="10.8">hier.</text><extend /></lyric></note><harmony default-y="29" font-size="10" font-weight="bold"><root><root-step>B</root-step><root-alter>-1</root-alter></root><kind text="">major</kind></harmony><note default-x="101"><pitch><step>G</step><octave>4</octave></pitch><duration>2</duration><tie type="stop" /><voice>1</voice><type>eighth</type><stem default-y="10">up</stem><beam number="1">begin</beam><notations><tied type="stop" /></notations></note><note default-x="137"><pitch><step>B</step><alter>-1</alter><octave>4</octave></pitch><duration>2</duration><voice>1</voice><type>eighth</type><stem default-y="15">up</stem><beam number="1">end</beam><lyric default-y="-95" name="verse" number="1"><syllabic>single</syllabic><text font-size="10.8">Wir</text></lyric></note><note default-x="179"><pitch><step>B</step><alter>-1</alter><octave>4</octave></pitch><duration>2</duration><voice>1</voice><type>eighth</type><stem default-y="15">up</stem><beam number="1">begin</beam><lyric default-y="-95" name="verse" number="1"><syllabic>begin</syllabic><text font-size="10.8">fol</text></lyric></note><note default-x="221"><pitch><step>A</step><alter>-1</alter><octave>4</octave></pitch><duration>2</duration><voice>1</voice><type>eighth</type><stem default-y="10">up</stem><beam number="1">end</beam><lyric default-y="-95" name="verse" number="1"><syllabic>end</syllabic><text font-size="10.8">gen</text></lyric></note></measure><!--=======================================================--><measure number="14" width="430"><print new-system="yes"><system-layout><system-distance>226</system-distance></system-layout></print><harmony default-y="29" font-size="10" font-weight="bold"><root><root-step>E</root-step><root-alter>-1</root-alter></root><kind text="">major</kind></harmony><note default-x="100"><pitch><step>G</step><octave>4</octave></pitch><duration>6</duration><voice>1</voice><type>quarter</type><dot /><stem default-y="6">up</stem><lyric default-y="-95" name="verse" number="1"><syllabic>single</syllabic><text font-size="10.8">dir,</text></lyric></note><note default-x="150"><pitch><step>E</step><alter>-1</alter><octave>4</octave></pitch><duration>1</duration><voice>1</voice><type>16th</type><stem default-y="-5">up</stem><beam number="1">begin</beam><beam number="2">begin</beam><lyric default-y="-95" name="verse" number="1"><syllabic>single</syllabic><text font-size="10.8">denn</text></lyric></note><note default-x="204"><pitch><step>F</step><octave>4</octave></pitch><duration>1</duration><voice>1</voice><type>16th</type><stem default-y="0">up</stem><beam number="1">end</beam><beam number="2">end</beam><lyric default-y="-95" name="verse" number="1"><syllabic>single</syllabic><text font-size="10.8">dein</text></lyric></note><harmony default-y="29" font-size="10" font-weight="bold"><root><root-step>E</root-step><root-alter>-1</root-alter></root><kind text="">major</kind><bass><bass-step>D</bass-step><bass-alter>-1</bass-alter></bass></harmony><note default-x="260"><pitch><step>G</step><octave>4</octave></pitch><duration>2</duration><voice>1</voice><type>eighth</type><stem default-y="5">up</stem><beam number="1">begin</beam><lyric default-y="-95" name="verse" number="1"><syllabic>single</syllabic><text font-size="10.8">Joch</text></lyric></note><note default-x="304"><pitch><step>G</step><octave>4</octave></pitch><duration>2</duration><voice>1</voice><type>eighth</type><stem default-y="5">up</stem><beam number="1">end</beam><lyric default-y="-95" name="verse" number="1"><syllabic>single</syllabic><text font-size="10.8">ist</text></lyric></note><note default-x="340"><pitch><step>A</step><alter>-1</alter><octave>4</octave></pitch><duration>2</duration><voice>1</voice><type>eighth</type><stem default-y="10">up</stem><beam number="1">begin</beam><lyric default-y="-95" name="verse" number="1"><syllabic>single</syllabic><text font-size="10.8">gar</text></lyric></note><note default-x="389"><pitch><step>B</step><alter>-1</alter><octave>4</octave></pitch><duration>2</duration><voice>1</voice><type>eighth</type><stem default-y="15">up</stem><beam number="1">end</beam><lyric default-y="-95" name="verse" number="1"><syllabic>single</syllabic><text font-size="10.8">nicht</text></lyric></note></measure><!--=======================================================--><measure number="15" width="235"><print new-system="no" /><harmony default-y="29" font-size="10" font-weight="bold"><root><root-step>A</root-step><root-alter>-1</root-alter></root><kind text="">major</kind><bass><bass-step>C</bass-step></bass></harmony><note default-x="41"><pitch><step>A</step><alter>-1</alter><octave>4</octave></pitch><duration>8</duration><voice>1</voice><type>half</type><stem default-y="11">up</stem><lyric default-y="-95" name="verse" number="1"><syllabic>single</syllabic><text font-size="10.8">schwer,</text></lyric></note><harmony default-y="29" font-size="10" font-weight="bold"><root><root-step>D</root-step></root><kind text="">major</kind></harmony><note default-x="97"><rest /><duration>2</duration><voice>1</voice><type>eighth</type></note><note default-x="119"><pitch><step>D</step><octave>5</octave></pitch><duration>2</duration><voice>1</voice><type>eighth</type><stem default-y="-45.5">down</stem><lyric default-y="-95" name="verse" number="1"><syllabic>single</syllabic><text font-size="10.8">wir</text></lyric></note><note default-x="157"><pitch><step>D</step><octave>5</octave></pitch><duration>2</duration><voice>1</voice><type>eighth</type><stem default-y="-45">down</stem><beam number="1">begin</beam><lyric default-y="-95" name="verse" number="1"><syllabic>begin</syllabic><text font-size="10.8">die</text></lyric></note><note default-x="199"><pitch><step>C</step><octave>5</octave></pitch><duration>2</duration><voice>1</voice><type>eighth</type><stem default-y="-50">down</stem><beam number="1">end</beam><lyric default-y="-95" name="verse" number="1"><syllabic>end</syllabic><text font-size="10.8">nen</text></lyric></note></measure><!--=======================================================--><measure number="16" width="213"><print new-system="no" /><harmony default-y="29" font-size="10" font-weight="bold"><root><root-step>E</root-step><root-alter>-1</root-alter></root><kind text="">major</kind></harmony><note default-x="19"><pitch><step>B</step><alter>-1</alter><octave>4</octave></pitch><duration>8</duration><tie type="start" /><voice>1</voice><type>half</type><stem default-y="-55">down</stem><notations><tied type="start" /></notations><lyric default-y="-95" name="verse" number="1"><syllabic>single</syllabic><text font-size="10.8">dir,</text><extend /></lyric></note><harmony default-y="29" font-size="10" font-weight="bold"><root><root-step>B</root-step><root-alter>-1</root-alter></root><kind text="">major</kind></harmony><note default-x="70"><pitch><step>B</step><alter>-1</alter><octave>4</octave></pitch><duration>2</duration><tie type="stop" /><voice>1</voice><type>eighth</type><stem default-y="15">up</stem><beam number="1">begin</beam><notations><tied type="stop" /></notations></note><note default-x="97"><pitch><step>G</step><octave>4</octave></pitch><duration>2</duration><voice>1</voice><type>eighth</type><stem default-y="10">up</stem><beam number="1">end</beam><lyric default-y="-95" name="verse" number="1"><syllabic>begin</syllabic><text font-size="10.8">Kö</text></lyric></note><note default-x="135"><pitch><step>G</step><octave>4</octave></pitch><duration>2</duration><voice>1</voice><type>eighth</type><stem default-y="5">up</stem><beam number="1">begin</beam><lyric default-y="-95" name="verse" number="1"><syllabic>end</syllabic><text font-size="10.8">nig</text></lyric></note><note default-x="177"><pitch><step>F</step><octave>4</octave></pitch><duration>2</duration><voice>1</voice><type>eighth</type><stem default-y="0">up</stem><beam number="1">end</beam><lyric default-y="-95" name="verse" number="1"><syllabic>single</syllabic><text font-size="10.8">und</text></lyric></note></measure><!--=======================================================--><measure number="17" width="153"><print new-system="no" /><barline location="left"><ending default-y="71" end-length="71" font-size="6.2" number="1, 2, 3" type="start" /></barline><harmony default-y="29" font-size="10" font-weight="bold"><root><root-step>E</root-step><root-alter>-1</root-alter></root><kind text="">major</kind></harmony><note default-x="28"><pitch><step>E</step><alter>-1</alter><octave>4</octave></pitch><duration>8</duration><voice>1</voice><type>half</type><stem default-y="-4">up</stem><lyric default-y="-95" name="verse" number="1"><syllabic>single</syllabic><text font-size="10.8">Herr.</text></lyric></note><harmony default-y="29" font-size="10" font-weight="bold"><root><root-step>G</root-step></root><kind text="7">dominant</kind></harmony><note default-x="81"><rest /><duration>8</duration><voice>1</voice><type>half</type></note><barline location="right"><bar-style>light-heavy</bar-style><ending number="1, 2, 3" type="stop" /><repeat direction="backward" /></barline></measure><!--=======================================================--><measure number="18" width="121"><print new-system="no" /><barline location="left"><ending default-y="71" end-length="71" font-size="6.2" number="4" type="start" /></barline><harmony default-y="29" font-size="10" font-weight="bold"><root><root-step>E</root-step><root-alter>-1</root-alter></root><kind text="">major</kind></harmony><note default-x="26"><pitch><step>E</step><alter>-1</alter><octave>4</octave></pitch><duration>16</duration><voice>1</voice><type>whole</type><lyric default-y="-95" name="verse" number="1"><syllabic>single</syllabic><text font-size="10.8">Herr.</text></lyric></note><barline location="right"><bar-style>light-heavy</bar-style><ending number="4" type="discontinue" /></barline></measure></part><!--=========================================================--></score-partwise>