<?xml version="1.0" encoding="UTF-8" standalone="no"?><!DOCTYPE score-partwise PUBLIC "-//Recordare//DTD MusicXML 3.0 Partwise//EN" "http://www.musicxml.org/dtds/3.0/partwise.dtd"[]><score-partwise version="3.0"><movement-title>Wer Gott folgt riskiert seine Träume</movement-title><identification><creator type="composer">Theo Lehmann und Jörg Swoboda</creator><encoding><software>Finale v26.3 for Windows</software><encoding-date>2022-12-20</encoding-date><supports attribute="new-system" element="print" type="yes" value="yes" /><supports attribute="new-page" element="print" type="yes" value="yes" /><supports element="accidental" type="yes" /><supports element="beam" type="yes" /><supports element="stem" type="yes" /></encoding><rights>CCLI-Liednummer 4330974
© SCM Hänssler, Holzgerlingen
Nutzung ausschließlich im Rahmen der SongSelect®-Nutzungsbedingungen. Alle Rechte vorbehalten. www.ccli.com
CCLI-Lizenznummer 2182334
</rights></identification><defaults><scaling><millimeters>6.5088</millimeters><tenths>40</tenths></scaling><page-layout><page-height>1717</page-height><page-width>1327</page-width><page-margins type="both"><left-margin>78</left-margin><right-margin>78</right-margin><top-margin>78</top-margin><bottom-margin>78</bottom-margin></page-margins></page-layout><system-layout><system-margins><left-margin>0</left-margin><right-margin>0</right-margin></system-margins><system-distance>312</system-distance><top-system-distance>117</top-system-distance></system-layout><appearance><line-width type="stem">1.4583</line-width><line-width type="beam">5</line-width><line-width type="staff">1.25</line-width><line-width type="light barline">1.4583</line-width><line-width type="heavy barline">5</line-width><line-width type="leger">1.875</line-width><line-width type="ending">1.4583</line-width><line-width type="wedge">1.4583</line-width><line-width type="enclosure">1.4583</line-width><line-width type="tuplet bracket">1.4583</line-width><note-size type="grace">50</note-size><note-size type="cue">50</note-size><distance type="hyphen">240</distance><distance type="beam">7.5</distance></appearance><music-font font-family="Maestro,engraved" font-size="18.5" /><word-font font-family="Arial" font-size="9.2" /><lyric-font font-family="Georgia" font-size="10.8" name="verse" /><lyric-font font-family="Arial" font-size="10.8" name="section" /></defaults><credit page="1"><credit-type>title</credit-type><credit-words default-x="663" default-y="1649" font-size="21.6" font-weight="bold" justify="center" valign="top">Wer Gott folgt riskiert seine Träume</credit-words></credit><credit page="1"><credit-words default-x="1249" default-y="1576" font-size="10.8" font-style="italic" justify="right" valign="top">Text und Musik:</credit-words></credit><credit page="1"><credit-type>composer</credit-type><credit-words default-x="1249" default-y="1552" font-size="10.8" font-weight="bold" justify="right" valign="top">Theo Lehmann und Jörg Swoboda</credit-words></credit><credit page="2"><credit-type>page number</credit-type><credit-type>title</credit-type><credit-words default-x="663" default-y="1663" font-size="10.8" justify="center" valign="top">Wer Gott folgt riskiert seine Träume - 2</credit-words></credit><part-list><score-part id="P1"><part-name print-object="no">Vocals</part-name><score-instrument id="P1-I2"><instrument-name>Melody</instrument-name></score-instrument><midi-instrument id="P1-I2"><midi-channel>1</midi-channel><midi-program>1</midi-program><volume>80</volume><pan>0</pan></midi-instrument></score-part></part-list><!--=========================================================--><part id="P1"><measure implicit="yes" number="0" width="260"><print page-number="1"><page-layout><page-height>1717</page-height><page-width>1327</page-width><page-margins><left-margin>78</left-margin><right-margin>78</right-margin><top-margin>190</top-margin><bottom-margin>163</bottom-margin></page-margins></page-layout><system-layout><system-margins><left-margin>68</left-margin><right-margin>0</right-margin></system-margins></system-layout><measure-numbering>system</measure-numbering></print><attributes><divisions>2</divisions><key><fifths>2</fifths><mode>major</mode></key><time><beats>4</beats><beat-type>4</beat-type></time><clef><sign>G</sign><line>2</line></clef></attributes><sound tempo="96" /><note default-x="118"><rest /><duration>1</duration><voice>1</voice><type>eighth</type><lyric default-y="-91" name="verse" number="1"><syllabic>single</syllabic><text font-size="10.8">1.</text></lyric><lyric default-y="-115" name="verse" number="2"><syllabic>single</syllabic><text font-size="10.8">(2.</text></lyric><lyric default-y="-140" name="verse" number="3"><syllabic>single</syllabic><text font-size="10.8">(3.</text></lyric><lyric default-y="-165" name="verse" number="4"><syllabic>single</syllabic><text font-size="10.8">(4.</text></lyric><lyric default-y="-190" name="verse" number="5"><syllabic>single</syllabic><text font-size="10.8">(5.</text></lyric><lyric default-y="-215" name="verse" number="6"><syllabic>single</syllabic><text font-size="10.8">(6.</text></lyric></note><note default-x="189"><pitch><step>A</step><octave>4</octave></pitch><duration>1</duration><voice>1</voice><type>eighth</type><stem default-y="6">up</stem><lyric default-y="-91" name="verse" number="1"><syllabic>single</syllabic><text font-size="10.8">Wer</text></lyric><lyric default-y="-115" name="verse" number="2"><syllabic>single</syllabic><text font-size="10.8">Auch)</text></lyric><lyric default-y="-140" name="verse" number="3"><syllabic>single</syllabic><text font-size="10.8">Wo)</text></lyric><lyric default-y="-165" name="verse" number="4"><syllabic>single</syllabic><text font-size="10.8">Die)</text></lyric><lyric default-y="-190" name="verse" number="5"><syllabic>single</syllabic><text font-size="10.8">Und)</text></lyric><lyric default-y="-215" name="verse" number="6"><syllabic>single</syllabic><text font-size="10.8">Wer)</text></lyric></note></measure><!--=======================================================--><measure number="1" width="507"><barline location="left"><bar-style>heavy-light</bar-style><repeat direction="forward" winged="none" /></barline><harmony default-y="36" font-size="10" font-weight="bold"><root><root-step>D</root-step></root><kind halign="center" text="">major</kind></harmony><direction placement="above"><direction-type><rehearsal default-y="69" font-weight="bold" relative-x="-5">VERS</rehearsal></direction-type></direction><note default-x="43"><pitch><step>A</step><octave>4</octave></pitch><duration>2</duration><voice>1</voice><type>quarter</type><stem default-y="6">up</stem><lyric default-y="-91" name="verse" number="1"><syllabic>single</syllabic><text font-size="10.8">Gott</text></lyric><lyric default-y="-115" name="verse" number="2"><syllabic>single</syllabic><text font-size="10.8">mit</text></lyric><lyric default-y="-140" name="verse" number="3"><syllabic>begin</syllabic><text font-size="10.8">fest</text></lyric><lyric default-y="-165" name="verse" number="4"><syllabic>begin</syllabic><text font-size="10.8">Mäch</text></lyric><lyric default-y="-190" name="verse" number="5"><syllabic>single</syllabic><text font-size="10.8">lehrt</text></lyric><lyric default-y="-215" name="verse" number="6"><syllabic>single</syllabic><text font-size="10.8">stirbt,</text></lyric></note><note default-x="120"><pitch><step>G</step><octave>4</octave></pitch><duration>1</duration><voice>1</voice><type>eighth</type><stem default-y="1">up</stem><beam number="1">begin</beam><lyric default-y="-91" name="verse" number="1"><syllabic>single</syllabic><text font-size="10.8">folgt</text></lyric><lyric default-y="-115" name="verse" number="2"><syllabic>single</syllabic><text font-size="10.8">Gott</text></lyric><lyric default-y="-140" name="verse" number="3"><syllabic>end</syllabic><text font-size="10.8">steht,</text></lyric><lyric default-y="-165" name="verse" number="4"><syllabic>middle</syllabic><text font-size="10.8">ti</text></lyric><lyric default-y="-190" name="verse" number="5"><syllabic>begin</syllabic><text font-size="10.8">eu</text></lyric><lyric default-y="-215" name="verse" number="6"><syllabic>single</syllabic><text font-size="10.8">der</text></lyric></note><note default-x="197"><pitch><step>F</step><alter>1</alter><octave>4</octave></pitch><duration>1</duration><voice>1</voice><type>eighth</type><stem default-y="-4">up</stem><beam number="1">end</beam><lyric default-y="-91" name="verse" number="1"><syllabic>begin</syllabic><text font-size="10.8">ris</text></lyric><lyric default-y="-115" name="verse" number="2"><syllabic>begin</syllabic><text font-size="10.8">ge</text></lyric><lyric default-y="-140" name="verse" number="3"><syllabic>single</syllabic><text font-size="10.8">dass</text></lyric><lyric default-y="-165" name="verse" number="4"><syllabic>end</syllabic><text font-size="10.8">gen</text></lyric><lyric default-y="-190" name="verse" number="5"><syllabic>end</syllabic><text font-size="10.8">re</text></lyric><lyric default-y="-215" name="verse" number="6"><syllabic>single</syllabic><text font-size="10.8">wird</text></lyric></note><harmony default-y="36" font-size="10" font-weight="bold"><root><root-step>B</root-step></root><kind halign="center" text="m">minor</kind></harmony><note default-x="274"><pitch><step>F</step><alter>1</alter><octave>4</octave></pitch><duration>2</duration><voice>1</voice><type>quarter</type><stem default-y="-4">up</stem><lyric default-y="-91" name="verse" number="1"><syllabic>end</syllabic><text font-size="10.8">kiert</text></lyric><lyric default-y="-115" name="verse" number="2"><syllabic>end</syllabic><text font-size="10.8">rät</text></lyric><lyric default-y="-140" name="verse" number="3"><syllabic>begin</syllabic><text font-size="10.8">al</text></lyric><lyric default-y="-165" name="verse" number="4"><syllabic>begin</syllabic><text font-size="10.8">kom</text></lyric><lyric default-y="-190" name="verse" number="5"><syllabic>begin</syllabic><text font-size="10.8">Kin</text></lyric><lyric default-y="-215" name="verse" number="6"><syllabic>single</syllabic><text font-size="10.8">nicht</text></lyric></note><note default-x="352"><pitch><step>E</step><octave>4</octave></pitch><duration>1</duration><voice>1</voice><type>eighth</type><stem default-y="-8.5">up</stem><beam number="1">begin</beam><lyric default-y="-91" name="verse" number="1"><syllabic>begin</syllabic><text font-size="10.8">sei</text></lyric><lyric default-y="-115" name="verse" number="2"><syllabic>single</syllabic><text font-size="10.8">man</text></lyric><lyric default-y="-140" name="verse" number="3"><syllabic>end</syllabic><text font-size="10.8">les</text></lyric><lyric default-y="-165" name="verse" number="4"><syllabic>end</syllabic><text font-size="10.8">men</text></lyric><lyric default-y="-190" name="verse" number="5"><syllabic>end</syllabic><text font-size="10.8">der</text></lyric><lyric default-y="-215" name="verse" number="6"><syllabic>single</syllabic><text font-size="10.8">nur</text></lyric></note><note default-x="428"><pitch><step>D</step><octave>4</octave></pitch><duration>1</duration><voice>1</voice><type>eighth</type><stem default-y="-13.5">up</stem><beam number="1">end</beam><lyric default-y="-91" name="verse" number="1"><syllabic>end</syllabic><text font-size="10.8">ne</text></lyric><lyric default-y="-115" name="verse" number="2"><syllabic>single</syllabic><text font-size="10.8">in</text></lyric><lyric default-y="-140" name="verse" number="3"><syllabic>single</syllabic><text font-size="10.8">im</text></lyric><lyric default-y="-165" name="verse" number="4"><syllabic>single</syllabic><text font-size="10.8">und</text></lyric><lyric default-y="-190" name="verse" number="5"><syllabic>single</syllabic><text font-size="10.8">das</text></lyric><lyric default-y="-215" name="verse" number="6"><syllabic>single</syllabic><text font-size="10.8">zur</text></lyric></note></measure><!--=======================================================--><measure number="2" width="335"><harmony default-y="36" font-size="10" font-weight="bold"><root><root-step>G</root-step></root><kind halign="center" text="">major</kind><bass><bass-step>A</bass-step></bass></harmony><note default-x="21"><pitch><step>D</step><octave>4</octave></pitch><duration>2</duration><voice>1</voice><type>quarter</type><stem default-y="-13.5">up</stem><notations><slur bezier-x="13" bezier-y="-12" default-x="7" default-y="-55" number="1" placement="below" type="start" /></notations><lyric default-y="-91" name="verse" number="1"><syllabic>begin</syllabic><text font-size="10.8">Träu</text></lyric><lyric default-y="-115" name="verse" number="2"><syllabic>begin</syllabic><text font-size="10.8">Kri</text></lyric><lyric default-y="-140" name="verse" number="3"><syllabic>single</syllabic><text font-size="10.8">Fluss</text><extend type="start" /></lyric><lyric default-y="-165" name="verse" number="4"><syllabic>begin</syllabic><text font-size="10.8">ge</text></lyric><lyric default-y="-190" name="verse" number="5"><syllabic>begin</syllabic><text font-size="10.8">ei</text></lyric><lyric default-y="-215" name="verse" number="6"><syllabic>begin</syllabic><text font-size="10.8">Er</text></lyric></note><harmony default-y="36" font-size="10" font-weight="bold"><root><root-step>A</root-step></root><kind halign="center" text="">major</kind></harmony><note default-x="90"><pitch><step>E</step><octave>4</octave></pitch><duration>2</duration><voice>1</voice><type>quarter</type><stem default-y="-8.5">up</stem><notations><slur bezier-x="-11" bezier-y="-14" default-x="7" default-y="-50" number="1" type="stop" /></notations><lyric name="verse" number="3"><extend type="stop" /></lyric></note><harmony default-y="36" font-size="10" font-weight="bold"><root><root-step>D</root-step></root><kind halign="center" text="">major</kind></harmony><note default-x="156"><pitch><step>F</step><alter>1</alter><octave>4</octave></pitch><duration>3</duration><voice>1</voice><type>quarter</type><dot /><stem default-y="-4">up</stem><lyric default-y="-91" name="verse" number="1"><syllabic>end</syllabic><text font-size="10.8">me,</text></lyric><lyric default-y="-115" name="verse" number="2"><syllabic>end</syllabic><text font-size="10.8">sen,</text></lyric><lyric default-y="-140" name="verse" number="3"><syllabic>single</syllabic><text font-size="10.8">ist,</text></lyric><lyric default-y="-165" name="verse" number="4"><syllabic>end</syllabic><text font-size="10.8">hen,</text></lyric><lyric default-y="-190" name="verse" number="5"><syllabic>end</syllabic><text font-size="10.8">ne,</text></lyric><lyric default-y="-215" name="verse" number="6"><syllabic>end</syllabic><text font-size="10.8">de.</text></lyric></note><note default-x="249"><pitch><step>D</step><octave>4</octave></pitch><duration>1</duration><voice>1</voice><type>eighth</type><stem default-y="-13.5">up</stem><lyric default-y="-91" name="verse" number="1"><syllabic>single</syllabic><text font-size="10.8">setzt</text></lyric><lyric default-y="-115" name="verse" number="2"><syllabic>begin</syllabic><text font-size="10.8">Prob</text></lyric><lyric default-y="-140" name="verse" number="3"><syllabic>single</syllabic><text font-size="10.8">schwimmt</text></lyric><lyric default-y="-165" name="verse" number="4"><syllabic>single</syllabic><text font-size="10.8">und</text></lyric><lyric default-y="-190" name="verse" number="5"><syllabic>single</syllabic><text font-size="10.8">dass</text></lyric><lyric default-y="-215" name="verse" number="6"><syllabic>single</syllabic><text font-size="10.8">Gott</text></lyric></note></measure><!--=======================================================--><measure number="3" width="543"><print new-system="yes"><system-layout><system-distance>284</system-distance></system-layout></print><harmony default-y="36" font-size="10" font-weight="bold"><root><root-step>E</root-step></root><kind halign="center" text="m7">minor-seventh</kind></harmony><note default-x="101"><pitch><step>B</step><octave>4</octave></pitch><duration>2</duration><voice>1</voice><type>quarter</type><stem default-y="-51">down</stem><lyric default-y="-91" name="verse" number="1"><syllabic>begin</syllabic><text font-size="10.8">ei</text></lyric><lyric default-y="-115" name="verse" number="2"><syllabic>middle</syllabic><text font-size="10.8">le</text></lyric><lyric default-y="-140" name="verse" number="3"><syllabic>begin</syllabic><text font-size="10.8">vie</text></lyric><lyric default-y="-165" name="verse" number="4"><syllabic>single</syllabic><text font-size="10.8">auch</text></lyric><lyric default-y="-190" name="verse" number="5"><syllabic>begin</syllabic><text font-size="10.8">ü</text></lyric><lyric default-y="-215" name="verse" number="6"><syllabic>single</syllabic><text font-size="10.8">ruft</text></lyric></note><note default-x="174"><pitch><step>B</step><octave>4</octave></pitch><duration>1</duration><voice>1</voice><type>eighth</type><stem default-y="-51">down</stem><beam number="1">begin</beam><lyric default-y="-91" name="verse" number="1"><syllabic>middle</syllabic><text font-size="10.8">ge</text></lyric><lyric default-y="-115" name="verse" number="2"><syllabic>end</syllabic><text font-size="10.8">me,</text></lyric><lyric default-y="-140" name="verse" number="3"><syllabic>end</syllabic><text font-size="10.8">len</text></lyric><lyric default-y="-165" name="verse" number="4"><syllabic>begin</syllabic><text font-size="10.8">je</text></lyric><lyric default-y="-190" name="verse" number="5"><syllabic>end</syllabic><text font-size="10.8">ber</text></lyric><lyric default-y="-215" name="verse" number="6"><syllabic>single</syllabic><text font-size="10.8">ihn</text></lyric></note><note default-x="248"><pitch><step>B</step><octave>4</octave></pitch><duration>1</duration><voice>1</voice><type>eighth</type><stem default-y="-51">down</stem><beam number="1">end</beam><lyric default-y="-91" name="verse" number="1"><syllabic>end</syllabic><text font-size="10.8">ne</text></lyric><lyric default-y="-115" name="verse" number="2"><syllabic>single</syllabic><text font-size="10.8">die</text></lyric><lyric default-y="-140" name="verse" number="3"><syllabic>single</syllabic><text font-size="10.8">der</text></lyric><lyric default-y="-165" name="verse" number="4"><syllabic>end</syllabic><text font-size="10.8">des</text></lyric><lyric default-y="-190" name="verse" number="5"><syllabic>single</syllabic><text font-size="10.8">Gott</text></lyric><lyric default-y="-215" name="verse" number="6"><syllabic>single</syllabic><text font-size="10.8">zum</text></lyric></note><harmony default-y="36" font-size="10" font-weight="bold"><root><root-step>G</root-step></root><kind halign="center" text="maj7">major-seventh</kind></harmony><note default-x="321"><pitch><step>B</step><octave>4</octave></pitch><duration>2</duration><voice>1</voice><type>quarter</type><stem default-y="-51">down</stem><lyric default-y="-91" name="verse" number="1"><syllabic>begin</syllabic><text font-size="10.8">Plä</text></lyric><lyric default-y="-115" name="verse" number="2"><syllabic>begin</syllabic><text font-size="10.8">un</text></lyric><lyric default-y="-140" name="verse" number="3"><syllabic>begin</syllabic><text font-size="10.8">Glau</text></lyric><lyric default-y="-165" name="verse" number="4"><syllabic>begin</syllabic><text font-size="10.8">Denk</text></lyric><lyric default-y="-190" name="verse" number="5"><syllabic>begin</syllabic><text font-size="10.8">kei</text></lyric><lyric default-y="-215" name="verse" number="6"><syllabic>begin</syllabic><text font-size="10.8">Jüngs</text></lyric></note><note default-x="395"><pitch><step>A</step><octave>4</octave></pitch><duration>1</duration><voice>1</voice><type>eighth</type><stem default-y="6.5">up</stem><beam number="1">begin</beam><lyric default-y="-91" name="verse" number="1"><syllabic>end</syllabic><text font-size="10.8">ne</text></lyric><lyric default-y="-115" name="verse" number="2"><syllabic>middle</syllabic><text font-size="10.8">fass</text></lyric><lyric default-y="-140" name="verse" number="3"><syllabic>end</syllabic><text font-size="10.8">be</text></lyric><lyric default-y="-165" name="verse" number="4"><syllabic>end</syllabic><text font-size="10.8">mal</text></lyric><lyric default-y="-190" name="verse" number="5"><syllabic>end</syllabic><text font-size="10.8">ner</text></lyric><lyric default-y="-215" name="verse" number="6"><syllabic>end</syllabic><text font-size="10.8">ten</text></lyric></note><note default-x="468"><pitch><step>F</step><alter>1</alter><octave>4</octave></pitch><duration>1</duration><voice>1</voice><type>eighth</type><stem default-y="1.5">up</stem><beam number="1">end</beam><lyric default-y="-91" name="verse" number="1"><syllabic>single</syllabic><text font-size="10.8">aufs</text></lyric><lyric default-y="-115" name="verse" number="2"><syllabic>end</syllabic><text font-size="10.8">bar</text></lyric><lyric default-y="-140" name="verse" number="3"><syllabic>single</syllabic><text font-size="10.8">mit</text></lyric><lyric default-y="-165" name="verse" number="4"><syllabic>single</syllabic><text font-size="10.8">mal</text></lyric><lyric default-y="-190" name="verse" number="5"><syllabic>single</syllabic><text font-size="10.8">mehr</text></lyric><lyric default-y="-215" name="verse" number="6"><syllabic>begin</syllabic><text font-size="10.8">Ge</text></lyric></note></measure><!--=======================================================--><measure number="4" width="126"><harmony default-y="36" font-size="10" font-weight="bold"><root><root-step>A</root-step></root><kind halign="center" text="">major</kind></harmony><note default-x="23"><pitch><step>A</step><octave>4</octave></pitch><duration>6</duration><voice>1</voice><type>half</type><dot /><stem default-y="6.5">up</stem><lyric default-y="-91" name="verse" number="1"><syllabic>single</syllabic><text font-size="10.8">Spiel.</text></lyric><lyric default-y="-115" name="verse" number="2"><syllabic>single</syllabic><text font-size="10.8">sind.</text></lyric><lyric default-y="-140" name="verse" number="3"><syllabic>single</syllabic><text font-size="10.8">fort.</text></lyric><lyric default-y="-165" name="verse" number="4"><syllabic>single</syllabic><text font-size="10.8">fällt.</text></lyric><lyric default-y="-190" name="verse" number="5"><syllabic>single</syllabic><text font-size="10.8">steht,</text></lyric><lyric default-y="-215" name="verse" number="6"><syllabic>end</syllabic><text font-size="10.8">richt.</text></lyric></note><note default-x="74"><rest /><duration>2</duration><voice>1</voice><type>quarter</type></note></measure><!--=======================================================--><measure number="5" width="501"><harmony default-y="36" font-size="10" font-weight="bold"><root><root-step>G</root-step></root><kind halign="center" text="">major</kind></harmony><note default-x="22"><pitch><step>B</step><octave>4</octave></pitch><duration>2</duration><voice>1</voice><type>quarter</type><stem default-y="-51">down</stem><lyric default-y="-91" name="verse" number="1"><syllabic>single</syllabic><text font-size="10.8">Auch</text></lyric><lyric default-y="-115" name="verse" number="2"><syllabic>single</syllabic><text font-size="10.8">Trotz</text></lyric><lyric default-y="-140" name="verse" number="3"><syllabic>single</syllabic><text font-size="10.8">Gott</text></lyric><lyric default-y="-165" name="verse" number="4"><syllabic>begin</syllabic><text font-size="10.8">Blei</text></lyric><lyric default-y="-190" name="verse" number="5"><syllabic>single</syllabic><text font-size="10.8">dass</text></lyric><lyric default-y="-215" name="verse" number="6"><syllabic>begin</syllabic><text font-size="10.8">Fins</text></lyric></note><note default-x="101"><pitch><step>B</step><octave>4</octave></pitch><duration>1</duration><voice>1</voice><type>eighth</type><stem default-y="-51">down</stem><beam number="1">begin</beam><lyric default-y="-91" name="verse" number="1"><syllabic>single</syllabic><text font-size="10.8">als</text></lyric><lyric default-y="-115" name="verse" number="2"><syllabic>begin</syllabic><text font-size="10.8">al</text></lyric><lyric default-y="-140" name="verse" number="3"><syllabic>single</syllabic><text font-size="10.8">ist</text></lyric><lyric default-y="-165" name="verse" number="4"><syllabic>end</syllabic><text font-size="10.8">ben</text></lyric><lyric default-y="-190" name="verse" number="5"><syllabic>single</syllabic><text font-size="10.8">auch</text></lyric><lyric default-y="-215" name="verse" number="6"><syllabic>middle</syllabic><text font-size="10.8">ter</text></lyric></note><note default-x="181"><pitch><step>B</step><octave>4</octave></pitch><duration>1</duration><voice>1</voice><type>eighth</type><stem default-y="-51">down</stem><beam number="1">end</beam><lyric default-y="-91" name="verse" number="1"><syllabic>begin</syllabic><text font-size="10.8">Ver</text></lyric><lyric default-y="-115" name="verse" number="2"><syllabic>end</syllabic><text font-size="10.8">ler</text></lyric><lyric default-y="-140" name="verse" number="3"><syllabic>begin</syllabic><text font-size="10.8">un</text></lyric><lyric default-y="-165" name="verse" number="4"><syllabic>single</syllabic><text font-size="10.8">wird</text></lyric><lyric default-y="-190" name="verse" number="5"><syllabic>single</syllabic><text font-size="10.8">der</text></lyric><lyric default-y="-215" name="verse" number="6"><syllabic>end</syllabic><text font-size="10.8">nis</text></lyric></note><harmony default-y="36" font-size="10" font-weight="bold"><root><root-step>A</root-step></root><kind halign="center" text="">major</kind><bass><bass-step>G</bass-step></bass></harmony><note default-x="261"><pitch><step>C</step><alter>1</alter><octave>5</octave></pitch><duration>2</duration><voice>1</voice><type>quarter</type><stem default-y="-46">down</stem><lyric default-y="-91" name="verse" number="1"><syllabic>middle</syllabic><text font-size="10.8">lie</text></lyric><lyric default-y="-115" name="verse" number="2"><syllabic>begin</syllabic><text font-size="10.8">Zwei</text></lyric><lyric default-y="-140" name="verse" number="3"><syllabic>middle</syllabic><text font-size="10.8">wan</text></lyric><lyric default-y="-165" name="verse" number="4"><syllabic>single</syllabic><text font-size="10.8">nur,</text></lyric><lyric default-y="-190" name="verse" number="5"><syllabic>begin</syllabic><text font-size="10.8">Größ</text></lyric><lyric default-y="-215" name="verse" number="6"><syllabic>single</syllabic><text font-size="10.8">bleibt</text></lyric></note><note default-x="340"><pitch><step>C</step><alter>1</alter><octave>5</octave></pitch><duration>1</duration><voice>1</voice><type>eighth</type><stem default-y="-46">down</stem><beam number="1">begin</beam><lyric default-y="-91" name="verse" number="1"><syllabic>end</syllabic><text font-size="10.8">rer</text></lyric><lyric default-y="-115" name="verse" number="2"><syllabic>end</syllabic><text font-size="10.8">fel</text></lyric><lyric default-y="-140" name="verse" number="3"><syllabic>middle</syllabic><text font-size="10.8">del</text></lyric><lyric default-y="-165" name="verse" number="4"><syllabic>single</syllabic><text font-size="10.8">wer</text></lyric><lyric default-y="-190" name="verse" number="5"><syllabic>end</syllabic><text font-size="10.8">te</text></lyric><lyric default-y="-215" name="verse" number="6"><syllabic>single</syllabic><text font-size="10.8">für</text></lyric></note><note default-x="420"><pitch><step>C</step><alter>1</alter><octave>5</octave></pitch><duration>1</duration><voice>1</voice><type>eighth</type><stem default-y="-46">down</stem><beam number="1">end</beam><lyric default-y="-91" name="verse" number="1"><syllabic>single</syllabic><text font-size="10.8">kommt</text></lyric><lyric default-y="-115" name="verse" number="2"><syllabic>single</syllabic><text font-size="10.8">seid</text></lyric><lyric default-y="-140" name="verse" number="3"><syllabic>end</syllabic><text font-size="10.8">bar,</text></lyric><lyric default-y="-165" name="verse" number="4"><syllabic>single</syllabic><text font-size="10.8">auf</text></lyric><lyric default-y="-190" name="verse" number="5"><syllabic>single</syllabic><text font-size="10.8">klein</text></lyric><lyric default-y="-215" name="verse" number="6"><syllabic>single</syllabic><text font-size="10.8">die</text></lyric></note></measure><!--=======================================================--><measure number="6" width="480"><print new-system="yes"><system-layout><system-distance>284</system-distance></system-layout></print><harmony default-y="36" font-size="10" font-weight="bold"><root><root-step>D</root-step></root><kind halign="center" text="">major</kind><bass><bass-step>F</bass-step><bass-alter>1</bass-alter></bass></harmony><note default-x="94"><pitch><step>D</step><octave>5</octave></pitch><duration>2</duration><voice>1</voice><type>quarter</type><stem default-y="-41">down</stem><lyric default-y="-91" name="verse" number="1"><syllabic>single</syllabic><text font-size="10.8">ihr</text></lyric><lyric default-y="-115" name="verse" number="2"><syllabic>begin</syllabic><text font-size="10.8">den</text></lyric><lyric default-y="-140" name="verse" number="3"><syllabic>single</syllabic><text font-size="10.8">denn</text></lyric><lyric default-y="-165" name="verse" number="4"><syllabic>begin</syllabic><text font-size="10.8">Got</text></lyric><lyric default-y="-190" name="verse" number="5"><syllabic>begin</syllabic><text font-size="10.8">bei</text></lyric><lyric default-y="-215" name="verse" number="6"><syllabic>begin</syllabic><text font-size="10.8">ei</text></lyric></note><note default-x="171"><pitch><step>A</step><octave>4</octave></pitch><duration>1</duration><voice>1</voice><type>eighth</type><stem default-y="6.5">up</stem><beam number="1">begin</beam><lyric default-y="-91" name="verse" number="1"><syllabic>single</syllabic><text font-size="10.8">nicht</text></lyric><lyric default-y="-115" name="verse" number="2"><syllabic>end</syllabic><text font-size="10.8">noch</text></lyric><lyric default-y="-140" name="verse" number="3"><syllabic>single</syllabic><text font-size="10.8">er</text></lyric><lyric default-y="-165" name="verse" number="4"><syllabic>end</syllabic><text font-size="10.8">tes</text></lyric><lyric default-y="-190" name="verse" number="5"><syllabic>middle</syllabic><text font-size="10.8">ge</text></lyric><lyric default-y="-215" name="verse" number="6"><syllabic>end</syllabic><text font-size="10.8">nen</text></lyric></note><note default-x="248"><pitch><step>G</step><octave>4</octave></pitch><duration>1</duration><voice>1</voice><type>eighth</type><stem default-y="1">up</stem><beam number="1">end</beam><lyric default-y="-91" name="verse" number="1"><syllabic>single</syllabic><text font-size="10.8">zu</text></lyric><lyric default-y="-115" name="verse" number="2"><syllabic>begin</syllabic><text font-size="10.8">ge</text></lyric><lyric default-y="-140" name="verse" number="3"><syllabic>single</syllabic><text font-size="10.8">ist</text></lyric><lyric default-y="-165" name="verse" number="4"><syllabic>single</syllabic><text font-size="10.8">Wort</text></lyric><lyric default-y="-190" name="verse" number="5"><syllabic>end</syllabic><text font-size="10.8">ben</text></lyric><lyric default-y="-215" name="verse" number="6"><syllabic>begin</syllabic><text font-size="10.8">zu</text></lyric></note><harmony default-y="36" font-size="10" font-weight="bold"><root><root-step>B</root-step></root><kind halign="center" text="m">minor</kind></harmony><note default-x="325"><pitch><step>F</step><alter>1</alter><octave>4</octave></pitch><duration>3</duration><voice>1</voice><type>quarter</type><dot /><stem default-y="-4">up</stem><lyric default-y="-91" name="verse" number="1"><syllabic>single</syllabic><text font-size="10.8">kurz.</text></lyric><lyric default-y="-115" name="verse" number="2"><syllabic>end</syllabic><text font-size="10.8">wiss:</text></lyric><lyric default-y="-140" name="verse" number="3"><syllabic>single</syllabic><text font-size="10.8">Gott.</text></lyric><lyric default-y="-165" name="verse" number="4"><syllabic>single</syllabic><text font-size="10.8">steht,</text></lyric><lyric default-y="-190" name="verse" number="5"><syllabic>single</syllabic><text font-size="10.8">muss,</text></lyric><lyric default-y="-215" name="verse" number="6"><syllabic>end</syllabic><text font-size="10.8">letzt,</text></lyric></note><note default-x="402"><pitch><step>E</step><octave>4</octave></pitch><duration>1</duration><voice>1</voice><type>eighth</type><stem default-y="-9">up</stem><lyric default-y="-91" name="verse" number="1"><syllabic>single</syllabic><text font-size="10.8">Gott</text></lyric><lyric default-y="-115" name="verse" number="2"><syllabic>single</syllabic><text font-size="10.8">Er</text></lyric><lyric default-y="-140" name="verse" number="3"><syllabic>single</syllabic><text font-size="10.8">Seid</text></lyric><lyric default-y="-165" name="verse" number="4"><syllabic>single</syllabic><text font-size="10.8">dem</text></lyric><lyric default-y="-190" name="verse" number="5"><syllabic>single</syllabic><text font-size="10.8">wenn</text></lyric><lyric default-y="-215" name="verse" number="6"><syllabic>single</syllabic><text font-size="10.8">die</text></lyric></note></measure><!--=======================================================--><measure number="7" width="506"><harmony default-y="36" font-size="10" font-weight="bold"><root><root-step>G</root-step></root><kind halign="center" text="">major</kind></harmony><note default-x="28"><pitch><step>D</step><octave>4</octave></pitch><duration>2</duration><voice>1</voice><type>quarter</type><stem default-y="-13.5">up</stem><lyric default-y="-91" name="verse" number="1"><syllabic>single</syllabic><text font-size="10.8">bringt</text></lyric><lyric default-y="-115" name="verse" number="2"><syllabic>single</syllabic><text font-size="10.8">schläft</text></lyric><lyric default-y="-140" name="verse" number="3"><syllabic>begin</syllabic><text font-size="10.8">si</text></lyric><lyric default-y="-165" name="verse" number="4"><syllabic>begin</syllabic><text font-size="10.8">si</text></lyric><lyric default-y="-190" name="verse" number="5"><syllabic>single</syllabic><text font-size="10.8">Gott</text></lyric><lyric default-y="-215" name="verse" number="6"><syllabic>begin</syllabic><text font-size="10.8">an</text></lyric></note><note default-x="116"><pitch><step>D</step><octave>4</octave></pitch><duration>1</duration><voice>1</voice><type>eighth</type><stem default-y="-13.5">up</stem><beam number="1">begin</beam><lyric default-y="-91" name="verse" number="1"><syllabic>single</syllabic><text font-size="10.8">euch</text></lyric><lyric default-y="-115" name="verse" number="2"><syllabic>single</syllabic><text font-size="10.8">nicht</text></lyric><lyric default-y="-140" name="verse" number="3"><syllabic>end</syllabic><text font-size="10.8">cher:</text></lyric><lyric default-y="-165" name="verse" number="4"><syllabic>middle</syllabic><text font-size="10.8">chers</text></lyric><lyric default-y="-190" name="verse" number="5"><syllabic>single</syllabic><text font-size="10.8">kommt</text></lyric><lyric default-y="-215" name="verse" number="6"><syllabic>middle</syllabic><text font-size="10.8">de</text></lyric></note><note default-x="197"><pitch><step>D</step><octave>4</octave></pitch><duration>1</duration><voice>1</voice><type>eighth</type><stem default-y="-13.5">up</stem><beam number="1">end</beam><lyric default-y="-91" name="verse" number="1"><syllabic>single</syllabic><text font-size="10.8">an</text></lyric><lyric default-y="-115" name="verse" number="2"><syllabic>single</syllabic><text font-size="10.8">und</text></lyric><lyric default-y="-140" name="verse" number="3"><syllabic>single</syllabic><text font-size="10.8">Der</text></lyric><lyric default-y="-165" name="verse" number="4"><syllabic>end</syllabic><text font-size="10.8">ten</text></lyric><lyric default-y="-190" name="verse" number="5"><syllabic>single</syllabic><text font-size="10.8">und</text></lyric><lyric default-y="-215" name="verse" number="6"><syllabic>end</syllabic><text font-size="10.8">ren</text></lyric></note><harmony default-y="36" font-size="10" font-weight="bold"><root><root-step>E</root-step></root><kind halign="center" text="m7">minor-seventh</kind></harmony><note default-x="276"><pitch><step>B</step><octave>4</octave></pitch><duration>2</duration><voice>1</voice><type>quarter</type><stem default-y="-51">down</stem><lyric default-y="-91" name="verse" number="1"><syllabic>single</syllabic><text font-size="10.8">sein</text></lyric><lyric default-y="-115" name="verse" number="2"><syllabic>single</syllabic><text font-size="10.8">sorgt</text></lyric><lyric default-y="-140" name="verse" number="3"><syllabic>single</syllabic><text font-size="10.8">Herr</text></lyric><lyric default-y="-165" name="verse" number="4"><syllabic>begin</syllabic><text font-size="10.8">Stand</text></lyric><lyric default-y="-190" name="verse" number="5"><syllabic>begin</syllabic><text font-size="10.8">al</text></lyric><lyric default-y="-215" name="verse" number="6"><syllabic>begin</syllabic><text font-size="10.8">dür</text></lyric></note><note default-x="358"><pitch><step>A</step><octave>4</octave></pitch><duration>1</duration><voice>1</voice><type>eighth</type><stem default-y="6.5">up</stem><beam number="1">begin</beam><lyric default-y="-91" name="verse" number="1"><syllabic>begin</syllabic><text font-size="10.8">gu</text></lyric><lyric default-y="-115" name="verse" number="2"><syllabic>single</syllabic><text font-size="10.8">für</text></lyric><lyric default-y="-140" name="verse" number="3"><syllabic>single</syllabic><text font-size="10.8">hält</text></lyric><lyric default-y="-165" name="verse" number="4"><syllabic>end</syllabic><text font-size="10.8">punkt</text></lyric><lyric default-y="-190" name="verse" number="5"><syllabic>end</syllabic><text font-size="10.8">les</text></lyric><lyric default-y="-215" name="verse" number="6"><syllabic>end</syllabic><text font-size="10.8">fen</text></lyric></note><note default-x="437"><pitch><step>F</step><alter>1</alter><octave>4</octave></pitch><duration>1</duration><voice>1</voice><type>eighth</type><stem default-y="1">up</stem><beam number="1">end</beam><lyric default-y="-91" name="verse" number="1"><syllabic>end</syllabic><text font-size="10.8">tes</text></lyric><lyric default-y="-115" name="verse" number="2"><syllabic>single</syllabic><text font-size="10.8">sein</text></lyric><lyric default-y="-140" name="verse" number="3"><syllabic>single</syllabic><text font-size="10.8">sein</text></lyric><lyric default-y="-165" name="verse" number="4"><syllabic>single</syllabic><text font-size="10.8">der</text></lyric><lyric default-y="-190" name="verse" number="5"><syllabic>begin</syllabic><text font-size="10.8">ver</text></lyric><lyric default-y="-215" name="verse" number="6"><syllabic>single</syllabic><text font-size="10.8">ins</text></lyric></note></measure><!--=======================================================--><measure number="8" width="184"><harmony default-y="36" font-size="10" font-weight="bold"><root><root-step>E</root-step></root><kind halign="center" text="m">minor</kind><bass><bass-step>A</bass-step></bass></harmony><note default-x="23"><pitch><step>E</step><octave>4</octave></pitch><duration>6</duration><voice>1</voice><type>half</type><dot /><stem default-y="-9">up</stem><lyric default-y="-91" name="verse" number="1"><syllabic>single</syllabic><text font-size="10.8">Ziel.</text></lyric><lyric default-y="-115" name="verse" number="2"><syllabic>single</syllabic><text font-size="10.8">Kind.</text></lyric><lyric default-y="-140" name="verse" number="3"><syllabic>single</syllabic><text font-size="10.8">Wort.</text></lyric><lyric default-y="-165" name="verse" number="4"><syllabic>single</syllabic><text font-size="10.8">Welt.</text></lyric><lyric default-y="-190" name="verse" number="5"><syllabic>end</syllabic><text font-size="10.8">geht.</text></lyric><lyric default-y="-215" name="verse" number="6"><syllabic>single</syllabic><text font-size="10.8">Licht.</text></lyric></note><note default-x="75"><rest /><duration>1</duration><voice>1</voice><type>eighth</type></note><note default-x="126"><pitch><step>F</step><alter>1</alter><octave>4</octave></pitch><duration>1</duration><voice>1</voice><type>eighth</type><stem default-y="-4">up</stem><lyric default-y="-91" name="verse" number="1"><syllabic>begin</syllabic><text font-size="10.8">Ver</text></lyric></note><barline location="right"><bar-style>light-light</bar-style></barline></measure><!--=======================================================--><measure number="9" width="402"><print new-system="yes"><system-layout><system-distance>284</system-distance></system-layout></print><harmony default-y="36" font-size="10" font-weight="bold"><root><root-step>G</root-step></root><kind halign="center" text="">major</kind></harmony><direction placement="above"><direction-type><rehearsal default-y="69" font-weight="bold" relative-x="-5">CHORUS</rehearsal></direction-type></direction><note default-x="94"><pitch><step>G</step><octave>4</octave></pitch><duration>2</duration><voice>1</voice><type>quarter</type><stem default-y="1.5">up</stem><lyric default-y="-91" name="verse" number="1"><syllabic>end</syllabic><text font-size="10.8">traut</text></lyric></note><note default-x="156"><pitch><step>A</step><octave>4</octave></pitch><duration>1</duration><voice>1</voice><type>eighth</type><stem default-y="6">up</stem><beam number="1">begin</beam><lyric default-y="-91" name="verse" number="1"><syllabic>single</syllabic><text font-size="10.8">auf</text></lyric></note><note default-x="215"><pitch><step>B</step><octave>4</octave></pitch><duration>1</duration><voice>1</voice><type>eighth</type><stem default-y="11">up</stem><beam number="1">end</beam><lyric default-y="-91" name="verse" number="1"><syllabic>single</syllabic><text font-size="10.8">den</text></lyric></note><harmony default-y="36" font-size="10" font-weight="bold"><root><root-step>A</root-step></root><kind halign="center" text="">major</kind><bass><bass-step>G</bass-step></bass></harmony><note default-x="282"><pitch><step>C</step><alter>1</alter><octave>5</octave></pitch><duration>3</duration><voice>1</voice><type>quarter</type><dot /><stem default-y="-46">down</stem><lyric default-y="-91" name="verse" number="1"><syllabic>single</syllabic><text font-size="10.8">Herrn</text></lyric></note><note default-x="347"><pitch><step>C</step><alter>1</alter><octave>5</octave></pitch><duration>1</duration><voice>1</voice><type>eighth</type><stem default-y="-46">down</stem><lyric default-y="-91" name="verse" number="1"><syllabic>single</syllabic><text font-size="10.8">für</text></lyric></note></measure><!--=======================================================--><measure number="10" width="291"><harmony default-y="36" font-size="10" font-weight="bold"><root><root-step>D</root-step></root><kind halign="center" text="">major</kind><bass><bass-step>F</bass-step><bass-alter>1</bass-alter></bass></harmony><note default-x="15"><pitch><step>D</step><octave>5</octave></pitch><duration>2</duration><voice>1</voice><type>quarter</type><stem default-y="-41">down</stem><notations><slur bezier-x="9" bezier-y="19" default-x="6" default-y="3" number="1" placement="above" type="start" /></notations><lyric default-y="-91" name="verse" number="1"><syllabic>begin</syllabic><text font-size="10.8">im</text></lyric></note><note default-x="68"><pitch><step>A</step><octave>4</octave></pitch><duration>1</duration><voice>1</voice><type>eighth</type><stem default-y="6">up</stem><beam number="1">begin</beam></note><note default-x="117"><pitch><step>G</step><octave>4</octave></pitch><duration>1</duration><voice>1</voice><type>eighth</type><stem default-y="1.5">up</stem><beam number="1">end</beam><notations><slur bezier-x="-10" bezier-y="18" default-x="11" default-y="6" number="1" type="stop" /></notations></note><harmony default-y="36" font-size="10" font-weight="bold"><root><root-step>B</root-step></root><kind halign="center" text="m">minor</kind></harmony><note default-x="169"><pitch><step>F</step><alter>1</alter><octave>4</octave></pitch><duration>3</duration><voice>1</voice><type>quarter</type><dot /><stem default-y="-3.5">up</stem><lyric default-y="-91" name="verse" number="1"><syllabic>end</syllabic><text font-size="10.8">mer,</text></lyric></note><note default-x="236"><pitch><step>D</step><octave>4</octave></pitch><duration>1</duration><voice>1</voice><type>eighth</type><stem default-y="-14">up</stem><lyric default-y="-91" name="verse" number="1"><syllabic>single</syllabic><text font-size="10.8">denn</text></lyric></note></measure><!--=======================================================--><measure number="11" width="320"><harmony default-y="36" font-size="10" font-weight="bold"><root><root-step>E</root-step></root><kind halign="center" text="m7">minor-seventh</kind></harmony><note default-x="27"><pitch><step>B</step><octave>4</octave></pitch><duration>2</duration><voice>1</voice><type>quarter</type><stem default-y="-51">down</stem><lyric default-y="-91" name="verse" number="1"><syllabic>single</syllabic><text font-size="10.8">er</text></lyric></note><note default-x="74"><pitch><step>B</step><octave>4</octave></pitch><duration>1</duration><voice>1</voice><type>eighth</type><stem default-y="-51">down</stem><beam number="1">begin</beam><lyric default-y="-91" name="verse" number="1"><syllabic>single</syllabic><text font-size="10.8">ist</text></lyric></note><note default-x="123"><pitch><step>B</step><octave>4</octave></pitch><duration>1</duration><voice>1</voice><type>eighth</type><stem default-y="-51">down</stem><beam number="1">end</beam><lyric default-y="-91" name="verse" number="1"><syllabic>single</syllabic><text font-size="10.8">der</text></lyric></note><harmony default-y="36" font-size="10" font-weight="bold"><root><root-step>G</root-step></root><kind halign="center" text="maj7">major-seventh</kind></harmony><note default-x="172"><pitch><step>B</step><octave>4</octave></pitch><duration>2</duration><voice>1</voice><type>quarter</type><stem default-y="-51">down</stem><lyric default-y="-91" name="verse" number="1"><syllabic>begin</syllabic><text font-size="10.8">e</text></lyric></note><note default-x="222"><pitch><step>A</step><octave>4</octave></pitch><duration>1</duration><voice>1</voice><type>eighth</type><stem default-y="6">up</stem><beam number="1">begin</beam><lyric default-y="-91" name="verse" number="1"><syllabic>middle</syllabic><text font-size="10.8">wi</text></lyric></note><note default-x="271"><pitch><step>F</step><alter>1</alter><octave>4</octave></pitch><duration>1</duration><voice>1</voice><type>eighth</type><stem default-y="1.5">up</stem><beam number="1">end</beam><lyric default-y="-91" name="verse" number="1"><syllabic>end</syllabic><text font-size="10.8">ge</text></lyric></note></measure><!--=======================================================--><measure number="12" width="158"><harmony default-y="36" font-size="10" font-weight="bold"><root><root-step>A</root-step></root><kind halign="center" text="">major</kind></harmony><note default-x="18"><pitch><step>A</step><octave>4</octave></pitch><duration>6</duration><voice>1</voice><type>half</type><dot /><stem default-y="6">up</stem><lyric default-y="-91" name="verse" number="1"><syllabic>single</syllabic><text font-size="10.8">Fels.</text></lyric></note><note default-x="64"><rest /><duration>1</duration><voice>1</voice><type>eighth</type></note><note default-x="110"><pitch><step>F</step><alter>1</alter><octave>4</octave></pitch><duration>1</duration><voice>1</voice><type>eighth</type><stem default-y="-3.5">up</stem><lyric default-y="-91" name="verse" number="1"><syllabic>begin</syllabic><text font-size="10.8">Ver</text></lyric></note></measure><!--=======================================================--><measure number="13" width="463"><print new-page="yes" page-number="2" /><harmony default-y="36" font-size="10" font-weight="bold"><root><root-step>G</root-step></root><kind halign="center" text="">major</kind></harmony><note default-x="94"><pitch><step>G</step><octave>4</octave></pitch><duration>2</duration><voice>1</voice><type>quarter</type><stem default-y="1">up</stem><lyric default-y="-91" name="verse" number="1"><syllabic>end</syllabic><text font-size="10.8">traut</text></lyric></note><note default-x="167"><pitch><step>A</step><octave>4</octave></pitch><duration>1</duration><voice>1</voice><type>eighth</type><stem default-y="6.5">up</stem><beam number="1">begin</beam><lyric default-y="-91" name="verse" number="1"><syllabic>single</syllabic><text font-size="10.8">auf</text></lyric></note><note default-x="241"><pitch><step>B</step><octave>4</octave></pitch><duration>1</duration><voice>1</voice><type>eighth</type><stem default-y="11.5">up</stem><beam number="1">end</beam><lyric default-y="-91" name="verse" number="1"><syllabic>single</syllabic><text font-size="10.8">den</text></lyric></note><harmony default-y="36" font-size="10" font-weight="bold"><root><root-step>A</root-step></root><kind halign="center" text="">major</kind><bass><bass-step>G</bass-step></bass></harmony><note default-x="314"><pitch><step>C</step><alter>1</alter><octave>5</octave></pitch><duration>3</duration><voice>1</voice><type>quarter</type><dot /><stem default-y="-46">down</stem><lyric default-y="-91" name="verse" number="1"><syllabic>single</syllabic><text font-size="10.8">Herrn</text></lyric></note><note default-x="388"><pitch><step>C</step><alter>1</alter><octave>5</octave></pitch><duration>1</duration><voice>1</voice><type>eighth</type><stem default-y="-46">down</stem><lyric default-y="-91" name="verse" number="1"><syllabic>single</syllabic><text font-size="10.8">für</text></lyric></note></measure><!--=======================================================--><measure number="14" width="345"><harmony default-y="36" font-size="10" font-weight="bold"><root><root-step>D</root-step></root><kind halign="center" text="">major</kind><bass><bass-step>F</bass-step><bass-alter>1</bass-alter></bass></harmony><note default-x="15"><pitch><step>D</step><octave>5</octave></pitch><duration>2</duration><voice>1</voice><type>quarter</type><stem default-y="-41">down</stem><notations><slur bezier-x="9" bezier-y="21" default-x="6" default-y="3" number="1" placement="above" type="start" /></notations><lyric default-y="-91" name="verse" number="1"><syllabic>begin</syllabic><text font-size="10.8">im</text></lyric></note><note default-x="81"><pitch><step>A</step><octave>4</octave></pitch><duration>1</duration><voice>1</voice><type>eighth</type><stem default-y="6.5">up</stem><beam number="1">begin</beam></note><note default-x="146"><pitch><step>G</step><octave>4</octave></pitch><duration>1</duration><voice>1</voice><type>eighth</type><stem default-y="1">up</stem><beam number="1">end</beam><notations><slur bezier-x="-10" bezier-y="21" default-x="11" default-y="6" number="1" type="stop" /></notations></note><harmony default-y="36" font-size="10" font-weight="bold"><root><root-step>B</root-step></root><kind halign="center" text="m">minor</kind></harmony><note default-x="211"><pitch><step>F</step><alter>1</alter><octave>4</octave></pitch><duration>3</duration><voice>1</voice><type>quarter</type><dot /><stem default-y="-4">up</stem><lyric default-y="-91" name="verse" number="1"><syllabic>end</syllabic><text font-size="10.8">mer,</text></lyric></note><note default-x="278"><pitch><step>D</step><octave>4</octave></pitch><duration>1</duration><voice>1</voice><type>eighth</type><stem default-y="-13.5">up</stem><lyric default-y="-91" name="verse" number="1"><syllabic>single</syllabic><text font-size="10.8">denn</text></lyric></note></measure><!--=======================================================--><measure number="15" width="363"><harmony default-y="36" font-size="10" font-weight="bold"><root><root-step>E</root-step></root><kind halign="center" text="m7">minor-seventh</kind></harmony><note default-x="26"><pitch><step>G</step><octave>4</octave></pitch><duration>2</duration><voice>1</voice><type>quarter</type><stem default-y="1">up</stem><lyric default-y="-91" name="verse" number="1"><syllabic>single</syllabic><text font-size="10.8">er</text></lyric></note><note default-x="82"><pitch><step>G</step><octave>4</octave></pitch><duration>1</duration><voice>1</voice><type>eighth</type><stem default-y="1">up</stem><beam number="1">begin</beam><lyric default-y="-91" name="verse" number="1"><syllabic>single</syllabic><text font-size="10.8">ist</text></lyric></note><note default-x="138"><pitch><step>G</step><octave>4</octave></pitch><duration>1</duration><voice>1</voice><type>eighth</type><stem default-y="1">up</stem><beam number="1">end</beam><lyric default-y="-91" name="verse" number="1"><syllabic>single</syllabic><text font-size="10.8">der</text></lyric></note><harmony default-y="36" font-size="10" font-weight="bold"><root><root-step>A</root-step></root><kind halign="center" text="7">dominant</kind></harmony><note default-x="194"><pitch><step>A</step><octave>4</octave></pitch><duration>2</duration><voice>1</voice><type>quarter</type><stem default-y="6.5">up</stem><lyric default-y="-91" name="verse" number="1"><syllabic>begin</syllabic><text font-size="10.8">e</text></lyric></note><note default-x="250"><pitch><step>F</step><alter>1</alter><octave>4</octave></pitch><duration>1</duration><voice>1</voice><type>eighth</type><stem default-y="-4">up</stem><beam number="1">begin</beam><lyric default-y="-91" name="verse" number="1"><syllabic>middle</syllabic><text font-size="10.8">wi</text></lyric></note><note default-x="305"><pitch><step>E</step><octave>4</octave></pitch><duration>1</duration><voice>1</voice><type>eighth</type><stem default-y="-8.5">up</stem><beam number="1">end</beam><lyric default-y="-91" name="verse" number="1"><syllabic>end</syllabic><text font-size="10.8">ge</text></lyric></note></measure><!--=======================================================--><measure number="16" width="771"><print new-system="yes"><system-layout><system-distance>180</system-distance></system-layout></print><barline location="left"><ending default-y="71" end-length="71" font-family="Georgia" number="1, 2, 3, 4, 5" type="start" /></barline><harmony default-y="36" font-size="10" font-weight="bold"><root><root-step>D</root-step></root><kind halign="center" text="">major</kind></harmony><note default-x="92"><pitch><step>D</step><octave>4</octave></pitch><duration>6</duration><voice>1</voice><type>half</type><dot /><stem default-y="-13.5">up</stem><lyric default-y="-91" name="verse" number="1"><syllabic>single</syllabic><text font-size="10.8">Fels.</text></lyric></note><note default-x="312"><rest /><duration>1</duration><voice>1</voice><type>eighth</type><lyric default-y="-91" name="verse" number="1"><syllabic>single</syllabic><text font-size="10.8">2.</text></lyric><lyric default-y="-115" name="verse" number="2"><syllabic>single</syllabic><text font-size="10.8">3.</text></lyric><lyric default-y="-140" name="verse" number="3"><syllabic>single</syllabic><text font-size="10.8">4.</text></lyric><lyric default-y="-165" name="verse" number="4"><syllabic>single</syllabic><text font-size="10.8">5.</text></lyric><lyric default-y="-190" name="verse" number="5"><syllabic>single</syllabic><text font-size="10.8">6.</text></lyric></note><note default-x="531"><pitch><step>A</step><octave>4</octave></pitch><duration>1</duration><voice>1</voice><type>eighth</type><stem default-y="6.5">up</stem><lyric default-y="-91" name="verse" number="1"><syllabic>single</syllabic><text font-size="10.8">Auch</text></lyric><lyric default-y="-115" name="verse" number="2"><syllabic>single</syllabic><text font-size="10.8">Wo</text></lyric><lyric default-y="-140" name="verse" number="3"><syllabic>single</syllabic><text font-size="10.8">Die</text></lyric><lyric default-y="-165" name="verse" number="4"><syllabic>single</syllabic><text font-size="10.8">Und</text></lyric><lyric default-y="-190" name="verse" number="5"><syllabic>single</syllabic><text font-size="10.8">Wer</text></lyric></note><barline location="right"><bar-style>light-heavy</bar-style><ending number="1, 2, 3, 4, 5" type="stop" /><repeat direction="backward" winged="none" /></barline></measure><!--=======================================================--><measure number="17" width="399"><barline location="left"><ending default-y="71" end-length="71" font-family="Georgia" number="6" type="start" /></barline><harmony default-y="36" font-size="10" font-weight="bold"><root><root-step>D</root-step></root><kind halign="center" text="">major</kind></harmony><note default-x="16"><pitch><step>D</step><octave>4</octave></pitch><duration>6</duration><voice>1</voice><type>half</type><dot /><stem default-y="-13.5">up</stem><lyric default-y="-91" name="verse" number="1"><syllabic>single</syllabic><text font-size="10.8">Fels.</text></lyric></note><note default-x="203"><rest /><duration>2</duration><voice>1</voice><type>quarter</type></note><barline location="right"><bar-style>light-heavy</bar-style><ending number="6" type="discontinue" /></barline></measure></part><!--=========================================================--></score-partwise>