<?xml version="1.0" encoding="UTF-8" standalone="no"?><!DOCTYPE score-partwise PUBLIC "-//Recordare//DTD MusicXML 3.0 Partwise//EN" "http://www.musicxml.org/dtds/partwise.dtd"[]><score-partwise version="3.0"><movement-title>Wir beten dich an</movement-title><identification><creator type="composer">Albert Frey</creator><encoding><software>Finale 2014 for Windows</software><software>Dolet Light for Finale 2014</software><encoding-date>2017-02-21</encoding-date><supports attribute="new-system" element="print" type="yes" value="yes" /><supports attribute="new-page" element="print" type="yes" value="yes" /><supports element="accidental" type="yes" /><supports element="beam" type="yes" /><supports element="stem" type="yes" /></encoding><rights>CCLI-Liednummer 4334389
© 1999 D&amp;D Medien, D-88287 Grünkraut
Nutzung ausschließlich im Rahmen der SongSelect®-Nutzungsbedingungen. Alle Rechte vorbehalten. www.ccli.com
CCLI-Lizenznummer 2182334
</rights></identification><defaults><scaling><millimeters>6.5088</millimeters><tenths>40</tenths></scaling><page-layout><page-height>1717</page-height><page-width>1327</page-width><page-margins type="both"><left-margin>78</left-margin><right-margin>78</right-margin><top-margin>78</top-margin><bottom-margin>78</bottom-margin></page-margins></page-layout><system-layout><system-margins><left-margin>0</left-margin><right-margin>0</right-margin></system-margins><system-distance>190</system-distance><top-system-distance>117</top-system-distance></system-layout><appearance><line-width type="stem">1.4583</line-width><line-width type="beam">5</line-width><line-width type="staff">1.25</line-width><line-width type="light barline">1.4583</line-width><line-width type="heavy barline">5</line-width><line-width type="leger">1.875</line-width><line-width type="ending">1.4583</line-width><line-width type="wedge">1.4583</line-width><line-width type="enclosure">1.4583</line-width><line-width type="tuplet bracket">1.4583</line-width><note-size type="grace">50</note-size><note-size type="cue">50</note-size><distance type="hyphen">240</distance><distance type="beam">8</distance></appearance><music-font font-family="Maestro,engraved" font-size="18.5" /><word-font font-family="Arial" font-size="9.2" /><lyric-font font-family="Arial" font-size="10.8" name="verse" /><lyric-font font-family="Arial" font-size="10.8" name="section" /></defaults><credit page="1"><credit-type>title</credit-type><credit-words default-x="663" default-y="1649" font-size="21.6" font-weight="bold" justify="center" valign="top">Wir beten dich an</credit-words></credit><credit page="1"><credit-words default-x="1249" default-y="1576" font-size="10.8" font-style="italic" justify="right" valign="top">Text und Musik:</credit-words></credit><credit page="1"><credit-type>composer</credit-type><credit-words default-x="1249" default-y="1552" font-size="10.8" font-weight="bold" justify="right" valign="top">Albert Frey</credit-words></credit><credit page="2"><credit-type>title</credit-type><credit-type>page number</credit-type><credit-words default-x="663" default-y="1663" font-size="10.8" justify="center" valign="top">Wir beten dich an - 2</credit-words></credit><part-list><score-part id="P1"><part-name print-object="no">Vocals</part-name><score-instrument id="P1-I2"><instrument-name>Melody</instrument-name></score-instrument><midi-instrument id="P1-I2"><midi-channel>1</midi-channel><midi-program>1</midi-program><volume>80</volume><pan>0</pan></midi-instrument></score-part></part-list><!--=========================================================--><part id="P1"><measure number="1" width="475"><print page-number="1"><page-layout><page-height>1717</page-height><page-width>1327</page-width><page-margins><left-margin>78</left-margin><right-margin>78</right-margin><top-margin>190</top-margin><bottom-margin>163</bottom-margin></page-margins></page-layout><system-layout><system-margins><left-margin>68</left-margin><right-margin>0</right-margin></system-margins></system-layout><measure-numbering>system</measure-numbering></print><attributes><divisions>2</divisions><key><fifths>2</fifths><mode>major</mode></key><time><beats>4</beats><beat-type>4</beat-type></time><clef><sign>G</sign><line>2</line></clef></attributes><sound tempo="96" /><harmony default-y="36" font-size="10" font-weight="bold"><root><root-step>A</root-step></root><kind halign="center" text="7sus">suspended-fourth</kind><degree print-object="no"><degree-value>7</degree-value><degree-alter>0</degree-alter><degree-type>add</degree-type></degree></harmony><direction placement="above"><direction-type><rehearsal default-y="69" font-weight="bold" relative-x="-27">VERS</rehearsal></direction-type></direction><note default-x="144"><pitch><step>A</step><octave>3</octave></pitch><duration>2</duration><voice>1</voice><type>quarter</type><stem default-y="-19">up</stem><lyric default-y="-91" name="verse" number="1"><syllabic>single</syllabic><text font-size="10.8">1.</text><elision> </elision><syllabic>single</syllabic><text font-size="10.8">Va</text><elision> </elision><syllabic>single</syllabic><text font-size="10.8" /><elision> </elision><syllabic>begin</syllabic><text font-size="10.8" /></lyric><lyric default-y="-115" name="verse" number="2"><syllabic>single</syllabic><text font-size="10.8">2.</text><elision> </elision><syllabic>single</syllabic><text font-size="10.8">Al</text><elision> </elision><syllabic>single</syllabic><text font-size="10.8" /><elision> </elision><syllabic>single</syllabic><text font-size="10.8" /><elision> </elision><syllabic>begin</syllabic><text font-size="10.8" /></lyric></note><note default-x="221"><pitch><step>D</step><octave>4</octave></pitch><duration>1</duration><voice>1</voice><type>eighth</type><stem default-y="-13.5">up</stem><beam number="1">begin</beam><lyric default-y="-91" name="verse" number="1"><syllabic>end</syllabic><text font-size="10.8">ter,</text></lyric><lyric default-y="-115" name="verse" number="2"><syllabic>end</syllabic><text font-size="10.8">les</text></lyric></note><note default-x="275"><pitch><step>E</step><octave>4</octave></pitch><duration>1</duration><tie type="start" /><voice>1</voice><type>eighth</type><stem default-y="-8.5">up</stem><beam number="1">end</beam><notations><tied type="start" /></notations><lyric default-y="-91" name="verse" number="1"><syllabic>single</syllabic><text font-size="10.8">wir</text><extend type="start" /></lyric><lyric default-y="-115" name="verse" number="2"><syllabic>begin</syllabic><text font-size="10.8">brin</text></lyric></note><note default-x="311"><pitch><step>E</step><octave>4</octave></pitch><duration>2</duration><tie type="stop" /><voice>1</voice><type>quarter</type><stem default-y="-8">up</stem><notations><tied type="stop" /></notations><lyric name="verse" number="1"><extend type="stop" /></lyric></note><note default-x="365"><pitch><step>F</step><alter>1</alter><octave>4</octave></pitch><duration>1</duration><voice>1</voice><type>eighth</type><stem default-y="-4">up</stem><beam number="1">begin</beam><lyric default-y="-91" name="verse" number="1"><syllabic>single</syllabic><text font-size="10.8">sind</text></lyric><lyric default-y="-115" name="verse" number="2"><syllabic>end</syllabic><text font-size="10.8">gen</text></lyric></note><note default-x="425"><pitch><step>A</step><octave>3</octave></pitch><duration>1</duration><tie type="start" /><voice>1</voice><type>eighth</type><stem default-y="-8.5">up</stem><beam number="1">end</beam><notations><tied type="start" /></notations><lyric default-y="-91" name="verse" number="1"><syllabic>single</syllabic><text font-size="10.8">hier,</text><extend type="start" /></lyric><lyric default-y="-115" name="verse" number="2"><syllabic>single</syllabic><text font-size="10.8">wir,</text><extend type="start" /></lyric></note></measure><!--=======================================================--><measure number="2" width="134"><harmony default-y="36" font-size="10" font-weight="bold"><root><root-step>D</root-step></root><kind halign="center" text="">major</kind></harmony><note default-x="14"><pitch><step>A</step><octave>3</octave></pitch><duration>8</duration><tie type="stop" /><voice>1</voice><type>whole</type><notations><tied type="stop" /></notations><lyric name="verse" number="1"><extend type="stop" /></lyric><lyric name="verse" number="2"><extend type="stop" /></lyric></note></measure><!--=======================================================--><measure number="3" width="345"><note default-x="14"><pitch><step>F</step><alter>1</alter><octave>4</octave></pitch><duration>2</duration><voice>1</voice><type>quarter</type><stem default-y="-3">up</stem><lyric default-y="-91" name="verse" number="1"><syllabic>begin</syllabic><text font-size="10.8">kom</text></lyric><lyric default-y="-115" name="verse" number="2"><syllabic>begin</syllabic><text font-size="10.8">eh</text></lyric></note><note default-x="83"><pitch><step>E</step><octave>4</octave></pitch><duration>1</duration><voice>1</voice><type>eighth</type><stem default-y="-8.5">up</stem><beam number="1">begin</beam><lyric default-y="-91" name="verse" number="1"><syllabic>end</syllabic><text font-size="10.8">men</text></lyric><lyric default-y="-115" name="verse" number="2"><syllabic>end</syllabic><text font-size="10.8">ren</text></lyric></note><note default-x="144"><pitch><step>F</step><alter>1</alter><octave>4</octave></pitch><duration>1</duration><tie type="start" /><voice>1</voice><type>eighth</type><stem default-y="-4">up</stem><beam number="1">end</beam><notations><tied type="start" /></notations><lyric default-y="-91" name="verse" number="1"><syllabic>single</syllabic><text font-size="10.8">wie</text><extend type="start" /></lyric><lyric default-y="-115" name="verse" number="2"><syllabic>single</syllabic><text font-size="10.8">dich</text><extend type="start" /></lyric></note><note default-x="180"><pitch><step>F</step><alter>1</alter><octave>4</octave></pitch><duration>2</duration><tie type="stop" /><voice>1</voice><type>quarter</type><stem default-y="-3">up</stem><notations><tied type="stop" /></notations><lyric name="verse" number="1"><extend type="stop" /></lyric><lyric name="verse" number="2"><extend type="stop" /></lyric></note><note default-x="232"><pitch><step>A</step><octave>4</octave></pitch><duration>1</duration><voice>1</voice><type>eighth</type><stem default-y="6">up</stem><beam number="1">begin</beam><lyric default-y="-91" name="verse" number="1"><syllabic>single</syllabic><text font-size="10.8">wir</text></lyric><lyric default-y="-115" name="verse" number="2"><syllabic>begin</syllabic><text font-size="10.8">al</text></lyric></note><note default-x="292"><pitch><step>D</step><octave>4</octave></pitch><duration>1</duration><tie type="start" /><voice>1</voice><type>eighth</type><stem default-y="1">up</stem><beam number="1">end</beam><notations><tied type="start" /></notations><lyric default-y="-91" name="verse" number="1"><syllabic>single</syllabic><text font-size="10.8">sind,</text><extend type="start" /></lyric><lyric default-y="-115" name="verse" number="2"><syllabic>end</syllabic><text font-size="10.8">lein,</text><extend type="start" /></lyric></note></measure><!--=======================================================--><measure number="4" width="148"><harmony default-y="36" font-size="10" font-weight="bold"><root><root-step>B</root-step></root><kind halign="center" text="m7">minor-seventh</kind></harmony><note default-x="27"><pitch><step>D</step><octave>4</octave></pitch><duration>8</duration><tie type="stop" /><voice>1</voice><type>whole</type><notations><tied type="stop" /></notations><lyric name="verse" number="1"><extend type="stop" /></lyric><lyric name="verse" number="2"><extend type="stop" /></lyric></note></measure><!--=======================================================--><measure number="5" width="459"><print new-system="yes"><system-layout><system-distance>180</system-distance></system-layout></print><note default-x="99"><pitch><step>A</step><octave>3</octave></pitch><duration>2</duration><voice>1</voice><type>quarter</type><stem default-y="-19">up</stem><lyric default-y="-91" name="verse" number="1"><syllabic>begin</syllabic><text font-size="10.8">schau</text></lyric><lyric default-y="-115" name="verse" number="2"><syllabic>begin</syllabic><text font-size="10.8">wol</text></lyric></note><note default-x="176"><pitch><step>D</step><octave>4</octave></pitch><duration>1</duration><voice>1</voice><type>eighth</type><stem default-y="-13.5">up</stem><beam number="1">begin</beam><lyric default-y="-91" name="verse" number="1"><syllabic>end</syllabic><text font-size="10.8">en</text></lyric><lyric default-y="-115" name="verse" number="2"><syllabic>end</syllabic><text font-size="10.8">len</text></lyric></note><note default-x="230"><pitch><step>E</step><octave>4</octave></pitch><duration>1</duration><tie type="start" /><voice>1</voice><type>eighth</type><stem default-y="-8.5">up</stem><beam number="1">end</beam><notations><tied type="start" /></notations><lyric default-y="-91" name="verse" number="1"><syllabic>single</syllabic><text font-size="10.8">auf</text><extend type="start" /></lyric><lyric default-y="-115" name="verse" number="2"><syllabic>begin</syllabic><text font-size="10.8">im</text></lyric></note><note default-x="272"><pitch><step>E</step><octave>4</octave></pitch><duration>2</duration><tie type="stop" /><voice>1</voice><type>quarter</type><stem default-y="-8">up</stem><notations><tied type="stop" /></notations><lyric name="verse" number="1"><extend type="stop" /></lyric></note><note default-x="334"><pitch><step>F</step><alter>1</alter><octave>4</octave></pitch><duration>1</duration><voice>1</voice><type>eighth</type><stem default-y="-4">up</stem><beam number="1">begin</beam><lyric default-y="-91" name="verse" number="1"><syllabic>single</syllabic><text font-size="10.8">zu</text></lyric><lyric default-y="-115" name="verse" number="2"><syllabic>end</syllabic><text font-size="10.8">mer</text></lyric></note><note default-x="400"><pitch><step>B</step><octave>3</octave></pitch><duration>1</duration><tie type="start" /><voice>1</voice><type>eighth</type><stem default-y="-8.5">up</stem><beam number="1">end</beam><notations><tied type="start" /></notations><lyric default-y="-91" name="verse" number="1"><syllabic>single</syllabic><text font-size="10.8">dir,</text><extend type="start" /></lyric><lyric default-y="-115" name="verse" number="2"><syllabic>single</syllabic><text font-size="10.8">mehr</text><extend type="start" /></lyric></note></measure><!--=======================================================--><measure number="6" width="160"><harmony default-y="36" font-size="10" font-weight="bold"><root><root-step>E</root-step></root><kind halign="center" text="m7">minor-seventh</kind></harmony><note default-x="26"><pitch><step>B</step><octave>3</octave></pitch><duration>8</duration><tie type="stop" /><voice>1</voice><type>whole</type><notations><tied type="stop" /></notations><lyric name="verse" number="1"><extend type="stop" /></lyric><lyric name="verse" number="2"><extend type="stop" /></lyric></note></measure><!--=======================================================--><measure number="7" width="378"><note default-x="15"><pitch><step>G</step><octave>4</octave></pitch><duration>2</duration><voice>1</voice><type>quarter</type><stem default-y="2">up</stem><lyric default-y="-91" name="verse" number="1"><syllabic>begin</syllabic><text font-size="10.8">stau</text></lyric><lyric default-y="-115" name="verse" number="2"><syllabic>begin</syllabic><text font-size="10.8">wah</text></lyric></note><note default-x="93"><pitch><step>F</step><alter>1</alter><octave>4</octave></pitch><duration>1</duration><voice>1</voice><type>eighth</type><stem default-y="-4">up</stem><beam number="1">begin</beam><lyric default-y="-91" name="verse" number="1"><syllabic>end</syllabic><text font-size="10.8">nend</text></lyric><lyric default-y="-115" name="verse" number="2"><syllabic>end</syllabic><text font-size="10.8">re</text></lyric></note><note default-x="155"><pitch><step>G</step><octave>4</octave></pitch><duration>1</duration><tie type="start" /><voice>1</voice><type>eighth</type><stem default-y="1">up</stem><beam number="1">end</beam><notations><tied type="start" /></notations><lyric default-y="-91" name="verse" number="1"><syllabic>single</syllabic><text font-size="10.8">wie</text><extend type="start" /></lyric><lyric default-y="-115" name="verse" number="2"><syllabic>begin</syllabic><text font-size="10.8">Be</text></lyric></note><note default-x="197"><pitch><step>G</step><octave>4</octave></pitch><duration>2</duration><tie type="stop" /><voice>1</voice><type>quarter</type><stem default-y="2">up</stem><notations><tied type="stop" /></notations><lyric name="verse" number="1"><extend type="stop" /></lyric></note><note default-x="263"><pitch><step>A</step><octave>4</octave></pitch><duration>1</duration><voice>1</voice><type>eighth</type><stem default-y="6.5">up</stem><beam number="1">begin</beam><lyric default-y="-91" name="verse" number="1"><syllabic>single</syllabic><text font-size="10.8">ein</text></lyric><lyric default-y="-115" name="verse" number="2"><syllabic>end</syllabic><text font-size="10.8">ter</text></lyric></note><note default-x="322"><pitch><step>E</step><octave>4</octave></pitch><duration>1</duration><tie type="start" /><voice>1</voice><type>eighth</type><stem default-y="1">up</stem><beam number="1">end</beam><notations><tied type="start" /></notations><lyric default-y="-91" name="verse" number="1"><syllabic>single</syllabic><text font-size="10.8">Kind.</text><extend type="start" /></lyric><lyric default-y="-115" name="verse" number="2"><syllabic>single</syllabic><text font-size="10.8">sein.</text><extend type="start" /></lyric></note></measure><!--=======================================================--><measure number="8" width="174"><harmony default-y="36" font-size="10" font-weight="bold"><root><root-step>A</root-step></root><kind halign="center" text="7sus">suspended-fourth</kind><degree print-object="no"><degree-value>7</degree-value><degree-alter>0</degree-alter><degree-type>add</degree-type></degree></harmony><note default-x="37"><pitch><step>E</step><octave>4</octave></pitch><duration>8</duration><tie type="stop" /><voice>1</voice><type>whole</type><notations><tied type="stop" /></notations><lyric name="verse" number="1"><extend type="stop" /></lyric><lyric name="verse" number="2"><extend type="stop" /></lyric></note></measure><!--=======================================================--><measure number="9" width="480"><print new-system="yes"><system-layout><system-distance>180</system-distance></system-layout></print><note default-x="94"><pitch><step>A</step><octave>3</octave></pitch><duration>2</duration><voice>1</voice><type>quarter</type><stem default-y="-19">up</stem><lyric default-y="-91" name="verse" number="1"><syllabic>begin</syllabic><text font-size="10.8">Al</text></lyric><lyric default-y="-115" name="verse" number="2"><syllabic>single</syllabic><text font-size="10.8">Denn</text></lyric></note><note default-x="179"><pitch><step>D</step><octave>4</octave></pitch><duration>1</duration><voice>1</voice><type>eighth</type><stem default-y="-14">up</stem><beam number="1">begin</beam><lyric default-y="-91" name="verse" number="1"><syllabic>end</syllabic><text font-size="10.8">les</text></lyric><lyric default-y="-115" name="verse" number="2"><syllabic>single</syllabic><text font-size="10.8">jetzt</text></lyric></note><note default-x="237"><pitch><step>E</step><octave>4</octave></pitch><duration>1</duration><tie type="start" /><voice>1</voice><type>eighth</type><stem default-y="-9">up</stem><beam number="1">end</beam><notations><tied type="start" /></notations><lyric default-y="-91" name="verse" number="1"><syllabic>single</syllabic><text font-size="10.8">in</text><extend type="start" /></lyric><lyric default-y="-115" name="verse" number="2"><syllabic>single</syllabic><text font-size="10.8">ist</text><extend type="start" /></lyric></note><note default-x="283"><pitch><step>E</step><octave>4</octave></pitch><duration>2</duration><tie type="stop" /><voice>1</voice><type>quarter</type><stem default-y="-8">up</stem><notations><tied type="stop" /></notations><lyric name="verse" number="1"><extend type="stop" /></lyric><lyric name="verse" number="2"><extend type="stop" /></lyric></note><note default-x="355"><pitch><step>F</step><alter>1</alter><octave>4</octave></pitch><duration>1</duration><voice>1</voice><type>eighth</type><stem default-y="-3">up</stem><beam number="1">begin</beam><lyric default-y="-91" name="verse" number="1"><syllabic>single</syllabic><text font-size="10.8">uns</text></lyric><lyric default-y="-115" name="verse" number="2"><syllabic>single</syllabic><text font-size="10.8">die</text></lyric></note><note default-x="419"><pitch><step>A</step><octave>3</octave></pitch><duration>1</duration><tie type="start" /><voice>1</voice><type>eighth</type><stem default-y="-9">up</stem><beam number="1">end</beam><notations><tied type="start" /></notations><lyric default-y="-91" name="verse" number="1"><syllabic>single</syllabic><text font-size="10.8">preist</text><extend type="start" /></lyric><lyric default-y="-115" name="verse" number="2"><syllabic>single</syllabic><text font-size="10.8">Zeit,</text><extend type="start" /></lyric></note></measure><!--=======================================================--><measure number="10" width="151"><harmony default-y="36" font-size="10" font-weight="bold"><root><root-step>D</root-step></root><kind halign="center" text="">major</kind></harmony><note default-x="14"><pitch><step>A</step><octave>3</octave></pitch><duration>8</duration><tie type="stop" /><voice>1</voice><type>whole</type><notations><tied type="stop" /></notations><lyric name="verse" number="1"><extend type="stop" /></lyric><lyric name="verse" number="2"><extend type="stop" /></lyric></note></measure><!--=======================================================--><measure number="11" width="370"><note default-x="10"><pitch><step>F</step><alter>1</alter><octave>4</octave></pitch><duration>2</duration><voice>1</voice><type>quarter</type><stem default-y="-3">up</stem><lyric default-y="-91" name="verse" number="1"><syllabic>begin</syllabic><text font-size="10.8">dei</text></lyric><lyric default-y="-115" name="verse" number="2"><syllabic>single</syllabic><text font-size="10.8">in</text></lyric></note><note default-x="81"><pitch><step>E</step><octave>4</octave></pitch><duration>1</duration><voice>1</voice><type>eighth</type><stem default-y="-9">up</stem><beam number="1">begin</beam><lyric default-y="-91" name="verse" number="1"><syllabic>end</syllabic><text font-size="10.8">ne</text></lyric><lyric default-y="-115" name="verse" number="2"><syllabic>single</syllabic><text font-size="10.8">der</text></lyric></note><note default-x="141"><pitch><step>F</step><alter>1</alter><octave>4</octave></pitch><duration>1</duration><tie type="start" /><voice>1</voice><type>eighth</type><stem default-y="-3">up</stem><beam number="1">end</beam><notations><tied type="start" /></notations><lyric default-y="-91" name="verse" number="1"><syllabic>begin</syllabic><text font-size="10.8">Ge</text></lyric><lyric default-y="-115" name="verse" number="2"><syllabic>single</syllabic><text font-size="10.8">sich</text><extend type="start" /></lyric></note><note default-x="184"><pitch><step>F</step><alter>1</alter><octave>4</octave></pitch><duration>2</duration><tie type="stop" /><voice>1</voice><type>quarter</type><stem default-y="-3">up</stem><notations><tied type="stop" /></notations><lyric name="verse" number="2"><extend type="stop" /></lyric></note><note default-x="250"><pitch><step>A</step><octave>4</octave></pitch><duration>1</duration><voice>1</voice><type>eighth</type><stem default-y="6.5">up</stem><beam number="1">begin</beam><lyric default-y="-91" name="verse" number="1"><syllabic>middle</syllabic><text font-size="10.8">gen</text></lyric><lyric default-y="-115" name="verse" number="2"><syllabic>begin</syllabic><text font-size="10.8">er</text></lyric></note><note default-x="313"><pitch><step>D</step><octave>4</octave></pitch><duration>1</duration><tie type="start" /><voice>1</voice><type>eighth</type><stem default-y="1.5">up</stem><beam number="1">end</beam><notations><tied type="start" /></notations><lyric default-y="-91" name="verse" number="1"><syllabic>end</syllabic><text font-size="10.8">wart,</text><extend type="start" /></lyric><lyric default-y="-115" name="verse" number="2"><syllabic>end</syllabic><text font-size="10.8">füllt,</text><extend type="start" /></lyric></note></measure><!--=======================================================--><measure number="12" width="169"><harmony default-y="36" font-size="10" font-weight="bold"><root><root-step>B</root-step></root><kind halign="center" text="m7">minor-seventh</kind></harmony><note default-x="27"><pitch><step>D</step><octave>4</octave></pitch><duration>8</duration><tie type="stop" /><voice>1</voice><type>whole</type><notations><tied type="stop" /></notations><lyric name="verse" number="1"><extend type="stop" /></lyric><lyric name="verse" number="2"><extend type="stop" /></lyric></note></measure><!--=======================================================--><measure number="13" width="454"><print new-system="yes"><system-layout><system-distance>180</system-distance></system-layout></print><note default-x="92"><pitch><step>A</step><octave>3</octave></pitch><duration>2</duration><voice>1</voice><type>quarter</type><stem default-y="-19">up</stem><lyric default-y="-91" name="verse" number="1"><syllabic>single</syllabic><text font-size="10.8">die</text></lyric><lyric default-y="-115" name="verse" number="2"><syllabic>single</syllabic><text font-size="10.8">dass</text></lyric></note><note default-x="166"><pitch><step>D</step><octave>4</octave></pitch><duration>1</duration><voice>1</voice><type>eighth</type><stem default-y="-14">up</stem><beam number="1">begin</beam><lyric default-y="-91" name="verse" number="1"><syllabic>single</syllabic><text font-size="10.8">dein</text></lyric><lyric default-y="-115" name="verse" number="2"><syllabic>single</syllabic><text font-size="10.8">dein</text></lyric></note><note default-x="232"><pitch><step>E</step><octave>4</octave></pitch><duration>1</duration><tie type="start" /><voice>1</voice><type>eighth</type><stem default-y="-9">up</stem><beam number="1">end</beam><notations><tied type="start" /></notations><lyric default-y="-91" name="verse" number="1"><syllabic>single</syllabic><text font-size="10.8">Wort</text><extend type="start" /></lyric><lyric default-y="-115" name="verse" number="2"><syllabic>single</syllabic><text font-size="10.8">Volk</text><extend type="start" /></lyric></note><note default-x="269"><pitch><step>E</step><octave>4</octave></pitch><duration>2</duration><tie type="stop" /><voice>1</voice><type>quarter</type><stem default-y="-8">up</stem><notations><tied type="stop" /></notations><lyric name="verse" number="1"><extend type="stop" /></lyric><lyric name="verse" number="2"><extend type="stop" /></lyric></note><note default-x="324"><pitch><step>F</step><alter>1</alter><octave>4</octave></pitch><duration>1</duration><voice>1</voice><type>eighth</type><stem default-y="-3.5">up</stem><beam number="1">begin</beam><lyric default-y="-91" name="verse" number="1"><syllabic>begin</syllabic><text font-size="10.8">ver</text></lyric><lyric default-y="-115" name="verse" number="2"><syllabic>single</syllabic><text font-size="10.8">dich</text></lyric></note><note default-x="394"><pitch><step>B</step><octave>3</octave></pitch><duration>1</duration><tie type="start" /><voice>1</voice><type>eighth</type><stem default-y="-9">up</stem><beam number="1">end</beam><notations><tied type="start" /></notations><lyric default-y="-91" name="verse" number="1"><syllabic>end</syllabic><text font-size="10.8">heißt,</text><extend type="start" /></lyric><lyric default-y="-115" name="verse" number="2"><syllabic>single</syllabic><text font-size="10.8">preist,</text><extend type="start" /></lyric></note></measure><!--=======================================================--><measure number="14" width="150"><harmony default-y="36" font-size="10" font-weight="bold"><root><root-step>E</root-step></root><kind halign="center" text="m7">minor-seventh</kind></harmony><note default-x="26"><pitch><step>B</step><octave>3</octave></pitch><duration>8</duration><tie type="stop" /><voice>1</voice><type>whole</type><notations><tied type="stop" /></notations><lyric name="verse" number="1"><extend type="stop" /></lyric><lyric name="verse" number="2"><extend type="stop" /></lyric></note></measure><!--=======================================================--><measure number="15" width="359"><note default-x="19"><pitch><step>G</step><octave>4</octave></pitch><duration>2</duration><voice>1</voice><type>quarter</type><stem default-y="2">up</stem><lyric default-y="-91" name="verse" number="1"><syllabic>single</syllabic><text font-size="10.8">dem,</text></lyric><lyric default-y="-115" name="verse" number="2"><syllabic>single</syllabic><text font-size="10.8">so,</text></lyric></note><note default-x="88"><pitch><step>F</step><alter>1</alter><octave>4</octave></pitch><duration>1</duration><voice>1</voice><type>eighth</type><stem default-y="-3.5">up</stem><beam number="1">begin</beam><lyric default-y="-91" name="verse" number="1"><syllabic>single</syllabic><text font-size="10.8">der</text></lyric><lyric default-y="-115" name="verse" number="2"><syllabic>single</syllabic><text font-size="10.8">wie</text></lyric></note><note default-x="144"><pitch><step>G</step><octave>4</octave></pitch><duration>1</duration><tie type="start" /><voice>1</voice><type>eighth</type><stem default-y="1.5">up</stem><beam number="1">end</beam><notations><tied type="start" /></notations><lyric default-y="-91" name="verse" number="1"><syllabic>single</syllabic><text font-size="10.8">auf</text><extend type="start" /></lyric><lyric default-y="-115" name="verse" number="2"><syllabic>single</syllabic><text font-size="10.8">du</text><extend type="start" /></lyric></note><note default-x="181"><pitch><step>G</step><octave>4</octave></pitch><duration>2</duration><tie type="stop" /><voice>1</voice><type>quarter</type><stem default-y="2">up</stem><notations><tied type="stop" /></notations><lyric name="verse" number="1"><extend type="stop" /></lyric><lyric name="verse" number="2"><extend type="stop" /></lyric></note><note default-x="234"><pitch><step>A</step><octave>4</octave></pitch><duration>1</duration><voice>1</voice><type>eighth</type><stem default-y="6">up</stem><beam number="1">begin</beam><lyric default-y="-91" name="verse" number="1"><syllabic>single</syllabic><text font-size="10.8">dich</text></lyric><lyric default-y="-115" name="verse" number="2"><syllabic>single</syllabic><text font-size="10.8">es</text></lyric></note><note default-x="302"><pitch><step>E</step><octave>4</octave></pitch><duration>1</duration><tie type="start" /><voice>1</voice><type>eighth</type><stem default-y="1.5">up</stem><beam number="1">end</beam><notations><tied type="start" /></notations><lyric default-y="-91" name="verse" number="1"><syllabic>single</syllabic><text font-size="10.8">harrt</text><extend type="start" /></lyric><lyric default-y="-115" name="verse" number="2"><syllabic>single</syllabic><text font-size="10.8">willst:</text><extend type="start" /></lyric></note></measure><!--=======================================================--><measure number="16" width="208"><harmony default-y="36" font-size="10" font-weight="bold"><root><root-step>A</root-step></root><kind halign="center" text="7sus">suspended-fourth</kind><degree print-object="no"><degree-value>7</degree-value><degree-alter>0</degree-alter><degree-type>add</degree-type></degree></harmony><note default-x="37"><pitch><step>E</step><octave>4</octave></pitch><duration>6</duration><tie type="stop" /><voice>1</voice><type>half</type><dot /><stem default-y="-8">up</stem><notations><tied type="stop" /></notations><lyric name="verse" number="1"><extend type="stop" /></lyric><lyric name="verse" number="2"><extend type="stop" /></lyric></note><note default-x="141"><rest /><duration>1</duration><voice>1</voice><type>eighth</type></note><note default-x="171"><pitch><step>A</step><octave>3</octave></pitch><duration>1</duration><voice>1</voice><type>eighth</type><stem default-y="-19">up</stem><lyric default-y="-91" name="verse" number="1"><syllabic>single</syllabic><text font-size="10.8">in</text></lyric><lyric default-y="-115" name="verse" number="2"><syllabic>single</syllabic><text font-size="10.8">In</text></lyric></note></measure><!--=======================================================--><measure number="17" width="539"><print new-system="yes"><system-layout><system-distance>180</system-distance></system-layout></print><note default-x="95"><pitch><step>F</step><alter>1</alter><octave>4</octave></pitch><duration>2</duration><voice>1</voice><type>quarter</type><stem default-y="-3">up</stem><lyric default-y="-91" name="verse" number="1"><syllabic>begin</syllabic><text font-size="10.8">Wahr</text></lyric><lyric default-y="-115" name="verse" number="2"><syllabic>begin</syllabic><text font-size="10.8">Wahr</text></lyric></note><note default-x="194"><pitch><step>E</step><octave>4</octave></pitch><duration>1</duration><voice>1</voice><type>eighth</type><stem default-y="-8">up</stem><beam number="1">begin</beam><lyric default-y="-91" name="verse" number="1"><syllabic>end</syllabic><text font-size="10.8">heit</text></lyric><lyric default-y="-115" name="verse" number="2"><syllabic>end</syllabic><text font-size="10.8">heit</text></lyric></note><note default-x="255"><pitch><step>E</step><octave>4</octave></pitch><duration>1</duration><tie type="start" /><voice>1</voice><type>eighth</type><stem default-y="-8">up</stem><beam number="1">end</beam><notations><tied type="start" /></notations><lyric default-y="-91" name="verse" number="1"><syllabic>single</syllabic><text font-size="10.8">und</text><extend type="start" /></lyric><lyric default-y="-115" name="verse" number="2"><syllabic>single</syllabic><text font-size="10.8">und</text><extend type="start" /></lyric></note><note default-x="317"><pitch><step>E</step><octave>4</octave></pitch><duration>2</duration><tie type="stop" /><voice>1</voice><type>quarter</type><stem default-y="-8">up</stem><notations><tied type="stop" /></notations><lyric name="verse" number="1"><extend type="stop" /></lyric><lyric name="verse" number="2"><extend type="stop" /></lyric></note><note default-x="415"><pitch><step>D</step><octave>4</octave></pitch><duration>1</duration><voice>1</voice><type>eighth</type><stem default-y="-14">up</stem><beam number="1">begin</beam><lyric default-y="-91" name="verse" number="1"><syllabic>single</syllabic><text font-size="10.8">im</text></lyric><lyric default-y="-115" name="verse" number="2"><syllabic>single</syllabic><text font-size="10.8">im</text></lyric></note><note default-x="476"><pitch><step>D</step><octave>4</octave></pitch><duration>1</duration><tie type="start" /><voice>1</voice><type>eighth</type><stem default-y="-14">up</stem><beam number="1">end</beam><notations><tied type="start" /></notations><lyric default-y="-91" name="verse" number="1"><syllabic>single</syllabic><text font-size="10.8">Geist.</text><extend type="start" /></lyric><lyric default-y="-115" name="verse" number="2"><syllabic>single</syllabic><text font-size="10.8">Geist.</text><extend type="start" /></lyric></note></measure><!--=======================================================--><measure number="18" width="172"><harmony default-y="36" font-size="10" font-weight="bold"><root><root-step>D</root-step></root><kind halign="center" text="">major</kind></harmony><note default-x="12"><pitch><step>D</step><octave>4</octave></pitch><duration>8</duration><tie type="stop" /><voice>1</voice><type>whole</type><notations><tied type="stop" /></notations><lyric name="verse" number="1"><extend type="stop" /></lyric><lyric name="verse" number="2"><extend type="stop" /></lyric></note></measure><!--=======================================================--><measure number="19" width="459"><note default-x="11"><rest /><duration>2</duration><voice>1</voice><type>quarter</type></note><note default-x="104"><rest /><duration>1</duration><voice>1</voice><type>eighth</type></note><note default-x="162"><pitch><step>D</step><octave>4</octave></pitch><duration>1</duration><voice>1</voice><type>eighth</type><stem default-y="-13">up</stem><lyric default-y="-91" name="verse" number="1"><syllabic>single</syllabic><text font-size="10.8">Wir</text></lyric></note><note default-x="220"><pitch><step>F</step><alter>1</alter><octave>4</octave></pitch><duration>1</duration><voice>1</voice><type>eighth</type><stem default-y="-3.5">up</stem><beam number="1">begin</beam><lyric default-y="-91" name="verse" number="1"><syllabic>begin</syllabic><text font-size="10.8">be</text></lyric></note><note default-x="278"><pitch><step>G</step><octave>4</octave></pitch><duration>1</duration><voice>1</voice><type>eighth</type><stem default-y="1.5">up</stem><beam number="1">end</beam><lyric default-y="-91" name="verse" number="1"><syllabic>end</syllabic><text font-size="10.8">ten</text></lyric></note><note default-x="336"><pitch><step>A</step><octave>4</octave></pitch><duration>1</duration><voice>1</voice><type>eighth</type><stem default-y="6">up</stem><beam number="1">begin</beam><lyric default-y="-91" name="verse" number="1"><syllabic>single</syllabic><text font-size="10.8">dich</text></lyric></note><note default-x="394"><pitch><step>A</step><octave>4</octave></pitch><duration>1</duration><tie type="start" /><voice>1</voice><type>eighth</type><stem default-y="6">up</stem><beam number="1">end</beam><notations><tied type="start" /></notations><lyric default-y="-91" name="verse" number="1"><syllabic>single</syllabic><text font-size="10.8">an</text><extend type="start" /></lyric></note><barline location="right"><bar-style>light-light</bar-style></barline></measure><!--=======================================================--><measure number="20" width="444"><print new-system="yes"><system-layout><system-distance>180</system-distance></system-layout></print><harmony default-y="36" font-size="10" font-weight="bold"><root><root-step>G</root-step></root><kind halign="center" text="maj7">major-seventh</kind></harmony><direction placement="above"><direction-type><rehearsal default-y="69" font-weight="bold" relative-x="-32">CHORUS</rehearsal></direction-type></direction><note default-x="111"><pitch><step>A</step><octave>4</octave></pitch><duration>2</duration><tie type="stop" /><voice>1</voice><type>quarter</type><stem default-y="7">up</stem><notations><tied type="stop" /></notations><lyric name="verse" number="1"><extend type="stop" /></lyric></note><note default-x="166"><pitch><step>G</step><octave>4</octave></pitch><duration>1</duration><voice>1</voice><type>eighth</type><stem default-y="1">up</stem><beam number="1">begin</beam><lyric default-y="-91" name="verse" number="1"><syllabic>single</syllabic><text font-size="10.8">mit</text></lyric></note><note default-x="221"><pitch><step>G</step><octave>4</octave></pitch><duration>1</duration><tie type="start" /><voice>1</voice><type>eighth</type><stem default-y="1">up</stem><beam number="1">end</beam><notations><tied type="start" /></notations><lyric default-y="-91" name="verse" number="1"><syllabic>begin</syllabic><text font-size="10.8">gan</text></lyric></note><harmony default-y="36" font-size="10" font-weight="bold"><root><root-step>E</root-step></root><kind halign="center" text="m">minor</kind><bass><bass-step>A</bass-step></bass></harmony><note default-x="266"><pitch><step>G</step><octave>4</octave></pitch><duration>2</duration><tie type="stop" /><voice>1</voice><type>quarter</type><stem default-y="2">up</stem><notations><tied type="stop" /></notations></note><note default-x="337"><pitch><step>F</step><alter>1</alter><octave>4</octave></pitch><duration>1</duration><voice>1</voice><type>eighth</type><stem default-y="-3.5">up</stem><beam number="1">begin</beam><lyric default-y="-91" name="verse" number="1"><syllabic>end</syllabic><text font-size="10.8">zem</text></lyric></note><note default-x="395"><pitch><step>F</step><alter>1</alter><octave>4</octave></pitch><duration>1</duration><tie type="start" /><voice>1</voice><type>eighth</type><stem default-y="-3.5">up</stem><beam number="1">end</beam><notations><tied type="start" /></notations><lyric default-y="-91" name="verse" number="1"><syllabic>begin</syllabic><text font-size="10.8">Her</text></lyric></note></measure><!--=======================================================--><measure number="21" width="368"><harmony default-y="36" font-size="10" font-weight="bold"><root><root-step>D</root-step></root><kind halign="center" text="">major</kind></harmony><note default-x="10"><pitch><step>F</step><alter>1</alter><octave>4</octave></pitch><duration>1</duration><tie type="stop" /><voice>1</voice><type>eighth</type><stem default-y="-3.5">up</stem><beam number="1">begin</beam><notations><tied type="stop" /></notations></note><note default-x="51"><pitch><step>D</step><octave>4</octave></pitch><duration>1</duration><voice>1</voice><type>eighth</type><stem default-y="-8.5">up</stem><beam number="1">end</beam><lyric default-y="-91" name="verse" number="1"><syllabic>end</syllabic><text font-size="10.8">zen.</text></lyric></note><note default-x="83"><rest /><duration>1</duration><voice>1</voice><type>eighth</type></note><note default-x="119"><pitch><step>D</step><octave>4</octave></pitch><duration>1</duration><voice>1</voice><type>eighth</type><stem default-y="-13">up</stem><lyric default-y="-91" name="verse" number="1"><syllabic>single</syllabic><text font-size="10.8">Wir</text></lyric></note><note default-x="169"><pitch><step>F</step><alter>1</alter><octave>4</octave></pitch><duration>1</duration><voice>1</voice><type>eighth</type><stem default-y="-3.5">up</stem><beam number="1">begin</beam><lyric default-y="-91" name="verse" number="1"><syllabic>begin</syllabic><text font-size="10.8">be</text></lyric></note><note default-x="218"><pitch><step>G</step><octave>4</octave></pitch><duration>1</duration><voice>1</voice><type>eighth</type><stem default-y="1">up</stem><beam number="1">end</beam><lyric default-y="-91" name="verse" number="1"><syllabic>end</syllabic><text font-size="10.8">ten</text></lyric></note><note default-x="273"><pitch><step>A</step><octave>4</octave></pitch><duration>1</duration><voice>1</voice><type>eighth</type><stem default-y="6">up</stem><beam number="1">begin</beam><lyric default-y="-91" name="verse" number="1"><syllabic>single</syllabic><text font-size="10.8">dich</text></lyric></note><note default-x="326"><pitch><step>A</step><octave>4</octave></pitch><duration>1</duration><tie type="start" /><voice>1</voice><type>eighth</type><stem default-y="6">up</stem><beam number="1">end</beam><notations><tied type="start" /></notations><lyric default-y="-91" name="verse" number="1"><syllabic>single</syllabic><text font-size="10.8">an</text><extend type="start" /></lyric></note></measure><!--=======================================================--><measure number="22" width="358"><harmony default-y="36" font-size="10" font-weight="bold"><root><root-step>G</root-step></root><kind halign="center" text="maj7">major-seventh</kind></harmony><note default-x="36"><pitch><step>A</step><octave>4</octave></pitch><duration>2</duration><tie type="stop" /><voice>1</voice><type>quarter</type><stem default-y="7">up</stem><notations><tied type="stop" /></notations><lyric name="verse" number="1"><extend type="stop" /></lyric></note><note default-x="91"><pitch><step>G</step><octave>4</octave></pitch><duration>1</duration><voice>1</voice><type>eighth</type><stem default-y="1">up</stem><beam number="1">begin</beam><lyric default-y="-91" name="verse" number="1"><syllabic>single</syllabic><text font-size="10.8">mit</text></lyric></note><note default-x="137"><pitch><step>G</step><octave>4</octave></pitch><duration>1</duration><tie type="start" /><voice>1</voice><type>eighth</type><stem default-y="1">up</stem><beam number="1">end</beam><notations><tied type="start" /></notations><lyric default-y="-91" name="verse" number="1"><syllabic>begin</syllabic><text font-size="10.8">al</text></lyric></note><harmony default-y="36" font-size="10" font-weight="bold"><root><root-step>E</root-step></root><kind halign="center" text="m">minor</kind><bass><bass-step>A</bass-step></bass></harmony><note default-x="182"><pitch><step>G</step><octave>4</octave></pitch><duration>2</duration><tie type="stop" /><voice>1</voice><type>quarter</type><stem default-y="2">up</stem><notations><tied type="stop" /></notations></note><note default-x="245"><pitch><step>F</step><alter>1</alter><octave>4</octave></pitch><duration>1</duration><voice>1</voice><type>eighth</type><stem default-y="-3.5">up</stem><beam number="1">begin</beam><lyric default-y="-91" name="verse" number="1"><syllabic>end</syllabic><text font-size="10.8">ler</text></lyric></note><note default-x="304"><pitch><step>F</step><alter>1</alter><octave>4</octave></pitch><duration>1</duration><tie type="start" /><voice>1</voice><type>eighth</type><stem default-y="-3.5">up</stem><beam number="1">end</beam><notations><tied type="start" /></notations><lyric default-y="-91" name="verse" number="1"><syllabic>single</syllabic><text font-size="10.8">Kraft.</text><extend type="start" /></lyric></note></measure><!--=======================================================--><measure number="23" width="419"><print new-page="yes" page-number="2" /><harmony default-y="36" font-size="10" font-weight="bold"><root><root-step>D</root-step></root><kind halign="center" text="">major</kind></harmony><note default-x="87"><pitch><step>F</step><alter>1</alter><octave>4</octave></pitch><duration>2</duration><tie type="stop" /><voice>1</voice><type>quarter</type><stem default-y="-3">up</stem><notations><tied type="stop" /></notations><lyric name="verse" number="1"><extend type="stop" /></lyric></note><note default-x="137"><rest /><duration>1</duration><voice>1</voice><type>eighth</type></note><note default-x="169"><pitch><step>D</step><octave>4</octave></pitch><duration>1</duration><voice>1</voice><type>eighth</type><stem default-y="-13">up</stem><lyric default-y="-91" name="verse" number="1"><syllabic>single</syllabic><text font-size="10.8">Wir</text></lyric></note><note default-x="219"><pitch><step>F</step><alter>1</alter><octave>4</octave></pitch><duration>1</duration><voice>1</voice><type>eighth</type><stem default-y="-4">up</stem><beam number="1">begin</beam><lyric default-y="-91" name="verse" number="1"><syllabic>begin</syllabic><text font-size="10.8">be</text></lyric></note><note default-x="268"><pitch><step>G</step><octave>4</octave></pitch><duration>1</duration><voice>1</voice><type>eighth</type><stem default-y="1">up</stem><beam number="1">end</beam><lyric default-y="-91" name="verse" number="1"><syllabic>end</syllabic><text font-size="10.8">ten</text></lyric></note><note default-x="323"><pitch><step>A</step><octave>4</octave></pitch><duration>1</duration><voice>1</voice><type>eighth</type><stem default-y="6.5">up</stem><beam number="1">begin</beam><lyric default-y="-91" name="verse" number="1"><syllabic>single</syllabic><text font-size="10.8">dich</text></lyric></note><note default-x="376"><pitch><step>A</step><octave>4</octave></pitch><duration>1</duration><tie type="start" /><voice>1</voice><type>eighth</type><stem default-y="6.5">up</stem><beam number="1">end</beam><notations><tied type="start" /></notations><lyric default-y="-91" name="verse" number="1"><syllabic>single</syllabic><text font-size="10.8">an</text><extend type="start" /></lyric></note></measure><!--=======================================================--><measure number="24" width="371"><harmony default-y="36" font-size="10" font-weight="bold"><root><root-step>G</root-step></root><kind halign="center" text="maj7">major-seventh</kind></harmony><note default-x="36"><pitch><step>A</step><octave>4</octave></pitch><duration>2</duration><tie type="stop" /><voice>1</voice><type>quarter</type><stem default-y="7">up</stem><notations><tied type="stop" /></notations><lyric name="verse" number="1"><extend type="stop" /></lyric></note><note default-x="93"><pitch><step>G</step><octave>4</octave></pitch><duration>1</duration><voice>1</voice><type>eighth</type><stem default-y="1">up</stem><beam number="1">begin</beam><lyric default-y="-91" name="verse" number="1"><syllabic>single</syllabic><text font-size="10.8">mit</text></lyric></note><note default-x="149"><pitch><step>G</step><octave>4</octave></pitch><duration>1</duration><tie type="start" /><voice>1</voice><type>eighth</type><stem default-y="1">up</stem><beam number="1">end</beam><notations><tied type="start" /></notations><lyric default-y="-91" name="verse" number="1"><syllabic>single</syllabic><text font-size="10.8">Leib</text><extend type="start" /></lyric></note><harmony default-y="36" font-size="10" font-weight="bold"><root><root-step>E</root-step></root><kind halign="center" text="m">minor</kind><bass><bass-step>A</bass-step></bass></harmony><note default-x="195"><pitch><step>G</step><octave>4</octave></pitch><duration>2</duration><tie type="stop" /><voice>1</voice><type>quarter</type><stem default-y="2">up</stem><notations><tied type="stop" /></notations><lyric name="verse" number="1"><extend type="stop" /></lyric></note><note default-x="264"><pitch><step>F</step><alter>1</alter><octave>4</octave></pitch><duration>1</duration><voice>1</voice><type>eighth</type><stem default-y="-4">up</stem><beam number="1">begin</beam><lyric default-y="-91" name="verse" number="1"><syllabic>single</syllabic><text font-size="10.8">und</text></lyric></note><note default-x="321"><pitch><step>F</step><alter>1</alter><octave>4</octave></pitch><duration>1</duration><tie type="start" /><voice>1</voice><type>eighth</type><stem default-y="-4">up</stem><beam number="1">end</beam><notations><tied type="start" /></notations><lyric default-y="-91" name="verse" number="1"><syllabic>begin</syllabic><text font-size="10.8">See</text></lyric></note></measure><!--=======================================================--><measure number="25" width="241"><harmony default-y="36" font-size="10" font-weight="bold"><root><root-step>B</root-step></root><kind halign="center" text="m7">minor-seventh</kind></harmony><note default-x="19"><pitch><step>F</step><alter>1</alter><octave>4</octave></pitch><duration>1</duration><tie type="stop" /><voice>1</voice><type>eighth</type><stem default-y="-4">up</stem><beam number="1">begin</beam><notations><tied type="stop" /></notations></note><note default-x="55"><pitch><step>D</step><octave>4</octave></pitch><duration>1</duration><voice>1</voice><type>eighth</type><stem default-y="-8.5">up</stem><beam number="1">end</beam><lyric default-y="-91" name="verse" number="1"><syllabic>end</syllabic><text font-size="10.8">le,</text></lyric></note><note default-x="85"><rest /><duration>2</duration><voice>1</voice><type>quarter</type></note><harmony default-y="36" font-size="10" font-weight="bold"><root><root-step>E</root-step></root><kind halign="center" text="m7">minor-seventh</kind></harmony><note default-x="133"><pitch><step>G</step><octave>4</octave></pitch><duration>2</duration><voice>1</voice><type>quarter</type><stem default-y="2">up</stem><lyric default-y="-91" name="verse" number="1"><syllabic>single</syllabic><text font-size="10.8">hier</text></lyric></note><note default-x="191"><pitch><step>F</step><alter>1</alter><octave>4</octave></pitch><duration>2</duration><voice>1</voice><type>quarter</type><stem default-y="-3">up</stem><lyric default-y="-91" name="verse" number="1"><syllabic>single</syllabic><text font-size="10.8">und</text></lyric></note></measure><!--=======================================================--><measure number="26" width="139"><harmony default-y="36" font-size="10" font-weight="bold"><root><root-step>A</root-step></root><kind halign="center" text="">major</kind></harmony><note default-x="19"><pitch><step>E</step><octave>4</octave></pitch><duration>8</duration><voice>1</voice><type>whole</type><lyric default-y="-91" name="verse" number="1"><syllabic>single</syllabic><text font-size="10.8">jetzt.</text></lyric></note></measure><!--=======================================================--><measure number="27" width="418"><print new-system="yes"><system-layout><system-distance>180</system-distance></system-layout></print><note default-x="85"><rest /><duration>2</duration><voice>1</voice><type>quarter</type></note><note default-x="136"><rest /><duration>1</duration><voice>1</voice><type>eighth</type></note><note default-x="168"><pitch><step>D</step><octave>4</octave></pitch><duration>1</duration><voice>1</voice><type>eighth</type><stem default-y="-13">up</stem><lyric default-y="-91" name="verse" number="1"><syllabic>single</syllabic><text font-size="10.8">Wir</text></lyric></note><note default-x="218"><pitch><step>F</step><alter>1</alter><octave>4</octave></pitch><duration>1</duration><voice>1</voice><type>eighth</type><stem default-y="-4">up</stem><beam number="1">begin</beam><lyric default-y="-91" name="verse" number="1"><syllabic>begin</syllabic><text font-size="10.8">be</text></lyric></note><note default-x="268"><pitch><step>G</step><octave>4</octave></pitch><duration>1</duration><voice>1</voice><type>eighth</type><stem default-y="2">up</stem><beam number="1">end</beam><lyric default-y="-91" name="verse" number="1"><syllabic>end</syllabic><text font-size="10.8">ten</text></lyric></note><note default-x="323"><pitch><step>A</step><octave>4</octave></pitch><duration>1</duration><voice>1</voice><type>eighth</type><stem default-y="6.5">up</stem><beam number="1">begin</beam><lyric default-y="-91" name="verse" number="1"><syllabic>single</syllabic><text font-size="10.8">dich</text></lyric></note><note default-x="375"><pitch><step>A</step><octave>4</octave></pitch><duration>1</duration><tie type="start" /><voice>1</voice><type>eighth</type><stem default-y="6.5">up</stem><beam number="1">end</beam><notations><tied type="start" /></notations><lyric default-y="-91" name="verse" number="1"><syllabic>single</syllabic><text font-size="10.8">an</text><extend type="start" /></lyric></note></measure><!--=======================================================--><measure number="28" width="379"><harmony default-y="36" font-size="10" font-weight="bold"><root><root-step>G</root-step></root><kind halign="center" text="maj7">major-seventh</kind></harmony><note default-x="37"><pitch><step>A</step><octave>4</octave></pitch><duration>2</duration><tie type="stop" /><voice>1</voice><type>quarter</type><stem default-y="7">up</stem><notations><tied type="stop" /></notations><lyric name="verse" number="1"><extend type="stop" /></lyric></note><note default-x="92"><pitch><step>G</step><octave>4</octave></pitch><duration>1</duration><voice>1</voice><type>eighth</type><stem default-y="2">up</stem><beam number="1">begin</beam><lyric default-y="-91" name="verse" number="1"><syllabic>single</syllabic><text font-size="10.8">mit</text></lyric></note><note default-x="142"><pitch><step>G</step><octave>4</octave></pitch><duration>1</duration><tie type="start" /><voice>1</voice><type>eighth</type><stem default-y="2">up</stem><beam number="1">end</beam><notations><tied type="start" /></notations><lyric default-y="-91" name="verse" number="1"><syllabic>begin</syllabic><text font-size="10.8">un</text></lyric></note><harmony default-y="36" font-size="10" font-weight="bold"><root><root-step>E</root-step></root><kind halign="center" text="m">minor</kind><bass><bass-step>A</bass-step></bass></harmony><note default-x="189"><pitch><step>G</step><octave>4</octave></pitch><duration>2</duration><tie type="stop" /><voice>1</voice><type>quarter</type><stem default-y="2">up</stem><notations><tied type="stop" /></notations></note><note default-x="264"><pitch><step>F</step><alter>1</alter><octave>4</octave></pitch><duration>1</duration><voice>1</voice><type>eighth</type><stem default-y="-4">up</stem><beam number="1">begin</beam><lyric default-y="-91" name="verse" number="1"><syllabic>end</syllabic><text font-size="10.8">serm</text></lyric></note><note default-x="328"><pitch><step>F</step><alter>1</alter><octave>4</octave></pitch><duration>1</duration><tie type="start" /><voice>1</voice><type>eighth</type><stem default-y="-4">up</stem><beam number="1">end</beam><notations><tied type="start" /></notations><lyric default-y="-91" name="verse" number="1"><syllabic>begin</syllabic><text font-size="10.8">Den</text></lyric></note></measure><!--=======================================================--><measure number="29" width="374"><harmony default-y="36" font-size="10" font-weight="bold"><root><root-step>D</root-step></root><kind halign="center" text="">major</kind></harmony><note default-x="10"><pitch><step>F</step><alter>1</alter><octave>4</octave></pitch><duration>1</duration><tie type="stop" /><voice>1</voice><type>eighth</type><stem default-y="-4">up</stem><beam number="1">begin</beam><notations><tied type="stop" /></notations></note><note default-x="52"><pitch><step>D</step><octave>4</octave></pitch><duration>1</duration><voice>1</voice><type>eighth</type><stem default-y="-9">up</stem><beam number="1">end</beam><lyric default-y="-91" name="verse" number="1"><syllabic>end</syllabic><text font-size="10.8">ken.</text></lyric></note><note default-x="84"><rest /><duration>1</duration><voice>1</voice><type>eighth</type></note><note default-x="122"><pitch><step>D</step><octave>4</octave></pitch><duration>1</duration><voice>1</voice><type>eighth</type><stem default-y="-13">up</stem><lyric default-y="-91" name="verse" number="1"><syllabic>single</syllabic><text font-size="10.8">Wir</text></lyric></note><note default-x="172"><pitch><step>F</step><alter>1</alter><octave>4</octave></pitch><duration>1</duration><voice>1</voice><type>eighth</type><stem default-y="-4">up</stem><beam number="1">begin</beam><lyric default-y="-91" name="verse" number="1"><syllabic>begin</syllabic><text font-size="10.8">be</text></lyric></note><note default-x="222"><pitch><step>G</step><octave>4</octave></pitch><duration>1</duration><voice>1</voice><type>eighth</type><stem default-y="2">up</stem><beam number="1">end</beam><lyric default-y="-91" name="verse" number="1"><syllabic>end</syllabic><text font-size="10.8">ten</text></lyric></note><note default-x="277"><pitch><step>A</step><octave>4</octave></pitch><duration>1</duration><voice>1</voice><type>eighth</type><stem default-y="6.5">up</stem><beam number="1">begin</beam><lyric default-y="-91" name="verse" number="1"><syllabic>single</syllabic><text font-size="10.8">dich</text></lyric></note><note default-x="330"><pitch><step>A</step><octave>4</octave></pitch><duration>1</duration><tie type="start" /><voice>1</voice><type>eighth</type><stem default-y="6.5">up</stem><beam number="1">end</beam><notations><tied type="start" /></notations><lyric default-y="-91" name="verse" number="1"><syllabic>single</syllabic><text font-size="10.8">an</text><extend type="start" /></lyric></note></measure><!--=======================================================--><measure number="30" width="458"><print new-system="yes"><system-layout><system-distance>180</system-distance></system-layout></print><harmony default-y="36" font-size="10" font-weight="bold"><root><root-step>G</root-step></root><kind halign="center" text="maj7">major-seventh</kind></harmony><note default-x="111"><pitch><step>A</step><octave>4</octave></pitch><duration>2</duration><tie type="stop" /><voice>1</voice><type>quarter</type><stem default-y="7">up</stem><notations><tied type="stop" /></notations><lyric name="verse" number="1"><extend type="stop" /></lyric></note><note default-x="167"><pitch><step>G</step><octave>4</octave></pitch><duration>1</duration><voice>1</voice><type>eighth</type><stem default-y="1.5">up</stem><beam number="1">begin</beam><lyric default-y="-91" name="verse" number="1"><syllabic>single</syllabic><text font-size="10.8">mit</text></lyric></note><note default-x="217"><pitch><step>G</step><octave>4</octave></pitch><duration>1</duration><tie type="start" /><voice>1</voice><type>eighth</type><stem default-y="1.5">up</stem><beam number="1">end</beam><notations><tied type="start" /></notations><lyric default-y="-91" name="verse" number="1"><syllabic>begin</syllabic><text font-size="10.8">un</text></lyric></note><harmony default-y="36" font-size="10" font-weight="bold"><root><root-step>E</root-step></root><kind halign="center" text="m">minor</kind><bass><bass-step>A</bass-step></bass></harmony><note default-x="264"><pitch><step>G</step><octave>4</octave></pitch><duration>2</duration><tie type="stop" /><voice>1</voice><type>quarter</type><stem default-y="2">up</stem><notations><tied type="stop" /></notations></note><note default-x="340"><pitch><step>F</step><alter>1</alter><octave>4</octave></pitch><duration>1</duration><voice>1</voice><type>eighth</type><stem default-y="-3.5">up</stem><beam number="1">begin</beam><lyric default-y="-91" name="verse" number="1"><syllabic>end</syllabic><text font-size="10.8">serm</text></lyric></note><note default-x="406"><pitch><step>F</step><alter>1</alter><octave>4</octave></pitch><duration>1</duration><tie type="start" /><voice>1</voice><type>eighth</type><stem default-y="-3.5">up</stem><beam number="1">end</beam><notations><tied type="start" /></notations><lyric default-y="-91" name="verse" number="1"><syllabic>single</syllabic><text font-size="10.8">Tun.</text><extend type="start" /></lyric></note></measure><!--=======================================================--><measure number="31" width="348"><harmony default-y="36" font-size="10" font-weight="bold"><root><root-step>D</root-step></root><kind halign="center" text="">major</kind></harmony><note default-x="12"><pitch><step>F</step><alter>1</alter><octave>4</octave></pitch><duration>2</duration><tie type="stop" /><voice>1</voice><type>quarter</type><stem default-y="-3">up</stem><notations><tied type="stop" /></notations><lyric name="verse" number="1"><extend type="stop" /></lyric></note><note default-x="65"><rest /><duration>1</duration><voice>1</voice><type>eighth</type></note><note default-x="97"><pitch><step>D</step><octave>4</octave></pitch><duration>1</duration><voice>1</voice><type>eighth</type><stem default-y="-13">up</stem><lyric default-y="-91" name="verse" number="1"><syllabic>single</syllabic><text font-size="10.8">Wir</text></lyric></note><note default-x="148"><pitch><step>F</step><alter>1</alter><octave>4</octave></pitch><duration>1</duration><voice>1</voice><type>eighth</type><stem default-y="-3.5">up</stem><beam number="1">begin</beam><lyric default-y="-91" name="verse" number="1"><syllabic>begin</syllabic><text font-size="10.8">be</text></lyric></note><note default-x="197"><pitch><step>G</step><octave>4</octave></pitch><duration>1</duration><voice>1</voice><type>eighth</type><stem default-y="1.5">up</stem><beam number="1">end</beam><lyric default-y="-91" name="verse" number="1"><syllabic>end</syllabic><text font-size="10.8">ten</text></lyric></note><note default-x="252"><pitch><step>A</step><octave>4</octave></pitch><duration>1</duration><voice>1</voice><type>eighth</type><stem default-y="6">up</stem><beam number="1">begin</beam><lyric default-y="-91" name="verse" number="1"><syllabic>single</syllabic><text font-size="10.8">dich</text></lyric></note><note default-x="305"><pitch><step>A</step><octave>4</octave></pitch><duration>1</duration><tie type="start" /><voice>1</voice><type>eighth</type><stem default-y="6">up</stem><beam number="1">end</beam><notations><tied type="start" /></notations><lyric default-y="-91" name="verse" number="1"><syllabic>single</syllabic><text font-size="10.8">an</text><extend type="start" /></lyric></note></measure><!--=======================================================--><measure number="32" width="365"><harmony default-y="36" font-size="10" font-weight="bold"><root><root-step>G</root-step></root><kind halign="center" text="maj7">major-seventh</kind></harmony><note default-x="36"><pitch><step>A</step><octave>4</octave></pitch><duration>2</duration><tie type="stop" /><voice>1</voice><type>quarter</type><stem default-y="7">up</stem><notations><tied type="stop" /></notations><lyric name="verse" number="1"><extend type="stop" /></lyric></note><note default-x="94"><pitch><step>G</step><octave>4</octave></pitch><duration>1</duration><voice>1</voice><type>eighth</type><stem default-y="1.5">up</stem><beam number="1">begin</beam><lyric default-y="-91" name="verse" number="1"><syllabic>single</syllabic><text font-size="10.8">mit</text></lyric></note><note default-x="143"><pitch><step>G</step><octave>4</octave></pitch><duration>1</duration><tie type="start" /><voice>1</voice><type>eighth</type><stem default-y="1.5">up</stem><beam number="1">end</beam><notations><tied type="start" /></notations><lyric default-y="-91" name="verse" number="1"><syllabic>begin</syllabic><text font-size="10.8">un</text></lyric></note><harmony default-y="36" font-size="10" font-weight="bold"><root><root-step>E</root-step></root><kind halign="center" text="m">minor</kind><bass><bass-step>A</bass-step></bass></harmony><note default-x="190"><pitch><step>G</step><octave>4</octave></pitch><duration>2</duration><tie type="stop" /><voice>1</voice><type>quarter</type><stem default-y="2">up</stem><notations><tied type="stop" /></notations></note><note default-x="264"><pitch><step>F</step><alter>1</alter><octave>4</octave></pitch><duration>1</duration><voice>1</voice><type>eighth</type><stem default-y="-3.5">up</stem><beam number="1">begin</beam><lyric default-y="-91" name="verse" number="1"><syllabic>end</syllabic><text font-size="10.8">serm</text></lyric></note><note default-x="320"><pitch><step>F</step><alter>1</alter><octave>4</octave></pitch><duration>1</duration><tie type="start" /><voice>1</voice><type>eighth</type><stem default-y="-3.5">up</stem><beam number="1">end</beam><notations><tied type="start" /></notations><lyric default-y="-91" name="verse" number="1"><syllabic>begin</syllabic><text font-size="10.8">Le</text></lyric></note></measure><!--=======================================================--><measure number="33" width="368"><print new-system="yes"><system-layout><system-distance>180</system-distance></system-layout></print><harmony default-y="36" font-size="10" font-weight="bold"><root><root-step>B</root-step></root><kind halign="center" text="m7">minor-seventh</kind></harmony><note default-x="93"><pitch><step>F</step><alter>1</alter><octave>4</octave></pitch><duration>1</duration><tie type="stop" /><voice>1</voice><type>eighth</type><stem default-y="-3.5">up</stem><beam number="1">begin</beam><notations><tied type="stop" /></notations></note><note default-x="133"><pitch><step>D</step><octave>4</octave></pitch><duration>1</duration><voice>1</voice><type>eighth</type><stem default-y="-8">up</stem><beam number="1">end</beam><lyric default-y="-91" name="verse" number="1"><syllabic>end</syllabic><text font-size="10.8">ben,</text></lyric></note><note default-x="173"><rest /><duration>2</duration><voice>1</voice><type>quarter</type></note><harmony default-y="36" font-size="10" font-weight="bold"><root><root-step>E</root-step></root><kind halign="center" text="m7">minor-seventh</kind></harmony><note default-x="237"><pitch><step>G</step><octave>4</octave></pitch><duration>2</duration><voice>1</voice><type>quarter</type><stem default-y="2">up</stem><lyric default-y="-91" name="verse" number="1"><syllabic>single</syllabic><text font-size="10.8">hier</text></lyric></note><note default-x="302"><pitch><step>F</step><alter>1</alter><octave>4</octave></pitch><duration>2</duration><voice>1</voice><type>quarter</type><stem default-y="-3">up</stem><lyric default-y="-91" name="verse" number="1"><syllabic>single</syllabic><text font-size="10.8">und</text></lyric></note></measure><!--=======================================================--><measure number="34" width="215"><harmony default-y="36" font-size="10" font-weight="bold"><root><root-step>A</root-step></root><kind halign="center" text="">major</kind></harmony><note default-x="16"><pitch><step>E</step><octave>4</octave></pitch><duration>6</duration><voice>1</voice><type>half</type><dot /><stem default-y="-8">up</stem><lyric default-y="-91" name="verse" number="1"><syllabic>single</syllabic><text font-size="10.8">jetzt</text></lyric></note><note default-x="142"><rest /><duration>1</duration><voice>1</voice><type>eighth</type></note><note default-x="177"><pitch><step>A</step><octave>3</octave></pitch><duration>1</duration><voice>1</voice><type>eighth</type><stem default-y="-19">up</stem><lyric default-y="-91" name="verse" number="1"><syllabic>single</syllabic><text font-size="10.8">in</text></lyric></note></measure><!--=======================================================--><measure number="35" width="427"><note default-x="21"><pitch><step>F</step><alter>1</alter><octave>4</octave></pitch><duration>2</duration><voice>1</voice><type>quarter</type><stem default-y="-3">up</stem><lyric default-y="-91" name="verse" number="1"><syllabic>begin</syllabic><text font-size="10.8">Wahr</text></lyric></note><note default-x="110"><pitch><step>E</step><octave>4</octave></pitch><duration>1</duration><voice>1</voice><type>eighth</type><stem default-y="-8">up</stem><beam number="1">begin</beam><lyric default-y="-91" name="verse" number="1"><syllabic>end</syllabic><text font-size="10.8">heit</text></lyric></note><note default-x="170"><pitch><step>E</step><octave>4</octave></pitch><duration>1</duration><tie type="start" /><voice>1</voice><type>eighth</type><stem default-y="-8">up</stem><beam number="1">end</beam><notations><tied type="start" /></notations><lyric default-y="-91" name="verse" number="1"><syllabic>single</syllabic><text font-size="10.8">und</text><extend type="start" /></lyric></note><note default-x="223"><pitch><step>E</step><octave>4</octave></pitch><duration>2</duration><tie type="stop" /><voice>1</voice><type>quarter</type><stem default-y="-8">up</stem><notations><tied type="stop" /></notations><lyric name="verse" number="1"><extend type="stop" /></lyric></note><note default-x="307"><pitch><step>D</step><octave>4</octave></pitch><duration>1</duration><voice>1</voice><type>eighth</type><stem default-y="-14">up</stem><beam number="1">begin</beam><lyric default-y="-91" name="verse" number="1"><syllabic>single</syllabic><text font-size="10.8">im</text></lyric></note><note default-x="368"><pitch><step>D</step><octave>4</octave></pitch><duration>1</duration><tie type="start" /><voice>1</voice><type>eighth</type><stem default-y="-14">up</stem><beam number="1">end</beam><notations><tied type="start" /></notations><lyric default-y="-91" name="verse" number="1"><syllabic>single</syllabic><text font-size="10.8">Geist.</text><extend type="start" /></lyric></note></measure><!--=======================================================--><measure number="36" width="160"><harmony default-y="36" font-size="10" font-weight="bold"><root><root-step>D</root-step></root><kind halign="center" text="">major</kind></harmony><note default-x="12"><pitch><step>D</step><octave>4</octave></pitch><duration>8</duration><tie type="stop" /><voice>1</voice><type>whole</type><notations><tied type="stop" /></notations><lyric name="verse" number="1"><extend type="stop" /></lyric></note><barline location="right"><bar-style>light-heavy</bar-style></barline></measure></part><!--=========================================================--></score-partwise>