<?xml version="1.0" encoding="UTF-8"?><!DOCTYPE score-partwise PUBLIC "-//Recordare//DTD MusicXML 1.1 Partwise//EN" "http://www.musicxml.org/dtds/partwise.dtd"[]><score-partwise version="1.1"><movement-title>Wir werden sein wie die Träumenden</movement-title><identification><creator type="composer">Peter Strauch</creator><encoding><software>Finale for Windows</software><software>Dolet 4.5 for Finale</software><encoding-date>2009-06-12</encoding-date></encoding><rights>CCLI-Liednummer 4333012
© 1983 SCM Hänssler, Holzgerlingen
Nutzung ausschließlich im Rahmen der SongSelect®-Nutzungsbedingungen. Alle Rechte vorbehalten. www.ccli.com
CCLI-Lizenznummer 2182334
</rights></identification><defaults><scaling><millimeters>6.5088</millimeters><tenths>40</tenths></scaling><page-layout><page-height>1771</page-height><page-width>1308</page-width><page-margins type="both"><left-margin>78</left-margin><right-margin>78</right-margin><top-margin>78</top-margin><bottom-margin>78</bottom-margin></page-margins></page-layout><system-layout><system-margins><left-margin>0</left-margin><right-margin>0</right-margin></system-margins><system-distance>244</system-distance><top-system-distance>122</top-system-distance></system-layout><music-font font-family="Maestro" font-size="18.5" /><word-font font-family="Arial" font-size="9.2" /><lyric-font font-family="Arial" font-size="10.8" name="verse" /><lyric-font font-family="Arial" font-size="10.8" name="section" /></defaults><credit page="1"><credit-words default-x="654" default-y="1688" font-size="21.6" font-weight="bold" justify="center" valign="top">Wir werden sein wie die Träumenden</credit-words></credit><credit page="1"><credit-words default-x="1230" default-y="1620" font-size="10.8" font-style="italic" justify="right" valign="top">Text und Musik:</credit-words></credit><credit page="1"><credit-words font-size="10.8" valign="top" justify="right" font-weight="bold" default-y="1594" default-x="1230">Peter Strauch</credit-words></credit><part-list><score-part id="P1"><part-name print-object="no">Melody</part-name><score-instrument id="P1-I2"><instrument-name>Melody</instrument-name></score-instrument><midi-instrument id="P1-I2"><midi-channel>1</midi-channel><midi-program>1</midi-program></midi-instrument></score-part></part-list><!--=========================================================--><part id="P1"><measure number="1" width="448"><print page-number="1"><system-layout><system-margins><left-margin>68</left-margin><right-margin>0</right-margin></system-margins><top-system-distance>244</top-system-distance></system-layout></print><attributes><divisions>1</divisions><key><fifths>4</fifths><mode>major</mode></key><time symbol="cut"><beats>2</beats><beat-type>2</beat-type></time><clef><sign>G</sign><line>2</line></clef></attributes><sound tempo="96" /><harmony default-y="29" font-size="10" font-weight="bold"><root><root-step>E</root-step></root><kind text="">major</kind></harmony><note default-x="142"><rest /><duration>1</duration><voice>1</voice><type>quarter</type></note><note default-x="217"><pitch><step>E</step><octave>4</octave></pitch><duration>1</duration><voice>1</voice><type>quarter</type><stem default-y="-4">up</stem><lyric default-y="-95" name="verse" number="1" relative-x="-13"><syllabic>single</syllabic><text font-size="10.8">1.</text><elision /><syllabic>single</syllabic><text font-size="10.8">Du</text></lyric><lyric default-y="-119" name="verse" number="2"><syllabic>single</syllabic><text font-size="10.8">2.</text><elision /><syllabic>single</syllabic><text font-size="10.8">Willst</text></lyric><lyric default-y="-145" name="verse" number="3"><syllabic>single</syllabic><text font-size="10.8">3.</text><elision /><syllabic>single</syllabic><text font-size="10.8">Drum</text></lyric></note><note default-x="296"><pitch><step>E</step><octave>4</octave></pitch><duration>1</duration><voice>1</voice><type>quarter</type><stem default-y="-4">up</stem><lyric default-y="-95" name="verse" number="1"><syllabic>single</syllabic><text font-size="10.8">sollst</text></lyric><lyric default-y="-120" name="verse" number="2"><syllabic>single</syllabic><text font-size="10.8">du</text></lyric><lyric default-y="-145" name="verse" number="3"><syllabic>single</syllabic><text font-size="10.8">lass</text></lyric></note><note default-x="372"><pitch><step>E</step><octave>4</octave></pitch><duration>1</duration><voice>1</voice><type>quarter</type><stem default-y="-4">up</stem><lyric default-y="-95" name="verse" number="1"><syllabic>single</syllabic><text font-size="10.8">nicht</text></lyric><lyric default-y="-120" name="verse" number="2"><syllabic>single</syllabic><text font-size="10.8">den</text></lyric><lyric default-y="-145" name="verse" number="3"><syllabic>single</syllabic><text font-size="10.8">die</text></lyric></note></measure><!--=======================================================--><measure number="2" width="287"><print new-system="no" /><note default-x="27"><pitch><step>G</step><alter>1</alter><octave>4</octave></pitch><duration>1</duration><voice>1</voice><type>quarter</type><stem default-y="6">up</stem><lyric default-y="-95" name="verse" number="1"><syllabic>begin</syllabic><text font-size="10.8">mü</text></lyric><lyric default-y="-120" name="verse" number="2"><syllabic>single</syllabic><text font-size="10.8">Mut</text></lyric><lyric default-y="-145" name="verse" number="3"><syllabic>begin</syllabic><text font-size="10.8">Trau</text></lyric></note><note default-x="92"><pitch><step>G</step><alter>1</alter><octave>4</octave></pitch><duration>1</duration><voice>1</voice><type>quarter</type><stem default-y="6">up</stem><lyric default-y="-95" name="verse" number="1"><syllabic>end</syllabic><text font-size="10.8">de</text></lyric><lyric default-y="-120" name="verse" number="2"><syllabic>begin</syllabic><text font-size="10.8">ver</text></lyric><lyric default-y="-145" name="verse" number="3"><syllabic>middle</syllabic><text font-size="10.8">rig</text></lyric></note><note default-x="157"><pitch><step>F</step><alter>1</alter><octave>4</octave></pitch><duration>1</duration><voice>1</voice><type>quarter</type><stem default-y="1">up</stem><lyric default-y="-95" name="verse" number="1"><syllabic>begin</syllabic><text font-size="10.8">wer</text></lyric><lyric default-y="-120" name="verse" number="2"><syllabic>middle</syllabic><text font-size="10.8">lie</text></lyric><lyric default-y="-145" name="verse" number="3"><syllabic>middle</syllabic><text font-size="10.8">kei</text></lyric></note><note default-x="221"><pitch><step>E</step><octave>4</octave></pitch><duration>1</duration><voice>1</voice><type>quarter</type><stem default-y="-4">up</stem><lyric default-y="-95" name="verse" number="1"><syllabic>end</syllabic><text font-size="10.8">den,</text></lyric><lyric default-y="-120" name="verse" number="2"><syllabic>end</syllabic><text font-size="10.8">ren?</text></lyric><lyric default-y="-145" name="verse" number="3"><syllabic>end</syllabic><text font-size="10.8">ten,</text></lyric></note></measure><!--=======================================================--><measure number="3" width="349"><print new-system="no" /><harmony default-y="29" font-size="10" font-weight="bold"><root><root-step>G</root-step><root-alter>1</root-alter></root><kind text="m">minor</kind></harmony><note default-x="26"><rest /><duration>1</duration><voice>1</voice><type>quarter</type></note><note default-x="106"><pitch><step>G</step><alter>1</alter><octave>4</octave></pitch><duration>1</duration><voice>1</voice><type>quarter</type><stem default-y="6">up</stem><lyric default-y="-95" name="verse" number="1"><syllabic>single</syllabic><text font-size="10.8">selbst</text></lyric><lyric default-y="-120" name="verse" number="2"><syllabic>single</syllabic><text font-size="10.8">Willst</text></lyric><lyric default-y="-145" name="verse" number="3"><syllabic>single</syllabic><text font-size="10.8">lass</text></lyric></note><note default-x="187"><pitch><step>G</step><alter>1</alter><octave>4</octave></pitch><duration>1</duration><voice>1</voice><type>quarter</type><stem default-y="6">up</stem><lyric default-y="-95" name="verse" number="1"><syllabic>single</syllabic><text font-size="10.8">wenn</text></lyric><lyric default-y="-120" name="verse" number="2"><syllabic>single</syllabic><text font-size="10.8">du</text></lyric><lyric default-y="-145" name="verse" number="3"><syllabic>single</syllabic><text font-size="10.8">dich</text></lyric></note><note default-x="267"><pitch><step>B</step><octave>4</octave></pitch><duration>1</duration><voice>1</voice><type>quarter</type><stem default-y="-55">down</stem><lyric default-y="-95" name="verse" number="1"><syllabic>single</syllabic><text font-size="10.8">das</text></lyric><lyric default-y="-120" name="verse" number="2"><syllabic>single</syllabic><text font-size="10.8">schon</text></lyric><lyric default-y="-145" name="verse" number="3"><syllabic>single</syllabic><text font-size="10.8">zur</text></lyric></note></measure><!--=======================================================--><measure number="4" width="355"><print new-system="yes"><system-layout><system-distance>226</system-distance></system-layout></print><harmony default-y="29" font-size="10" font-weight="bold"><root><root-step>C</root-step><root-alter>1</root-alter></root><kind text="m">minor</kind></harmony><note default-x="124"><pitch><step>C</step><alter>1</alter><octave>5</octave></pitch><duration>1</duration><voice>1</voice><type>quarter</type><stem default-y="-51">down</stem><lyric default-y="-95" name="verse" number="1"><syllabic>single</syllabic><text font-size="10.8">Licht</text></lyric><lyric default-y="-120" name="verse" number="2"><syllabic>begin</syllabic><text font-size="10.8">re</text></lyric><lyric default-y="-145" name="verse" number="3"><syllabic>begin</syllabic><text font-size="10.8">Freu</text></lyric></note><note default-x="181"><pitch><step>B</step><octave>4</octave></pitch><duration>1</duration><voice>1</voice><type>quarter</type><stem default-y="-55.5">down</stem><lyric default-y="-95" name="verse" number="1"><syllabic>single</syllabic><text font-size="10.8">auf</text></lyric><lyric default-y="-120" name="verse" number="2"><syllabic>middle</syllabic><text font-size="10.8">sig</text></lyric><lyric default-y="-145" name="verse" number="3"><syllabic>end</syllabic><text font-size="10.8">de</text></lyric></note><note default-x="238"><pitch><step>A</step><octave>4</octave></pitch><duration>1</duration><voice>1</voice><type>quarter</type><stem default-y="10.5">up</stem><lyric default-y="-95" name="verse" number="1"><syllabic>begin</syllabic><text font-size="10.8">Er</text></lyric><lyric default-y="-120" name="verse" number="2"><syllabic>middle</syllabic><text font-size="10.8">nie</text></lyric><lyric default-y="-145" name="verse" number="3"><syllabic>begin</syllabic><text font-size="10.8">lei</text></lyric></note><note default-x="296"><pitch><step>G</step><alter>1</alter><octave>4</octave></pitch><duration>1</duration><voice>1</voice><type>quarter</type><stem default-y="6">up</stem><lyric default-y="-95" name="verse" number="1"><syllabic>end</syllabic><text font-size="10.8">den</text></lyric><lyric default-y="-120" name="verse" number="2"><syllabic>end</syllabic><text font-size="10.8">ren,</text></lyric><lyric default-y="-145" name="verse" number="3"><syllabic>end</syllabic><text font-size="10.8">ten.</text></lyric></note></measure><!--=======================================================--><measure number="5" width="302"><print new-system="no" /><harmony default-y="29" font-size="10" font-weight="bold"><root><root-step>F</root-step><root-alter>1</root-alter></root><kind text="m">minor</kind></harmony><note default-x="24"><rest /><duration>1</duration><voice>1</voice><type>quarter</type></note><note default-x="93"><pitch><step>A</step><octave>4</octave></pitch><duration>1</duration><voice>1</voice><type>quarter</type><stem default-y="10.5">up</stem><lyric default-y="-95" name="verse" number="1"><syllabic>begin</syllabic><text font-size="10.8">all</text></lyric><lyric default-y="-120" name="verse" number="2"><syllabic>single</syllabic><text font-size="10.8">weil</text></lyric><lyric default-y="-145" name="verse" number="3"><syllabic>single</syllabic><text font-size="10.8">Bald</text></lyric></note><note default-x="162"><pitch><step>A</step><octave>4</octave></pitch><duration>1</duration><voice>1</voice><type>quarter</type><stem default-y="10.5">up</stem><lyric default-y="-95" name="verse" number="1"><syllabic>middle</syllabic><text font-size="10.8">mäh</text></lyric><lyric default-y="-120" name="verse" number="2"><syllabic>single</syllabic><text font-size="10.8">es</text></lyric><lyric default-y="-145" name="verse" number="3"><syllabic>single</syllabic><text font-size="10.8">wirst</text></lyric></note><note default-x="231"><pitch><step>B</step><octave>4</octave></pitch><duration>1</duration><voice>1</voice><type>quarter</type><stem default-y="-55.5">down</stem><lyric default-y="-95" name="verse" number="1"><syllabic>end</syllabic><text font-size="10.8">lich</text></lyric><lyric default-y="-120" name="verse" number="2"><syllabic>single</syllabic><text font-size="10.8">nichts</text></lyric><lyric default-y="-145" name="verse" number="3"><syllabic>single</syllabic><text font-size="10.8">du</text></lyric></note></measure><!--=======================================================--><measure number="6" width="324"><print new-system="no" /><note default-x="31"><pitch><step>C</step><alter>1</alter><octave>5</octave></pitch><duration>1</duration><voice>1</voice><type>quarter</type><stem default-y="-51">down</stem><lyric default-y="-95" name="verse" number="1"><syllabic>single</syllabic><text font-size="10.8">zu</text></lyric><lyric default-y="-120" name="verse" number="2"><syllabic>single</syllabic><text font-size="10.8">mehr</text></lyric><lyric default-y="-145" name="verse" number="3"><syllabic>single</syllabic><text font-size="10.8">sehn:</text></lyric></note><note default-x="104"><pitch><step>B</step><octave>4</octave></pitch><duration>1</duration><voice>1</voice><type>quarter</type><stem default-y="-55.5">down</stem><lyric default-y="-95" name="verse" number="1"><syllabic>begin</syllabic><text font-size="10.8">ver</text></lyric><lyric default-y="-120" name="verse" number="2"><syllabic>single</syllabic><text font-size="10.8">zu</text></lyric><lyric default-y="-145" name="verse" number="3"><syllabic>single</syllabic><text font-size="10.8">Das</text></lyric></note><note default-x="177"><pitch><step>A</step><octave>4</octave></pitch><duration>1</duration><voice>1</voice><type>quarter</type><stem default-y="10.5">up</stem><lyric default-y="-95" name="verse" number="1"><syllabic>middle</syllabic><text font-size="10.8">lö</text></lyric><lyric default-y="-120" name="verse" number="2"><syllabic>begin</syllabic><text font-size="10.8">hof</text></lyric><lyric default-y="-145" name="verse" number="3"><syllabic>single</syllabic><text font-size="10.8">Fest</text></lyric></note><note default-x="250"><pitch><step>G</step><alter>1</alter><octave>4</octave></pitch><duration>1</duration><voice>1</voice><type>quarter</type><stem default-y="6">up</stem><lyric default-y="-95" name="verse" number="1"><syllabic>end</syllabic><text font-size="10.8">schen</text></lyric><lyric default-y="-120" name="verse" number="2"><syllabic>end</syllabic><text font-size="10.8">fen</text></lyric><lyric default-y="-145" name="verse" number="3"><syllabic>begin</syllabic><text font-size="10.8">be</text></lyric></note></measure><!--=======================================================--><measure number="7" width="172"><print new-system="no" /><harmony default-y="29" font-size="10" font-weight="bold"><root><root-step>D</root-step></root><kind text="">major</kind></harmony><note default-x="43"><pitch><step>F</step><alter>1</alter><octave>4</octave></pitch><duration>4</duration><tie type="start" /><voice>1</voice><type>whole</type><notations><tied type="start" /></notations><lyric default-y="-95" name="verse" number="1"><syllabic>single</syllabic><text font-size="10.8">scheint.</text><extend /></lyric><lyric default-y="-120" name="verse" number="2"><syllabic>single</syllabic><text font-size="10.8">gibt?</text><extend /></lyric><lyric default-y="-145" name="verse" number="3"><syllabic>end</syllabic><text font-size="10.8">ginnt.</text><extend /></lyric></note></measure><!--=======================================================--><measure number="8" width="239"><print new-system="yes"><system-layout><system-distance>226</system-distance></system-layout></print><harmony default-y="29" font-size="10" font-weight="bold"><root><root-step>B</root-step></root><kind text="">major</kind></harmony><note default-x="109"><pitch><step>F</step><alter>1</alter><octave>4</octave></pitch><duration>4</duration><tie type="stop" /><voice>1</voice><type>whole</type><notations><tied type="stop" /></notations></note></measure><!--=======================================================--><measure number="9" width="294"><print new-system="no" /><harmony default-y="29" font-size="10" font-weight="bold"><root><root-step>E</root-step></root><kind text="">major</kind></harmony><note default-x="12"><rest /><duration>1</duration><voice>1</voice><type>quarter</type></note><note default-x="82"><pitch><step>E</step><octave>4</octave></pitch><duration>1</duration><voice>1</voice><type>quarter</type><stem default-y="-4">up</stem><lyric default-y="-95" name="verse" number="1"><syllabic>single</syllabic><text font-size="10.8">Denn</text></lyric><lyric default-y="-120" name="verse" number="2"><syllabic>single</syllabic><text font-size="10.8">Du</text></lyric><lyric default-y="-145" name="verse" number="3"><syllabic>single</syllabic><text font-size="10.8">Auch</text></lyric></note><note default-x="152"><pitch><step>E</step><octave>4</octave></pitch><duration>1</duration><voice>1</voice><type>quarter</type><stem default-y="-4">up</stem><lyric default-y="-95" name="verse" number="1"><syllabic>begin</syllabic><text font-size="10.8">ü</text></lyric><lyric default-y="-120" name="verse" number="2"><syllabic>single</syllabic><text font-size="10.8">sollst</text></lyric><lyric default-y="-145" name="verse" number="3"><syllabic>single</syllabic><text font-size="10.8">du</text></lyric></note><note default-x="222"><pitch><step>E</step><octave>4</octave></pitch><duration>1</duration><voice>1</voice><type>quarter</type><stem default-y="-4">up</stem><lyric default-y="-95" name="verse" number="1"><syllabic>end</syllabic><text font-size="10.8">ber</text></lyric><lyric default-y="-120" name="verse" number="2"><syllabic>single</syllabic><text font-size="10.8">nicht</text></lyric><lyric default-y="-145" name="verse" number="3"><syllabic>single</syllabic><text font-size="10.8">bist</text></lyric></note></measure><!--=======================================================--><measure number="10" width="312"><print new-system="no" /><note default-x="29"><pitch><step>G</step><alter>1</alter><octave>4</octave></pitch><duration>1</duration><voice>1</voice><type>quarter</type><stem default-y="6">up</stem><lyric default-y="-95" name="verse" number="1"><syllabic>single</syllabic><text font-size="10.8">Hass</text></lyric><lyric default-y="-120" name="verse" number="2"><syllabic>begin</syllabic><text font-size="10.8">sinn</text></lyric><lyric default-y="-145" name="verse" number="3"><syllabic>begin</syllabic><text font-size="10.8">ein</text></lyric></note><note default-x="99"><pitch><step>G</step><alter>1</alter><octave>4</octave></pitch><duration>1</duration><voice>1</voice><type>quarter</type><stem default-y="6">up</stem><lyric default-y="-95" name="verse" number="1"><syllabic>single</syllabic><text font-size="10.8">und</text></lyric><lyric default-y="-120" name="verse" number="2"><syllabic>end</syllabic><text font-size="10.8">los</text></lyric><lyric default-y="-145" name="verse" number="3"><syllabic>middle</syllabic><text font-size="10.8">ge</text></lyric></note><note default-x="170"><pitch><step>F</step><alter>1</alter><octave>4</octave></pitch><duration>1</duration><voice>1</voice><type>quarter</type><stem default-y="1">up</stem><lyric default-y="-95" name="verse" number="1"><syllabic>begin</syllabic><text font-size="10.8">Krie</text></lyric><lyric default-y="-120" name="verse" number="2"><syllabic>begin</syllabic><text font-size="10.8">en</text></lyric><lyric default-y="-145" name="verse" number="3"><syllabic>middle</syllabic><text font-size="10.8">la</text></lyric></note><note default-x="240"><pitch><step>E</step><octave>4</octave></pitch><duration>1</duration><voice>1</voice><type>quarter</type><stem default-y="-4">up</stem><lyric default-y="-95" name="verse" number="1"><syllabic>end</syllabic><text font-size="10.8">gen</text></lyric><lyric default-y="-120" name="verse" number="2"><syllabic>end</syllabic><text font-size="10.8">den,</text></lyric><lyric default-y="-145" name="verse" number="3"><syllabic>end</syllabic><text font-size="10.8">den;</text></lyric></note></measure><!--=======================================================--><measure number="11" width="308"><print new-system="no" /><harmony default-y="29" font-size="10" font-weight="bold"><root><root-step>G</root-step><root-alter>1</root-alter></root><kind text="m">minor</kind></harmony><note default-x="27"><rest /><duration>1</duration><voice>1</voice><type>quarter</type></note><note default-x="96"><pitch><step>G</step><alter>1</alter><octave>4</octave></pitch><duration>1</duration><voice>1</voice><type>quarter</type><stem default-y="6">up</stem><lyric default-y="-95" name="verse" number="1"><syllabic>single</syllabic><text font-size="10.8">wird</text></lyric><lyric default-y="-120" name="verse" number="2"><syllabic>single</syllabic><text font-size="10.8">Gott</text></lyric><lyric default-y="-145" name="verse" number="3"><syllabic>single</syllabic><text font-size="10.8">dann</text></lyric></note><note default-x="166"><pitch><step>G</step><alter>1</alter><octave>4</octave></pitch><duration>1</duration><voice>1</voice><type>quarter</type><stem default-y="6">up</stem><lyric default-y="-95" name="verse" number="1"><syllabic>begin</syllabic><text font-size="10.8">Got</text></lyric><lyric default-y="-120" name="verse" number="2"><syllabic>single</syllabic><text font-size="10.8">will</text></lyric><lyric default-y="-145" name="verse" number="3"><syllabic>single</syllabic><text font-size="10.8">heilt</text></lyric></note><note default-x="237"><pitch><step>B</step><octave>4</octave></pitch><duration>1</duration><voice>1</voice><type>quarter</type><stem default-y="-55">down</stem><lyric default-y="-95" name="verse" number="1"><syllabic>end</syllabic><text font-size="10.8">tes</text></lyric><lyric default-y="-120" name="verse" number="2"><syllabic>single</syllabic><text font-size="10.8">dein</text></lyric><lyric default-y="-145" name="verse" number="3"><syllabic>single</syllabic><text font-size="10.8">Gott</text></lyric></note></measure><!--=======================================================--><measure number="12" width="369"><print new-system="yes"><system-layout><system-distance>226</system-distance></system-layout></print><harmony default-y="29" font-size="10" font-weight="bold"><root><root-step>C</root-step><root-alter>1</root-alter></root><kind text="m">minor</kind></harmony><note default-x="122"><pitch><step>C</step><alter>1</alter><octave>5</octave></pitch><duration>1</duration><voice>1</voice><type>quarter</type><stem default-y="-51">down</stem><lyric default-y="-95" name="verse" number="1"><syllabic>begin</syllabic><text font-size="10.8">Zu</text></lyric><lyric default-y="-120" name="verse" number="2"><syllabic>begin</syllabic><text font-size="10.8">Le</text></lyric><lyric default-y="-145" name="verse" number="3"><syllabic>begin</syllabic><text font-size="10.8">al</text></lyric></note><note default-x="184"><pitch><step>B</step><octave>4</octave></pitch><duration>1</duration><voice>1</voice><type>quarter</type><stem default-y="-55.5">down</stem><lyric default-y="-95" name="verse" number="1"><syllabic>end</syllabic><text font-size="10.8">kunft</text></lyric><lyric default-y="-120" name="verse" number="2"><syllabic>end</syllabic><text font-size="10.8">ben</text></lyric><lyric default-y="-145" name="verse" number="3"><syllabic>end</syllabic><text font-size="10.8">len</text></lyric></note><note default-x="246"><pitch><step>A</step><octave>4</octave></pitch><duration>1</duration><voice>1</voice><type>quarter</type><stem default-y="10.5">up</stem><lyric default-y="-95" name="verse" number="1"><syllabic>begin</syllabic><text font-size="10.8">sie</text></lyric><lyric default-y="-120" name="verse" number="2"><syllabic>begin</syllabic><text font-size="10.8">wen</text></lyric><lyric default-y="-145" name="verse" number="3"><syllabic>begin</syllabic><text font-size="10.8">Scha</text></lyric></note><note default-x="307"><pitch><step>G</step><alter>1</alter><octave>4</octave></pitch><duration>1</duration><voice>1</voice><type>quarter</type><stem default-y="6">up</stem><lyric default-y="-95" name="verse" number="1"><syllabic>end</syllabic><text font-size="10.8">gen,</text></lyric><lyric default-y="-120" name="verse" number="2"><syllabic>end</syllabic><text font-size="10.8">den,</text></lyric><lyric default-y="-145" name="verse" number="3"><syllabic>end</syllabic><text font-size="10.8">den.</text></lyric></note></measure><!--=======================================================--><measure number="13" width="258"><print new-system="no" /><harmony default-y="29" font-size="10" font-weight="bold"><root><root-step>F</root-step><root-alter>1</root-alter></root><kind text="m">minor</kind></harmony><note default-x="24"><rest /><duration>1</duration><voice>1</voice><type>quarter</type></note><note default-x="81"><pitch><step>A</step><octave>4</octave></pitch><duration>1</duration><voice>1</voice><type>quarter</type><stem default-y="10.5">up</stem><lyric default-y="-95" name="verse" number="1"><syllabic>single</syllabic><text font-size="10.8">und</text></lyric><lyric default-y="-120" name="verse" number="2"><syllabic>single</syllabic><text font-size="10.8">weil</text></lyric><lyric default-y="-145" name="verse" number="3"><syllabic>single</syllabic><text font-size="10.8">Ein</text></lyric></note><note default-x="140"><pitch><step>A</step><octave>4</octave></pitch><duration>1</duration><voice>1</voice><type>quarter</type><stem default-y="10.5">up</stem><lyric default-y="-95" name="verse" number="1"><syllabic>single</syllabic><text font-size="10.8">wenn</text></lyric><lyric default-y="-120" name="verse" number="2"><syllabic>single</syllabic><text font-size="10.8">er</text></lyric><lyric default-y="-145" name="verse" number="3"><syllabic>begin</syllabic><text font-size="10.8">neu</text></lyric></note><note default-x="200"><pitch><step>B</step><octave>4</octave></pitch><duration>1</duration><voice>1</voice><type>quarter</type><stem default-y="-55.5">down</stem><lyric default-y="-95" name="verse" number="1"><syllabic>single</syllabic><text font-size="10.8">sein</text></lyric><lyric default-y="-120" name="verse" number="2"><syllabic>single</syllabic><text font-size="10.8">dich</text></lyric><lyric default-y="-145" name="verse" number="3"><syllabic>end</syllabic><text font-size="10.8">es</text></lyric></note></measure><!--=======================================================--><measure number="14" width="245"><print new-system="no" /><note default-x="24"><pitch><step>C</step><alter>1</alter><octave>5</octave></pitch><duration>1</duration><voice>1</voice><type>quarter</type><stem default-y="-51">down</stem><lyric default-y="-95" name="verse" number="1"><syllabic>begin</syllabic><text font-size="10.8">gro</text></lyric><lyric default-y="-120" name="verse" number="2"><syllabic>single</syllabic><text font-size="10.8">ja</text></lyric><lyric default-y="-145" name="verse" number="3"><syllabic>single</syllabic><text font-size="10.8">Lied</text></lyric></note><note default-x="78"><pitch><step>B</step><octave>4</octave></pitch><duration>1</duration><voice>1</voice><type>quarter</type><stem default-y="-55.5">down</stem><lyric default-y="-95" name="verse" number="1"><syllabic>end</syllabic><text font-size="10.8">ßer</text></lyric><lyric default-y="-120" name="verse" number="2"><syllabic>begin</syllabic><text font-size="10.8">un</text></lyric><lyric default-y="-145" name="verse" number="3"><syllabic>single</syllabic><text font-size="10.8">wird</text></lyric></note><note default-x="134"><pitch><step>A</step><octave>4</octave></pitch><duration>1</duration><voice>1</voice><type>quarter</type><stem default-y="10.5">up</stem><lyric default-y="-95" name="verse" number="1"><syllabic>single</syllabic><text font-size="10.8">Tag</text></lyric><lyric default-y="-120" name="verse" number="2"><syllabic>middle</syllabic><text font-size="10.8">end</text></lyric><lyric default-y="-145" name="verse" number="3"><syllabic>begin</syllabic><text font-size="10.8">an</text></lyric></note><note default-x="189"><pitch><step>C</step><alter>1</alter><octave>5</octave></pitch><duration>1</duration><voice>1</voice><type>quarter</type><stem default-y="-51">down</stem><lyric default-y="-95" name="verse" number="1"><syllabic>begin</syllabic><text font-size="10.8">er</text></lyric><lyric default-y="-120" name="verse" number="2"><syllabic>end</syllabic><text font-size="10.8">lich</text></lyric><lyric default-y="-145" name="verse" number="3"><syllabic>middle</syllabic><text font-size="10.8">ge</text></lyric></note></measure><!--=======================================================--><measure number="15" width="155"><print new-system="no" /><harmony default-y="29" font-size="10" font-weight="bold"><root><root-step>B</root-step></root><kind text="sus">suspended-fourth</kind></harmony><note default-x="43"><pitch><step>B</step><octave>4</octave></pitch><duration>4</duration><tie type="start" /><voice>1</voice><type>whole</type><notations><tied type="start" /></notations><lyric default-y="-95" name="verse" number="1"><syllabic>end</syllabic><text font-size="10.8">scheint:</text><extend /></lyric><lyric default-y="-120" name="verse" number="2"><syllabic>single</syllabic><text font-size="10.8">liebt.</text><extend /></lyric><lyric default-y="-145" name="verse" number="3"><syllabic>end</syllabic><text font-size="10.8">stimmt.</text><extend /></lyric></note></measure><!--=======================================================--><measure number="16" width="126"><print new-system="no" /><harmony default-y="29" font-size="10" font-weight="bold"><root><root-step>B</root-step></root><kind text="">major</kind></harmony><note default-x="12"><pitch><step>B</step><octave>4</octave></pitch><duration>4</duration><tie type="stop" /><voice>1</voice><type>whole</type><notations><tied type="stop" /></notations></note><barline location="right"><bar-style>light-light</bar-style></barline></measure><!--=======================================================--><measure number="17" width="417"><print new-system="yes"><system-layout><system-distance>226</system-distance></system-layout></print><harmony default-y="29" font-size="10" font-weight="bold"><root><root-step>A</root-step></root><kind text="">major</kind></harmony><note default-x="111"><rest /><duration>1</duration><voice>1</voice><type>quarter</type></note><note default-x="187"><pitch><step>C</step><alter>1</alter><octave>5</octave></pitch><duration>1</duration><voice>1</voice><type>quarter</type><stem default-y="-50.5">down</stem><lyric default-y="-95" name="verse" number="1"><syllabic>single</syllabic><text font-size="10.8">Wir</text></lyric></note><note default-x="263"><pitch><step>C</step><alter>1</alter><octave>5</octave></pitch><duration>1</duration><voice>1</voice><type>quarter</type><stem default-y="-50.5">down</stem><lyric default-y="-95" name="verse" number="1"><syllabic>begin</syllabic><text font-size="10.8">wer</text></lyric></note><note default-x="340"><pitch><step>C</step><alter>1</alter><octave>5</octave></pitch><duration>1</duration><voice>1</voice><type>quarter</type><stem default-y="-50.5">down</stem><lyric default-y="-95" name="verse" number="1"><syllabic>end</syllabic><text font-size="10.8">den</text></lyric></note></measure><!--=======================================================--><measure number="18" width="278"><print new-system="no" /><harmony default-y="29" font-size="10" font-weight="bold"><root><root-step>B</root-step></root><kind text="">major</kind></harmony><note default-x="24"><pitch><step>D</step><alter>1</alter><octave>5</octave></pitch><duration>2</duration><voice>1</voice><type>half</type><stem default-y="-45.5">down</stem><lyric default-y="-95" name="verse" number="1"><syllabic>single</syllabic><text font-size="10.8">sein</text></lyric></note><note default-x="137"><pitch><step>C</step><alter>1</alter><octave>5</octave></pitch><duration>1</duration><voice>1</voice><type>quarter</type><stem default-y="-50.5">down</stem><lyric default-y="-95" name="verse" number="1"><syllabic>single</syllabic><text font-size="10.8">wie</text></lyric></note><note default-x="207"><pitch><step>D</step><alter>1</alter><octave>5</octave></pitch><duration>1</duration><voice>1</voice><type>quarter</type><stem default-y="-45.5">down</stem><lyric default-y="-95" name="verse" number="1"><syllabic>single</syllabic><text font-size="10.8">die</text></lyric></note></measure><!--=======================================================--><measure number="19" width="251"><print new-system="no" /><harmony default-y="29" font-size="10" font-weight="bold"><root><root-step>E</root-step></root><kind text="">major</kind></harmony><note default-x="27"><pitch><step>B</step><octave>4</octave></pitch><duration>2</duration><voice>1</voice><type>half</type><stem default-y="-55">down</stem><lyric default-y="-95" name="verse" number="1"><syllabic>begin</syllabic><text font-size="10.8">Träu</text></lyric></note><harmony default-y="29" font-size="10" font-weight="bold"><root><root-step>B</root-step></root><kind text="">major</kind><bass><bass-step>D</bass-step><bass-alter>1</bass-alter></bass></harmony><note default-x="139"><pitch><step>B</step><octave>4</octave></pitch><duration>2</duration><voice>1</voice><type>half</type><stem default-y="-55">down</stem><lyric default-y="-95" name="verse" number="1"><syllabic>middle</syllabic><text font-size="10.8">men</text></lyric></note></measure><!--=======================================================--><measure number="20" width="206"><print new-system="no" /><harmony default-y="29" font-size="10" font-weight="bold"><root><root-step>C</root-step><root-alter>1</root-alter></root><kind text="m">minor</kind></harmony><note default-x="25"><pitch><step>C</step><alter>1</alter><octave>5</octave></pitch><duration>4</duration><voice>1</voice><type>whole</type><lyric default-y="-95" name="verse" number="1"><syllabic>end</syllabic><text font-size="10.8">den,</text></lyric></note></measure><!--=======================================================--><measure number="21" width="444"><print new-page="yes" page-number="2" /><harmony default-y="29" font-size="10" font-weight="bold"><root><root-step>F</root-step><root-alter>1</root-alter></root><kind text="m">minor</kind></harmony><note default-x="121"><rest /><duration>1</duration><voice>1</voice><type>quarter</type></note><note default-x="202"><pitch><step>A</step><octave>4</octave></pitch><duration>1</duration><voice>1</voice><type>quarter</type><stem default-y="11">up</stem><lyric default-y="-95" name="verse" number="1"><syllabic>single</syllabic><text font-size="10.8">die</text></lyric></note><note default-x="282"><pitch><step>A</step><octave>4</octave></pitch><duration>1</duration><voice>1</voice><type>quarter</type><stem default-y="11">up</stem><lyric default-y="-95" name="verse" number="1"><syllabic>single</syllabic><text font-size="10.8">noch</text></lyric></note><note default-x="362"><pitch><step>A</step><octave>4</octave></pitch><duration>1</duration><voice>1</voice><type>quarter</type><stem default-y="11">up</stem><lyric default-y="-95" name="verse" number="1"><syllabic>single</syllabic><text font-size="10.8">nicht</text></lyric></note></measure><!--=======================================================--><measure number="22" width="330"><print new-system="no" /><harmony default-y="29" font-size="10" font-weight="bold"><root><root-step>B</root-step></root><kind text="">major</kind></harmony><note default-x="19"><pitch><step>B</step><octave>4</octave></pitch><duration>1</duration><voice>1</voice><type>quarter</type><stem default-y="-55.5">down</stem><lyric default-y="-95" name="verse" number="1"><syllabic>begin</syllabic><text font-size="10.8">fas</text></lyric></note><note default-x="96"><pitch><step>C</step><alter>1</alter><octave>5</octave></pitch><duration>1</duration><voice>1</voice><type>quarter</type><stem default-y="-51">down</stem><lyric default-y="-95" name="verse" number="1"><syllabic>end</syllabic><text font-size="10.8">sen,</text></lyric></note><note default-x="174"><pitch><step>B</step><octave>4</octave></pitch><duration>1</duration><voice>1</voice><type>quarter</type><stem default-y="-55.5">down</stem><lyric default-y="-95" name="verse" number="1"><syllabic>single</syllabic><text font-size="10.8">was</text></lyric></note><note default-x="251"><pitch><step>A</step><octave>4</octave></pitch><duration>1</duration><voice>1</voice><type>quarter</type><stem default-y="11">up</stem><lyric default-y="-95" name="verse" number="1"><syllabic>single</syllabic><text font-size="10.8">sie</text></lyric></note></measure><!--=======================================================--><measure number="23" width="200"><print new-system="no" /><harmony default-y="29" font-size="10" font-weight="bold"><root><root-step>G</root-step><root-alter>1</root-alter></root><kind text="">major</kind></harmony><note default-x="31"><pitch><step>G</step><alter>1</alter><octave>4</octave></pitch><duration>4</duration><tie type="start" /><voice>1</voice><type>whole</type><notations><tied type="start" /></notations><lyric default-y="-95" name="verse" number="1"><syllabic>single</syllabic><text font-size="10.8">sehn.</text><extend /></lyric></note></measure><!--=======================================================--><measure number="24" width="178"><print new-system="no" /><harmony default-y="29" font-size="10" font-weight="bold"><root><root-step>E</root-step></root><kind text="7">dominant</kind></harmony><note default-x="17"><pitch><step>G</step><alter>1</alter><octave>4</octave></pitch><duration>4</duration><tie type="stop" /><voice>1</voice><type>whole</type><notations><tied type="stop" /></notations></note></measure><!--=======================================================--><measure number="25" width="417"><print new-system="yes"><system-layout><system-distance>184</system-distance></system-layout></print><harmony default-y="29" font-size="10" font-weight="bold"><root><root-step>A</root-step></root><kind text="">major</kind></harmony><note default-x="111"><rest /><duration>1</duration><voice>1</voice><type>quarter</type></note><note default-x="187"><pitch><step>C</step><alter>1</alter><octave>5</octave></pitch><duration>1</duration><voice>1</voice><type>quarter</type><stem default-y="-51">down</stem><lyric default-y="-95" name="verse" number="1"><syllabic>single</syllabic><text font-size="10.8">Wir</text></lyric></note><note default-x="263"><pitch><step>C</step><alter>1</alter><octave>5</octave></pitch><duration>1</duration><voice>1</voice><type>quarter</type><stem default-y="-51">down</stem><lyric default-y="-95" name="verse" number="1"><syllabic>begin</syllabic><text font-size="10.8">wer</text></lyric></note><note default-x="340"><pitch><step>C</step><alter>1</alter><octave>5</octave></pitch><duration>1</duration><voice>1</voice><type>quarter</type><stem default-y="-51">down</stem><lyric default-y="-95" name="verse" number="1"><syllabic>end</syllabic><text font-size="10.8">den</text></lyric></note></measure><!--=======================================================--><measure number="26" width="265"><print new-system="no" /><harmony default-y="29" font-size="10" font-weight="bold"><root><root-step>B</root-step></root><kind text="">major</kind></harmony><note default-x="13"><pitch><step>D</step><alter>1</alter><octave>5</octave></pitch><duration>1</duration><voice>1</voice><type>quarter</type><stem default-y="-45">down</stem><lyric default-y="-95" name="verse" number="1"><syllabic>begin</syllabic><text font-size="10.8">la</text></lyric></note><note default-x="82"><pitch><step>D</step><alter>1</alter><octave>5</octave></pitch><duration>2</duration><voice>1</voice><type>half</type><stem default-y="-45">down</stem><lyric default-y="-95" name="verse" number="1"><syllabic>end</syllabic><text font-size="10.8">chen</text></lyric></note><note default-x="194"><pitch><step>C</step><alter>1</alter><octave>5</octave></pitch><duration>1</duration><voice>1</voice><type>quarter</type><stem default-y="-51">down</stem><lyric default-y="-95" name="verse" number="1"><syllabic>single</syllabic><text font-size="10.8">und</text></lyric></note></measure><!--=======================================================--><measure number="27" width="262"><print new-system="no" /><harmony default-y="29" font-size="10" font-weight="bold"><root><root-step>E</root-step></root><kind text="">major</kind></harmony><note default-x="30"><pitch><step>B</step><octave>4</octave></pitch><duration>2</duration><voice>1</voice><type>half</type><stem default-y="-55.5">down</stem><lyric default-y="-95" name="verse" number="1"><syllabic>begin</syllabic><text font-size="10.8">glück</text></lyric></note><harmony default-y="29" font-size="10" font-weight="bold"><root><root-step>B</root-step></root><kind text="">major</kind><bass><bass-step>D</bass-step><bass-alter>1</bass-alter></bass></harmony><note default-x="145"><pitch><step>B</step><octave>4</octave></pitch><duration>2</duration><voice>1</voice><type>half</type><stem default-y="-55.5">down</stem><lyric default-y="-95" name="verse" number="1"><syllabic>end</syllabic><text font-size="10.8">lich</text></lyric></note></measure><!--=======================================================--><measure number="28" width="209"><print new-system="no" /><harmony default-y="29" font-size="10" font-weight="bold"><root><root-step>C</root-step><root-alter>1</root-alter></root><kind text="m">minor</kind></harmony><note default-x="28"><pitch><step>C</step><alter>1</alter><octave>5</octave></pitch><duration>4</duration><voice>1</voice><type>whole</type><lyric default-y="-95" name="verse" number="1"><syllabic>single</syllabic><text font-size="10.8">sein,</text></lyric></note></measure><!--=======================================================--><measure number="29" width="482"><print new-system="yes"><system-layout><system-distance>184</system-distance></system-layout></print><harmony default-y="29" font-size="10" font-weight="bold"><root><root-step>F</root-step><root-alter>1</root-alter></root><kind text="m">minor</kind></harmony><note default-x="121"><rest /><duration>1</duration><voice>1</voice><type>quarter</type></note><note default-x="211"><pitch><step>A</step><octave>4</octave></pitch><duration>1</duration><voice>1</voice><type>quarter</type><stem default-y="11">up</stem><lyric default-y="-95" name="verse" number="1"><syllabic>single</syllabic><text font-size="10.8">wenn</text></lyric></note><note default-x="301"><pitch><step>A</step><octave>4</octave></pitch><duration>1</duration><voice>1</voice><type>quarter</type><stem default-y="11">up</stem><lyric default-y="-95" name="verse" number="1"><syllabic>single</syllabic><text font-size="10.8">wir</text></lyric></note><note default-x="391"><pitch><step>A</step><octave>4</octave></pitch><duration>1</duration><voice>1</voice><type>quarter</type><stem default-y="11">up</stem><lyric default-y="-95" name="verse" number="1"><syllabic>single</syllabic><text font-size="10.8">vor</text></lyric></note></measure><!--=======================================================--><measure number="30" width="241"><print new-system="no" /><harmony default-y="29" font-size="10" font-weight="bold"><root><root-step>B</root-step></root><kind text="">major</kind></harmony><note default-x="15"><pitch><step>G</step><alter>1</alter><octave>4</octave></pitch><duration>2</duration><voice>1</voice><type>half</type><stem default-y="6">up</stem><lyric default-y="-95" name="verse" number="1"><syllabic>begin</syllabic><text font-size="10.8">Je</text></lyric></note><note default-x="128"><pitch><step>F</step><alter>1</alter><octave>4</octave></pitch><duration>2</duration><voice>1</voice><type>half</type><stem default-y="1">up</stem><lyric default-y="-95" name="verse" number="1"><syllabic>end</syllabic><text font-size="10.8">sus</text></lyric></note></measure><!--=======================================================--><measure number="31" width="237"><print new-system="no" /><harmony default-y="29" font-size="10" font-weight="bold"><root><root-step>E</root-step></root><kind text="">major</kind></harmony><note default-x="35"><pitch><step>E</step><octave>4</octave></pitch><duration>4</duration><tie type="start" /><voice>1</voice><type>whole</type><notations><tied type="start" /></notations><lyric default-y="-95" name="verse" number="1"><syllabic>single</syllabic><text font-size="10.8">stehn.</text><extend /></lyric></note></measure><!--=======================================================--><measure number="32" width="192"><print new-system="no" /><note default-x="10"><pitch><step>E</step><octave>4</octave></pitch><duration>4</duration><tie type="stop" /><voice>1</voice><type>whole</type><notations><tied type="stop" /></notations></note><barline location="right"><bar-style>light-heavy</bar-style></barline></measure></part><!--=========================================================--></score-partwise>