<?xml version="1.0" encoding="UTF-8" standalone="no"?><!DOCTYPE score-partwise PUBLIC "-//Recordare//DTD MusicXML 3.0 Partwise//EN" "http://www.musicxml.org/dtds/partwise.dtd"[]><score-partwise version="3.0"><movement-title>Wunderbarer Hirt</movement-title><identification><creator type="composer">Lothar Kosse</creator><encoding><software>Finale 2014 for Windows</software><software>Dolet Light for Finale 2014</software><encoding-date>2016-12-22</encoding-date><supports attribute="new-system" element="print" type="yes" value="yes" /><supports attribute="new-page" element="print" type="yes" value="yes" /><supports element="accidental" type="yes" /><supports element="beam" type="yes" /><supports element="stem" type="yes" /></encoding><rights>CCLI-Liednummer 4684723
© 2004 Praize Republic
Nutzung ausschließlich im Rahmen der SongSelect®-Nutzungsbedingungen. Alle Rechte vorbehalten. www.ccli.com
CCLI-Lizenznummer 2182334
</rights></identification><defaults><scaling><millimeters>6.5088</millimeters><tenths>40</tenths></scaling><page-layout><page-height>1717</page-height><page-width>1327</page-width><page-margins type="both"><left-margin>78</left-margin><right-margin>78</right-margin><top-margin>78</top-margin><bottom-margin>78</bottom-margin></page-margins></page-layout><system-layout><system-margins><left-margin>0</left-margin><right-margin>0</right-margin></system-margins><system-distance>190</system-distance><top-system-distance>117</top-system-distance></system-layout><appearance><line-width type="stem">1.4583</line-width><line-width type="beam">5</line-width><line-width type="staff">1.25</line-width><line-width type="light barline">1.4583</line-width><line-width type="heavy barline">5</line-width><line-width type="leger">1.875</line-width><line-width type="ending">1.4583</line-width><line-width type="wedge">1.4583</line-width><line-width type="enclosure">1.4583</line-width><line-width type="tuplet bracket">1.4583</line-width><note-size type="grace">50</note-size><note-size type="cue">50</note-size><distance type="hyphen">240</distance><distance type="beam">8</distance></appearance><music-font font-family="Maestro,engraved" font-size="18.5" /><word-font font-family="Arial" font-size="9.2" /><lyric-font font-family="Arial" font-size="10.8" name="verse" /><lyric-font font-family="Arial" font-size="10.8" name="section" /></defaults><credit page="1"><credit-type>title</credit-type><credit-words default-x="663" default-y="1649" font-size="21.6" font-weight="bold" justify="center" valign="top">Wunderbarer Hirt</credit-words></credit><credit page="1"><credit-words default-x="1249" default-y="1576" font-size="10.8" font-style="italic" justify="right" valign="top">Text und Musik:</credit-words></credit><credit page="1"><credit-type>composer</credit-type><credit-words default-x="1249" default-y="1552" font-size="10.8" font-weight="bold" justify="right" valign="top">Lothar Kosse</credit-words></credit><credit page="2"><credit-type>title</credit-type><credit-type>page number</credit-type><credit-words default-x="663" default-y="1663" font-size="10.8" justify="center" valign="top">Wunderbarer Hirt - 2</credit-words></credit><part-list><score-part id="P1"><part-name print-object="no">Vocals</part-name><score-instrument id="P1-I2"><instrument-name>Melody</instrument-name></score-instrument><midi-instrument id="P1-I2"><midi-channel>1</midi-channel><midi-program>1</midi-program><volume>80</volume><pan>0</pan></midi-instrument></score-part></part-list><!--=========================================================--><part id="P1"><measure implicit="yes" number="0" width="278"><print page-number="1"><page-layout><page-height>1717</page-height><page-width>1327</page-width><page-margins><left-margin>78</left-margin><right-margin>78</right-margin><top-margin>190</top-margin><bottom-margin>163</bottom-margin></page-margins></page-layout><system-layout><system-margins><left-margin>68</left-margin><right-margin>0</right-margin></system-margins></system-layout><measure-numbering>system</measure-numbering></print><attributes><divisions>8</divisions><key><fifths>1</fifths><mode>major</mode></key><time><beats>4</beats><beat-type>4</beat-type></time><clef><sign>G</sign><line>2</line></clef></attributes><sound tempo="96" /><note default-x="109"><pitch><step>D</step><octave>4</octave></pitch><duration>2</duration><voice>1</voice><type>16th</type><stem default-y="1">up</stem><beam number="1">begin</beam><beam number="2">begin</beam><lyric default-y="-91" name="verse" number="1"><syllabic>single</syllabic><text font-size="10.8">1.</text><elision> </elision><syllabic>single</syllabic><text font-size="10.8">Du</text><elision> </elision><syllabic>single</syllabic><text font-size="10.8" /><elision> </elision><syllabic>single</syllabic><text font-size="10.8" /></lyric><lyric default-y="-115" name="verse" number="2" relative-x="-4"><syllabic>single</syllabic><text font-size="10.8">(2.</text><elision> </elision><syllabic>single</syllabic><text font-size="10.8">Du</text><elision> </elision><syllabic>single</syllabic><text font-size="10.8" /><elision> </elision><syllabic>single</syllabic><text font-size="10.8" /></lyric><lyric default-y="-140" name="verse" number="3" relative-x="-4"><syllabic>single</syllabic><text font-size="10.8">(3.</text><elision> </elision><syllabic>single</syllabic><text font-size="10.8">Du</text><elision> </elision><syllabic>single</syllabic><text font-size="10.8" /><elision> </elision><syllabic>single</syllabic><text font-size="10.8" /></lyric></note><note default-x="167"><pitch><step>G</step><octave>4</octave></pitch><duration>2</duration><voice>1</voice><type>16th</type><stem default-y="4">up</stem><beam number="1">continue</beam><beam number="2">continue</beam><lyric default-y="-91" name="verse" number="1"><syllabic>single</syllabic><text font-size="10.8">bist</text></lyric><lyric default-y="-115" name="verse" number="2"><syllabic>single</syllabic><text font-size="10.8">bist</text></lyric><lyric default-y="-140" name="verse" number="3"><syllabic>single</syllabic><text font-size="10.8">hast</text></lyric></note><note default-x="233"><pitch><step>A</step><octave>4</octave></pitch><duration>2</duration><voice>1</voice><type>16th</type><stem default-y="6">up</stem><beam number="1">end</beam><beam number="2">end</beam><lyric default-y="-91" name="verse" number="1"><syllabic>single</syllabic><text font-size="10.8">ein</text></lyric><lyric default-y="-115" name="verse" number="2" relative-x="4"><syllabic>single</syllabic><text font-size="10.8">mein)</text></lyric><lyric default-y="-140" name="verse" number="3" relative-x="4"><syllabic>single</syllabic><text font-size="10.8">mein)</text></lyric></note></measure><!--=======================================================--><measure number="1" width="473"><barline location="left"><bar-style>heavy-light</bar-style><repeat direction="forward" winged="none" /></barline><direction placement="above"><direction-type><segno default-x="9" default-y="56" /></direction-type><sound divisions="8" segno="2" /></direction><harmony default-y="36" font-size="10" font-weight="bold"><root><root-step>G</root-step></root><kind halign="center" text="">major</kind></harmony><direction placement="above"><direction-type><rehearsal default-y="69" font-weight="bold" relative-x="15">VERS</rehearsal></direction-type></direction><note default-x="41"><pitch><step>B</step><octave>4</octave></pitch><duration>8</duration><voice>1</voice><type>quarter</type><stem default-y="-52">down</stem><lyric default-y="-91" name="verse" number="1"><syllabic>begin</syllabic><text font-size="10.8">wun</text></lyric><lyric default-y="-115" name="verse" number="2"><syllabic>begin</syllabic><text font-size="10.8">Ste</text></lyric><lyric default-y="-140" name="verse" number="3"><syllabic>single</syllabic><text font-size="10.8">Haupt</text></lyric></note><harmony default-y="36" font-size="10" font-weight="bold"><root><root-step>D</root-step></root><kind halign="center" text="">major</kind><bass><bass-step>F</bass-step><bass-alter>1</bass-alter></bass></harmony><note default-x="127"><pitch><step>A</step><octave>4</octave></pitch><duration>8</duration><voice>1</voice><type>quarter</type><stem default-y="7">up</stem><lyric default-y="-91" name="verse" number="1"><syllabic>middle</syllabic><text font-size="10.8">der</text></lyric><lyric default-y="-115" name="verse" number="2"><syllabic>end</syllabic><text font-size="10.8">cken</text></lyric><lyric default-y="-140" name="verse" number="3"><syllabic>begin</syllabic><text font-size="10.8">ge</text></lyric></note><harmony default-y="36" font-size="10" font-weight="bold"><root><root-step>E</root-step></root><kind halign="center" text="m">minor</kind></harmony><note default-x="213"><pitch><step>G</step><octave>4</octave></pitch><duration>8</duration><voice>1</voice><type>quarter</type><stem default-y="2">up</stem><lyric default-y="-91" name="verse" number="1"><syllabic>middle</syllabic><text font-size="10.8">ba</text></lyric><lyric default-y="-115" name="verse" number="2"><syllabic>single</syllabic><text font-size="10.8">und</text></lyric><lyric default-y="-140" name="verse" number="3"><syllabic>end</syllabic><text font-size="10.8">salbt</text></lyric></note><harmony default-y="36" font-size="10" font-weight="bold"><root><root-step>D</root-step></root><kind halign="center" text="">major</kind></harmony><note default-x="300"><pitch><step>F</step><alter>1</alter><octave>4</octave></pitch><duration>4</duration><voice>1</voice><type>eighth</type><stem default-y="-4">up</stem><beam number="1">begin</beam><lyric default-y="-91" name="verse" number="1"><syllabic>end</syllabic><text font-size="10.8">rer</text></lyric><lyric default-y="-115" name="verse" number="2"><syllabic>single</syllabic><text font-size="10.8">mein</text></lyric><lyric default-y="-140" name="verse" number="3"><syllabic>single</syllabic><text font-size="10.8">mit</text></lyric></note><note default-x="386"><pitch><step>E</step><octave>4</octave></pitch><duration>4</duration><tie type="start" /><voice>1</voice><type>eighth</type><stem default-y="-8.5">up</stem><beam number="1">end</beam><notations><tied type="start" /></notations><lyric default-y="-91" name="verse" number="1"><syllabic>single</syllabic><text font-size="10.8">Hirt,</text><extend type="start" /></lyric><lyric default-y="-115" name="verse" number="2"><syllabic>single</syllabic><text font-size="10.8">Stab.</text><extend type="start" /></lyric><lyric default-y="-140" name="verse" number="3"><syllabic>single</syllabic><text font-size="10.8">Öl,</text><extend type="start" /></lyric></note></measure><!--=======================================================--><measure number="2" width="352"><harmony default-y="36" font-size="10" font-weight="bold"><root><root-step>C</root-step></root><kind halign="center" text="">major</kind></harmony><note default-x="13"><pitch><step>E</step><octave>4</octave></pitch><duration>24</duration><tie type="stop" /><voice>1</voice><type>half</type><dot /><stem default-y="-8">up</stem><notations><tied type="stop" /></notations><lyric name="verse" number="1"><extend type="stop" /></lyric><lyric name="verse" number="2"><extend type="stop" /></lyric><lyric name="verse" number="3"><extend type="stop" /></lyric></note><note default-x="80"><rest /><duration>2</duration><voice>1</voice><type>16th</type></note><note default-x="148"><pitch><step>D</step><octave>4</octave></pitch><duration>2</duration><voice>1</voice><type>16th</type><stem default-y="1">up</stem><beam number="1">begin</beam><beam number="2">begin</beam><lyric default-y="-91" name="verse" number="1"><syllabic>single</syllabic><text font-size="10.8">der</text></lyric><lyric default-y="-115" name="verse" number="2"><syllabic>single</syllabic><text font-size="10.8">Und</text></lyric><lyric default-y="-140" name="verse" number="3"><syllabic>single</syllabic><text font-size="10.8">den</text></lyric></note><note default-x="215"><pitch><step>G</step><octave>4</octave></pitch><duration>2</duration><voice>1</voice><type>16th</type><stem default-y="4">up</stem><beam number="1">continue</beam><beam number="2">continue</beam><lyric default-y="-91" name="verse" number="1"><syllabic>single</syllabic><text font-size="10.8">mich</text></lyric><lyric default-y="-115" name="verse" number="2"><syllabic>begin</syllabic><text font-size="10.8">wan</text></lyric><lyric default-y="-140" name="verse" number="3"><syllabic>begin</syllabic><text font-size="10.8">Be</text></lyric></note><note default-x="283"><pitch><step>A</step><octave>4</octave></pitch><duration>2</duration><voice>1</voice><type>16th</type><stem default-y="6">up</stem><beam number="1">end</beam><beam number="2">end</beam><lyric default-y="-91" name="verse" number="1"><syllabic>single</syllabic><text font-size="10.8">zu</text></lyric><lyric default-y="-115" name="verse" number="2"><syllabic>end</syllabic><text font-size="10.8">dre</text></lyric><lyric default-y="-140" name="verse" number="3"><syllabic>end</syllabic><text font-size="10.8">cher</text></lyric></note></measure><!--=======================================================--><measure number="3" width="462"><print new-system="yes"><system-layout><system-distance>200</system-distance></system-layout></print><harmony default-y="36" font-size="10" font-weight="bold"><root><root-step>G</root-step></root><kind halign="center" text="">major</kind></harmony><note default-x="76"><pitch><step>B</step><octave>4</octave></pitch><duration>8</duration><voice>1</voice><type>quarter</type><stem default-y="-52">down</stem><lyric default-y="-91" name="verse" number="1"><syllabic>begin</syllabic><text font-size="10.8">fri</text></lyric><lyric default-y="-115" name="verse" number="2"><syllabic>single</syllabic><text font-size="10.8">ich</text></lyric><lyric default-y="-140" name="verse" number="3"><syllabic>single</syllabic><text font-size="10.8">bis</text></lyric></note><harmony default-y="36" font-size="10" font-weight="bold"><root><root-step>D</root-step></root><kind halign="center" text="">major</kind><bass><bass-step>F</bass-step><bass-alter>1</bass-alter></bass></harmony><note default-x="153"><pitch><step>A</step><octave>4</octave></pitch><duration>8</duration><voice>1</voice><type>quarter</type><stem default-y="7">up</stem><lyric default-y="-91" name="verse" number="1"><syllabic>end</syllabic><text font-size="10.8">schem</text></lyric><lyric default-y="-115" name="verse" number="2"><syllabic>single</syllabic><text font-size="10.8">im</text></lyric><lyric default-y="-140" name="verse" number="3"><syllabic>single</syllabic><text font-size="10.8">zum</text></lyric></note><harmony default-y="36" font-size="10" font-weight="bold"><root><root-step>E</root-step></root><kind halign="center" text="m">minor</kind></harmony><note default-x="232"><pitch><step>G</step><octave>4</octave></pitch><duration>8</duration><voice>1</voice><type>quarter</type><stem default-y="2">up</stem><lyric default-y="-91" name="verse" number="1"><syllabic>begin</syllabic><text font-size="10.8">Was</text></lyric><lyric default-y="-115" name="verse" number="2"><syllabic>begin</syllabic><text font-size="10.8">fins</text></lyric><lyric default-y="-140" name="verse" number="3"><syllabic>single</syllabic><text font-size="10.8">Rand</text></lyric></note><harmony default-y="36" font-size="10" font-weight="bold"><root><root-step>D</root-step></root><kind halign="center" text="">major</kind></harmony><note default-x="309"><pitch><step>F</step><alter>1</alter><octave>4</octave></pitch><duration>4</duration><voice>1</voice><type>eighth</type><stem default-y="-4">up</stem><beam number="1">begin</beam><lyric default-y="-91" name="verse" number="1"><syllabic>end</syllabic><text font-size="10.8">ser</text></lyric><lyric default-y="-115" name="verse" number="2"><syllabic>end</syllabic><text font-size="10.8">tren</text></lyric><lyric default-y="-140" name="verse" number="3"><syllabic>begin</syllabic><text font-size="10.8">ge</text></lyric></note><note default-x="385"><pitch><step>E</step><octave>4</octave></pitch><duration>4</duration><tie type="start" /><voice>1</voice><type>eighth</type><stem default-y="-8.5">up</stem><beam number="1">end</beam><notations><tied type="start" /></notations><lyric default-y="-91" name="verse" number="1"><syllabic>single</syllabic><text font-size="10.8">führt.</text><extend type="start" /></lyric><lyric default-y="-115" name="verse" number="2"><syllabic>single</syllabic><text font-size="10.8">Tal,</text><extend type="start" /></lyric><lyric default-y="-140" name="verse" number="3"><syllabic>end</syllabic><text font-size="10.8">füllt.</text><extend type="start" /></lyric></note></measure><!--=======================================================--><measure number="4" width="320"><harmony default-y="36" font-size="10" font-weight="bold"><root><root-step>C</root-step></root><kind halign="center" text="">major</kind></harmony><note default-x="12"><pitch><step>E</step><octave>4</octave></pitch><duration>24</duration><tie type="stop" /><voice>1</voice><type>half</type><dot /><stem default-y="-8">up</stem><notations><tied type="stop" /></notations><lyric name="verse" number="1"><extend type="stop" /></lyric><lyric name="verse" number="2"><extend type="stop" /></lyric><lyric name="verse" number="3"><extend type="stop" /></lyric></note><note default-x="69"><rest /><duration>2</duration><voice>1</voice><type>16th</type></note><note default-x="125"><pitch><step>E</step><octave>4</octave></pitch><duration>2</duration><voice>1</voice><type>16th</type><stem default-y="6">up</stem><beam number="1">begin</beam><beam number="2">begin</beam><lyric default-y="-91" name="verse" number="1"><syllabic>single</syllabic><text font-size="10.8">Du</text></lyric><lyric default-y="-115" name="verse" number="2"><syllabic>single</syllabic><text font-size="10.8">fürcht</text></lyric></note><note default-x="195"><pitch><step>A</step><octave>4</octave></pitch><duration>2</duration><voice>1</voice><type>16th</type><stem default-y="9">up</stem><beam number="1">continue</beam><beam number="2">continue</beam><lyric default-y="-91" name="verse" number="1"><syllabic>single</syllabic><text font-size="10.8">hast</text></lyric><lyric default-y="-115" name="verse" number="2"><syllabic>single</syllabic><text font-size="10.8">ich</text></lyric></note><note default-x="260"><pitch><step>B</step><octave>4</octave></pitch><duration>2</duration><voice>1</voice><type>16th</type><stem default-y="11.5">up</stem><beam number="1">end</beam><beam number="2">end</beam><lyric default-y="-91" name="verse" number="1"><syllabic>single</syllabic><text font-size="10.8">so</text></lyric><lyric default-y="-115" name="verse" number="2"><syllabic>single</syllabic><text font-size="10.8">kein</text></lyric><lyric default-y="-140" name="verse" number="3"><syllabic>single</syllabic><text font-size="10.8">An</text></lyric></note></measure><!--=======================================================--><measure number="5" width="389"><harmony default-y="36" font-size="10" font-weight="bold"><root><root-step>A</root-step></root><kind halign="center" text="m">minor</kind></harmony><note default-x="23"><pitch><step>C</step><octave>5</octave></pitch><duration>8</duration><voice>1</voice><type>quarter</type><stem default-y="-46.5">down</stem><lyric default-y="-91" name="verse" number="1"><syllabic>single</syllabic><text font-size="10.8">reich</text></lyric><lyric default-y="-115" name="verse" number="2"><syllabic>begin</syllabic><text font-size="10.8">Un</text></lyric><lyric default-y="-140" name="verse" number="3"><syllabic>begin</syllabic><text font-size="10.8">dei</text></lyric></note><note default-x="86"><pitch><step>B</step><octave>4</octave></pitch><duration>4</duration><voice>1</voice><type>eighth</type><stem default-y="11.5">up</stem><beam number="1">begin</beam><lyric default-y="-91" name="verse" number="1"><syllabic>begin</syllabic><text font-size="10.8">ge</text></lyric><lyric default-y="-115" name="verse" number="2"><syllabic>end</syllabic><text font-size="10.8">heil</text></lyric><lyric default-y="-140" name="verse" number="3"><syllabic>end</syllabic><text font-size="10.8">ner</text></lyric></note><note default-x="151"><pitch><step>A</step><octave>4</octave></pitch><duration>4</duration><tie type="start" /><voice>1</voice><type>eighth</type><stem default-y="6">up</stem><beam number="1">end</beam><notations><tied type="start" /></notations><lyric default-y="-91" name="verse" number="1"><syllabic>end</syllabic><text font-size="10.8">deckt</text><extend type="start" /></lyric><lyric default-y="-115" name="verse" number="2"><syllabic>single</syllabic><text font-size="10.8">mehr,</text><extend type="start" /></lyric><lyric default-y="-140" name="verse" number="3"><syllabic>single</syllabic><text font-size="10.8">Hand</text><extend type="start" /></lyric></note><harmony default-y="36" font-size="10" font-weight="bold"><root><root-step>D</root-step></root><kind halign="center" text="">major</kind></harmony><note default-x="209"><pitch><step>A</step><octave>4</octave></pitch><duration>8</duration><tie type="stop" /><voice>1</voice><type>quarter</type><stem default-y="7">up</stem><notations><tied type="stop" /></notations><lyric name="verse" number="1"><extend type="stop" /></lyric><lyric name="verse" number="2"><extend type="stop" /></lyric><lyric name="verse" number="3"><extend type="stop" /></lyric></note><note default-x="267"><rest /><duration>6</duration><voice>1</voice><type>eighth</type><dot /></note><note default-x="327"><pitch><step>A</step><octave>4</octave></pitch><duration>2</duration><voice>1</voice><type>16th</type><stem default-y="7">up</stem><lyric default-y="-91" name="verse" number="1"><syllabic>single</syllabic><text font-size="10.8">des</text></lyric><lyric default-y="-115" name="verse" number="2"><syllabic>single</syllabic><text font-size="10.8">denn</text></lyric><lyric default-y="-140" name="verse" number="3"><syllabic>single</syllabic><text font-size="10.8">wird</text></lyric></note></measure><!--=======================================================--><measure number="6" width="485"><print new-system="yes"><system-layout><system-distance>200</system-distance></system-layout></print><harmony default-y="36" font-size="10" font-weight="bold"><root><root-step>G</root-step></root><kind halign="center" text="">major</kind><bass><bass-step>B</bass-step></bass></harmony><note default-x="79"><pitch><step>B</step><octave>4</octave></pitch><duration>8</duration><voice>1</voice><type>quarter</type><stem default-y="-52">down</stem><lyric default-y="-91" name="verse" number="1"><syllabic>begin</syllabic><text font-size="10.8">Kö</text></lyric><lyric default-y="-115" name="verse" number="2"><syllabic>single</syllabic><text font-size="10.8">du</text></lyric><lyric default-y="-140" name="verse" number="3"><syllabic>begin</syllabic><text font-size="10.8">mei</text></lyric></note><note default-x="146"><pitch><step>G</step><octave>4</octave></pitch><duration>4</duration><voice>1</voice><type>eighth</type><stem default-y="1">up</stem><beam number="1">begin</beam><lyric default-y="-91" name="verse" number="1"><syllabic>end</syllabic><text font-size="10.8">nigs</text></lyric><lyric default-y="-115" name="verse" number="2"><syllabic>single</syllabic><text font-size="10.8">bist</text></lyric><lyric default-y="-140" name="verse" number="3"><syllabic>end</syllabic><text font-size="10.8">ne</text></lyric></note><note default-x="214"><pitch><step>E</step><octave>4</octave></pitch><duration>4</duration><tie type="start" /><voice>1</voice><type>eighth</type><stem default-y="-4">up</stem><beam number="1">end</beam><notations><tied type="start" /></notations><lyric default-y="-91" name="verse" number="1"><syllabic>single</syllabic><text font-size="10.8">Tisch</text><extend type="start" /></lyric><lyric default-y="-115" name="verse" number="2"><syllabic>single</syllabic><text font-size="10.8">hier</text><extend type="start" /></lyric><lyric default-y="-140" name="verse" number="3"><syllabic>begin</syllabic><text font-size="10.8">See</text></lyric></note><harmony default-y="36" font-size="10" font-weight="bold"><root><root-step>C</root-step></root><kind halign="center" text="">major</kind></harmony><note default-x="281"><pitch><step>E</step><octave>4</octave></pitch><duration>8</duration><tie type="stop" /><voice>1</voice><type>quarter</type><stem default-y="-8">up</stem><notations><tied type="stop" /></notations><lyric name="verse" number="1"><extend type="stop" /></lyric><lyric name="verse" number="2"><extend type="stop" /></lyric></note><note default-x="348"><pitch><step>G</step><octave>4</octave></pitch><duration>4</duration><voice>1</voice><type>eighth</type><stem default-y="1">up</stem><beam number="1">begin</beam><lyric default-y="-91" name="verse" number="1"><syllabic>single</syllabic><text font-size="10.8">für</text></lyric><lyric default-y="-115" name="verse" number="2"><syllabic>single</syllabic><text font-size="10.8">bei</text></lyric><lyric default-y="-140" name="verse" number="3"><syllabic>end</syllabic><text font-size="10.8">le</text></lyric></note><note default-x="416"><pitch><step>A</step><octave>4</octave></pitch><duration>4</duration><tie type="start" /><voice>1</voice><type>eighth</type><stem default-y="6">up</stem><beam number="1">end</beam><notations><tied type="start" /></notations><lyric default-y="-91" name="verse" number="1"><syllabic>single</syllabic><text font-size="10.8">mich,</text><extend type="start" /></lyric><lyric default-y="-115" name="verse" number="2"><syllabic>single</syllabic><text font-size="10.8">mir,</text><extend type="start" /></lyric><lyric default-y="-140" name="verse" number="3"><syllabic>single</syllabic><text font-size="10.8">still,</text><extend type="start" /></lyric></note></measure><!--=======================================================--><measure number="7" width="209"><harmony default-y="36" font-size="10" font-weight="bold"><root><root-step>A</root-step></root><kind halign="center" text="m">minor</kind></harmony><note default-x="23"><pitch><step>A</step><octave>4</octave></pitch><duration>24</duration><tie type="stop" /><voice>1</voice><type>half</type><dot /><stem default-y="7">up</stem><notations><tied type="stop" /></notations><lyric name="verse" number="1"><extend type="stop" /></lyric><lyric name="verse" number="2"><extend type="stop" /></lyric><lyric name="verse" number="3"><extend type="stop" /></lyric></note><note default-x="85"><pitch><step>B</step><octave>4</octave></pitch><duration>4</duration><voice>1</voice><type>eighth</type><stem default-y="11.5">up</stem><beam number="1">begin</beam><notations><slur number="1" placement="below" type="start" /></notations><lyric default-y="-91" name="verse" number="1"><syllabic>single</syllabic><text font-size="10.8">für</text><extend type="start" /></lyric><lyric default-y="-115" name="verse" number="2"><syllabic>single</syllabic><text font-size="10.8">bei</text><extend type="start" /></lyric><lyric default-y="-140" name="verse" number="3"><syllabic>single</syllabic><text font-size="10.8">sie</text></lyric></note><note default-x="146"><pitch><step>A</step><octave>4</octave></pitch><duration>4</duration><tie type="start" /><voice>1</voice><type>eighth</type><stem default-y="6">up</stem><beam number="1">end</beam><notations><tied type="start" /></notations><lyric default-y="-140" name="verse" number="3"><syllabic>single</syllabic><text font-size="10.8">wird</text><extend type="start" /></lyric></note></measure><!--=======================================================--><measure number="8" width="476"><barline location="left"><ending default-y="71" end-length="71" font-size="6.2" number="1" type="start" /></barline><harmony default-y="36" font-size="10" font-weight="bold"><root><root-step>D</root-step></root><kind halign="center" text="">major</kind></harmony><note default-x="12"><pitch><step>A</step><octave>4</octave></pitch><duration>4</duration><tie type="stop" /><voice>1</voice><type>eighth</type><stem default-y="7">up</stem><notations><tied type="stop" /><slur number="1" type="stop" /></notations><lyric name="verse" number="1"><extend type="stop" /></lyric><lyric name="verse" number="2"><extend type="stop" /></lyric><lyric name="verse" number="3"><extend type="stop" /></lyric></note><forward><duration>12</duration><voice>1</voice></forward><forward><duration>8</duration><voice>1</voice></forward><note default-x="191"><rest /><duration>2</duration><voice>1</voice><type>16th</type></note><note default-x="251"><pitch><step>D</step><octave>4</octave></pitch><duration>2</duration><voice>1</voice><type>16th</type><stem default-y="1">up</stem><beam number="1">begin</beam><beam number="2">begin</beam><lyric default-y="-91" name="verse" number="1"><syllabic>single</syllabic><text font-size="10.8">2.</text><elision> </elision><syllabic>single</syllabic><text font-size="10.8">Du</text><elision> </elision><syllabic>single</syllabic><text font-size="10.8" /><elision> </elision><syllabic>single</syllabic><text font-size="10.8" /></lyric></note><note default-x="325"><pitch><step>G</step><octave>4</octave></pitch><duration>2</duration><voice>1</voice><type>16th</type><stem default-y="4">up</stem><beam number="1">continue</beam><beam number="2">continue</beam><lyric default-y="-91" name="verse" number="1"><syllabic>single</syllabic><text font-size="10.8">bist</text></lyric></note><note default-x="393"><pitch><step>A</step><octave>4</octave></pitch><duration>2</duration><voice>1</voice><type>16th</type><stem default-y="6">up</stem><beam number="1">end</beam><beam number="2">end</beam><lyric default-y="-91" name="verse" number="1"><syllabic>single</syllabic><text font-size="10.8">mein</text></lyric></note><backup><duration>32</duration></backup><forward><duration>4</duration><voice>2</voice></forward><note default-x="72"><pitch><step>A</step><octave>4</octave></pitch><duration>12</duration><tie type="start" /><voice>2</voice><type>quarter</type><dot /><stem default-y="7">up</stem><notations><tied orientation="under" type="start" /></notations><lyric default-y="-91" name="verse" number="1"><syllabic>single</syllabic><text font-size="10.8">mich.</text><extend type="start" /></lyric></note><note default-x="132"><pitch><step>A</step><octave>4</octave></pitch><duration>8</duration><tie type="stop" /><voice>2</voice><type>quarter</type><stem default-y="7">up</stem><notations><tied type="stop" /></notations><lyric name="verse" number="1"><extend type="stop" /></lyric></note><forward><duration>8</duration><voice>2</voice></forward><barline location="right"><bar-style>light-heavy</bar-style><ending number="1" type="stop" /><repeat direction="backward" winged="none" /></barline></measure><!--=======================================================--><measure number="9" width="354"><print new-system="yes"><system-layout><system-distance>242</system-distance></system-layout></print><barline location="left"><ending default-y="71" end-length="71" font-size="6.2" number="2, 3" type="start" /></barline><harmony default-y="36" font-size="10" font-weight="bold"><root><root-step>D</root-step></root><kind halign="center" text="">major</kind></harmony><direction placement="below"><direction-type><bracket default-y="-89" line-end="none" line-type="solid" number="1" relative-x="-22" type="start" /></direction-type></direction><direction placement="below"><direction-type><bracket line-end="none" number="1" relative-x="8" type="stop" /></direction-type></direction><direction placement="below"><direction-type><bracket default-y="-114" line-end="none" line-type="solid" number="1" relative-x="-22" type="start" /></direction-type></direction><direction placement="below"><direction-type><bracket line-end="none" number="1" relative-x="10" type="stop" /></direction-type></direction><note default-x="75"><pitch><step>A</step><octave>4</octave></pitch><duration>4</duration><voice>1</voice><type>eighth</type><stem default-y="7">up</stem><notations><slur bezier-x="8" bezier-y="-9" default-x="-25" default-y="-34" number="1" placement="below" type="start" /><slur bezier-x="-8" bezier-y="-9" default-x="3" default-y="-34" number="1" type="stop" /></notations></note><note default-x="129"><pitch><step>A</step><octave>4</octave></pitch><duration>12</duration><tie type="start" /><voice>1</voice><type>quarter</type><dot /><stem default-y="7">up</stem><notations><tied type="start" /></notations><lyric default-y="-91" name="verse" number="1"><syllabic>single</syllabic><text font-size="10.8">mir.</text><extend type="start" /></lyric><lyric default-y="-115" name="verse" number="2"><syllabic>single</syllabic><text font-size="10.8">still.</text><extend type="start" /></lyric></note><note default-x="184"><pitch><step>A</step><octave>4</octave></pitch><duration>8</duration><tie type="stop" /><voice>1</voice><type>quarter</type><stem default-y="7">up</stem><notations><tied type="stop" /></notations><lyric name="verse" number="1"><extend type="stop" /></lyric><lyric name="verse" number="2"><extend type="stop" /></lyric></note><note default-x="238"><rest /><duration>6</duration><voice>1</voice><type>eighth</type><dot /></note><note default-x="292"><pitch><step>G</step><octave>4</octave></pitch><duration>2</duration><voice>1</voice><type>16th</type><stem default-y="2">up</stem><lyric default-y="-91" name="verse" number="1"><syllabic>single</syllabic><text font-size="10.8">Ich</text></lyric></note><barline location="right"><bar-style>light-light</bar-style><ending number="2, 3" type="discontinue" /></barline></measure><!--=======================================================--><measure number="10" width="394"><harmony default-y="36" font-size="10" font-weight="bold"><root><root-step>C</root-step></root><kind halign="center" text="">major</kind><bass><bass-step>E</bass-step></bass></harmony><direction placement="above"><direction-type><rehearsal default-y="69" font-weight="bold" relative-x="-22">CHORUS</rehearsal></direction-type></direction><note default-x="26"><pitch><step>G</step><octave>4</octave></pitch><duration>8</duration><voice>1</voice><type>quarter</type><stem default-y="2">up</stem><lyric default-y="-91" name="verse" number="1"><syllabic>single</syllabic><text font-size="10.8">komm,</text></lyric></note><note default-x="87"><rest /><duration>6</duration><voice>1</voice><type>eighth</type><dot /></note><note default-x="147"><pitch><step>G</step><octave>4</octave></pitch><duration>2</duration><voice>1</voice><type>16th</type><stem default-y="2">up</stem><lyric default-y="-91" name="verse" number="1"><syllabic>single</syllabic><text font-size="10.8">ich</text></lyric></note><harmony default-y="36" font-size="10" font-weight="bold"><root><root-step>D</root-step></root><kind halign="center" text="">major</kind><bass><bass-step>F</bass-step><bass-alter>1</bass-alter></bass></harmony><note default-x="210"><pitch><step>A</step><octave>4</octave></pitch><duration>8</duration><voice>1</voice><type>quarter</type><stem default-y="7">up</stem><lyric default-y="-91" name="verse" number="1"><syllabic>single</syllabic><text font-size="10.8">komm</text></lyric></note><note default-x="271"><rest /><duration>6</duration><voice>1</voice><type>eighth</type><dot /></note><note default-x="332"><pitch><step>A</step><octave>4</octave></pitch><duration>2</duration><voice>1</voice><type>16th</type><stem default-y="7">up</stem><lyric default-y="-91" name="verse" number="1"><syllabic>single</syllabic><text font-size="10.8">an</text></lyric></note></measure><!--=======================================================--><measure number="11" width="423"><harmony default-y="36" font-size="10" font-weight="bold"><root><root-step>G</root-step></root><kind halign="center" text="">major</kind></harmony><note default-x="13"><pitch><step>B</step><octave>4</octave></pitch><duration>8</duration><voice>1</voice><type>quarter</type><stem default-y="-51.5">down</stem><lyric default-y="-91" name="verse" number="1"><syllabic>begin</syllabic><text font-size="10.8">dei</text></lyric></note><harmony default-y="36" font-size="10" font-weight="bold"><root><root-step>D</root-step></root><kind halign="center" text="">major</kind><bass><bass-step>F</bass-step><bass-alter>1</bass-alter></bass></harmony><note default-x="94"><pitch><step>A</step><octave>4</octave></pitch><duration>8</duration><voice>1</voice><type>quarter</type><stem default-y="7">up</stem><lyric default-y="-91" name="verse" number="1"><syllabic>end</syllabic><text font-size="10.8">nen</text></lyric></note><harmony default-y="36" font-size="10" font-weight="bold"><root><root-step>E</root-step></root><kind halign="center" text="m">minor</kind></harmony><note default-x="176"><pitch><step>G</step><octave>4</octave></pitch><duration>8</duration><voice>1</voice><type>quarter</type><stem default-y="2">up</stem><lyric default-y="-91" name="verse" number="1"><syllabic>single</syllabic><text font-size="10.8">Tisch!</text></lyric></note><harmony default-y="36" font-size="10" font-weight="bold"><root><root-step>D</root-step></root><kind halign="center" text="">major</kind></harmony><note default-x="258"><pitch><step>A</step><octave>4</octave></pitch><duration>4</duration><voice>1</voice><type>eighth</type><stem default-y="6.5">up</stem><beam number="1">begin</beam><lyric default-y="-91" name="verse" number="1"><syllabic>single</syllabic><text font-size="10.8">Ich</text></lyric></note><note default-x="340"><pitch><step>G</step><octave>4</octave></pitch><duration>4</duration><tie type="start" /><voice>1</voice><type>eighth</type><stem default-y="1">up</stem><beam number="1">end</beam><notations><tied type="start" /></notations><lyric default-y="-91" name="verse" number="1"><syllabic>single</syllabic><text font-size="10.8">komm,</text><extend type="start" /></lyric></note></measure><!--=======================================================--><measure number="12" width="414"><print new-system="yes"><system-layout><system-distance>180</system-distance></system-layout></print><harmony default-y="36" font-size="10" font-weight="bold"><root><root-step>C</root-step></root><kind halign="center" text="">major</kind></harmony><note default-x="73"><pitch><step>G</step><octave>4</octave></pitch><duration>8</duration><tie type="stop" /><voice>1</voice><type>quarter</type><stem default-y="2">up</stem><notations><tied type="stop" /></notations><lyric name="verse" number="1"><extend type="stop" /></lyric></note><note default-x="122"><rest /><duration>6</duration><voice>1</voice><type>eighth</type><dot /></note><note default-x="170"><pitch><step>G</step><octave>4</octave></pitch><duration>2</duration><voice>1</voice><type>16th</type><stem default-y="2">up</stem><lyric default-y="-91" name="verse" number="1"><syllabic>single</syllabic><text font-size="10.8">ich</text></lyric></note><harmony default-y="36" font-size="10" font-weight="bold"><root><root-step>D</root-step></root><kind halign="center" text="">major</kind></harmony><note default-x="237"><pitch><step>A</step><octave>4</octave></pitch><duration>12</duration><voice>1</voice><type>quarter</type><dot /><stem default-y="7">up</stem><lyric default-y="-91" name="verse" number="1"><syllabic>single</syllabic><text font-size="10.8">komm,</text></lyric></note><note default-x="308"><pitch><step>G</step><octave>4</octave></pitch><duration>2</duration><voice>1</voice><type>16th</type><stem default-y="2">up</stem><beam number="1">begin</beam><beam number="2">begin</beam><lyric default-y="-91" name="verse" number="1"><syllabic>single</syllabic><text font-size="10.8">und</text></lyric></note><note default-x="364"><pitch><step>A</step><octave>4</octave></pitch><duration>2</duration><voice>1</voice><type>16th</type><stem default-y="6.5">up</stem><beam number="1">end</beam><beam number="2">end</beam><lyric default-y="-91" name="verse" number="1"><syllabic>single</syllabic><text font-size="10.8">ich</text></lyric></note></measure><!--=======================================================--><measure number="13" width="331"><harmony default-y="36" font-size="10" font-weight="bold"><root><root-step>G</root-step></root><kind halign="center" text="">major</kind></harmony><note default-x="13"><pitch><step>B</step><octave>4</octave></pitch><duration>8</duration><voice>1</voice><type>quarter</type><stem default-y="-51.5">down</stem><lyric default-y="-91" name="verse" number="1"><syllabic>single</syllabic><text font-size="10.8">bin</text></lyric></note><harmony default-y="36" font-size="10" font-weight="bold"><root><root-step>D</root-step></root><kind halign="center" text="">major</kind><bass><bass-step>F</bass-step><bass-alter>1</bass-alter></bass></harmony><note default-x="64"><pitch><step>A</step><octave>4</octave></pitch><duration>4</duration><voice>1</voice><type>eighth</type><stem default-y="6.5">up</stem><beam number="1">begin</beam><lyric default-y="-91" name="verse" number="1"><syllabic>begin</syllabic><text font-size="10.8">ge</text></lyric></note><note default-x="133"><pitch><step>G</step><octave>4</octave></pitch><duration>4</duration><tie type="start" /><voice>1</voice><type>eighth</type><stem default-y="2">up</stem><beam number="1">end</beam><notations><tied type="start" /></notations><lyric default-y="-91" name="verse" number="1"><syllabic>end</syllabic><text font-size="10.8">wiss:</text><extend type="start" /></lyric></note><harmony default-y="36" font-size="10" font-weight="bold"><root><root-step>E</root-step></root><kind halign="center" text="m">minor</kind></harmony><note default-x="180"><pitch><step>G</step><octave>4</octave></pitch><duration>8</duration><tie type="stop" /><voice>1</voice><type>quarter</type><stem default-y="2">up</stem><notations><tied type="stop" /></notations><lyric name="verse" number="1"><extend type="stop" /></lyric></note><harmony default-y="36" font-size="10" font-weight="bold"><root><root-step>D</root-step></root><kind halign="center" text="">major</kind></harmony><note default-x="227"><pitch><step>A</step><octave>4</octave></pitch><duration>4</duration><voice>1</voice><type>eighth</type><stem default-y="6.5">up</stem><beam number="1">begin</beam><lyric default-y="-91" name="verse" number="1"><syllabic>single</syllabic><text font-size="10.8">Du</text></lyric></note><note default-x="281"><pitch><step>G</step><octave>4</octave></pitch><duration>4</duration><tie type="start" /><voice>1</voice><type>eighth</type><stem default-y="2">up</stem><beam number="1">end</beam><notations><tied type="start" /></notations><lyric default-y="-91" name="verse" number="1"><syllabic>single</syllabic><text font-size="10.8">bist</text><extend type="start" /></lyric></note></measure><!--=======================================================--><measure number="14" width="114"><harmony default-y="36" font-size="10" font-weight="bold"><root><root-step>C</root-step></root><kind halign="center" text="">major</kind></harmony><note default-x="13"><pitch><step>G</step><octave>4</octave></pitch><duration>16</duration><tie type="stop" /><voice>1</voice><type>half</type><stem default-y="2">up</stem><notations><tied type="stop" /></notations><lyric name="verse" number="1"><extend type="stop" /></lyric></note><harmony default-y="36" font-size="10" font-weight="bold"><root><root-step>D</root-step></root><kind halign="center" text="">major</kind></harmony><note default-x="63"><pitch><step>A</step><octave>4</octave></pitch><duration>16</duration><voice>1</voice><type>half</type><stem default-y="7">up</stem><lyric default-y="-91" name="verse" number="1"><syllabic>single</syllabic><text font-size="10.8">mein</text></lyric></note></measure><!--=======================================================--><measure number="15" width="312"><harmony default-y="36" font-size="10" font-weight="bold"><root><root-step>C</root-step></root><kind halign="center" text="">major</kind></harmony><note default-x="15"><pitch><step>B</step><octave>4</octave></pitch><duration>8</duration><voice>1</voice><type>quarter</type><stem default-y="-51.5">down</stem><lyric default-y="-91" name="verse" number="1"><syllabic>begin</syllabic><text font-size="10.8">wun</text></lyric></note><note default-x="71"><pitch><step>A</step><octave>4</octave></pitch><duration>4</duration><voice>1</voice><type>eighth</type><stem default-y="6.5">up</stem><beam number="1">begin</beam><lyric default-y="-91" name="verse" number="1"><syllabic>middle</syllabic><text font-size="10.8">der</text></lyric></note><note default-x="122"><pitch><step>G</step><octave>4</octave></pitch><duration>4</duration><tie type="start" /><voice>1</voice><type>eighth</type><stem default-y="2">up</stem><beam number="1">end</beam><notations><tied type="start" /></notations><lyric default-y="-91" name="verse" number="1"><syllabic>middle</syllabic><text font-size="10.8">ba</text></lyric></note><harmony default-y="36" font-size="10" font-weight="bold"><root><root-step>D</root-step></root><kind halign="center" text="">major</kind></harmony><note default-x="169"><pitch><step>G</step><octave>4</octave></pitch><duration>8</duration><tie type="stop" /><voice>1</voice><type>quarter</type><stem default-y="2">up</stem><notations><tied type="stop" /></notations></note><note default-x="216"><pitch><step>A</step><octave>4</octave></pitch><duration>4</duration><voice>1</voice><type>eighth</type><stem default-y="6.5">up</stem><beam number="1">begin</beam><notations><slur number="1" placement="above" type="start" /></notations><lyric default-y="-91" name="verse" number="1"><syllabic>end</syllabic><text font-size="10.8">rer</text><extend type="start" /></lyric></note><note default-x="263"><pitch><step>G</step><octave>4</octave></pitch><duration>4</duration><tie type="start" /><voice>1</voice><type>eighth</type><stem default-y="2">up</stem><beam number="1">end</beam><notations><tied type="start" /></notations></note></measure><!--=======================================================--><measure number="16" width="339"><print new-page="yes" page-number="2" /><harmony default-y="36" font-size="10" font-weight="bold"><root><root-step>G</root-step></root><kind halign="center" text="">major</kind></harmony><note default-x="76"><pitch><step>G</step><octave>4</octave></pitch><duration>4</duration><tie type="stop" /><voice>1</voice><type>eighth</type><stem default-y="2">up</stem><notations><tied type="stop" /><slur number="1" type="stop" /></notations><lyric name="verse" number="1"><extend type="stop" /></lyric></note><note default-x="124"><pitch><step>G</step><octave>4</octave></pitch><duration>12</duration><tie type="start" /><voice>1</voice><type>quarter</type><dot /><stem default-y="2">up</stem><notations><tied orientation="over" type="start" /></notations><lyric default-y="-91" name="verse" number="1"><syllabic>single</syllabic><text font-size="10.8">Hirt!</text><extend type="start" /></lyric></note><harmony default-y="36" font-size="10" font-weight="bold"><root><root-step>D</root-step></root><kind halign="center" text="">major</kind><bass><bass-step>F</bass-step><bass-alter>1</bass-alter></bass><offset>-8</offset></harmony><harmony default-y="36" font-size="10" font-weight="bold"><root><root-step>E</root-step></root><kind halign="center" text="m">minor</kind></harmony><note default-x="217"><pitch><step>G</step><octave>4</octave></pitch><duration>16</duration><tie type="stop" /><tie type="start" /><voice>1</voice><type>half</type><stem default-y="2">up</stem><notations><tied type="stop" /><tied orientation="over" type="start" /></notations></note><backup><duration>32</duration></backup><note default-x="76"><rest><display-step>A</display-step><display-octave>3</display-octave></rest><duration>8</duration><voice>2</voice><type size="cue">quarter</type></note><note default-x="157"><pitch><step>F</step><alter>1</alter><octave>4</octave></pitch><duration>8</duration><voice>2</voice><type size="cue">quarter</type><stem default-y="-62">down</stem></note><note default-x="217"><pitch><step>E</step><octave>4</octave></pitch><duration>8</duration><voice>2</voice><type size="cue">quarter</type><stem default-y="-68">down</stem></note><harmony default-y="36" font-size="10" font-weight="bold"><root><root-step>D</root-step></root><kind halign="center" text="">major</kind></harmony><note default-x="277"><pitch><step>D</step><octave>4</octave></pitch><duration>8</duration><voice>2</voice><type size="cue">quarter</type><stem default-y="-72.5">down</stem></note></measure><!--=======================================================--><measure number="17" width="137"><harmony default-y="36" font-size="10" font-weight="bold"><root><root-step>C</root-step></root><kind halign="center" text="">major</kind></harmony><note default-x="14"><pitch><step>G</step><octave>4</octave></pitch><duration>16</duration><tie type="stop" /><voice>1</voice><type>half</type><stem default-y="2">up</stem><notations><tied type="stop" /></notations><lyric name="verse" number="1"><extend type="stop" /></lyric></note><note default-x="68"><rest /><duration>16</duration><voice>1</voice><type>half</type></note><backup><duration>32</duration></backup><note default-x="14"><pitch><step>C</step><octave>4</octave></pitch><duration>16</duration><voice>2</voice><type size="cue">half</type><stem default-y="-77.5">down</stem></note><forward><duration>16</duration><voice>2</voice></forward><direction placement="above"><direction-type><words default-x="127" default-y="9" font-style="italic" justify="right">Fine</words></direction-type><sound fine="yes" /></direction><barline location="right"><bar-style>light-heavy</bar-style></barline></measure><!--=======================================================--><measure number="18" width="257"><harmony default-y="36" font-size="10" font-weight="bold"><root><root-step>G</root-step></root><kind halign="center" text="">major</kind></harmony><direction placement="above"><direction-type><rehearsal default-y="69" font-weight="bold" relative-x="-5">TURNAROUND</rehearsal></direction-type></direction><note default-x="12"><pitch><step>G</step><octave>4</octave></pitch><duration>8</duration><voice>1</voice><type size="cue">quarter</type><stem default-y="2">up</stem></note><harmony default-y="36" font-size="10" font-weight="bold"><root><root-step>D</root-step></root><kind halign="center" text="">major</kind><bass><bass-step>F</bass-step><bass-alter>1</bass-alter></bass></harmony><note default-x="73"><pitch><step>F</step><alter>1</alter><octave>4</octave></pitch><duration>8</duration><voice>1</voice><type size="cue">quarter</type><stem default-y="-3">up</stem></note><harmony default-y="36" font-size="10" font-weight="bold"><root><root-step>E</root-step></root><kind halign="center" text="m">minor</kind></harmony><note default-x="133"><pitch><step>E</step><octave>4</octave></pitch><duration>8</duration><voice>1</voice><type size="cue">quarter</type><stem default-y="-8">up</stem></note><harmony default-y="36" font-size="10" font-weight="bold"><root><root-step>D</root-step></root><kind halign="center" text="">major</kind></harmony><note default-x="194"><pitch><step>D</step><octave>4</octave></pitch><duration>8</duration><voice>1</voice><type size="cue">quarter</type><stem default-y="-13">up</stem></note></measure><!--=======================================================--><measure number="19" width="438"><harmony default-y="36" font-size="10" font-weight="bold"><root><root-step>C</root-step></root><kind halign="center" text="">major</kind></harmony><note default-x="13"><pitch><step>C</step><octave>4</octave></pitch><duration>16</duration><voice>1</voice><type size="cue">half</type><stem default-y="-18">up</stem></note><note default-x="80"><rest /><duration>8</duration><voice>1</voice><type>quarter</type></note><note default-x="146"><rest /><duration>2</duration><voice>1</voice><type>16th</type></note><note default-x="212"><pitch><step>D</step><octave>4</octave></pitch><duration>2</duration><voice>1</voice><type>16th</type><stem default-y="1">up</stem><beam number="1">begin</beam><beam number="2">begin</beam><lyric default-y="-91" name="verse" number="1"><syllabic>single</syllabic><text font-size="10.8">3.</text><elision> </elision><syllabic>single</syllabic><text font-size="10.8">Du</text><elision> </elision><syllabic>single</syllabic><text font-size="10.8" /><elision> </elision><syllabic>single</syllabic><text font-size="10.8" /></lyric></note><note default-x="289"><pitch><step>G</step><octave>4</octave></pitch><duration>2</duration><voice>1</voice><type>16th</type><stem default-y="4">up</stem><beam number="1">continue</beam><beam number="2">continue</beam><lyric default-y="-91" name="verse" number="1"><syllabic>single</syllabic><text font-size="10.8">hast</text></lyric></note><note default-x="362"><pitch><step>A</step><octave>4</octave></pitch><duration>2</duration><voice>1</voice><type>16th</type><stem default-y="6.5">up</stem><beam number="1">end</beam><beam number="2">end</beam><lyric default-y="-91" name="verse" number="1"><syllabic>single</syllabic><text font-size="10.8">mein</text></lyric></note><direction placement="above"><direction-type><words default-x="431" default-y="19" font-style="italic" justify="right">D.S. al Fine</words></direction-type><sound dalsegno="2" /></direction><barline location="right"><bar-style>light-light</bar-style></barline></measure></part><!--=========================================================--></score-partwise>